<svg width="230" height="32"  viewBox="0 0 286 39" fill="none" xmlns="http://www.w3.org/2000/svg">
<path d="M1.116 17.9205C1.116 15.8565 1.452 14.2485 2.124 13.0965C2.796 11.9325 3.972 11.3505 5.652 11.3505C7.32 11.3505 8.49 11.9325 9.162 13.0965C9.834 14.2485 10.17 15.8565 10.17 17.9205C10.17 20.0205 9.834 21.6525 9.162 22.8165C8.49 23.9805 7.32 24.5625 5.652 24.5625C3.972 24.5625 2.796 23.9805 2.124 22.8165C1.452 21.6525 1.116 20.0205 1.116 17.9205ZM8.55 17.9205C8.55 16.8765 8.478 15.9945 8.334 15.2745C8.202 14.5425 7.92 13.9545 7.488 13.5105C7.068 13.0665 6.456 12.8445 5.652 12.8445C4.836 12.8445 4.212 13.0665 3.78 13.5105C3.36 13.9545 3.078 14.5425 2.934 15.2745C2.802 15.9945 2.736 16.8765 2.736 17.9205C2.736 19.0005 2.802 19.9065 2.934 20.6385C3.078 21.3705 3.36 21.9585 3.78 22.4025C4.212 22.8465 4.836 23.0685 5.652 23.0685C6.456 23.0685 7.068 22.8465 7.488 22.4025C7.92 21.9585 8.202 21.3705 8.334 20.6385C8.478 19.9065 8.55 19.0005 8.55 17.9205ZM12.2207 23.2485C13.7447 22.0245 14.9387 21.0225 15.8027 20.2425C16.6667 19.4505 17.3927 18.6285 17.9807 17.7765C18.5807 16.9125 18.8807 16.0665 18.8807 15.2385C18.8807 14.4585 18.6887 13.8465 18.3047 13.4025C17.9327 12.9465 17.3267 12.7185 16.4867 12.7185C15.6707 12.7185 15.0347 12.9765 14.5787 13.4925C14.1347 13.9965 13.8947 14.6745 13.8587 15.5265H12.2747C12.3227 14.1825 12.7307 13.1445 13.4987 12.4125C14.2667 11.6805 15.2567 11.3145 16.4687 11.3145C17.7047 11.3145 18.6827 11.6565 19.4027 12.3405C20.1347 13.0245 20.5007 13.9665 20.5007 15.1665C20.5007 16.1625 20.2007 17.1345 19.6007 18.0825C19.0127 19.0185 18.3407 19.8465 17.5847 20.5665C16.8287 21.2745 15.8627 22.1025 14.6867 23.0505H20.8787V24.4185H12.2207V23.2485Z" fill="#9E9D9B"/>
<path d="M53.7969 23.9531C53.7969 24.2969 53.4375 24.4688 52.7188 24.4688C52.1641 24.4688 51.8281 24.332 51.7109 24.0586L49.5195 19.0195H41.8672L39.6641 24.1992C39.5781 24.3789 39.3594 24.4688 39.0078 24.4688C38.5312 24.4688 38.293 24.3516 38.293 24.1172C38.293 24.1094 38.3008 24.0742 38.3164 24.0117L44.9609 8.39062C45.0625 8.13281 45.4297 8.00391 46.0625 8.00391C46.6094 8.00391 46.9453 8.14062 47.0703 8.41406L53.7266 23.7422C53.7734 23.8516 53.7969 23.9219 53.7969 23.9531ZM49.0625 17.9531L45.6523 10.1016L42.3125 17.9531H49.0625ZM56.2344 24.4688C55.5938 24.4688 55.2734 24.2891 55.2734 23.9297V13.0078C55.2734 12.6484 55.5938 12.4688 56.2344 12.4688C56.8672 12.4688 57.1836 12.6484 57.1836 13.0078V14.3086C57.7461 13.082 58.7695 12.4688 60.2539 12.4688C61.1289 12.4688 61.8867 12.6797 62.5273 13.1016C62.6836 13.2031 62.7617 13.3281 62.7617 13.4766C62.7617 13.6562 62.6562 13.8242 62.4453 13.9805C62.2812 14.0977 62.0977 14.1562 61.8945 14.1562C61.6211 14.1562 61.3672 14.0586 61.1328 13.8633C60.8984 13.6602 60.5273 13.5586 60.0195 13.5586C58.9023 13.5586 58.1484 14.0938 57.7578 15.1641C57.375 16.2344 57.1836 17.2344 57.1836 18.1641V23.9297C57.1836 24.2891 56.8672 24.4688 56.2344 24.4688ZM73.6367 20.1797C74.2695 20.1797 74.5859 20.3477 74.5859 20.6836C74.5859 21.1367 74.3789 21.6602 73.9648 22.2539C72.918 23.7305 71.2773 24.4688 69.043 24.4688C65.0508 24.4688 63.0547 22.4922 63.0547 18.5391C63.0391 14.4922 65.0781 12.4688 69.1719 12.4688C71.3203 12.4688 72.8945 13.1602 73.8945 14.543C74.3398 15.1367 74.5625 15.6953 74.5625 16.2188C74.5625 16.5781 74.2461 16.7578 73.6133 16.7578C73.0195 16.7578 72.7031 16.5938 72.6641 16.2656C72.4141 14.4453 71.2578 13.5352 69.1953 13.5352C67.7812 13.5352 66.7227 14.0469 66.0195 15.0703C65.3164 16.0938 64.9648 17.25 64.9648 18.5391C64.9648 19.8125 65.3125 20.9414 66.0078 21.9258C66.7031 22.9102 67.7422 23.4023 69.125 23.4023C71.1719 23.4023 72.3594 22.4883 72.6875 20.6602C72.7422 20.3398 73.0586 20.1797 73.6367 20.1797ZM86.1641 24.4688C85.5312 24.4688 85.2148 24.293 85.2148 23.9414V17.7188C85.2148 16.3281 84.8672 15.2852 84.1719 14.5898C83.4766 13.8945 82.707 13.5469 81.8633 13.5469C79.457 13.5312 78.2539 15.0391 78.2539 18.0703V23.9414C78.2539 24.293 77.9375 24.4688 77.3047 24.4688C76.6641 24.4688 76.3438 24.293 76.3438 23.9414V8.53125C76.3438 8.17969 76.6641 8.00391 77.3047 8.00391C77.9375 8.00391 78.2539 8.17969 78.2539 8.53125V14.332C78.9492 13.082 80.1992 12.457 82.0039 12.457C83.5195 12.457 84.75 12.9609 85.6953 13.9688C86.6484 14.9766 87.125 16.2266 87.125 17.7188V23.9414C87.125 24.293 86.8047 24.4688 86.1641 24.4688ZM89.6445 9.03516C90.3477 9.03516 90.6992 9.38672 90.6992 10.0898C90.6992 10.793 90.3477 11.1445 89.6445 11.1445C88.9414 11.1445 88.5898 10.793 88.5898 10.0898C88.5898 9.38672 88.9414 9.03516 89.6445 9.03516ZM88.6836 12.9961C88.6836 12.6445 89.0039 12.4688 89.6445 12.4688C90.2852 12.4688 90.6055 12.6445 90.6055 12.9961V23.9297C90.6055 24.2891 90.2852 24.4688 89.6445 24.4688C89.0039 24.4688 88.6836 24.2891 88.6836 23.9297V12.9961ZM98.0703 24.4688C95.6016 24.4531 94.3672 23.4023 94.3672 21.3164V13.5352H92.8203C92.1875 13.5352 91.8711 13.3594 91.8711 13.0078C91.8711 12.6484 92.1875 12.4688 92.8203 12.4688H94.3672V8.54297C94.3672 8.18359 94.6875 8.00391 95.3281 8.00391C95.9609 8.00391 96.2773 8.18359 96.2773 8.54297V12.4688H98.4805C99.1211 12.4688 99.4414 12.6484 99.4414 13.0078C99.4414 13.3594 99.1211 13.5352 98.4805 13.5352H96.2773V21.3164C96.2773 22.6992 96.875 23.3945 98.0703 23.4023C98.2969 23.4023 98.5117 23.3828 98.7148 23.3438C98.918 23.2969 99.1211 23.2734 99.3242 23.2734C99.9727 23.2734 100.297 23.4531 100.297 23.8125C100.297 24.0703 100.023 24.2461 99.4766 24.3398C99.0078 24.4258 98.5391 24.4688 98.0703 24.4688ZM106.695 24.4688C104.938 24.4688 103.48 23.9336 102.324 22.8633C101.176 21.7852 100.602 20.3516 100.602 18.5625C100.602 16.75 101.184 15.2812 102.348 14.1562C103.52 13.0312 105 12.4688 106.789 12.4688C108.469 12.4688 109.898 12.9258 111.078 13.8398C112.266 14.7539 112.859 16.0977 112.859 17.8711C112.859 18.293 112.543 18.5039 111.91 18.5039H102.5C102.5 19.7539 102.859 20.8828 103.578 21.8906C104.305 22.8984 105.348 23.4023 106.707 23.4023C107.699 23.4023 108.586 23.1367 109.367 22.6055C110.211 22.043 110.668 21.3984 110.738 20.6719C110.777 20.3359 111.09 20.168 111.676 20.168C112.316 20.168 112.637 20.3438 112.637 20.6953C112.637 20.9453 112.551 21.25 112.379 21.6094C112.066 22.2656 111.551 22.8281 110.832 23.2969C109.66 24.0781 108.281 24.4688 106.695 24.4688ZM110.938 17.4258C110.742 14.832 109.359 13.5352 106.789 13.5352C104.492 13.5352 103.098 14.832 102.605 17.4258H110.938ZM124.613 20.1797C125.246 20.1797 125.562 20.3477 125.562 20.6836C125.562 21.1367 125.355 21.6602 124.941 22.2539C123.895 23.7305 122.254 24.4688 120.02 24.4688C116.027 24.4688 114.031 22.4922 114.031 18.5391C114.016 14.4922 116.055 12.4688 120.148 12.4688C122.297 12.4688 123.871 13.1602 124.871 14.543C125.316 15.1367 125.539 15.6953 125.539 16.2188C125.539 16.5781 125.223 16.7578 124.59 16.7578C123.996 16.7578 123.68 16.5938 123.641 16.2656C123.391 14.4453 122.234 13.5352 120.172 13.5352C118.758 13.5352 117.699 14.0469 116.996 15.0703C116.293 16.0938 115.941 17.25 115.941 18.5391C115.941 19.8125 116.289 20.9414 116.984 21.9258C117.68 22.9102 118.719 23.4023 120.102 23.4023C122.148 23.4023 123.336 22.4883 123.664 20.6602C123.719 20.3398 124.035 20.1797 124.613 20.1797ZM132.641 24.4688C130.172 24.4531 128.938 23.4023 128.938 21.3164V13.5352H127.391C126.758 13.5352 126.441 13.3594 126.441 13.0078C126.441 12.6484 126.758 12.4688 127.391 12.4688H128.938V8.54297C128.938 8.18359 129.258 8.00391 129.898 8.00391C130.531 8.00391 130.848 8.18359 130.848 8.54297V12.4688H133.051C133.691 12.4688 134.012 12.6484 134.012 13.0078C134.012 13.3594 133.691 13.5352 133.051 13.5352H130.848V21.3164C130.848 22.6992 131.445 23.3945 132.641 23.4023C132.867 23.4023 133.082 23.3828 133.285 23.3438C133.488 23.2969 133.691 23.2734 133.895 23.2734C134.543 23.2734 134.867 23.4531 134.867 23.8125C134.867 24.0703 134.594 24.2461 134.047 24.3398C133.578 24.4258 133.109 24.4688 132.641 24.4688ZM137.305 12.457C137.938 12.457 138.254 12.6367 138.254 12.9961V19.207C138.254 20.2305 138.527 21.1836 139.074 22.0664C139.629 22.9414 140.48 23.3789 141.629 23.3789C144.02 23.3789 145.215 21.875 145.215 18.8672V12.9961C145.215 12.6367 145.531 12.457 146.164 12.457C146.805 12.457 147.125 12.6367 147.125 12.9961V23.9297C147.125 24.2891 146.805 24.4688 146.164 24.4688C145.531 24.4688 145.215 24.2891 145.215 23.9297V22.6055C144.52 23.8555 143.27 24.4805 141.465 24.4805C140.215 24.4883 139.047 24.0508 137.961 23.168C136.883 22.2773 136.344 20.957 136.344 19.207V12.9961C136.344 12.6367 136.664 12.457 137.305 12.457ZM150.43 24.4688C149.789 24.4688 149.469 24.2891 149.469 23.9297V13.0078C149.469 12.6484 149.789 12.4688 150.43 12.4688C151.062 12.4688 151.379 12.6484 151.379 13.0078V14.3086C151.941 13.082 152.965 12.4688 154.449 12.4688C155.324 12.4688 156.082 12.6797 156.723 13.1016C156.879 13.2031 156.957 13.3281 156.957 13.4766C156.957 13.6562 156.852 13.8242 156.641 13.9805C156.477 14.0977 156.293 14.1562 156.09 14.1562C155.816 14.1562 155.562 14.0586 155.328 13.8633C155.094 13.6602 154.723 13.5586 154.215 13.5586C153.098 13.5586 152.344 14.0938 151.953 15.1641C151.57 16.2344 151.379 17.2344 151.379 18.1641V23.9297C151.379 24.2891 151.062 24.4688 150.43 24.4688ZM163.344 24.4688C161.586 24.4688 160.129 23.9336 158.973 22.8633C157.824 21.7852 157.25 20.3516 157.25 18.5625C157.25 16.75 157.832 15.2812 158.996 14.1562C160.168 13.0312 161.648 12.4688 163.438 12.4688C165.117 12.4688 166.547 12.9258 167.727 13.8398C168.914 14.7539 169.508 16.0977 169.508 17.8711C169.508 18.293 169.191 18.5039 168.559 18.5039H159.148C159.148 19.7539 159.508 20.8828 160.227 21.8906C160.953 22.8984 161.996 23.4023 163.355 23.4023C164.348 23.4023 165.234 23.1367 166.016 22.6055C166.859 22.043 167.316 21.3984 167.387 20.6719C167.426 20.3359 167.738 20.168 168.324 20.168C168.965 20.168 169.285 20.3438 169.285 20.6953C169.285 20.9453 169.199 21.25 169.027 21.6094C168.715 22.2656 168.199 22.8281 167.48 23.2969C166.309 24.0781 164.93 24.4688 163.344 24.4688ZM167.586 17.4258C167.391 14.832 166.008 13.5352 163.438 13.5352C161.141 13.5352 159.746 14.832 159.254 17.4258H167.586Z" fill="#0A0A0A"/>
<path d="M254.75 18.75C254.75 18.4185 254.882 18.1005 255.116 17.8661C255.351 17.6317 255.669 17.5 256 17.5L272.988 17.5L271.363 15.8875C271.127 15.6521 270.995 15.3329 270.995 15C270.995 14.6671 271.127 14.3479 271.363 14.1125C271.598 13.8771 271.917 13.7449 272.25 13.7449C272.583 13.7449 272.902 13.8771 273.138 14.1125L276.888 17.8625C277.061 18.0383 277.179 18.2615 277.225 18.504C277.272 18.7465 277.246 18.9973 277.15 19.225C277.057 19.4533 276.897 19.6487 276.693 19.7866C276.488 19.9245 276.247 19.9988 276 20L256 20C255.669 20 255.351 19.8683 255.116 19.6339C254.882 19.3994 254.75 19.0815 254.75 18.75Z" fill="#9E9D9B"/>
<path d="M271.001 22.5C271 22.3355 271.031 22.1724 271.094 22.0201C271.156 21.8678 271.247 21.7293 271.363 21.6125L275.113 17.8625C275.349 17.6271 275.668 17.4949 276.001 17.4949C276.166 17.4949 276.329 17.5273 276.481 17.5904C276.633 17.6535 276.772 17.7459 276.888 17.8625C277.005 17.979 277.097 18.1174 277.16 18.2697C277.223 18.422 277.256 18.5852 277.256 18.75C277.256 19.0829 277.124 19.4021 276.888 19.6375L273.138 23.3875C273.022 23.5046 272.884 23.5976 272.731 23.6611C272.579 23.7246 272.416 23.7572 272.251 23.7572C272.086 23.7572 271.922 23.7246 271.77 23.6611C271.618 23.5976 271.479 23.5046 271.363 23.3875C271.247 23.2707 271.156 23.1322 271.094 22.9799C271.031 22.8276 271 22.6645 271.001 22.5Z" fill="#9E9D9B"/>
</svg>
