<svg width="42" height="43" viewBox="0 0 42 43" fill="none" xmlns="http://www.w3.org/2000/svg">
<circle cx="21" cy="21.6659" r="20" stroke="#9162FA" stroke-width="2"/>
<path d="M31.1089 24.6976C30.9816 24.6649 30.8491 24.6576 30.719 24.6762C30.5889 24.6949 30.4637 24.739 30.3508 24.8062C30.2378 24.8733 30.1392 24.9621 30.0606 25.0675C29.9821 25.1729 29.9251 25.2928 29.8931 25.4202C29.71 26.1266 29.2756 26.742 28.6714 27.151C28.0671 27.56 27.3344 27.7347 26.6106 27.6422C25.8868 27.5497 25.2215 27.1965 24.7395 26.6487C24.2575 26.1008 23.9918 25.396 23.9922 24.6663V23.6663H30.9922C31.1235 23.6664 31.2536 23.6405 31.3749 23.5903C31.4963 23.5401 31.6065 23.4664 31.6994 23.3735C31.7922 23.2807 31.8659 23.1704 31.9161 23.0491C31.9664 22.9277 31.9922 22.7977 31.9922 22.6663C31.9922 22.0097 31.8629 21.3596 31.6116 20.7529C31.3603 20.1463 30.992 19.5951 30.5277 19.1308C30.0634 18.6665 29.5122 18.2982 28.9056 18.0469C28.299 17.7957 27.6488 17.6663 26.9922 17.6663C26.3356 17.6663 25.6854 17.7957 25.0788 18.0469C24.4721 18.2982 23.9209 18.6665 23.4567 19.1308C22.9924 19.5951 22.6241 20.1463 22.3728 20.7529C22.1215 21.3596 21.9922 22.0097 21.9922 22.6663V24.6663C21.9918 25.8835 22.4355 27.059 23.2402 27.9723C24.0448 28.8856 25.155 29.4738 26.3626 29.6268C27.5701 29.7797 28.7919 29.4867 29.7988 28.8029C30.8057 28.119 31.5285 27.0913 31.8315 25.9124C31.8639 25.7852 31.8709 25.6529 31.8521 25.5229C31.8333 25.393 31.7891 25.2681 31.722 25.1552C31.6549 25.0424 31.5662 24.9439 31.461 24.8654C31.3558 24.7869 31.2361 24.7299 31.1089 24.6976ZM26.9922 19.6663C27.7856 19.6666 28.5467 19.98 29.1103 20.5384C29.4233 20.8585 29.6619 21.2436 29.809 21.6663H24.1765C24.3819 21.0831 24.7629 20.5777 25.267 20.2196C25.7712 19.8615 26.3738 19.6683 26.9922 19.6663ZM24.9922 16.6663H28.9922C29.2574 16.6663 29.5118 16.561 29.6993 16.3735C29.8868 16.1859 29.9922 15.9316 29.9922 15.6663C29.9922 15.4011 29.8868 15.1468 29.6993 14.9592C29.5118 14.7717 29.2574 14.6663 28.9922 14.6663H24.9922C24.727 14.6663 24.4726 14.7717 24.2851 14.9592C24.0975 15.1468 23.9922 15.4011 23.9922 15.6663C23.9922 15.9316 24.0975 16.1859 24.2851 16.3735C24.4726 16.561 24.727 16.6663 24.9922 16.6663ZM18.9102 21.3835C19.4439 20.8158 19.7995 20.1042 19.9332 19.3366C20.0668 18.569 19.9726 17.7791 19.6621 17.0645C19.3517 16.3498 18.8386 15.7418 18.1864 15.3156C17.5342 14.8894 16.7713 14.6637 15.9922 14.6663H10.9922C10.8609 14.6663 10.7308 14.6921 10.6095 14.7424C10.4881 14.7926 10.3779 14.8663 10.285 14.9592C10.1921 15.052 10.1185 15.1623 10.0682 15.2836C10.018 15.405 9.99215 15.535 9.99219 15.6663V28.6663C9.99215 28.7977 10.018 28.9277 10.0682 29.0491C10.1185 29.1704 10.1921 29.2807 10.285 29.3735C10.3779 29.4664 10.4881 29.5401 10.6095 29.5903C10.7308 29.6405 10.8609 29.6664 10.9922 29.6663H16.4922C17.4653 29.6681 18.4127 29.3538 19.1918 28.7707C19.9709 28.1876 20.5396 27.3673 20.8123 26.4332C21.085 25.499 21.047 24.5016 20.704 23.5909C20.3609 22.6802 19.7314 21.9056 18.9102 21.3835ZM11.9922 16.6663H15.9922C16.5226 16.6663 17.0313 16.8771 17.4064 17.2521C17.7815 17.6272 17.9922 18.1359 17.9922 18.6663C17.9922 19.1968 17.7815 19.7055 17.4064 20.0806C17.0313 20.4556 16.5226 20.6663 15.9922 20.6663H11.9922V16.6663ZM16.4922 27.6663H11.9922V22.6663H16.4922C17.1552 22.6663 17.7911 22.9297 18.26 23.3986C18.7288 23.8674 18.9922 24.5033 18.9922 25.1663C18.9922 25.8294 18.7288 26.4653 18.26 26.9341C17.7911 27.403 17.1552 27.6663 16.4922 27.6663Z" fill="#7F3BF3"/>
</svg>
