<svg width="536" height="464" viewBox="0 0 536 464" fill="none" xmlns="http://www.w3.org/2000/svg">
<path d="M2.256 25V8.2H10.128C12.144 8.2 13.68 8.6 14.736 9.4C15.792 10.184 16.32 11.24 16.32 12.568C16.32 13.464 16.112 14.232 15.696 14.872C15.28 15.496 14.72 15.984 14.016 16.336C13.328 16.672 12.576 16.84 11.76 16.84L12.192 15.976C13.136 15.976 13.984 16.152 14.736 16.504C15.488 16.84 16.08 17.336 16.512 17.992C16.96 18.648 17.184 19.464 17.184 20.44C17.184 21.88 16.632 23 15.528 23.8C14.424 24.6 12.784 25 10.608 25H2.256ZM5.376 22.552H10.416C11.584 22.552 12.48 22.36 13.104 21.976C13.728 21.592 14.04 20.976 14.04 20.128C14.04 19.296 13.728 18.688 13.104 18.304C12.48 17.904 11.584 17.704 10.416 17.704H5.136V15.28H9.792C10.88 15.28 11.712 15.088 12.288 14.704C12.88 14.32 13.176 13.744 13.176 12.976C13.176 12.192 12.88 11.608 12.288 11.224C11.712 10.84 10.88 10.648 9.792 10.648H5.376V22.552ZM25.5058 25.168C24.1938 25.168 23.0258 24.888 22.0018 24.328C20.9778 23.752 20.1698 22.968 19.5778 21.976C18.9858 20.984 18.6898 19.856 18.6898 18.592C18.6898 17.312 18.9858 16.184 19.5778 15.208C20.1698 14.216 20.9778 13.44 22.0018 12.88C23.0258 12.32 24.1938 12.04 25.5058 12.04C26.8338 12.04 28.0098 12.32 29.0338 12.88C30.0738 13.44 30.8818 14.208 31.4578 15.184C32.0498 16.16 32.3458 17.296 32.3458 18.592C32.3458 19.856 32.0498 20.984 31.4578 21.976C30.8818 22.968 30.0738 23.752 29.0338 24.328C28.0098 24.888 26.8338 25.168 25.5058 25.168ZM25.5058 22.6C26.2418 22.6 26.8978 22.44 27.4738 22.12C28.0498 21.8 28.4978 21.336 28.8178 20.728C29.1538 20.12 29.3218 19.408 29.3218 18.592C29.3218 17.76 29.1538 17.048 28.8178 16.456C28.4978 15.848 28.0498 15.384 27.4738 15.064C26.8978 14.744 26.2498 14.584 25.5298 14.584C24.7938 14.584 24.1378 14.744 23.5618 15.064C23.0018 15.384 22.5538 15.848 22.2178 16.456C21.8818 17.048 21.7138 17.76 21.7138 18.592C21.7138 19.408 21.8818 20.12 22.2178 20.728C22.5538 21.336 23.0018 21.8 23.5618 22.12C24.1378 22.44 24.7858 22.6 25.5058 22.6ZM34.7346 25V7.192H37.7346V25H34.7346ZM46.6161 25.168C45.3841 25.168 44.2721 24.896 43.2801 24.352C42.3041 23.792 41.5361 23.024 40.9761 22.048C40.4161 21.072 40.1361 19.92 40.1361 18.592C40.1361 17.264 40.4161 16.112 40.9761 15.136C41.5361 14.16 42.3041 13.4 43.2801 12.856C44.2721 12.312 45.3841 12.04 46.6161 12.04C47.6881 12.04 48.6481 12.28 49.4961 12.76C50.3441 13.224 51.0161 13.936 51.5121 14.896C52.0081 15.856 52.2561 17.088 52.2561 18.592C52.2561 20.08 52.0161 21.312 51.5361 22.288C51.0561 23.248 50.3921 23.968 49.5441 24.448C48.6961 24.928 47.7201 25.168 46.6161 25.168ZM46.9761 22.6C47.6961 22.6 48.3361 22.44 48.8961 22.12C49.4721 21.8 49.9281 21.336 50.2641 20.728C50.6161 20.12 50.7921 19.408 50.7921 18.592C50.7921 17.76 50.6161 17.048 50.2641 16.456C49.9281 15.848 49.4721 15.384 48.8961 15.064C48.3361 14.744 47.6961 14.584 46.9761 14.584C46.2561 14.584 45.6081 14.744 45.0321 15.064C44.4721 15.384 44.0161 15.848 43.6641 16.456C43.3281 17.048 43.1601 17.76 43.1601 18.592C43.1601 19.408 43.3281 20.12 43.6641 20.728C44.0161 21.336 44.4721 21.8 45.0321 22.12C45.6081 22.44 46.2561 22.6 46.9761 22.6ZM50.8641 25V21.976L50.9841 18.568L50.7441 15.16V7.192H53.7201V25H50.8641Z" fill="white"/>
<rect y="56" width="536" height="408" rx="16" fill="#252525"/>
<path d="M53.0697 93.23C51.4597 93.07 49.8497 92.95 48.2297 92.86V92.85L48.0097 91.55C47.8597 90.63 47.6397 89.25 45.2997 89.25H42.6797C40.3497 89.25 40.1297 90.57 39.9697 91.54L39.7597 92.82C38.8297 92.88 37.8997 92.94 36.9697 93.03L34.9297 93.23C34.5097 93.27 34.2097 93.64 34.2497 94.05C34.2897 94.46 34.6497 94.76 35.0697 94.72L37.1097 94.52C42.3497 94 47.6297 94.2 52.9297 94.73C52.9597 94.73 52.9797 94.73 53.0097 94.73C53.3897 94.73 53.7197 94.44 53.7597 94.05C53.7897 93.64 53.4897 93.27 53.0697 93.23Z" fill="white"/>
<path d="M51.2297 96.14C50.9897 95.89 50.6597 95.75 50.3197 95.75H37.6797C37.3397 95.75 36.9997 95.89 36.7697 96.14C36.5397 96.39 36.4097 96.73 36.4297 97.08L37.0497 107.34C37.1597 108.86 37.2997 110.76 40.7897 110.76H47.2097C50.6997 110.76 50.8398 108.87 50.9497 107.34L51.5697 97.09C51.5897 96.73 51.4597 96.39 51.2297 96.14ZM45.6597 105.75H42.3297C41.9197 105.75 41.5797 105.41 41.5797 105C41.5797 104.59 41.9197 104.25 42.3297 104.25H45.6597C46.0697 104.25 46.4097 104.59 46.4097 105C46.4097 105.41 46.0697 105.75 45.6597 105.75ZM46.4997 101.75H41.4997C41.0897 101.75 40.7497 101.41 40.7497 101C40.7497 100.59 41.0897 100.25 41.4997 100.25H46.4997C46.9097 100.25 47.2497 100.59 47.2497 101C47.2497 101.41 46.9097 101.75 46.4997 101.75Z" fill="white"/>
<path d="M108.93 92.79H103.35C99.25 92.79 98 94.04 98 98.14V101.86C98 105.96 99.25 107.21 103.35 107.21H108.93C113.03 107.21 114.28 105.96 114.28 101.86V98.14C114.28 94.04 113.03 92.79 108.93 92.79Z" fill="white"/>
<path d="M116.419 97.0005C116.279 96.9905 116.099 96.9805 115.899 96.9805C115.509 96.9805 115.199 97.2905 115.199 97.6805V102.33C115.199 102.72 115.509 103.03 115.899 103.03C116.099 103.03 116.269 103.02 116.439 103.01C117.999 102.83 117.999 101.73 117.999 100.93V99.0705C117.999 98.2705 117.999 97.1705 116.419 97.0005Z" fill="white"/>
<path d="M180.419 97.0005C180.279 96.9905 180.099 96.9805 179.899 96.9805C179.509 96.9805 179.199 97.2905 179.199 97.6805V102.33C179.199 102.72 179.509 103.03 179.899 103.03C180.099 103.03 180.269 103.02 180.439 103.01C181.999 102.83 181.999 101.73 181.999 100.93V99.0705C181.999 98.2705 181.999 97.1705 180.419 97.0005Z" fill="white"/>
<path d="M172.93 92.79H167.35C163.25 92.79 162 94.04 162 98.14V101.86C162 105.96 163.25 107.21 167.35 107.21H172.93C177.03 107.21 178.28 105.96 178.28 101.86V98.14C178.28 94.04 177.03 92.79 172.93 92.79ZM167.1 102.18C167.02 102.52 166.71 102.75 166.37 102.75C166.31 102.75 166.25 102.74 166.19 102.73C165.79 102.63 165.54 102.22 165.64 101.82C165.94 100.63 165.94 99.37 165.64 98.18C165.54 97.78 165.78 97.37 166.19 97.27C166.59 97.17 167 97.42 167.1 97.82C167.46 99.25 167.46 100.75 167.1 102.18Z" fill="white"/>
<path d="M244.419 97.0005C244.279 96.9905 244.099 96.9805 243.899 96.9805C243.509 96.9805 243.199 97.2905 243.199 97.6805V102.33C243.199 102.72 243.509 103.03 243.899 103.03C244.099 103.03 244.269 103.02 244.439 103.01C245.999 102.83 245.999 101.73 245.999 100.93V99.0705C245.999 98.2705 245.999 97.1705 244.419 97.0005Z" fill="white"/>
<path d="M236.93 92.79H231.35C227.25 92.79 226 94.04 226 98.14V101.86C226 105.96 227.25 107.21 231.35 107.21H236.93C241.03 107.21 242.28 105.96 242.28 101.86V98.14C242.28 94.04 241.03 92.79 236.93 92.79ZM231.1 102.18C231.02 102.52 230.71 102.75 230.37 102.75C230.31 102.75 230.25 102.74 230.19 102.73C229.79 102.63 229.54 102.22 229.64 101.82C229.94 100.63 229.94 99.37 229.64 98.18C229.54 97.78 229.78 97.37 230.19 97.27C230.6 97.17 231 97.42 231.1 97.82C231.46 99.25 231.46 100.75 231.1 102.18ZM234.6 102.18C234.52 102.52 234.21 102.75 233.87 102.75C233.81 102.75 233.75 102.74 233.69 102.73C233.29 102.63 233.04 102.22 233.14 101.82C233.44 100.63 233.44 99.37 233.14 98.18C233.04 97.78 233.28 97.37 233.69 97.27C234.09 97.17 234.5 97.41 234.6 97.82C234.96 99.25 234.96 100.75 234.6 102.18Z" fill="white"/>
<path d="M308.419 97.0005C308.279 96.9905 308.099 96.9805 307.899 96.9805C307.509 96.9805 307.199 97.2905 307.199 97.6805V102.33C307.199 102.72 307.509 103.03 307.899 103.03C308.099 103.03 308.269 103.02 308.439 103.01C309.999 102.83 309.999 101.73 309.999 100.93V99.0705C309.999 98.2705 309.999 97.1705 308.419 97.0005Z" fill="white"/>
<path d="M300.93 92.79H295.35C291.25 92.79 290 94.04 290 98.14V101.86C290 105.96 291.25 107.21 295.35 107.21H300.93C305.03 107.21 306.28 105.96 306.28 101.86V98.14C306.28 94.04 305.03 92.79 300.93 92.79ZM295.1 102.18C295.02 102.52 294.71 102.75 294.37 102.75C294.31 102.75 294.25 102.74 294.19 102.73C293.79 102.63 293.54 102.22 293.64 101.82C293.94 100.63 293.94 99.37 293.64 98.18C293.54 97.78 293.78 97.37 294.19 97.27C294.6 97.17 295 97.42 295.1 97.82C295.46 99.25 295.46 100.75 295.1 102.18ZM298.6 102.18C298.52 102.52 298.21 102.75 297.87 102.75C297.81 102.75 297.75 102.74 297.69 102.73C297.29 102.63 297.04 102.22 297.14 101.82C297.44 100.63 297.44 99.37 297.14 98.18C297.04 97.78 297.28 97.37 297.69 97.27C298.09 97.17 298.5 97.41 298.6 97.82C298.96 99.25 298.96 100.75 298.6 102.18ZM302.1 102.18C302.02 102.52 301.71 102.75 301.37 102.75C301.31 102.75 301.25 102.74 301.19 102.73C300.79 102.63 300.54 102.22 300.64 101.82C300.94 100.63 300.94 99.37 300.64 98.18C300.54 97.78 300.78 97.37 301.19 97.27C301.59 97.17 302 97.41 302.1 97.82C302.46 99.25 302.46 100.75 302.1 102.18Z" fill="white"/>
<path d="M372.419 97.0005C372.279 96.9905 372.099 96.9805 371.899 96.9805C371.509 96.9805 371.199 97.2905 371.199 97.6805V102.33C371.199 102.72 371.509 103.03 371.899 103.03C372.099 103.03 372.269 103.02 372.439 103.01C373.999 102.83 373.999 101.73 373.999 100.93V99.0705C373.999 98.2705 373.999 97.1705 372.419 97.0005Z" fill="white"/>
<path d="M364.93 92.79H359.35C355.25 92.79 354 94.04 354 98.14V101.86C354 105.96 355.25 107.21 359.35 107.21H364.93C369.03 107.21 370.28 105.96 370.28 101.86V98.14C370.28 94.04 369.03 92.79 364.93 92.79ZM364.53 101.68C364.51 101.72 364.48 101.76 364.45 101.79L362.58 103.98C362.43 104.15 362.22 104.24 362.01 104.24C361.84 104.24 361.66 104.18 361.52 104.06C361.21 103.79 361.17 103.32 361.44 103L363.24 100.89C363.25 100.86 363.24 100.83 363.22 100.8C363.2 100.76 363.16 100.74 363.11 100.74H361.12C360.53 100.74 360.01 100.44 359.71 99.93C359.42 99.42 359.42 98.82 359.71 98.31L361.42 96.05C361.67 95.72 362.14 95.65 362.47 95.9C362.8 96.15 362.87 96.62 362.62 96.95L360.97 99.14C361 99.1 361 99.14 361.02 99.19C361.04 99.23 361.08 99.25 361.13 99.25H363.14C363.73 99.25 364.25 99.55 364.55 100.06C364.82 100.57 364.82 101.17 364.53 101.68Z" fill="white"/>
<path d="M436.419 97.0005C436.279 96.9905 436.099 96.9805 435.899 96.9805C435.509 96.9805 435.199 97.2905 435.199 97.6805V102.33C435.199 102.72 435.509 103.03 435.899 103.03C436.099 103.03 436.269 103.02 436.439 103.01C437.999 102.83 437.999 101.73 437.999 100.93V99.0705C437.999 98.2705 437.999 97.1705 436.419 97.0005Z" fill="white"/>
<path d="M434.279 98.1395V101.86C434.279 104.81 431.879 107.21 428.929 107.21H425.259C424.469 107.21 423.989 106.34 424.409 105.68L431.669 94.1995C432.029 93.6295 432.839 93.5795 433.289 94.0895C434.009 94.9195 434.279 96.2095 434.279 98.1395Z" fill="white"/>
<path d="M432.4 89.8704C432.05 89.6504 431.59 89.7504 431.37 90.1004L429.66 92.8104C429.43 92.8004 429.19 92.7904 428.93 92.7904H423.35C419.25 92.7904 418 94.0404 418 98.1404V101.86C418 104.91 418.7 106.37 420.74 106.92L419.37 109.1C419.15 109.45 419.25 109.91 419.6 110.13C419.72 110.21 419.86 110.25 420 110.25C420.25 110.25 420.49 110.13 420.63 109.9L432.63 90.9004C432.86 90.5504 432.75 90.0904 432.4 89.8704Z" fill="white"/>
<path d="M500.83 96.01L494.28 90.77C493 89.75 491 89.74 489.73 90.76L483.18 96.01C482.24 96.76 481.67 98.26 481.87 99.44L483.13 106.98C483.42 108.67 484.99 110 486.7 110H497.3C498.99 110 500.59 108.64 500.88 106.97L502.14 99.43C502.32 98.26 501.75 96.76 500.83 96.01ZM492.75 106C492.75 106.41 492.41 106.75 492 106.75C491.59 106.75 491.25 106.41 491.25 106V103C491.25 102.59 491.59 102.25 492 102.25C492.41 102.25 492.75 102.59 492.75 103V106Z" fill="white"/>
<path d="M44 154C38.49 154 34 158.49 34 164C34 169.51 38.49 174 44 174C49.51 174 54 169.51 54 164C54 158.49 49.51 154 44 154ZM47.92 164.75H39.92C39.51 164.75 39.17 164.41 39.17 164C39.17 163.59 39.51 163.25 39.92 163.25H47.92C48.33 163.25 48.67 163.59 48.67 164C48.67 164.41 48.34 164.75 47.92 164.75Z" fill="white"/>
<path d="M108 154C102.49 154 98 158.49 98 164C98 169.51 102.49 174 108 174C113.51 174 118 169.51 118 164C118 158.49 113.51 154 108 154ZM111.36 166.3C111.65 166.59 111.65 167.07 111.36 167.36C111.21 167.51 111.02 167.58 110.83 167.58C110.64 167.58 110.45 167.51 110.3 167.36L108 165.06L105.7 167.36C105.55 167.51 105.36 167.58 105.17 167.58C104.98 167.58 104.79 167.51 104.64 167.36C104.35 167.07 104.35 166.59 104.64 166.3L106.94 164L104.64 161.7C104.35 161.41 104.35 160.93 104.64 160.64C104.93 160.35 105.41 160.35 105.7 160.64L108 162.94L110.3 160.64C110.59 160.35 111.07 160.35 111.36 160.64C111.65 160.93 111.65 161.41 111.36 161.7L109.06 164L111.36 166.3Z" fill="white"/>
<path d="M172 154C166.49 154 162 158.49 162 164C162 169.51 166.49 174 172 174C177.51 174 182 169.51 182 164C182 158.49 177.51 154 172 154ZM168 165C167.44 165 167 164.55 167 164C167 163.45 167.45 163 168 163C168.55 163 169 163.45 169 164C169 164.55 168.56 165 168 165ZM172 165C171.44 165 171 164.55 171 164C171 163.45 171.45 163 172 163C172.55 163 173 163.45 173 164C173 164.55 172.56 165 172 165ZM176 165C175.44 165 175 164.55 175 164C175 163.45 175.45 163 176 163C176.55 163 177 163.45 177 164C177 164.55 176.56 165 176 165Z" fill="white"/>
<path d="M236 154C230.49 154 226 158.49 226 164C226 169.51 230.49 174 236 174C241.51 174 246 169.51 246 164C246 158.49 241.51 154 236 154ZM235.25 160C235.25 159.59 235.59 159.25 236 159.25C236.41 159.25 236.75 159.59 236.75 160V165C236.75 165.41 236.41 165.75 236 165.75C235.59 165.75 235.25 165.41 235.25 165V160ZM236.92 168.38C236.87 168.51 236.8 168.61 236.71 168.71C236.61 168.8 236.5 168.87 236.38 168.92C236.26 168.97 236.13 169 236 169C235.87 169 235.74 168.97 235.62 168.92C235.5 168.87 235.39 168.8 235.29 168.71C235.2 168.61 235.13 168.51 235.08 168.38C235.03 168.26 235 168.13 235 168C235 167.87 235.03 167.74 235.08 167.62C235.13 167.5 235.2 167.39 235.29 167.29C235.39 167.2 235.5 167.13 235.62 167.08C235.86 166.98 236.14 166.98 236.38 167.08C236.5 167.13 236.61 167.2 236.71 167.29C236.8 167.39 236.87 167.5 236.92 167.62C236.97 167.74 237 167.87 237 168C237 168.13 236.97 168.26 236.92 168.38Z" fill="white"/>
<path d="M309.76 167.92L303.36 156.4C302.5 154.85 301.31 154 300 154C298.69 154 297.5 154.85 296.64 156.4L290.24 167.92C289.43 169.39 289.34 170.8 289.99 171.91C290.64 173.02 291.92 173.63 293.6 173.63H306.4C308.08 173.63 309.36 173.02 310.01 171.91C310.66 170.8 310.57 169.38 309.76 167.92ZM299.25 161C299.25 160.59 299.59 160.25 300 160.25C300.41 160.25 300.75 160.59 300.75 161V166C300.75 166.41 300.41 166.75 300 166.75C299.59 166.75 299.25 166.41 299.25 166V161ZM300.71 169.71C300.66 169.75 300.61 169.79 300.56 169.83C300.5 169.87 300.44 169.9 300.38 169.92C300.32 169.95 300.26 169.97 300.19 169.98C300.13 169.99 300.06 170 300 170C299.94 170 299.87 169.99 299.8 169.98C299.74 169.97 299.68 169.95 299.62 169.92C299.56 169.9 299.5 169.87 299.44 169.83C299.39 169.79 299.34 169.75 299.29 169.71C299.11 169.52 299 169.26 299 169C299 168.74 299.11 168.48 299.29 168.29C299.34 168.25 299.39 168.21 299.44 168.17C299.5 168.13 299.56 168.1 299.62 168.08C299.68 168.05 299.74 168.03 299.8 168.02C299.93 167.99 300.07 167.99 300.19 168.02C300.26 168.03 300.32 168.05 300.38 168.08C300.44 168.1 300.5 168.13 300.56 168.17C300.61 168.21 300.66 168.25 300.71 168.29C300.89 168.48 301 168.74 301 169C301 169.26 300.89 169.52 300.71 169.71Z" fill="white"/>
<path d="M368.19 154H359.81C356.17 154 354 156.17 354 159.81V168.18C354 171.83 356.17 174 359.81 174H368.18C371.82 174 373.99 171.83 373.99 168.19V159.81C374 156.17 371.83 154 368.19 154ZM370 164.75H364.75V170C364.75 170.41 364.41 170.75 364 170.75C363.59 170.75 363.25 170.41 363.25 170V164.75H358C357.59 164.75 357.25 164.41 357.25 164C357.25 163.59 357.59 163.25 358 163.25H363.25V158C363.25 157.59 363.59 157.25 364 157.25C364.41 157.25 364.75 157.59 364.75 158V163.25H370C370.41 163.25 370.75 163.59 370.75 164C370.75 164.41 370.41 164.75 370 164.75Z" fill="white"/>
<path d="M432.19 154H423.81C420.17 154 418 156.17 418 159.81V168.18C418 171.83 420.17 174 423.81 174H432.18C435.82 174 437.99 171.83 437.99 168.19V159.81C438 156.17 435.83 154 432.19 154ZM434 164.75H422C421.59 164.75 421.25 164.41 421.25 164C421.25 163.59 421.59 163.25 422 163.25H434C434.41 163.25 434.75 163.59 434.75 164C434.75 164.41 434.41 164.75 434 164.75Z" fill="white"/>
<path d="M496.19 154H487.81C484.17 154 482 156.17 482 159.81V168.18C482 171.83 484.17 174 487.81 174H496.18C499.82 174 501.99 171.83 501.99 168.19V159.81C502 156.17 499.83 154 496.19 154ZM496 164.75H492.75V168C492.75 168.41 492.41 168.75 492 168.75C491.59 168.75 491.25 168.41 491.25 168V164.75H488C487.59 164.75 487.25 164.41 487.25 164C487.25 163.59 487.59 163.25 488 163.25H491.25V160C491.25 159.59 491.59 159.25 492 159.25C492.41 159.25 492.75 159.59 492.75 160V163.25H496C496.41 163.25 496.75 163.59 496.75 164C496.75 164.41 496.41 164.75 496 164.75Z" fill="white"/>
<path d="M50.0693 224.51L41.5093 220.23C35.7593 217.35 33.3993 219.71 36.2793 225.46L37.1493 227.2C37.3993 227.71 37.3993 228.3 37.1493 228.81L36.2793 230.54C33.3993 236.29 35.7493 238.65 41.5093 235.77L50.0693 231.49C53.9093 229.57 53.9093 226.43 50.0693 224.51ZM46.8393 228.75H41.4393C41.0293 228.75 40.6893 228.41 40.6893 228C40.6893 227.59 41.0293 227.25 41.4393 227.25H46.8393C47.2493 227.25 47.5893 227.59 47.5893 228C47.5893 228.41 47.2493 228.75 46.8393 228.75Z" fill="white"/>
<path d="M112.139 218.96L103.109 221.96C97.0391 223.99 97.0391 227.3 103.109 229.32L105.789 230.21L106.679 232.89C108.699 238.96 112.019 238.96 114.039 232.89L117.049 223.87C118.389 219.82 116.189 217.61 112.139 218.96ZM112.459 224.34L108.659 228.16C108.509 228.31 108.319 228.38 108.129 228.38C107.939 228.38 107.749 228.31 107.599 228.16C107.309 227.87 107.309 227.39 107.599 227.1L111.399 223.28C111.689 222.99 112.169 222.99 112.459 223.28C112.749 223.57 112.749 224.05 112.459 224.34Z" fill="white"/>
<path d="M180.359 228.73C179.989 228.73 179.679 228.45 179.639 228.08C179.399 225.88 178.219 223.9 176.399 222.64C176.069 222.41 175.989 221.96 176.219 221.63C176.449 221.3 176.899 221.22 177.229 221.45C179.399 222.96 180.799 225.32 181.089 227.93C181.129 228.33 180.839 228.69 180.439 228.73C180.409 228.73 180.389 228.73 180.359 228.73Z" fill="white"/>
<path d="M163.739 228.78C163.719 228.78 163.689 228.78 163.669 228.78C163.269 228.74 162.979 228.38 163.019 227.98C163.289 225.37 164.669 223.01 166.819 221.49C167.139 221.26 167.599 221.34 167.829 221.66C168.059 221.99 167.979 222.44 167.659 222.67C165.859 223.95 164.689 225.93 164.469 228.12C164.429 228.5 164.109 228.78 163.739 228.78Z" fill="white"/>
<path d="M175.991 237.1C174.761 237.69 173.441 237.99 172.061 237.99C170.621 237.99 169.251 237.67 167.971 237.02C167.611 236.85 167.471 236.41 167.651 236.05C167.821 235.69 168.261 235.55 168.621 235.72C169.251 236.04 169.921 236.26 170.601 236.39C171.521 236.57 172.461 236.58 173.381 236.42C174.061 236.3 174.731 236.09 175.351 235.79C175.721 235.62 176.161 235.76 176.321 236.13C176.501 236.49 176.361 236.93 175.991 237.1Z" fill="white"/>
<path d="M172.05 218.01C170.5 218.01 169.23 219.27 169.23 220.83C169.23 222.39 170.49 223.65 172.05 223.65C173.61 223.65 174.87 222.39 174.87 220.83C174.87 219.27 173.61 218.01 172.05 218.01Z" fill="white"/>
<path d="M165.05 229.87C163.5 229.87 162.23 231.13 162.23 232.69C162.23 234.25 163.49 235.51 165.05 235.51C166.61 235.51 167.87 234.25 167.87 232.69C167.87 231.13 166.6 229.87 165.05 229.87Z" fill="white"/>
<path d="M178.951 229.87C177.401 229.87 176.131 231.13 176.131 232.69C176.131 234.25 177.391 235.51 178.951 235.51C180.511 235.51 181.771 234.25 181.771 232.69C181.771 231.13 180.511 229.87 178.951 229.87Z" fill="white"/>
<path d="M241.91 226.72H238.82V219.52C238.82 217.84 237.91 217.5 236.8 218.76L236 219.67L229.23 227.37C228.3 228.42 228.69 229.28 230.09 229.28H233.181V236.48C233.181 238.16 234.09 238.5 235.2 237.24L236 236.33L242.771 228.63C243.701 227.58 243.31 226.72 241.91 226.72Z" fill="white"/>
<path d="M309.771 218.23C309.471 217.93 308.981 217.93 308.681 218.23L290.231 236.69C289.931 236.99 289.931 237.48 290.231 237.78C290.381 237.92 290.571 238 290.771 238C290.971 238 291.161 237.92 291.311 237.77L309.771 219.31C310.081 219.01 310.081 218.53 309.771 218.23Z" fill="white"/>
<path d="M302.82 219.52V225.18L297.181 230.82V229.28H294.09C292.69 229.28 292.3 228.42 293.23 227.37L300 219.67L300.8 218.76C301.91 217.5 302.82 217.84 302.82 219.52Z" fill="white"/>
<path d="M306.77 228.63L300 236.33L299.2 237.24C298.09 238.5 297.18 238.16 297.18 236.48V233.82L304.28 226.72H305.91C307.31 226.72 307.7 227.58 306.77 228.63Z" fill="white"/>
<path d="M363.971 218C358.451 218 353.971 222.48 353.971 228C353.971 233.52 358.451 238 363.971 238C369.491 238 373.971 233.52 373.971 228C373.971 222.48 369.501 218 363.971 218ZM367.721 228.35L364.001 232.58L363.561 233.08C362.951 233.77 362.451 233.59 362.451 232.66V228.7H360.751C359.981 228.7 359.771 228.23 360.281 227.65L364.001 223.42L364.441 222.92C365.051 222.23 365.551 222.41 365.551 223.34V227.3H367.251C368.021 227.3 368.231 227.77 367.721 228.35Z" fill="white"/>
<path d="M435.53 221.53L421.53 235.53C421.51 235.55 421.5 235.56 421.48 235.57C421.1 235.25 420.75 234.9 420.43 234.52C418.91 232.77 418 230.49 418 228C418 222.48 422.48 218 428 218C430.49 218 432.77 218.91 434.52 220.43C434.9 220.75 435.25 221.1 435.57 221.48C435.56 221.5 435.55 221.51 435.53 221.53Z" fill="white"/>
<path d="M438.001 228C438.001 233.49 433.491 238 428.001 238C426.501 238 425.081 237.67 423.801 237.07C423.181 236.78 423.061 235.95 423.541 235.46L435.461 223.54C435.941 223.06 436.781 223.18 437.071 223.8C437.671 225.07 438.001 226.5 438.001 228Z" fill="white"/>
<path d="M437.771 218.23C437.471 217.93 436.981 217.93 436.681 218.23L418.231 236.69C417.931 236.99 417.931 237.48 418.231 237.78C418.381 237.92 418.571 238 418.771 238C418.971 238 419.161 237.92 419.311 237.77L437.771 219.31C438.081 219.01 438.081 218.53 437.771 218.23Z" fill="white"/>
<path d="M500.889 229V230H500.019C499.279 230 498.679 230.6 498.679 231.35V231.65C498.679 232.4 498.079 233 497.329 233C496.589 233 495.989 232.4 495.989 231.65V231.35C495.989 230.6 495.379 230 494.639 230C493.899 230 493.299 230.6 493.299 231.35V231.65C493.299 232.4 492.689 233 491.949 233C491.209 233 490.599 232.4 490.599 231.65V231.35C490.599 230.6 489.999 230 489.259 230C488.519 230 487.909 230.6 487.909 231.35V231.65C487.909 232.4 487.309 233 486.569 233C485.819 233 485.219 232.4 485.219 231.65V231.33C485.219 230.59 484.629 229.99 483.899 229.98H483.109V229C483.109 227.62 484.149 226.45 485.559 226.11C485.839 226.04 486.129 226 486.439 226H497.559C497.869 226 498.159 226.04 498.439 226.11C499.849 226.45 500.889 227.62 500.889 229Z" fill="white"/>
<path d="M498.441 223.17V224.58C498.151 224.52 497.861 224.5 497.561 224.5H486.441C486.141 224.5 485.851 224.53 485.561 224.59V223.17C485.561 221.97 486.641 221 487.981 221H496.021C497.361 221 498.441 221.97 498.441 223.17Z" fill="white"/>
<path d="M488.75 219.55V221.01H487.98C487.72 221.01 487.48 221.04 487.25 221.1V219.55C487.25 219.2 487.59 218.9 488 218.9C488.41 218.9 488.75 219.2 488.75 219.55Z" fill="white"/>
<path d="M496.75 219.33V221.1C496.52 221.03 496.28 221 496.02 221H495.25V219.33C495.25 218.92 495.59 218.58 496 218.58C496.41 218.58 496.75 218.92 496.75 219.33Z" fill="white"/>
<path d="M492.75 218.82V221H491.25V218.82C491.25 218.37 491.59 218 492 218C492.41 218 492.75 218.37 492.75 218.82Z" fill="white"/>
<path d="M502 237.25C502 237.66 501.66 238 501.25 238H482.75C482.34 238 482 237.66 482 237.25C482 236.84 482.34 236.5 482.75 236.5H483.11V231.48H483.72V231.55C483.72 232.89 484.6 234.13 485.91 234.42C486.93 234.66 487.9 234.33 488.56 233.68C488.94 233.3 489.56 233.29 489.94 233.67C490.46 234.18 491.17 234.5 491.95 234.5C492.73 234.5 493.44 234.19 493.96 233.67C494.34 233.3 494.95 233.3 495.34 233.68C495.99 234.33 496.96 234.66 497.99 234.42C499.3 234.13 500.18 232.89 500.18 231.55V231.5H500.89V236.5H501.25C501.66 236.5 502 236.84 502 237.25Z" fill="white"/>
<path d="M48.9997 283.75H42.2797C40.8697 283.75 39.5297 284.34 38.5797 285.39L35.0497 289.27C33.6397 290.82 33.6397 293.18 35.0497 294.73L38.5797 298.61C39.5297 299.65 40.8697 300.25 42.2797 300.25H48.9997C51.7597 300.25 53.9997 298.01 53.9997 295.25V288.75C53.9997 285.99 51.7597 283.75 48.9997 283.75ZM48.5297 293.94C48.8197 294.23 48.8197 294.71 48.5297 295C48.3797 295.15 48.1897 295.22 47.9997 295.22C47.8097 295.22 47.6197 295.15 47.4697 295L45.5297 293.06L43.5897 295C43.4397 295.15 43.2497 295.22 43.0597 295.22C42.8697 295.22 42.6797 295.15 42.5297 295C42.2397 294.71 42.2397 294.23 42.5297 293.94L44.4697 292L42.5297 290.06C42.2397 289.77 42.2397 289.29 42.5297 289C42.8197 288.71 43.2997 288.71 43.5897 289L45.5297 290.94L47.4697 289C47.7597 288.71 48.2397 288.71 48.5297 289C48.8197 289.29 48.8197 289.77 48.5297 290.06L46.5897 292L48.5297 293.94Z" fill="white"/>
<path d="M112.19 282H103.81C100.17 282 98 284.17 98 287.81V296.18C98 299.83 100.17 302 103.81 302H112.18C115.82 302 117.99 299.83 117.99 296.19V287.81C118 284.17 115.83 282 112.19 282ZM113 297.25H103C102.59 297.25 102.25 296.91 102.25 296.5C102.25 296.09 102.59 295.75 103 295.75H113C113.41 295.75 113.75 296.09 113.75 296.5C113.75 296.91 113.41 297.25 113 297.25ZM113 292.75H103C102.59 292.75 102.25 292.41 102.25 292C102.25 291.59 102.59 291.25 103 291.25H113C113.41 291.25 113.75 291.59 113.75 292C113.75 292.41 113.41 292.75 113 292.75ZM113 288.25H103C102.59 288.25 102.25 287.91 102.25 287.5C102.25 287.09 102.59 286.75 103 286.75H113C113.41 286.75 113.75 287.09 113.75 287.5C113.75 287.91 113.41 288.25 113 288.25Z" fill="white"/>
<path d="M172 282C166.48 282 162 286.48 162 292C162 297.52 166.48 302 172 302C177.52 302 182 297.52 182 292C182 286.48 177.52 282 172 282ZM172 294.5C170.62 294.5 169.5 293.38 169.5 292C169.5 290.62 170.62 289.5 172 289.5C173.38 289.5 174.5 290.62 174.5 292C174.5 293.38 173.38 294.5 172 294.5Z" fill="white"/>
<path d="M236 282C230.48 282 226 286.48 226 292C226 297.52 230.48 302 236 302C241.52 302 246 297.52 246 292C246 286.48 241.52 282 236 282ZM236 288.75C235.59 288.75 235.25 288.41 235.25 288C235.25 287.59 235.59 287.25 236 287.25C238.62 287.25 240.75 289.38 240.75 292C240.75 294.62 238.62 296.75 236 296.75C235.59 296.75 235.25 296.41 235.25 296C235.25 295.59 235.59 295.25 236 295.25C237.79 295.25 239.25 293.79 239.25 292C239.25 290.21 237.79 288.75 236 288.75ZM236 299.75C231.73 299.75 228.25 296.27 228.25 292C228.25 291.59 228.59 291.25 229 291.25C229.41 291.25 229.75 291.59 229.75 292C229.75 295.45 232.55 298.25 236 298.25C239.45 298.25 242.25 295.45 242.25 292C242.25 288.55 239.45 285.75 236 285.75C235.59 285.75 235.25 285.41 235.25 285C235.25 284.59 235.59 284.25 236 284.25C240.27 284.25 243.75 287.73 243.75 292C243.75 296.27 240.27 299.75 236 299.75Z" fill="white"/>
<path d="M310 285V287C310 288.83 309.17 289.82 307.5 289.97C307.34 289.99 307.17 290 307 290H293C292.83 290 292.66 289.99 292.5 289.97C290.83 289.82 290 288.83 290 287V285C290 283 291 282 293 282H307C309 282 310 283 310 285Z" fill="white"/>
<path d="M293.5 291.25C292.95 291.25 292.5 291.7 292.5 292.25V299C292.5 301 293 302 295.5 302H304.5C307 302 307.5 301 307.5 299V292.25C307.5 291.7 307.05 291.25 306.5 291.25H293.5ZM301.82 295.75H298.18C297.77 295.75 297.43 295.41 297.43 295C297.43 294.59 297.77 294.25 298.18 294.25H301.82C302.23 294.25 302.57 294.59 302.57 295C302.57 295.41 302.23 295.75 301.82 295.75Z" fill="white"/>
<path d="M363.82 286.9C366.68 286.28 369.58 286.19 372.45 286.66C370.68 283.86 367.56 282 364 282C360.89 282 358.11 283.42 356.27 285.65C356.71 286.95 357.27 288.19 357.94 289.37C358.32 290.05 359.29 290.02 359.68 289.35C360.53 287.92 362.06 286.96 363.82 286.9Z" fill="white"/>
<path d="M359.72 294.72C357.72 292.58 356.16 290.14 355.09 287.44C353.59 290.4 353.6 294.03 355.43 297.08C357.03 299.75 359.67 301.41 362.53 301.84C363.42 300.79 364.2 299.67 364.87 298.5C365.26 297.82 364.73 297.01 363.95 297.01C362.28 297.02 360.67 296.2 359.72 294.72Z" fill="white"/>
<path d="M360.57 292C360.57 292.61 360.72 293.18 361.03 293.72C361.64 294.77 362.77 295.43 363.99 295.43C365.21 295.43 366.35 294.77 366.95 293.72C367.26 293.18 367.42 292.61 367.42 292C367.42 290.11 365.88 288.58 363.99 288.58C362.11 288.57 360.57 290.11 360.57 292Z" fill="white"/>
<path d="M373.34 288.42C371.97 288.13 370.58 287.97 369.2 287.95C368.41 287.94 367.96 288.8 368.35 289.49C368.75 290.2 368.98 291.02 368.98 291.89C368.98 292.73 368.76 293.56 368.35 294.3C367.41 297.18 366.01 299.74 364.16 302C369.61 301.91 374 297.47 374 292C374 290.74 373.77 289.53 373.34 288.42Z" fill="white"/>
<path d="M432.19 282H423.81C420.17 282 418 284.17 418 287.81V296.18C418 299.83 420.17 302 423.81 302H432.18C435.82 302 437.99 299.83 437.99 296.19V287.81C438 284.17 435.83 282 432.19 282ZM428 295.88C425.86 295.88 424.12 294.14 424.12 292C424.12 289.86 425.86 288.12 428 288.12C430.14 288.12 431.88 289.86 431.88 292C431.88 294.14 430.14 295.88 428 295.88ZM433.92 286.88C433.87 287 433.8 287.11 433.71 287.21C433.61 287.3 433.5 287.37 433.38 287.42C433.26 287.47 433.13 287.5 433 287.5C432.73 287.5 432.48 287.4 432.29 287.21C432.2 287.11 432.13 287 432.08 286.88C432.03 286.76 432 286.63 432 286.5C432 286.37 432.03 286.24 432.08 286.12C432.13 285.99 432.2 285.89 432.29 285.79C432.52 285.56 432.87 285.45 433.19 285.52C433.26 285.53 433.32 285.55 433.38 285.58C433.44 285.6 433.5 285.63 433.56 285.67C433.61 285.7 433.66 285.75 433.71 285.79C433.8 285.89 433.87 285.99 433.92 286.12C433.97 286.24 434 286.37 434 286.5C434 286.63 433.97 286.76 433.92 286.88Z" fill="white"/>
<path d="M486 285.12C485.59 285.12 485.25 284.78 485.25 284.37V282.62C485.25 282.21 485.59 281.87 486 281.87C486.41 281.87 486.75 282.21 486.75 282.62V284.37C486.75 284.79 486.41 285.12 486 285.12Z" fill="white"/>
<path d="M490 285.12C489.59 285.12 489.25 284.78 489.25 284.37V282.62C489.25 282.21 489.59 281.87 490 281.87C490.41 281.87 490.75 282.21 490.75 282.62V284.37C490.75 284.79 490.41 285.12 490 285.12Z" fill="white"/>
<path d="M494 285.12C493.59 285.12 493.25 284.78 493.25 284.37V282.62C493.25 282.21 493.59 281.87 494 281.87C494.41 281.87 494.75 282.21 494.75 282.62V284.37C494.75 284.79 494.41 285.12 494 285.12Z" fill="white"/>
<path d="M502.25 293.25C502.25 290.63 500.22 288.51 497.66 288.29C496.92 287.08 495.6 286.26 494.08 286.26H486.71C484.39 286.26 482.5 288.15 482.5 290.47V291H498.29V290.47C498.29 290.28 498.26 290.09 498.23 289.91C499.68 290.34 500.75 291.66 500.75 293.25C500.75 294.82 499.71 296.13 498.29 296.57V292H482.5V297.79C482.5 300.11 484.39 302 486.71 302H494.08C496.28 302 498.07 300.3 498.25 298.14C500.53 297.68 502.25 295.66 502.25 293.25Z" fill="white"/>
<path d="M52.9509 348.13L36.1309 364.95C37.0809 365.64 38.3209 366 39.8109 366H48.1909C51.8309 366 54.0009 363.83 54.0009 360.19V351.81C54.0009 350.32 53.6409 349.08 52.9509 348.13ZM50.5009 360.25H48.8109V362C48.8109 362.41 48.4709 362.75 48.0609 362.75C47.6509 362.75 47.3109 362.41 47.3109 362V360.25H45.5009C45.0909 360.25 44.7509 359.91 44.7509 359.5C44.7509 359.09 45.0909 358.75 45.5009 358.75H47.3109V357C47.3109 356.59 47.6509 356.25 48.0609 356.25C48.4709 356.25 48.8109 356.59 48.8109 357V358.75H50.5009C50.9109 358.75 51.2509 359.09 51.2509 359.5C51.2509 359.91 50.9109 360.25 50.5009 360.25Z" fill="white"/>
<path d="M48.19 346H39.81C36.17 346 34 348.17 34 351.81V360.19C34 361.68 34.36 362.92 35.05 363.87L51.87 347.05C50.92 346.36 49.68 346 48.19 346ZM42.5 352.25H37.5C37.09 352.25 36.75 351.91 36.75 351.5C36.75 351.09 37.09 350.75 37.5 350.75H42.5C42.91 350.75 43.25 351.09 43.25 351.5C43.25 351.91 42.91 352.25 42.5 352.25Z" fill="white"/>
<path d="M117.561 354.74L116.201 353.16C115.941 352.86 115.731 352.3 115.731 351.9V350.2C115.731 349.14 114.861 348.27 113.801 348.27H112.101C111.711 348.27 111.141 348.06 110.841 347.8L109.261 346.44C108.571 345.85 107.441 345.85 106.741 346.44L105.171 347.81C104.871 348.06 104.301 348.27 103.911 348.27H102.181C101.121 348.27 100.251 349.14 100.251 350.2V351.91C100.251 352.3 100.041 352.86 99.7909 353.16L98.4409 354.75C97.8609 355.44 97.8609 356.56 98.4409 357.25L99.7909 358.84C100.041 359.14 100.251 359.7 100.251 360.09V361.8C100.251 362.86 101.121 363.73 102.181 363.73H103.911C104.301 363.73 104.871 363.94 105.171 364.2L106.751 365.56C107.441 366.15 108.571 366.15 109.271 365.56L110.851 364.2C111.151 363.94 111.711 363.73 112.111 363.73H113.811C114.871 363.73 115.741 362.86 115.741 361.8V360.1C115.741 359.71 115.951 359.14 116.211 358.84L117.571 357.26C118.151 356.57 118.151 355.43 117.561 354.74ZM112.161 354.11L107.331 358.94C107.191 359.08 107.001 359.16 106.801 359.16C106.601 359.16 106.411 359.08 106.271 358.94L103.851 356.52C103.561 356.23 103.561 355.75 103.851 355.46C104.141 355.17 104.621 355.17 104.911 355.46L106.801 357.35L111.101 353.05C111.391 352.76 111.871 352.76 112.161 353.05C112.451 353.34 112.451 353.82 112.161 354.11Z" fill="white"/>
<path d="M181.561 354.74L180.211 353.16C179.961 352.86 179.751 352.3 179.751 351.9V350.2C179.751 349.14 178.881 348.27 177.821 348.27H176.121C175.721 348.27 175.151 348.06 174.851 347.81L173.271 346.46C172.581 345.87 171.451 345.87 170.761 346.46L169.161 347.81C168.861 348.06 168.301 348.27 167.901 348.27H166.171C165.111 348.27 164.241 349.14 164.241 350.2V351.9C164.241 352.29 164.041 352.85 163.791 353.15L162.441 354.74C161.861 355.44 161.861 356.56 162.441 357.24L163.791 358.83C164.041 359.12 164.241 359.69 164.241 360.08V361.79C164.241 362.85 165.111 363.72 166.171 363.72H167.911C168.301 363.72 168.871 363.93 169.171 364.18L170.751 365.53C171.441 366.12 172.571 366.12 173.261 365.53L174.841 364.18C175.141 363.93 175.701 363.72 176.101 363.72H177.801C178.861 363.72 179.731 362.85 179.731 361.79V360.09C179.731 359.69 179.941 359.13 180.191 358.83L181.541 357.25C182.151 356.57 182.151 355.44 181.561 354.74ZM171.251 352.13C171.251 351.72 171.591 351.38 172.001 351.38C172.411 351.38 172.751 351.72 172.751 352.13V356.96C172.751 357.37 172.411 357.71 172.001 357.71C171.591 357.71 171.251 357.37 171.251 356.96V352.13ZM172.001 360.87C171.451 360.87 171.001 360.42 171.001 359.87C171.001 359.32 171.441 358.87 172.001 358.87C172.551 358.87 173.001 359.32 173.001 359.87C173.001 360.42 172.561 360.87 172.001 360.87Z" fill="white"/>
<path d="M245.561 354.74L244.211 353.16C243.961 352.86 243.751 352.3 243.751 351.9V350.2C243.751 349.14 242.881 348.27 241.821 348.27H240.121C239.721 348.27 239.151 348.06 238.851 347.81L237.271 346.46C236.581 345.87 235.451 345.87 234.761 346.46L233.161 347.81C232.861 348.06 232.301 348.27 231.901 348.27H230.171C229.111 348.27 228.241 349.14 228.241 350.2V351.9C228.241 352.29 228.041 352.85 227.791 353.15L226.441 354.74C225.861 355.44 225.861 356.56 226.441 357.24L227.791 358.83C228.041 359.12 228.241 359.69 228.241 360.08V361.79C228.241 362.85 229.111 363.72 230.171 363.72H231.911C232.301 363.72 232.871 363.93 233.171 364.18L234.751 365.53C235.441 366.12 236.571 366.12 237.261 365.53L238.841 364.18C239.141 363.93 239.701 363.72 240.101 363.72H241.801C242.861 363.72 243.731 362.85 243.731 361.79V360.09C243.731 359.69 243.941 359.13 244.191 358.83L245.541 357.25C246.151 356.57 246.151 355.44 245.561 354.74ZM238.811 360.24L237.831 358.04C237.801 358.04 237.771 358.06 237.741 358.06H234.241C234.211 358.06 234.181 358.05 234.151 358.04L233.171 360.24L231.801 359.63L235.301 351.75H236.671L240.171 359.63L238.811 360.24Z" fill="white"/>
<path d="M234.82 356.56H237.18L236 353.91L234.82 356.56Z" fill="white"/>
<path d="M299.25 347.9V356.92C299.25 357.25 299.09 357.55 298.82 357.74L291.61 362.79C291.02 363.2 290.18 362.88 290.05 362.17C289.9 361.31 290.1 360.3 290.7 359.21L293.82 353.6L296.76 348.31C296.99 347.9 297.24 347.54 297.5 347.23C298.1 346.53 299.25 346.98 299.25 347.9Z" fill="white"/>
<path d="M308.39 362.79L301.18 357.74C300.91 357.55 300.75 357.25 300.75 356.92V347.9C300.75 346.98 301.9 346.53 302.5 347.23C302.76 347.54 303.01 347.9 303.24 348.31L306.18 353.6L309.3 359.21C309.9 360.3 310.1 361.31 309.95 362.17C309.82 362.88 308.98 363.2 308.39 362.79Z" fill="white"/>
<path d="M293.26 363.14L299.41 359.04C299.74 358.82 300.28 358.82 300.61 359.04L306.76 363.14C308.39 364.23 308.12 365.12 306.16 365.12H293.85C291.9 365.11 291.63 364.22 293.26 363.14Z" fill="white"/>
<path d="M371.33 349.68L365.06 346.3C364.4 345.94 363.6 345.94 362.94 346.3L356.67 349.68C356.21 349.93 355.93 350.41 355.93 350.96C355.93 351.5 356.21 351.99 356.67 352.24L362.94 355.62C363.27 355.8 363.64 355.89 364 355.89C364.36 355.89 364.73 355.8 365.06 355.62L371.33 352.24C371.79 351.99 372.07 351.51 372.07 350.96C372.07 350.41 371.79 349.93 371.33 349.68Z" fill="white"/>
<path d="M361.91 356.79L356.07 353.87C355.62 353.65 355.1 353.67 354.68 353.93C354.25 354.2 354 354.65 354 355.15V360.66C354 361.61 354.53 362.47 355.38 362.9L361.21 365.82C361.41 365.92 361.63 365.97 361.85 365.97C362.11 365.97 362.37 365.9 362.6 365.76C363.03 365.5 363.28 365.04 363.28 364.54V359.03C363.29 358.07 362.76 357.21 361.91 356.79Z" fill="white"/>
<path d="M373.321 353.93C372.891 353.67 372.371 353.64 371.931 353.87L366.101 356.79C365.251 357.22 364.721 358.07 364.721 359.03V364.54C364.721 365.04 364.971 365.5 365.401 365.76C365.631 365.9 365.891 365.97 366.151 365.97C366.371 365.97 366.591 365.92 366.791 365.82L372.621 362.9C373.471 362.47 374.001 361.62 374.001 360.66V355.15C374.001 354.65 373.751 354.2 373.321 353.93Z" fill="white"/>
<path d="M433.71 346H432.76C432.37 346 432.05 346.32 432.05 346.71C432.05 347.11 432.37 347.43 432.76 347.43H433.71C435.42 347.43 436.81 348.82 436.81 350.52V356.4C436.45 356.21 436.05 356.11 435.62 356.11H431.81C430.37 356.11 429.19 357.28 429.19 358.73V360.29H426.81V358.73C426.81 357.28 425.63 356.11 424.19 356.11H420.38C419.95 356.11 419.55 356.21 419.19 356.4V350.52C419.19 348.82 420.58 347.43 422.29 347.43H423.24C423.63 347.43 423.95 347.11 423.95 346.71C423.95 346.32 423.63 346 423.24 346H422.29C419.79 346 417.76 348.03 417.76 350.52V358.73V363.38C417.76 364.83 418.94 366 420.38 366H424.19C425.63 366 426.81 364.83 426.81 363.38V361.71H429.19V363.38C429.19 364.83 430.37 366 431.81 366H435.62C437.06 366 438.24 364.83 438.24 363.38V358.73V350.52C438.24 348.03 436.21 346 433.71 346Z" fill="white"/>
<path d="M500.981 347.02C500.111 346.15 498.881 345.81 497.691 346.11L487.891 348.56C486.241 348.97 484.971 350.25 484.561 351.89L482.111 361.7C481.811 362.89 482.151 364.12 483.021 364.99C483.681 365.64 484.551 366 485.451 366C485.731 366 486.021 365.97 486.301 365.89L496.111 363.44C497.751 363.03 499.031 361.76 499.441 360.11L501.891 350.3C502.191 349.11 501.851 347.88 500.981 347.02ZM492.001 359.88C489.861 359.88 488.121 358.14 488.121 356C488.121 353.86 489.861 352.12 492.001 352.12C494.141 352.12 495.881 353.86 495.881 356C495.881 358.14 494.141 359.88 492.001 359.88Z" fill="white"/>
<path d="M48.42 415.95C50.86 418.39 50.86 422.35 48.42 424.79C45.98 427.23 42.02 427.23 39.58 424.79C37.14 422.35 37.14 418.39 39.58 415.95C42.02 413.51 45.98 413.51 48.42 415.95Z" fill="white"/>
<path d="M40.2491 430.39C40.1591 430.39 40.0591 430.37 39.9691 430.34C37.7191 429.44 35.8991 427.85 34.6791 425.75C33.4991 423.7 33.0291 421.38 33.3391 419.02C33.3891 418.61 33.7791 418.32 34.1791 418.37C34.5891 418.42 34.8791 418.8 34.8291 419.21C34.5691 421.24 34.9691 423.24 35.9791 425C37.0191 426.8 38.5891 428.17 40.5191 428.94C40.8991 429.1 41.0891 429.53 40.9391 429.92C40.8291 430.21 40.5391 430.39 40.2491 430.39Z" fill="white"/>
<path d="M37.8496 413.23C37.6296 413.23 37.4096 413.13 37.2596 412.94C36.9996 412.62 37.0596 412.15 37.3896 411.89C39.2896 410.4 41.5796 409.61 43.9996 409.61C46.3596 409.61 48.6096 410.37 50.4996 411.81C50.8296 412.06 50.8896 412.53 50.6396 412.86C50.3896 413.19 49.9196 413.25 49.5896 413C47.9596 411.76 46.0296 411.11 43.9996 411.11C41.9196 411.11 39.9496 411.79 38.3096 413.07C38.1696 413.18 38.0096 413.23 37.8496 413.23Z" fill="white"/>
<path d="M47.7507 430.39C47.4507 430.39 47.1707 430.21 47.0507 429.92C46.9007 429.54 47.0807 429.1 47.4707 428.94C49.4007 428.16 50.9707 426.8 52.0107 425C53.0307 423.24 53.4307 421.24 53.1607 419.22C53.1107 418.81 53.4007 418.43 53.8107 418.38C54.2107 418.33 54.6007 418.62 54.6507 419.03C54.9507 421.38 54.4907 423.71 53.3107 425.76C52.1007 427.86 50.2707 429.44 48.0207 430.35C47.9407 430.37 47.8507 430.39 47.7507 430.39Z" fill="white"/>
<path d="M114 424.01C114.55 424.01 115 424.46 115 425.01V426C115 428.2 113.5 430 111 430H105C102.5 430 101 428.2 101 426V425.01C101 424.46 101.45 424.01 102 424.01H114Z" fill="white"/>
<path d="M115 414V421.5C115 422.05 114.55 422.5 114 422.5H102C101.45 422.5 101 422.05 101 421.5V414C101 411.8 102.5 410 105 410H111C113.5 410 115 411.8 115 414Z" fill="white"/>
<path d="M99 428.75C98.59 428.75 98.25 428.41 98.25 428V412C98.25 411.59 98.59 411.25 99 411.25C99.41 411.25 99.75 411.59 99.75 412V428C99.75 428.41 99.41 428.75 99 428.75Z" fill="white"/>
<path d="M117 428.75C116.59 428.75 116.25 428.41 116.25 428V412C116.25 411.59 116.59 411.25 117 411.25C117.41 411.25 117.75 411.59 117.75 412V428C117.75 428.41 117.41 428.75 117 428.75Z" fill="white"/>
<path d="M169.001 422.22H163.921C163.311 422.22 162.751 422.53 162.431 423.05C162.111 423.56 162.081 424.17 162.341 424.71C163.571 427.23 165.791 429.21 168.431 430.14C168.611 430.2 168.811 430.24 169.001 430.24C169.351 430.24 169.701 430.13 170.001 429.92C170.471 429.59 170.751 429.05 170.751 428.48L170.761 423.98C170.761 423.51 170.581 423.07 170.251 422.74C169.911 422.41 169.471 422.22 169.001 422.22Z" fill="white"/>
<path d="M182.48 417.6C181.36 412.68 177.05 409.25 172 409.25C166.95 409.25 162.64 412.68 161.52 417.6C161.4 418.12 161.52 418.65 161.86 419.07C162.2 419.49 162.7 419.73 163.24 419.73H180.77C181.31 419.73 181.81 419.49 182.15 419.07C182.48 418.65 182.6 418.11 182.48 417.6Z" fill="white"/>
<path d="M180.06 422.27L175 422.26C174.53 422.26 174.09 422.44 173.76 422.77C173.43 423.1 173.25 423.54 173.25 424.01L173.26 428.49C173.26 429.06 173.54 429.6 174.01 429.93C174.31 430.14 174.66 430.25 175.01 430.25C175.2 430.25 175.39 430.22 175.57 430.15C178.19 429.23 180.41 427.26 181.64 424.77C181.9 424.24 181.87 423.62 181.56 423.12C181.23 422.58 180.67 422.27 180.06 422.27Z" fill="white"/>
<path d="M240.19 410H231.81C228.17 410 226 412.17 226 415.81V424.18C226 427.83 228.17 430 231.81 430H240.18C243.82 430 245.99 427.83 245.99 424.19V415.81C246 412.17 243.83 410 240.19 410ZM238.79 424.6C238.64 424.79 238.42 424.89 238.2 424.89C238.04 424.89 237.88 424.84 237.74 424.73C236.68 423.91 235.31 423.91 234.25 424.73C233.92 424.98 233.45 424.92 233.2 424.6C232.95 424.27 233.01 423.8 233.33 423.55C234.92 422.32 237.06 422.32 238.65 423.55C238.99 423.8 239.05 424.27 238.79 424.6ZM241 421.51C240.85 421.7 240.63 421.8 240.41 421.8C240.25 421.8 240.09 421.75 239.95 421.64C237.55 419.79 234.46 419.79 232.06 421.64C231.73 421.9 231.26 421.84 231 421.51C230.74 421.18 230.81 420.71 231.13 420.46C234.08 418.18 237.9 418.18 240.85 420.46C241.19 420.71 241.25 421.18 241 421.51ZM242.59 418.42C242.44 418.61 242.22 418.71 242 418.71C241.84 418.71 241.68 418.66 241.54 418.55C238.17 415.95 233.82 415.95 230.46 418.55C230.13 418.8 229.66 418.74 229.41 418.42C229.16 418.09 229.22 417.62 229.54 417.37C233.46 414.34 238.53 414.34 242.46 417.37C242.79 417.62 242.85 418.09 242.59 418.42Z" fill="white"/>
<path d="M293.329 427.42C293.219 427.42 293.099 427.39 292.999 427.34L290.779 426.23C290.529 426.1 290.369 425.84 290.369 425.56V422.78C290.369 422.37 290.709 422.03 291.119 422.03C291.529 422.03 291.869 422.37 291.869 422.78V425.09L293.669 426C294.039 426.18 294.189 426.63 293.999 427C293.869 427.26 293.609 427.42 293.329 427.42Z" fill="white"/>
<path d="M299.999 430.75C299.939 430.75 299.879 430.74 299.829 430.73C299.769 430.72 299.709 430.69 299.649 430.66L297.439 429.56C297.069 429.37 296.919 428.92 297.099 428.55C297.289 428.18 297.739 428.03 298.109 428.21L299.249 428.78V427.22C299.249 426.81 299.589 426.47 299.999 426.47C300.409 426.47 300.749 426.81 300.749 427.22V428.78L301.889 428.21C302.259 428.03 302.709 428.18 302.899 428.55C303.089 428.92 302.939 429.37 302.559 429.56L300.349 430.66C300.289 430.69 300.229 430.71 300.169 430.73C300.109 430.74 300.059 430.75 299.999 430.75Z" fill="white"/>
<path d="M306.67 427.42C306.4 427.42 306.13 427.27 306 427.01C305.81 426.64 305.96 426.19 306.34 426L308.15 425.1V422.79C308.15 422.38 308.49 422.04 308.9 422.04C309.31 422.04 309.65 422.38 309.65 422.79V425.57C309.65 425.85 309.49 426.11 309.24 426.24L307 427.34C306.89 427.39 306.78 427.42 306.67 427.42Z" fill="white"/>
<path d="M299.999 422.42C299.589 422.42 299.249 422.08 299.249 421.67V419.36L297.439 418.46C297.069 418.27 296.919 417.82 297.099 417.45C297.289 417.08 297.739 416.93 298.109 417.11L299.999 418.05L301.889 417.11C302.259 416.93 302.709 417.07 302.899 417.45C303.089 417.82 302.939 418.27 302.559 418.46L300.749 419.36V421.67C300.749 422.08 300.409 422.42 299.999 422.42Z" fill="white"/>
<path d="M291.109 417.97C290.699 417.97 290.359 417.63 290.359 417.22V414.46V414.45C290.359 414.39 290.369 414.33 290.379 414.28C290.399 414.19 290.429 414.12 290.469 414.05C290.499 414 290.539 413.96 290.579 413.92C290.619 413.88 290.669 413.84 290.719 413.81C290.739 413.8 290.769 413.78 290.789 413.77L292.999 412.66C293.369 412.48 293.819 412.63 293.999 413C294.189 413.37 294.039 413.82 293.669 414L292.789 414.44L293.669 414.88C294.039 415.07 294.189 415.52 293.999 415.89C293.819 416.26 293.369 416.41 292.999 416.23L291.859 415.66V417.22C291.859 417.64 291.529 417.97 291.109 417.97Z" fill="white"/>
<path d="M302.22 411.86C302.11 411.86 301.99 411.83 301.89 411.78L300 410.84L298.11 411.78C297.74 411.97 297.29 411.82 297.11 411.45C296.92 411.08 297.07 410.63 297.44 410.44L299.66 409.33C299.87 409.22 300.12 409.22 300.33 409.33L302.55 410.44C302.92 410.63 303.07 411.08 302.89 411.45C302.76 411.71 302.5 411.86 302.22 411.86Z" fill="white"/>
<path d="M308.89 417.97C308.48 417.97 308.14 417.63 308.14 417.22V415.66L307 416.23C306.63 416.41 306.18 416.26 306 415.89C305.81 415.52 305.96 415.07 306.34 414.88L307.22 414.44L306.33 414C305.96 413.82 305.81 413.37 306 413C306.19 412.63 306.63 412.48 307 412.66L309.21 413.76C309.23 413.77 309.26 413.78 309.28 413.8C309.34 413.83 309.39 413.88 309.44 413.93C309.47 413.97 309.5 414.01 309.53 414.05C309.57 414.12 309.6 414.19 309.62 414.27C309.63 414.33 309.64 414.39 309.64 414.44V414.45V417.21C309.64 417.64 309.3 417.97 308.89 417.97Z" fill="white"/>
<path d="M368.19 410H359.81C356.17 410 354 412.17 354 415.81V424.18C354 427.83 356.17 430 359.81 430H368.18C371.82 430 373.99 427.83 373.99 424.19V415.81C374 412.17 371.83 410 368.19 410ZM367.76 423.76C367.7 424.61 367.63 425.67 365.71 425.67H362.29C360.38 425.67 360.3 424.61 360.24 423.76L359.93 419.8C359.91 419.54 360 419.29 360.17 419.1C360.34 418.91 360.59 418.81 360.84 418.81H367.16C367.41 418.81 367.66 418.92 367.83 419.1C368 419.29 368.09 419.54 368.07 419.79L367.76 423.76ZM368.8 417.82C368.78 417.82 368.76 417.82 368.74 417.82C367.7 417.72 366.75 417.65 365.84 417.61C364.62 417.55 363.4 417.53 362.17 417.58C361.57 417.61 360.96 417.65 360.36 417.71L359.27 417.82C359.25 417.82 359.22 417.82 359.2 417.82C358.85 417.82 358.55 417.56 358.52 417.2C358.48 416.83 358.76 416.49 359.13 416.46L360.22 416.35C360.65 416.31 361.07 416.28 361.5 416.26L361.58 415.79C361.66 415.29 361.81 414.33 363.31 414.33H364.7C366.21 414.33 366.36 415.32 366.43 415.8L366.51 416.28C367.26 416.32 368.03 416.38 368.87 416.46C369.25 416.5 369.52 416.83 369.49 417.21C369.45 417.56 369.15 417.82 368.8 417.82Z" fill="white"/>
<path d="M435.091 420.59C434.931 420.59 434.771 420.54 434.631 420.43C430.601 417.32 425.391 417.32 421.361 420.43C421.031 420.68 420.561 420.62 420.311 420.3C420.061 419.97 420.121 419.5 420.441 419.25C425.031 415.7 430.961 415.7 435.541 419.25C435.871 419.5 435.931 419.97 435.671 420.3C435.541 420.49 435.321 420.59 435.091 420.59Z" fill="white"/>
<path d="M438 417.11C437.84 417.11 437.68 417.06 437.54 416.95C431.74 412.47 424.25 412.47 418.46 416.95C418.13 417.2 417.66 417.14 417.41 416.82C417.15 416.5 417.21 416.02 417.54 415.77C423.89 410.86 432.1 410.86 438.46 415.77C438.79 416.02 438.85 416.49 438.59 416.82C438.45 417.01 438.22 417.11 438 417.11Z" fill="white"/>
<path d="M433.21 424.24C433.05 424.24 432.89 424.19 432.75 424.08C429.87 421.85 426.14 421.85 423.25 424.08C422.92 424.33 422.45 424.27 422.2 423.95C421.95 423.62 422.01 423.15 422.33 422.9C425.77 420.24 430.22 420.24 433.66 422.9C433.99 423.15 434.05 423.62 433.79 423.95C433.65 424.14 433.43 424.24 433.21 424.24Z" fill="white"/>
<path d="M430.599 427.9C430.439 427.9 430.279 427.85 430.139 427.74C428.839 426.73 427.149 426.73 425.849 427.74C425.519 427.99 425.049 427.93 424.799 427.61C424.549 427.28 424.609 426.81 424.929 426.56C426.789 425.12 429.189 425.12 431.049 426.56C431.379 426.81 431.439 427.28 431.179 427.61C431.049 427.79 430.829 427.9 430.599 427.9Z" fill="white"/>
<path d="M499.14 428.25C498.95 428.25 498.76 428.18 498.61 428.04C498.31 427.75 498.31 427.28 498.6 426.98C500.31 425.24 501.25 422.94 501.25 420.5C501.25 415.4 497.1 411.25 492 411.25C486.9 411.25 482.75 415.4 482.75 420.5C482.75 422.93 483.68 425.22 485.38 426.96C485.67 427.26 485.66 427.73 485.37 428.02C485.07 428.31 484.6 428.3 484.31 428.01C482.34 425.99 481.25 423.32 481.25 420.5C481.25 414.57 486.07 409.75 492 409.75C497.93 409.75 502.75 414.57 502.75 420.5C502.75 423.33 501.66 426.01 499.67 428.03C499.53 428.18 499.33 428.25 499.14 428.25Z" fill="white"/>
<path d="M491.999 430C494.142 430 495.879 428.263 495.879 426.12C495.879 423.977 494.142 422.24 491.999 422.24C489.856 422.24 488.119 423.977 488.119 426.12C488.119 428.263 489.856 430 491.999 430Z" fill="white"/>
<path d="M496 416.5C494.9 416.5 494 417.4 494 418.5V419.25C494 419.94 494.56 420.5 495.25 420.5H496C497.1 420.5 498 419.6 498 418.5C498 417.4 497.1 416.5 496 416.5Z" fill="white"/>
</svg>
