<svg width="400" height="309" viewBox="0 0 536 408" fill="none" xmlns="http://www.w3.org/2000/svg">
<rect width="536" height="408" rx="16" fill="#252525"/>
<path d="M53.0697 37.23C51.4597 37.07 49.8497 36.95 48.2297 36.86V36.85L48.0097 35.55C47.8597 34.63 47.6397 33.25 45.2997 33.25H42.6797C40.3497 33.25 40.1297 34.57 39.9697 35.54L39.7597 36.82C38.8297 36.88 37.8997 36.94 36.9697 37.03L34.9297 37.23C34.5097 37.27 34.2097 37.64 34.2497 38.05C34.2897 38.46 34.6497 38.76 35.0697 38.72L37.1097 38.52C42.3497 38 47.6297 38.2 52.9297 38.73C52.9597 38.73 52.9797 38.73 53.0097 38.73C53.3897 38.73 53.7197 38.44 53.7597 38.05C53.7897 37.64 53.4897 37.27 53.0697 37.23Z" fill="white"/>
<path d="M51.2297 40.14C50.9897 39.89 50.6597 39.75 50.3197 39.75H37.6797C37.3397 39.75 36.9997 39.89 36.7697 40.14C36.5397 40.39 36.4097 40.73 36.4297 41.08L37.0497 51.34C37.1597 52.86 37.2997 54.76 40.7897 54.76H47.2097C50.6997 54.76 50.8398 52.87 50.9497 51.34L51.5697 41.09C51.5897 40.73 51.4597 40.39 51.2297 40.14ZM45.6597 49.75H42.3297C41.9197 49.75 41.5797 49.41 41.5797 49C41.5797 48.59 41.9197 48.25 42.3297 48.25H45.6597C46.0697 48.25 46.4097 48.59 46.4097 49C46.4097 49.41 46.0697 49.75 45.6597 49.75ZM46.4997 45.75H41.4997C41.0897 45.75 40.7497 45.41 40.7497 45C40.7497 44.59 41.0897 44.25 41.4997 44.25H46.4997C46.9097 44.25 47.2497 44.59 47.2497 45C47.2497 45.41 46.9097 45.75 46.4997 45.75Z" fill="white"/>
<path d="M108.93 36.79H103.35C99.25 36.79 98 38.04 98 42.14V45.86C98 49.96 99.25 51.21 103.35 51.21H108.93C113.03 51.21 114.28 49.96 114.28 45.86V42.14C114.28 38.04 113.03 36.79 108.93 36.79Z" fill="white"/>
<path d="M116.419 41.0005C116.279 40.9905 116.099 40.9805 115.899 40.9805C115.509 40.9805 115.199 41.2905 115.199 41.6805V46.3305C115.199 46.7205 115.509 47.0305 115.899 47.0305C116.099 47.0305 116.269 47.0205 116.439 47.0105C117.999 46.8305 117.999 45.7305 117.999 44.9305V43.0705C117.999 42.2705 117.999 41.1705 116.419 41.0005Z" fill="white"/>
<path d="M180.419 41.0005C180.279 40.9905 180.099 40.9805 179.899 40.9805C179.509 40.9805 179.199 41.2905 179.199 41.6805V46.3305C179.199 46.7205 179.509 47.0305 179.899 47.0305C180.099 47.0305 180.269 47.0205 180.439 47.0105C181.999 46.8305 181.999 45.7305 181.999 44.9305V43.0705C181.999 42.2705 181.999 41.1705 180.419 41.0005Z" fill="white"/>
<path d="M172.93 36.79H167.35C163.25 36.79 162 38.04 162 42.14V45.86C162 49.96 163.25 51.21 167.35 51.21H172.93C177.03 51.21 178.28 49.96 178.28 45.86V42.14C178.28 38.04 177.03 36.79 172.93 36.79ZM167.1 46.18C167.02 46.52 166.71 46.75 166.37 46.75C166.31 46.75 166.25 46.74 166.19 46.73C165.79 46.63 165.54 46.22 165.64 45.82C165.94 44.63 165.94 43.37 165.64 42.18C165.54 41.78 165.78 41.37 166.19 41.27C166.59 41.17 167 41.42 167.1 41.82C167.46 43.25 167.46 44.75 167.1 46.18Z" fill="white"/>
<path d="M244.419 41.0005C244.279 40.9905 244.099 40.9805 243.899 40.9805C243.509 40.9805 243.199 41.2905 243.199 41.6805V46.3305C243.199 46.7205 243.509 47.0305 243.899 47.0305C244.099 47.0305 244.269 47.0205 244.439 47.0105C245.999 46.8305 245.999 45.7305 245.999 44.9305V43.0705C245.999 42.2705 245.999 41.1705 244.419 41.0005Z" fill="white"/>
<path d="M236.93 36.79H231.35C227.25 36.79 226 38.04 226 42.14V45.86C226 49.96 227.25 51.21 231.35 51.21H236.93C241.03 51.21 242.28 49.96 242.28 45.86V42.14C242.28 38.04 241.03 36.79 236.93 36.79ZM231.1 46.18C231.02 46.52 230.71 46.75 230.37 46.75C230.31 46.75 230.25 46.74 230.19 46.73C229.79 46.63 229.54 46.22 229.64 45.82C229.94 44.63 229.94 43.37 229.64 42.18C229.54 41.78 229.78 41.37 230.19 41.27C230.6 41.17 231 41.42 231.1 41.82C231.46 43.25 231.46 44.75 231.1 46.18ZM234.6 46.18C234.52 46.52 234.21 46.75 233.87 46.75C233.81 46.75 233.75 46.74 233.69 46.73C233.29 46.63 233.04 46.22 233.14 45.82C233.44 44.63 233.44 43.37 233.14 42.18C233.04 41.78 233.28 41.37 233.69 41.27C234.09 41.17 234.5 41.41 234.6 41.82C234.96 43.25 234.96 44.75 234.6 46.18Z" fill="white"/>
<path d="M308.419 41.0005C308.279 40.9905 308.099 40.9805 307.899 40.9805C307.509 40.9805 307.199 41.2905 307.199 41.6805V46.3305C307.199 46.7205 307.509 47.0305 307.899 47.0305C308.099 47.0305 308.269 47.0205 308.439 47.0105C309.999 46.8305 309.999 45.7305 309.999 44.9305V43.0705C309.999 42.2705 309.999 41.1705 308.419 41.0005Z" fill="white"/>
<path d="M300.93 36.79H295.35C291.25 36.79 290 38.04 290 42.14V45.86C290 49.96 291.25 51.21 295.35 51.21H300.93C305.03 51.21 306.28 49.96 306.28 45.86V42.14C306.28 38.04 305.03 36.79 300.93 36.79ZM295.1 46.18C295.02 46.52 294.71 46.75 294.37 46.75C294.31 46.75 294.25 46.74 294.19 46.73C293.79 46.63 293.54 46.22 293.64 45.82C293.94 44.63 293.94 43.37 293.64 42.18C293.54 41.78 293.78 41.37 294.19 41.27C294.6 41.17 295 41.42 295.1 41.82C295.46 43.25 295.46 44.75 295.1 46.18ZM298.6 46.18C298.52 46.52 298.21 46.75 297.87 46.75C297.81 46.75 297.75 46.74 297.69 46.73C297.29 46.63 297.04 46.22 297.14 45.82C297.44 44.63 297.44 43.37 297.14 42.18C297.04 41.78 297.28 41.37 297.69 41.27C298.09 41.17 298.5 41.41 298.6 41.82C298.96 43.25 298.96 44.75 298.6 46.18ZM302.1 46.18C302.02 46.52 301.71 46.75 301.37 46.75C301.31 46.75 301.25 46.74 301.19 46.73C300.79 46.63 300.54 46.22 300.64 45.82C300.94 44.63 300.94 43.37 300.64 42.18C300.54 41.78 300.78 41.37 301.19 41.27C301.59 41.17 302 41.41 302.1 41.82C302.46 43.25 302.46 44.75 302.1 46.18Z" fill="white"/>
<path d="M372.419 41.0005C372.279 40.9905 372.099 40.9805 371.899 40.9805C371.509 40.9805 371.199 41.2905 371.199 41.6805V46.3305C371.199 46.7205 371.509 47.0305 371.899 47.0305C372.099 47.0305 372.269 47.0205 372.439 47.0105C373.999 46.8305 373.999 45.7305 373.999 44.9305V43.0705C373.999 42.2705 373.999 41.1705 372.419 41.0005Z" fill="white"/>
<path d="M364.93 36.79H359.35C355.25 36.79 354 38.04 354 42.14V45.86C354 49.96 355.25 51.21 359.35 51.21H364.93C369.03 51.21 370.28 49.96 370.28 45.86V42.14C370.28 38.04 369.03 36.79 364.93 36.79ZM364.53 45.68C364.51 45.72 364.48 45.76 364.45 45.79L362.58 47.98C362.43 48.15 362.22 48.24 362.01 48.24C361.84 48.24 361.66 48.18 361.52 48.06C361.21 47.79 361.17 47.32 361.44 47L363.24 44.89C363.25 44.86 363.24 44.83 363.22 44.8C363.2 44.76 363.16 44.74 363.11 44.74H361.12C360.53 44.74 360.01 44.44 359.71 43.93C359.42 43.42 359.42 42.82 359.71 42.31L361.42 40.05C361.67 39.72 362.14 39.65 362.47 39.9C362.8 40.15 362.87 40.62 362.62 40.95L360.97 43.14C361 43.1 361 43.14 361.02 43.19C361.04 43.23 361.08 43.25 361.13 43.25H363.14C363.73 43.25 364.25 43.55 364.55 44.06C364.82 44.57 364.82 45.17 364.53 45.68Z" fill="white"/>
<path d="M436.419 41.0005C436.279 40.9905 436.099 40.9805 435.899 40.9805C435.509 40.9805 435.199 41.2905 435.199 41.6805V46.3305C435.199 46.7205 435.509 47.0305 435.899 47.0305C436.099 47.0305 436.269 47.0205 436.439 47.0105C437.999 46.8305 437.999 45.7305 437.999 44.9305V43.0705C437.999 42.2705 437.999 41.1705 436.419 41.0005Z" fill="white"/>
<path d="M434.279 42.1395V45.8595C434.279 48.8095 431.879 51.2095 428.929 51.2095H425.259C424.469 51.2095 423.989 50.3395 424.409 49.6795L431.669 38.1995C432.029 37.6295 432.839 37.5795 433.289 38.0895C434.009 38.9195 434.279 40.2095 434.279 42.1395Z" fill="white"/>
<path d="M432.4 33.8704C432.05 33.6504 431.59 33.7504 431.37 34.1004L429.66 36.8104C429.43 36.8004 429.19 36.7904 428.93 36.7904H423.35C419.25 36.7904 418 38.0404 418 42.1404V45.8604C418 48.9104 418.7 50.3704 420.74 50.9204L419.37 53.1004C419.15 53.4504 419.25 53.9104 419.6 54.1304C419.72 54.2104 419.86 54.2504 420 54.2504C420.25 54.2504 420.49 54.1304 420.63 53.9004L432.63 34.9004C432.86 34.5504 432.75 34.0904 432.4 33.8704Z" fill="white"/>
<path d="M500.83 40.01L494.28 34.77C493 33.75 491 33.74 489.73 34.76L483.18 40.01C482.24 40.76 481.67 42.26 481.87 43.44L483.13 50.98C483.42 52.67 484.99 54 486.7 54H497.3C498.99 54 500.59 52.64 500.88 50.97L502.14 43.43C502.32 42.26 501.75 40.76 500.83 40.01ZM492.75 50C492.75 50.41 492.41 50.75 492 50.75C491.59 50.75 491.25 50.41 491.25 50V47C491.25 46.59 491.59 46.25 492 46.25C492.41 46.25 492.75 46.59 492.75 47V50Z" fill="white"/>
<path d="M44 98C38.49 98 34 102.49 34 108C34 113.51 38.49 118 44 118C49.51 118 54 113.51 54 108C54 102.49 49.51 98 44 98ZM47.92 108.75H39.92C39.51 108.75 39.17 108.41 39.17 108C39.17 107.59 39.51 107.25 39.92 107.25H47.92C48.33 107.25 48.67 107.59 48.67 108C48.67 108.41 48.34 108.75 47.92 108.75Z" fill="white"/>
<path d="M108 98C102.49 98 98 102.49 98 108C98 113.51 102.49 118 108 118C113.51 118 118 113.51 118 108C118 102.49 113.51 98 108 98ZM111.36 110.3C111.65 110.59 111.65 111.07 111.36 111.36C111.21 111.51 111.02 111.58 110.83 111.58C110.64 111.58 110.45 111.51 110.3 111.36L108 109.06L105.7 111.36C105.55 111.51 105.36 111.58 105.17 111.58C104.98 111.58 104.79 111.51 104.64 111.36C104.35 111.07 104.35 110.59 104.64 110.3L106.94 108L104.64 105.7C104.35 105.41 104.35 104.93 104.64 104.64C104.93 104.35 105.41 104.35 105.7 104.64L108 106.94L110.3 104.64C110.59 104.35 111.07 104.35 111.36 104.64C111.65 104.93 111.65 105.41 111.36 105.7L109.06 108L111.36 110.3Z" fill="white"/>
<path d="M172 98C166.49 98 162 102.49 162 108C162 113.51 166.49 118 172 118C177.51 118 182 113.51 182 108C182 102.49 177.51 98 172 98ZM168 109C167.44 109 167 108.55 167 108C167 107.45 167.45 107 168 107C168.55 107 169 107.45 169 108C169 108.55 168.56 109 168 109ZM172 109C171.44 109 171 108.55 171 108C171 107.45 171.45 107 172 107C172.55 107 173 107.45 173 108C173 108.55 172.56 109 172 109ZM176 109C175.44 109 175 108.55 175 108C175 107.45 175.45 107 176 107C176.55 107 177 107.45 177 108C177 108.55 176.56 109 176 109Z" fill="white"/>
<path d="M236 98C230.49 98 226 102.49 226 108C226 113.51 230.49 118 236 118C241.51 118 246 113.51 246 108C246 102.49 241.51 98 236 98ZM235.25 104C235.25 103.59 235.59 103.25 236 103.25C236.41 103.25 236.75 103.59 236.75 104V109C236.75 109.41 236.41 109.75 236 109.75C235.59 109.75 235.25 109.41 235.25 109V104ZM236.92 112.38C236.87 112.51 236.8 112.61 236.71 112.71C236.61 112.8 236.5 112.87 236.38 112.92C236.26 112.97 236.13 113 236 113C235.87 113 235.74 112.97 235.62 112.92C235.5 112.87 235.39 112.8 235.29 112.71C235.2 112.61 235.13 112.51 235.08 112.38C235.03 112.26 235 112.13 235 112C235 111.87 235.03 111.74 235.08 111.62C235.13 111.5 235.2 111.39 235.29 111.29C235.39 111.2 235.5 111.13 235.62 111.08C235.86 110.98 236.14 110.98 236.38 111.08C236.5 111.13 236.61 111.2 236.71 111.29C236.8 111.39 236.87 111.5 236.92 111.62C236.97 111.74 237 111.87 237 112C237 112.13 236.97 112.26 236.92 112.38Z" fill="white"/>
<path d="M309.76 111.92L303.36 100.4C302.5 98.85 301.31 98 300 98C298.69 98 297.5 98.85 296.64 100.4L290.24 111.92C289.43 113.39 289.34 114.8 289.99 115.91C290.64 117.02 291.92 117.63 293.6 117.63H306.4C308.08 117.63 309.36 117.02 310.01 115.91C310.66 114.8 310.57 113.38 309.76 111.92ZM299.25 105C299.25 104.59 299.59 104.25 300 104.25C300.41 104.25 300.75 104.59 300.75 105V110C300.75 110.41 300.41 110.75 300 110.75C299.59 110.75 299.25 110.41 299.25 110V105ZM300.71 113.71C300.66 113.75 300.61 113.79 300.56 113.83C300.5 113.87 300.44 113.9 300.38 113.92C300.32 113.95 300.26 113.97 300.19 113.98C300.13 113.99 300.06 114 300 114C299.94 114 299.87 113.99 299.8 113.98C299.74 113.97 299.68 113.95 299.62 113.92C299.56 113.9 299.5 113.87 299.44 113.83C299.39 113.79 299.34 113.75 299.29 113.71C299.11 113.52 299 113.26 299 113C299 112.74 299.11 112.48 299.29 112.29C299.34 112.25 299.39 112.21 299.44 112.17C299.5 112.13 299.56 112.1 299.62 112.08C299.68 112.05 299.74 112.03 299.8 112.02C299.93 111.99 300.07 111.99 300.19 112.02C300.26 112.03 300.32 112.05 300.38 112.08C300.44 112.1 300.5 112.13 300.56 112.17C300.61 112.21 300.66 112.25 300.71 112.29C300.89 112.48 301 112.74 301 113C301 113.26 300.89 113.52 300.71 113.71Z" fill="white"/>
<path d="M368.19 98H359.81C356.17 98 354 100.17 354 103.81V112.18C354 115.83 356.17 118 359.81 118H368.18C371.82 118 373.99 115.83 373.99 112.19V103.81C374 100.17 371.83 98 368.19 98ZM370 108.75H364.75V114C364.75 114.41 364.41 114.75 364 114.75C363.59 114.75 363.25 114.41 363.25 114V108.75H358C357.59 108.75 357.25 108.41 357.25 108C357.25 107.59 357.59 107.25 358 107.25H363.25V102C363.25 101.59 363.59 101.25 364 101.25C364.41 101.25 364.75 101.59 364.75 102V107.25H370C370.41 107.25 370.75 107.59 370.75 108C370.75 108.41 370.41 108.75 370 108.75Z" fill="white"/>
<path d="M432.19 98H423.81C420.17 98 418 100.17 418 103.81V112.18C418 115.83 420.17 118 423.81 118H432.18C435.82 118 437.99 115.83 437.99 112.19V103.81C438 100.17 435.83 98 432.19 98ZM434 108.75H422C421.59 108.75 421.25 108.41 421.25 108C421.25 107.59 421.59 107.25 422 107.25H434C434.41 107.25 434.75 107.59 434.75 108C434.75 108.41 434.41 108.75 434 108.75Z" fill="white"/>
<path d="M496.19 98H487.81C484.17 98 482 100.17 482 103.81V112.18C482 115.83 484.17 118 487.81 118H496.18C499.82 118 501.99 115.83 501.99 112.19V103.81C502 100.17 499.83 98 496.19 98ZM496 108.75H492.75V112C492.75 112.41 492.41 112.75 492 112.75C491.59 112.75 491.25 112.41 491.25 112V108.75H488C487.59 108.75 487.25 108.41 487.25 108C487.25 107.59 487.59 107.25 488 107.25H491.25V104C491.25 103.59 491.59 103.25 492 103.25C492.41 103.25 492.75 103.59 492.75 104V107.25H496C496.41 107.25 496.75 107.59 496.75 108C496.75 108.41 496.41 108.75 496 108.75Z" fill="white"/>
<path d="M50.0693 168.51L41.5093 164.23C35.7593 161.35 33.3993 163.71 36.2793 169.46L37.1493 171.2C37.3993 171.71 37.3993 172.3 37.1493 172.81L36.2793 174.54C33.3993 180.29 35.7493 182.65 41.5093 179.77L50.0693 175.49C53.9093 173.57 53.9093 170.43 50.0693 168.51ZM46.8393 172.75H41.4393C41.0293 172.75 40.6893 172.41 40.6893 172C40.6893 171.59 41.0293 171.25 41.4393 171.25H46.8393C47.2493 171.25 47.5893 171.59 47.5893 172C47.5893 172.41 47.2493 172.75 46.8393 172.75Z" fill="white"/>
<path d="M112.139 162.96L103.109 165.96C97.0391 167.99 97.0391 171.3 103.109 173.32L105.789 174.21L106.679 176.89C108.699 182.96 112.019 182.96 114.039 176.89L117.049 167.87C118.389 163.82 116.189 161.61 112.139 162.96ZM112.459 168.34L108.659 172.16C108.509 172.31 108.319 172.38 108.129 172.38C107.939 172.38 107.749 172.31 107.599 172.16C107.309 171.87 107.309 171.39 107.599 171.1L111.399 167.28C111.689 166.99 112.169 166.99 112.459 167.28C112.749 167.57 112.749 168.05 112.459 168.34Z" fill="white"/>
<path d="M180.359 172.73C179.989 172.73 179.679 172.45 179.639 172.08C179.399 169.88 178.219 167.9 176.399 166.64C176.069 166.41 175.989 165.96 176.219 165.63C176.449 165.3 176.899 165.22 177.229 165.45C179.399 166.96 180.799 169.32 181.089 171.93C181.129 172.33 180.839 172.69 180.439 172.73C180.409 172.73 180.389 172.73 180.359 172.73Z" fill="white"/>
<path d="M163.739 172.78C163.719 172.78 163.689 172.78 163.669 172.78C163.269 172.74 162.979 172.38 163.019 171.98C163.289 169.37 164.669 167.01 166.819 165.49C167.139 165.26 167.599 165.34 167.829 165.66C168.059 165.99 167.979 166.44 167.659 166.67C165.859 167.95 164.689 169.93 164.469 172.12C164.429 172.5 164.109 172.78 163.739 172.78Z" fill="white"/>
<path d="M175.991 181.1C174.761 181.69 173.441 181.99 172.061 181.99C170.621 181.99 169.251 181.67 167.971 181.02C167.611 180.85 167.471 180.41 167.651 180.05C167.821 179.69 168.261 179.55 168.621 179.72C169.251 180.04 169.921 180.26 170.601 180.39C171.521 180.57 172.461 180.58 173.381 180.42C174.061 180.3 174.731 180.09 175.351 179.79C175.721 179.62 176.161 179.76 176.321 180.13C176.501 180.49 176.361 180.93 175.991 181.1Z" fill="white"/>
<path d="M172.05 162.01C170.5 162.01 169.23 163.27 169.23 164.83C169.23 166.39 170.49 167.65 172.05 167.65C173.61 167.65 174.87 166.39 174.87 164.83C174.87 163.27 173.61 162.01 172.05 162.01Z" fill="white"/>
<path d="M165.05 173.87C163.5 173.87 162.23 175.13 162.23 176.69C162.23 178.25 163.49 179.51 165.05 179.51C166.61 179.51 167.87 178.25 167.87 176.69C167.87 175.13 166.6 173.87 165.05 173.87Z" fill="white"/>
<path d="M178.951 173.87C177.401 173.87 176.131 175.13 176.131 176.69C176.131 178.25 177.391 179.51 178.951 179.51C180.511 179.51 181.771 178.25 181.771 176.69C181.771 175.13 180.511 173.87 178.951 173.87Z" fill="white"/>
<path d="M241.91 170.72H238.82V163.52C238.82 161.84 237.91 161.5 236.8 162.76L236 163.67L229.23 171.37C228.3 172.42 228.69 173.28 230.09 173.28H233.181V180.48C233.181 182.16 234.09 182.5 235.2 181.24L236 180.33L242.771 172.63C243.701 171.58 243.31 170.72 241.91 170.72Z" fill="white"/>
<path d="M309.771 162.23C309.471 161.93 308.981 161.93 308.681 162.23L290.231 180.69C289.931 180.99 289.931 181.48 290.231 181.78C290.381 181.92 290.571 182 290.771 182C290.971 182 291.161 181.92 291.311 181.77L309.771 163.31C310.081 163.01 310.081 162.53 309.771 162.23Z" fill="white"/>
<path d="M302.82 163.52V169.18L297.181 174.82V173.28H294.09C292.69 173.28 292.3 172.42 293.23 171.37L300 163.67L300.8 162.76C301.91 161.5 302.82 161.84 302.82 163.52Z" fill="white"/>
<path d="M306.77 172.63L300 180.33L299.2 181.24C298.09 182.5 297.18 182.16 297.18 180.48V177.82L304.28 170.72H305.91C307.31 170.72 307.7 171.58 306.77 172.63Z" fill="white"/>
<path d="M363.971 162C358.451 162 353.971 166.48 353.971 172C353.971 177.52 358.451 182 363.971 182C369.491 182 373.971 177.52 373.971 172C373.971 166.48 369.501 162 363.971 162ZM367.721 172.35L364.001 176.58L363.561 177.08C362.951 177.77 362.451 177.59 362.451 176.66V172.7H360.751C359.981 172.7 359.771 172.23 360.281 171.65L364.001 167.42L364.441 166.92C365.051 166.23 365.551 166.41 365.551 167.34V171.3H367.251C368.021 171.3 368.231 171.77 367.721 172.35Z" fill="white"/>
<path d="M435.53 165.53L421.53 179.53C421.51 179.55 421.5 179.56 421.48 179.57C421.1 179.25 420.75 178.9 420.43 178.52C418.91 176.77 418 174.49 418 172C418 166.48 422.48 162 428 162C430.49 162 432.77 162.91 434.52 164.43C434.9 164.75 435.25 165.1 435.57 165.48C435.56 165.5 435.55 165.51 435.53 165.53Z" fill="white"/>
<path d="M438.001 172C438.001 177.49 433.491 182 428.001 182C426.501 182 425.081 181.67 423.801 181.07C423.181 180.78 423.061 179.95 423.541 179.46L435.461 167.54C435.941 167.06 436.781 167.18 437.071 167.8C437.671 169.07 438.001 170.5 438.001 172Z" fill="white"/>
<path d="M437.771 162.23C437.471 161.93 436.981 161.93 436.681 162.23L418.231 180.69C417.931 180.99 417.931 181.48 418.231 181.78C418.381 181.92 418.571 182 418.771 182C418.971 182 419.161 181.92 419.311 181.77L437.771 163.31C438.081 163.01 438.081 162.53 437.771 162.23Z" fill="white"/>
<path d="M500.889 173V174H500.019C499.279 174 498.679 174.6 498.679 175.35V175.65C498.679 176.4 498.079 177 497.329 177C496.589 177 495.989 176.4 495.989 175.65V175.35C495.989 174.6 495.379 174 494.639 174C493.899 174 493.299 174.6 493.299 175.35V175.65C493.299 176.4 492.689 177 491.949 177C491.209 177 490.599 176.4 490.599 175.65V175.35C490.599 174.6 489.999 174 489.259 174C488.519 174 487.909 174.6 487.909 175.35V175.65C487.909 176.4 487.309 177 486.569 177C485.819 177 485.219 176.4 485.219 175.65V175.33C485.219 174.59 484.629 173.99 483.899 173.98H483.109V173C483.109 171.62 484.149 170.45 485.559 170.11C485.839 170.04 486.129 170 486.439 170H497.559C497.869 170 498.159 170.04 498.439 170.11C499.849 170.45 500.889 171.62 500.889 173Z" fill="white"/>
<path d="M498.441 167.17V168.58C498.151 168.52 497.861 168.5 497.561 168.5H486.441C486.141 168.5 485.851 168.53 485.561 168.59V167.17C485.561 165.97 486.641 165 487.981 165H496.021C497.361 165 498.441 165.97 498.441 167.17Z" fill="white"/>
<path d="M488.75 163.55V165.01H487.98C487.72 165.01 487.48 165.04 487.25 165.1V163.55C487.25 163.2 487.59 162.9 488 162.9C488.41 162.9 488.75 163.2 488.75 163.55Z" fill="white"/>
<path d="M496.75 163.33V165.1C496.52 165.03 496.28 165 496.02 165H495.25V163.33C495.25 162.92 495.59 162.58 496 162.58C496.41 162.58 496.75 162.92 496.75 163.33Z" fill="white"/>
<path d="M492.75 162.82V165H491.25V162.82C491.25 162.37 491.59 162 492 162C492.41 162 492.75 162.37 492.75 162.82Z" fill="white"/>
<path d="M502 181.25C502 181.66 501.66 182 501.25 182H482.75C482.34 182 482 181.66 482 181.25C482 180.84 482.34 180.5 482.75 180.5H483.11V175.48H483.72V175.55C483.72 176.89 484.6 178.13 485.91 178.42C486.93 178.66 487.9 178.33 488.56 177.68C488.94 177.3 489.56 177.29 489.94 177.67C490.46 178.18 491.17 178.5 491.95 178.5C492.73 178.5 493.44 178.19 493.96 177.67C494.34 177.3 494.95 177.3 495.34 177.68C495.99 178.33 496.96 178.66 497.99 178.42C499.3 178.13 500.18 176.89 500.18 175.55V175.5H500.89V180.5H501.25C501.66 180.5 502 180.84 502 181.25Z" fill="white"/>
<path d="M48.9997 227.75H42.2797C40.8697 227.75 39.5297 228.34 38.5797 229.39L35.0497 233.27C33.6397 234.82 33.6397 237.18 35.0497 238.73L38.5797 242.61C39.5297 243.65 40.8697 244.25 42.2797 244.25H48.9997C51.7597 244.25 53.9997 242.01 53.9997 239.25V232.75C53.9997 229.99 51.7597 227.75 48.9997 227.75ZM48.5297 237.94C48.8197 238.23 48.8197 238.71 48.5297 239C48.3797 239.15 48.1897 239.22 47.9997 239.22C47.8097 239.22 47.6197 239.15 47.4697 239L45.5297 237.06L43.5897 239C43.4397 239.15 43.2497 239.22 43.0597 239.22C42.8697 239.22 42.6797 239.15 42.5297 239C42.2397 238.71 42.2397 238.23 42.5297 237.94L44.4697 236L42.5297 234.06C42.2397 233.77 42.2397 233.29 42.5297 233C42.8197 232.71 43.2997 232.71 43.5897 233L45.5297 234.94L47.4697 233C47.7597 232.71 48.2397 232.71 48.5297 233C48.8197 233.29 48.8197 233.77 48.5297 234.06L46.5897 236L48.5297 237.94Z" fill="white"/>
<path d="M112.19 226H103.81C100.17 226 98 228.17 98 231.81V240.18C98 243.83 100.17 246 103.81 246H112.18C115.82 246 117.99 243.83 117.99 240.19V231.81C118 228.17 115.83 226 112.19 226ZM113 241.25H103C102.59 241.25 102.25 240.91 102.25 240.5C102.25 240.09 102.59 239.75 103 239.75H113C113.41 239.75 113.75 240.09 113.75 240.5C113.75 240.91 113.41 241.25 113 241.25ZM113 236.75H103C102.59 236.75 102.25 236.41 102.25 236C102.25 235.59 102.59 235.25 103 235.25H113C113.41 235.25 113.75 235.59 113.75 236C113.75 236.41 113.41 236.75 113 236.75ZM113 232.25H103C102.59 232.25 102.25 231.91 102.25 231.5C102.25 231.09 102.59 230.75 103 230.75H113C113.41 230.75 113.75 231.09 113.75 231.5C113.75 231.91 113.41 232.25 113 232.25Z" fill="white"/>
<path d="M172 226C166.48 226 162 230.48 162 236C162 241.52 166.48 246 172 246C177.52 246 182 241.52 182 236C182 230.48 177.52 226 172 226ZM172 238.5C170.62 238.5 169.5 237.38 169.5 236C169.5 234.62 170.62 233.5 172 233.5C173.38 233.5 174.5 234.62 174.5 236C174.5 237.38 173.38 238.5 172 238.5Z" fill="white"/>
<path d="M236 226C230.48 226 226 230.48 226 236C226 241.52 230.48 246 236 246C241.52 246 246 241.52 246 236C246 230.48 241.52 226 236 226ZM236 232.75C235.59 232.75 235.25 232.41 235.25 232C235.25 231.59 235.59 231.25 236 231.25C238.62 231.25 240.75 233.38 240.75 236C240.75 238.62 238.62 240.75 236 240.75C235.59 240.75 235.25 240.41 235.25 240C235.25 239.59 235.59 239.25 236 239.25C237.79 239.25 239.25 237.79 239.25 236C239.25 234.21 237.79 232.75 236 232.75ZM236 243.75C231.73 243.75 228.25 240.27 228.25 236C228.25 235.59 228.59 235.25 229 235.25C229.41 235.25 229.75 235.59 229.75 236C229.75 239.45 232.55 242.25 236 242.25C239.45 242.25 242.25 239.45 242.25 236C242.25 232.55 239.45 229.75 236 229.75C235.59 229.75 235.25 229.41 235.25 229C235.25 228.59 235.59 228.25 236 228.25C240.27 228.25 243.75 231.73 243.75 236C243.75 240.27 240.27 243.75 236 243.75Z" fill="white"/>
<path d="M310 229V231C310 232.83 309.17 233.82 307.5 233.97C307.34 233.99 307.17 234 307 234H293C292.83 234 292.66 233.99 292.5 233.97C290.83 233.82 290 232.83 290 231V229C290 227 291 226 293 226H307C309 226 310 227 310 229Z" fill="white"/>
<path d="M293.5 235.25C292.95 235.25 292.5 235.7 292.5 236.25V243C292.5 245 293 246 295.5 246H304.5C307 246 307.5 245 307.5 243V236.25C307.5 235.7 307.05 235.25 306.5 235.25H293.5ZM301.82 239.75H298.18C297.77 239.75 297.43 239.41 297.43 239C297.43 238.59 297.77 238.25 298.18 238.25H301.82C302.23 238.25 302.57 238.59 302.57 239C302.57 239.41 302.23 239.75 301.82 239.75Z" fill="white"/>
<path d="M363.82 230.9C366.68 230.28 369.58 230.19 372.45 230.66C370.68 227.86 367.56 226 364 226C360.89 226 358.11 227.42 356.27 229.65C356.71 230.95 357.27 232.19 357.94 233.37C358.32 234.05 359.29 234.02 359.68 233.35C360.53 231.92 362.06 230.96 363.82 230.9Z" fill="white"/>
<path d="M359.72 238.72C357.72 236.58 356.16 234.14 355.09 231.44C353.59 234.4 353.6 238.03 355.43 241.08C357.03 243.75 359.67 245.41 362.53 245.84C363.42 244.79 364.2 243.67 364.87 242.5C365.26 241.82 364.73 241.01 363.95 241.01C362.28 241.02 360.67 240.2 359.72 238.72Z" fill="white"/>
<path d="M360.57 236C360.57 236.61 360.72 237.18 361.03 237.72C361.64 238.77 362.77 239.43 363.99 239.43C365.21 239.43 366.35 238.77 366.95 237.72C367.26 237.18 367.42 236.61 367.42 236C367.42 234.11 365.88 232.58 363.99 232.58C362.11 232.57 360.57 234.11 360.57 236Z" fill="white"/>
<path d="M373.34 232.42C371.97 232.13 370.58 231.97 369.2 231.95C368.41 231.94 367.96 232.8 368.35 233.49C368.75 234.2 368.98 235.02 368.98 235.89C368.98 236.73 368.76 237.56 368.35 238.3C367.41 241.18 366.01 243.74 364.16 246C369.61 245.91 374 241.47 374 236C374 234.74 373.77 233.53 373.34 232.42Z" fill="white"/>
<path d="M432.19 226H423.81C420.17 226 418 228.17 418 231.81V240.18C418 243.83 420.17 246 423.81 246H432.18C435.82 246 437.99 243.83 437.99 240.19V231.81C438 228.17 435.83 226 432.19 226ZM428 239.88C425.86 239.88 424.12 238.14 424.12 236C424.12 233.86 425.86 232.12 428 232.12C430.14 232.12 431.88 233.86 431.88 236C431.88 238.14 430.14 239.88 428 239.88ZM433.92 230.88C433.87 231 433.8 231.11 433.71 231.21C433.61 231.3 433.5 231.37 433.38 231.42C433.26 231.47 433.13 231.5 433 231.5C432.73 231.5 432.48 231.4 432.29 231.21C432.2 231.11 432.13 231 432.08 230.88C432.03 230.76 432 230.63 432 230.5C432 230.37 432.03 230.24 432.08 230.12C432.13 229.99 432.2 229.89 432.29 229.79C432.52 229.56 432.87 229.45 433.19 229.52C433.26 229.53 433.32 229.55 433.38 229.58C433.44 229.6 433.5 229.63 433.56 229.67C433.61 229.7 433.66 229.75 433.71 229.79C433.8 229.89 433.87 229.99 433.92 230.12C433.97 230.24 434 230.37 434 230.5C434 230.63 433.97 230.76 433.92 230.88Z" fill="white"/>
<path d="M486 229.12C485.59 229.12 485.25 228.78 485.25 228.37V226.62C485.25 226.21 485.59 225.87 486 225.87C486.41 225.87 486.75 226.21 486.75 226.62V228.37C486.75 228.79 486.41 229.12 486 229.12Z" fill="white"/>
<path d="M490 229.12C489.59 229.12 489.25 228.78 489.25 228.37V226.62C489.25 226.21 489.59 225.87 490 225.87C490.41 225.87 490.75 226.21 490.75 226.62V228.37C490.75 228.79 490.41 229.12 490 229.12Z" fill="white"/>
<path d="M494 229.12C493.59 229.12 493.25 228.78 493.25 228.37V226.62C493.25 226.21 493.59 225.87 494 225.87C494.41 225.87 494.75 226.21 494.75 226.62V228.37C494.75 228.79 494.41 229.12 494 229.12Z" fill="white"/>
<path d="M502.25 237.25C502.25 234.63 500.22 232.51 497.66 232.29C496.92 231.08 495.6 230.26 494.08 230.26H486.71C484.39 230.26 482.5 232.15 482.5 234.47V235H498.29V234.47C498.29 234.28 498.26 234.09 498.23 233.91C499.68 234.34 500.75 235.66 500.75 237.25C500.75 238.82 499.71 240.13 498.29 240.57V236H482.5V241.79C482.5 244.11 484.39 246 486.71 246H494.08C496.28 246 498.07 244.3 498.25 242.14C500.53 241.68 502.25 239.66 502.25 237.25Z" fill="white"/>
<path d="M52.9509 292.13L36.1309 308.95C37.0809 309.64 38.3209 310 39.8109 310H48.1909C51.8309 310 54.0009 307.83 54.0009 304.19V295.81C54.0009 294.32 53.6409 293.08 52.9509 292.13ZM50.5009 304.25H48.8109V306C48.8109 306.41 48.4709 306.75 48.0609 306.75C47.6509 306.75 47.3109 306.41 47.3109 306V304.25H45.5009C45.0909 304.25 44.7509 303.91 44.7509 303.5C44.7509 303.09 45.0909 302.75 45.5009 302.75H47.3109V301C47.3109 300.59 47.6509 300.25 48.0609 300.25C48.4709 300.25 48.8109 300.59 48.8109 301V302.75H50.5009C50.9109 302.75 51.2509 303.09 51.2509 303.5C51.2509 303.91 50.9109 304.25 50.5009 304.25Z" fill="white"/>
<path d="M48.19 290H39.81C36.17 290 34 292.17 34 295.81V304.19C34 305.68 34.36 306.92 35.05 307.87L51.87 291.05C50.92 290.36 49.68 290 48.19 290ZM42.5 296.25H37.5C37.09 296.25 36.75 295.91 36.75 295.5C36.75 295.09 37.09 294.75 37.5 294.75H42.5C42.91 294.75 43.25 295.09 43.25 295.5C43.25 295.91 42.91 296.25 42.5 296.25Z" fill="white"/>
<path d="M117.561 298.74L116.201 297.16C115.941 296.86 115.731 296.3 115.731 295.9V294.2C115.731 293.14 114.861 292.27 113.801 292.27H112.101C111.711 292.27 111.141 292.06 110.841 291.8L109.261 290.44C108.571 289.85 107.441 289.85 106.741 290.44L105.171 291.81C104.871 292.06 104.301 292.27 103.911 292.27H102.181C101.121 292.27 100.251 293.14 100.251 294.2V295.91C100.251 296.3 100.041 296.86 99.7909 297.16L98.4409 298.75C97.8609 299.44 97.8609 300.56 98.4409 301.25L99.7909 302.84C100.041 303.14 100.251 303.7 100.251 304.09V305.8C100.251 306.86 101.121 307.73 102.181 307.73H103.911C104.301 307.73 104.871 307.94 105.171 308.2L106.751 309.56C107.441 310.15 108.571 310.15 109.271 309.56L110.851 308.2C111.151 307.94 111.711 307.73 112.111 307.73H113.811C114.871 307.73 115.741 306.86 115.741 305.8V304.1C115.741 303.71 115.951 303.14 116.211 302.84L117.571 301.26C118.151 300.57 118.151 299.43 117.561 298.74ZM112.161 298.11L107.331 302.94C107.191 303.08 107.001 303.16 106.801 303.16C106.601 303.16 106.411 303.08 106.271 302.94L103.851 300.52C103.561 300.23 103.561 299.75 103.851 299.46C104.141 299.17 104.621 299.17 104.911 299.46L106.801 301.35L111.101 297.05C111.391 296.76 111.871 296.76 112.161 297.05C112.451 297.34 112.451 297.82 112.161 298.11Z" fill="white"/>
<path d="M181.561 298.74L180.211 297.16C179.961 296.86 179.751 296.3 179.751 295.9V294.2C179.751 293.14 178.881 292.27 177.821 292.27H176.121C175.721 292.27 175.151 292.06 174.851 291.81L173.271 290.46C172.581 289.87 171.451 289.87 170.761 290.46L169.161 291.81C168.861 292.06 168.301 292.27 167.901 292.27H166.171C165.111 292.27 164.241 293.14 164.241 294.2V295.9C164.241 296.29 164.041 296.85 163.791 297.15L162.441 298.74C161.861 299.44 161.861 300.56 162.441 301.24L163.791 302.83C164.041 303.12 164.241 303.69 164.241 304.08V305.79C164.241 306.85 165.111 307.72 166.171 307.72H167.911C168.301 307.72 168.871 307.93 169.171 308.18L170.751 309.53C171.441 310.12 172.571 310.12 173.261 309.53L174.841 308.18C175.141 307.93 175.701 307.72 176.101 307.72H177.801C178.861 307.72 179.731 306.85 179.731 305.79V304.09C179.731 303.69 179.941 303.13 180.191 302.83L181.541 301.25C182.151 300.57 182.151 299.44 181.561 298.74ZM171.251 296.13C171.251 295.72 171.591 295.38 172.001 295.38C172.411 295.38 172.751 295.72 172.751 296.13V300.96C172.751 301.37 172.411 301.71 172.001 301.71C171.591 301.71 171.251 301.37 171.251 300.96V296.13ZM172.001 304.87C171.451 304.87 171.001 304.42 171.001 303.87C171.001 303.32 171.441 302.87 172.001 302.87C172.551 302.87 173.001 303.32 173.001 303.87C173.001 304.42 172.561 304.87 172.001 304.87Z" fill="white"/>
<path d="M245.561 298.74L244.211 297.16C243.961 296.86 243.751 296.3 243.751 295.9V294.2C243.751 293.14 242.881 292.27 241.821 292.27H240.121C239.721 292.27 239.151 292.06 238.851 291.81L237.271 290.46C236.581 289.87 235.451 289.87 234.761 290.46L233.161 291.81C232.861 292.06 232.301 292.27 231.901 292.27H230.171C229.111 292.27 228.241 293.14 228.241 294.2V295.9C228.241 296.29 228.041 296.85 227.791 297.15L226.441 298.74C225.861 299.44 225.861 300.56 226.441 301.24L227.791 302.83C228.041 303.12 228.241 303.69 228.241 304.08V305.79C228.241 306.85 229.111 307.72 230.171 307.72H231.911C232.301 307.72 232.871 307.93 233.171 308.18L234.751 309.53C235.441 310.12 236.571 310.12 237.261 309.53L238.841 308.18C239.141 307.93 239.701 307.72 240.101 307.72H241.801C242.861 307.72 243.731 306.85 243.731 305.79V304.09C243.731 303.69 243.941 303.13 244.191 302.83L245.541 301.25C246.151 300.57 246.151 299.44 245.561 298.74ZM238.811 304.24L237.831 302.04C237.801 302.04 237.771 302.06 237.741 302.06H234.241C234.211 302.06 234.181 302.05 234.151 302.04L233.171 304.24L231.801 303.63L235.301 295.75H236.671L240.171 303.63L238.811 304.24Z" fill="white"/>
<path d="M234.82 300.56H237.18L236 297.91L234.82 300.56Z" fill="white"/>
<path d="M299.25 291.9V300.92C299.25 301.25 299.09 301.55 298.82 301.74L291.61 306.79C291.02 307.2 290.18 306.88 290.05 306.17C289.9 305.31 290.1 304.3 290.7 303.21L293.82 297.6L296.76 292.31C296.99 291.9 297.24 291.54 297.5 291.23C298.1 290.53 299.25 290.98 299.25 291.9Z" fill="white"/>
<path d="M308.39 306.79L301.18 301.74C300.91 301.55 300.75 301.25 300.75 300.92V291.9C300.75 290.98 301.9 290.53 302.5 291.23C302.76 291.54 303.01 291.9 303.24 292.31L306.18 297.6L309.3 303.21C309.9 304.3 310.1 305.31 309.95 306.17C309.82 306.88 308.98 307.2 308.39 306.79Z" fill="white"/>
<path d="M293.26 307.14L299.41 303.04C299.74 302.82 300.28 302.82 300.61 303.04L306.76 307.14C308.39 308.23 308.12 309.12 306.16 309.12H293.85C291.9 309.11 291.63 308.22 293.26 307.14Z" fill="white"/>
<path d="M371.33 293.68L365.06 290.3C364.4 289.94 363.6 289.94 362.94 290.3L356.67 293.68C356.21 293.93 355.93 294.41 355.93 294.96C355.93 295.5 356.21 295.99 356.67 296.24L362.94 299.62C363.27 299.8 363.64 299.89 364 299.89C364.36 299.89 364.73 299.8 365.06 299.62L371.33 296.24C371.79 295.99 372.07 295.51 372.07 294.96C372.07 294.41 371.79 293.93 371.33 293.68Z" fill="white"/>
<path d="M361.91 300.79L356.07 297.87C355.62 297.65 355.1 297.67 354.68 297.93C354.25 298.2 354 298.65 354 299.15V304.66C354 305.61 354.53 306.47 355.38 306.9L361.21 309.82C361.41 309.92 361.63 309.97 361.85 309.97C362.11 309.97 362.37 309.9 362.6 309.76C363.03 309.5 363.28 309.04 363.28 308.54V303.03C363.29 302.07 362.76 301.21 361.91 300.79Z" fill="white"/>
<path d="M373.321 297.93C372.891 297.67 372.371 297.64 371.931 297.87L366.101 300.79C365.251 301.22 364.721 302.07 364.721 303.03V308.54C364.721 309.04 364.971 309.5 365.401 309.76C365.631 309.9 365.891 309.97 366.151 309.97C366.371 309.97 366.591 309.92 366.791 309.82L372.621 306.9C373.471 306.47 374.001 305.62 374.001 304.66V299.15C374.001 298.65 373.751 298.2 373.321 297.93Z" fill="white"/>
<path d="M433.71 290H432.76C432.37 290 432.05 290.32 432.05 290.71C432.05 291.11 432.37 291.43 432.76 291.43H433.71C435.42 291.43 436.81 292.82 436.81 294.52V300.4C436.45 300.21 436.05 300.11 435.62 300.11H431.81C430.37 300.11 429.19 301.28 429.19 302.73V304.29H426.81V302.73C426.81 301.28 425.63 300.11 424.19 300.11H420.38C419.95 300.11 419.55 300.21 419.19 300.4V294.52C419.19 292.82 420.58 291.43 422.29 291.43H423.24C423.63 291.43 423.95 291.11 423.95 290.71C423.95 290.32 423.63 290 423.24 290H422.29C419.79 290 417.76 292.03 417.76 294.52V302.73V307.38C417.76 308.83 418.94 310 420.38 310H424.19C425.63 310 426.81 308.83 426.81 307.38V305.71H429.19V307.38C429.19 308.83 430.37 310 431.81 310H435.62C437.06 310 438.24 308.83 438.24 307.38V302.73V294.52C438.24 292.03 436.21 290 433.71 290Z" fill="white"/>
<path d="M500.981 291.02C500.111 290.15 498.881 289.81 497.691 290.11L487.891 292.56C486.241 292.97 484.971 294.25 484.561 295.89L482.111 305.7C481.811 306.89 482.151 308.12 483.021 308.99C483.681 309.64 484.551 310 485.451 310C485.731 310 486.021 309.97 486.301 309.89L496.111 307.44C497.751 307.03 499.031 305.76 499.441 304.11L501.891 294.3C502.191 293.11 501.851 291.88 500.981 291.02ZM492.001 303.88C489.861 303.88 488.121 302.14 488.121 300C488.121 297.86 489.861 296.12 492.001 296.12C494.141 296.12 495.881 297.86 495.881 300C495.881 302.14 494.141 303.88 492.001 303.88Z" fill="white"/>
<path d="M48.42 359.95C50.86 362.39 50.86 366.35 48.42 368.79C45.98 371.23 42.02 371.23 39.58 368.79C37.14 366.35 37.14 362.39 39.58 359.95C42.02 357.51 45.98 357.51 48.42 359.95Z" fill="white"/>
<path d="M40.2491 374.39C40.1591 374.39 40.0591 374.37 39.9691 374.34C37.7191 373.44 35.8991 371.85 34.6791 369.75C33.4991 367.7 33.0291 365.38 33.3391 363.02C33.3891 362.61 33.7791 362.32 34.1791 362.37C34.5891 362.42 34.8791 362.8 34.8291 363.21C34.5691 365.24 34.9691 367.24 35.9791 369C37.0191 370.8 38.5891 372.17 40.5191 372.94C40.8991 373.1 41.0891 373.53 40.9391 373.92C40.8291 374.21 40.5391 374.39 40.2491 374.39Z" fill="white"/>
<path d="M37.8496 357.23C37.6296 357.23 37.4096 357.13 37.2596 356.94C36.9996 356.62 37.0596 356.15 37.3896 355.89C39.2896 354.4 41.5796 353.61 43.9996 353.61C46.3596 353.61 48.6096 354.37 50.4996 355.81C50.8296 356.06 50.8896 356.53 50.6396 356.86C50.3896 357.19 49.9196 357.25 49.5896 357C47.9596 355.76 46.0296 355.11 43.9996 355.11C41.9196 355.11 39.9496 355.79 38.3096 357.07C38.1696 357.18 38.0096 357.23 37.8496 357.23Z" fill="white"/>
<path d="M47.7507 374.39C47.4507 374.39 47.1707 374.21 47.0507 373.92C46.9007 373.54 47.0807 373.1 47.4707 372.94C49.4007 372.16 50.9707 370.8 52.0107 369C53.0307 367.24 53.4307 365.24 53.1607 363.22C53.1107 362.81 53.4007 362.43 53.8107 362.38C54.2107 362.33 54.6007 362.62 54.6507 363.03C54.9507 365.38 54.4907 367.71 53.3107 369.76C52.1007 371.86 50.2707 373.44 48.0207 374.35C47.9407 374.37 47.8507 374.39 47.7507 374.39Z" fill="white"/>
<path d="M114 368.01C114.55 368.01 115 368.46 115 369.01V370C115 372.2 113.5 374 111 374H105C102.5 374 101 372.2 101 370V369.01C101 368.46 101.45 368.01 102 368.01H114Z" fill="white"/>
<path d="M115 358V365.5C115 366.05 114.55 366.5 114 366.5H102C101.45 366.5 101 366.05 101 365.5V358C101 355.8 102.5 354 105 354H111C113.5 354 115 355.8 115 358Z" fill="white"/>
<path d="M99 372.75C98.59 372.75 98.25 372.41 98.25 372V356C98.25 355.59 98.59 355.25 99 355.25C99.41 355.25 99.75 355.59 99.75 356V372C99.75 372.41 99.41 372.75 99 372.75Z" fill="white"/>
<path d="M117 372.75C116.59 372.75 116.25 372.41 116.25 372V356C116.25 355.59 116.59 355.25 117 355.25C117.41 355.25 117.75 355.59 117.75 356V372C117.75 372.41 117.41 372.75 117 372.75Z" fill="white"/>
<path d="M169.001 366.22H163.921C163.311 366.22 162.751 366.53 162.431 367.05C162.111 367.56 162.081 368.17 162.341 368.71C163.571 371.23 165.791 373.21 168.431 374.14C168.611 374.2 168.811 374.24 169.001 374.24C169.351 374.24 169.701 374.13 170.001 373.92C170.471 373.59 170.751 373.05 170.751 372.48L170.761 367.98C170.761 367.51 170.581 367.07 170.251 366.74C169.911 366.41 169.471 366.22 169.001 366.22Z" fill="white"/>
<path d="M182.48 361.6C181.36 356.68 177.05 353.25 172 353.25C166.95 353.25 162.64 356.68 161.52 361.6C161.4 362.12 161.52 362.65 161.86 363.07C162.2 363.49 162.7 363.73 163.24 363.73H180.77C181.31 363.73 181.81 363.49 182.15 363.07C182.48 362.65 182.6 362.11 182.48 361.6Z" fill="white"/>
<path d="M180.06 366.27L175 366.26C174.53 366.26 174.09 366.44 173.76 366.77C173.43 367.1 173.25 367.54 173.25 368.01L173.26 372.49C173.26 373.06 173.54 373.6 174.01 373.93C174.31 374.14 174.66 374.25 175.01 374.25C175.2 374.25 175.39 374.22 175.57 374.15C178.19 373.23 180.41 371.26 181.64 368.77C181.9 368.24 181.87 367.62 181.56 367.12C181.23 366.58 180.67 366.27 180.06 366.27Z" fill="white"/>
<path d="M240.19 354H231.81C228.17 354 226 356.17 226 359.81V368.18C226 371.83 228.17 374 231.81 374H240.18C243.82 374 245.99 371.83 245.99 368.19V359.81C246 356.17 243.83 354 240.19 354ZM238.79 368.6C238.64 368.79 238.42 368.89 238.2 368.89C238.04 368.89 237.88 368.84 237.74 368.73C236.68 367.91 235.31 367.91 234.25 368.73C233.92 368.98 233.45 368.92 233.2 368.6C232.95 368.27 233.01 367.8 233.33 367.55C234.92 366.32 237.06 366.32 238.65 367.55C238.99 367.8 239.05 368.27 238.79 368.6ZM241 365.51C240.85 365.7 240.63 365.8 240.41 365.8C240.25 365.8 240.09 365.75 239.95 365.64C237.55 363.79 234.46 363.79 232.06 365.64C231.73 365.9 231.26 365.84 231 365.51C230.74 365.18 230.81 364.71 231.13 364.46C234.08 362.18 237.9 362.18 240.85 364.46C241.19 364.71 241.25 365.18 241 365.51ZM242.59 362.42C242.44 362.61 242.22 362.71 242 362.71C241.84 362.71 241.68 362.66 241.54 362.55C238.17 359.95 233.82 359.95 230.46 362.55C230.13 362.8 229.66 362.74 229.41 362.42C229.16 362.09 229.22 361.62 229.54 361.37C233.46 358.34 238.53 358.34 242.46 361.37C242.79 361.62 242.85 362.09 242.59 362.42Z" fill="white"/>
<path d="M293.329 371.42C293.219 371.42 293.099 371.39 292.999 371.34L290.779 370.23C290.529 370.1 290.369 369.84 290.369 369.56V366.78C290.369 366.37 290.709 366.03 291.119 366.03C291.529 366.03 291.869 366.37 291.869 366.78V369.09L293.669 370C294.039 370.18 294.189 370.63 293.999 371C293.869 371.26 293.609 371.42 293.329 371.42Z" fill="white"/>
<path d="M299.999 374.75C299.939 374.75 299.879 374.74 299.829 374.73C299.769 374.72 299.709 374.69 299.649 374.66L297.439 373.56C297.069 373.37 296.919 372.92 297.099 372.55C297.289 372.18 297.739 372.03 298.109 372.21L299.249 372.78V371.22C299.249 370.81 299.589 370.47 299.999 370.47C300.409 370.47 300.749 370.81 300.749 371.22V372.78L301.889 372.21C302.259 372.03 302.709 372.18 302.899 372.55C303.089 372.92 302.939 373.37 302.559 373.56L300.349 374.66C300.289 374.69 300.229 374.71 300.169 374.73C300.109 374.74 300.059 374.75 299.999 374.75Z" fill="white"/>
<path d="M306.67 371.42C306.4 371.42 306.13 371.27 306 371.01C305.81 370.64 305.96 370.19 306.34 370L308.15 369.1V366.79C308.15 366.38 308.49 366.04 308.9 366.04C309.31 366.04 309.65 366.38 309.65 366.79V369.57C309.65 369.85 309.49 370.11 309.24 370.24L307 371.34C306.89 371.39 306.78 371.42 306.67 371.42Z" fill="white"/>
<path d="M299.999 366.42C299.589 366.42 299.249 366.08 299.249 365.67V363.36L297.439 362.46C297.069 362.27 296.919 361.82 297.099 361.45C297.289 361.08 297.739 360.93 298.109 361.11L299.999 362.05L301.889 361.11C302.259 360.93 302.709 361.07 302.899 361.45C303.089 361.82 302.939 362.27 302.559 362.46L300.749 363.36V365.67C300.749 366.08 300.409 366.42 299.999 366.42Z" fill="white"/>
<path d="M291.109 361.97C290.699 361.97 290.359 361.63 290.359 361.22V358.46V358.45C290.359 358.39 290.369 358.33 290.379 358.28C290.399 358.19 290.429 358.12 290.469 358.05C290.499 358 290.539 357.96 290.579 357.92C290.619 357.88 290.669 357.84 290.719 357.81C290.739 357.8 290.769 357.78 290.789 357.77L292.999 356.66C293.369 356.48 293.819 356.63 293.999 357C294.189 357.37 294.039 357.82 293.669 358L292.789 358.44L293.669 358.88C294.039 359.07 294.189 359.52 293.999 359.89C293.819 360.26 293.369 360.41 292.999 360.23L291.859 359.66V361.22C291.859 361.64 291.529 361.97 291.109 361.97Z" fill="white"/>
<path d="M302.22 355.86C302.11 355.86 301.99 355.83 301.89 355.78L300 354.84L298.11 355.78C297.74 355.97 297.29 355.82 297.11 355.45C296.92 355.08 297.07 354.63 297.44 354.44L299.66 353.33C299.87 353.22 300.12 353.22 300.33 353.33L302.55 354.44C302.92 354.63 303.07 355.08 302.89 355.45C302.76 355.71 302.5 355.86 302.22 355.86Z" fill="white"/>
<path d="M308.89 361.97C308.48 361.97 308.14 361.63 308.14 361.22V359.66L307 360.23C306.63 360.41 306.18 360.26 306 359.89C305.81 359.52 305.96 359.07 306.34 358.88L307.22 358.44L306.33 358C305.96 357.82 305.81 357.37 306 357C306.19 356.63 306.63 356.48 307 356.66L309.21 357.76C309.23 357.77 309.26 357.78 309.28 357.8C309.34 357.83 309.39 357.88 309.44 357.93C309.47 357.97 309.5 358.01 309.53 358.05C309.57 358.12 309.6 358.19 309.62 358.27C309.63 358.33 309.64 358.39 309.64 358.44V358.45V361.21C309.64 361.64 309.3 361.97 308.89 361.97Z" fill="white"/>
<path d="M368.19 354H359.81C356.17 354 354 356.17 354 359.81V368.18C354 371.83 356.17 374 359.81 374H368.18C371.82 374 373.99 371.83 373.99 368.19V359.81C374 356.17 371.83 354 368.19 354ZM367.76 367.76C367.7 368.61 367.63 369.67 365.71 369.67H362.29C360.38 369.67 360.3 368.61 360.24 367.76L359.93 363.8C359.91 363.54 360 363.29 360.17 363.1C360.34 362.91 360.59 362.81 360.84 362.81H367.16C367.41 362.81 367.66 362.92 367.83 363.1C368 363.29 368.09 363.54 368.07 363.79L367.76 367.76ZM368.8 361.82C368.78 361.82 368.76 361.82 368.74 361.82C367.7 361.72 366.75 361.65 365.84 361.61C364.62 361.55 363.4 361.53 362.17 361.58C361.57 361.61 360.96 361.65 360.36 361.71L359.27 361.82C359.25 361.82 359.22 361.82 359.2 361.82C358.85 361.82 358.55 361.56 358.52 361.2C358.48 360.83 358.76 360.49 359.13 360.46L360.22 360.35C360.65 360.31 361.07 360.28 361.5 360.26L361.58 359.79C361.66 359.29 361.81 358.33 363.31 358.33H364.7C366.21 358.33 366.36 359.32 366.43 359.8L366.51 360.28C367.26 360.32 368.03 360.38 368.87 360.46C369.25 360.5 369.52 360.83 369.49 361.21C369.45 361.56 369.15 361.82 368.8 361.82Z" fill="white"/>
<path d="M435.091 364.59C434.931 364.59 434.771 364.54 434.631 364.43C430.601 361.32 425.391 361.32 421.361 364.43C421.031 364.68 420.561 364.62 420.311 364.3C420.061 363.97 420.121 363.5 420.441 363.25C425.031 359.7 430.961 359.7 435.541 363.25C435.871 363.5 435.931 363.97 435.671 364.3C435.541 364.49 435.321 364.59 435.091 364.59Z" fill="white"/>
<path d="M438 361.11C437.84 361.11 437.68 361.06 437.54 360.95C431.74 356.47 424.25 356.47 418.46 360.95C418.13 361.2 417.66 361.14 417.41 360.82C417.15 360.5 417.21 360.02 417.54 359.77C423.89 354.86 432.1 354.86 438.46 359.77C438.79 360.02 438.85 360.49 438.59 360.82C438.45 361.01 438.22 361.11 438 361.11Z" fill="white"/>
<path d="M433.21 368.24C433.05 368.24 432.89 368.19 432.75 368.08C429.87 365.85 426.14 365.85 423.25 368.08C422.92 368.33 422.45 368.27 422.2 367.95C421.95 367.62 422.01 367.15 422.33 366.9C425.77 364.24 430.22 364.24 433.66 366.9C433.99 367.15 434.05 367.62 433.79 367.95C433.65 368.14 433.43 368.24 433.21 368.24Z" fill="white"/>
<path d="M430.599 371.9C430.439 371.9 430.279 371.85 430.139 371.74C428.839 370.73 427.149 370.73 425.849 371.74C425.519 371.99 425.049 371.93 424.799 371.61C424.549 371.28 424.609 370.81 424.929 370.56C426.789 369.12 429.189 369.12 431.049 370.56C431.379 370.81 431.439 371.28 431.179 371.61C431.049 371.79 430.829 371.9 430.599 371.9Z" fill="white"/>
<path d="M499.14 372.25C498.95 372.25 498.76 372.18 498.61 372.04C498.31 371.75 498.31 371.28 498.6 370.98C500.31 369.24 501.25 366.94 501.25 364.5C501.25 359.4 497.1 355.25 492 355.25C486.9 355.25 482.75 359.4 482.75 364.5C482.75 366.93 483.68 369.22 485.38 370.96C485.67 371.26 485.66 371.73 485.37 372.02C485.07 372.31 484.6 372.3 484.31 372.01C482.34 369.99 481.25 367.32 481.25 364.5C481.25 358.57 486.07 353.75 492 353.75C497.93 353.75 502.75 358.57 502.75 364.5C502.75 367.33 501.66 370.01 499.67 372.03C499.53 372.18 499.33 372.25 499.14 372.25Z" fill="white"/>
<path d="M491.999 374C494.142 374 495.879 372.263 495.879 370.12C495.879 367.977 494.142 366.24 491.999 366.24C489.856 366.24 488.119 367.977 488.119 370.12C488.119 372.263 489.856 374 491.999 374Z" fill="white"/>
<path d="M496 360.5C494.9 360.5 494 361.4 494 362.5V363.25C494 363.94 494.56 364.5 495.25 364.5H496C497.1 364.5 498 363.6 498 362.5C498 361.4 497.1 360.5 496 360.5Z" fill="white"/>
</svg>
