<svg width="400" height="309" viewBox="0 0 536 409" fill="none" xmlns="http://www.w3.org/2000/svg">
<rect y="0.474609" width="536" height="408" rx="16" fill="#252525"/>
<path d="M53.0697 37.7046C51.4597 37.5446 49.8497 37.4246 48.2297 37.3346V37.3246L48.0097 36.0246C47.8597 35.1046 47.6397 33.7246 45.2997 33.7246H42.6797C40.3497 33.7246 40.1297 35.0446 39.9697 36.0146L39.7597 37.2946C38.8297 37.3546 37.8997 37.4146 36.9697 37.5046L34.9297 37.7046C34.5097 37.7446 34.2097 38.1146 34.2497 38.5246C34.2897 38.9346 34.6497 39.2346 35.0697 39.1946L37.1097 38.9946C42.3497 38.4746 47.6297 38.6746 52.9297 39.2046C52.9597 39.2046 52.9797 39.2046 53.0097 39.2046C53.3897 39.2046 53.7197 38.9146 53.7597 38.5246C53.7897 38.1146 53.4897 37.7446 53.0697 37.7046Z" fill="white"/>
<path d="M51.2297 40.6146C50.9897 40.3646 50.6597 40.2246 50.3197 40.2246H37.6797C37.3397 40.2246 36.9997 40.3646 36.7697 40.6146C36.5397 40.8646 36.4097 41.2046 36.4297 41.5546L37.0497 51.8146C37.1597 53.3346 37.2997 55.2346 40.7897 55.2346H47.2097C50.6997 55.2346 50.8398 53.3446 50.9497 51.8146L51.5697 41.5646C51.5897 41.2046 51.4597 40.8646 51.2297 40.6146ZM45.6597 50.2246H42.3297C41.9197 50.2246 41.5797 49.8846 41.5797 49.4746C41.5797 49.0646 41.9197 48.7246 42.3297 48.7246H45.6597C46.0697 48.7246 46.4097 49.0646 46.4097 49.4746C46.4097 49.8846 46.0697 50.2246 45.6597 50.2246ZM46.4997 46.2246H41.4997C41.0897 46.2246 40.7497 45.8846 40.7497 45.4746C40.7497 45.0646 41.0897 44.7246 41.4997 44.7246H46.4997C46.9097 44.7246 47.2497 45.0646 47.2497 45.4746C47.2497 45.8846 46.9097 46.2246 46.4997 46.2246Z" fill="white"/>
<path d="M108.93 37.2646H103.35C99.25 37.2646 98 38.5146 98 42.6146V46.3346C98 50.4346 99.25 51.6846 103.35 51.6846H108.93C113.03 51.6846 114.28 50.4346 114.28 46.3346V42.6146C114.28 38.5146 113.03 37.2646 108.93 37.2646Z" fill="white"/>
<path d="M116.419 41.4751C116.279 41.4651 116.099 41.4551 115.899 41.4551C115.509 41.4551 115.199 41.7651 115.199 42.1551V46.8051C115.199 47.1951 115.509 47.5051 115.899 47.5051C116.099 47.5051 116.269 47.4951 116.439 47.4851C117.999 47.3051 117.999 46.2051 117.999 45.4051V43.5451C117.999 42.7451 117.999 41.6451 116.419 41.4751Z" fill="white"/>
<path d="M180.419 41.4751C180.279 41.4651 180.099 41.4551 179.899 41.4551C179.509 41.4551 179.199 41.7651 179.199 42.1551V46.8051C179.199 47.1951 179.509 47.5051 179.899 47.5051C180.099 47.5051 180.269 47.4951 180.439 47.4851C181.999 47.3051 181.999 46.2051 181.999 45.4051V43.5451C181.999 42.7451 181.999 41.6451 180.419 41.4751Z" fill="white"/>
<path d="M172.93 37.2646H167.35C163.25 37.2646 162 38.5146 162 42.6146V46.3346C162 50.4346 163.25 51.6846 167.35 51.6846H172.93C177.03 51.6846 178.28 50.4346 178.28 46.3346V42.6146C178.28 38.5146 177.03 37.2646 172.93 37.2646ZM167.1 46.6546C167.02 46.9946 166.71 47.2246 166.37 47.2246C166.31 47.2246 166.25 47.2146 166.19 47.2046C165.79 47.1046 165.54 46.6946 165.64 46.2946C165.94 45.1046 165.94 43.8446 165.64 42.6546C165.54 42.2546 165.78 41.8446 166.19 41.7446C166.59 41.6446 167 41.8946 167.1 42.2946C167.46 43.7246 167.46 45.2246 167.1 46.6546Z" fill="white"/>
<path d="M244.419 41.4751C244.279 41.4651 244.099 41.4551 243.899 41.4551C243.509 41.4551 243.199 41.7651 243.199 42.1551V46.8051C243.199 47.1951 243.509 47.5051 243.899 47.5051C244.099 47.5051 244.269 47.4951 244.439 47.4851C245.999 47.3051 245.999 46.2051 245.999 45.4051V43.5451C245.999 42.7451 245.999 41.6451 244.419 41.4751Z" fill="white"/>
<path d="M236.93 37.2646H231.35C227.25 37.2646 226 38.5146 226 42.6146V46.3346C226 50.4346 227.25 51.6846 231.35 51.6846H236.93C241.03 51.6846 242.28 50.4346 242.28 46.3346V42.6146C242.28 38.5146 241.03 37.2646 236.93 37.2646ZM231.1 46.6546C231.02 46.9946 230.71 47.2246 230.37 47.2246C230.31 47.2246 230.25 47.2146 230.19 47.2046C229.79 47.1046 229.54 46.6946 229.64 46.2946C229.94 45.1046 229.94 43.8446 229.64 42.6546C229.54 42.2546 229.78 41.8446 230.19 41.7446C230.6 41.6446 231 41.8946 231.1 42.2946C231.46 43.7246 231.46 45.2246 231.1 46.6546ZM234.6 46.6546C234.52 46.9946 234.21 47.2246 233.87 47.2246C233.81 47.2246 233.75 47.2146 233.69 47.2046C233.29 47.1046 233.04 46.6946 233.14 46.2946C233.44 45.1046 233.44 43.8446 233.14 42.6546C233.04 42.2546 233.28 41.8446 233.69 41.7446C234.09 41.6446 234.5 41.8846 234.6 42.2946C234.96 43.7246 234.96 45.2246 234.6 46.6546Z" fill="white"/>
<path d="M308.419 41.4751C308.279 41.4651 308.099 41.4551 307.899 41.4551C307.509 41.4551 307.199 41.7651 307.199 42.1551V46.8051C307.199 47.1951 307.509 47.5051 307.899 47.5051C308.099 47.5051 308.269 47.4951 308.439 47.4851C309.999 47.3051 309.999 46.2051 309.999 45.4051V43.5451C309.999 42.7451 309.999 41.6451 308.419 41.4751Z" fill="white"/>
<path d="M300.93 37.2646H295.35C291.25 37.2646 290 38.5146 290 42.6146V46.3346C290 50.4346 291.25 51.6846 295.35 51.6846H300.93C305.03 51.6846 306.28 50.4346 306.28 46.3346V42.6146C306.28 38.5146 305.03 37.2646 300.93 37.2646ZM295.1 46.6546C295.02 46.9946 294.71 47.2246 294.37 47.2246C294.31 47.2246 294.25 47.2146 294.19 47.2046C293.79 47.1046 293.54 46.6946 293.64 46.2946C293.94 45.1046 293.94 43.8446 293.64 42.6546C293.54 42.2546 293.78 41.8446 294.19 41.7446C294.6 41.6446 295 41.8946 295.1 42.2946C295.46 43.7246 295.46 45.2246 295.1 46.6546ZM298.6 46.6546C298.52 46.9946 298.21 47.2246 297.87 47.2246C297.81 47.2246 297.75 47.2146 297.69 47.2046C297.29 47.1046 297.04 46.6946 297.14 46.2946C297.44 45.1046 297.44 43.8446 297.14 42.6546C297.04 42.2546 297.28 41.8446 297.69 41.7446C298.09 41.6446 298.5 41.8846 298.6 42.2946C298.96 43.7246 298.96 45.2246 298.6 46.6546ZM302.1 46.6546C302.02 46.9946 301.71 47.2246 301.37 47.2246C301.31 47.2246 301.25 47.2146 301.19 47.2046C300.79 47.1046 300.54 46.6946 300.64 46.2946C300.94 45.1046 300.94 43.8446 300.64 42.6546C300.54 42.2546 300.78 41.8446 301.19 41.7446C301.59 41.6446 302 41.8846 302.1 42.2946C302.46 43.7246 302.46 45.2246 302.1 46.6546Z" fill="white"/>
<path d="M372.419 41.4751C372.279 41.4651 372.099 41.4551 371.899 41.4551C371.509 41.4551 371.199 41.7651 371.199 42.1551V46.8051C371.199 47.1951 371.509 47.5051 371.899 47.5051C372.099 47.5051 372.269 47.4951 372.439 47.4851C373.999 47.3051 373.999 46.2051 373.999 45.4051V43.5451C373.999 42.7451 373.999 41.6451 372.419 41.4751Z" fill="white"/>
<path d="M364.93 37.2646H359.35C355.25 37.2646 354 38.5146 354 42.6146V46.3346C354 50.4346 355.25 51.6846 359.35 51.6846H364.93C369.03 51.6846 370.28 50.4346 370.28 46.3346V42.6146C370.28 38.5146 369.03 37.2646 364.93 37.2646ZM364.53 46.1546C364.51 46.1946 364.48 46.2346 364.45 46.2646L362.58 48.4546C362.43 48.6246 362.22 48.7146 362.01 48.7146C361.84 48.7146 361.66 48.6546 361.52 48.5346C361.21 48.2646 361.17 47.7946 361.44 47.4746L363.24 45.3646C363.25 45.3346 363.24 45.3046 363.22 45.2746C363.2 45.2346 363.16 45.2146 363.11 45.2146H361.12C360.53 45.2146 360.01 44.9146 359.71 44.4046C359.42 43.8946 359.42 43.2946 359.71 42.7846L361.42 40.5246C361.67 40.1946 362.14 40.1246 362.47 40.3746C362.8 40.6246 362.87 41.0946 362.62 41.4246L360.97 43.6146C361 43.5746 361 43.6146 361.02 43.6646C361.04 43.7046 361.08 43.7246 361.13 43.7246H363.14C363.73 43.7246 364.25 44.0246 364.55 44.5346C364.82 45.0446 364.82 45.6446 364.53 46.1546Z" fill="white"/>
<path d="M436.419 41.4751C436.279 41.4651 436.099 41.4551 435.899 41.4551C435.509 41.4551 435.199 41.7651 435.199 42.1551V46.8051C435.199 47.1951 435.509 47.5051 435.899 47.5051C436.099 47.5051 436.269 47.4951 436.439 47.4851C437.999 47.3051 437.999 46.2051 437.999 45.4051V43.5451C437.999 42.7451 437.999 41.6451 436.419 41.4751Z" fill="white"/>
<path d="M434.279 42.6141V46.3341C434.279 49.2841 431.879 51.6841 428.929 51.6841H425.259C424.469 51.6841 423.989 50.8141 424.409 50.1541L431.669 38.6741C432.029 38.1041 432.839 38.0541 433.289 38.5641C434.009 39.3941 434.279 40.6841 434.279 42.6141Z" fill="white"/>
<path d="M432.4 34.345C432.05 34.125 431.59 34.225 431.37 34.575L429.66 37.285C429.43 37.275 429.19 37.265 428.93 37.265H423.35C419.25 37.265 418 38.515 418 42.615V46.335C418 49.385 418.7 50.845 420.74 51.395L419.37 53.575C419.15 53.925 419.25 54.385 419.6 54.605C419.72 54.685 419.86 54.725 420 54.725C420.25 54.725 420.49 54.605 420.63 54.375L432.63 35.375C432.86 35.025 432.75 34.565 432.4 34.345Z" fill="white"/>
<path d="M500.83 40.4846L494.28 35.2446C493 34.2246 491 34.2146 489.73 35.2346L483.18 40.4846C482.24 41.2346 481.67 42.7346 481.87 43.9146L483.13 51.4546C483.42 53.1446 484.99 54.4746 486.7 54.4746H497.3C498.99 54.4746 500.59 53.1146 500.88 51.4446L502.14 43.9046C502.32 42.7346 501.75 41.2346 500.83 40.4846ZM492.75 50.4746C492.75 50.8846 492.41 51.2246 492 51.2246C491.59 51.2246 491.25 50.8846 491.25 50.4746V47.4746C491.25 47.0646 491.59 46.7246 492 46.7246C492.41 46.7246 492.75 47.0646 492.75 47.4746V50.4746Z" fill="white"/>
<path d="M44 98.4746C38.49 98.4746 34 102.965 34 108.475C34 113.985 38.49 118.475 44 118.475C49.51 118.475 54 113.985 54 108.475C54 102.965 49.51 98.4746 44 98.4746ZM47.92 109.225H39.92C39.51 109.225 39.17 108.885 39.17 108.475C39.17 108.065 39.51 107.725 39.92 107.725H47.92C48.33 107.725 48.67 108.065 48.67 108.475C48.67 108.885 48.34 109.225 47.92 109.225Z" fill="white"/>
<path d="M108 98.4746C102.49 98.4746 98 102.965 98 108.475C98 113.985 102.49 118.475 108 118.475C113.51 118.475 118 113.985 118 108.475C118 102.965 113.51 98.4746 108 98.4746ZM111.36 110.775C111.65 111.065 111.65 111.545 111.36 111.835C111.21 111.985 111.02 112.055 110.83 112.055C110.64 112.055 110.45 111.985 110.3 111.835L108 109.535L105.7 111.835C105.55 111.985 105.36 112.055 105.17 112.055C104.98 112.055 104.79 111.985 104.64 111.835C104.35 111.545 104.35 111.065 104.64 110.775L106.94 108.475L104.64 106.175C104.35 105.885 104.35 105.405 104.64 105.115C104.93 104.825 105.41 104.825 105.7 105.115L108 107.415L110.3 105.115C110.59 104.825 111.07 104.825 111.36 105.115C111.65 105.405 111.65 105.885 111.36 106.175L109.06 108.475L111.36 110.775Z" fill="white"/>
<path d="M172 98.4746C166.49 98.4746 162 102.965 162 108.475C162 113.985 166.49 118.475 172 118.475C177.51 118.475 182 113.985 182 108.475C182 102.965 177.51 98.4746 172 98.4746ZM168 109.475C167.44 109.475 167 109.025 167 108.475C167 107.925 167.45 107.475 168 107.475C168.55 107.475 169 107.925 169 108.475C169 109.025 168.56 109.475 168 109.475ZM172 109.475C171.44 109.475 171 109.025 171 108.475C171 107.925 171.45 107.475 172 107.475C172.55 107.475 173 107.925 173 108.475C173 109.025 172.56 109.475 172 109.475ZM176 109.475C175.44 109.475 175 109.025 175 108.475C175 107.925 175.45 107.475 176 107.475C176.55 107.475 177 107.925 177 108.475C177 109.025 176.56 109.475 176 109.475Z" fill="white"/>
<path d="M236 98.4746C230.49 98.4746 226 102.965 226 108.475C226 113.985 230.49 118.475 236 118.475C241.51 118.475 246 113.985 246 108.475C246 102.965 241.51 98.4746 236 98.4746ZM235.25 104.475C235.25 104.065 235.59 103.725 236 103.725C236.41 103.725 236.75 104.065 236.75 104.475V109.475C236.75 109.885 236.41 110.225 236 110.225C235.59 110.225 235.25 109.885 235.25 109.475V104.475ZM236.92 112.855C236.87 112.985 236.8 113.085 236.71 113.185C236.61 113.275 236.5 113.345 236.38 113.395C236.26 113.445 236.13 113.475 236 113.475C235.87 113.475 235.74 113.445 235.62 113.395C235.5 113.345 235.39 113.275 235.29 113.185C235.2 113.085 235.13 112.985 235.08 112.855C235.03 112.735 235 112.605 235 112.475C235 112.345 235.03 112.215 235.08 112.095C235.13 111.975 235.2 111.865 235.29 111.765C235.39 111.675 235.5 111.605 235.62 111.555C235.86 111.455 236.14 111.455 236.38 111.555C236.5 111.605 236.61 111.675 236.71 111.765C236.8 111.865 236.87 111.975 236.92 112.095C236.97 112.215 237 112.345 237 112.475C237 112.605 236.97 112.735 236.92 112.855Z" fill="white"/>
<path d="M309.76 112.395L303.36 100.875C302.5 99.3246 301.31 98.4746 300 98.4746C298.69 98.4746 297.5 99.3246 296.64 100.875L290.24 112.395C289.43 113.865 289.34 115.275 289.99 116.385C290.64 117.495 291.92 118.105 293.6 118.105H306.4C308.08 118.105 309.36 117.495 310.01 116.385C310.66 115.275 310.57 113.855 309.76 112.395ZM299.25 105.475C299.25 105.065 299.59 104.725 300 104.725C300.41 104.725 300.75 105.065 300.75 105.475V110.475C300.75 110.885 300.41 111.225 300 111.225C299.59 111.225 299.25 110.885 299.25 110.475V105.475ZM300.71 114.185C300.66 114.225 300.61 114.265 300.56 114.305C300.5 114.345 300.44 114.375 300.38 114.395C300.32 114.425 300.26 114.445 300.19 114.455C300.13 114.465 300.06 114.475 300 114.475C299.94 114.475 299.87 114.465 299.8 114.455C299.74 114.445 299.68 114.425 299.62 114.395C299.56 114.375 299.5 114.345 299.44 114.305C299.39 114.265 299.34 114.225 299.29 114.185C299.11 113.995 299 113.735 299 113.475C299 113.215 299.11 112.955 299.29 112.765C299.34 112.725 299.39 112.685 299.44 112.645C299.5 112.605 299.56 112.575 299.62 112.555C299.68 112.525 299.74 112.505 299.8 112.495C299.93 112.465 300.07 112.465 300.19 112.495C300.26 112.505 300.32 112.525 300.38 112.555C300.44 112.575 300.5 112.605 300.56 112.645C300.61 112.685 300.66 112.725 300.71 112.765C300.89 112.955 301 113.215 301 113.475C301 113.735 300.89 113.995 300.71 114.185Z" fill="white"/>
<path d="M368.19 98.4746H359.81C356.17 98.4746 354 100.645 354 104.285V112.655C354 116.305 356.17 118.475 359.81 118.475H368.18C371.82 118.475 373.99 116.305 373.99 112.665V104.285C374 100.645 371.83 98.4746 368.19 98.4746ZM370 109.225H364.75V114.475C364.75 114.885 364.41 115.225 364 115.225C363.59 115.225 363.25 114.885 363.25 114.475V109.225H358C357.59 109.225 357.25 108.885 357.25 108.475C357.25 108.065 357.59 107.725 358 107.725H363.25V102.475C363.25 102.065 363.59 101.725 364 101.725C364.41 101.725 364.75 102.065 364.75 102.475V107.725H370C370.41 107.725 370.75 108.065 370.75 108.475C370.75 108.885 370.41 109.225 370 109.225Z" fill="white"/>
<path d="M432.19 98.4746H423.81C420.17 98.4746 418 100.645 418 104.285V112.655C418 116.305 420.17 118.475 423.81 118.475H432.18C435.82 118.475 437.99 116.305 437.99 112.665V104.285C438 100.645 435.83 98.4746 432.19 98.4746ZM434 109.225H422C421.59 109.225 421.25 108.885 421.25 108.475C421.25 108.065 421.59 107.725 422 107.725H434C434.41 107.725 434.75 108.065 434.75 108.475C434.75 108.885 434.41 109.225 434 109.225Z" fill="white"/>
<path d="M496.19 98.4746H487.81C484.17 98.4746 482 100.645 482 104.285V112.655C482 116.305 484.17 118.475 487.81 118.475H496.18C499.82 118.475 501.99 116.305 501.99 112.665V104.285C502 100.645 499.83 98.4746 496.19 98.4746ZM496 109.225H492.75V112.475C492.75 112.885 492.41 113.225 492 113.225C491.59 113.225 491.25 112.885 491.25 112.475V109.225H488C487.59 109.225 487.25 108.885 487.25 108.475C487.25 108.065 487.59 107.725 488 107.725H491.25V104.475C491.25 104.065 491.59 103.725 492 103.725C492.41 103.725 492.75 104.065 492.75 104.475V107.725H496C496.41 107.725 496.75 108.065 496.75 108.475C496.75 108.885 496.41 109.225 496 109.225Z" fill="white"/>
<path d="M50.0703 168.984L41.5103 164.704C35.7603 161.824 33.4003 164.184 36.2803 169.934L37.1503 171.674C37.4003 172.184 37.4003 172.774 37.1503 173.284L36.2803 175.014C33.4003 180.764 35.7503 183.124 41.5103 180.244L50.0703 175.964C53.9103 174.044 53.9103 170.904 50.0703 168.984ZM46.8403 173.224H41.4403C41.0303 173.224 40.6903 172.884 40.6903 172.474C40.6903 172.064 41.0303 171.724 41.4403 171.724H46.8403C47.2503 171.724 47.5903 172.064 47.5903 172.474C47.5903 172.884 47.2503 173.224 46.8403 173.224Z" fill="white"/>
<path d="M112.14 163.435L103.11 166.435C97.0401 168.465 97.0401 171.775 103.11 173.795L105.79 174.685L106.68 177.365C108.7 183.435 112.02 183.435 114.04 177.365L117.05 168.345C118.39 164.295 116.19 162.085 112.14 163.435ZM112.46 168.815L108.66 172.635C108.51 172.785 108.32 172.855 108.13 172.855C107.94 172.855 107.75 172.785 107.6 172.635C107.31 172.345 107.31 171.865 107.6 171.575L111.4 167.755C111.69 167.465 112.17 167.465 112.46 167.755C112.75 168.045 112.75 168.525 112.46 168.815Z" fill="white"/>
<path d="M180.359 173.204C179.989 173.204 179.679 172.924 179.639 172.554C179.399 170.354 178.219 168.374 176.399 167.114C176.069 166.884 175.989 166.434 176.219 166.104C176.449 165.774 176.899 165.694 177.229 165.924C179.399 167.434 180.799 169.794 181.089 172.404C181.129 172.804 180.839 173.164 180.439 173.204C180.409 173.204 180.389 173.204 180.359 173.204Z" fill="white"/>
<path d="M163.739 173.255C163.719 173.255 163.689 173.255 163.669 173.255C163.269 173.215 162.979 172.855 163.019 172.455C163.289 169.845 164.669 167.485 166.819 165.965C167.139 165.735 167.599 165.815 167.829 166.135C168.059 166.465 167.979 166.915 167.659 167.145C165.859 168.425 164.689 170.405 164.469 172.595C164.429 172.975 164.109 173.255 163.739 173.255Z" fill="white"/>
<path d="M175.991 181.575C174.761 182.165 173.441 182.465 172.061 182.465C170.621 182.465 169.251 182.145 167.971 181.495C167.611 181.325 167.471 180.885 167.651 180.525C167.821 180.165 168.261 180.025 168.621 180.195C169.251 180.515 169.921 180.735 170.601 180.865C171.521 181.045 172.461 181.055 173.381 180.895C174.061 180.775 174.731 180.565 175.351 180.265C175.721 180.095 176.161 180.235 176.321 180.605C176.501 180.965 176.361 181.405 175.991 181.575Z" fill="white"/>
<path d="M172.05 162.484C170.5 162.484 169.23 163.744 169.23 165.304C169.23 166.864 170.49 168.124 172.05 168.124C173.61 168.124 174.87 166.864 174.87 165.304C174.87 163.744 173.61 162.484 172.05 162.484Z" fill="white"/>
<path d="M165.05 174.345C163.5 174.345 162.23 175.605 162.23 177.165C162.23 178.725 163.49 179.985 165.05 179.985C166.61 179.985 167.87 178.725 167.87 177.165C167.87 175.605 166.6 174.345 165.05 174.345Z" fill="white"/>
<path d="M178.951 174.345C177.401 174.345 176.131 175.605 176.131 177.165C176.131 178.725 177.391 179.985 178.951 179.985C180.511 179.985 181.771 178.725 181.771 177.165C181.771 175.605 180.511 174.345 178.951 174.345Z" fill="white"/>
<path d="M241.91 171.195H238.82V163.995C238.82 162.315 237.91 161.975 236.8 163.235L236 164.145L229.23 171.845C228.3 172.895 228.69 173.755 230.09 173.755H233.181V180.955C233.181 182.635 234.09 182.975 235.2 181.715L236 180.805L242.771 173.105C243.701 172.055 243.31 171.195 241.91 171.195Z" fill="white"/>
<path d="M309.771 162.704C309.471 162.404 308.981 162.404 308.681 162.704L290.231 181.164C289.931 181.464 289.931 181.954 290.231 182.254C290.381 182.394 290.571 182.474 290.771 182.474C290.971 182.474 291.161 182.394 291.311 182.244L309.771 163.784C310.081 163.484 310.081 163.004 309.771 162.704Z" fill="white"/>
<path d="M302.82 163.995V169.655L297.181 175.295V173.755H294.09C292.69 173.755 292.3 172.895 293.23 171.845L300 164.145L300.8 163.235C301.91 161.975 302.82 162.315 302.82 163.995Z" fill="white"/>
<path d="M306.77 173.104L300 180.804L299.2 181.714C298.09 182.974 297.18 182.634 297.18 180.954V178.294L304.28 171.194H305.91C307.31 171.194 307.7 172.054 306.77 173.104Z" fill="white"/>
<path d="M363.971 162.475C358.451 162.475 353.971 166.955 353.971 172.475C353.971 177.995 358.451 182.475 363.971 182.475C369.491 182.475 373.971 177.995 373.971 172.475C373.971 166.955 369.501 162.475 363.971 162.475ZM367.721 172.825L364.001 177.055L363.561 177.555C362.951 178.245 362.451 178.065 362.451 177.135V173.175H360.751C359.981 173.175 359.771 172.705 360.281 172.125L364.001 167.895L364.441 167.395C365.051 166.705 365.551 166.885 365.551 167.815V171.775H367.251C368.021 171.775 368.231 172.245 367.721 172.825Z" fill="white"/>
<path d="M435.53 166.005L421.53 180.005C421.51 180.025 421.5 180.035 421.48 180.045C421.1 179.725 420.75 179.375 420.43 178.995C418.91 177.245 418 174.965 418 172.475C418 166.955 422.48 162.475 428 162.475C430.49 162.475 432.77 163.385 434.52 164.905C434.9 165.225 435.25 165.575 435.57 165.955C435.56 165.975 435.55 165.985 435.53 166.005Z" fill="white"/>
<path d="M438.001 172.474C438.001 177.964 433.491 182.474 428.001 182.474C426.501 182.474 425.081 182.144 423.801 181.544C423.181 181.254 423.061 180.424 423.541 179.934L435.461 168.014C435.941 167.534 436.781 167.654 437.071 168.274C437.671 169.544 438.001 170.974 438.001 172.474Z" fill="white"/>
<path d="M437.771 162.704C437.471 162.404 436.981 162.404 436.681 162.704L418.231 181.164C417.931 181.464 417.931 181.954 418.231 182.254C418.381 182.394 418.571 182.474 418.771 182.474C418.971 182.474 419.161 182.394 419.311 182.244L437.771 163.784C438.081 163.484 438.081 163.004 437.771 162.704Z" fill="white"/>
<path d="M500.889 173.475V174.475H500.019C499.279 174.475 498.679 175.075 498.679 175.825V176.125C498.679 176.875 498.079 177.475 497.329 177.475C496.589 177.475 495.989 176.875 495.989 176.125V175.825C495.989 175.075 495.379 174.475 494.639 174.475C493.899 174.475 493.299 175.075 493.299 175.825V176.125C493.299 176.875 492.689 177.475 491.949 177.475C491.209 177.475 490.599 176.875 490.599 176.125V175.825C490.599 175.075 489.999 174.475 489.259 174.475C488.519 174.475 487.909 175.075 487.909 175.825V176.125C487.909 176.875 487.309 177.475 486.569 177.475C485.819 177.475 485.219 176.875 485.219 176.125V175.805C485.219 175.065 484.629 174.465 483.899 174.455H483.109V173.475C483.109 172.095 484.149 170.925 485.559 170.585C485.839 170.515 486.129 170.475 486.439 170.475H497.559C497.869 170.475 498.159 170.515 498.439 170.585C499.849 170.925 500.889 172.095 500.889 173.475Z" fill="white"/>
<path d="M498.441 167.645V169.055C498.151 168.995 497.861 168.975 497.561 168.975H486.441C486.141 168.975 485.851 169.005 485.561 169.065V167.645C485.561 166.445 486.641 165.475 487.981 165.475H496.021C497.361 165.475 498.441 166.445 498.441 167.645Z" fill="white"/>
<path d="M488.75 164.025V165.485H487.98C487.72 165.485 487.48 165.515 487.25 165.575V164.025C487.25 163.675 487.59 163.375 488 163.375C488.41 163.375 488.75 163.675 488.75 164.025Z" fill="white"/>
<path d="M496.75 163.805V165.575C496.52 165.505 496.28 165.475 496.02 165.475H495.25V163.805C495.25 163.395 495.59 163.055 496 163.055C496.41 163.055 496.75 163.395 496.75 163.805Z" fill="white"/>
<path d="M492.75 163.295V165.475H491.25V163.295C491.25 162.845 491.59 162.475 492 162.475C492.41 162.475 492.75 162.845 492.75 163.295Z" fill="white"/>
<path d="M502 181.725C502 182.135 501.66 182.475 501.25 182.475H482.75C482.34 182.475 482 182.135 482 181.725C482 181.315 482.34 180.975 482.75 180.975H483.11V175.955H483.72V176.025C483.72 177.365 484.6 178.605 485.91 178.895C486.93 179.135 487.9 178.805 488.56 178.155C488.94 177.775 489.56 177.765 489.94 178.145C490.46 178.655 491.17 178.975 491.95 178.975C492.73 178.975 493.44 178.665 493.96 178.145C494.34 177.775 494.95 177.775 495.34 178.155C495.99 178.805 496.96 179.135 497.99 178.895C499.3 178.605 500.18 177.365 500.18 176.025V175.975H500.89V180.975H501.25C501.66 180.975 502 181.315 502 181.725Z" fill="white"/>
<path d="M48.9997 228.225H42.2797C40.8697 228.225 39.5297 228.815 38.5797 229.865L35.0497 233.745C33.6397 235.295 33.6397 237.655 35.0497 239.205L38.5797 243.085C39.5297 244.125 40.8697 244.725 42.2797 244.725H48.9997C51.7597 244.725 53.9997 242.485 53.9997 239.725V233.225C53.9997 230.465 51.7597 228.225 48.9997 228.225ZM48.5297 238.415C48.8197 238.705 48.8197 239.185 48.5297 239.475C48.3797 239.625 48.1897 239.695 47.9997 239.695C47.8097 239.695 47.6197 239.625 47.4697 239.475L45.5297 237.535L43.5897 239.475C43.4397 239.625 43.2497 239.695 43.0597 239.695C42.8697 239.695 42.6797 239.625 42.5297 239.475C42.2397 239.185 42.2397 238.705 42.5297 238.415L44.4697 236.475L42.5297 234.535C42.2397 234.245 42.2397 233.765 42.5297 233.475C42.8197 233.185 43.2997 233.185 43.5897 233.475L45.5297 235.415L47.4697 233.475C47.7597 233.185 48.2397 233.185 48.5297 233.475C48.8197 233.765 48.8197 234.245 48.5297 234.535L46.5897 236.475L48.5297 238.415Z" fill="white"/>
<path d="M112.19 226.475H103.81C100.17 226.475 98 228.645 98 232.285V240.655C98 244.305 100.17 246.475 103.81 246.475H112.18C115.82 246.475 117.99 244.305 117.99 240.665V232.285C118 228.645 115.83 226.475 112.19 226.475ZM113 241.725H103C102.59 241.725 102.25 241.385 102.25 240.975C102.25 240.565 102.59 240.225 103 240.225H113C113.41 240.225 113.75 240.565 113.75 240.975C113.75 241.385 113.41 241.725 113 241.725ZM113 237.225H103C102.59 237.225 102.25 236.885 102.25 236.475C102.25 236.065 102.59 235.725 103 235.725H113C113.41 235.725 113.75 236.065 113.75 236.475C113.75 236.885 113.41 237.225 113 237.225ZM113 232.725H103C102.59 232.725 102.25 232.385 102.25 231.975C102.25 231.565 102.59 231.225 103 231.225H113C113.41 231.225 113.75 231.565 113.75 231.975C113.75 232.385 113.41 232.725 113 232.725Z" fill="white"/>
<path d="M172 226.475C166.48 226.475 162 230.955 162 236.475C162 241.995 166.48 246.475 172 246.475C177.52 246.475 182 241.995 182 236.475C182 230.955 177.52 226.475 172 226.475ZM172 238.975C170.62 238.975 169.5 237.855 169.5 236.475C169.5 235.095 170.62 233.975 172 233.975C173.38 233.975 174.5 235.095 174.5 236.475C174.5 237.855 173.38 238.975 172 238.975Z" fill="white"/>
<path d="M236 226.475C230.48 226.475 226 230.955 226 236.475C226 241.995 230.48 246.475 236 246.475C241.52 246.475 246 241.995 246 236.475C246 230.955 241.52 226.475 236 226.475ZM236 233.225C235.59 233.225 235.25 232.885 235.25 232.475C235.25 232.065 235.59 231.725 236 231.725C238.62 231.725 240.75 233.855 240.75 236.475C240.75 239.095 238.62 241.225 236 241.225C235.59 241.225 235.25 240.885 235.25 240.475C235.25 240.065 235.59 239.725 236 239.725C237.79 239.725 239.25 238.265 239.25 236.475C239.25 234.685 237.79 233.225 236 233.225ZM236 244.225C231.73 244.225 228.25 240.745 228.25 236.475C228.25 236.065 228.59 235.725 229 235.725C229.41 235.725 229.75 236.065 229.75 236.475C229.75 239.925 232.55 242.725 236 242.725C239.45 242.725 242.25 239.925 242.25 236.475C242.25 233.025 239.45 230.225 236 230.225C235.59 230.225 235.25 229.885 235.25 229.475C235.25 229.065 235.59 228.725 236 228.725C240.27 228.725 243.75 232.205 243.75 236.475C243.75 240.745 240.27 244.225 236 244.225Z" fill="white"/>
<path d="M310 229.475V231.475C310 233.305 309.17 234.295 307.5 234.445C307.34 234.465 307.17 234.475 307 234.475H293C292.83 234.475 292.66 234.465 292.5 234.445C290.83 234.295 290 233.305 290 231.475V229.475C290 227.475 291 226.475 293 226.475H307C309 226.475 310 227.475 310 229.475Z" fill="white"/>
<path d="M293.5 235.725C292.95 235.725 292.5 236.175 292.5 236.725V243.475C292.5 245.475 293 246.475 295.5 246.475H304.5C307 246.475 307.5 245.475 307.5 243.475V236.725C307.5 236.175 307.05 235.725 306.5 235.725H293.5ZM301.82 240.225H298.18C297.77 240.225 297.43 239.885 297.43 239.475C297.43 239.065 297.77 238.725 298.18 238.725H301.82C302.23 238.725 302.57 239.065 302.57 239.475C302.57 239.885 302.23 240.225 301.82 240.225Z" fill="white"/>
<path d="M363.82 231.375C366.68 230.755 369.58 230.665 372.45 231.135C370.68 228.335 367.56 226.475 364 226.475C360.89 226.475 358.11 227.895 356.27 230.125C356.71 231.425 357.27 232.665 357.94 233.845C358.32 234.525 359.29 234.495 359.68 233.825C360.53 232.395 362.06 231.435 363.82 231.375Z" fill="white"/>
<path d="M359.72 239.195C357.72 237.055 356.16 234.615 355.09 231.915C353.59 234.875 353.6 238.505 355.43 241.555C357.03 244.225 359.67 245.885 362.53 246.315C363.42 245.265 364.2 244.145 364.87 242.975C365.26 242.295 364.73 241.485 363.95 241.485C362.28 241.495 360.67 240.675 359.72 239.195Z" fill="white"/>
<path d="M360.57 236.475C360.57 237.085 360.72 237.655 361.03 238.195C361.64 239.245 362.77 239.905 363.99 239.905C365.21 239.905 366.35 239.245 366.95 238.195C367.26 237.655 367.42 237.085 367.42 236.475C367.42 234.585 365.88 233.055 363.99 233.055C362.11 233.045 360.57 234.585 360.57 236.475Z" fill="white"/>
<path d="M373.34 232.895C371.97 232.605 370.58 232.445 369.2 232.425C368.41 232.415 367.96 233.275 368.35 233.965C368.75 234.675 368.98 235.495 368.98 236.365C368.98 237.205 368.76 238.035 368.35 238.775C367.41 241.655 366.01 244.215 364.16 246.475C369.61 246.385 374 241.945 374 236.475C374 235.215 373.77 234.005 373.34 232.895Z" fill="white"/>
<path d="M432.19 226.475H423.81C420.17 226.475 418 228.645 418 232.285V240.655C418 244.305 420.17 246.475 423.81 246.475H432.18C435.82 246.475 437.99 244.305 437.99 240.665V232.285C438 228.645 435.83 226.475 432.19 226.475ZM428 240.355C425.86 240.355 424.12 238.615 424.12 236.475C424.12 234.335 425.86 232.595 428 232.595C430.14 232.595 431.88 234.335 431.88 236.475C431.88 238.615 430.14 240.355 428 240.355ZM433.92 231.355C433.87 231.475 433.8 231.585 433.71 231.685C433.61 231.775 433.5 231.845 433.38 231.895C433.26 231.945 433.13 231.975 433 231.975C432.73 231.975 432.48 231.875 432.29 231.685C432.2 231.585 432.13 231.475 432.08 231.355C432.03 231.235 432 231.105 432 230.975C432 230.845 432.03 230.715 432.08 230.595C432.13 230.465 432.2 230.365 432.29 230.265C432.52 230.035 432.87 229.925 433.19 229.995C433.26 230.005 433.32 230.025 433.38 230.055C433.44 230.075 433.5 230.105 433.56 230.145C433.61 230.175 433.66 230.225 433.71 230.265C433.8 230.365 433.87 230.465 433.92 230.595C433.97 230.715 434 230.845 434 230.975C434 231.105 433.97 231.235 433.92 231.355Z" fill="white"/>
<path d="M486 229.595C485.59 229.595 485.25 229.255 485.25 228.845V227.095C485.25 226.685 485.59 226.345 486 226.345C486.41 226.345 486.75 226.685 486.75 227.095V228.845C486.75 229.265 486.41 229.595 486 229.595Z" fill="white"/>
<path d="M490 229.595C489.59 229.595 489.25 229.255 489.25 228.845V227.095C489.25 226.685 489.59 226.345 490 226.345C490.41 226.345 490.75 226.685 490.75 227.095V228.845C490.75 229.265 490.41 229.595 490 229.595Z" fill="white"/>
<path d="M494 229.595C493.59 229.595 493.25 229.255 493.25 228.845V227.095C493.25 226.685 493.59 226.345 494 226.345C494.41 226.345 494.75 226.685 494.75 227.095V228.845C494.75 229.265 494.41 229.595 494 229.595Z" fill="white"/>
<path d="M502.25 237.724C502.25 235.104 500.22 232.984 497.66 232.764C496.92 231.554 495.6 230.734 494.08 230.734H486.71C484.39 230.734 482.5 232.624 482.5 234.944V235.474H498.29V234.944C498.29 234.754 498.26 234.564 498.23 234.384C499.68 234.814 500.75 236.134 500.75 237.724C500.75 239.294 499.71 240.604 498.29 241.044V236.474H482.5V242.264C482.5 244.584 484.39 246.474 486.71 246.474H494.08C496.28 246.474 498.07 244.774 498.25 242.614C500.53 242.154 502.25 240.134 502.25 237.724Z" fill="white"/>
<path d="M52.9499 292.604L36.1299 309.424C37.0799 310.114 38.3199 310.474 39.8099 310.474H48.1899C51.8299 310.474 53.9999 308.304 53.9999 304.664V296.284C53.9999 294.794 53.6399 293.554 52.9499 292.604ZM50.4999 304.724H48.8099V306.474C48.8099 306.884 48.4699 307.224 48.0599 307.224C47.6499 307.224 47.3099 306.884 47.3099 306.474V304.724H45.4999C45.0899 304.724 44.7499 304.384 44.7499 303.974C44.7499 303.564 45.0899 303.224 45.4999 303.224H47.3099V301.474C47.3099 301.064 47.6499 300.724 48.0599 300.724C48.4699 300.724 48.8099 301.064 48.8099 301.474V303.224H50.4999C50.9099 303.224 51.2499 303.564 51.2499 303.974C51.2499 304.384 50.9099 304.724 50.4999 304.724Z" fill="white"/>
<path d="M48.19 290.475H39.81C36.17 290.475 34 292.645 34 296.285V304.665C34 306.155 34.36 307.395 35.05 308.345L51.87 291.525C50.92 290.835 49.68 290.475 48.19 290.475ZM42.5 296.725H37.5C37.09 296.725 36.75 296.385 36.75 295.975C36.75 295.565 37.09 295.225 37.5 295.225H42.5C42.91 295.225 43.25 295.565 43.25 295.975C43.25 296.385 42.91 296.725 42.5 296.725Z" fill="white"/>
<path d="M117.56 299.214L116.2 297.634C115.94 297.334 115.73 296.774 115.73 296.374V294.674C115.73 293.614 114.86 292.744 113.8 292.744H112.1C111.71 292.744 111.14 292.534 110.84 292.274L109.26 290.914C108.57 290.324 107.44 290.324 106.74 290.914L105.17 292.284C104.87 292.534 104.3 292.744 103.91 292.744H102.18C101.12 292.744 100.25 293.614 100.25 294.674V296.384C100.25 296.774 100.04 297.334 99.7899 297.634L98.4399 299.224C97.8599 299.914 97.8599 301.034 98.4399 301.724L99.7899 303.314C100.04 303.614 100.25 304.174 100.25 304.564V306.274C100.25 307.334 101.12 308.204 102.18 308.204H103.91C104.3 308.204 104.87 308.414 105.17 308.674L106.75 310.034C107.44 310.624 108.57 310.624 109.27 310.034L110.85 308.674C111.15 308.414 111.71 308.204 112.11 308.204H113.81C114.87 308.204 115.74 307.334 115.74 306.274V304.574C115.74 304.184 115.95 303.614 116.21 303.314L117.57 301.734C118.15 301.044 118.15 299.904 117.56 299.214ZM112.16 298.584L107.33 303.414C107.19 303.554 107 303.634 106.8 303.634C106.6 303.634 106.41 303.554 106.27 303.414L103.85 300.994C103.56 300.704 103.56 300.224 103.85 299.934C104.14 299.644 104.62 299.644 104.91 299.934L106.8 301.824L111.1 297.524C111.39 297.234 111.87 297.234 112.16 297.524C112.45 297.814 112.45 298.294 112.16 298.584Z" fill="white"/>
<path d="M181.561 299.215L180.211 297.635C179.961 297.335 179.751 296.775 179.751 296.375V294.675C179.751 293.615 178.881 292.745 177.821 292.745H176.121C175.721 292.745 175.151 292.535 174.851 292.285L173.271 290.935C172.581 290.345 171.451 290.345 170.761 290.935L169.161 292.285C168.861 292.535 168.301 292.745 167.901 292.745H166.171C165.111 292.745 164.241 293.615 164.241 294.675V296.375C164.241 296.765 164.041 297.325 163.791 297.625L162.441 299.215C161.861 299.915 161.861 301.035 162.441 301.715L163.791 303.305C164.041 303.595 164.241 304.165 164.241 304.555V306.265C164.241 307.325 165.111 308.195 166.171 308.195H167.911C168.301 308.195 168.871 308.405 169.171 308.655L170.751 310.005C171.441 310.595 172.571 310.595 173.261 310.005L174.841 308.655C175.141 308.405 175.701 308.195 176.101 308.195H177.801C178.861 308.195 179.731 307.325 179.731 306.265V304.565C179.731 304.165 179.941 303.605 180.191 303.305L181.541 301.725C182.151 301.045 182.151 299.915 181.561 299.215ZM171.251 296.605C171.251 296.195 171.591 295.855 172.001 295.855C172.411 295.855 172.751 296.195 172.751 296.605V301.435C172.751 301.845 172.411 302.185 172.001 302.185C171.591 302.185 171.251 301.845 171.251 301.435V296.605ZM172.001 305.345C171.451 305.345 171.001 304.895 171.001 304.345C171.001 303.795 171.441 303.345 172.001 303.345C172.551 303.345 173.001 303.795 173.001 304.345C173.001 304.895 172.561 305.345 172.001 305.345Z" fill="white"/>
<path d="M245.561 299.215L244.211 297.635C243.961 297.335 243.751 296.775 243.751 296.375V294.675C243.751 293.615 242.881 292.745 241.821 292.745H240.121C239.721 292.745 239.151 292.535 238.851 292.285L237.271 290.935C236.581 290.345 235.451 290.345 234.761 290.935L233.161 292.285C232.861 292.535 232.301 292.745 231.901 292.745H230.171C229.111 292.745 228.241 293.615 228.241 294.675V296.375C228.241 296.765 228.041 297.325 227.791 297.625L226.441 299.215C225.861 299.915 225.861 301.035 226.441 301.715L227.791 303.305C228.041 303.595 228.241 304.165 228.241 304.555V306.265C228.241 307.325 229.111 308.195 230.171 308.195H231.911C232.301 308.195 232.871 308.405 233.171 308.655L234.751 310.005C235.441 310.595 236.571 310.595 237.261 310.005L238.841 308.655C239.141 308.405 239.701 308.195 240.101 308.195H241.801C242.861 308.195 243.731 307.325 243.731 306.265V304.565C243.731 304.165 243.941 303.605 244.191 303.305L245.541 301.725C246.151 301.045 246.151 299.915 245.561 299.215ZM238.811 304.715L237.831 302.515C237.801 302.515 237.771 302.535 237.741 302.535H234.241C234.211 302.535 234.181 302.525 234.151 302.515L233.171 304.715L231.801 304.105L235.301 296.225H236.671L240.171 304.105L238.811 304.715Z" fill="white"/>
<path d="M234.82 301.035H237.18L236 298.385L234.82 301.035Z" fill="white"/>
<path d="M299.25 292.374V301.394C299.25 301.724 299.09 302.024 298.82 302.214L291.61 307.264C291.02 307.674 290.18 307.354 290.05 306.644C289.9 305.784 290.1 304.774 290.7 303.684L293.82 298.074L296.76 292.784C296.99 292.374 297.24 292.014 297.5 291.704C298.1 291.004 299.25 291.454 299.25 292.374Z" fill="white"/>
<path d="M308.39 307.264L301.18 302.214C300.91 302.024 300.75 301.724 300.75 301.394V292.374C300.75 291.454 301.9 291.004 302.5 291.704C302.76 292.014 303.01 292.374 303.24 292.784L306.18 298.074L309.3 303.684C309.9 304.774 310.1 305.784 309.95 306.644C309.82 307.354 308.98 307.674 308.39 307.264Z" fill="white"/>
<path d="M293.26 307.615L299.41 303.515C299.74 303.295 300.28 303.295 300.61 303.515L306.76 307.615C308.39 308.705 308.12 309.595 306.16 309.595H293.85C291.9 309.585 291.63 308.695 293.26 307.615Z" fill="white"/>
<path d="M371.33 294.155L365.06 290.775C364.4 290.415 363.6 290.415 362.94 290.775L356.67 294.155C356.21 294.405 355.93 294.885 355.93 295.435C355.93 295.975 356.21 296.465 356.67 296.715L362.94 300.095C363.27 300.275 363.64 300.365 364 300.365C364.36 300.365 364.73 300.275 365.06 300.095L371.33 296.715C371.79 296.465 372.07 295.985 372.07 295.435C372.07 294.885 371.79 294.405 371.33 294.155Z" fill="white"/>
<path d="M361.91 301.265L356.07 298.345C355.62 298.125 355.1 298.145 354.68 298.405C354.25 298.675 354 299.125 354 299.625V305.135C354 306.085 354.53 306.945 355.38 307.375L361.21 310.295C361.41 310.395 361.63 310.445 361.85 310.445C362.11 310.445 362.37 310.375 362.6 310.235C363.03 309.975 363.28 309.515 363.28 309.015V303.505C363.29 302.545 362.76 301.685 361.91 301.265Z" fill="white"/>
<path d="M373.321 298.405C372.891 298.145 372.371 298.115 371.931 298.345L366.101 301.265C365.251 301.695 364.721 302.545 364.721 303.505V309.015C364.721 309.515 364.971 309.975 365.401 310.235C365.631 310.375 365.891 310.445 366.151 310.445C366.371 310.445 366.591 310.395 366.791 310.295L372.621 307.375C373.471 306.945 374.001 306.095 374.001 305.135V299.625C374.001 299.125 373.751 298.675 373.321 298.405Z" fill="white"/>
<path d="M433.71 290.475H432.76C432.37 290.475 432.05 290.795 432.05 291.185C432.05 291.585 432.37 291.905 432.76 291.905H433.71C435.42 291.905 436.81 293.295 436.81 294.995V300.875C436.45 300.685 436.05 300.585 435.62 300.585H431.81C430.37 300.585 429.19 301.755 429.19 303.205V304.765H426.81V303.205C426.81 301.755 425.63 300.585 424.19 300.585H420.38C419.95 300.585 419.55 300.685 419.19 300.875V294.995C419.19 293.295 420.58 291.905 422.29 291.905H423.24C423.63 291.905 423.95 291.585 423.95 291.185C423.95 290.795 423.63 290.475 423.24 290.475H422.29C419.79 290.475 417.76 292.505 417.76 294.995V303.205V307.855C417.76 309.305 418.94 310.475 420.38 310.475H424.19C425.63 310.475 426.81 309.305 426.81 307.855V306.185H429.19V307.855C429.19 309.305 430.37 310.475 431.81 310.475H435.62C437.06 310.475 438.24 309.305 438.24 307.855V303.205V294.995C438.24 292.505 436.21 290.475 433.71 290.475Z" fill="white"/>
<path d="M500.981 291.494C500.111 290.624 498.881 290.284 497.691 290.584L487.891 293.034C486.241 293.444 484.971 294.724 484.561 296.364L482.111 306.174C481.811 307.364 482.151 308.594 483.021 309.464C483.681 310.114 484.551 310.474 485.451 310.474C485.731 310.474 486.021 310.444 486.301 310.364L496.111 307.914C497.751 307.504 499.031 306.234 499.441 304.584L501.891 294.774C502.191 293.584 501.851 292.354 500.981 291.494ZM492.001 304.354C489.861 304.354 488.121 302.614 488.121 300.474C488.121 298.334 489.861 296.594 492.001 296.594C494.141 296.594 495.881 298.334 495.881 300.474C495.881 302.614 494.141 304.354 492.001 304.354Z" fill="white"/>
<path d="M48.42 360.425C50.86 362.865 50.86 366.825 48.42 369.265C45.98 371.705 42.02 371.705 39.58 369.265C37.14 366.825 37.14 362.865 39.58 360.425C42.02 357.985 45.98 357.985 48.42 360.425Z" fill="white"/>
<path d="M40.25 374.864C40.16 374.864 40.06 374.844 39.97 374.814C37.72 373.914 35.9 372.324 34.68 370.224C33.5 368.174 33.03 365.854 33.34 363.494C33.39 363.084 33.78 362.794 34.18 362.844C34.59 362.894 34.88 363.274 34.83 363.684C34.57 365.714 34.97 367.714 35.98 369.474C37.02 371.274 38.59 372.644 40.52 373.414C40.9 373.574 41.09 374.004 40.94 374.394C40.83 374.684 40.54 374.864 40.25 374.864Z" fill="white"/>
<path d="M37.8496 357.705C37.6296 357.705 37.4096 357.605 37.2596 357.415C36.9996 357.095 37.0596 356.625 37.3896 356.365C39.2896 354.875 41.5796 354.085 43.9996 354.085C46.3596 354.085 48.6096 354.845 50.4996 356.285C50.8296 356.535 50.8896 357.005 50.6396 357.335C50.3896 357.665 49.9196 357.725 49.5896 357.475C47.9596 356.235 46.0296 355.585 43.9996 355.585C41.9196 355.585 39.9496 356.265 38.3096 357.545C38.1696 357.655 38.0096 357.705 37.8496 357.705Z" fill="white"/>
<path d="M47.7497 374.864C47.4497 374.864 47.1697 374.684 47.0497 374.394C46.8997 374.014 47.0797 373.574 47.4697 373.414C49.3997 372.634 50.9697 371.274 52.0097 369.474C53.0297 367.714 53.4297 365.714 53.1597 363.694C53.1097 363.284 53.3997 362.904 53.8097 362.854C54.2097 362.804 54.5997 363.094 54.6497 363.504C54.9497 365.854 54.4897 368.184 53.3097 370.234C52.0997 372.334 50.2697 373.914 48.0197 374.824C47.9397 374.844 47.8497 374.864 47.7497 374.864Z" fill="white"/>
<path d="M114 368.484C114.55 368.484 115 368.934 115 369.484V370.474C115 372.674 113.5 374.474 111 374.474H105C102.5 374.474 101 372.674 101 370.474V369.484C101 368.934 101.45 368.484 102 368.484H114Z" fill="white"/>
<path d="M115 358.475V365.975C115 366.525 114.55 366.975 114 366.975H102C101.45 366.975 101 366.525 101 365.975V358.475C101 356.275 102.5 354.475 105 354.475H111C113.5 354.475 115 356.275 115 358.475Z" fill="white"/>
<path d="M99 373.225C98.59 373.225 98.25 372.885 98.25 372.475V356.475C98.25 356.065 98.59 355.725 99 355.725C99.41 355.725 99.75 356.065 99.75 356.475V372.475C99.75 372.885 99.41 373.225 99 373.225Z" fill="white"/>
<path d="M117 373.225C116.59 373.225 116.25 372.885 116.25 372.475V356.475C116.25 356.065 116.59 355.725 117 355.725C117.41 355.725 117.75 356.065 117.75 356.475V372.475C117.75 372.885 117.41 373.225 117 373.225Z" fill="white"/>
<path d="M169.001 366.694H163.921C163.311 366.694 162.751 367.004 162.431 367.524C162.111 368.034 162.081 368.644 162.341 369.184C163.571 371.704 165.791 373.684 168.431 374.614C168.611 374.674 168.811 374.714 169.001 374.714C169.351 374.714 169.701 374.604 170.001 374.394C170.471 374.064 170.751 373.524 170.751 372.954L170.761 368.454C170.761 367.984 170.581 367.544 170.251 367.214C169.911 366.884 169.471 366.694 169.001 366.694Z" fill="white"/>
<path d="M182.48 362.075C181.36 357.155 177.05 353.725 172 353.725C166.95 353.725 162.64 357.155 161.52 362.075C161.4 362.595 161.52 363.125 161.86 363.545C162.2 363.965 162.7 364.205 163.24 364.205H180.77C181.31 364.205 181.81 363.965 182.15 363.545C182.48 363.125 182.6 362.585 182.48 362.075Z" fill="white"/>
<path d="M180.06 366.744L175 366.734C174.53 366.734 174.09 366.914 173.76 367.244C173.43 367.574 173.25 368.014 173.25 368.484L173.26 372.964C173.26 373.534 173.54 374.074 174.01 374.404C174.31 374.614 174.66 374.724 175.01 374.724C175.2 374.724 175.39 374.694 175.57 374.624C178.19 373.704 180.41 371.734 181.64 369.244C181.9 368.714 181.87 368.094 181.56 367.594C181.23 367.054 180.67 366.744 180.06 366.744Z" fill="white"/>
<path d="M240.19 354.475H231.81C228.17 354.475 226 356.645 226 360.285V368.655C226 372.305 228.17 374.475 231.81 374.475H240.18C243.82 374.475 245.99 372.305 245.99 368.665V360.285C246 356.645 243.83 354.475 240.19 354.475ZM238.79 369.075C238.64 369.265 238.42 369.365 238.2 369.365C238.04 369.365 237.88 369.315 237.74 369.205C236.68 368.385 235.31 368.385 234.25 369.205C233.92 369.455 233.45 369.395 233.2 369.075C232.95 368.745 233.01 368.275 233.33 368.025C234.92 366.795 237.06 366.795 238.65 368.025C238.99 368.275 239.05 368.745 238.79 369.075ZM241 365.985C240.85 366.175 240.63 366.275 240.41 366.275C240.25 366.275 240.09 366.225 239.95 366.115C237.55 364.265 234.46 364.265 232.06 366.115C231.73 366.375 231.26 366.315 231 365.985C230.74 365.655 230.81 365.185 231.13 364.935C234.08 362.655 237.9 362.655 240.85 364.935C241.19 365.185 241.25 365.655 241 365.985ZM242.59 362.895C242.44 363.085 242.22 363.185 242 363.185C241.84 363.185 241.68 363.135 241.54 363.025C238.17 360.425 233.82 360.425 230.46 363.025C230.13 363.275 229.66 363.215 229.41 362.895C229.16 362.565 229.22 362.095 229.54 361.845C233.46 358.815 238.53 358.815 242.46 361.845C242.79 362.095 242.85 362.565 242.59 362.895Z" fill="white"/>
<path d="M293.329 371.895C293.219 371.895 293.099 371.865 292.999 371.815L290.779 370.705C290.529 370.575 290.369 370.315 290.369 370.035V367.255C290.369 366.845 290.709 366.505 291.119 366.505C291.529 366.505 291.869 366.845 291.869 367.255V369.565L293.669 370.475C294.039 370.655 294.189 371.105 293.999 371.475C293.869 371.735 293.609 371.895 293.329 371.895Z" fill="white"/>
<path d="M299.999 375.224C299.939 375.224 299.879 375.214 299.829 375.204C299.769 375.194 299.709 375.164 299.649 375.134L297.439 374.034C297.069 373.844 296.919 373.394 297.099 373.024C297.289 372.654 297.739 372.504 298.109 372.684L299.249 373.254V371.694C299.249 371.284 299.589 370.944 299.999 370.944C300.409 370.944 300.749 371.284 300.749 371.694V373.254L301.889 372.684C302.259 372.504 302.709 372.654 302.899 373.024C303.089 373.394 302.939 373.844 302.559 374.034L300.349 375.134C300.289 375.164 300.229 375.184 300.169 375.204C300.109 375.214 300.059 375.224 299.999 375.224Z" fill="white"/>
<path d="M306.67 371.895C306.4 371.895 306.13 371.745 306 371.485C305.81 371.115 305.96 370.665 306.34 370.475L308.15 369.575V367.265C308.15 366.855 308.49 366.515 308.9 366.515C309.31 366.515 309.65 366.855 309.65 367.265V370.045C309.65 370.325 309.49 370.585 309.24 370.715L307 371.815C306.89 371.865 306.78 371.895 306.67 371.895Z" fill="white"/>
<path d="M299.999 366.895C299.589 366.895 299.249 366.555 299.249 366.145V363.835L297.439 362.935C297.069 362.745 296.919 362.295 297.099 361.925C297.289 361.555 297.739 361.405 298.109 361.585L299.999 362.525L301.889 361.585C302.259 361.405 302.709 361.545 302.899 361.925C303.089 362.295 302.939 362.745 302.559 362.935L300.749 363.835V366.145C300.749 366.555 300.409 366.895 299.999 366.895Z" fill="white"/>
<path d="M291.109 362.445C290.699 362.445 290.359 362.105 290.359 361.695V358.935V358.925C290.359 358.865 290.369 358.805 290.379 358.755C290.399 358.665 290.429 358.595 290.469 358.525C290.499 358.475 290.539 358.435 290.579 358.395C290.619 358.355 290.669 358.315 290.719 358.285C290.739 358.275 290.769 358.255 290.789 358.245L292.999 357.135C293.369 356.955 293.819 357.105 293.999 357.475C294.189 357.845 294.039 358.295 293.669 358.475L292.789 358.915L293.669 359.355C294.039 359.545 294.189 359.995 293.999 360.365C293.819 360.735 293.369 360.885 292.999 360.705L291.859 360.135V361.695C291.859 362.115 291.529 362.445 291.109 362.445Z" fill="white"/>
<path d="M302.22 356.334C302.11 356.334 301.99 356.304 301.89 356.254L300 355.314L298.11 356.254C297.74 356.444 297.29 356.294 297.11 355.924C296.92 355.554 297.07 355.104 297.44 354.914L299.66 353.804C299.87 353.694 300.12 353.694 300.33 353.804L302.55 354.914C302.92 355.104 303.07 355.554 302.89 355.924C302.76 356.184 302.5 356.334 302.22 356.334Z" fill="white"/>
<path d="M308.89 362.445C308.48 362.445 308.14 362.105 308.14 361.695V360.135L307 360.705C306.63 360.885 306.18 360.735 306 360.365C305.81 359.995 305.96 359.545 306.34 359.355L307.22 358.915L306.33 358.475C305.96 358.295 305.81 357.845 306 357.475C306.19 357.105 306.63 356.955 307 357.135L309.21 358.235C309.23 358.245 309.26 358.255 309.28 358.275C309.34 358.305 309.39 358.355 309.44 358.405C309.47 358.445 309.5 358.485 309.53 358.525C309.57 358.595 309.6 358.665 309.62 358.745C309.63 358.805 309.64 358.865 309.64 358.915V358.925V361.685C309.64 362.115 309.3 362.445 308.89 362.445Z" fill="white"/>
<path d="M368.19 354.475H359.81C356.17 354.475 354 356.645 354 360.285V368.655C354 372.305 356.17 374.475 359.81 374.475H368.18C371.82 374.475 373.99 372.305 373.99 368.665V360.285C374 356.645 371.83 354.475 368.19 354.475ZM367.76 368.235C367.7 369.085 367.63 370.145 365.71 370.145H362.29C360.38 370.145 360.3 369.085 360.24 368.235L359.93 364.275C359.91 364.015 360 363.765 360.17 363.575C360.34 363.385 360.59 363.285 360.84 363.285H367.16C367.41 363.285 367.66 363.395 367.83 363.575C368 363.765 368.09 364.015 368.07 364.265L367.76 368.235ZM368.8 362.295C368.78 362.295 368.76 362.295 368.74 362.295C367.7 362.195 366.75 362.125 365.84 362.085C364.62 362.025 363.4 362.005 362.17 362.055C361.57 362.085 360.96 362.125 360.36 362.185L359.27 362.295C359.25 362.295 359.22 362.295 359.2 362.295C358.85 362.295 358.55 362.035 358.52 361.675C358.48 361.305 358.76 360.965 359.13 360.935L360.22 360.825C360.65 360.785 361.07 360.755 361.5 360.735L361.58 360.265C361.66 359.765 361.81 358.805 363.31 358.805H364.7C366.21 358.805 366.36 359.795 366.43 360.275L366.51 360.755C367.26 360.795 368.03 360.855 368.87 360.935C369.25 360.975 369.52 361.305 369.49 361.685C369.45 362.035 369.15 362.295 368.8 362.295Z" fill="white"/>
<path d="M435.091 365.065C434.931 365.065 434.771 365.015 434.631 364.905C430.601 361.795 425.391 361.795 421.361 364.905C421.031 365.155 420.561 365.095 420.311 364.775C420.061 364.445 420.121 363.975 420.441 363.725C425.031 360.175 430.961 360.175 435.541 363.725C435.871 363.975 435.931 364.445 435.671 364.775C435.541 364.965 435.321 365.065 435.091 365.065Z" fill="white"/>
<path d="M438 361.585C437.84 361.585 437.68 361.535 437.54 361.425C431.74 356.945 424.25 356.945 418.46 361.425C418.13 361.675 417.66 361.615 417.41 361.295C417.15 360.975 417.21 360.495 417.54 360.245C423.89 355.335 432.1 355.335 438.46 360.245C438.79 360.495 438.85 360.965 438.59 361.295C438.45 361.485 438.22 361.585 438 361.585Z" fill="white"/>
<path d="M433.21 368.715C433.05 368.715 432.89 368.665 432.75 368.555C429.87 366.325 426.14 366.325 423.25 368.555C422.92 368.805 422.45 368.745 422.2 368.425C421.95 368.095 422.01 367.625 422.33 367.375C425.77 364.715 430.22 364.715 433.66 367.375C433.99 367.625 434.05 368.095 433.79 368.425C433.65 368.615 433.43 368.715 433.21 368.715Z" fill="white"/>
<path d="M430.599 372.375C430.439 372.375 430.279 372.325 430.139 372.215C428.839 371.205 427.149 371.205 425.849 372.215C425.519 372.465 425.049 372.405 424.799 372.085C424.549 371.755 424.609 371.285 424.929 371.035C426.789 369.595 429.189 369.595 431.049 371.035C431.379 371.285 431.439 371.755 431.179 372.085C431.049 372.265 430.829 372.375 430.599 372.375Z" fill="white"/>
<path d="M499.14 372.725C498.95 372.725 498.76 372.655 498.61 372.515C498.31 372.225 498.31 371.755 498.6 371.455C500.31 369.715 501.25 367.415 501.25 364.975C501.25 359.875 497.1 355.725 492 355.725C486.9 355.725 482.75 359.875 482.75 364.975C482.75 367.405 483.68 369.695 485.38 371.435C485.67 371.735 485.66 372.205 485.37 372.495C485.07 372.785 484.6 372.775 484.31 372.485C482.34 370.465 481.25 367.795 481.25 364.975C481.25 359.045 486.07 354.225 492 354.225C497.93 354.225 502.75 359.045 502.75 364.975C502.75 367.805 501.66 370.485 499.67 372.505C499.53 372.655 499.33 372.725 499.14 372.725Z" fill="white"/>
<path d="M491.999 374.475C494.142 374.475 495.879 372.738 495.879 370.595C495.879 368.452 494.142 366.715 491.999 366.715C489.856 366.715 488.119 368.452 488.119 370.595C488.119 372.738 489.856 374.475 491.999 374.475Z" fill="white"/>
<path d="M496 360.975C494.9 360.975 494 361.875 494 362.975V363.725C494 364.415 494.56 364.975 495.25 364.975H496C497.1 364.975 498 364.075 498 362.975C498 361.875 497.1 360.975 496 360.975Z" fill="white"/>
</svg>
