<svg width="60" height="70" viewBox="0 0 88 100" fill="none" xmlns="http://www.w3.org/2000/svg">
<rect x="1.5" y="1.5" width="85" height="97" rx="16.5" stroke="#9162FA" stroke-width="2"/>
<path d="M43.9999 67.7777C53.8183 67.7777 61.7777 59.8183 61.7777 49.9999C61.7777 40.1816 53.8183 32.2222 43.9999 32.2222C34.1816 32.2222 26.2222 40.1816 26.2222 49.9999C26.2222 59.8183 34.1816 67.7777 43.9999 67.7777Z" fill="#7D2AE7"/>
<path d="M43.9999 67.7777C53.8183 67.7777 61.7777 59.8183 61.7777 49.9999C61.7777 40.1816 53.8183 32.2222 43.9999 32.2222C34.1816 32.2222 26.2222 40.1816 26.2222 49.9999C26.2222 59.8183 34.1816 67.7777 43.9999 67.7777Z" fill="url(#paint0_radial_969_13390)"/>
<path d="M43.9999 67.7777C53.8183 67.7777 61.7777 59.8183 61.7777 49.9999C61.7777 40.1816 53.8183 32.2222 43.9999 32.2222C34.1816 32.2222 26.2222 40.1816 26.2222 49.9999C26.2222 59.8183 34.1816 67.7777 43.9999 67.7777Z" fill="url(#paint1_radial_969_13390)"/>
<path d="M43.9999 67.7777C53.8183 67.7777 61.7777 59.8183 61.7777 49.9999C61.7777 40.1816 53.8183 32.2222 43.9999 32.2222C34.1816 32.2222 26.2222 40.1816 26.2222 49.9999C26.2222 59.8183 34.1816 67.7777 43.9999 67.7777Z" fill="url(#paint2_radial_969_13390)"/>
<path d="M43.9999 67.7777C53.8183 67.7777 61.7777 59.8183 61.7777 49.9999C61.7777 40.1816 53.8183 32.2222 43.9999 32.2222C34.1816 32.2222 26.2222 40.1816 26.2222 49.9999C26.2222 59.8183 34.1816 67.7777 43.9999 67.7777Z" fill="url(#paint3_radial_969_13390)"/>
<path d="M51.6751 53.6469C51.5283 53.6469 51.3992 53.7708 51.2649 54.0414C49.7476 57.118 47.1269 59.295 44.0943 59.295C40.5878 59.295 38.4163 56.1296 38.4163 51.7566C38.4163 44.3492 42.5435 40.0664 46.1686 40.0664C47.8626 40.0664 48.897 41.1309 48.897 42.825C48.897 44.8355 47.7548 45.9 47.7548 46.6091C47.7548 46.9274 47.9528 47.1201 48.3454 47.1201C49.9227 47.1201 51.774 45.3077 51.774 42.7471C51.774 40.2645 49.6132 38.4396 45.9882 38.4396C39.9972 38.4396 34.6729 43.9938 34.6729 51.6788C34.6729 57.6274 38.0698 61.5584 43.311 61.5584C48.874 61.5584 52.0907 56.0235 52.0907 54.227C52.0907 53.8292 51.8873 53.6469 51.6751 53.6469Z" fill="white"/>
<defs>
<radialGradient id="paint0_radial_969_13390" cx="0" cy="0" r="1" gradientUnits="userSpaceOnUse" gradientTransform="translate(33.0902 63.7358) rotate(-49.416) scale(27.4992)">
<stop stop-color="#6420FF"/>
<stop offset="1" stop-color="#6420FF" stop-opacity="0"/>
</radialGradient>
<radialGradient id="paint1_radial_969_13390" cx="0" cy="0" r="1" gradientUnits="userSpaceOnUse" gradientTransform="translate(35.635 36.2642) rotate(54.703) scale(31.0104)">
<stop stop-color="#00C4CC"/>
<stop offset="1" stop-color="#00C4CC" stop-opacity="0"/>
</radialGradient>
<radialGradient id="paint2_radial_969_13390" cx="0" cy="0" r="1" gradientUnits="userSpaceOnUse" gradientTransform="translate(33.09 63.7356) rotate(-45.1954) scale(27.1663 12.4941)">
<stop stop-color="#6420FF"/>
<stop offset="1" stop-color="#6420FF" stop-opacity="0"/>
</radialGradient>
<radialGradient id="paint3_radial_969_13390" cx="0" cy="0" r="1" gradientUnits="userSpaceOnUse" gradientTransform="translate(40.7625 37.0128) rotate(66.5198) scale(27.9927 46.894)">
<stop stop-color="#00C4CC" stop-opacity="0.725916"/>
<stop offset="0.0001" stop-color="#00C4CC"/>
<stop offset="1" stop-color="#00C4CC" stop-opacity="0"/>
</radialGradient>
</defs>
</svg>
