<svg width="184" height="184" viewBox="0 0 214 214" fill="none" xmlns="http://www.w3.org/2000/svg">
<rect width="214" height="214" rx="16" fill="#F1DFDF"/>
<path d="M104.308 102.198L101.735 106.648L104.308 105.007V102.198Z" fill="black"/>
<path d="M104.78 110.129H108.358L106.569 108.983L104.78 110.129Z" fill="black"/>
<path d="M108.877 102.205V105.036L111.472 106.7L108.877 102.205Z" fill="black"/>
<path d="M104.309 93.3354L93.6416 111.83L98.7791 108.541L104.308 98.9757L104.309 93.3354Z" fill="black"/>
<path d="M95.6582 115.97H101.942V113.161H100.049L95.6582 115.97Z" fill="black"/>
<path d="M113.09 113.161H110.547V115.97H117.481L113.09 113.161Z" fill="black"/>
<path d="M108.877 98.975L114.428 108.592L119.573 111.881L108.877 93.3423L108.877 98.975Z" fill="black"/>
<path d="M113.075 109.479L107.398 105.842V88.1747H109.26V83H103.924V88.1747H105.786V105.812L100.131 109.434L89.3541 116.33H85V121.505H90.3369V117.624L99.8355 111.54L101.943 110.188L102.039 110.129L106.57 107.224L113.311 111.54L122.781 117.609V121.505H128.11V116.33H123.778L113.075 109.479Z" fill="black"/>
<path d="M102.977 127.564V131.004H109.445V127.703L111.53 122.807L107.376 115.622H106.983L106.976 119.332C107.257 119.547 107.435 119.887 107.435 120.264C107.435 120.929 106.895 121.461 106.237 121.461C105.579 121.461 105.04 120.929 105.04 120.264C105.04 119.887 105.217 119.547 105.498 119.332L105.504 115.622H105.114L100.952 122.807L102.977 127.564Z" fill="black"/>
<path d="M103.422 115.6L104.264 114.144H108.227L109.069 115.6V111.608H103.422L103.422 115.6Z" fill="black"/>
</svg>
