<svg width="60" height="70" viewBox="0 0 88 100" fill="none" xmlns="http://www.w3.org/2000/svg">
<rect x="1.5" y="1.5" width="85" height="97" rx="16.5" stroke="#9162FA" stroke-width="2"/>
<rect x="26.2222" y="32.2222" width="35.5556" height="35.5556" rx="8" fill="#000008"/>
<path fill-rule="evenodd" clip-rule="evenodd" d="M48.1353 52.4266L45.2744 56.352L49.1998 61.6747H54.9883L48.1353 52.4266ZM48.1353 48.7007L54.9883 39.519H49.1998L45.2744 44.8417L48.1353 48.7007ZM38.5545 39.519H32.7661L40.9497 50.6302L32.7661 61.7413H38.5545L46.7381 50.6302L38.5545 39.519Z" fill="white"/>
<path fill-rule="evenodd" clip-rule="evenodd" d="M48.1353 52.4266L45.2744 56.352L49.1998 61.6747H54.9883L48.1353 52.4266ZM48.1353 48.7007L54.9883 39.519H49.1998L45.2744 44.8417L48.1353 48.7007ZM38.5545 39.519H32.7661L40.9497 50.6302L32.7661 61.7413H38.5545L46.7381 50.6302L38.5545 39.519Z" fill="white"/>
</svg>
