<svg width="184" height="184" viewBox="0 0 214 214" fill="none" xmlns="http://www.w3.org/2000/svg">
<rect width="214" height="214" rx="16" fill="#E8F2EE"/>
<path d="M92.3735 95.7837C91.3973 95.7837 90.584 96.597 90.584 97.5733C90.584 98.5495 91.3973 99.3628 92.3735 99.3628C93.3498 99.3628 94.1631 98.5495 94.1631 97.5733C94.1631 96.597 93.3498 95.7837 92.3735 95.7837Z" fill="black"/>
<path d="M105.469 99.2804H109.047V95.7017H105.469V99.2804Z" fill="black"/>
<path d="M122.143 95.7837C121.167 95.7837 120.354 96.597 120.354 97.5733C120.354 98.5495 121.167 99.3628 122.143 99.3628C123.119 99.3628 123.933 98.5495 123.933 97.5733C123.932 96.597 123.119 95.7837 122.143 95.7837Z" fill="black"/>
<path d="M107.258 87.2429C92.6986 73.8221 71.3883 95.4582 85.785 109.855L106.689 130.759C106.851 130.921 107.014 131.003 107.258 131.003C107.502 131.003 107.665 130.922 107.827 130.759L128.731 109.855C132.066 106.52 133.53 102.697 133.53 99.0369C133.53 87.2429 118.482 76.9127 107.258 87.2429H107.258ZM122.143 100.908C120.516 100.908 119.214 99.7694 118.808 98.3052H110.674V100.095C110.674 100.583 110.349 100.908 109.861 100.908H108.641L114.171 111.97C114.334 112.295 114.253 112.702 114.009 112.946C113.765 113.19 113.358 113.19 113.033 113.027L110.349 111.319V114.166C110.349 114.654 110.023 114.979 109.535 114.979H105.061C104.574 114.979 104.248 114.654 104.248 114.166V111.319L101.564 113.027C101.239 113.19 100.832 113.19 100.588 112.946C100.344 112.702 100.262 112.295 100.425 111.97L105.956 100.908H104.736C104.248 100.908 103.923 100.583 103.923 100.095V98.3052H95.6264C95.2197 99.7694 93.9185 100.908 92.2914 100.908C90.4206 100.908 88.8752 99.3627 88.8752 97.4919C88.8752 95.621 90.4206 94.0756 92.2914 94.0756C93.9181 94.0756 95.2197 95.2144 95.6264 96.6785H103.841V94.8889C103.841 94.401 104.167 94.0756 104.655 94.0756H109.86C110.348 94.0756 110.674 94.401 110.674 94.8889V96.6785H118.889C119.295 95.2144 120.597 94.0756 122.224 94.0756C124.095 94.0756 125.64 95.621 125.64 97.4919C125.559 99.4439 124.013 100.908 122.143 100.908H122.143Z" fill="black"/>
</svg>
