<svg width="340" height="140" viewBox="0 0 357 156" fill="none" xmlns="http://www.w3.org/2000/svg">
<rect width="357" height="156" rx="16" fill="#343434"/>
<path d="M30.128 40.224C32.768 40.224 34.88 38.416 35.408 35.696H33.344C32.912 37.264 31.632 38.304 30.128 38.304C27.984 38.304 26.56 36.784 26.56 34.512C26.56 32.24 27.984 30.72 30.128 30.72C31.472 30.72 32.72 31.664 33.248 33.072H35.36C34.72 30.512 32.624 28.8 30.128 28.8C26.704 28.8 24.416 31.088 24.416 34.512C24.416 37.936 26.704 40.224 30.128 40.224ZM40.9001 40.224C43.5081 40.224 45.2361 38.528 45.2361 36C45.2361 33.472 43.5081 31.776 40.9001 31.776C38.2921 31.776 36.5641 33.472 36.5641 36C36.5641 38.528 38.2921 40.224 40.9001 40.224ZM40.9001 38.528C39.4441 38.528 38.4841 37.52 38.4841 36C38.4841 34.48 39.4441 33.472 40.9001 33.472C42.3561 33.472 43.3161 34.48 43.3161 36C43.3161 37.52 42.3561 38.528 40.9001 38.528ZM46.5479 40H48.4679V34.608C48.4679 33.92 49.0439 33.472 49.9239 33.472C50.8039 33.472 51.3799 33.92 51.3799 34.608V40H53.2999V34.608C53.2999 33.92 53.8759 33.472 54.7559 33.472C55.6359 33.472 56.2119 33.92 56.2119 34.608V40H58.1319V34.416C58.1319 32.832 56.8519 31.776 54.9479 31.776C54.0679 31.776 53.1079 32.16 52.5479 32.736C52.0039 32.16 51.1559 31.776 50.4199 31.776C49.6519 31.776 48.9479 32.112 48.4679 32.72V32H46.5479V40ZM64.5064 31.776C63.5304 31.776 62.4584 32.224 61.8504 32.88V32H59.9304V42.976H61.8504V39.12C62.4584 39.776 63.5304 40.224 64.5064 40.224C67.0344 40.224 68.7304 38.528 68.7304 36C68.7304 33.472 67.0344 31.776 64.5064 31.776ZM64.3144 33.472C65.8184 33.472 66.8104 34.48 66.8104 36C66.8104 37.52 65.8184 38.528 64.3144 38.528C62.8424 38.528 61.8504 37.52 61.8504 36C61.8504 34.48 62.8424 33.472 64.3144 33.472ZM74.0435 40.224C74.9875 40.224 76.0275 39.792 76.6355 39.136V40H78.5555V32H76.6355V32.864C76.0275 32.208 74.9875 31.776 74.0435 31.776C71.5475 31.776 69.8835 33.472 69.8835 36C69.8835 38.528 71.5475 40.224 74.0435 40.224ZM74.2355 38.528C72.7795 38.528 71.8035 37.52 71.8035 36C71.8035 34.48 72.7795 33.472 74.2355 33.472C75.6755 33.472 76.6355 34.48 76.6355 36C76.6355 37.52 75.6755 38.528 74.2355 38.528ZM80.3516 40H82.2716V35.248C82.2716 34.176 83.0556 33.472 84.2236 33.472C85.3916 33.472 86.1756 34.176 86.1756 35.248V40H88.0956V35.024C88.0956 33.072 86.6396 31.776 84.4476 31.776C83.6636 31.776 82.7996 32.096 82.2716 32.592V32H80.3516V40ZM90.702 42.976H92.766L97.086 32H95.022L93.054 37.024L91.07 32H89.022L92.078 39.488L90.702 42.976Z" fill="#D3D3D3"/>
<path d="M25.5625 69.5C25.5625 69.0312 25.9844 68.7969 26.8281 68.7969H40.9844C41.8281 68.7969 42.25 69.0312 42.25 69.5C42.25 69.9792 41.8281 70.2188 40.9844 70.2188H28.1094V78.6719H39.125C39.9792 78.6719 40.4062 78.9115 40.4062 79.3906C40.4062 79.8698 39.9792 80.1094 39.125 80.1094H28.1094V88.5781H40.9844C41.8281 88.5781 42.25 88.8177 42.25 89.2969C42.25 89.7656 41.8281 90 40.9844 90H26.8281C25.9844 90 25.5625 89.7656 25.5625 89.2969V69.5ZM53.515 89.8438C53.3796 90.1979 52.9108 90.375 52.1087 90.375C51.4004 90.375 50.9681 90.1979 50.8119 89.8438L44.5306 75.2812C44.489 75.2083 44.4681 75.1302 44.4681 75.0469C44.4681 74.599 44.9265 74.375 45.8431 74.375C46.5515 74.375 46.9733 74.5521 47.1087 74.9062L52.5775 87.5781L58.0462 74.7344C58.1504 74.4948 58.4421 74.375 58.9212 74.375C59.5567 74.375 59.8744 74.526 59.8744 74.8281C59.8744 74.8698 59.8535 74.9427 59.8119 75.0469L53.515 89.8438ZM69.03 90.375C66.6862 90.375 64.7435 89.6615 63.2019 88.2344C61.6706 86.7969 60.905 84.8854 60.905 82.5C60.905 80.0833 61.681 78.125 63.2331 76.625C64.7956 75.125 66.7696 74.375 69.155 74.375C71.3946 74.375 73.3008 74.9844 74.8737 76.2031C76.4571 77.4219 77.2487 79.2135 77.2487 81.5781C77.2487 82.1406 76.8269 82.4219 75.9831 82.4219H63.4362C63.4362 84.0885 63.9154 85.5938 64.8737 86.9375C65.8425 88.2812 67.2331 88.9531 69.0456 88.9531C70.3685 88.9531 71.5508 88.599 72.5925 87.8906C73.7175 87.1406 74.3269 86.2812 74.4206 85.3125C74.4727 84.8646 74.8894 84.6406 75.6706 84.6406C76.5248 84.6406 76.9519 84.875 76.9519 85.3438C76.9519 85.6771 76.8373 86.0833 76.6081 86.5625C76.1915 87.4375 75.504 88.1875 74.5456 88.8125C72.9831 89.8542 71.1446 90.375 69.03 90.375ZM74.6862 80.9844C74.4258 77.526 72.5821 75.7969 69.155 75.7969C66.0925 75.7969 64.2331 77.526 63.5769 80.9844H74.6862ZM93.3262 90.3906C92.4825 90.3906 92.0606 90.151 92.0606 89.6719V81.3906C92.0606 80.026 91.6908 78.7604 90.9512 77.5938C90.2221 76.4167 89.0919 75.8281 87.5606 75.8281C84.3731 75.8281 82.7794 77.8333 82.7794 81.8438V89.6719C82.7794 90.151 82.3575 90.3906 81.5137 90.3906C80.6596 90.3906 80.2325 90.151 80.2325 89.6719V75.0938C80.2325 74.6146 80.6596 74.375 81.5137 74.375C82.3575 74.375 82.7794 74.6146 82.7794 75.0938V76.8594C83.7065 75.1927 85.3731 74.3594 87.7794 74.3594C89.446 74.349 90.9981 74.9375 92.4356 76.125C93.8835 77.3021 94.6075 79.0573 94.6075 81.3906V89.6719C94.6075 90.151 94.1804 90.3906 93.3262 90.3906ZM105.466 90.375C102.175 90.3542 100.529 88.9531 100.529 86.1719V75.7969H98.4662C97.6225 75.7969 97.2006 75.5625 97.2006 75.0938C97.2006 74.6146 97.6225 74.375 98.4662 74.375H100.529V69.1406C100.529 68.6615 100.956 68.4219 101.81 68.4219C102.654 68.4219 103.076 68.6615 103.076 69.1406V74.375H106.013C106.867 74.375 107.294 74.6146 107.294 75.0938C107.294 75.5625 106.867 75.7969 106.013 75.7969H103.076V86.1719C103.076 88.0156 103.872 88.9427 105.466 88.9531C105.768 88.9531 106.055 88.9271 106.326 88.875C106.596 88.8125 106.867 88.7812 107.138 88.7812C108.003 88.7812 108.435 89.0208 108.435 89.5C108.435 89.8438 108.07 90.0781 107.341 90.2031C106.716 90.3177 106.091 90.375 105.466 90.375ZM110.653 69.125C110.653 68.6562 111.08 68.4219 111.934 68.4219C112.778 68.4219 113.2 68.6562 113.2 69.125V89.6719C113.2 90.1406 112.778 90.375 111.934 90.375C111.08 90.375 110.653 90.1406 110.653 89.6719V69.125ZM118.856 69.7969C119.793 69.7969 120.262 70.2656 120.262 71.2031C120.262 72.1406 119.793 72.6094 118.856 72.6094C117.918 72.6094 117.449 72.1406 117.449 71.2031C117.449 70.2656 117.918 69.7969 118.856 69.7969ZM117.574 75.0781C117.574 74.6094 118.001 74.375 118.856 74.375C119.71 74.375 120.137 74.6094 120.137 75.0781V89.6562C120.137 90.1354 119.71 90.375 118.856 90.375C118.001 90.375 117.574 90.1354 117.574 89.6562V75.0781ZM123.48 90.375C123.345 90.375 123.173 90.349 122.964 90.2969C122.652 90.2135 122.496 90.0833 122.496 89.9062C122.496 89.8333 122.532 89.7448 122.605 89.6406L128.621 82.6406L122.574 75.3438C122.501 75.2604 122.464 75.1719 122.464 75.0781C122.464 74.8385 122.662 74.651 123.058 74.5156C123.339 74.4219 123.605 74.375 123.855 74.375C124.49 74.375 124.933 74.5208 125.183 74.8125L130.152 80.8125L135.433 74.6875C135.61 74.4792 135.897 74.375 136.293 74.375C136.501 74.375 136.714 74.4115 136.933 74.4844C137.214 74.5885 137.355 74.724 137.355 74.8906C137.355 74.9635 137.329 75.026 137.277 75.0781L131.23 82.1094L137.277 89.4062C137.35 89.4896 137.386 89.5781 137.386 89.6719C137.386 89.901 137.204 90.0833 136.839 90.2188C136.537 90.3229 136.246 90.375 135.964 90.375C135.35 90.375 134.918 90.2292 134.668 89.9375L129.699 83.9375L124.418 90.0625C124.24 90.2708 123.928 90.375 123.48 90.375ZM147.089 90.375C143.797 90.3542 142.151 88.9531 142.151 86.1719V75.7969H140.089C139.245 75.7969 138.823 75.5625 138.823 75.0938C138.823 74.6146 139.245 74.375 140.089 74.375H142.151V69.1406C142.151 68.6615 142.578 68.4219 143.433 68.4219C144.276 68.4219 144.698 68.6615 144.698 69.1406V74.375H147.636C148.49 74.375 148.917 74.6146 148.917 75.0938C148.917 75.5625 148.49 75.7969 147.636 75.7969H144.698V86.1719C144.698 88.0156 145.495 88.9427 147.089 88.9531C147.391 88.9531 147.677 88.9271 147.948 88.875C148.219 88.8125 148.49 88.7812 148.761 88.7812C149.625 88.7812 150.058 89.0208 150.058 89.5C150.058 89.8438 149.693 90.0781 148.964 90.2031C148.339 90.3177 147.714 90.375 147.089 90.375Z" fill="#FCFCFC"/>
<path d="M24.5859 120.312C24.5859 120.137 24.7441 120.049 25.0605 120.049H30.3691C30.6855 120.049 30.8438 120.137 30.8438 120.312C30.8438 120.492 30.6855 120.582 30.3691 120.582H25.541V123.752H29.6719C29.9922 123.752 30.1523 123.842 30.1523 124.021C30.1523 124.201 29.9922 124.291 29.6719 124.291H25.541V127.467H30.3691C30.6855 127.467 30.8438 127.557 30.8438 127.736C30.8438 127.912 30.6855 128 30.3691 128H25.0605C24.7441 128 24.5859 127.912 24.5859 127.736V120.312ZM35.0681 127.941C35.0173 128.074 34.8416 128.141 34.5408 128.141C34.2752 128.141 34.113 128.074 34.0545 127.941L31.699 122.48C31.6834 122.453 31.6755 122.424 31.6755 122.393C31.6755 122.225 31.8474 122.141 32.1912 122.141C32.4568 122.141 32.615 122.207 32.6658 122.34L34.7166 127.092L36.7673 122.275C36.8064 122.186 36.9158 122.141 37.0955 122.141C37.3337 122.141 37.4529 122.197 37.4529 122.311C37.4529 122.326 37.4451 122.354 37.4295 122.393L35.0681 127.941ZM40.8862 128.141C40.0073 128.141 39.2788 127.873 38.7007 127.338C38.1265 126.799 37.8394 126.082 37.8394 125.188C37.8394 124.281 38.1304 123.547 38.7124 122.984C39.2984 122.422 40.0386 122.141 40.9331 122.141C41.773 122.141 42.4878 122.369 43.0777 122.826C43.6714 123.283 43.9683 123.955 43.9683 124.842C43.9683 125.053 43.8101 125.158 43.4937 125.158H38.7886C38.7886 125.783 38.9683 126.348 39.3277 126.852C39.6909 127.355 40.2124 127.607 40.8921 127.607C41.3882 127.607 41.8316 127.475 42.2222 127.209C42.6441 126.928 42.8726 126.605 42.9077 126.242C42.9273 126.074 43.0835 125.99 43.3765 125.99C43.6968 125.99 43.857 126.078 43.857 126.254C43.857 126.379 43.814 126.531 43.728 126.711C43.5718 127.039 43.314 127.32 42.9546 127.555C42.3687 127.945 41.6792 128.141 40.8862 128.141ZM43.0073 124.619C42.9097 123.322 42.2183 122.674 40.9331 122.674C39.7847 122.674 39.0874 123.322 38.8413 124.619H43.0073ZM49.9973 128.146C49.6809 128.146 49.5227 128.057 49.5227 127.877V124.771C49.5227 124.26 49.3841 123.785 49.1067 123.348C48.8333 122.906 48.4095 122.686 47.8352 122.686C46.6399 122.686 46.0423 123.438 46.0423 124.941V127.877C46.0423 128.057 45.8841 128.146 45.5677 128.146C45.2473 128.146 45.0872 128.057 45.0872 127.877V122.41C45.0872 122.23 45.2473 122.141 45.5677 122.141C45.8841 122.141 46.0423 122.23 46.0423 122.41V123.072C46.3899 122.447 47.0149 122.135 47.9173 122.135C48.5423 122.131 49.1243 122.352 49.6634 122.797C50.2063 123.238 50.4778 123.896 50.4778 124.771V127.877C50.4778 128.057 50.3177 128.146 49.9973 128.146ZM54.5498 128.141C53.3155 128.133 52.6983 127.607 52.6983 126.564V122.674H51.9248C51.6084 122.674 51.4502 122.586 51.4502 122.41C51.4502 122.23 51.6084 122.141 51.9248 122.141H52.6983V120.178C52.6983 119.998 52.8584 119.908 53.1787 119.908C53.4952 119.908 53.6534 119.998 53.6534 120.178V122.141H54.7549C55.0752 122.141 55.2354 122.23 55.2354 122.41C55.2354 122.586 55.0752 122.674 54.7549 122.674H53.6534V126.564C53.6534 127.256 53.9522 127.604 54.5498 127.607C54.6631 127.607 54.7705 127.598 54.8721 127.578C54.9737 127.555 55.0752 127.543 55.1768 127.543C55.501 127.543 55.6631 127.633 55.6631 127.812C55.6631 127.941 55.5264 128.029 55.253 128.076C55.0186 128.119 54.7842 128.141 54.5498 128.141ZM56.6414 120.172C56.6414 119.996 56.8016 119.908 57.1219 119.908C57.4383 119.908 57.5965 119.996 57.5965 120.172V127.467H61.6336C61.9539 127.467 62.1141 127.557 62.1141 127.736C62.1141 127.912 61.9539 128 61.6336 128H57.1219C56.8016 128 56.6414 127.912 56.6414 127.736V120.172ZM63.4732 120.424C63.8248 120.424 64.0005 120.6 64.0005 120.951C64.0005 121.303 63.8248 121.479 63.4732 121.479C63.1216 121.479 62.9459 121.303 62.9459 120.951C62.9459 120.6 63.1216 120.424 63.4732 120.424ZM62.9927 122.404C62.9927 122.229 63.1529 122.141 63.4732 122.141C63.7935 122.141 63.9537 122.229 63.9537 122.404V127.871C63.9537 128.051 63.7935 128.141 63.4732 128.141C63.1529 128.141 62.9927 128.051 62.9927 127.871V122.404ZM65.2073 128.141C65.1566 128.141 65.0921 128.131 65.014 128.111C64.8968 128.08 64.8382 128.031 64.8382 127.965C64.8382 127.938 64.8519 127.904 64.8792 127.865L67.1351 125.24L64.8675 122.504C64.8402 122.473 64.8265 122.439 64.8265 122.404C64.8265 122.314 64.9007 122.244 65.0491 122.193C65.1546 122.158 65.2542 122.141 65.348 122.141C65.5863 122.141 65.7523 122.195 65.846 122.305L67.7093 124.555L69.6898 122.258C69.7562 122.18 69.8636 122.141 70.012 122.141C70.0902 122.141 70.1702 122.154 70.2523 122.182C70.3577 122.221 70.4105 122.271 70.4105 122.334C70.4105 122.361 70.4007 122.385 70.3812 122.404L68.1136 125.041L70.3812 127.777C70.4085 127.809 70.4222 127.842 70.4222 127.877C70.4222 127.963 70.3538 128.031 70.2171 128.082C70.1038 128.121 69.9945 128.141 69.889 128.141C69.6585 128.141 69.4964 128.086 69.4027 127.977L67.5394 125.727L65.5589 128.023C65.4925 128.102 65.3753 128.141 65.2073 128.141ZM74.0606 128.141C72.8262 128.133 72.2091 127.607 72.2091 126.564V122.674H71.4356C71.1192 122.674 70.961 122.586 70.961 122.41C70.961 122.23 71.1192 122.141 71.4356 122.141H72.2091V120.178C72.2091 119.998 72.3692 119.908 72.6895 119.908C73.0059 119.908 73.1641 119.998 73.1641 120.178V122.141H74.2657C74.586 122.141 74.7462 122.23 74.7462 122.41C74.7462 122.586 74.586 122.674 74.2657 122.674H73.1641V126.564C73.1641 127.256 73.463 127.604 74.0606 127.607C74.1739 127.607 74.2813 127.598 74.3829 127.578C74.4845 127.555 74.586 127.543 74.6876 127.543C75.0118 127.543 75.1739 127.633 75.1739 127.812C75.1739 127.941 75.0372 128.029 74.7637 128.076C74.5294 128.119 74.295 128.141 74.0606 128.141ZM76.7791 126.74C77.201 126.74 77.412 126.949 77.412 127.367C77.412 127.789 77.201 128 76.7791 128C76.3612 128 76.1522 127.789 76.1522 127.367C76.1522 126.949 76.3612 126.74 76.7791 126.74ZM83.8277 125.996C84.1441 125.996 84.3023 126.08 84.3023 126.248C84.3023 126.475 84.1988 126.736 83.9918 127.033C83.4684 127.771 82.648 128.141 81.5309 128.141C79.5348 128.141 78.5367 127.152 78.5367 125.176C78.5289 123.152 79.5484 122.141 81.5953 122.141C82.6695 122.141 83.4566 122.486 83.9566 123.178C84.1793 123.475 84.2906 123.754 84.2906 124.016C84.2906 124.195 84.1324 124.285 83.816 124.285C83.5191 124.285 83.3609 124.203 83.3414 124.039C83.2164 123.129 82.6383 122.674 81.607 122.674C80.9 122.674 80.3707 122.93 80.0191 123.441C79.6676 123.953 79.4918 124.531 79.4918 125.176C79.4918 125.812 79.6656 126.377 80.0133 126.869C80.3609 127.361 80.8805 127.607 81.5719 127.607C82.5953 127.607 83.1891 127.15 83.3531 126.236C83.3805 126.076 83.5387 125.996 83.8277 125.996ZM88.2045 122.141C89.1068 122.141 89.8451 122.418 90.4193 122.973C90.9935 123.527 91.2806 124.25 91.2806 125.141C91.2806 126.031 90.9935 126.754 90.4193 127.309C89.8451 127.863 89.1068 128.141 88.2045 128.141C87.3021 128.141 86.5638 127.863 85.9896 127.309C85.4154 126.754 85.1283 126.031 85.1283 125.141C85.1283 124.25 85.4154 123.527 85.9896 122.973C86.5638 122.418 87.3021 122.141 88.2045 122.141ZM88.2045 122.674C87.5209 122.674 86.9955 122.93 86.6283 123.441C86.265 123.953 86.0834 124.52 86.0834 125.141C86.0834 125.762 86.265 126.328 86.6283 126.84C86.9955 127.352 87.5209 127.607 88.2045 127.607C88.888 127.607 89.4115 127.352 89.7748 126.84C90.142 126.328 90.3255 125.762 90.3255 125.141C90.3255 124.52 90.142 123.953 89.7748 123.441C89.4115 122.93 88.888 122.674 88.2045 122.674ZM100.855 128.141C100.538 128.141 100.38 128.053 100.38 127.877V124.754C100.38 124.258 100.269 123.791 100.046 123.354C99.8234 122.912 99.4269 122.691 98.8566 122.691C98.2902 122.691 97.8976 122.914 97.6788 123.359C97.4601 123.801 97.3507 124.266 97.3507 124.754V127.877C97.3507 128.053 97.1905 128.141 96.8702 128.141C96.5538 128.141 96.3956 128.053 96.3956 127.877V124.754C96.3956 124.258 96.2882 123.791 96.0734 123.354C95.8585 122.912 95.464 122.691 94.8898 122.691C94.3234 122.691 93.9249 122.939 93.6945 123.436C93.4679 123.928 93.3546 124.43 93.3546 124.941V127.871C93.3546 128.051 93.1964 128.141 92.88 128.141C92.5597 128.141 92.3995 128.051 92.3995 127.871V122.404C92.3995 122.229 92.5597 122.141 92.88 122.141C93.1964 122.141 93.3546 122.229 93.3546 122.404V123.049C93.6866 122.443 94.2609 122.141 95.0773 122.141C95.882 122.141 96.503 122.467 96.9405 123.119C97.3312 122.467 97.9718 122.141 98.8624 122.141C100.511 122.141 101.335 123.012 101.335 124.754V127.877C101.335 128.053 101.175 128.141 100.855 128.141Z" fill="#FCFCFC"/>
<path d="M24 131.809H101.921V132.395H24V131.809Z" fill="#FCFCFC"/>
<a href="https://www.eventlixt.com/">
<rect fill="black" fill-opacity="0" y="0.175781" width="77.921" height="14.6484"/>
</a>
</svg>
