<svg width="340" height="260" viewBox="0 0 357 291" fill="none" xmlns="http://www.w3.org/2000/svg">
<rect width="357" height="291" rx="16" fill="#343434"/>
<path d="M36.5098 38.2344C35.9173 38.2344 35.5592 38.0944 35.4355 37.8145L33.6484 33.7617H27.5645L25.7676 37.9316C25.6829 38.1335 25.4388 38.2344 25.0352 38.2344C24.5078 38.2344 24.2441 38.1042 24.2441 37.8438C24.2441 37.8242 24.2507 37.7949 24.2637 37.7559L29.8105 24.9141C29.9212 24.6471 30.2923 24.5137 30.9238 24.5137C31.4772 24.5137 31.8158 24.6504 31.9395 24.9238L37.5254 37.5801C37.5449 37.6257 37.5547 37.668 37.5547 37.707C37.5547 38.0586 37.2064 38.2344 36.5098 38.2344ZM33.1602 32.668L30.5723 26.7988L28.043 32.668H33.1602ZM40.1812 38.2344C39.5172 38.2344 39.1852 38.0521 39.1852 37.6875V25.0605C39.1852 24.696 39.5172 24.5137 40.1812 24.5137C40.8388 24.5137 41.1676 24.696 41.1676 25.0605V29.3574C41.9228 28.6022 42.9286 28.2246 44.1852 28.2246C47.5185 28.2246 49.1852 29.8913 49.1852 33.2246C49.1852 36.5579 47.5185 38.2246 44.1852 38.2246C42.9221 38.2246 41.9163 37.847 41.1676 37.0918V37.6875C41.1676 38.0521 40.8388 38.2344 40.1812 38.2344ZM44.1852 37.1309C45.2138 37.1309 45.9723 36.6979 46.4605 35.832C46.9553 34.9661 47.2027 34.097 47.2027 33.2246C47.2027 32.3522 46.9553 31.4831 46.4605 30.6172C45.9723 29.7513 45.2138 29.3184 44.1852 29.3184C43.163 29.3184 42.4046 29.7513 41.9098 30.6172C41.415 31.4831 41.1676 32.3522 41.1676 33.2246C41.1676 34.097 41.415 34.9661 41.9098 35.832C42.4046 36.6979 43.163 37.1309 44.1852 37.1309ZM55.884 38.2344C54.3605 38.2344 53.091 37.7819 52.0754 36.877C51.0663 35.972 50.5617 34.7578 50.5617 33.2344C50.5617 31.7109 51.0663 30.4967 52.0754 29.5918C53.091 28.6868 54.3605 28.2344 55.884 28.2344C57.4074 28.2344 58.6737 28.6868 59.6828 29.5918C60.6984 30.4967 61.2062 31.7109 61.2062 33.2344C61.2062 34.7578 60.6984 35.972 59.6828 36.877C58.6737 37.7819 57.4074 38.2344 55.884 38.2344ZM55.884 37.1504C56.9712 37.1504 57.798 36.7402 58.3645 35.9199C58.9374 35.0931 59.2238 34.1979 59.2238 33.2344C59.2238 32.2643 58.9374 31.3691 58.3645 30.5488C57.798 29.7285 56.9712 29.3184 55.884 29.3184C54.8033 29.3184 53.9764 29.7285 53.4035 30.5488C52.8306 31.3691 52.5441 32.2643 52.5441 33.2344C52.5441 34.1979 52.8306 35.0931 53.4035 35.9199C53.9764 36.7402 54.8033 37.1504 55.884 37.1504ZM64.0672 28.2344C64.7247 28.2344 65.0535 28.4167 65.0535 28.7812V33.8398C65.0535 34.6016 65.2618 35.3405 65.6785 36.0566C66.0952 36.7728 66.7527 37.1309 67.6512 37.1309C68.6147 37.1309 69.3243 36.7435 69.7801 35.9688C70.2358 35.1875 70.4637 34.39 70.4637 33.5762V28.7812C70.4637 28.4167 70.7924 28.2344 71.45 28.2344C72.1141 28.2344 72.4461 28.4167 72.4461 28.7812V37.6777C72.4461 38.0423 72.1141 38.2246 71.45 38.2246C70.7924 38.2246 70.4637 38.0423 70.4637 37.6777V37.0918C69.7475 37.8535 68.771 38.2344 67.534 38.2344C66.2319 38.2344 65.1609 37.821 64.3211 36.9941C63.4878 36.1608 63.0711 35.1126 63.0711 33.8496V28.7812C63.0711 28.4167 63.4031 28.2344 64.0672 28.2344ZM79.4281 38.2344C77.2341 38.2214 76.1371 37.3229 76.1371 35.5391V29.3281H75.0434C74.3858 29.3281 74.057 29.1458 74.057 28.7812C74.057 28.4167 74.3858 28.2344 75.0434 28.2344H76.1371V25.0605C76.1371 24.696 76.4691 24.5137 77.1332 24.5137C77.7973 24.5137 78.1293 24.696 78.1293 25.0605V28.2344H79.7699C80.434 28.2344 80.766 28.4167 80.766 28.7812C80.766 29.1458 80.434 29.3281 79.7699 29.3281H78.1293V35.5391C78.1293 36.6068 78.5655 37.1406 79.4379 37.1406C79.6202 37.1406 79.7927 37.1243 79.9555 37.0918C80.1247 37.0527 80.294 37.0332 80.4633 37.0332C81.1469 37.0332 81.4887 37.222 81.4887 37.5996C81.4887 37.8535 81.2152 38.0293 80.6684 38.127C80.2387 38.1986 79.8253 38.2344 79.4281 38.2344ZM100.433 33.9668C100.433 34.0254 100.414 34.1328 100.375 34.2891C100.017 35.5977 99.2548 36.584 98.0895 37.248C96.9306 37.9056 95.7099 38.2344 94.4273 38.2344C92.3701 38.2344 90.7652 37.6029 89.6129 36.3398C88.4671 35.0703 87.8941 33.4297 87.8941 31.418C87.8941 29.3737 88.4833 27.7135 89.6617 26.4375C90.8466 25.1549 92.4807 24.5137 94.5641 24.5137C95.8401 24.5137 97.0641 24.8555 98.2359 25.5391C99.4143 26.2161 100.124 27.2155 100.365 28.5371C100.391 28.6413 100.404 28.7227 100.404 28.7812C100.404 29.1458 100.085 29.3281 99.4469 29.3281C98.8154 29.3281 98.4768 29.1589 98.4313 28.8203C98.1448 26.6784 96.8557 25.6074 94.5641 25.6074C92.9755 25.6074 91.7939 26.2194 91.0191 27.4434C90.2509 28.6608 89.8668 29.9792 89.8668 31.3984C89.8668 32.7917 90.2346 34.1003 90.9703 35.3242C91.706 36.5417 92.8648 37.1504 94.4469 37.1504C96.7451 37.1504 98.0797 36.0729 98.4508 33.918C98.5029 33.5924 98.8349 33.4297 99.4469 33.4297C100.104 33.4297 100.433 33.6087 100.433 33.9668ZM107.122 38.2344C105.599 38.2344 104.329 37.7819 103.314 36.877C102.305 35.972 101.8 34.7578 101.8 33.2344C101.8 31.7109 102.305 30.4967 103.314 29.5918C104.329 28.6868 105.599 28.2344 107.122 28.2344C108.646 28.2344 109.912 28.6868 110.921 29.5918C111.937 30.4967 112.445 31.7109 112.445 33.2344C112.445 34.7578 111.937 35.972 110.921 36.877C109.912 37.7819 108.646 38.2344 107.122 38.2344ZM107.122 37.1504C108.21 37.1504 109.036 36.7402 109.603 35.9199C110.176 35.0931 110.462 34.1979 110.462 33.2344C110.462 32.2643 110.176 31.3691 109.603 30.5488C109.036 29.7285 108.21 29.3184 107.122 29.3184C106.042 29.3184 105.215 29.7285 104.642 30.5488C104.069 31.3691 103.782 32.2643 103.782 33.2344C103.782 34.1979 104.069 35.0931 104.642 35.9199C105.215 36.7402 106.042 37.1504 107.122 37.1504ZM128.596 38.2344C127.939 38.2344 127.61 38.0521 127.61 37.6875V32.6094C127.61 31.8737 127.444 31.1478 127.112 30.4316C126.78 29.709 126.165 29.3477 125.266 29.3477C124.374 29.3477 123.766 29.7122 123.44 30.4414C123.115 31.1641 122.952 31.8835 122.952 32.5996V37.6875C122.952 38.0521 122.62 38.2344 121.956 38.2344C121.298 38.2344 120.97 38.0521 120.97 37.6875V32.6094C120.97 31.8737 120.804 31.1478 120.471 30.4316C120.139 29.709 119.521 29.3477 118.616 29.3477C117.841 29.3477 117.249 29.6829 116.839 30.3535C116.474 30.9525 116.292 31.7012 116.292 32.5996V37.6875C116.292 38.0521 115.963 38.2344 115.305 38.2344C114.641 38.2344 114.309 38.0521 114.309 37.6875V28.7812C114.309 28.4167 114.641 28.2344 115.305 28.2344C115.963 28.2344 116.292 28.4167 116.292 28.7812V29.377C116.93 28.6152 117.779 28.2344 118.841 28.2344C120.11 28.2344 121.149 28.7129 121.956 29.6699C122.75 28.7129 123.857 28.2344 125.276 28.2344C128.154 28.2344 129.593 29.6927 129.593 32.6094V37.6875C129.593 38.0521 129.261 38.2344 128.596 38.2344ZM132.952 41.9453C132.287 41.9453 131.955 41.763 131.955 41.3984V28.7715C131.955 28.4069 132.287 28.2246 132.952 28.2246C133.609 28.2246 133.938 28.4069 133.938 28.7715V29.3672C134.687 28.612 135.692 28.2344 136.955 28.2344C140.289 28.2344 141.955 29.901 141.955 33.2344C141.955 36.5677 140.289 38.2344 136.955 38.2344C135.699 38.2344 134.693 37.8568 133.938 37.1016V41.3984C133.938 41.763 133.609 41.9453 132.952 41.9453ZM136.955 37.1406C137.984 37.1406 138.743 36.7077 139.231 35.8418C139.726 34.9759 139.973 34.1068 139.973 33.2344C139.973 32.362 139.726 31.4928 139.231 30.627C138.743 29.7611 137.984 29.3281 136.955 29.3281C135.933 29.3281 135.175 29.7611 134.68 30.627C134.185 31.4928 133.938 32.362 133.938 33.2344C133.938 34.1068 134.185 34.9759 134.68 35.8418C135.175 36.7077 135.933 37.1406 136.955 37.1406ZM152.795 38.2344C152.502 38.2344 152.264 38.179 152.082 38.0684C151.626 37.8014 151.34 37.4531 151.223 37.0234C150.806 37.5117 150.246 37.8372 149.543 38C148.846 38.1562 148.218 38.2344 147.658 38.2344C146.766 38.2344 145.861 38.0228 144.943 37.5996C144.032 37.1699 143.576 36.4342 143.576 35.3926C143.576 34.2077 144.025 33.4557 144.924 33.1367C145.822 32.8177 146.753 32.6582 147.717 32.6582C147.925 32.6582 148.179 32.6647 148.479 32.6777C148.785 32.6908 149.071 32.6973 149.338 32.6973C150.074 32.6973 150.598 32.6126 150.91 32.4434V31.5156C150.91 30.0508 150.061 29.3184 148.361 29.3184C147.736 29.3184 147.18 29.4746 146.691 29.7871C146.125 30.1517 145.842 30.5879 145.842 31.0957C145.842 31.4538 145.51 31.6328 144.846 31.6328C144.195 31.6328 143.869 31.4538 143.869 31.0957C143.869 30.334 144.305 29.6634 145.178 29.084C146.044 28.5176 147.105 28.2344 148.361 28.2344C149.37 28.2344 150.376 28.4818 151.379 28.9766C152.382 29.4648 152.883 30.3112 152.883 31.5156V35.7246C152.883 36.5449 153.094 37.0755 153.518 37.3164C153.7 37.4206 153.791 37.5443 153.791 37.6875C153.791 37.8503 153.69 37.9837 153.488 38.0879C153.312 38.1855 153.081 38.2344 152.795 38.2344ZM147.658 37.1504C148.394 37.1504 149.12 36.9323 149.836 36.4961C150.552 36.0534 150.91 35.4284 150.91 34.6211V33.6836C150.539 33.7487 150.083 33.7812 149.543 33.7812C149.243 33.7812 148.941 33.7747 148.635 33.7617C148.329 33.7422 148.023 33.7324 147.717 33.7324C146.278 33.7324 145.559 34.2858 145.559 35.3926C145.559 36.5645 146.258 37.1504 147.658 37.1504ZM163.791 38.2344C163.133 38.2344 162.804 38.0521 162.804 37.6875V32.6289C162.804 31.8672 162.596 31.1283 162.179 30.4121C161.763 29.696 161.105 29.3379 160.207 29.3379C159.243 29.3379 158.533 29.7285 158.078 30.5098C157.622 31.2845 157.394 32.0788 157.394 32.8926V37.6875C157.394 38.0521 157.065 38.2344 156.408 38.2344C155.744 38.2344 155.412 38.0521 155.412 37.6875V28.791C155.412 28.4264 155.744 28.2441 156.408 28.2441C157.065 28.2441 157.394 28.4264 157.394 28.791V29.377C158.11 28.6152 159.087 28.2344 160.324 28.2344C161.626 28.2344 162.694 28.651 163.527 29.4844C164.367 30.3112 164.787 31.3561 164.787 32.6191V37.6875C164.787 38.0521 164.455 38.2344 163.791 38.2344ZM176.515 37.6777C176.515 39.1491 176.036 40.2201 175.079 40.8906C174.129 41.5677 172.976 41.9062 171.622 41.9062C170.841 41.9062 170.024 41.7728 169.171 41.5059C168.325 41.2389 167.67 40.7734 167.208 40.1094C167.163 40.0443 167.14 39.9792 167.14 39.9141C167.14 39.556 167.469 39.377 168.126 39.377C168.588 39.377 168.898 39.4909 169.054 39.7188C169.555 40.4479 170.405 40.8125 171.603 40.8125C173.556 40.8125 174.532 39.7318 174.532 37.5703V37.043C173.894 37.8047 172.993 38.1855 171.827 38.1855C168.702 38.1855 167.14 36.7207 167.14 33.791V28.7324C167.14 28.3678 167.472 28.1855 168.136 28.1855C168.793 28.1855 169.122 28.3678 169.122 28.7324V33.791C169.122 34.5788 169.347 35.3275 169.796 36.0371C170.245 36.7467 170.922 37.1016 171.827 37.1016C172.7 37.1016 173.367 36.7467 173.829 36.0371C174.298 35.3275 174.532 34.5885 174.532 33.8203V28.7324C174.532 28.3678 174.861 28.1855 175.519 28.1855C176.183 28.1855 176.515 28.3678 176.515 28.7324V37.6777Z" fill="#D3D3D3"/>
<path d="M26.864 78.784V82.704H33.616V84H25.408V72.544H33.344V73.84H26.864V77.488H33.104V78.784H26.864ZM38.9644 84H37.5404L34.6444 75.776H36.1324L38.3084 82.432L40.6444 75.776H42.1164L38.9644 84ZM50.3918 80.272H44.3278C44.3384 80.976 44.4878 81.536 44.7758 81.952C45.2344 82.624 45.8958 82.96 46.7598 82.96C47.8264 82.96 48.5464 82.4533 48.9198 81.44H50.2318C50.0611 82.304 49.6664 82.976 49.0478 83.456C48.4291 83.936 47.6504 84.176 46.7118 84.176C45.4638 84.176 44.5091 83.7493 43.8478 82.896C43.2611 82.1493 42.9678 81.1627 42.9678 79.936C42.9678 78.5173 43.3518 77.4133 44.1198 76.624C44.7918 75.9413 45.6611 75.6 46.7278 75.6C47.5064 75.6 48.1891 75.7867 48.7758 76.16C49.3731 76.5333 49.7998 77.0453 50.0558 77.696C50.2798 78.2507 50.3918 79.0933 50.3918 80.224V80.272ZM48.9838 79.2C48.9838 78.4853 48.7704 77.9093 48.3438 77.472C47.9278 77.024 47.3891 76.8 46.7278 76.8C46.0558 76.8 45.5064 77.0187 45.0798 77.456C44.6638 77.8827 44.4291 78.464 44.3758 79.2H48.9838ZM52.1821 75.776H53.3981V77.168C54.0595 76.1227 54.9661 75.6 56.1181 75.6C56.9181 75.6 57.5528 75.8027 58.0221 76.208C58.4915 76.6027 58.7261 77.136 58.7261 77.808V84H57.4301V78.336C57.4301 77.8453 57.2755 77.456 56.9661 77.168C56.6675 76.88 56.2568 76.736 55.7341 76.736C55.0515 76.736 54.5075 76.9867 54.1021 77.488C53.6968 77.9893 53.4941 78.656 53.4941 79.488V84H52.1821V75.776ZM64.1325 75.776V76.832H62.4525V82.304C62.4525 82.496 62.5165 82.6613 62.6445 82.8C62.7832 82.928 62.9592 82.992 63.1725 82.992C63.3752 82.992 63.6845 82.944 64.1005 82.848L64.2445 84C63.5832 84.1173 63.0818 84.176 62.7405 84.176C61.6845 84.176 61.1565 83.744 61.1565 82.88V76.832H60.0365V75.776H61.1565V74.096L62.4525 73.504V75.776H64.1325ZM67.2825 72.544V82.704H72.9305V84H65.8265V72.544H67.2825ZM75.6329 75.776V84H74.3369V75.776H75.6329ZM75.0089 72.56C75.2329 72.56 75.4195 72.64 75.5689 72.8C75.7289 72.9493 75.8089 73.1307 75.8089 73.344C75.8089 73.568 75.7289 73.76 75.5689 73.92C75.4195 74.0693 75.2329 74.144 75.0089 74.144C74.7955 74.144 74.6089 74.0693 74.4489 73.92C74.2995 73.76 74.2249 73.568 74.2249 73.344C74.2249 73.1307 74.2995 72.9493 74.4489 72.8C74.6089 72.64 74.7955 72.56 75.0089 72.56ZM81.3733 79.744L84.2213 84H82.7013L80.6373 80.832L78.5413 84H77.0533L79.9653 79.808L77.1973 75.776H78.7013L80.6853 78.752L82.6693 75.776H84.1413L81.3733 79.744ZM88.9606 75.776V76.832H87.2806V82.304C87.2806 82.496 87.3446 82.6613 87.4726 82.8C87.6113 82.928 87.7873 82.992 88.0006 82.992C88.2033 82.992 88.5126 82.944 88.9286 82.848L89.0726 84C88.4113 84.1173 87.91 84.176 87.5686 84.176C86.5126 84.176 85.9846 83.744 85.9846 82.88V76.832H84.8646V75.776H85.9846V74.096L87.2806 73.504V75.776H88.9606ZM93.1761 87.424V75.776H94.3921V77.04C95.0001 76.08 95.8748 75.6 97.0161 75.6C98.1788 75.6 99.0748 76.048 99.7041 76.944C100.259 77.7227 100.536 78.7467 100.536 80.016C100.536 81.3707 100.173 82.4267 99.4481 83.184C98.8188 83.8453 98.0028 84.176 97.0001 84.176C95.9868 84.176 95.1495 83.808 94.4881 83.072V87.424H93.1761ZM96.7921 76.816C96.0988 76.816 95.5388 77.0987 95.1121 77.664C94.6961 78.2293 94.4881 78.9867 94.4881 79.936C94.4881 80.9173 94.7281 81.6853 95.2081 82.24C95.6135 82.7093 96.1415 82.944 96.7921 82.944C97.5175 82.944 98.0935 82.672 98.5201 82.128C98.9575 81.5733 99.1761 80.8427 99.1761 79.936C99.1761 78.9333 98.9308 78.144 98.4401 77.568C98.0028 77.0667 97.4535 76.816 96.7921 76.816ZM102.151 75.776H103.367V77.28C103.847 76.1493 104.604 75.584 105.639 75.584C105.767 75.584 105.921 75.6 106.103 75.632V76.976C105.249 76.9867 104.663 77.1093 104.343 77.344C103.756 77.7707 103.463 78.5653 103.463 79.728V84H102.151V75.776ZM110.617 75.6C111.854 75.6 112.798 76.032 113.449 76.896C114.025 77.6427 114.313 78.656 114.313 79.936C114.313 81.3653 113.94 82.4533 113.193 83.2C112.553 83.8507 111.689 84.176 110.601 84.176C109.342 84.176 108.382 83.7547 107.721 82.912C107.145 82.176 106.857 81.184 106.857 79.936C106.857 78.4853 107.236 77.3707 107.993 76.592C108.644 75.9307 109.518 75.6 110.617 75.6ZM110.617 76.8C109.87 76.8 109.284 77.0827 108.857 77.648C108.43 78.2027 108.217 78.9653 108.217 79.936C108.217 80.9493 108.457 81.7227 108.937 82.256C109.353 82.7253 109.908 82.96 110.601 82.96C111.337 82.96 111.908 82.6933 112.313 82.16C112.729 81.6267 112.937 80.8853 112.937 79.936C112.937 78.8907 112.702 78.0907 112.233 77.536C111.828 77.0453 111.289 76.8 110.617 76.8ZM119.511 84H118.087L115.191 75.776H116.679L118.855 82.432L121.191 75.776H122.663L119.511 84ZM125.227 75.776V84H123.931V75.776H125.227ZM124.603 72.56C124.827 72.56 125.013 72.64 125.163 72.8C125.323 72.9493 125.403 73.1307 125.403 73.344C125.403 73.568 125.323 73.76 125.163 73.92C125.013 74.0693 124.827 74.144 124.603 74.144C124.389 74.144 124.203 74.0693 124.043 73.92C123.893 73.76 123.819 73.568 123.819 73.344C123.819 73.1307 123.893 72.9493 124.043 72.8C124.203 72.64 124.389 72.56 124.603 72.56ZM134.167 72.544V84H132.855V82.864C132.332 83.7493 131.522 84.192 130.423 84.192C129.218 84.192 128.29 83.7547 127.639 82.88C127.074 82.112 126.791 81.0987 126.791 79.84C126.791 78.464 127.159 77.3867 127.895 76.608C128.524 75.936 129.34 75.6 130.343 75.6C131.452 75.6 132.29 76.016 132.855 76.848V72.544H134.167ZM130.567 76.816C129.842 76.816 129.255 77.104 128.807 77.68C128.37 78.2453 128.151 78.9973 128.151 79.936C128.151 80.9067 128.407 81.6693 128.919 82.224C129.356 82.7147 129.911 82.96 130.583 82.96C131.276 82.96 131.826 82.688 132.231 82.144C132.647 81.6 132.855 80.864 132.855 79.936C132.855 78.9227 132.62 78.1333 132.151 77.568C131.735 77.0667 131.207 76.816 130.567 76.816ZM143.157 80.272H137.093C137.104 80.976 137.253 81.536 137.541 81.952C138 82.624 138.661 82.96 139.525 82.96C140.592 82.96 141.312 82.4533 141.685 81.44H142.997C142.827 82.304 142.432 82.976 141.813 83.456C141.195 83.936 140.416 84.176 139.477 84.176C138.229 84.176 137.275 83.7493 136.613 82.896C136.027 82.1493 135.733 81.1627 135.733 79.936C135.733 78.5173 136.117 77.4133 136.885 76.624C137.557 75.9413 138.427 75.6 139.493 75.6C140.272 75.6 140.955 75.7867 141.541 76.16C142.139 76.5333 142.565 77.0453 142.821 77.696C143.045 78.2507 143.157 79.0933 143.157 80.224V80.272ZM141.749 79.2C141.749 78.4853 141.536 77.9093 141.109 77.472C140.693 77.024 140.155 76.8 139.493 76.8C138.821 76.8 138.272 77.0187 137.845 77.456C137.429 77.8827 137.195 78.464 137.141 79.2H141.749ZM150.788 78.032H149.348C149.305 77.2107 148.756 76.8 147.7 76.8C147.156 76.8 146.724 76.9067 146.404 77.12C146.094 77.3227 145.94 77.6 145.94 77.952C145.94 78.4853 146.446 78.8693 147.46 79.104L148.724 79.392C149.545 79.584 150.137 79.856 150.5 80.208C150.862 80.56 151.044 81.04 151.044 81.648C151.044 82.4267 150.74 83.0453 150.132 83.504C149.524 83.952 148.702 84.176 147.668 84.176C146.537 84.176 145.678 83.9093 145.092 83.376C144.601 82.9387 144.34 82.3573 144.308 81.632H145.796C145.881 82.0053 145.998 82.2773 146.148 82.448C146.436 82.7893 146.974 82.96 147.764 82.96C148.35 82.96 148.814 82.8533 149.156 82.64C149.508 82.416 149.684 82.1227 149.684 81.76C149.684 81.216 149.262 80.8427 148.42 80.64L147.188 80.352C146.249 80.128 145.593 79.8613 145.22 79.552C144.793 79.2 144.58 78.6933 144.58 78.032C144.58 77.2853 144.862 76.6933 145.428 76.256C146.004 75.8187 146.772 75.6 147.732 75.6C148.734 75.6 149.513 75.8507 150.068 76.352C150.548 76.7893 150.788 77.3493 150.788 78.032ZM163.041 82.896V83.952C162.678 84.08 162.395 84.144 162.193 84.144C161.339 84.144 160.875 83.7547 160.801 82.976C160.214 83.776 159.281 84.176 158.001 84.176C157.115 84.176 156.427 83.9307 155.937 83.44C155.51 83.0133 155.297 82.464 155.297 81.792C155.297 81.024 155.569 80.432 156.113 80.016C156.422 79.7813 157.067 79.552 158.049 79.328L160.737 78.72L160.753 78.032C160.753 77.2107 160.134 76.8 158.897 76.8C157.713 76.8 157.078 77.28 156.993 78.24H155.665C155.697 77.5147 155.878 76.96 156.209 76.576C156.774 75.9253 157.691 75.6 158.961 75.6C161.019 75.6 162.049 76.3467 162.049 77.84V82.432C162.049 82.8373 162.225 83.04 162.577 83.04C162.619 83.04 162.731 83.008 162.913 82.944C162.977 82.9227 163.019 82.9067 163.041 82.896ZM160.753 79.792L158.641 80.336C157.883 80.528 157.361 80.7253 157.073 80.928C156.795 81.1307 156.657 81.4133 156.657 81.776C156.657 82.6187 157.201 83.04 158.289 83.04C159.057 83.04 159.707 82.7893 160.241 82.288C160.582 81.9787 160.753 81.6267 160.753 81.232V79.792ZM167.161 87.424V75.776H168.377V77.04C168.985 76.08 169.859 75.6 171.001 75.6C172.163 75.6 173.059 76.048 173.689 76.944C174.243 77.7227 174.521 78.7467 174.521 80.016C174.521 81.3707 174.158 82.4267 173.433 83.184C172.803 83.8453 171.987 84.176 170.985 84.176C169.971 84.176 169.134 83.808 168.473 83.072V87.424H167.161ZM170.777 76.816C170.083 76.816 169.523 77.0987 169.097 77.664C168.681 78.2293 168.473 78.9867 168.473 79.936C168.473 80.9173 168.713 81.6853 169.193 82.24C169.598 82.7093 170.126 82.944 170.777 82.944C171.502 82.944 172.078 82.672 172.505 82.128C172.942 81.5733 173.161 80.8427 173.161 79.936C173.161 78.9333 172.915 78.144 172.425 77.568C171.987 77.0667 171.438 76.816 170.777 76.816ZM177.431 72.544V84H176.119V72.544H177.431ZM186.931 82.896V83.952C186.569 84.08 186.286 84.144 186.083 84.144C185.23 84.144 184.766 83.7547 184.691 82.976C184.105 83.776 183.171 84.176 181.891 84.176C181.006 84.176 180.318 83.9307 179.827 83.44C179.401 83.0133 179.187 82.464 179.187 81.792C179.187 81.024 179.459 80.432 180.003 80.016C180.313 79.7813 180.958 79.552 181.939 79.328L184.627 78.72L184.643 78.032C184.643 77.2107 184.025 76.8 182.787 76.8C181.603 76.8 180.969 77.28 180.883 78.24H179.555C179.587 77.5147 179.769 76.96 180.099 76.576C180.665 75.9253 181.582 75.6 182.851 75.6C184.91 75.6 185.939 76.3467 185.939 77.84V82.432C185.939 82.8373 186.115 83.04 186.467 83.04C186.51 83.04 186.622 83.008 186.803 82.944C186.867 82.9227 186.91 82.9067 186.931 82.896ZM184.643 79.792L182.531 80.336C181.774 80.528 181.251 80.7253 180.963 80.928C180.686 81.1307 180.547 81.4133 180.547 81.776C180.547 82.6187 181.091 83.04 182.179 83.04C182.947 83.04 183.598 82.7893 184.131 82.288C184.473 81.9787 184.643 81.6267 184.643 81.232V79.792ZM191.586 75.776V76.832H189.906V82.304C189.906 82.496 189.97 82.6613 190.098 82.8C190.236 82.928 190.412 82.992 190.626 82.992C190.828 82.992 191.138 82.944 191.554 82.848L191.698 84C191.036 84.1173 190.535 84.176 190.194 84.176C189.138 84.176 188.61 83.744 188.61 82.88V76.832H187.49V75.776H188.61V74.096L189.906 73.504V75.776H191.586ZM196.064 75.776V76.832H194.704V84H193.408V76.832H192.304V75.776H193.408V74.368C193.408 73.7813 193.573 73.3227 193.904 72.992C194.245 72.6613 194.72 72.496 195.328 72.496C195.562 72.496 195.808 72.5227 196.064 72.576V73.664H195.92C195.802 73.6533 195.701 73.648 195.616 73.648C195.008 73.648 194.704 73.9253 194.704 74.48V75.776H196.064ZM200.711 75.6C201.948 75.6 202.892 76.032 203.543 76.896C204.119 77.6427 204.407 78.656 204.407 79.936C204.407 81.3653 204.033 82.4533 203.287 83.2C202.647 83.8507 201.783 84.176 200.695 84.176C199.436 84.176 198.476 83.7547 197.815 82.912C197.239 82.176 196.951 81.184 196.951 79.936C196.951 78.4853 197.329 77.3707 198.087 76.592C198.737 75.9307 199.612 75.6 200.711 75.6ZM200.711 76.8C199.964 76.8 199.377 77.0827 198.951 77.648C198.524 78.2027 198.311 78.9653 198.311 79.936C198.311 80.9493 198.551 81.7227 199.031 82.256C199.447 82.7253 200.001 82.96 200.695 82.96C201.431 82.96 202.001 82.6933 202.407 82.16C202.823 81.6267 203.031 80.8853 203.031 79.936C203.031 78.8907 202.796 78.0907 202.327 77.536C201.921 77.0453 201.383 76.8 200.711 76.8ZM206.213 75.776H207.429V77.28C207.909 76.1493 208.666 75.584 209.701 75.584C209.829 75.584 209.984 75.6 210.165 75.632V76.976C209.312 76.9867 208.725 77.1093 208.405 77.344C207.818 77.7707 207.525 78.5653 207.525 79.728V84H206.213V75.776ZM211.463 75.776H212.679V76.96C213.319 76.0533 214.162 75.6 215.207 75.6C216.221 75.6 216.957 76.0053 217.415 76.816C217.81 76.3573 218.189 76.0427 218.551 75.872C218.925 75.6907 219.383 75.6 219.927 75.6C221.527 75.6 222.327 76.352 222.327 77.856V84H221.015V78.368C221.015 77.28 220.503 76.736 219.479 76.736C218.946 76.736 218.493 76.944 218.119 77.36C217.746 77.776 217.559 78.272 217.559 78.848V84H216.247V78.368C216.247 77.28 215.741 76.736 214.727 76.736C214.183 76.736 213.719 76.944 213.335 77.36C212.962 77.7653 212.775 78.2613 212.775 78.848V84H211.463V75.776ZM230.439 75.776V76.832H229.079V84H227.783V76.832H226.679V75.776H227.783V74.368C227.783 73.7813 227.948 73.3227 228.279 72.992C228.62 72.6613 229.095 72.496 229.703 72.496C229.937 72.496 230.183 72.5227 230.439 72.576V73.664H230.295C230.177 73.6533 230.076 73.648 229.991 73.648C229.383 73.648 229.079 73.9253 229.079 74.48V75.776H230.439ZM235.086 75.6C236.323 75.6 237.267 76.032 237.918 76.896C238.494 77.6427 238.782 78.656 238.782 79.936C238.782 81.3653 238.408 82.4533 237.662 83.2C237.022 83.8507 236.158 84.176 235.07 84.176C233.811 84.176 232.851 83.7547 232.19 82.912C231.614 82.176 231.326 81.184 231.326 79.936C231.326 78.4853 231.704 77.3707 232.462 76.592C233.112 75.9307 233.987 75.6 235.086 75.6ZM235.086 76.8C234.339 76.8 233.752 77.0827 233.326 77.648C232.899 78.2027 232.686 78.9653 232.686 79.936C232.686 80.9493 232.926 81.7227 233.406 82.256C233.822 82.7253 234.376 82.96 235.07 82.96C235.806 82.96 236.376 82.6933 236.782 82.16C237.198 81.6267 237.406 80.8853 237.406 79.936C237.406 78.8907 237.171 78.0907 236.702 77.536C236.296 77.0453 235.758 76.8 235.086 76.8ZM240.588 75.776H241.804V77.28C242.284 76.1493 243.041 75.584 244.076 75.584C244.204 75.584 244.359 75.6 244.54 75.632V76.976C243.687 76.9867 243.1 77.1093 242.78 77.344C242.193 77.7707 241.9 78.5653 241.9 79.728V84H240.588V75.776ZM255.24 84H253.944V82.704C253.357 83.6853 252.483 84.176 251.32 84.176C250.52 84.176 249.88 83.9787 249.4 83.584C248.931 83.1787 248.696 82.64 248.696 81.968V75.776H249.992V81.44C249.992 81.92 250.147 82.304 250.456 82.592C250.765 82.88 251.181 83.024 251.704 83.024C252.387 83.024 252.931 82.7787 253.336 82.288C253.741 81.7867 253.944 81.1147 253.944 80.272V75.776H255.24V84ZM263.35 78.032H261.91C261.868 77.2107 261.318 76.8 260.262 76.8C259.718 76.8 259.286 76.9067 258.966 77.12C258.657 77.3227 258.502 77.6 258.502 77.952C258.502 78.4853 259.009 78.8693 260.022 79.104L261.286 79.392C262.108 79.584 262.7 79.856 263.062 80.208C263.425 80.56 263.606 81.04 263.606 81.648C263.606 82.4267 263.302 83.0453 262.694 83.504C262.086 83.952 261.265 84.176 260.23 84.176C259.1 84.176 258.241 83.9093 257.654 83.376C257.164 82.9387 256.902 82.3573 256.87 81.632H258.358C258.444 82.0053 258.561 82.2773 258.71 82.448C258.998 82.7893 259.537 82.96 260.326 82.96C260.913 82.96 261.377 82.8533 261.718 82.64C262.07 82.416 262.246 82.1227 262.246 81.76C262.246 81.216 261.825 80.8427 260.982 80.64L259.75 80.352C258.812 80.128 258.156 79.8613 257.782 79.552C257.356 79.2 257.142 78.6933 257.142 78.032C257.142 77.2853 257.425 76.6933 257.99 76.256C258.566 75.8187 259.334 75.6 260.294 75.6C261.297 75.6 262.076 75.8507 262.63 76.352C263.11 76.7893 263.35 77.3493 263.35 78.032ZM272.314 80.272H266.25C266.26 80.976 266.41 81.536 266.698 81.952C267.156 82.624 267.818 82.96 268.682 82.96C269.748 82.96 270.468 82.4533 270.842 81.44H272.154C271.983 82.304 271.588 82.976 270.97 83.456C270.351 83.936 269.572 84.176 268.634 84.176C267.386 84.176 266.431 83.7493 265.77 82.896C265.183 82.1493 264.89 81.1627 264.89 79.936C264.89 78.5173 265.274 77.4133 266.042 76.624C266.714 75.9413 267.583 75.6 268.65 75.6C269.428 75.6 270.111 75.7867 270.698 76.16C271.295 76.5333 271.722 77.0453 271.978 77.696C272.202 78.2507 272.314 79.0933 272.314 80.224V80.272ZM270.906 79.2C270.906 78.4853 270.692 77.9093 270.266 77.472C269.85 77.024 269.311 76.8 268.65 76.8C267.978 76.8 267.428 77.0187 267.002 77.456C266.586 77.8827 266.351 78.464 266.298 79.2H270.906ZM274.088 75.776H275.304V77.28C275.784 76.1493 276.541 75.584 277.576 75.584C277.704 75.584 277.859 75.6 278.04 75.632V76.976C277.187 76.9867 276.6 77.1093 276.28 77.344C275.693 77.7707 275.4 78.5653 275.4 79.728V84H274.088V75.776ZM285.178 78.032H283.738C283.696 77.2107 283.146 76.8 282.09 76.8C281.546 76.8 281.114 76.9067 280.794 77.12C280.485 77.3227 280.33 77.6 280.33 77.952C280.33 78.4853 280.837 78.8693 281.85 79.104L283.114 79.392C283.936 79.584 284.528 79.856 284.89 80.208C285.253 80.56 285.434 81.04 285.434 81.648C285.434 82.4267 285.13 83.0453 284.522 83.504C283.914 83.952 283.093 84.176 282.058 84.176C280.928 84.176 280.069 83.9093 279.482 83.376C278.992 82.9387 278.73 82.3573 278.698 81.632H280.186C280.272 82.0053 280.389 82.2773 280.538 82.448C280.826 82.7893 281.365 82.96 282.154 82.96C282.741 82.96 283.205 82.8533 283.546 82.64C283.898 82.416 284.074 82.1227 284.074 81.76C284.074 81.216 283.653 80.8427 282.81 80.64L281.578 80.352C280.64 80.128 279.984 79.8613 279.61 79.552C279.184 79.2 278.97 78.6933 278.97 78.032C278.97 77.2853 279.253 76.6933 279.818 76.256C280.394 75.8187 281.162 75.6 282.122 75.6C283.125 75.6 283.904 75.8507 284.458 76.352C284.938 76.7893 285.178 77.3493 285.178 78.032ZM293.351 75.776V76.832H291.671V82.304C291.671 82.496 291.735 82.6613 291.863 82.8C292.002 82.928 292.178 82.992 292.391 82.992C292.594 82.992 292.903 82.944 293.319 82.848L293.463 84C292.802 84.1173 292.301 84.176 291.959 84.176C290.903 84.176 290.375 83.744 290.375 82.88V76.832H289.255V75.776H290.375V74.096L291.671 73.504V75.776H293.351ZM298.101 75.6C299.339 75.6 300.283 76.032 300.933 76.896C301.509 77.6427 301.797 78.656 301.797 79.936C301.797 81.3653 301.424 82.4533 300.677 83.2C300.037 83.8507 299.173 84.176 298.085 84.176C296.827 84.176 295.867 83.7547 295.205 82.912C294.629 82.176 294.341 81.184 294.341 79.936C294.341 78.4853 294.72 77.3707 295.477 76.592C296.128 75.9307 297.003 75.6 298.101 75.6ZM298.101 76.8C297.355 76.8 296.768 77.0827 296.341 77.648C295.915 78.2027 295.701 78.9653 295.701 79.936C295.701 80.9493 295.941 81.7227 296.421 82.256C296.837 82.7253 297.392 82.96 298.085 82.96C298.821 82.96 299.392 82.6933 299.797 82.16C300.213 81.6267 300.421 80.8853 300.421 79.936C300.421 78.8907 300.187 78.0907 299.717 77.536C299.312 77.0453 298.773 76.8 298.101 76.8ZM31.392 102.528H30.08C29.92 101.376 29.2693 100.8 28.128 100.8C27.4133 100.8 26.8533 101.083 26.448 101.648C26.0427 102.213 25.84 102.997 25.84 104C25.84 104.992 26.08 105.749 26.56 106.272C26.9653 106.731 27.5093 106.96 28.192 106.96C29.2907 106.96 29.9467 106.363 30.16 105.168H31.488C31.4027 106.192 31.0347 106.965 30.384 107.488C29.8187 107.947 29.0773 108.176 28.16 108.176C26.9547 108.176 26.016 107.749 25.344 106.896C24.768 106.16 24.48 105.195 24.48 104C24.48 102.571 24.8587 101.451 25.616 100.64C26.2667 99.9467 27.1093 99.6 28.144 99.6C29.3387 99.6 30.2347 100 30.832 100.8C31.1413 101.216 31.328 101.792 31.392 102.528ZM32.9474 99.776H34.1634V101.28C34.6434 100.149 35.4007 99.584 36.4354 99.584C36.5634 99.584 36.718 99.6 36.8994 99.632V100.976C36.046 100.987 35.4594 101.109 35.1394 101.344C34.5527 101.771 34.2594 102.565 34.2594 103.728V108H32.9474V99.776ZM45.1418 104.272H39.0778C39.0884 104.976 39.2378 105.536 39.5258 105.952C39.9844 106.624 40.6458 106.96 41.5098 106.96C42.5764 106.96 43.2964 106.453 43.6698 105.44H44.9818C44.8111 106.304 44.4164 106.976 43.7978 107.456C43.1791 107.936 42.4004 108.176 41.4618 108.176C40.2138 108.176 39.2591 107.749 38.5978 106.896C38.0111 106.149 37.7178 105.163 37.7178 103.936C37.7178 102.517 38.1018 101.413 38.8698 100.624C39.5418 99.9413 40.4111 99.6 41.4778 99.6C42.2564 99.6 42.9391 99.7867 43.5258 100.16C44.1231 100.533 44.5498 101.045 44.8058 101.696C45.0298 102.251 45.1418 103.093 45.1418 104.224V104.272ZM43.7338 103.2C43.7338 102.485 43.5204 101.909 43.0938 101.472C42.6778 101.024 42.1391 100.8 41.4778 100.8C40.8058 100.8 40.2564 101.019 39.8298 101.456C39.4138 101.883 39.1791 102.464 39.1258 103.2H43.7338ZM54.2281 106.896V107.952C53.8655 108.08 53.5828 108.144 53.3801 108.144C52.5268 108.144 52.0628 107.755 51.9881 106.976C51.4015 107.776 50.4681 108.176 49.1881 108.176C48.3028 108.176 47.6148 107.931 47.1241 107.44C46.6975 107.013 46.4841 106.464 46.4841 105.792C46.4841 105.024 46.7561 104.432 47.3001 104.016C47.6095 103.781 48.2548 103.552 49.2361 103.328L51.9241 102.72L51.9401 102.032C51.9401 101.211 51.3215 100.8 50.0841 100.8C48.9001 100.8 48.2655 101.28 48.1801 102.24H46.8521C46.8841 101.515 47.0655 100.96 47.3961 100.576C47.9615 99.9253 48.8788 99.6 50.1481 99.6C52.2068 99.6 53.2361 100.347 53.2361 101.84V106.432C53.2361 106.837 53.4121 107.04 53.7641 107.04C53.8068 107.04 53.9188 107.008 54.1001 106.944C54.1641 106.923 54.2068 106.907 54.2281 106.896ZM51.9401 103.792L49.8281 104.336C49.0708 104.528 48.5481 104.725 48.2601 104.928C47.9828 105.131 47.8441 105.413 47.8441 105.776C47.8441 106.619 48.3881 107.04 49.4761 107.04C50.2441 107.04 50.8948 106.789 51.4281 106.288C51.7695 105.979 51.9401 105.627 51.9401 105.232V103.792ZM58.8825 99.776V100.832H57.2025V106.304C57.2025 106.496 57.2665 106.661 57.3945 106.8C57.5332 106.928 57.7092 106.992 57.9225 106.992C58.1252 106.992 58.4345 106.944 58.8505 106.848L58.9945 108C58.3332 108.117 57.8318 108.176 57.4905 108.176C56.4345 108.176 55.9065 107.744 55.9065 106.88V100.832H54.7865V99.776H55.9065V98.096L57.2025 97.504V99.776H58.8825ZM67.3605 104.272H61.2965C61.3072 104.976 61.4565 105.536 61.7445 105.952C62.2032 106.624 62.8645 106.96 63.7285 106.96C64.7952 106.96 65.5152 106.453 65.8885 105.44H67.2005C67.0298 106.304 66.6352 106.976 66.0165 107.456C65.3978 107.936 64.6192 108.176 63.6805 108.176C62.4325 108.176 61.4778 107.749 60.8165 106.896C60.2298 106.149 59.9365 105.163 59.9365 103.936C59.9365 102.517 60.3205 101.413 61.0885 100.624C61.7605 99.9413 62.6298 99.6 63.6965 99.6C64.4752 99.6 65.1578 99.7867 65.7445 100.16C66.3418 100.533 66.7685 101.045 67.0245 101.696C67.2485 102.251 67.3605 103.093 67.3605 104.224V104.272ZM65.9525 103.2C65.9525 102.485 65.7392 101.909 65.3125 101.472C64.8965 101.024 64.3578 100.8 63.6965 100.8C63.0245 100.8 62.4752 101.019 62.0485 101.456C61.6325 101.883 61.3978 102.464 61.3445 103.2H65.9525ZM69.6949 108.064C69.6949 108.064 69.6895 108.069 69.6789 108.08H69.6629C69.4495 108.08 69.2682 108.011 69.1189 107.872C68.9802 107.723 68.9055 107.541 68.8949 107.328C68.8949 107.168 68.9322 107.019 69.0069 106.88C69.1455 106.624 69.3695 106.496 69.6789 106.496C69.9455 106.496 70.1642 106.603 70.3349 106.816C70.5055 107.029 70.5909 107.307 70.5909 107.648C70.5909 108.427 70.2389 109.221 69.5349 110.032H69.2309L68.8469 109.728C69.0709 109.44 69.2682 109.115 69.4389 108.752C69.5562 108.528 69.6415 108.299 69.6949 108.064ZM81.2878 102.032H79.8478C79.8051 101.211 79.2558 100.8 78.1998 100.8C77.6558 100.8 77.2238 100.907 76.9038 101.12C76.5944 101.323 76.4398 101.6 76.4398 101.952C76.4398 102.485 76.9464 102.869 77.9598 103.104L79.2238 103.392C80.0451 103.584 80.6371 103.856 80.9998 104.208C81.3624 104.56 81.5438 105.04 81.5438 105.648C81.5438 106.427 81.2398 107.045 80.6318 107.504C80.0238 107.952 79.2024 108.176 78.1678 108.176C77.0371 108.176 76.1784 107.909 75.5918 107.376C75.1011 106.939 74.8398 106.357 74.8078 105.632H76.2958C76.3811 106.005 76.4984 106.277 76.6478 106.448C76.9358 106.789 77.4744 106.96 78.2638 106.96C78.8504 106.96 79.3144 106.853 79.6558 106.64C80.0078 106.416 80.1838 106.123 80.1838 105.76C80.1838 105.216 79.7624 104.843 78.9198 104.64L77.6878 104.352C76.7491 104.128 76.0931 103.861 75.7198 103.552C75.2931 103.2 75.0798 102.693 75.0798 102.032C75.0798 101.285 75.3624 100.693 75.9278 100.256C76.5038 99.8187 77.2718 99.6 78.2318 99.6C79.2344 99.6 80.0131 99.8507 80.5678 100.352C81.0478 100.789 81.2878 101.349 81.2878 102.032ZM83.3071 96.544H84.6031V100.928C84.9978 100.437 85.3925 100.096 85.7871 99.904C86.1818 99.7013 86.6725 99.6 87.2591 99.6C88.0591 99.6 88.6885 99.8027 89.1471 100.208C89.6058 100.603 89.8351 101.147 89.8351 101.84V108H88.5391V102.368C88.5391 101.792 88.3631 101.371 88.0111 101.104C87.6805 100.859 87.2911 100.736 86.8431 100.736C86.1711 100.736 85.6271 100.987 85.2111 101.488C84.8058 101.989 84.6031 102.656 84.6031 103.488V108H83.3071V96.544ZM99.3375 106.896V107.952C98.9748 108.08 98.6922 108.144 98.4895 108.144C97.6362 108.144 97.1722 107.755 97.0975 106.976C96.5108 107.776 95.5775 108.176 94.2975 108.176C93.4122 108.176 92.7242 107.931 92.2335 107.44C91.8068 107.013 91.5935 106.464 91.5935 105.792C91.5935 105.024 91.8655 104.432 92.4095 104.016C92.7188 103.781 93.3642 103.552 94.3455 103.328L97.0335 102.72L97.0495 102.032C97.0495 101.211 96.4308 100.8 95.1935 100.8C94.0095 100.8 93.3748 101.28 93.2895 102.24H91.9615C91.9935 101.515 92.1748 100.96 92.5055 100.576C93.0708 99.9253 93.9882 99.6 95.2575 99.6C97.3162 99.6 98.3455 100.347 98.3455 101.84V106.432C98.3455 106.837 98.5215 107.04 98.8735 107.04C98.9162 107.04 99.0282 107.008 99.2095 106.944C99.2735 106.923 99.3162 106.907 99.3375 106.896ZM97.0495 103.792L94.9375 104.336C94.1802 104.528 93.6575 104.725 93.3695 104.928C93.0922 105.131 92.9535 105.413 92.9535 105.776C92.9535 106.619 93.4975 107.04 94.5855 107.04C95.3535 107.04 96.0042 106.789 96.5375 106.288C96.8788 105.979 97.0495 105.627 97.0495 105.232V103.792ZM100.76 99.776H101.976V101.28C102.456 100.149 103.213 99.584 104.248 99.584C104.376 99.584 104.531 99.6 104.712 99.632V100.976C103.859 100.987 103.272 101.109 102.952 101.344C102.365 101.771 102.072 102.565 102.072 103.728V108H100.76V99.776ZM112.954 104.272H106.89C106.901 104.976 107.05 105.536 107.338 105.952C107.797 106.624 108.458 106.96 109.322 106.96C110.389 106.96 111.109 106.453 111.482 105.44H112.794C112.624 106.304 112.229 106.976 111.61 107.456C110.992 107.936 110.213 108.176 109.274 108.176C108.026 108.176 107.072 107.749 106.41 106.896C105.824 106.149 105.53 105.163 105.53 103.936C105.53 102.517 105.914 101.413 106.682 100.624C107.354 99.9413 108.224 99.6 109.29 99.6C110.069 99.6 110.752 99.7867 111.338 100.16C111.936 100.533 112.362 101.045 112.618 101.696C112.842 102.251 112.954 103.093 112.954 104.224V104.272ZM111.546 103.2C111.546 102.485 111.333 101.909 110.906 101.472C110.49 101.024 109.952 100.8 109.29 100.8C108.618 100.8 108.069 101.019 107.642 101.456C107.226 101.883 106.992 102.464 106.938 103.2H111.546ZM115.289 108.064C115.289 108.064 115.283 108.069 115.273 108.08H115.257C115.043 108.08 114.862 108.011 114.713 107.872C114.574 107.723 114.499 107.541 114.489 107.328C114.489 107.168 114.526 107.019 114.601 106.88C114.739 106.624 114.963 106.496 115.273 106.496C115.539 106.496 115.758 106.603 115.929 106.816C116.099 107.029 116.185 107.307 116.185 107.648C116.185 108.427 115.833 109.221 115.129 110.032H114.825L114.441 109.728C114.665 109.44 114.862 109.115 115.033 108.752C115.15 108.528 115.235 108.299 115.289 108.064ZM128.338 106.896V107.952C127.975 108.08 127.692 108.144 127.49 108.144C126.636 108.144 126.172 107.755 126.098 106.976C125.511 107.776 124.578 108.176 123.298 108.176C122.412 108.176 121.724 107.931 121.234 107.44C120.807 107.013 120.594 106.464 120.594 105.792C120.594 105.024 120.866 104.432 121.41 104.016C121.719 103.781 122.364 103.552 123.346 103.328L126.034 102.72L126.05 102.032C126.05 101.211 125.431 100.8 124.194 100.8C123.01 100.8 122.375 101.28 122.289 102.24H120.962C120.994 101.515 121.175 100.96 121.506 100.576C122.071 99.9253 122.988 99.6 124.258 99.6C126.316 99.6 127.346 100.347 127.346 101.84V106.432C127.346 106.837 127.522 107.04 127.874 107.04C127.916 107.04 128.028 107.008 128.21 106.944C128.274 106.923 128.316 106.907 128.338 106.896ZM126.05 103.792L123.938 104.336C123.18 104.528 122.658 104.725 122.37 104.928C122.092 105.131 121.954 105.413 121.954 105.776C121.954 106.619 122.498 107.04 123.586 107.04C124.354 107.04 125.004 106.789 125.538 106.288C125.879 105.979 126.05 105.627 126.05 105.232V103.792ZM129.776 99.776H130.992V101.168C131.653 100.123 132.56 99.6 133.712 99.6C134.512 99.6 135.147 99.8027 135.616 100.208C136.085 100.603 136.32 101.136 136.32 101.808V108H135.024V102.336C135.024 101.845 134.869 101.456 134.56 101.168C134.261 100.88 133.851 100.736 133.328 100.736C132.645 100.736 132.101 100.987 131.696 101.488C131.291 101.989 131.088 102.656 131.088 103.488V108H129.776V99.776ZM145.198 96.544V108H143.886V106.864C143.364 107.749 142.553 108.192 141.454 108.192C140.249 108.192 139.321 107.755 138.67 106.88C138.105 106.112 137.822 105.099 137.822 103.84C137.822 102.464 138.19 101.387 138.926 100.608C139.556 99.936 140.372 99.6 141.374 99.6C142.484 99.6 143.321 100.016 143.886 100.848V96.544H145.198ZM141.598 100.816C140.873 100.816 140.286 101.104 139.838 101.68C139.401 102.245 139.182 102.997 139.182 103.936C139.182 104.907 139.438 105.669 139.95 106.224C140.388 106.715 140.942 106.96 141.614 106.96C142.308 106.96 142.857 106.688 143.262 106.144C143.678 105.6 143.886 104.864 143.886 103.936C143.886 102.923 143.652 102.133 143.182 101.568C142.766 101.067 142.238 100.816 141.598 100.816ZM156.87 96.544V108H155.558V106.864C155.035 107.749 154.225 108.192 153.126 108.192C151.921 108.192 150.993 107.755 150.342 106.88C149.777 106.112 149.494 105.099 149.494 103.84C149.494 102.464 149.862 101.387 150.598 100.608C151.227 99.936 152.043 99.6 153.046 99.6C154.155 99.6 154.993 100.016 155.558 100.848V96.544H156.87ZM153.27 100.816C152.545 100.816 151.958 101.104 151.51 101.68C151.073 102.245 150.854 102.997 150.854 103.936C150.854 104.907 151.11 105.669 151.622 106.224C152.059 106.715 152.614 106.96 153.286 106.96C153.979 106.96 154.529 106.688 154.934 106.144C155.35 105.6 155.558 104.864 155.558 103.936C155.558 102.923 155.323 102.133 154.854 101.568C154.438 101.067 153.91 100.816 153.27 100.816ZM160.149 99.776V108H158.853V99.776H160.149ZM159.525 96.56C159.749 96.56 159.935 96.64 160.085 96.8C160.245 96.9493 160.325 97.1307 160.325 97.344C160.325 97.568 160.245 97.76 160.085 97.92C159.935 98.0693 159.749 98.144 159.525 98.144C159.311 98.144 159.125 98.0693 158.965 97.92C158.815 97.76 158.741 97.568 158.741 97.344C158.741 97.1307 158.815 96.9493 158.965 96.8C159.125 96.64 159.311 96.56 159.525 96.56ZM168.241 102.032H166.801C166.758 101.211 166.209 100.8 165.153 100.8C164.609 100.8 164.177 100.907 163.857 101.12C163.548 101.323 163.393 101.6 163.393 101.952C163.393 102.485 163.9 102.869 164.913 103.104L166.177 103.392C166.998 103.584 167.59 103.856 167.953 104.208C168.316 104.56 168.497 105.04 168.497 105.648C168.497 106.427 168.193 107.045 167.585 107.504C166.977 107.952 166.156 108.176 165.121 108.176C163.99 108.176 163.132 107.909 162.545 107.376C162.054 106.939 161.793 106.357 161.761 105.632H163.249C163.334 106.005 163.452 106.277 163.601 106.448C163.889 106.789 164.428 106.96 165.217 106.96C165.804 106.96 166.268 106.853 166.609 106.64C166.961 106.416 167.137 106.123 167.137 105.76C167.137 105.216 166.716 104.843 165.873 104.64L164.641 104.352C163.702 104.128 163.046 103.861 162.673 103.552C162.246 103.2 162.033 102.693 162.033 102.032C162.033 101.285 162.316 100.693 162.881 100.256C163.457 99.8187 164.225 99.6 165.185 99.6C166.188 99.6 166.966 99.8507 167.521 100.352C168.001 100.789 168.241 101.349 168.241 102.032ZM176.548 102.528H175.236C175.076 101.376 174.426 100.8 173.284 100.8C172.57 100.8 172.01 101.083 171.604 101.648C171.199 102.213 170.996 102.997 170.996 104C170.996 104.992 171.236 105.749 171.716 106.272C172.122 106.731 172.666 106.96 173.348 106.96C174.447 106.96 175.103 106.363 175.316 105.168H176.644C176.559 106.192 176.191 106.965 175.54 107.488C174.975 107.947 174.234 108.176 173.316 108.176C172.111 108.176 171.172 107.749 170.5 106.896C169.924 106.16 169.636 105.195 169.636 104C169.636 102.571 170.015 101.451 170.772 100.64C171.423 99.9467 172.266 99.6 173.3 99.6C174.495 99.6 175.391 100 175.988 100.8C176.298 101.216 176.484 101.792 176.548 102.528ZM181.336 99.6C182.573 99.6 183.517 100.032 184.168 100.896C184.744 101.643 185.032 102.656 185.032 103.936C185.032 105.365 184.658 106.453 183.912 107.2C183.272 107.851 182.408 108.176 181.32 108.176C180.061 108.176 179.101 107.755 178.44 106.912C177.864 106.176 177.576 105.184 177.576 103.936C177.576 102.485 177.954 101.371 178.712 100.592C179.362 99.9307 180.237 99.6 181.336 99.6ZM181.336 100.8C180.589 100.8 180.002 101.083 179.576 101.648C179.149 102.203 178.936 102.965 178.936 103.936C178.936 104.949 179.176 105.723 179.656 106.256C180.072 106.725 180.626 106.96 181.32 106.96C182.056 106.96 182.626 106.693 183.032 106.16C183.448 105.627 183.656 104.885 183.656 103.936C183.656 102.891 183.421 102.091 182.952 101.536C182.546 101.045 182.008 100.8 181.336 100.8ZM190.23 108H188.806L185.91 99.776H187.398L189.574 106.432L191.91 99.776H193.382L190.23 108ZM201.657 104.272H195.593C195.604 104.976 195.753 105.536 196.041 105.952C196.5 106.624 197.161 106.96 198.025 106.96C199.092 106.96 199.812 106.453 200.185 105.44H201.497C201.327 106.304 200.932 106.976 200.313 107.456C199.695 107.936 198.916 108.176 197.977 108.176C196.729 108.176 195.775 107.749 195.113 106.896C194.527 106.149 194.233 105.163 194.233 103.936C194.233 102.517 194.617 101.413 195.385 100.624C196.057 99.9413 196.927 99.6 197.993 99.6C198.772 99.6 199.455 99.7867 200.041 100.16C200.639 100.533 201.065 101.045 201.321 101.696C201.545 102.251 201.657 103.093 201.657 104.224V104.272ZM200.249 103.2C200.249 102.485 200.036 101.909 199.609 101.472C199.193 101.024 198.655 100.8 197.993 100.8C197.321 100.8 196.772 101.019 196.345 101.456C195.929 101.883 195.695 102.464 195.641 103.2H200.249ZM203.432 99.776H204.648V101.28C205.128 100.149 205.885 99.584 206.92 99.584C207.048 99.584 207.202 99.6 207.384 99.632V100.976C206.53 100.987 205.944 101.109 205.624 101.344C205.037 101.771 204.744 102.565 204.744 103.728V108H203.432V99.776ZM218.564 104.272H212.5C212.51 104.976 212.66 105.536 212.948 105.952C213.406 106.624 214.068 106.96 214.932 106.96C215.998 106.96 216.718 106.453 217.092 105.44H218.404C218.233 106.304 217.838 106.976 217.22 107.456C216.601 107.936 215.822 108.176 214.884 108.176C213.636 108.176 212.681 107.749 212.02 106.896C211.433 106.149 211.14 105.163 211.14 103.936C211.14 102.517 211.524 101.413 212.292 100.624C212.964 99.9413 213.833 99.6 214.9 99.6C215.678 99.6 216.361 99.7867 216.948 100.16C217.545 100.533 217.972 101.045 218.228 101.696C218.452 102.251 218.564 103.093 218.564 104.224V104.272ZM217.156 103.2C217.156 102.485 216.942 101.909 216.516 101.472C216.1 101.024 215.561 100.8 214.9 100.8C214.228 100.8 213.678 101.019 213.252 101.456C212.836 101.883 212.601 102.464 212.548 103.2H217.156ZM223.73 108H222.306L219.41 99.776H220.898L223.074 106.432L225.41 99.776H226.882L223.73 108ZM235.157 104.272H229.093C229.104 104.976 229.253 105.536 229.541 105.952C230 106.624 230.661 106.96 231.525 106.96C232.592 106.96 233.312 106.453 233.685 105.44H234.997C234.827 106.304 234.432 106.976 233.813 107.456C233.195 107.936 232.416 108.176 231.477 108.176C230.229 108.176 229.275 107.749 228.613 106.896C228.027 106.149 227.733 105.163 227.733 103.936C227.733 102.517 228.117 101.413 228.885 100.624C229.557 99.9413 230.427 99.6 231.493 99.6C232.272 99.6 232.955 99.7867 233.541 100.16C234.139 100.533 234.565 101.045 234.821 101.696C235.045 102.251 235.157 103.093 235.157 104.224V104.272ZM233.749 103.2C233.749 102.485 233.536 101.909 233.109 101.472C232.693 101.024 232.155 100.8 231.493 100.8C230.821 100.8 230.272 101.019 229.845 101.456C229.429 101.883 229.195 102.464 229.141 103.2H233.749ZM236.948 99.776H238.164V101.168C238.825 100.123 239.732 99.6 240.884 99.6C241.684 99.6 242.318 99.8027 242.788 100.208C243.257 100.603 243.492 101.136 243.492 101.808V108H242.196V102.336C242.196 101.845 242.041 101.456 241.732 101.168C241.433 100.88 241.022 100.736 240.5 100.736C239.817 100.736 239.273 100.987 238.868 101.488C238.462 101.989 238.26 102.656 238.26 103.488V108H236.948V99.776ZM248.898 99.776V100.832H247.218V106.304C247.218 106.496 247.282 106.661 247.41 106.8C247.549 106.928 247.725 106.992 247.938 106.992C248.141 106.992 248.45 106.944 248.866 106.848L249.01 108C248.349 108.117 247.847 108.176 247.506 108.176C246.45 108.176 245.922 107.744 245.922 106.88V100.832H244.802V99.776H245.922V98.096L247.218 97.504V99.776H248.898ZM254.65 96.544V108H253.338V96.544H254.65ZM258.086 99.776V108H256.79V99.776H258.086ZM257.462 96.56C257.686 96.56 257.873 96.64 258.022 96.8C258.182 96.9493 258.262 97.1307 258.262 97.344C258.262 97.568 258.182 97.76 258.022 97.92C257.873 98.0693 257.686 98.144 257.462 98.144C257.249 98.144 257.062 98.0693 256.902 97.92C256.753 97.76 256.678 97.568 256.678 97.344C256.678 97.1307 256.753 96.9493 256.902 96.8C257.062 96.64 257.249 96.56 257.462 96.56ZM266.178 102.032H264.738C264.696 101.211 264.146 100.8 263.09 100.8C262.546 100.8 262.114 100.907 261.794 101.12C261.485 101.323 261.33 101.6 261.33 101.952C261.33 102.485 261.837 102.869 262.85 103.104L264.114 103.392C264.936 103.584 265.528 103.856 265.89 104.208C266.253 104.56 266.434 105.04 266.434 105.648C266.434 106.427 266.13 107.045 265.522 107.504C264.914 107.952 264.093 108.176 263.058 108.176C261.928 108.176 261.069 107.909 260.482 107.376C259.992 106.939 259.73 106.357 259.698 105.632H261.186C261.272 106.005 261.389 106.277 261.538 106.448C261.826 106.789 262.365 106.96 263.154 106.96C263.741 106.96 264.205 106.853 264.546 106.64C264.898 106.416 265.074 106.123 265.074 105.76C265.074 105.216 264.653 104.843 263.81 104.64L262.578 104.352C261.64 104.128 260.984 103.861 260.61 103.552C260.184 103.2 259.97 102.693 259.97 102.032C259.97 101.285 260.253 100.693 260.818 100.256C261.394 99.8187 262.162 99.6 263.122 99.6C264.125 99.6 264.904 99.8507 265.458 100.352C265.938 100.789 266.178 101.349 266.178 102.032ZM271.414 99.776V100.832H269.734V106.304C269.734 106.496 269.798 106.661 269.926 106.8C270.064 106.928 270.24 106.992 270.454 106.992C270.656 106.992 270.966 106.944 271.382 106.848L271.526 108C270.864 108.117 270.363 108.176 270.022 108.176C268.966 108.176 268.438 107.744 268.438 106.88V100.832H267.318V99.776H268.438V98.096L269.734 97.504V99.776H271.414ZM278.788 102.032H277.348C277.305 101.211 276.756 100.8 275.7 100.8C275.156 100.8 274.724 100.907 274.404 101.12C274.094 101.323 273.94 101.6 273.94 101.952C273.94 102.485 274.446 102.869 275.46 103.104L276.724 103.392C277.545 103.584 278.137 103.856 278.5 104.208C278.862 104.56 279.044 105.04 279.044 105.648C279.044 106.427 278.74 107.045 278.132 107.504C277.524 107.952 276.702 108.176 275.668 108.176C274.537 108.176 273.678 107.909 273.092 107.376C272.601 106.939 272.34 106.357 272.308 105.632H273.796C273.881 106.005 273.998 106.277 274.148 106.448C274.436 106.789 274.974 106.96 275.764 106.96C276.35 106.96 276.814 106.853 277.156 106.64C277.508 106.416 277.684 106.123 277.684 105.76C277.684 105.216 277.262 104.843 276.42 104.64L275.188 104.352C274.249 104.128 273.593 103.861 273.22 103.552C272.793 103.2 272.58 102.693 272.58 102.032C272.58 101.285 272.862 100.693 273.428 100.256C274.004 99.8187 274.772 99.6 275.732 99.6C276.734 99.6 277.513 99.8507 278.068 100.352C278.548 100.789 278.788 101.349 278.788 102.032ZM281.303 106.512C281.527 106.512 281.714 106.587 281.863 106.736C282.012 106.885 282.087 107.072 282.087 107.296C282.087 107.509 282.012 107.696 281.863 107.856C281.714 108.005 281.527 108.08 281.303 108.08C281.09 108.08 280.903 108.005 280.743 107.856C280.594 107.696 280.519 107.509 280.519 107.296C280.519 107.072 280.594 106.885 280.743 106.736C280.903 106.587 281.09 106.512 281.303 106.512ZM288.884 96.544V108H287.396V96.544H288.884ZM294.523 99.776V100.832H292.843V106.304C292.843 106.496 292.907 106.661 293.035 106.8C293.174 106.928 293.35 106.992 293.563 106.992C293.766 106.992 294.075 106.944 294.491 106.848L294.635 108C293.974 108.117 293.472 108.176 293.131 108.176C292.075 108.176 291.547 107.744 291.547 106.88V100.832H290.427V99.776H291.547V98.096L292.843 97.504V99.776H294.523ZM26.336 123.776V132H25.04V123.776H26.336ZM25.712 120.56C25.936 120.56 26.1227 120.64 26.272 120.8C26.432 120.949 26.512 121.131 26.512 121.344C26.512 121.568 26.432 121.76 26.272 121.92C26.1227 122.069 25.936 122.144 25.712 122.144C25.4987 122.144 25.312 122.069 25.152 121.92C25.0027 121.76 24.928 121.568 24.928 121.344C24.928 121.131 25.0027 120.949 25.152 120.8C25.312 120.64 25.4987 120.56 25.712 120.56ZM28.5884 123.776H29.8044V124.96C30.4444 124.053 31.287 123.6 32.3324 123.6C33.3457 123.6 34.0817 124.005 34.5404 124.816C34.935 124.357 35.3137 124.043 35.6764 123.872C36.0497 123.691 36.5084 123.6 37.0524 123.6C38.6524 123.6 39.4524 124.352 39.4524 125.856V132H38.1404V126.368C38.1404 125.28 37.6284 124.736 36.6044 124.736C36.071 124.736 35.6177 124.944 35.2444 125.36C34.871 125.776 34.6844 126.272 34.6844 126.848V132H33.3724V126.368C33.3724 125.28 32.8657 124.736 31.8524 124.736C31.3084 124.736 30.8444 124.944 30.4604 125.36C30.087 125.765 29.9004 126.261 29.9004 126.848V132H28.5884V123.776ZM41.4261 135.424V123.776H42.6421V125.04C43.2501 124.08 44.1248 123.6 45.2661 123.6C46.4288 123.6 47.3248 124.048 47.9541 124.944C48.5088 125.723 48.7861 126.747 48.7861 128.016C48.7861 129.371 48.4235 130.427 47.6981 131.184C47.0688 131.845 46.2528 132.176 45.2501 132.176C44.2368 132.176 43.3995 131.808 42.7381 131.072V135.424H41.4261ZM45.0421 124.816C44.3488 124.816 43.7888 125.099 43.3621 125.664C42.9461 126.229 42.7381 126.987 42.7381 127.936C42.7381 128.917 42.9781 129.685 43.4581 130.24C43.8635 130.709 44.3915 130.944 45.0421 130.944C45.7675 130.944 46.3435 130.672 46.7701 130.128C47.2075 129.573 47.4261 128.843 47.4261 127.936C47.4261 126.933 47.1808 126.144 46.6901 125.568C46.2528 125.067 45.7035 124.816 45.0421 124.816ZM50.4005 123.776H51.6165V125.28C52.0965 124.149 52.8538 123.584 53.8885 123.584C54.0165 123.584 54.1712 123.6 54.3525 123.632V124.976C53.4992 124.987 52.9125 125.109 52.5925 125.344C52.0058 125.771 51.7125 126.565 51.7125 127.728V132H50.4005V123.776ZM58.8669 123.6C60.1042 123.6 61.0482 124.032 61.6989 124.896C62.2749 125.643 62.5629 126.656 62.5629 127.936C62.5629 129.365 62.1895 130.453 61.4429 131.2C60.8029 131.851 59.9389 132.176 58.8509 132.176C57.5922 132.176 56.6322 131.755 55.9709 130.912C55.3949 130.176 55.1069 129.184 55.1069 127.936C55.1069 126.485 55.4855 125.371 56.2429 124.592C56.8935 123.931 57.7682 123.6 58.8669 123.6ZM58.8669 124.8C58.1202 124.8 57.5335 125.083 57.1069 125.648C56.6802 126.203 56.4669 126.965 56.4669 127.936C56.4669 128.949 56.7069 129.723 57.1869 130.256C57.6029 130.725 58.1575 130.96 58.8509 130.96C59.5869 130.96 60.1575 130.693 60.5629 130.16C60.9789 129.627 61.1869 128.885 61.1869 127.936C61.1869 126.891 60.9522 126.091 60.4829 125.536C60.0775 125.045 59.5389 124.8 58.8669 124.8ZM67.7613 132H66.3373L63.4413 123.776H64.9293L67.1053 130.432L69.4413 123.776H70.9133L67.7613 132ZM79.1886 128.272H73.1246C73.1353 128.976 73.2846 129.536 73.5726 129.952C74.0313 130.624 74.6926 130.96 75.5566 130.96C76.6233 130.96 77.3433 130.453 77.7166 129.44H79.0286C78.858 130.304 78.4633 130.976 77.8446 131.456C77.226 131.936 76.4473 132.176 75.5086 132.176C74.2606 132.176 73.306 131.749 72.6446 130.896C72.058 130.149 71.7646 129.163 71.7646 127.936C71.7646 126.517 72.1486 125.413 72.9166 124.624C73.5886 123.941 74.458 123.6 75.5246 123.6C76.3033 123.6 76.986 123.787 77.5726 124.16C78.17 124.533 78.5966 125.045 78.8526 125.696C79.0766 126.251 79.1886 127.093 79.1886 128.224V128.272ZM77.7806 127.2C77.7806 126.485 77.5673 125.909 77.1406 125.472C76.7246 125.024 76.186 124.8 75.5246 124.8C74.8526 124.8 74.3033 125.019 73.8766 125.456C73.4606 125.883 73.226 126.464 73.1726 127.2H77.7806ZM86.819 126.032H85.379C85.3363 125.211 84.787 124.8 83.731 124.8C83.187 124.8 82.755 124.907 82.435 125.12C82.1257 125.323 81.971 125.6 81.971 125.952C81.971 126.485 82.4777 126.869 83.491 127.104L84.755 127.392C85.5763 127.584 86.1683 127.856 86.531 128.208C86.8937 128.56 87.075 129.04 87.075 129.648C87.075 130.427 86.771 131.045 86.163 131.504C85.555 131.952 84.7337 132.176 83.699 132.176C82.5683 132.176 81.7097 131.909 81.123 131.376C80.6323 130.939 80.371 130.357 80.339 129.632H81.827C81.9123 130.005 82.0297 130.277 82.179 130.448C82.467 130.789 83.0057 130.96 83.795 130.96C84.3817 130.96 84.8457 130.853 85.187 130.64C85.539 130.416 85.715 130.123 85.715 129.76C85.715 129.216 85.2937 128.843 84.451 128.64L83.219 128.352C82.2803 128.128 81.6243 127.861 81.251 127.552C80.8243 127.2 80.611 126.693 80.611 126.032C80.611 125.285 80.8937 124.693 81.459 124.256C82.035 123.819 82.803 123.6 83.763 123.6C84.7657 123.6 85.5443 123.851 86.099 124.352C86.579 124.789 86.819 125.349 86.819 126.032ZM98.7199 128.272H92.6559C92.6665 128.976 92.8159 129.536 93.1039 129.952C93.5625 130.624 94.2239 130.96 95.0879 130.96C96.1545 130.96 96.8745 130.453 97.2479 129.44H98.5599C98.3892 130.304 97.9945 130.976 97.3759 131.456C96.7572 131.936 95.9785 132.176 95.0399 132.176C93.7919 132.176 92.8372 131.749 92.1759 130.896C91.5892 130.149 91.2959 129.163 91.2959 127.936C91.2959 126.517 91.6799 125.413 92.4479 124.624C93.1199 123.941 93.9892 123.6 95.0559 123.6C95.8345 123.6 96.5172 123.787 97.1039 124.16C97.7012 124.533 98.1279 125.045 98.3839 125.696C98.6079 126.251 98.7199 127.093 98.7199 128.224V128.272ZM97.3119 127.2C97.3119 126.485 97.0985 125.909 96.6719 125.472C96.2559 125.024 95.7172 124.8 95.0559 124.8C94.3839 124.8 93.8345 125.019 93.4079 125.456C92.9919 125.883 92.7572 126.464 92.7039 127.2H97.3119ZM103.886 132H102.462L99.5663 123.776H101.054L103.23 130.432L105.566 123.776H107.038L103.886 132ZM115.314 128.272H109.25C109.26 128.976 109.41 129.536 109.698 129.952C110.156 130.624 110.818 130.96 111.682 130.96C112.748 130.96 113.468 130.453 113.842 129.44H115.154C114.983 130.304 114.588 130.976 113.97 131.456C113.351 131.936 112.572 132.176 111.634 132.176C110.386 132.176 109.431 131.749 108.77 130.896C108.183 130.149 107.89 129.163 107.89 127.936C107.89 126.517 108.274 125.413 109.042 124.624C109.714 123.941 110.583 123.6 111.65 123.6C112.428 123.6 113.111 123.787 113.698 124.16C114.295 124.533 114.722 125.045 114.978 125.696C115.202 126.251 115.314 127.093 115.314 128.224V128.272ZM113.906 127.2C113.906 126.485 113.692 125.909 113.266 125.472C112.85 125.024 112.311 124.8 111.65 124.8C110.978 124.8 110.428 125.019 110.002 125.456C109.586 125.883 109.351 126.464 109.298 127.2H113.906ZM117.104 123.776H118.32V125.168C118.981 124.123 119.888 123.6 121.04 123.6C121.84 123.6 122.475 123.803 122.944 124.208C123.413 124.603 123.648 125.136 123.648 125.808V132H122.352V126.336C122.352 125.845 122.197 125.456 121.888 125.168C121.589 124.88 121.179 124.736 120.656 124.736C119.973 124.736 119.429 124.987 119.024 125.488C118.619 125.989 118.416 126.656 118.416 127.488V132H117.104V123.776ZM129.054 123.776V124.832H127.374V130.304C127.374 130.496 127.438 130.661 127.566 130.8C127.705 130.928 127.881 130.992 128.094 130.992C128.297 130.992 128.606 130.944 129.022 130.848L129.166 132C128.505 132.117 128.004 132.176 127.662 132.176C126.606 132.176 126.078 131.744 126.078 130.88V124.832H124.958V123.776H126.078V122.096L127.374 121.504V123.776H129.054ZM140.214 120.544V132H138.902V130.864C138.379 131.749 137.569 132.192 136.47 132.192C135.265 132.192 134.337 131.755 133.686 130.88C133.121 130.112 132.838 129.099 132.838 127.84C132.838 126.464 133.206 125.387 133.942 124.608C134.571 123.936 135.387 123.6 136.39 123.6C137.499 123.6 138.337 124.016 138.902 124.848V120.544H140.214ZM136.614 124.816C135.889 124.816 135.302 125.104 134.854 125.68C134.417 126.245 134.198 126.997 134.198 127.936C134.198 128.907 134.454 129.669 134.966 130.224C135.403 130.715 135.958 130.96 136.63 130.96C137.323 130.96 137.873 130.688 138.278 130.144C138.694 129.6 138.902 128.864 138.902 127.936C138.902 126.923 138.667 126.133 138.198 125.568C137.782 125.067 137.254 124.816 136.614 124.816ZM143.492 123.776V132H142.196V123.776H143.492ZM142.868 120.56C143.092 120.56 143.279 120.64 143.428 120.8C143.588 120.949 143.668 121.131 143.668 121.344C143.668 121.568 143.588 121.76 143.428 121.92C143.279 122.069 143.092 122.144 142.868 122.144C142.655 122.144 142.468 122.069 142.308 121.92C142.159 121.76 142.084 121.568 142.084 121.344C142.084 121.131 142.159 120.949 142.308 120.8C142.468 120.64 142.655 120.56 142.868 120.56ZM151.585 126.032H150.145C150.102 125.211 149.553 124.8 148.497 124.8C147.953 124.8 147.521 124.907 147.201 125.12C146.891 125.323 146.737 125.6 146.737 125.952C146.737 126.485 147.243 126.869 148.257 127.104L149.521 127.392C150.342 127.584 150.934 127.856 151.297 128.208C151.659 128.56 151.841 129.04 151.841 129.648C151.841 130.427 151.537 131.045 150.929 131.504C150.321 131.952 149.499 132.176 148.465 132.176C147.334 132.176 146.475 131.909 145.889 131.376C145.398 130.939 145.137 130.357 145.105 129.632H146.593C146.678 130.005 146.795 130.277 146.945 130.448C147.233 130.789 147.771 130.96 148.561 130.96C149.147 130.96 149.611 130.853 149.953 130.64C150.305 130.416 150.481 130.123 150.481 129.76C150.481 129.216 150.059 128.843 149.217 128.64L147.985 128.352C147.046 128.128 146.39 127.861 146.017 127.552C145.59 127.2 145.377 126.693 145.377 126.032C145.377 125.285 145.659 124.693 146.225 124.256C146.801 123.819 147.569 123.6 148.529 123.6C149.531 123.6 150.31 123.851 150.865 124.352C151.345 124.789 151.585 125.349 151.585 126.032ZM159.892 126.528H158.58C158.42 125.376 157.769 124.8 156.628 124.8C155.913 124.8 155.353 125.083 154.948 125.648C154.543 126.213 154.34 126.997 154.34 128C154.34 128.992 154.58 129.749 155.06 130.272C155.465 130.731 156.009 130.96 156.692 130.96C157.791 130.96 158.447 130.363 158.66 129.168H159.988C159.903 130.192 159.535 130.965 158.884 131.488C158.319 131.947 157.577 132.176 156.66 132.176C155.455 132.176 154.516 131.749 153.844 130.896C153.268 130.16 152.98 129.195 152.98 128C152.98 126.571 153.359 125.451 154.116 124.64C154.767 123.947 155.609 123.6 156.644 123.6C157.839 123.6 158.735 124 159.332 124.8C159.641 125.216 159.828 125.792 159.892 126.528ZM164.679 123.6C165.917 123.6 166.861 124.032 167.511 124.896C168.087 125.643 168.375 126.656 168.375 127.936C168.375 129.365 168.002 130.453 167.255 131.2C166.615 131.851 165.751 132.176 164.663 132.176C163.405 132.176 162.445 131.755 161.783 130.912C161.207 130.176 160.919 129.184 160.919 127.936C160.919 126.485 161.298 125.371 162.055 124.592C162.706 123.931 163.581 123.6 164.679 123.6ZM164.679 124.8C163.933 124.8 163.346 125.083 162.919 125.648C162.493 126.203 162.279 126.965 162.279 127.936C162.279 128.949 162.519 129.723 162.999 130.256C163.415 130.725 163.97 130.96 164.663 130.96C165.399 130.96 165.97 130.693 166.375 130.16C166.791 129.627 166.999 128.885 166.999 127.936C166.999 126.891 166.765 126.091 166.295 125.536C165.89 125.045 165.351 124.8 164.679 124.8ZM173.574 132H172.15L169.254 123.776H170.742L172.918 130.432L175.254 123.776H176.726L173.574 132ZM185.001 128.272H178.937C178.948 128.976 179.097 129.536 179.385 129.952C179.844 130.624 180.505 130.96 181.369 130.96C182.436 130.96 183.156 130.453 183.529 129.44H184.841C184.67 130.304 184.276 130.976 183.657 131.456C183.038 131.936 182.26 132.176 181.321 132.176C180.073 132.176 179.118 131.749 178.457 130.896C177.87 130.149 177.577 129.163 177.577 127.936C177.577 126.517 177.961 125.413 178.729 124.624C179.401 123.941 180.27 123.6 181.337 123.6C182.116 123.6 182.798 123.787 183.385 124.16C183.982 124.533 184.409 125.045 184.665 125.696C184.889 126.251 185.001 127.093 185.001 128.224V128.272ZM183.593 127.2C183.593 126.485 183.38 125.909 182.953 125.472C182.537 125.024 181.998 124.8 181.337 124.8C180.665 124.8 180.116 125.019 179.689 125.456C179.273 125.883 179.038 126.464 178.985 127.2H183.593ZM186.776 123.776H187.992V125.28C188.472 124.149 189.229 123.584 190.264 123.584C190.392 123.584 190.546 123.6 190.728 123.632V124.976C189.874 124.987 189.288 125.109 188.968 125.344C188.381 125.771 188.088 126.565 188.088 127.728V132H186.776V123.776ZM197.034 123.776H198.442L194.778 133.728C194.351 134.859 193.642 135.424 192.65 135.424C192.181 135.424 191.77 135.317 191.418 135.104L191.674 133.968C191.941 134.075 192.202 134.128 192.458 134.128C192.97 134.128 193.327 133.861 193.53 133.328L194.026 132.016L191.242 123.776H192.65L194.746 130.176L197.034 123.776ZM202.567 120.544H203.863V124.88C204.471 124.027 205.324 123.6 206.423 123.6C207.585 123.6 208.481 124.027 209.111 124.88C209.665 125.627 209.943 126.613 209.943 127.84C209.943 129.259 209.575 130.363 208.839 131.152C208.199 131.835 207.372 132.176 206.359 132.176C205.217 132.176 204.348 131.744 203.751 130.88V132H202.567V120.544ZM206.183 124.816C205.479 124.816 204.913 125.104 204.487 125.68C204.071 126.245 203.863 126.997 203.863 127.936C203.863 128.917 204.103 129.685 204.583 130.24C204.999 130.709 205.532 130.944 206.183 130.944C206.908 130.944 207.484 130.672 207.911 130.128C208.348 129.584 208.567 128.853 208.567 127.936C208.567 126.933 208.321 126.144 207.831 125.568C207.404 125.067 206.855 124.816 206.183 124.816ZM216.565 123.776H217.973L214.309 133.728C213.882 134.859 213.173 135.424 212.181 135.424C211.712 135.424 211.301 135.317 210.949 135.104L211.205 133.968C211.472 134.075 211.733 134.128 211.989 134.128C212.501 134.128 212.858 133.861 213.061 133.328L213.557 132.016L210.773 123.776H212.181L214.277 130.176L216.565 123.776ZM222.354 123.776H223.57V125.168C224.231 124.123 225.138 123.6 226.29 123.6C227.09 123.6 227.725 123.803 228.194 124.208C228.663 124.603 228.898 125.136 228.898 125.808V132H227.602V126.336C227.602 125.845 227.447 125.456 227.138 125.168C226.839 124.88 226.429 124.736 225.906 124.736C225.223 124.736 224.679 124.987 224.274 125.488C223.869 125.989 223.666 126.656 223.666 127.488V132H222.354V123.776ZM234.304 123.6C235.542 123.6 236.486 124.032 237.136 124.896C237.712 125.643 238 126.656 238 127.936C238 129.365 237.627 130.453 236.88 131.2C236.24 131.851 235.376 132.176 234.288 132.176C233.03 132.176 232.07 131.755 231.408 130.912C230.832 130.176 230.544 129.184 230.544 127.936C230.544 126.485 230.923 125.371 231.68 124.592C232.331 123.931 233.206 123.6 234.304 123.6ZM234.304 124.8C233.558 124.8 232.971 125.083 232.544 125.648C232.118 126.203 231.904 126.965 231.904 127.936C231.904 128.949 232.144 129.723 232.624 130.256C233.04 130.725 233.595 130.96 234.288 130.96C235.024 130.96 235.595 130.693 236 130.16C236.416 129.627 236.624 128.885 236.624 127.936C236.624 126.891 236.39 126.091 235.92 125.536C235.515 125.045 234.976 124.8 234.304 124.8ZM243.039 123.776V124.832H241.359V130.304C241.359 130.496 241.423 130.661 241.551 130.8C241.689 130.928 241.865 130.992 242.079 130.992C242.281 130.992 242.591 130.944 243.007 130.848L243.151 132C242.489 132.117 241.988 132.176 241.647 132.176C240.591 132.176 240.063 131.744 240.063 130.88V124.832H238.943V123.776H240.063V122.096L241.359 121.504V123.776H243.039ZM245.805 123.776V132H244.509V123.776H245.805ZM245.181 120.56C245.405 120.56 245.591 120.64 245.741 120.8C245.901 120.949 245.981 121.131 245.981 121.344C245.981 121.568 245.901 121.76 245.741 121.92C245.591 122.069 245.405 122.144 245.181 122.144C244.967 122.144 244.781 122.069 244.621 121.92C244.471 121.76 244.397 121.568 244.397 121.344C244.397 121.131 244.471 120.949 244.621 120.8C244.781 120.64 244.967 120.56 245.181 120.56ZM251.001 123.776V124.832H249.641V132H248.345V124.832H247.241V123.776H248.345V122.368C248.345 121.781 248.51 121.323 248.841 120.992C249.182 120.661 249.657 120.496 250.265 120.496C250.5 120.496 250.745 120.523 251.001 120.576V121.664H250.857C250.74 121.653 250.638 121.648 250.553 121.648C249.945 121.648 249.641 121.925 249.641 122.48V123.776H251.001ZM257.44 123.776H258.848L255.184 133.728C254.757 134.859 254.048 135.424 253.056 135.424C252.587 135.424 252.176 135.317 251.824 135.104L252.08 133.968C252.347 134.075 252.608 134.128 252.864 134.128C253.376 134.128 253.733 133.861 253.936 133.328L254.432 132.016L251.648 123.776H253.056L255.152 130.176L257.44 123.776ZM261.524 123.776V132H260.228V123.776H261.524ZM260.9 120.56C261.124 120.56 261.31 120.64 261.46 120.8C261.62 120.949 261.7 121.131 261.7 121.344C261.7 121.568 261.62 121.76 261.46 121.92C261.31 122.069 261.124 122.144 260.9 122.144C260.686 122.144 260.5 122.069 260.34 121.92C260.19 121.76 260.116 121.568 260.116 121.344C260.116 121.131 260.19 120.949 260.34 120.8C260.5 120.64 260.686 120.56 260.9 120.56ZM263.776 123.776H264.992V125.168C265.653 124.123 266.56 123.6 267.712 123.6C268.512 123.6 269.147 123.803 269.616 124.208C270.085 124.603 270.32 125.136 270.32 125.808V132H269.024V126.336C269.024 125.845 268.869 125.456 268.56 125.168C268.261 124.88 267.851 124.736 267.328 124.736C266.645 124.736 266.101 124.987 265.696 125.488C265.291 125.989 265.088 126.656 265.088 127.488V132H263.776V123.776ZM277.87 123.776H279.086V130.656C279.086 132.437 278.798 133.675 278.222 134.368C277.646 135.072 276.702 135.424 275.39 135.424C274.366 135.424 273.566 135.179 272.99 134.688C272.478 134.251 272.19 133.669 272.126 132.944H273.47C273.534 133.371 273.694 133.685 273.95 133.888C274.324 134.176 274.825 134.32 275.454 134.32C276.308 134.32 276.916 134.064 277.278 133.552C277.588 133.115 277.742 132.368 277.742 131.312V130.784C277.06 131.712 276.238 132.176 275.278 132.176C274.34 132.176 273.545 131.824 272.894 131.12C272.201 130.363 271.854 129.328 271.854 128.016C271.854 126.608 272.217 125.488 272.942 124.656C273.582 123.952 274.388 123.6 275.358 123.6C276.404 123.6 277.241 124.069 277.87 125.008V123.776ZM275.502 124.8C274.798 124.8 274.238 125.083 273.822 125.648C273.417 126.203 273.214 126.965 273.214 127.936C273.214 128.949 273.449 129.723 273.918 130.256C274.313 130.725 274.846 130.96 275.518 130.96C276.222 130.96 276.766 130.693 277.15 130.16C277.545 129.627 277.742 128.885 277.742 127.936C277.742 126.891 277.518 126.091 277.07 125.536C276.676 125.045 276.153 124.8 275.502 124.8ZM290.646 132H289.35V130.704C288.763 131.685 287.889 132.176 286.726 132.176C285.926 132.176 285.286 131.979 284.806 131.584C284.337 131.179 284.102 130.64 284.102 129.968V123.776H285.398V129.44C285.398 129.92 285.553 130.304 285.862 130.592C286.171 130.88 286.587 131.024 287.11 131.024C287.793 131.024 288.337 130.779 288.742 130.288C289.147 129.787 289.35 129.115 289.35 128.272V123.776H290.646V132ZM298.757 126.032H297.317C297.274 125.211 296.725 124.8 295.669 124.8C295.125 124.8 294.693 124.907 294.373 125.12C294.063 125.323 293.909 125.6 293.909 125.952C293.909 126.485 294.415 126.869 295.429 127.104L296.693 127.392C297.514 127.584 298.106 127.856 298.469 128.208C298.831 128.56 299.013 129.04 299.013 129.648C299.013 130.427 298.709 131.045 298.101 131.504C297.493 131.952 296.671 132.176 295.637 132.176C294.506 132.176 293.647 131.909 293.061 131.376C292.57 130.939 292.309 130.357 292.277 129.632H293.765C293.85 130.005 293.967 130.277 294.117 130.448C294.405 130.789 294.943 130.96 295.733 130.96C296.319 130.96 296.783 130.853 297.125 130.64C297.477 130.416 297.653 130.123 297.653 129.76C297.653 129.216 297.231 128.843 296.389 128.64L295.157 128.352C294.218 128.128 293.562 127.861 293.189 127.552C292.762 127.2 292.549 126.693 292.549 126.032C292.549 125.285 292.831 124.693 293.397 124.256C293.973 123.819 294.741 123.6 295.701 123.6C296.703 123.6 297.482 123.851 298.037 124.352C298.517 124.789 298.757 125.349 298.757 126.032ZM307.72 128.272H301.656C301.667 128.976 301.816 129.536 302.104 129.952C302.563 130.624 303.224 130.96 304.088 130.96C305.155 130.96 305.875 130.453 306.248 129.44H307.56C307.389 130.304 306.995 130.976 306.376 131.456C305.757 131.936 304.979 132.176 304.04 132.176C302.792 132.176 301.837 131.749 301.176 130.896C300.589 130.149 300.296 129.163 300.296 127.936C300.296 126.517 300.68 125.413 301.448 124.624C302.12 123.941 302.989 123.6 304.056 123.6C304.835 123.6 305.517 123.787 306.104 124.16C306.701 124.533 307.128 125.045 307.384 125.696C307.608 126.251 307.72 127.093 307.72 128.224V128.272ZM306.312 127.2C306.312 126.485 306.099 125.909 305.672 125.472C305.256 125.024 304.717 124.8 304.056 124.8C303.384 124.8 302.835 125.019 302.408 125.456C301.992 125.883 301.757 126.464 301.704 127.2H306.312ZM309.494 123.776H310.71V125.28C311.19 124.149 311.948 123.584 312.982 123.584C313.11 123.584 313.265 123.6 313.446 123.632V124.976C312.593 124.987 312.006 125.109 311.686 125.344C311.1 125.771 310.806 126.565 310.806 127.728V132H309.494V123.776ZM320.585 126.032H319.145C319.102 125.211 318.553 124.8 317.497 124.8C316.953 124.8 316.521 124.907 316.201 125.12C315.891 125.323 315.737 125.6 315.737 125.952C315.737 126.485 316.243 126.869 317.257 127.104L318.521 127.392C319.342 127.584 319.934 127.856 320.297 128.208C320.659 128.56 320.841 129.04 320.841 129.648C320.841 130.427 320.537 131.045 319.929 131.504C319.321 131.952 318.499 132.176 317.465 132.176C316.334 132.176 315.475 131.909 314.889 131.376C314.398 130.939 314.137 130.357 314.105 129.632H315.593C315.678 130.005 315.795 130.277 315.945 130.448C316.233 130.789 316.771 130.96 317.561 130.96C318.147 130.96 318.611 130.853 318.953 130.64C319.305 130.416 319.481 130.123 319.481 129.76C319.481 129.216 319.059 128.843 318.217 128.64L316.985 128.352C316.046 128.128 315.39 127.861 315.017 127.552C314.59 127.2 314.377 126.693 314.377 126.032C314.377 125.285 314.659 124.693 315.225 124.256C315.801 123.819 316.569 123.6 317.529 123.6C318.531 123.6 319.31 123.851 319.865 124.352C320.345 124.789 320.585 125.349 320.585 126.032ZM28.32 147.6C29.5573 147.6 30.5013 148.032 31.152 148.896C31.728 149.643 32.016 150.656 32.016 151.936C32.016 153.365 31.6427 154.453 30.896 155.2C30.256 155.851 29.392 156.176 28.304 156.176C27.0453 156.176 26.0853 155.755 25.424 154.912C24.848 154.176 24.56 153.184 24.56 151.936C24.56 150.485 24.9387 149.371 25.696 148.592C26.3467 147.931 27.2213 147.6 28.32 147.6ZM28.32 148.8C27.5733 148.8 26.9867 149.083 26.56 149.648C26.1333 150.203 25.92 150.965 25.92 151.936C25.92 152.949 26.16 153.723 26.64 154.256C27.056 154.725 27.6107 154.96 28.304 154.96C29.04 154.96 29.6107 154.693 30.016 154.16C30.432 153.627 30.64 152.885 30.64 151.936C30.64 150.891 30.4053 150.091 29.936 149.536C29.5307 149.045 28.992 148.8 28.32 148.8ZM36.7824 147.776V148.832H35.4224V156H34.1264V148.832H33.0224V147.776H34.1264V146.368C34.1264 145.781 34.2917 145.323 34.6224 144.992C34.9637 144.661 35.4384 144.496 36.0464 144.496C36.281 144.496 36.5264 144.523 36.7824 144.576V145.664H36.6384C36.521 145.653 36.4197 145.648 36.3344 145.648C35.7264 145.648 35.4224 145.925 35.4224 146.48V147.776H36.7824ZM41.1509 147.776H42.3669V149.168C43.0282 148.123 43.9349 147.6 45.0869 147.6C45.8869 147.6 46.5215 147.803 46.9909 148.208C47.4602 148.603 47.6949 149.136 47.6949 149.808V156H46.3989V150.336C46.3989 149.845 46.2442 149.456 45.9349 149.168C45.6362 148.88 45.2255 148.736 44.7029 148.736C44.0202 148.736 43.4762 148.987 43.0709 149.488C42.6655 149.989 42.4629 150.656 42.4629 151.488V156H41.1509V147.776ZM56.8293 152.272H50.7653C50.7759 152.976 50.9253 153.536 51.2133 153.952C51.6719 154.624 52.3333 154.96 53.1973 154.96C54.2639 154.96 54.9839 154.453 55.3573 153.44H56.6693C56.4986 154.304 56.1039 154.976 55.4853 155.456C54.8666 155.936 54.0879 156.176 53.1493 156.176C51.9013 156.176 50.9466 155.749 50.2853 154.896C49.6986 154.149 49.4053 153.163 49.4053 151.936C49.4053 150.517 49.7893 149.413 50.5573 148.624C51.2293 147.941 52.0986 147.6 53.1653 147.6C53.9439 147.6 54.6266 147.787 55.2133 148.16C55.8106 148.533 56.2373 149.045 56.4933 149.696C56.7173 150.251 56.8293 151.093 56.8293 152.224V152.272ZM55.4213 151.2C55.4213 150.485 55.2079 149.909 54.7813 149.472C54.3653 149.024 53.8266 148.8 53.1653 148.8C52.4933 148.8 51.9439 149.019 51.5173 149.456C51.1013 149.883 50.8666 150.464 50.8133 151.2H55.4213ZM66.2196 156H64.7316L63.0516 149.536L61.4676 156H59.9956L57.6116 147.776H59.0516L60.7476 154.176L62.3156 147.776H63.9156L65.5316 154.176L67.1636 147.776H68.6356L66.2196 156ZM79.8449 152.272H73.7809C73.7915 152.976 73.9409 153.536 74.2289 153.952C74.6875 154.624 75.3489 154.96 76.2129 154.96C77.2795 154.96 77.9995 154.453 78.3729 153.44H79.6849C79.5142 154.304 79.1195 154.976 78.5009 155.456C77.8822 155.936 77.1035 156.176 76.1649 156.176C74.9169 156.176 73.9622 155.749 73.3009 154.896C72.7142 154.149 72.4209 153.163 72.4209 151.936C72.4209 150.517 72.8049 149.413 73.5729 148.624C74.2449 147.941 75.1142 147.6 76.1809 147.6C76.9595 147.6 77.6422 147.787 78.2289 148.16C78.8262 148.533 79.2529 149.045 79.5089 149.696C79.7329 150.251 79.8449 151.093 79.8449 152.224V152.272ZM78.4369 151.2C78.4369 150.485 78.2235 149.909 77.7969 149.472C77.3809 149.024 76.8422 148.8 76.1809 148.8C75.5089 148.8 74.9595 149.019 74.5329 149.456C74.1169 149.883 73.8822 150.464 73.8289 151.2H78.4369ZM85.0113 156H83.5873L80.6913 147.776H82.1793L84.3553 154.432L86.6913 147.776H88.1633L85.0113 156ZM96.4386 152.272H90.3746C90.3853 152.976 90.5346 153.536 90.8226 153.952C91.2813 154.624 91.9426 154.96 92.8066 154.96C93.8733 154.96 94.5933 154.453 94.9666 153.44H96.2786C96.108 154.304 95.7133 154.976 95.0946 155.456C94.476 155.936 93.6973 156.176 92.7586 156.176C91.5106 156.176 90.556 155.749 89.8946 154.896C89.308 154.149 89.0146 153.163 89.0146 151.936C89.0146 150.517 89.3986 149.413 90.1666 148.624C90.8386 147.941 91.708 147.6 92.7746 147.6C93.5533 147.6 94.236 147.787 94.8226 148.16C95.42 148.533 95.8466 149.045 96.1026 149.696C96.3266 150.251 96.4386 151.093 96.4386 152.224V152.272ZM95.0306 151.2C95.0306 150.485 94.8173 149.909 94.3906 149.472C93.9746 149.024 93.436 148.8 92.7746 148.8C92.1026 148.8 91.5533 149.019 91.1266 149.456C90.7106 149.883 90.476 150.464 90.4226 151.2H95.0306ZM98.229 147.776H99.445V149.168C100.106 148.123 101.013 147.6 102.165 147.6C102.965 147.6 103.6 147.803 104.069 148.208C104.538 148.603 104.773 149.136 104.773 149.808V156H103.477V150.336C103.477 149.845 103.322 149.456 103.013 149.168C102.714 148.88 102.304 148.736 101.781 148.736C101.098 148.736 100.554 148.987 100.149 149.488C99.7437 149.989 99.541 150.656 99.541 151.488V156H98.229V147.776ZM110.179 147.776V148.832H108.499V154.304C108.499 154.496 108.563 154.661 108.691 154.8C108.83 154.928 109.006 154.992 109.219 154.992C109.422 154.992 109.731 154.944 110.147 154.848L110.291 156C109.63 156.117 109.129 156.176 108.787 156.176C107.731 156.176 107.203 155.744 107.203 154.88V148.832H106.083V147.776H107.203V146.096L108.499 145.504V147.776H110.179ZM117.553 150.032H116.113C116.071 149.211 115.521 148.8 114.465 148.8C113.921 148.8 113.489 148.907 113.169 149.12C112.86 149.323 112.705 149.6 112.705 149.952C112.705 150.485 113.212 150.869 114.225 151.104L115.489 151.392C116.311 151.584 116.903 151.856 117.265 152.208C117.628 152.56 117.809 153.04 117.809 153.648C117.809 154.427 117.505 155.045 116.897 155.504C116.289 155.952 115.468 156.176 114.433 156.176C113.303 156.176 112.444 155.909 111.857 155.376C111.367 154.939 111.105 154.357 111.073 153.632H112.561C112.647 154.005 112.764 154.277 112.913 154.448C113.201 154.789 113.74 154.96 114.529 154.96C115.116 154.96 115.58 154.853 115.921 154.64C116.273 154.416 116.449 154.123 116.449 153.76C116.449 153.216 116.028 152.843 115.185 152.64L113.953 152.352C113.015 152.128 112.359 151.861 111.985 151.552C111.559 151.2 111.345 150.693 111.345 150.032C111.345 149.285 111.628 148.693 112.193 148.256C112.769 147.819 113.537 147.6 114.497 147.6C115.5 147.6 116.279 147.851 116.833 148.352C117.313 148.789 117.553 149.349 117.553 150.032ZM129.806 154.896V155.952C129.444 156.08 129.161 156.144 128.958 156.144C128.105 156.144 127.641 155.755 127.566 154.976C126.98 155.776 126.046 156.176 124.766 156.176C123.881 156.176 123.193 155.931 122.702 155.44C122.276 155.013 122.062 154.464 122.062 153.792C122.062 153.024 122.334 152.432 122.878 152.016C123.188 151.781 123.833 151.552 124.814 151.328L127.502 150.72L127.518 150.032C127.518 149.211 126.9 148.8 125.662 148.8C124.478 148.8 123.844 149.28 123.758 150.24H122.43C122.462 149.515 122.644 148.96 122.974 148.576C123.54 147.925 124.457 147.6 125.726 147.6C127.785 147.6 128.814 148.347 128.814 149.84V154.432C128.814 154.837 128.99 155.04 129.342 155.04C129.385 155.04 129.497 155.008 129.678 154.944C129.742 154.923 129.785 154.907 129.806 154.896ZM127.518 151.792L125.406 152.336C124.649 152.528 124.126 152.725 123.838 152.928C123.561 153.131 123.422 153.413 123.422 153.776C123.422 154.619 123.966 155.04 125.054 155.04C125.822 155.04 126.473 154.789 127.006 154.288C127.348 153.979 127.518 153.627 127.518 153.232V151.792ZM131.245 147.776H132.461V149.168C133.122 148.123 134.029 147.6 135.181 147.6C135.981 147.6 136.615 147.803 137.085 148.208C137.554 148.603 137.789 149.136 137.789 149.808V156H136.493V150.336C136.493 149.845 136.338 149.456 136.029 149.168C135.73 148.88 135.319 148.736 134.797 148.736C134.114 148.736 133.57 148.987 133.165 149.488C132.759 149.989 132.557 150.656 132.557 151.488V156H131.245V147.776ZM146.667 144.544V156H145.355V154.864C144.832 155.749 144.022 156.192 142.923 156.192C141.718 156.192 140.79 155.755 140.139 154.88C139.574 154.112 139.291 153.099 139.291 151.84C139.291 150.464 139.659 149.387 140.395 148.608C141.024 147.936 141.84 147.6 142.843 147.6C143.952 147.6 144.79 148.016 145.355 148.848V144.544H146.667ZM143.067 148.816C142.342 148.816 141.755 149.104 141.307 149.68C140.87 150.245 140.651 150.997 140.651 151.936C140.651 152.907 140.907 153.669 141.419 154.224C141.856 154.715 142.411 154.96 143.083 154.96C143.776 154.96 144.326 154.688 144.731 154.144C145.147 153.6 145.355 152.864 145.355 151.936C145.355 150.923 145.12 150.133 144.651 149.568C144.235 149.067 143.707 148.816 143.067 148.816ZM158.115 156H156.819V154.704C156.232 155.685 155.358 156.176 154.195 156.176C153.395 156.176 152.755 155.979 152.275 155.584C151.806 155.179 151.571 154.64 151.571 153.968V147.776H152.867V153.44C152.867 153.92 153.022 154.304 153.331 154.592C153.64 154.88 154.056 155.024 154.579 155.024C155.262 155.024 155.806 154.779 156.211 154.288C156.616 153.787 156.819 153.115 156.819 152.272V147.776H158.115V156ZM160.129 159.424V147.776H161.345V149.04C161.953 148.08 162.828 147.6 163.969 147.6C165.132 147.6 166.028 148.048 166.657 148.944C167.212 149.723 167.489 150.747 167.489 152.016C167.489 153.371 167.127 154.427 166.401 155.184C165.772 155.845 164.956 156.176 163.953 156.176C162.94 156.176 162.103 155.808 161.441 155.072V159.424H160.129ZM163.745 148.816C163.052 148.816 162.492 149.099 162.065 149.664C161.649 150.229 161.441 150.987 161.441 151.936C161.441 152.917 161.681 153.685 162.161 154.24C162.567 154.709 163.095 154.944 163.745 154.944C164.471 154.944 165.047 154.672 165.473 154.128C165.911 153.573 166.129 152.843 166.129 151.936C166.129 150.933 165.884 150.144 165.393 149.568C164.956 149.067 164.407 148.816 163.745 148.816ZM175.808 144.544V156H174.496V154.864C173.973 155.749 173.162 156.192 172.064 156.192C170.858 156.192 169.93 155.755 169.28 154.88C168.714 154.112 168.432 153.099 168.432 151.84C168.432 150.464 168.8 149.387 169.536 148.608C170.165 147.936 170.981 147.6 171.984 147.6C173.093 147.6 173.93 148.016 174.496 148.848V144.544H175.808ZM172.208 148.816C171.482 148.816 170.896 149.104 170.448 149.68C170.01 150.245 169.792 150.997 169.792 151.936C169.792 152.907 170.048 153.669 170.56 154.224C170.997 154.715 171.552 154.96 172.224 154.96C172.917 154.96 173.466 154.688 173.872 154.144C174.288 153.6 174.496 152.864 174.496 151.936C174.496 150.923 174.261 150.133 173.792 149.568C173.376 149.067 172.848 148.816 172.208 148.816ZM185.15 154.896V155.952C184.787 156.08 184.505 156.144 184.302 156.144C183.449 156.144 182.985 155.755 182.91 154.976C182.323 155.776 181.39 156.176 180.11 156.176C179.225 156.176 178.537 155.931 178.046 155.44C177.619 155.013 177.406 154.464 177.406 153.792C177.406 153.024 177.678 152.432 178.222 152.016C178.531 151.781 179.177 151.552 180.158 151.328L182.846 150.72L182.862 150.032C182.862 149.211 182.243 148.8 181.006 148.8C179.822 148.8 179.187 149.28 179.102 150.24H177.774C177.806 149.515 177.987 148.96 178.318 148.576C178.883 147.925 179.801 147.6 181.07 147.6C183.129 147.6 184.158 148.347 184.158 149.84V154.432C184.158 154.837 184.334 155.04 184.686 155.04C184.729 155.04 184.841 155.008 185.022 154.944C185.086 154.923 185.129 154.907 185.15 154.896ZM182.862 151.792L180.75 152.336C179.993 152.528 179.47 152.725 179.182 152.928C178.905 153.131 178.766 153.413 178.766 153.776C178.766 154.619 179.31 155.04 180.398 155.04C181.166 155.04 181.817 154.789 182.35 154.288C182.691 153.979 182.862 153.627 182.862 153.232V151.792ZM189.804 147.776V148.832H188.124V154.304C188.124 154.496 188.188 154.661 188.316 154.8C188.455 154.928 188.631 154.992 188.844 154.992C189.047 154.992 189.356 154.944 189.772 154.848L189.916 156C189.255 156.117 188.754 156.176 188.412 156.176C187.356 156.176 186.828 155.744 186.828 154.88V148.832H185.708V147.776H186.828V146.096L188.124 145.504V147.776H189.804ZM198.282 152.272H192.218C192.229 152.976 192.378 153.536 192.666 153.952C193.125 154.624 193.786 154.96 194.65 154.96C195.717 154.96 196.437 154.453 196.81 153.44H198.122C197.952 154.304 197.557 154.976 196.938 155.456C196.32 155.936 195.541 156.176 194.602 156.176C193.354 156.176 192.4 155.749 191.738 154.896C191.152 154.149 190.858 153.163 190.858 151.936C190.858 150.517 191.242 149.413 192.01 148.624C192.682 147.941 193.552 147.6 194.618 147.6C195.397 147.6 196.08 147.787 196.666 148.16C197.264 148.533 197.69 149.045 197.946 149.696C198.17 150.251 198.282 151.093 198.282 152.224V152.272ZM196.874 151.2C196.874 150.485 196.661 149.909 196.234 149.472C195.818 149.024 195.28 148.8 194.618 148.8C193.946 148.8 193.397 149.019 192.97 149.456C192.554 149.883 192.32 150.464 192.266 151.2H196.874ZM205.913 150.032H204.473C204.43 149.211 203.881 148.8 202.825 148.8C202.281 148.8 201.849 148.907 201.529 149.12C201.219 149.323 201.065 149.6 201.065 149.952C201.065 150.485 201.571 150.869 202.585 151.104L203.849 151.392C204.67 151.584 205.262 151.856 205.625 152.208C205.987 152.56 206.169 153.04 206.169 153.648C206.169 154.427 205.865 155.045 205.257 155.504C204.649 155.952 203.827 156.176 202.793 156.176C201.662 156.176 200.803 155.909 200.217 155.376C199.726 154.939 199.465 154.357 199.433 153.632H200.921C201.006 154.005 201.123 154.277 201.273 154.448C201.561 154.789 202.099 154.96 202.889 154.96C203.475 154.96 203.939 154.853 204.281 154.64C204.633 154.416 204.809 154.123 204.809 153.76C204.809 153.216 204.387 152.843 203.545 152.64L202.313 152.352C201.374 152.128 200.718 151.861 200.345 151.552C199.918 151.2 199.705 150.693 199.705 150.032C199.705 149.285 199.987 148.693 200.553 148.256C201.129 147.819 201.897 147.6 202.857 147.6C203.859 147.6 204.638 147.851 205.193 148.352C205.673 148.789 205.913 149.349 205.913 150.032ZM218.47 156H216.982L215.302 149.536L213.718 156H212.246L209.862 147.776H211.302L212.998 154.176L214.566 147.776H216.166L217.782 154.176L219.414 147.776H220.886L218.47 156ZM223.445 147.776V156H222.149V147.776H223.445ZM222.821 144.56C223.045 144.56 223.232 144.64 223.381 144.8C223.541 144.949 223.621 145.131 223.621 145.344C223.621 145.568 223.541 145.76 223.381 145.92C223.232 146.069 223.045 146.144 222.821 146.144C222.608 146.144 222.421 146.069 222.261 145.92C222.112 145.76 222.037 145.568 222.037 145.344C222.037 145.131 222.112 144.949 222.261 144.8C222.421 144.64 222.608 144.56 222.821 144.56ZM228.914 147.776V148.832H227.234V154.304C227.234 154.496 227.298 154.661 227.426 154.8C227.564 154.928 227.74 154.992 227.954 154.992C228.156 154.992 228.466 154.944 228.882 154.848L229.026 156C228.364 156.117 227.863 156.176 227.522 156.176C226.466 156.176 225.938 155.744 225.938 154.88V148.832H224.818V147.776H225.938V146.096L227.234 145.504V147.776H228.914ZM230.448 144.544H231.744V148.928C232.138 148.437 232.533 148.096 232.928 147.904C233.322 147.701 233.813 147.6 234.4 147.6C235.2 147.6 235.829 147.803 236.288 148.208C236.746 148.603 236.976 149.147 236.976 149.84V156H235.68V150.368C235.68 149.792 235.504 149.371 235.152 149.104C234.821 148.859 234.432 148.736 233.984 148.736C233.312 148.736 232.768 148.987 232.352 149.488C231.946 149.989 231.744 150.656 231.744 151.488V156H230.448V144.544ZM240.414 147.776V156H239.118V147.776H240.414ZM239.79 144.56C240.014 144.56 240.201 144.64 240.35 144.8C240.51 144.949 240.59 145.131 240.59 145.344C240.59 145.568 240.51 145.76 240.35 145.92C240.201 146.069 240.014 146.144 239.79 146.144C239.577 146.144 239.39 146.069 239.23 145.92C239.081 145.76 239.006 145.568 239.006 145.344C239.006 145.131 239.081 144.949 239.23 144.8C239.39 144.64 239.577 144.56 239.79 144.56ZM242.667 147.776H243.883V149.168C244.544 148.123 245.451 147.6 246.603 147.6C247.403 147.6 248.037 147.803 248.507 148.208C248.976 148.603 249.211 149.136 249.211 149.808V156H247.915V150.336C247.915 149.845 247.76 149.456 247.451 149.168C247.152 148.88 246.741 148.736 246.219 148.736C245.536 148.736 244.992 148.987 244.587 149.488C244.181 149.989 243.979 150.656 243.979 151.488V156H242.667V147.776ZM257.554 147.776V148.832H255.874V154.304C255.874 154.496 255.938 154.661 256.066 154.8C256.205 154.928 256.381 154.992 256.594 154.992C256.797 154.992 257.106 154.944 257.522 154.848L257.666 156C257.005 156.117 256.504 156.176 256.162 156.176C255.106 156.176 254.578 155.744 254.578 154.88V148.832H253.458V147.776H254.578V146.096L255.874 145.504V147.776H257.554ZM259.088 144.544H260.384V148.928C260.779 148.437 261.174 148.096 261.568 147.904C261.963 147.701 262.454 147.6 263.04 147.6C263.84 147.6 264.47 147.803 264.928 148.208C265.387 148.603 265.616 149.147 265.616 149.84V156H264.32V150.368C264.32 149.792 264.144 149.371 263.792 149.104C263.462 148.859 263.072 148.736 262.624 148.736C261.952 148.736 261.408 148.987 260.992 149.488C260.587 149.989 260.384 150.656 260.384 151.488V156H259.088V144.544ZM274.767 152.272H268.703C268.713 152.976 268.863 153.536 269.151 153.952C269.609 154.624 270.271 154.96 271.135 154.96C272.201 154.96 272.921 154.453 273.295 153.44H274.607C274.436 154.304 274.041 154.976 273.423 155.456C272.804 155.936 272.025 156.176 271.087 156.176C269.839 156.176 268.884 155.749 268.223 154.896C267.636 154.149 267.343 153.163 267.343 151.936C267.343 150.517 267.727 149.413 268.495 148.624C269.167 147.941 270.036 147.6 271.103 147.6C271.881 147.6 272.564 147.787 273.151 148.16C273.748 148.533 274.175 149.045 274.431 149.696C274.655 150.251 274.767 151.093 274.767 152.224V152.272ZM273.359 151.2C273.359 150.485 273.145 149.909 272.719 149.472C272.303 149.024 271.764 148.8 271.103 148.8C270.431 148.8 269.881 149.019 269.455 149.456C269.039 149.883 268.804 150.464 268.751 151.2H273.359ZM277.789 147.776V156H276.493V147.776H277.789ZM277.165 144.56C277.389 144.56 277.576 144.64 277.725 144.8C277.885 144.949 277.965 145.131 277.965 145.344C277.965 145.568 277.885 145.76 277.725 145.92C277.576 146.069 277.389 146.144 277.165 146.144C276.952 146.144 276.765 146.069 276.605 145.92C276.456 145.76 276.381 145.568 276.381 145.344C276.381 145.131 276.456 144.949 276.605 144.8C276.765 144.64 276.952 144.56 277.165 144.56ZM280.026 147.776H281.242V149.28C281.722 148.149 282.479 147.584 283.514 147.584C283.642 147.584 283.796 147.6 283.978 147.632V148.976C283.124 148.987 282.538 149.109 282.218 149.344C281.631 149.771 281.338 150.565 281.338 151.728V156H280.026V147.776ZM30.944 174.032H29.504C29.4613 173.211 28.912 172.8 27.856 172.8C27.312 172.8 26.88 172.907 26.56 173.12C26.2507 173.323 26.096 173.6 26.096 173.952C26.096 174.485 26.6027 174.869 27.616 175.104L28.88 175.392C29.7013 175.584 30.2933 175.856 30.656 176.208C31.0187 176.56 31.2 177.04 31.2 177.648C31.2 178.427 30.896 179.045 30.288 179.504C29.68 179.952 28.8587 180.176 27.824 180.176C26.6933 180.176 25.8347 179.909 25.248 179.376C24.7573 178.939 24.496 178.357 24.464 177.632H25.952C26.0373 178.005 26.1547 178.277 26.304 178.448C26.592 178.789 27.1307 178.96 27.92 178.96C28.5067 178.96 28.9707 178.853 29.312 178.64C29.664 178.416 29.84 178.123 29.84 177.76C29.84 177.216 29.4187 176.843 28.576 176.64L27.344 176.352C26.4053 176.128 25.7493 175.861 25.376 175.552C24.9493 175.2 24.736 174.693 24.736 174.032C24.736 173.285 25.0187 172.693 25.584 172.256C26.16 171.819 26.928 171.6 27.888 171.6C28.8907 171.6 29.6693 171.851 30.224 172.352C30.704 172.789 30.944 173.349 30.944 174.032ZM39.4274 180H38.1314V178.704C37.5447 179.685 36.67 180.176 35.5074 180.176C34.7074 180.176 34.0674 179.979 33.5874 179.584C33.118 179.179 32.8834 178.64 32.8834 177.968V171.776H34.1794V177.44C34.1794 177.92 34.334 178.304 34.6434 178.592C34.9527 178.88 35.3687 179.024 35.8914 179.024C36.574 179.024 37.118 178.779 37.5234 178.288C37.9287 177.787 38.1314 177.115 38.1314 176.272V171.776H39.4274V180ZM41.4418 168.544H42.7378V172.88C43.3458 172.027 44.1991 171.6 45.2977 171.6C46.4604 171.6 47.3564 172.027 47.9858 172.88C48.5404 173.627 48.8177 174.613 48.8177 175.84C48.8177 177.259 48.4498 178.363 47.7138 179.152C47.0738 179.835 46.2471 180.176 45.2338 180.176C44.0924 180.176 43.2231 179.744 42.6258 178.88V180H41.4418V168.544ZM45.0578 172.816C44.3538 172.816 43.7884 173.104 43.3618 173.68C42.9458 174.245 42.7378 174.997 42.7378 175.936C42.7378 176.917 42.9778 177.685 43.4578 178.24C43.8738 178.709 44.4071 178.944 45.0578 178.944C45.7831 178.944 46.3591 178.672 46.7858 178.128C47.2231 177.584 47.4418 176.853 47.4418 175.936C47.4418 174.933 47.1964 174.144 46.7058 173.568C46.2791 173.067 45.7298 172.816 45.0578 172.816ZM56.2721 174.032H54.8321C54.7895 173.211 54.2401 172.8 53.1841 172.8C52.6401 172.8 52.2081 172.907 51.8881 173.12C51.5788 173.323 51.4241 173.6 51.4241 173.952C51.4241 174.485 51.9308 174.869 52.9441 175.104L54.2081 175.392C55.0295 175.584 55.6215 175.856 55.9841 176.208C56.3468 176.56 56.5281 177.04 56.5281 177.648C56.5281 178.427 56.2241 179.045 55.6161 179.504C55.0081 179.952 54.1868 180.176 53.1521 180.176C52.0215 180.176 51.1628 179.909 50.5761 179.376C50.0855 178.939 49.8241 178.357 49.7921 177.632H51.2801C51.3655 178.005 51.4828 178.277 51.6321 178.448C51.9201 178.789 52.4588 178.96 53.2481 178.96C53.8348 178.96 54.2988 178.853 54.6401 178.64C54.9921 178.416 55.1681 178.123 55.1681 177.76C55.1681 177.216 54.7468 176.843 53.9041 176.64L52.6721 176.352C51.7335 176.128 51.0775 175.861 50.7041 175.552C50.2775 175.2 50.0641 174.693 50.0641 174.032C50.0641 173.285 50.3468 172.693 50.9121 172.256C51.4881 171.819 52.2561 171.6 53.2161 171.6C54.2188 171.6 54.9975 171.851 55.5521 172.352C56.0321 172.789 56.2721 173.349 56.2721 174.032ZM64.5795 174.528H63.2675C63.1075 173.376 62.4568 172.8 61.3155 172.8C60.6008 172.8 60.0408 173.083 59.6355 173.648C59.2302 174.213 59.0275 174.997 59.0275 176C59.0275 176.992 59.2675 177.749 59.7475 178.272C60.1528 178.731 60.6968 178.96 61.3795 178.96C62.4782 178.96 63.1342 178.363 63.3475 177.168H64.6755C64.5902 178.192 64.2222 178.965 63.5715 179.488C63.0062 179.947 62.2648 180.176 61.3475 180.176C60.1422 180.176 59.2035 179.749 58.5315 178.896C57.9555 178.16 57.6675 177.195 57.6675 176C57.6675 174.571 58.0462 173.451 58.8035 172.64C59.4542 171.947 60.2968 171.6 61.3315 171.6C62.5262 171.6 63.4222 172 64.0195 172.8C64.3288 173.216 64.5155 173.792 64.5795 174.528ZM66.1349 171.776H67.3509V173.28C67.8309 172.149 68.5882 171.584 69.6229 171.584C69.7509 171.584 69.9055 171.6 70.0869 171.632V172.976C69.2335 172.987 68.6469 173.109 68.3269 173.344C67.7402 173.771 67.4469 174.565 67.4469 175.728V180H66.1349V171.776ZM72.6173 171.776V180H71.3213V171.776H72.6173ZM71.9933 168.56C72.2173 168.56 72.4039 168.64 72.5533 168.8C72.7133 168.949 72.7933 169.131 72.7933 169.344C72.7933 169.568 72.7133 169.76 72.5533 169.92C72.4039 170.069 72.2173 170.144 71.9933 170.144C71.7799 170.144 71.5933 170.069 71.4333 169.92C71.2839 169.76 71.2093 169.568 71.2093 169.344C71.2093 169.131 71.2839 168.949 71.4333 168.8C71.5933 168.64 71.7799 168.56 71.9933 168.56ZM74.6136 168.544H75.9096V172.88C76.5176 172.027 77.371 171.6 78.4696 171.6C79.6323 171.6 80.5283 172.027 81.1576 172.88C81.7123 173.627 81.9896 174.613 81.9896 175.84C81.9896 177.259 81.6216 178.363 80.8856 179.152C80.2456 179.835 79.419 180.176 78.4056 180.176C77.2643 180.176 76.395 179.744 75.7976 178.88V180H74.6136V168.544ZM78.2296 172.816C77.5256 172.816 76.9603 173.104 76.5336 173.68C76.1176 174.245 75.9096 174.997 75.9096 175.936C75.9096 176.917 76.1496 177.685 76.6296 178.24C77.0456 178.709 77.579 178.944 78.2296 178.944C78.955 178.944 79.531 178.672 79.9576 178.128C80.395 177.584 80.6136 176.853 80.6136 175.936C80.6136 174.933 80.3683 174.144 79.8776 173.568C79.451 173.067 78.9016 172.816 78.2296 172.816ZM90.548 176.272H84.484C84.4947 176.976 84.644 177.536 84.932 177.952C85.3907 178.624 86.052 178.96 86.916 178.96C87.9827 178.96 88.7027 178.453 89.076 177.44H90.388C90.2173 178.304 89.8227 178.976 89.204 179.456C88.5853 179.936 87.8067 180.176 86.868 180.176C85.62 180.176 84.6653 179.749 84.004 178.896C83.4173 178.149 83.124 177.163 83.124 175.936C83.124 174.517 83.508 173.413 84.276 172.624C84.948 171.941 85.8173 171.6 86.884 171.6C87.6627 171.6 88.3453 171.787 88.932 172.16C89.5293 172.533 89.956 173.045 90.212 173.696C90.436 174.251 90.548 175.093 90.548 176.224V176.272ZM89.14 175.2C89.14 174.485 88.9267 173.909 88.5 173.472C88.084 173.024 87.5453 172.8 86.884 172.8C86.212 172.8 85.6627 173.019 85.236 173.456C84.82 173.883 84.5853 174.464 84.532 175.2H89.14ZM99.0264 168.544V180H97.7144V178.864C97.1917 179.749 96.381 180.192 95.2824 180.192C94.077 180.192 93.149 179.755 92.4984 178.88C91.933 178.112 91.6504 177.099 91.6504 175.84C91.6504 174.464 92.0184 173.387 92.7544 172.608C93.3837 171.936 94.1997 171.6 95.2024 171.6C96.3117 171.6 97.149 172.016 97.7144 172.848V168.544H99.0264ZM95.4264 172.816C94.701 172.816 94.1144 173.104 93.6664 173.68C93.229 174.245 93.0104 174.997 93.0104 175.936C93.0104 176.907 93.2664 177.669 93.7784 178.224C94.2157 178.715 94.7704 178.96 95.4424 178.96C96.1357 178.96 96.685 178.688 97.0904 178.144C97.5064 177.6 97.7144 176.864 97.7144 175.936C97.7144 174.923 97.4797 174.133 97.0104 173.568C96.5944 173.067 96.0664 172.816 95.4264 172.816ZM105.29 168.544V180H103.978V168.544H105.29ZM108.727 171.776V180H107.431V171.776H108.727ZM108.103 168.56C108.327 168.56 108.513 168.64 108.663 168.8C108.823 168.949 108.903 169.131 108.903 169.344C108.903 169.568 108.823 169.76 108.663 169.92C108.513 170.069 108.327 170.144 108.103 170.144C107.889 170.144 107.703 170.069 107.543 169.92C107.393 169.76 107.319 169.568 107.319 169.344C107.319 169.131 107.393 168.949 107.543 168.8C107.703 168.64 107.889 168.56 108.103 168.56ZM116.819 174.032H115.379C115.336 173.211 114.787 172.8 113.731 172.8C113.187 172.8 112.755 172.907 112.435 173.12C112.126 173.323 111.971 173.6 111.971 173.952C111.971 174.485 112.478 174.869 113.491 175.104L114.755 175.392C115.576 175.584 116.168 175.856 116.531 176.208C116.894 176.56 117.075 177.04 117.075 177.648C117.075 178.427 116.771 179.045 116.163 179.504C115.555 179.952 114.734 180.176 113.699 180.176C112.568 180.176 111.71 179.909 111.123 179.376C110.632 178.939 110.371 178.357 110.339 177.632H111.827C111.912 178.005 112.03 178.277 112.179 178.448C112.467 178.789 113.006 178.96 113.795 178.96C114.382 178.96 114.846 178.853 115.187 178.64C115.539 178.416 115.715 178.123 115.715 177.76C115.715 177.216 115.294 176.843 114.451 176.64L113.219 176.352C112.28 176.128 111.624 175.861 111.251 175.552C110.824 175.2 110.611 174.693 110.611 174.032C110.611 173.285 110.894 172.693 111.459 172.256C112.035 171.819 112.803 171.6 113.763 171.6C114.766 171.6 115.544 171.851 116.099 172.352C116.579 172.789 116.819 173.349 116.819 174.032ZM122.054 171.776V172.832H120.374V178.304C120.374 178.496 120.438 178.661 120.566 178.8C120.705 178.928 120.881 178.992 121.094 178.992C121.297 178.992 121.606 178.944 122.022 178.848L122.166 180C121.505 180.117 121.004 180.176 120.662 180.176C119.606 180.176 119.078 179.744 119.078 178.88V172.832H117.958V171.776H119.078V170.096L120.374 169.504V171.776H122.054ZM129.428 174.032H127.988C127.946 173.211 127.396 172.8 126.34 172.8C125.796 172.8 125.364 172.907 125.044 173.12C124.735 173.323 124.58 173.6 124.58 173.952C124.58 174.485 125.087 174.869 126.1 175.104L127.364 175.392C128.186 175.584 128.778 175.856 129.14 176.208C129.503 176.56 129.684 177.04 129.684 177.648C129.684 178.427 129.38 179.045 128.772 179.504C128.164 179.952 127.343 180.176 126.308 180.176C125.178 180.176 124.319 179.909 123.732 179.376C123.242 178.939 122.98 178.357 122.948 177.632H124.436C124.522 178.005 124.639 178.277 124.788 178.448C125.076 178.789 125.615 178.96 126.404 178.96C126.991 178.96 127.455 178.853 127.796 178.64C128.148 178.416 128.324 178.123 128.324 177.76C128.324 177.216 127.903 176.843 127.06 176.64L125.828 176.352C124.89 176.128 124.234 175.861 123.86 175.552C123.434 175.2 123.22 174.693 123.22 174.032C123.22 173.285 123.503 172.693 124.068 172.256C124.644 171.819 125.412 171.6 126.372 171.6C127.375 171.6 128.154 171.851 128.708 172.352C129.188 172.789 129.428 173.349 129.428 174.032ZM131.944 178.512C132.168 178.512 132.354 178.587 132.504 178.736C132.653 178.885 132.728 179.072 132.728 179.296C132.728 179.509 132.653 179.696 132.504 179.856C132.354 180.005 132.168 180.08 131.944 180.08C131.73 180.08 131.544 180.005 131.384 179.856C131.234 179.696 131.16 179.509 131.16 179.296C131.16 179.072 131.234 178.885 131.384 178.736C131.544 178.587 131.73 178.512 131.944 178.512Z" fill="white"/>
</svg>
