<svg width="60" height="70" viewBox="0 0 88 100" fill="none" xmlns="http://www.w3.org/2000/svg">
<rect x="1.5" y="1.5" width="85" height="97" rx="16.5" stroke="#9162FA" stroke-width="2"/>
<path d="M43.853 49.9999C43.853 46.7272 46.5061 44.074 49.7789 44.074C53.0516 44.074 55.7047 46.7272 55.7047 49.9999C55.7047 53.2727 53.0516 55.9258 49.7789 55.9258C46.5061 55.9258 43.853 53.2727 43.853 49.9999Z" fill="#1ABCFE"/>
<path d="M32 61.8518C32 58.5791 34.6531 55.9259 37.9259 55.9259H43.8517V61.8518C43.8517 65.1246 41.1986 67.7777 37.9259 67.7777C34.6531 67.7777 32 65.1246 32 61.8518Z" fill="#0ACF83"/>
<path d="M43.853 32.2222V44.074H49.7789C53.0517 44.074 55.7047 41.4209 55.7047 38.1481C55.7047 34.8753 53.0517 32.2222 49.7789 32.2222H43.853Z" fill="#FF7262"/>
<path d="M32 38.1481C32 41.4209 34.6531 44.074 37.9259 44.074H43.8517V32.2222H37.9259C34.6531 32.2222 32 34.8753 32 38.1481Z" fill="#F24E1E"/>
<path d="M32 49.9999C32 53.2727 34.6531 55.9258 37.9259 55.9258H43.8517V44.074H37.9259C34.6531 44.074 32 46.7272 32 49.9999Z" fill="#A259FF"/>
</svg>
