<svg width="294" height="153" viewBox="0 0 294 153" fill="none" xmlns="http://www.w3.org/2000/svg">
<rect x="0.5" y="0.5" width="293" height="151.136" rx="7.5" stroke="#09B5FF" stroke-opacity="0.3"/>
<path d="M74.9584 45.4321H72.0173L75.4565 41.2175C75.6128 41.0247 75.645 40.759 75.5389 40.5352C75.4318 40.3113 75.2058 40.1689 74.9584 40.1689H69.3482C69.15 40.1689 68.9636 40.2599 68.8415 40.4163L63.2313 47.6192C63.0803 47.8131 63.0535 48.0755 63.1606 48.2961C63.2688 48.5168 63.4926 48.656 63.7379 48.656H69.3214L65.8715 55.1938C65.7205 55.4798 65.8061 55.8343 66.0707 56.0196C66.1832 56.0978 66.3117 56.1364 66.439 56.1364C66.6158 56.1364 66.7903 56.0635 66.9157 55.9243L75.4349 46.5053C75.6052 46.3168 75.6481 46.0458 75.5452 45.8134C75.4426 45.5821 75.2123 45.4321 74.9584 45.4321ZM69.3985 51.2641L70.9558 48.3133C71.0608 48.1141 71.0544 47.8752 70.9376 47.6824C70.8209 47.4886 70.612 47.3707 70.3871 47.3707H65.0532L69.662 41.4542H73.6046L70.1665 45.6688C70.009 45.8605 69.9769 46.1262 70.084 46.35C70.19 46.5739 70.416 46.7174 70.6645 46.7174H73.5103L69.3985 51.2641Z" fill="#09B5FF"/>
<path d="M70.6621 46.7174H73.5079L69.3961 51.2641L70.9534 48.3133C71.0584 48.1141 71.052 47.8752 70.9352 47.6824C70.8185 47.4886 70.6096 47.3707 70.3847 47.3707H65.0508L69.6596 41.4542H73.6022L70.1641 45.6688C70.0066 45.8605 69.9745 46.1262 70.0816 46.35C70.1877 46.5739 70.4136 46.7174 70.6621 46.7174Z" fill="black"/>
<path d="M57.809 24H44.7205C43.221 24 42 25.221 42 26.7205V51.339C42 52.8385 43.221 54.0595 44.7205 54.0595H57.809C59.3095 54.0595 60.5295 52.8385 60.5295 51.339V26.7205C60.5295 25.221 59.3095 24 57.809 24ZM59.2442 51.339C59.2442 52.1305 58.6005 52.7742 57.809 52.7742H44.7205C43.929 52.7742 43.2853 52.1305 43.2853 51.339V50.2262H48.5485C48.8398 51.4568 49.9463 52.3758 51.2647 52.3758C52.5832 52.3758 53.6907 51.4568 53.982 50.2262H59.2442V51.339ZM49.7588 49.5835C49.7588 48.7524 50.4347 48.0765 51.2647 48.0765C52.0959 48.0765 52.7717 48.7524 52.7717 49.5835C52.7717 50.4147 52.0959 51.0905 51.2647 51.0905C50.4347 51.0905 49.7588 50.4147 49.7588 49.5835ZM59.2442 48.9409H53.982C53.6907 47.7102 52.5832 46.7913 51.2647 46.7913C49.9463 46.7913 48.8398 47.7102 48.5485 48.9409H43.2853V29.3564H59.2442V48.9409ZM59.2442 28.0711H43.2853V26.7205C43.2853 25.929 43.929 25.2853 44.7205 25.2853H57.809C58.6005 25.2853 59.2442 25.929 59.2442 26.7205V28.0711Z" fill="#09B5FF"/>
<path d="M57.8088 25.2853H44.7204C43.9289 25.2853 43.2852 25.929 43.2852 26.7205V28.0711H59.2441V26.7205C59.2441 25.929 58.6004 25.2853 57.8088 25.2853ZM51.6138 27.2785H46.5808C46.2263 27.2785 45.9382 26.9915 45.9382 26.6359C45.9382 26.2814 46.2263 25.9933 46.5808 25.9933H51.6138C51.9683 25.9933 52.2564 26.2814 52.2564 26.6359C52.2564 26.9915 51.9683 27.2785 51.6138 27.2785ZM55.9998 27.2785H54.1993C53.8437 27.2785 53.5567 26.9915 53.5567 26.6359C53.5567 26.2814 53.8437 25.9933 54.1993 25.9933H55.9998C56.3543 25.9933 56.6424 26.2814 56.6424 26.6359C56.6424 26.9915 56.3543 27.2785 55.9998 27.2785ZM52.7716 49.5835C52.7716 50.4147 52.0958 51.0905 51.2646 51.0905C50.4345 51.0905 49.7587 50.4147 49.7587 49.5835C49.7587 48.7524 50.4345 48.0765 51.2646 48.0765C52.0958 48.0765 52.7716 48.7524 52.7716 49.5835Z" fill="black"/>
<path d="M59.2441 50.2262V51.339C59.2441 52.1306 58.6004 52.7743 57.8088 52.7743H44.7204C43.9289 52.7743 43.2852 52.1306 43.2852 51.339V50.2262H48.5484C48.8397 51.4569 49.9461 52.3758 51.2646 52.3758C52.5831 52.3758 53.6906 51.4569 53.9819 50.2262H59.2441Z" fill="black"/>
<path d="M59.2441 29.3564V48.9409H53.9819C53.6906 47.7102 52.5831 46.7912 51.2646 46.7912C49.9461 46.7912 48.8397 47.7102 48.5484 48.9409H43.2852V29.3564H59.2441Z" fill="#DDF2F7"/>
<path d="M49.2559 88.3707C47.2116 88.3707 45.571 87.7229 44.334 86.4274C43.1035 85.1253 42.4883 83.4847 42.4883 81.5055C42.4883 79.5198 43.1035 77.8824 44.334 76.5934C45.571 75.2978 47.2116 74.65 49.2559 74.65C51.3001 74.65 52.9375 75.2978 54.168 76.5934C55.4049 77.8824 56.0234 79.5198 56.0234 81.5055C56.0234 83.4847 55.4049 85.1253 54.168 86.4274C52.9375 87.7229 51.3001 88.3707 49.2559 88.3707ZM49.2559 87.277C50.8379 87.277 52.0293 86.665 52.8301 85.441C53.6374 84.2171 54.041 82.9052 54.041 81.5055C54.041 80.1058 53.6374 78.7972 52.8301 77.5797C52.0293 76.3558 50.8379 75.7438 49.2559 75.7438C47.6738 75.7438 46.4792 76.3558 45.6719 77.5797C44.8711 78.7972 44.4707 80.1058 44.4707 81.5055C44.4707 82.9052 44.8711 84.2171 45.6719 85.441C46.4792 86.665 47.6738 87.277 49.2559 87.277ZM65.8672 88.3707C65.2096 88.3707 64.8809 88.1884 64.8809 87.8239V82.7653C64.8809 82.0035 64.6725 81.2646 64.2559 80.5485C63.8392 79.8323 63.1816 79.4742 62.2832 79.4742C61.3197 79.4742 60.61 79.8649 60.1543 80.6461C59.6986 81.4209 59.4707 82.2151 59.4707 83.0289V87.8239C59.4707 88.1884 59.1419 88.3707 58.4844 88.3707C57.8203 88.3707 57.4883 88.1884 57.4883 87.8239V78.9274C57.4883 78.5628 57.8203 78.3805 58.4844 78.3805C59.1419 78.3805 59.4707 78.5628 59.4707 78.9274V79.5133C60.1868 78.7516 61.1634 78.3707 62.4004 78.3707C63.7025 78.3707 64.7702 78.7874 65.6035 79.6207C66.4434 80.4476 66.8633 81.4925 66.8633 82.7555V87.8239C66.8633 88.1884 66.5312 88.3707 65.8672 88.3707ZM69.5684 88.3707C68.9043 88.3707 68.5723 88.1884 68.5723 87.8239V75.1969C68.5723 74.8323 68.9043 74.65 69.5684 74.65C70.2259 74.65 70.5547 74.8323 70.5547 75.1969V87.8239C70.5547 88.1884 70.2259 88.3707 69.5684 88.3707ZM73.8164 77.5114C73.1458 77.5114 72.8105 77.1793 72.8105 76.5153C72.8105 75.8447 73.1458 75.5094 73.8164 75.5094C74.4805 75.5094 74.8125 75.8447 74.8125 76.5153C74.8125 77.1793 74.4805 77.5114 73.8164 77.5114ZM73.8164 88.3707C73.1523 88.3707 72.8203 88.1884 72.8203 87.8239V78.9176C72.8203 78.553 73.1523 78.3707 73.8164 78.3707C74.474 78.3707 74.8027 78.553 74.8027 78.9176V87.8239C74.8027 88.1884 74.474 88.3707 73.8164 88.3707ZM84.9102 88.3707C84.2526 88.3707 83.9238 88.1884 83.9238 87.8239V82.7653C83.9238 82.0035 83.7155 81.2646 83.2988 80.5485C82.8822 79.8323 82.2246 79.4742 81.3262 79.4742C80.3626 79.4742 79.653 79.8649 79.1973 80.6461C78.7415 81.4209 78.5137 82.2151 78.5137 83.0289V87.8239C78.5137 88.1884 78.1849 88.3707 77.5273 88.3707C76.8633 88.3707 76.5312 88.1884 76.5312 87.8239V78.9274C76.5312 78.5628 76.8633 78.3805 77.5273 78.3805C78.1849 78.3805 78.5137 78.5628 78.5137 78.9274V79.5133C79.2298 78.7516 80.2064 78.3707 81.4434 78.3707C82.7454 78.3707 83.8132 78.7874 84.6465 79.6207C85.4863 80.4476 85.9062 81.4925 85.9062 82.7555V87.8239C85.9062 88.1884 85.5742 88.3707 84.9102 88.3707ZM92.6348 88.3707C91.1569 88.3707 89.9102 87.9313 88.8945 87.0524C87.8789 86.167 87.3711 84.9593 87.3711 83.4293C87.3711 81.8733 87.8854 80.6429 88.9141 79.7379C89.9492 78.8265 91.2188 78.3707 92.7227 78.3707C94.1549 78.3707 95.3887 78.7483 96.4238 79.5035C97.459 80.2522 97.9766 81.3753 97.9766 82.8727C97.9766 83.2893 97.6478 83.4977 96.9902 83.4977H89.3438C89.3568 84.4612 89.6497 85.3336 90.2227 86.1149C90.7956 86.8961 91.6029 87.2867 92.6445 87.2867C93.3932 87.2867 94.0866 87.0849 94.7246 86.6813C95.3952 86.2516 95.7598 85.7438 95.8184 85.1578C95.8509 84.8193 96.1732 84.65 96.7852 84.65C97.4557 84.65 97.791 84.8291 97.791 85.1871C97.791 85.3694 97.7357 85.5908 97.625 85.8512C97.3841 86.4241 96.9251 86.9319 96.248 87.3746C95.2324 88.0387 94.028 88.3707 92.6348 88.3707ZM95.9746 82.4137C95.7663 80.441 94.6823 79.4547 92.7227 79.4547C90.9779 79.4547 89.8906 80.441 89.4609 82.4137H95.9746ZM114.158 88.1364H105.389C104.679 88.1364 104.324 87.941 104.324 87.5504V75.4703C104.324 75.0797 104.679 74.8844 105.389 74.8844H114.158C114.822 74.8844 115.154 75.0667 115.154 75.4313C115.154 75.7959 114.822 75.9781 114.158 75.9781H106.307V80.9586H112.918C113.576 80.9586 113.904 81.1409 113.904 81.5055C113.904 81.8701 113.576 82.0524 112.918 82.0524H106.307V87.0426H114.158C114.822 87.0426 115.154 87.2249 115.154 87.5895C115.154 87.9541 114.822 88.1364 114.158 88.1364ZM125.242 88.3707C124.585 88.3707 124.256 88.1884 124.256 87.8239V82.7653C124.256 82.0035 124.048 81.2646 123.631 80.5485C123.214 79.8323 122.557 79.4742 121.658 79.4742C120.695 79.4742 119.985 79.8649 119.529 80.6461C119.074 81.4209 118.846 82.2151 118.846 83.0289V87.8239C118.846 88.1884 118.517 88.3707 117.859 88.3707C117.195 88.3707 116.863 88.1884 116.863 87.8239V78.9274C116.863 78.5628 117.195 78.3805 117.859 78.3805C118.517 78.3805 118.846 78.5628 118.846 78.9274V79.5133C119.562 78.7516 120.538 78.3707 121.775 78.3707C123.077 78.3707 124.145 78.7874 124.979 79.6207C125.818 80.4476 126.238 81.4925 126.238 82.7555V87.8239C126.238 88.1884 125.906 88.3707 125.242 88.3707ZM132.967 88.3707C131.489 88.3707 130.242 87.9313 129.227 87.0524C128.211 86.167 127.703 84.9593 127.703 83.4293C127.703 81.8733 128.217 80.6429 129.246 79.7379C130.281 78.8265 131.551 78.3707 133.055 78.3707C134.487 78.3707 135.721 78.7483 136.756 79.5035C137.791 80.2522 138.309 81.3753 138.309 82.8727C138.309 83.2893 137.98 83.4977 137.322 83.4977H129.676C129.689 84.4612 129.982 85.3336 130.555 86.1149C131.128 86.8961 131.935 87.2867 132.977 87.2867C133.725 87.2867 134.419 87.0849 135.057 86.6813C135.727 86.2516 136.092 85.7438 136.15 85.1578C136.183 84.8193 136.505 84.65 137.117 84.65C137.788 84.65 138.123 84.8291 138.123 85.1871C138.123 85.3694 138.068 85.5908 137.957 85.8512C137.716 86.4241 137.257 86.9319 136.58 87.3746C135.564 88.0387 134.36 88.3707 132.967 88.3707ZM136.307 82.4137C136.098 80.441 135.014 79.4547 133.055 79.4547C131.31 79.4547 130.223 80.441 129.793 82.4137H136.307ZM140.77 88.3707C140.105 88.3707 139.773 88.1884 139.773 87.8239V78.9176C139.773 78.553 140.105 78.3707 140.77 78.3707C141.427 78.3707 141.756 78.553 141.756 78.9176V79.5133C142.296 78.7516 143.084 78.3707 144.119 78.3707C144.907 78.3707 145.587 78.5563 146.16 78.9274C146.323 79.0315 146.404 79.1552 146.404 79.2985C146.404 79.4808 146.3 79.6403 146.092 79.777C145.91 79.9007 145.708 79.9625 145.486 79.9625C145.278 79.9625 145.099 79.9072 144.949 79.7965C144.643 79.5556 144.301 79.4352 143.924 79.4352C143.169 79.4352 142.599 79.8323 142.215 80.6266C141.909 81.2451 141.756 82.0784 141.756 83.1266V87.8239C141.756 88.1884 141.427 88.3707 140.77 88.3707ZM156.619 87.7457C156.619 89.2561 156.095 90.3564 155.047 91.0465C154.005 91.7366 152.804 92.0817 151.443 92.0817C150.649 92.0817 149.78 91.9482 148.836 91.6813C147.892 91.4143 147.189 90.9489 146.727 90.2848C146.681 90.2197 146.658 90.1546 146.658 90.0895C146.658 89.7314 146.99 89.5524 147.654 89.5524C148.117 89.5524 148.426 89.6663 148.582 89.8942C148.862 90.2978 149.282 90.581 149.842 90.7438C150.408 90.9065 150.932 90.9879 151.414 90.9879C153.569 90.9879 154.646 89.9072 154.646 87.7457V87.2379C153.917 87.9866 152.915 88.361 151.639 88.361C148.312 88.361 146.648 86.6943 146.648 83.361C146.648 80.0276 148.315 78.361 151.648 78.361C152.892 78.361 153.898 78.7418 154.666 79.5035V78.9078C154.666 78.5433 154.995 78.361 155.652 78.361C156.303 78.361 156.629 78.5433 156.629 78.9078L156.619 87.7457ZM151.639 87.2672C152.667 87.2672 153.429 86.8343 153.924 85.9684C154.419 85.1025 154.666 84.2334 154.666 83.361C154.666 82.4886 154.419 81.6194 153.924 80.7535C153.436 79.8877 152.677 79.4547 151.648 79.4547C150.626 79.4547 149.868 79.8877 149.373 80.7535C148.878 81.6194 148.631 82.4886 148.631 83.361C148.631 84.2334 148.875 85.1025 149.363 85.9684C149.858 86.8343 150.617 87.2672 151.639 87.2672ZM167.957 87.8141C167.957 89.2854 167.479 90.3564 166.521 91.027C165.571 91.7041 164.419 92.0426 163.064 92.0426C162.283 92.0426 161.466 91.9091 160.613 91.6422C159.767 91.3753 159.113 90.9098 158.65 90.2457C158.605 90.1806 158.582 90.1155 158.582 90.0504C158.582 89.6923 158.911 89.5133 159.568 89.5133C160.031 89.5133 160.34 89.6272 160.496 89.8551C160.997 90.5843 161.847 90.9489 163.045 90.9489C164.998 90.9489 165.975 89.8681 165.975 87.7067V87.1793C165.337 87.941 164.435 88.3219 163.27 88.3219C160.145 88.3219 158.582 86.8571 158.582 83.9274V78.8688C158.582 78.5042 158.914 78.3219 159.578 78.3219C160.236 78.3219 160.564 78.5042 160.564 78.8688V83.9274C160.564 84.7151 160.789 85.4638 161.238 86.1735C161.688 86.8831 162.365 87.2379 163.27 87.2379C164.142 87.2379 164.809 86.8831 165.271 86.1735C165.74 85.4638 165.975 84.7249 165.975 83.9567V78.8688C165.975 78.5042 166.303 78.3219 166.961 78.3219C167.625 78.3219 167.957 78.5042 167.957 78.8688V87.8141ZM180.389 88.3707C179.106 88.3707 177.853 87.9834 176.629 87.2086C175.405 86.4274 174.793 85.3304 174.793 83.9176V75.1969C174.793 74.8323 175.122 74.65 175.779 74.65C176.443 74.65 176.775 74.8323 176.775 75.1969V83.9176C176.775 84.8746 177.15 85.6754 177.898 86.3199C178.654 86.958 179.49 87.277 180.408 87.277C181.333 87.277 182.166 86.9515 182.908 86.3004C183.657 85.6494 184.031 84.8551 184.031 83.9176V75.1969C184.031 74.8323 184.363 74.65 185.027 74.65C185.685 74.65 186.014 74.8323 186.014 75.1969V83.9176C186.014 85.3369 185.395 86.4339 184.158 87.2086C182.928 87.9834 181.671 88.3707 180.389 88.3707ZM196.355 88.3707C195.698 88.3707 195.369 88.1884 195.369 87.8239V82.7653C195.369 82.0035 195.161 81.2646 194.744 80.5485C194.327 79.8323 193.67 79.4742 192.771 79.4742C191.808 79.4742 191.098 79.8649 190.643 80.6461C190.187 81.4209 189.959 82.2151 189.959 83.0289V87.8239C189.959 88.1884 189.63 88.3707 188.973 88.3707C188.309 88.3707 187.977 88.1884 187.977 87.8239V78.9274C187.977 78.5628 188.309 78.3805 188.973 78.3805C189.63 78.3805 189.959 78.5628 189.959 78.9274V79.5133C190.675 78.7516 191.652 78.3707 192.889 78.3707C194.191 78.3707 195.258 78.7874 196.092 79.6207C196.932 80.4476 197.352 81.4925 197.352 82.7555V87.8239C197.352 88.1884 197.02 88.3707 196.355 88.3707ZM200.066 77.5114C199.396 77.5114 199.061 77.1793 199.061 76.5153C199.061 75.8447 199.396 75.5094 200.066 75.5094C200.73 75.5094 201.062 75.8447 201.062 76.5153C201.062 77.1793 200.73 77.5114 200.066 77.5114ZM200.066 88.3707C199.402 88.3707 199.07 88.1884 199.07 87.8239V78.9176C199.07 78.553 199.402 78.3707 200.066 78.3707C200.724 78.3707 201.053 78.553 201.053 78.9176V87.8239C201.053 88.1884 200.724 88.3707 200.066 88.3707ZM207.41 88.3707C205.216 88.3577 204.119 87.4593 204.119 85.6754V79.4645H203.025C202.368 79.4645 202.039 79.2822 202.039 78.9176C202.039 78.553 202.368 78.3707 203.025 78.3707H204.119V75.1969C204.119 74.8323 204.451 74.65 205.115 74.65C205.779 74.65 206.111 74.8323 206.111 75.1969V78.3707H207.752C208.416 78.3707 208.748 78.553 208.748 78.9176C208.748 79.2822 208.416 79.4645 207.752 79.4645H206.111V85.6754C206.111 86.7431 206.548 87.277 207.42 87.277C207.602 87.277 207.775 87.2607 207.938 87.2281C208.107 87.1891 208.276 87.1696 208.445 87.1696C209.129 87.1696 209.471 87.3584 209.471 87.736C209.471 87.9899 209.197 88.1656 208.65 88.2633C208.221 88.3349 207.807 88.3707 207.41 88.3707ZM43.9727 116.371C43.3086 116.371 42.9766 116.188 42.9766 115.824V103.431C42.9766 103.067 43.3086 102.884 43.9727 102.884H50.1152C51.1699 102.884 52.1335 103.21 53.0059 103.861C53.8848 104.512 54.3242 105.394 54.3242 106.507C54.3242 107.621 53.8848 108.506 53.0059 109.164C52.1335 109.815 51.1699 110.14 50.1152 110.14H44.959V115.824C44.959 116.188 44.6302 116.371 43.9727 116.371ZM50.1152 109.047C50.7598 109.047 51.2904 108.773 51.707 108.226C52.1302 107.673 52.3418 107.1 52.3418 106.507C52.3418 105.915 52.1302 105.345 51.707 104.798C51.2904 104.252 50.7598 103.978 50.1152 103.978H44.959V109.047H50.1152ZM56.7852 106.371C57.4427 106.371 57.7715 106.553 57.7715 106.918V111.976C57.7715 112.738 57.9798 113.477 58.3965 114.193C58.8132 114.909 59.4707 115.267 60.3691 115.267C61.3327 115.267 62.0423 114.88 62.498 114.105C62.9538 113.324 63.1816 112.526 63.1816 111.713V106.918C63.1816 106.553 63.5104 106.371 64.168 106.371C64.832 106.371 65.1641 106.553 65.1641 106.918V115.814C65.1641 116.179 64.832 116.361 64.168 116.361C63.5104 116.361 63.1816 116.179 63.1816 115.814V115.228C62.4655 115.99 61.4889 116.371 60.252 116.371C58.9499 116.371 57.8789 115.957 57.0391 115.13C56.2057 114.297 55.7891 113.249 55.7891 111.986V106.918C55.7891 106.553 56.1211 106.371 56.7852 106.371ZM68.1133 116.371C67.4492 116.371 67.1172 116.188 67.1172 115.824V106.918C67.1172 106.553 67.4492 106.371 68.1133 106.371C68.7708 106.371 69.0996 106.553 69.0996 106.918V107.513C69.64 106.752 70.4277 106.371 71.4629 106.371C72.2507 106.371 72.931 106.556 73.5039 106.927C73.6667 107.032 73.748 107.155 73.748 107.298C73.748 107.481 73.6439 107.64 73.4355 107.777C73.2533 107.901 73.0514 107.963 72.8301 107.963C72.6217 107.963 72.4427 107.907 72.293 107.797C71.987 107.556 71.6452 107.435 71.2676 107.435C70.5124 107.435 69.9427 107.832 69.5586 108.627C69.2526 109.245 69.0996 110.078 69.0996 111.127V115.824C69.0996 116.188 68.7708 116.371 68.1133 116.371ZM79.207 116.371C75.724 116.371 73.9824 114.717 73.9824 111.41C73.9824 109.834 74.487 108.601 75.4961 107.709C76.5052 106.817 77.7747 106.371 79.3047 106.371C80.2682 106.371 81.235 106.618 82.2051 107.113C83.1816 107.608 83.7611 108.366 83.9434 109.388C83.9564 109.466 83.9629 109.519 83.9629 109.545C83.9629 109.903 83.6341 110.082 82.9766 110.082C82.3646 110.082 82.0358 109.916 81.9902 109.584C81.7884 108.164 80.89 107.455 79.2949 107.455C78.1882 107.455 77.3548 107.868 76.7949 108.695C76.235 109.515 75.9551 110.427 75.9551 111.429C75.9616 112.406 76.235 113.295 76.7754 114.095C77.3158 114.89 78.1393 115.287 79.2461 115.287C80.8216 115.287 81.7428 114.574 82.0098 113.148C82.0618 112.823 82.3906 112.66 82.9961 112.66C83.6602 112.66 83.9922 112.839 83.9922 113.197C83.9922 113.171 83.9792 113.236 83.9531 113.392C83.7188 114.401 83.11 115.15 82.127 115.638C81.1439 116.127 80.1706 116.371 79.207 116.371ZM93.8359 116.371C93.1784 116.371 92.8496 116.188 92.8496 115.824V110.765C92.8496 110.004 92.6413 109.265 92.2246 108.548C91.8079 107.832 91.1504 107.474 90.252 107.474C89.2884 107.474 88.5788 107.865 88.123 108.646C87.6673 109.421 87.4395 110.215 87.4395 111.029V115.824C87.4395 116.188 87.1107 116.371 86.4531 116.371C85.7891 116.371 85.457 116.188 85.457 115.824V103.197C85.457 102.832 85.7891 102.65 86.4531 102.65C87.1107 102.65 87.4395 102.832 87.4395 103.197V107.513C88.1556 106.752 89.1322 106.371 90.3691 106.371C91.6712 106.371 92.7389 106.787 93.5723 107.621C94.4121 108.448 94.832 109.492 94.832 110.755V115.824C94.832 116.188 94.5 116.371 93.8359 116.371ZM105.271 116.371C104.979 116.371 104.741 116.315 104.559 116.205C104.103 115.938 103.816 115.589 103.699 115.16C103.283 115.648 102.723 115.974 102.02 116.136C101.323 116.293 100.695 116.371 100.135 116.371C99.2428 116.371 98.3379 116.159 97.4199 115.736C96.5085 115.306 96.0527 114.571 96.0527 113.529C96.0527 112.344 96.502 111.592 97.4004 111.273C98.2988 110.954 99.2298 110.795 100.193 110.795C100.402 110.795 100.656 110.801 100.955 110.814C101.261 110.827 101.548 110.834 101.814 110.834C102.55 110.834 103.074 110.749 103.387 110.58V109.652C103.387 108.187 102.537 107.455 100.838 107.455C100.213 107.455 99.6562 107.611 99.168 107.923C98.6016 108.288 98.3184 108.724 98.3184 109.232C98.3184 109.59 97.9863 109.769 97.3223 109.769C96.6712 109.769 96.3457 109.59 96.3457 109.232C96.3457 108.47 96.7819 107.8 97.6543 107.22C98.5202 106.654 99.5814 106.371 100.838 106.371C101.847 106.371 102.853 106.618 103.855 107.113C104.858 107.601 105.359 108.448 105.359 109.652V113.861C105.359 114.681 105.571 115.212 105.994 115.453C106.176 115.557 106.268 115.681 106.268 115.824C106.268 115.987 106.167 116.12 105.965 116.224C105.789 116.322 105.558 116.371 105.271 116.371ZM100.135 115.287C100.87 115.287 101.596 115.069 102.312 114.632C103.029 114.19 103.387 113.565 103.387 112.757V111.82C103.016 111.885 102.56 111.918 102.02 111.918C101.72 111.918 101.417 111.911 101.111 111.898C100.805 111.879 100.499 111.869 100.193 111.869C98.7546 111.869 98.0352 112.422 98.0352 113.529C98.0352 114.701 98.735 115.287 100.135 115.287ZM111.424 116.371C110.46 116.371 109.559 116.159 108.719 115.736C107.885 115.306 107.326 114.61 107.039 113.646C107.013 113.568 107 113.509 107 113.47C107 113.112 107.329 112.933 107.986 112.933C108.566 112.933 108.895 113.086 108.973 113.392C109.311 114.655 110.125 115.287 111.414 115.287C111.954 115.287 112.482 115.124 112.996 114.798C113.517 114.466 113.777 113.994 113.777 113.382C113.777 112.998 113.494 112.683 112.928 112.435C112.544 112.266 112.039 112.139 111.414 112.054C110.893 111.983 110.382 111.901 109.881 111.81C109.386 111.719 108.914 111.524 108.465 111.224C107.651 110.684 107.244 109.987 107.244 109.134C107.244 108.132 107.736 107.422 108.719 107.005C109.708 106.582 110.617 106.371 111.443 106.371C112.29 106.371 113.11 106.56 113.904 106.937C114.705 107.315 115.223 107.936 115.457 108.802C115.477 108.861 115.486 108.916 115.486 108.968C115.486 109.3 115.158 109.476 114.5 109.496C113.921 109.496 113.592 109.339 113.514 109.027C113.26 107.979 112.566 107.455 111.434 107.455C110.945 107.455 110.454 107.591 109.959 107.865C109.464 108.132 109.217 108.548 109.217 109.115C109.217 109.492 109.529 109.805 110.154 110.052C110.577 110.215 111.082 110.342 111.668 110.433C112.189 110.511 112.687 110.599 113.162 110.697C113.637 110.788 114.1 110.977 114.549 111.263C115.35 111.771 115.75 112.458 115.75 113.324C115.75 114.405 115.252 115.183 114.256 115.658C113.26 116.133 112.316 116.371 111.424 116.371ZM121.99 116.371C120.512 116.371 119.266 115.931 118.25 115.052C117.234 114.167 116.727 112.959 116.727 111.429C116.727 109.873 117.241 108.643 118.27 107.738C119.305 106.826 120.574 106.371 122.078 106.371C123.51 106.371 124.744 106.748 125.779 107.504C126.814 108.252 127.332 109.375 127.332 110.873C127.332 111.289 127.003 111.498 126.346 111.498H118.699C118.712 112.461 119.005 113.334 119.578 114.115C120.151 114.896 120.958 115.287 122 115.287C122.749 115.287 123.442 115.085 124.08 114.681C124.751 114.252 125.115 113.744 125.174 113.158C125.206 112.819 125.529 112.65 126.141 112.65C126.811 112.65 127.146 112.829 127.146 113.187C127.146 113.369 127.091 113.591 126.98 113.851C126.74 114.424 126.281 114.932 125.604 115.375C124.588 116.039 123.383 116.371 121.99 116.371ZM125.33 110.414C125.122 108.441 124.038 107.455 122.078 107.455C120.333 107.455 119.246 108.441 118.816 110.414H125.33ZM132.732 116.371C131.769 116.371 130.867 116.159 130.027 115.736C129.194 115.306 128.634 114.61 128.348 113.646C128.322 113.568 128.309 113.509 128.309 113.47C128.309 113.112 128.637 112.933 129.295 112.933C129.874 112.933 130.203 113.086 130.281 113.392C130.62 114.655 131.434 115.287 132.723 115.287C133.263 115.287 133.79 115.124 134.305 114.798C134.826 114.466 135.086 113.994 135.086 113.382C135.086 112.998 134.803 112.683 134.236 112.435C133.852 112.266 133.348 112.139 132.723 112.054C132.202 111.983 131.691 111.901 131.189 111.81C130.695 111.719 130.223 111.524 129.773 111.224C128.96 110.684 128.553 109.987 128.553 109.134C128.553 108.132 129.044 107.422 130.027 107.005C131.017 106.582 131.925 106.371 132.752 106.371C133.598 106.371 134.419 106.56 135.213 106.937C136.014 107.315 136.531 107.936 136.766 108.802C136.785 108.861 136.795 108.916 136.795 108.968C136.795 109.3 136.466 109.476 135.809 109.496C135.229 109.496 134.9 109.339 134.822 109.027C134.568 107.979 133.875 107.455 132.742 107.455C132.254 107.455 131.762 107.591 131.268 107.865C130.773 108.132 130.525 108.548 130.525 109.115C130.525 109.492 130.838 109.805 131.463 110.052C131.886 110.215 132.391 110.342 132.977 110.433C133.497 110.511 133.995 110.599 134.471 110.697C134.946 110.788 135.408 110.977 135.857 111.263C136.658 111.771 137.059 112.458 137.059 113.324C137.059 114.405 136.561 115.183 135.564 115.658C134.568 116.133 133.624 116.371 132.732 116.371Z" fill="#191919"/>
</svg>
