<svg width="294" height="152" viewBox="0 0 294 152" fill="none" xmlns="http://www.w3.org/2000/svg">
<rect x="0.5" y="0.5" width="293" height="151" rx="7.5" stroke="#CDA92D" stroke-opacity="0.3"/>
<path d="M65.2032 25.0312C61.2329 25.0312 57.2316 25.9181 56.551 27.6094H44.5782C44.1683 27.6106 43.7756 27.774 43.4857 28.0638C43.1959 28.3536 43.0325 28.7464 43.0313 29.1562V41.5312C43.0325 41.9411 43.1959 42.3339 43.4857 42.6237C43.7756 42.9135 44.1683 43.0769 44.5782 43.0781H45.0938V48.1364L43.0674 53.1998C43.0426 53.2603 43.0303 53.3252 43.0313 53.3906V54.9375C43.0321 55.2108 43.141 55.4726 43.3343 55.6658C43.5275 55.859 43.7893 55.9679 44.0626 55.9688H63.6563C63.9296 55.9679 64.1914 55.859 64.3846 55.6658C64.5778 55.4726 64.6867 55.2108 64.6876 54.9375V53.3906C64.6886 53.3252 64.6763 53.2603 64.6515 53.1998L62.6251 48.1364V47.5795C63.4814 47.6709 64.342 47.7173 65.2032 47.7188C69.5602 47.7188 73.9688 46.6566 73.9688 44.625V28.125C73.9688 26.0934 69.5602 25.0312 65.2032 25.0312ZM44.0626 29.1562C44.0626 29.0195 44.1169 28.8883 44.2136 28.7916C44.3103 28.6949 44.4414 28.6406 44.5782 28.6406H59.0157C59.1524 28.6406 59.2836 28.6949 59.3803 28.7916C59.477 28.8883 59.5313 29.0195 59.5313 29.1562V31.7344H44.0626V29.1562ZM44.5782 42.0469C44.4414 42.0469 44.3103 41.9925 44.2136 41.8959C44.1169 41.7992 44.0626 41.668 44.0626 41.5312V32.7656H59.5313V36.375H56.4376V37.4062H61.0782C61.2149 37.4062 61.3461 37.4606 61.4428 37.5573C61.5395 37.654 61.5938 37.7851 61.5938 37.9219V47.7188H46.1251V37.9219C46.1251 37.7851 46.1794 37.654 46.2761 37.5573C46.3728 37.4606 46.5039 37.4062 46.6407 37.4062H51.2813V36.375H46.6407C46.2308 36.3762 45.8381 36.5396 45.5482 36.8294C45.2584 37.1193 45.095 37.512 45.0938 37.9219V42.0469H44.5782ZM63.6563 54.9375H44.0626V53.9062H63.6563V54.9375ZM51.4257 52.875L51.6835 51.8438H56.0354L56.2932 52.875H51.4257ZM63.4088 52.875H57.3554L56.9377 51.2044C56.9101 51.0926 56.8458 50.9933 56.7552 50.9222C56.6645 50.8512 56.5527 50.8126 56.4376 50.8125H51.2813C51.1662 50.8126 51.0543 50.8512 50.9637 50.9222C50.8731 50.9933 50.8088 51.0926 50.7812 51.2044L50.3635 52.875H44.3101L45.9601 48.75H61.7588L63.4088 52.875ZM72.9376 44.625C72.9376 45.4655 69.9263 46.6875 65.2032 46.6875C64.342 46.6861 63.4814 46.6396 62.6251 46.5483V43.4545C63.4814 43.5459 64.342 43.5923 65.2032 43.5938C68.2815 43.5938 71.3804 43.0627 72.9376 42.0314V44.625ZM72.9376 40.5C72.9376 41.3405 69.9263 42.5625 65.2032 42.5625C64.342 42.5611 63.4814 42.5146 62.6251 42.4233V39.3295C63.4814 39.4209 64.342 39.4673 65.2032 39.4688C68.2815 39.4688 71.3804 38.9377 72.9376 37.9064V40.5ZM72.9376 36.375C72.9376 37.2155 69.9263 38.4375 65.2032 38.4375C64.342 38.4361 63.4814 38.3896 62.6251 38.2983V37.9219C62.6238 37.512 62.4605 37.1193 62.1706 36.8294C61.8808 36.5396 61.4881 36.3762 61.0782 36.375H60.5626V34.9003C62.0908 35.2022 63.6454 35.3508 65.2032 35.3438C68.2815 35.3438 71.3804 34.8127 72.9376 33.7814V36.375ZM72.9376 32.25C72.9376 33.0905 69.9263 34.3125 65.2032 34.3125C63.6446 34.3209 62.0893 34.1671 60.5626 33.8536V30.7753C62.0908 31.0772 63.6454 31.2258 65.2032 31.2188C68.2815 31.2188 71.3804 30.6877 72.9376 29.6564V32.25ZM65.2032 30.1875C63.6446 30.1959 62.0893 30.0421 60.5626 29.7286V29.1562C60.5613 28.7464 60.398 28.3536 60.1081 28.0638C59.8183 27.774 59.4256 27.6106 59.0157 27.6094H57.7937C58.6908 26.8617 61.3876 26.0625 65.2032 26.0625C69.9263 26.0625 72.9376 27.2845 72.9376 28.125C72.9376 28.9655 69.9263 30.1875 65.2032 30.1875Z" fill="#FFCD1E"/>
<path d="M70.875 31.2188H71.9062V32.25H70.875V31.2188ZM68.8125 31.7344H69.8438V32.7656H68.8125V31.7344ZM66.75 32.25H67.7812V33.2812H66.75V32.25ZM70.875 35.3438H71.9062V36.375H70.875V35.3438ZM68.8125 35.8594H69.8438V36.8906H68.8125V35.8594ZM66.75 36.375H67.7812V37.4062H66.75V36.375ZM70.875 39.4688H71.9062V40.5H70.875V39.4688ZM68.8125 39.9844H69.8438V41.0156H68.8125V39.9844ZM66.75 40.5H67.7812V41.5312H66.75V40.5ZM70.875 43.5938H71.9062V44.625H70.875V43.5938ZM68.8125 44.1094H69.8438V45.1406H68.8125V44.1094ZM66.75 44.625H67.7812V45.6562H66.75V44.625ZM62.1094 27.6094H68.2969V28.6406H62.1094V27.6094ZM45.0938 29.6719H46.125V30.7031H45.0938V29.6719ZM47.1562 29.6719H48.1875V30.7031H47.1562V29.6719ZM49.2188 29.6719H50.25V30.7031H49.2188V29.6719ZM56.3189 42.0366L55.3547 41.3972C55.7181 41.0165 55.9212 40.5107 55.9219 39.9844V39.4688H56.4375V38.4375H55.9219C55.9204 37.9814 55.7678 37.5387 55.4879 37.1785C55.208 36.8184 54.8166 36.5612 54.375 36.4472V35.8594H53.3438V36.4472C52.9021 36.5612 52.5108 36.8184 52.2309 37.1785C51.951 37.5387 51.7984 37.9814 51.7969 38.4375H51.2812V39.4688H51.7969V39.9844C51.7976 40.5107 52.0007 41.0165 52.3641 41.3972L51.3998 42.0366C51.046 42.2713 50.7557 42.5901 50.5551 42.9644C50.3544 43.3387 50.2496 43.7569 50.25 44.1816V45.1406C50.25 45.2774 50.3043 45.4085 50.401 45.5052C50.4977 45.6019 50.6289 45.6562 50.7656 45.6562H56.9531C57.0899 45.6562 57.221 45.6019 57.3177 45.5052C57.4144 45.4085 57.4688 45.2774 57.4688 45.1406V44.1816C57.4691 43.7569 57.3643 43.3387 57.1637 42.9644C56.963 42.5901 56.6728 42.2713 56.3189 42.0366ZM54.375 37.5506C54.5309 37.6406 54.6605 37.7698 54.7509 37.9254C54.8414 38.081 54.8895 38.2575 54.8906 38.4375H54.375V37.5506ZM53.3438 37.5506V38.4375H52.8281C52.8292 38.2575 52.8774 38.081 52.9678 37.9254C53.0583 37.7698 53.1879 37.6406 53.3438 37.5506ZM52.8281 39.4688H54.8906V39.9844C54.8906 40.2579 54.782 40.5202 54.5886 40.7136C54.3952 40.907 54.1329 41.0156 53.8594 41.0156C53.5859 41.0156 53.3236 40.907 53.1302 40.7136C52.9368 40.5202 52.8281 40.2579 52.8281 39.9844V39.4688ZM54.5297 42.083L53.8594 42.8255L53.1891 42.083L53.3489 41.9747C53.6824 42.0709 54.0363 42.0709 54.3698 41.9747L54.5297 42.083ZM56.4375 44.625H51.2812V44.1816C51.2814 43.9264 51.3446 43.6753 51.4651 43.4504C51.5856 43.2255 51.7598 43.0339 51.9722 42.8925L52.3228 42.6605L53.4778 43.9392C53.5259 43.9927 53.5848 44.0356 53.6505 44.0649C53.7162 44.0942 53.7874 44.1093 53.8594 44.1093C53.9313 44.1093 54.0025 44.0942 54.0683 44.0649C54.134 44.0356 54.1928 43.9927 54.2409 43.9392L55.3959 42.6605L55.7466 42.8925C55.9589 43.0339 56.1331 43.2255 56.2536 43.4504C56.3742 43.6753 56.4373 43.9264 56.4375 44.1816V44.625Z" fill="#FFCD1E"/>
<path d="M54.5098 88.2344C53.9173 88.2344 53.5592 88.0944 53.4355 87.8145L51.6484 83.7617H45.5645L43.7676 87.9316C43.6829 88.1335 43.4388 88.2344 43.0352 88.2344C42.5078 88.2344 42.2441 88.1042 42.2441 87.8438C42.2441 87.8242 42.2507 87.7949 42.2637 87.7559L47.8105 74.9141C47.9212 74.6471 48.2923 74.5137 48.9238 74.5137C49.4772 74.5137 49.8158 74.6504 49.9395 74.9238L55.5254 87.5801C55.5449 87.6257 55.5547 87.668 55.5547 87.707C55.5547 88.0586 55.2064 88.2344 54.5098 88.2344ZM51.1602 82.668L48.5723 76.7988L46.043 82.668H51.1602ZM65.3008 88.2344C64.6432 88.2344 64.3145 88.0521 64.3145 87.6875V87.0918C63.5658 87.847 62.5599 88.2246 61.2969 88.2246C57.9635 88.2246 56.2969 86.5579 56.2969 83.2246C56.2969 79.8913 57.9635 78.2246 61.2969 78.2246C62.5534 78.2246 63.5592 78.6022 64.3145 79.3574V75.0605C64.3145 74.696 64.6432 74.5137 65.3008 74.5137C65.9648 74.5137 66.2969 74.696 66.2969 75.0605V87.6875C66.2969 88.0521 65.9648 88.2344 65.3008 88.2344ZM61.2969 87.1309C62.3255 87.1309 63.084 86.6979 63.5723 85.832C64.0671 84.9661 64.3145 84.097 64.3145 83.2246C64.3145 82.3522 64.0671 81.4831 63.5723 80.6172C63.084 79.7513 62.3255 79.3184 61.2969 79.3184C60.2747 79.3184 59.5163 79.7513 59.0215 80.6172C58.5267 81.4831 58.2793 82.3522 58.2793 83.2246C58.2793 84.097 58.5267 84.9661 59.0215 85.832C59.5163 86.6979 60.2747 87.1309 61.2969 87.1309ZM82.5371 88.2344C81.8796 88.2344 81.5508 88.0521 81.5508 87.6875V82.6094C81.5508 81.8737 81.3848 81.1478 81.0527 80.4316C80.7207 79.709 80.1055 79.3477 79.207 79.3477C78.3151 79.3477 77.7064 79.7122 77.3809 80.4414C77.0553 81.1641 76.8926 81.8835 76.8926 82.5996V87.6875C76.8926 88.0521 76.5605 88.2344 75.8965 88.2344C75.2389 88.2344 74.9102 88.0521 74.9102 87.6875V82.6094C74.9102 81.8737 74.7441 81.1478 74.4121 80.4316C74.0801 79.709 73.4616 79.3477 72.5566 79.3477C71.7819 79.3477 71.1895 79.6829 70.7793 80.3535C70.4147 80.9525 70.2324 81.7012 70.2324 82.5996V87.6875C70.2324 88.0521 69.9036 88.2344 69.2461 88.2344C68.582 88.2344 68.25 88.0521 68.25 87.6875V78.7812C68.25 78.4167 68.582 78.2344 69.2461 78.2344C69.9036 78.2344 70.2324 78.4167 70.2324 78.7812V79.377C70.8704 78.6152 71.7201 78.2344 72.7812 78.2344C74.0508 78.2344 75.0892 78.7129 75.8965 79.6699C76.6908 78.7129 77.7975 78.2344 79.2168 78.2344C82.0944 78.2344 83.5332 79.6927 83.5332 82.6094V87.6875C83.5332 88.0521 83.2012 88.2344 82.5371 88.2344ZM86.2578 77.375C85.5872 77.375 85.252 77.043 85.252 76.3789C85.252 75.7083 85.5872 75.373 86.2578 75.373C86.9219 75.373 87.2539 75.7083 87.2539 76.3789C87.2539 77.043 86.9219 77.375 86.2578 77.375ZM86.2578 88.2344C85.5938 88.2344 85.2617 88.0521 85.2617 87.6875V78.7812C85.2617 78.4167 85.5938 78.2344 86.2578 78.2344C86.9154 78.2344 87.2441 78.4167 87.2441 78.7812V87.6875C87.2441 88.0521 86.9154 88.2344 86.2578 88.2344ZM97.3516 88.2344C96.694 88.2344 96.3652 88.0521 96.3652 87.6875V82.6289C96.3652 81.8672 96.1569 81.1283 95.7402 80.4121C95.3236 79.696 94.666 79.3379 93.7676 79.3379C92.804 79.3379 92.0944 79.7285 91.6387 80.5098C91.1829 81.2845 90.9551 82.0788 90.9551 82.8926V87.6875C90.9551 88.0521 90.6263 88.2344 89.9688 88.2344C89.3047 88.2344 88.9727 88.0521 88.9727 87.6875V78.791C88.9727 78.4264 89.3047 78.2441 89.9688 78.2441C90.6263 78.2441 90.9551 78.4264 90.9551 78.791V79.377C91.6712 78.6152 92.6478 78.2344 93.8848 78.2344C95.1868 78.2344 96.2546 78.651 97.0879 79.4844C97.9277 80.3112 98.3477 81.3561 98.3477 82.6191V87.6875C98.3477 88.0521 98.0156 88.2344 97.3516 88.2344ZM116.717 88.2344C116.124 88.2344 115.766 88.0944 115.643 87.8145L113.855 83.7617H107.771L105.975 87.9316C105.89 88.1335 105.646 88.2344 105.242 88.2344C104.715 88.2344 104.451 88.1042 104.451 87.8438C104.451 87.8242 104.458 87.7949 104.471 87.7559L110.018 74.9141C110.128 74.6471 110.499 74.5137 111.131 74.5137C111.684 74.5137 112.023 74.6504 112.146 74.9238L117.732 87.5801C117.752 87.6257 117.762 87.668 117.762 87.707C117.762 88.0586 117.413 88.2344 116.717 88.2344ZM113.367 82.668L110.779 76.7988L108.25 82.668H113.367ZM119.988 88.2344C119.324 88.2344 118.992 88.0521 118.992 87.6875V78.7812C118.992 78.4167 119.324 78.2344 119.988 78.2344C120.646 78.2344 120.975 78.4167 120.975 78.7812V79.377C121.515 78.6152 122.303 78.2344 123.338 78.2344C124.126 78.2344 124.806 78.4199 125.379 78.791C125.542 78.8952 125.623 79.0189 125.623 79.1621C125.623 79.3444 125.519 79.5039 125.311 79.6406C125.128 79.7643 124.926 79.8262 124.705 79.8262C124.497 79.8262 124.318 79.7708 124.168 79.6602C123.862 79.4193 123.52 79.2988 123.143 79.2988C122.387 79.2988 121.818 79.696 121.434 80.4902C121.128 81.1087 120.975 81.9421 120.975 82.9902V87.6875C120.975 88.0521 120.646 88.2344 119.988 88.2344ZM131.131 88.2344C129.653 88.2344 128.406 87.7949 127.391 86.916C126.375 86.0306 125.867 84.8229 125.867 83.293C125.867 81.737 126.382 80.5065 127.41 79.6016C128.445 78.6901 129.715 78.2344 131.219 78.2344C132.651 78.2344 133.885 78.612 134.92 79.3672C135.955 80.1159 136.473 81.2389 136.473 82.7363C136.473 83.153 136.144 83.3613 135.486 83.3613H127.84C127.853 84.3249 128.146 85.1973 128.719 85.9785C129.292 86.7598 130.099 87.1504 131.141 87.1504C131.889 87.1504 132.583 86.9486 133.221 86.5449C133.891 86.1152 134.256 85.6074 134.314 85.0215C134.347 84.6829 134.669 84.5137 135.281 84.5137C135.952 84.5137 136.287 84.6927 136.287 85.0508C136.287 85.2331 136.232 85.4544 136.121 85.7148C135.88 86.2878 135.421 86.7956 134.744 87.2383C133.729 87.9023 132.524 88.2344 131.131 88.2344ZM134.471 82.2773C134.262 80.3047 133.178 79.3184 131.219 79.3184C129.474 79.3184 128.387 80.3047 127.957 82.2773H134.471ZM146.912 88.2344C146.619 88.2344 146.382 88.179 146.199 88.0684C145.743 87.8014 145.457 87.4531 145.34 87.0234C144.923 87.5117 144.363 87.8372 143.66 88C142.964 88.1562 142.335 88.2344 141.775 88.2344C140.883 88.2344 139.979 88.0228 139.061 87.5996C138.149 87.1699 137.693 86.4342 137.693 85.3926C137.693 84.2077 138.143 83.4557 139.041 83.1367C139.939 82.8177 140.87 82.6582 141.834 82.6582C142.042 82.6582 142.296 82.6647 142.596 82.6777C142.902 82.6908 143.188 82.6973 143.455 82.6973C144.191 82.6973 144.715 82.6126 145.027 82.4434V81.5156C145.027 80.0508 144.178 79.3184 142.479 79.3184C141.854 79.3184 141.297 79.4746 140.809 79.7871C140.242 80.1517 139.959 80.5879 139.959 81.0957C139.959 81.4538 139.627 81.6328 138.963 81.6328C138.312 81.6328 137.986 81.4538 137.986 81.0957C137.986 80.334 138.423 79.6634 139.295 79.084C140.161 78.5176 141.222 78.2344 142.479 78.2344C143.488 78.2344 144.493 78.4818 145.496 78.9766C146.499 79.4648 147 80.3112 147 81.5156V85.7246C147 86.5449 147.212 87.0755 147.635 87.3164C147.817 87.4206 147.908 87.5443 147.908 87.6875C147.908 87.8503 147.807 87.9837 147.605 88.0879C147.43 88.1855 147.199 88.2344 146.912 88.2344ZM141.775 87.1504C142.511 87.1504 143.237 86.9323 143.953 86.4961C144.669 86.0534 145.027 85.4284 145.027 84.6211V83.6836C144.656 83.7487 144.201 83.7812 143.66 83.7812C143.361 83.7812 143.058 83.7747 142.752 83.7617C142.446 83.7422 142.14 83.7324 141.834 83.7324C140.395 83.7324 139.676 84.2858 139.676 85.3926C139.676 86.5645 140.376 87.1504 141.775 87.1504ZM156.316 88.2344C155.652 88.2344 155.32 88.0521 155.32 87.6875V79.3184H154.256C153.598 79.3184 153.27 79.1361 153.27 78.7715C153.27 78.4069 153.598 78.2246 154.256 78.2246H155.32V77.209C155.32 75.4251 156.414 74.5267 158.602 74.5137C159.005 74.5137 159.422 74.5495 159.852 74.6211C160.398 74.7188 160.672 74.8945 160.672 75.1484C160.672 75.526 160.327 75.7148 159.637 75.7148C159.474 75.7148 159.308 75.6986 159.139 75.666C158.976 75.627 158.803 75.6074 158.621 75.6074C157.742 75.6074 157.303 76.1413 157.303 77.209V78.2246H158.973C159.637 78.2246 159.969 78.4069 159.969 78.7715C159.969 79.1361 159.637 79.3184 158.973 79.3184H157.303V87.6875C157.303 88.0521 156.974 88.2344 156.316 88.2344ZM166.229 88.2344C164.705 88.2344 163.436 87.7819 162.42 86.877C161.411 85.972 160.906 84.7578 160.906 83.2344C160.906 81.7109 161.411 80.4967 162.42 79.5918C163.436 78.6868 164.705 78.2344 166.229 78.2344C167.752 78.2344 169.018 78.6868 170.027 79.5918C171.043 80.4967 171.551 81.7109 171.551 83.2344C171.551 84.7578 171.043 85.972 170.027 86.877C169.018 87.7819 167.752 88.2344 166.229 88.2344ZM166.229 87.1504C167.316 87.1504 168.143 86.7402 168.709 85.9199C169.282 85.0931 169.568 84.1979 169.568 83.2344C169.568 82.2643 169.282 81.3691 168.709 80.5488C168.143 79.7285 167.316 79.3184 166.229 79.3184C165.148 79.3184 164.321 79.7285 163.748 80.5488C163.175 81.3691 162.889 82.2643 162.889 83.2344C162.889 84.1979 163.175 85.0931 163.748 85.9199C164.321 86.7402 165.148 87.1504 166.229 87.1504ZM174.012 88.2344C173.348 88.2344 173.016 88.0521 173.016 87.6875V78.7812C173.016 78.4167 173.348 78.2344 174.012 78.2344C174.669 78.2344 174.998 78.4167 174.998 78.7812V79.377C175.538 78.6152 176.326 78.2344 177.361 78.2344C178.149 78.2344 178.829 78.4199 179.402 78.791C179.565 78.8952 179.646 79.0189 179.646 79.1621C179.646 79.3444 179.542 79.5039 179.334 79.6406C179.152 79.7643 178.95 79.8262 178.729 79.8262C178.52 79.8262 178.341 79.7708 178.191 79.6602C177.885 79.4193 177.544 79.2988 177.166 79.2988C176.411 79.2988 175.841 79.696 175.457 80.4902C175.151 81.1087 174.998 81.9421 174.998 82.9902V87.6875C174.998 88.0521 174.669 88.2344 174.012 88.2344ZM186.736 88.2344C186.079 88.2344 185.75 88.0521 185.75 87.6875V75.2949C185.75 74.9303 186.079 74.748 186.736 74.748H194.949C195.607 74.748 195.936 74.9303 195.936 75.2949C195.936 75.6595 195.607 75.8418 194.949 75.8418H187.732V80.8906H193.787C194.451 80.8906 194.783 81.0729 194.783 81.4375C194.783 81.8021 194.451 81.9844 193.787 81.9844H187.732V87.6875C187.732 88.0521 187.4 88.2344 186.736 88.2344ZM206.385 88.2344C206.092 88.2344 205.854 88.179 205.672 88.0684C205.216 87.8014 204.93 87.4531 204.812 87.0234C204.396 87.5117 203.836 87.8372 203.133 88C202.436 88.1562 201.808 88.2344 201.248 88.2344C200.356 88.2344 199.451 88.0228 198.533 87.5996C197.622 87.1699 197.166 86.4342 197.166 85.3926C197.166 84.2077 197.615 83.4557 198.514 83.1367C199.412 82.8177 200.343 82.6582 201.307 82.6582C201.515 82.6582 201.769 82.6647 202.068 82.6777C202.374 82.6908 202.661 82.6973 202.928 82.6973C203.663 82.6973 204.188 82.6126 204.5 82.4434V81.5156C204.5 80.0508 203.65 79.3184 201.951 79.3184C201.326 79.3184 200.77 79.4746 200.281 79.7871C199.715 80.1517 199.432 80.5879 199.432 81.0957C199.432 81.4538 199.1 81.6328 198.436 81.6328C197.785 81.6328 197.459 81.4538 197.459 81.0957C197.459 80.334 197.895 79.6634 198.768 79.084C199.633 78.5176 200.695 78.2344 201.951 78.2344C202.96 78.2344 203.966 78.4818 204.969 78.9766C205.971 79.4648 206.473 80.3112 206.473 81.5156V85.7246C206.473 86.5449 206.684 87.0755 207.107 87.3164C207.29 87.4206 207.381 87.5443 207.381 87.6875C207.381 87.8503 207.28 87.9837 207.078 88.0879C206.902 88.1855 206.671 88.2344 206.385 88.2344ZM201.248 87.1504C201.984 87.1504 202.71 86.9323 203.426 86.4961C204.142 86.0534 204.5 85.4284 204.5 84.6211V83.6836C204.129 83.7487 203.673 83.7812 203.133 83.7812C202.833 83.7812 202.531 83.7747 202.225 83.7617C201.919 83.7422 201.613 83.7324 201.307 83.7324C199.868 83.7324 199.148 84.2858 199.148 85.3926C199.148 86.5645 199.848 87.1504 201.248 87.1504ZM213.328 88.2344C209.845 88.2344 208.104 86.5807 208.104 83.2734C208.104 81.6979 208.608 80.4642 209.617 79.5723C210.626 78.6803 211.896 78.2344 213.426 78.2344C214.389 78.2344 215.356 78.4818 216.326 78.9766C217.303 79.4714 217.882 80.2298 218.064 81.252C218.077 81.3301 218.084 81.3822 218.084 81.4082C218.084 81.7663 217.755 81.9453 217.098 81.9453C216.486 81.9453 216.157 81.7793 216.111 81.4473C215.91 80.028 215.011 79.3184 213.416 79.3184C212.309 79.3184 211.476 79.7318 210.916 80.5586C210.356 81.3789 210.076 82.2904 210.076 83.293C210.083 84.2695 210.356 85.1582 210.896 85.959C211.437 86.7533 212.26 87.1504 213.367 87.1504C214.943 87.1504 215.864 86.4375 216.131 85.0117C216.183 84.6862 216.512 84.5234 217.117 84.5234C217.781 84.5234 218.113 84.7025 218.113 85.0605C218.113 85.0345 218.1 85.0996 218.074 85.2559C217.84 86.265 217.231 87.0137 216.248 87.502C215.265 87.9902 214.292 88.2344 213.328 88.2344ZM220.34 77.375C219.669 77.375 219.334 77.043 219.334 76.3789C219.334 75.7083 219.669 75.373 220.34 75.373C221.004 75.373 221.336 75.7083 221.336 76.3789C221.336 77.043 221.004 77.375 220.34 77.375ZM220.34 88.2344C219.676 88.2344 219.344 88.0521 219.344 87.6875V78.7812C219.344 78.4167 219.676 78.2344 220.34 78.2344C220.997 78.2344 221.326 78.4167 221.326 78.7812V87.6875C221.326 88.0521 220.997 88.2344 220.34 88.2344ZM224.588 88.2344C223.924 88.2344 223.592 88.0521 223.592 87.6875V75.0605C223.592 74.696 223.924 74.5137 224.588 74.5137C225.245 74.5137 225.574 74.696 225.574 75.0605V87.6875C225.574 88.0521 225.245 88.2344 224.588 88.2344ZM228.836 77.375C228.165 77.375 227.83 77.043 227.83 76.3789C227.83 75.7083 228.165 75.373 228.836 75.373C229.5 75.373 229.832 75.7083 229.832 76.3789C229.832 77.043 229.5 77.375 228.836 77.375ZM228.836 88.2344C228.172 88.2344 227.84 88.0521 227.84 87.6875V78.7812C227.84 78.4167 228.172 78.2344 228.836 78.2344C229.493 78.2344 229.822 78.4167 229.822 78.7812V87.6875C229.822 88.0521 229.493 88.2344 228.836 88.2344ZM236.18 88.2344C233.986 88.2214 232.889 87.3229 232.889 85.5391V79.3281H231.795C231.137 79.3281 230.809 79.1458 230.809 78.7812C230.809 78.4167 231.137 78.2344 231.795 78.2344H232.889V75.0605C232.889 74.696 233.221 74.5137 233.885 74.5137C234.549 74.5137 234.881 74.696 234.881 75.0605V78.2344H236.521C237.186 78.2344 237.518 78.4167 237.518 78.7812C237.518 79.1458 237.186 79.3281 236.521 79.3281H234.881V85.5391C234.881 86.6068 235.317 87.1406 236.189 87.1406C236.372 87.1406 236.544 87.1243 236.707 87.0918C236.876 87.0527 237.046 87.0332 237.215 87.0332C237.898 87.0332 238.24 87.222 238.24 87.5996C238.24 87.8535 237.967 88.0293 237.42 88.127C236.99 88.1986 236.577 88.2344 236.18 88.2344ZM248.836 87.6777C248.836 89.1491 248.357 90.2201 247.4 90.8906C246.45 91.5677 245.298 91.9062 243.943 91.9062C243.162 91.9062 242.345 91.7728 241.492 91.5059C240.646 91.2389 239.992 90.7734 239.529 90.1094C239.484 90.0443 239.461 89.9792 239.461 89.9141C239.461 89.556 239.79 89.377 240.447 89.377C240.91 89.377 241.219 89.4909 241.375 89.7188C241.876 90.4479 242.726 90.8125 243.924 90.8125C245.877 90.8125 246.854 89.7318 246.854 87.5703V87.043C246.215 87.8047 245.314 88.1855 244.148 88.1855C241.023 88.1855 239.461 86.7207 239.461 83.791V78.7324C239.461 78.3678 239.793 78.1855 240.457 78.1855C241.115 78.1855 241.443 78.3678 241.443 78.7324V83.791C241.443 84.5788 241.668 85.3275 242.117 86.0371C242.566 86.7467 243.243 87.1016 244.148 87.1016C245.021 87.1016 245.688 86.7467 246.15 86.0371C246.619 85.3275 246.854 84.5885 246.854 83.8203V78.7324C246.854 78.3678 247.182 78.1855 247.84 78.1855C248.504 78.1855 248.836 78.3678 248.836 78.7324V87.6777ZM60.4375 116.234C59.7734 116.234 59.4414 116.055 59.4414 115.697V106.703L55.7305 115.814C55.6198 116.094 55.2682 116.234 54.6758 116.234C54.0833 116.234 53.7253 116.098 53.6016 115.824L49.4023 106.469V115.854C49.4023 116.107 49.1452 116.234 48.6309 116.234C48.1165 116.234 47.8594 116.107 47.8594 115.854V103.061C47.8594 102.696 48.2402 102.514 49.002 102.514C49.5684 102.514 49.9134 102.65 50.0371 102.924L54.9297 113.861L59.4023 102.924C59.5195 102.65 59.8613 102.514 60.4277 102.514C61.0918 102.514 61.4238 102.696 61.4238 103.061V115.697C61.4238 116.055 61.0951 116.234 60.4375 116.234ZM72.3613 116.234C72.0684 116.234 71.8307 116.179 71.6484 116.068C71.1927 115.801 70.9062 115.453 70.7891 115.023C70.3724 115.512 69.8125 115.837 69.1094 116C68.4128 116.156 67.7845 116.234 67.2246 116.234C66.3327 116.234 65.4277 116.023 64.5098 115.6C63.5983 115.17 63.1426 114.434 63.1426 113.393C63.1426 112.208 63.5918 111.456 64.4902 111.137C65.3887 110.818 66.3197 110.658 67.2832 110.658C67.4915 110.658 67.7454 110.665 68.0449 110.678C68.3509 110.691 68.6374 110.697 68.9043 110.697C69.64 110.697 70.1641 110.613 70.4766 110.443V109.516C70.4766 108.051 69.627 107.318 67.9277 107.318C67.3027 107.318 66.7461 107.475 66.2578 107.787C65.6914 108.152 65.4082 108.588 65.4082 109.096C65.4082 109.454 65.0762 109.633 64.4121 109.633C63.7611 109.633 63.4355 109.454 63.4355 109.096C63.4355 108.334 63.8717 107.663 64.7441 107.084C65.61 106.518 66.6712 106.234 67.9277 106.234C68.9368 106.234 69.9427 106.482 70.9453 106.977C71.9479 107.465 72.4492 108.311 72.4492 109.516V113.725C72.4492 114.545 72.6608 115.076 73.084 115.316C73.2663 115.421 73.3574 115.544 73.3574 115.688C73.3574 115.85 73.2565 115.984 73.0547 116.088C72.8789 116.186 72.6478 116.234 72.3613 116.234ZM67.2246 115.15C67.9603 115.15 68.6862 114.932 69.4023 114.496C70.1185 114.053 70.4766 113.428 70.4766 112.621V111.684C70.1055 111.749 69.6497 111.781 69.1094 111.781C68.8099 111.781 68.5072 111.775 68.2012 111.762C67.8952 111.742 67.5892 111.732 67.2832 111.732C65.8444 111.732 65.125 112.286 65.125 113.393C65.125 114.564 65.8249 115.15 67.2246 115.15ZM82.957 116.234C82.2995 116.234 81.9707 116.052 81.9707 115.688V110.629C81.9707 109.867 81.7624 109.128 81.3457 108.412C80.929 107.696 80.2715 107.338 79.373 107.338C78.4095 107.338 77.6999 107.729 77.2441 108.51C76.7884 109.285 76.5605 110.079 76.5605 110.893V115.688C76.5605 116.052 76.2318 116.234 75.5742 116.234C74.9102 116.234 74.5781 116.052 74.5781 115.688V106.791C74.5781 106.426 74.9102 106.244 75.5742 106.244C76.2318 106.244 76.5605 106.426 76.5605 106.791V107.377C77.2767 106.615 78.2533 106.234 79.4902 106.234C80.7923 106.234 81.86 106.651 82.6934 107.484C83.5332 108.311 83.9531 109.356 83.9531 110.619V115.688C83.9531 116.052 83.6211 116.234 82.957 116.234ZM94.8809 116.234C94.5879 116.234 94.3503 116.179 94.168 116.068C93.7122 115.801 93.4258 115.453 93.3086 115.023C92.8919 115.512 92.332 115.837 91.6289 116C90.9323 116.156 90.304 116.234 89.7441 116.234C88.8522 116.234 87.9473 116.023 87.0293 115.6C86.1178 115.17 85.6621 114.434 85.6621 113.393C85.6621 112.208 86.1113 111.456 87.0098 111.137C87.9082 110.818 88.8392 110.658 89.8027 110.658C90.0111 110.658 90.265 110.665 90.5645 110.678C90.8704 110.691 91.1569 110.697 91.4238 110.697C92.1595 110.697 92.6836 110.613 92.9961 110.443V109.516C92.9961 108.051 92.1465 107.318 90.4473 107.318C89.8223 107.318 89.2656 107.475 88.7773 107.787C88.2109 108.152 87.9277 108.588 87.9277 109.096C87.9277 109.454 87.5957 109.633 86.9316 109.633C86.2806 109.633 85.9551 109.454 85.9551 109.096C85.9551 108.334 86.3913 107.663 87.2637 107.084C88.1296 106.518 89.1908 106.234 90.4473 106.234C91.4564 106.234 92.4622 106.482 93.4648 106.977C94.4674 107.465 94.9688 108.311 94.9688 109.516V113.725C94.9688 114.545 95.1803 115.076 95.6035 115.316C95.7858 115.421 95.877 115.544 95.877 115.688C95.877 115.85 95.776 115.984 95.5742 116.088C95.3984 116.186 95.1673 116.234 94.8809 116.234ZM89.7441 115.15C90.4798 115.15 91.2057 114.932 91.9219 114.496C92.638 114.053 92.9961 113.428 92.9961 112.621V111.684C92.625 111.749 92.1693 111.781 91.6289 111.781C91.3294 111.781 91.0267 111.775 90.7207 111.762C90.4147 111.742 90.1087 111.732 89.8027 111.732C88.3639 111.732 87.6445 112.286 87.6445 113.393C87.6445 114.564 88.3444 115.15 89.7441 115.15ZM106.58 115.609C106.58 117.12 106.056 118.22 105.008 118.91C103.966 119.6 102.765 119.945 101.404 119.945C100.61 119.945 99.7409 119.812 98.7969 119.545C97.8529 119.278 97.1497 118.812 96.6875 118.148C96.6419 118.083 96.6191 118.018 96.6191 117.953C96.6191 117.595 96.9512 117.416 97.6152 117.416C98.0775 117.416 98.3867 117.53 98.543 117.758C98.8229 118.161 99.2428 118.445 99.8027 118.607C100.369 118.77 100.893 118.852 101.375 118.852C103.53 118.852 104.607 117.771 104.607 115.609V115.102C103.878 115.85 102.876 116.225 101.6 116.225C98.2728 116.225 96.6094 114.558 96.6094 111.225C96.6094 107.891 98.276 106.225 101.609 106.225C102.853 106.225 103.859 106.605 104.627 107.367V106.771C104.627 106.407 104.956 106.225 105.613 106.225C106.264 106.225 106.59 106.407 106.59 106.771L106.58 115.609ZM101.6 115.131C102.628 115.131 103.39 114.698 103.885 113.832C104.38 112.966 104.627 112.097 104.627 111.225C104.627 110.352 104.38 109.483 103.885 108.617C103.396 107.751 102.638 107.318 101.609 107.318C100.587 107.318 99.8288 107.751 99.334 108.617C98.8392 109.483 98.5918 110.352 98.5918 111.225C98.5918 112.097 98.8359 112.966 99.3242 113.832C99.819 114.698 100.577 115.131 101.6 115.131ZM113.318 116.234C111.84 116.234 110.594 115.795 109.578 114.916C108.562 114.031 108.055 112.823 108.055 111.293C108.055 109.737 108.569 108.507 109.598 107.602C110.633 106.69 111.902 106.234 113.406 106.234C114.839 106.234 116.072 106.612 117.107 107.367C118.143 108.116 118.66 109.239 118.66 110.736C118.66 111.153 118.331 111.361 117.674 111.361H110.027C110.04 112.325 110.333 113.197 110.906 113.979C111.479 114.76 112.286 115.15 113.328 115.15C114.077 115.15 114.77 114.949 115.408 114.545C116.079 114.115 116.443 113.607 116.502 113.021C116.535 112.683 116.857 112.514 117.469 112.514C118.139 112.514 118.475 112.693 118.475 113.051C118.475 113.233 118.419 113.454 118.309 113.715C118.068 114.288 117.609 114.796 116.932 115.238C115.916 115.902 114.712 116.234 113.318 116.234ZM116.658 110.277C116.45 108.305 115.366 107.318 113.406 107.318C111.661 107.318 110.574 108.305 110.145 110.277H116.658ZM121.121 116.234C120.457 116.234 120.125 116.052 120.125 115.688V106.781C120.125 106.417 120.457 106.234 121.121 106.234C121.779 106.234 122.107 106.417 122.107 106.781V107.377C122.648 106.615 123.436 106.234 124.471 106.234C125.258 106.234 125.939 106.42 126.512 106.791C126.674 106.895 126.756 107.019 126.756 107.162C126.756 107.344 126.652 107.504 126.443 107.641C126.261 107.764 126.059 107.826 125.838 107.826C125.63 107.826 125.451 107.771 125.301 107.66C124.995 107.419 124.653 107.299 124.275 107.299C123.52 107.299 122.951 107.696 122.566 108.49C122.26 109.109 122.107 109.942 122.107 110.99V115.688C122.107 116.052 121.779 116.234 121.121 116.234ZM131.912 116.234C130.949 116.234 130.047 116.023 129.207 115.6C128.374 115.17 127.814 114.473 127.527 113.51C127.501 113.432 127.488 113.373 127.488 113.334C127.488 112.976 127.817 112.797 128.475 112.797C129.054 112.797 129.383 112.95 129.461 113.256C129.799 114.519 130.613 115.15 131.902 115.15C132.443 115.15 132.97 114.988 133.484 114.662C134.005 114.33 134.266 113.858 134.266 113.246C134.266 112.862 133.982 112.546 133.416 112.299C133.032 112.13 132.527 112.003 131.902 111.918C131.382 111.846 130.87 111.765 130.369 111.674C129.874 111.583 129.402 111.387 128.953 111.088C128.139 110.548 127.732 109.851 127.732 108.998C127.732 107.995 128.224 107.286 129.207 106.869C130.197 106.446 131.105 106.234 131.932 106.234C132.778 106.234 133.598 106.423 134.393 106.801C135.193 107.178 135.711 107.8 135.945 108.666C135.965 108.725 135.975 108.78 135.975 108.832C135.975 109.164 135.646 109.34 134.988 109.359C134.409 109.359 134.08 109.203 134.002 108.891C133.748 107.842 133.055 107.318 131.922 107.318C131.434 107.318 130.942 107.455 130.447 107.729C129.952 107.995 129.705 108.412 129.705 108.979C129.705 109.356 130.018 109.669 130.643 109.916C131.066 110.079 131.57 110.206 132.156 110.297C132.677 110.375 133.175 110.463 133.65 110.561C134.126 110.652 134.588 110.84 135.037 111.127C135.838 111.635 136.238 112.322 136.238 113.188C136.238 114.268 135.74 115.046 134.744 115.521C133.748 115.997 132.804 116.234 131.912 116.234ZM151.561 116.234C151.268 116.234 151.03 116.179 150.848 116.068C150.392 115.801 150.105 115.453 149.988 115.023C149.572 115.512 149.012 115.837 148.309 116C147.612 116.156 146.984 116.234 146.424 116.234C145.532 116.234 144.627 116.023 143.709 115.6C142.798 115.17 142.342 114.434 142.342 113.393C142.342 112.208 142.791 111.456 143.689 111.137C144.588 110.818 145.519 110.658 146.482 110.658C146.691 110.658 146.945 110.665 147.244 110.678C147.55 110.691 147.837 110.697 148.104 110.697C148.839 110.697 149.363 110.613 149.676 110.443V109.516C149.676 108.051 148.826 107.318 147.127 107.318C146.502 107.318 145.945 107.475 145.457 107.787C144.891 108.152 144.607 108.588 144.607 109.096C144.607 109.454 144.275 109.633 143.611 109.633C142.96 109.633 142.635 109.454 142.635 109.096C142.635 108.334 143.071 107.663 143.943 107.084C144.809 106.518 145.87 106.234 147.127 106.234C148.136 106.234 149.142 106.482 150.145 106.977C151.147 107.465 151.648 108.311 151.648 109.516V113.725C151.648 114.545 151.86 115.076 152.283 115.316C152.465 115.421 152.557 115.544 152.557 115.688C152.557 115.85 152.456 115.984 152.254 116.088C152.078 116.186 151.847 116.234 151.561 116.234ZM146.424 115.15C147.16 115.15 147.885 114.932 148.602 114.496C149.318 114.053 149.676 113.428 149.676 112.621V111.684C149.305 111.749 148.849 111.781 148.309 111.781C148.009 111.781 147.706 111.775 147.4 111.762C147.094 111.742 146.788 111.732 146.482 111.732C145.044 111.732 144.324 112.286 144.324 113.393C144.324 114.564 145.024 115.15 146.424 115.15ZM162.156 116.234C161.499 116.234 161.17 116.052 161.17 115.688V110.629C161.17 109.867 160.962 109.128 160.545 108.412C160.128 107.696 159.471 107.338 158.572 107.338C157.609 107.338 156.899 107.729 156.443 108.51C155.988 109.285 155.76 110.079 155.76 110.893V115.688C155.76 116.052 155.431 116.234 154.773 116.234C154.109 116.234 153.777 116.052 153.777 115.688V106.791C153.777 106.426 154.109 106.244 154.773 106.244C155.431 106.244 155.76 106.426 155.76 106.791V107.377C156.476 106.615 157.452 106.234 158.689 106.234C159.992 106.234 161.059 106.651 161.893 107.484C162.732 108.311 163.152 109.356 163.152 110.619V115.688C163.152 116.052 162.82 116.234 162.156 116.234ZM173.621 116.234C172.964 116.234 172.635 116.052 172.635 115.688V115.092C171.886 115.847 170.88 116.225 169.617 116.225C166.284 116.225 164.617 114.558 164.617 111.225C164.617 107.891 166.284 106.225 169.617 106.225C170.874 106.225 171.88 106.602 172.635 107.357V103.061C172.635 102.696 172.964 102.514 173.621 102.514C174.285 102.514 174.617 102.696 174.617 103.061V115.688C174.617 116.052 174.285 116.234 173.621 116.234ZM169.617 115.131C170.646 115.131 171.404 114.698 171.893 113.832C172.387 112.966 172.635 112.097 172.635 111.225C172.635 110.352 172.387 109.483 171.893 108.617C171.404 107.751 170.646 107.318 169.617 107.318C168.595 107.318 167.837 107.751 167.342 108.617C166.847 109.483 166.6 110.352 166.6 111.225C166.6 112.097 166.847 112.966 167.342 113.832C167.837 114.698 168.595 115.131 169.617 115.131ZM187.732 116.234C185.688 116.234 184.048 115.587 182.811 114.291C181.58 112.989 180.965 111.348 180.965 109.369C180.965 107.383 181.58 105.746 182.811 104.457C184.048 103.161 185.688 102.514 187.732 102.514C189.777 102.514 191.414 103.161 192.645 104.457C193.882 105.746 194.5 107.383 194.5 109.369C194.5 111.348 193.882 112.989 192.645 114.291C191.414 115.587 189.777 116.234 187.732 116.234ZM187.732 115.141C189.314 115.141 190.506 114.529 191.307 113.305C192.114 112.081 192.518 110.769 192.518 109.369C192.518 107.969 192.114 106.661 191.307 105.443C190.506 104.219 189.314 103.607 187.732 103.607C186.15 103.607 184.956 104.219 184.148 105.443C183.348 106.661 182.947 107.969 182.947 109.369C182.947 110.769 183.348 112.081 184.148 113.305C184.956 114.529 186.15 115.141 187.732 115.141ZM206.014 116.234C205.428 116.234 205.089 116.088 204.998 115.795L203.016 109.242L200.945 115.775C200.848 116.081 200.499 116.234 199.9 116.234C199.34 116.234 199.002 116.094 198.885 115.814L195.271 106.908C195.245 106.85 195.232 106.794 195.232 106.742C195.232 106.404 195.577 106.234 196.268 106.234C196.827 106.234 197.166 106.374 197.283 106.654L200.086 113.568L202.254 106.684C202.345 106.391 202.697 106.244 203.309 106.244C203.895 106.244 204.233 106.391 204.324 106.684L206.414 113.549L209.246 106.547C209.331 106.339 209.575 106.234 209.979 106.234C210.506 106.234 210.77 106.361 210.77 106.615C210.77 106.648 210.757 106.69 210.73 106.742L207.078 115.795C206.961 116.088 206.606 116.234 206.014 116.234ZM220.379 116.234C219.721 116.234 219.393 116.052 219.393 115.688V110.629C219.393 109.867 219.184 109.128 218.768 108.412C218.351 107.696 217.693 107.338 216.795 107.338C215.831 107.338 215.122 107.729 214.666 108.51C214.21 109.285 213.982 110.079 213.982 110.893V115.688C213.982 116.052 213.654 116.234 212.996 116.234C212.332 116.234 212 116.052 212 115.688V106.791C212 106.426 212.332 106.244 212.996 106.244C213.654 106.244 213.982 106.426 213.982 106.791V107.377C214.699 106.615 215.675 106.234 216.912 106.234C218.214 106.234 219.282 106.651 220.115 107.484C220.955 108.311 221.375 109.356 221.375 110.619V115.688C221.375 116.052 221.043 116.234 220.379 116.234ZM228.104 116.234C226.626 116.234 225.379 115.795 224.363 114.916C223.348 114.031 222.84 112.823 222.84 111.293C222.84 109.737 223.354 108.507 224.383 107.602C225.418 106.69 226.688 106.234 228.191 106.234C229.624 106.234 230.857 106.612 231.893 107.367C232.928 108.116 233.445 109.239 233.445 110.736C233.445 111.153 233.117 111.361 232.459 111.361H224.812C224.826 112.325 225.118 113.197 225.691 113.979C226.264 114.76 227.072 115.15 228.113 115.15C228.862 115.15 229.555 114.949 230.193 114.545C230.864 114.115 231.229 113.607 231.287 113.021C231.32 112.683 231.642 112.514 232.254 112.514C232.924 112.514 233.26 112.693 233.26 113.051C233.26 113.233 233.204 113.454 233.094 113.715C232.853 114.288 232.394 114.796 231.717 115.238C230.701 115.902 229.497 116.234 228.104 116.234ZM231.443 110.277C231.235 108.305 230.151 107.318 228.191 107.318C226.447 107.318 225.359 108.305 224.93 110.277H231.443ZM235.906 116.234C235.242 116.234 234.91 116.052 234.91 115.688V106.781C234.91 106.417 235.242 106.234 235.906 106.234C236.564 106.234 236.893 106.417 236.893 106.781V107.377C237.433 106.615 238.221 106.234 239.256 106.234C240.044 106.234 240.724 106.42 241.297 106.791C241.46 106.895 241.541 107.019 241.541 107.162C241.541 107.344 241.437 107.504 241.229 107.641C241.046 107.764 240.844 107.826 240.623 107.826C240.415 107.826 240.236 107.771 240.086 107.66C239.78 107.419 239.438 107.299 239.061 107.299C238.305 107.299 237.736 107.696 237.352 108.49C237.046 109.109 236.893 109.942 236.893 110.99V115.688C236.893 116.052 236.564 116.234 235.906 116.234ZM246.697 116.234C245.734 116.234 244.832 116.023 243.992 115.6C243.159 115.17 242.599 114.473 242.312 113.51C242.286 113.432 242.273 113.373 242.273 113.334C242.273 112.976 242.602 112.797 243.26 112.797C243.839 112.797 244.168 112.95 244.246 113.256C244.585 114.519 245.398 115.15 246.688 115.15C247.228 115.15 247.755 114.988 248.27 114.662C248.79 114.33 249.051 113.858 249.051 113.246C249.051 112.862 248.768 112.546 248.201 112.299C247.817 112.13 247.312 112.003 246.688 111.918C246.167 111.846 245.656 111.765 245.154 111.674C244.66 111.583 244.188 111.387 243.738 111.088C242.924 110.548 242.518 109.851 242.518 108.998C242.518 107.995 243.009 107.286 243.992 106.869C244.982 106.446 245.89 106.234 246.717 106.234C247.563 106.234 248.383 106.423 249.178 106.801C249.979 107.178 250.496 107.8 250.73 108.666C250.75 108.725 250.76 108.78 250.76 108.832C250.76 109.164 250.431 109.34 249.773 109.359C249.194 109.359 248.865 109.203 248.787 108.891C248.533 107.842 247.84 107.318 246.707 107.318C246.219 107.318 245.727 107.455 245.232 107.729C244.738 107.995 244.49 108.412 244.49 108.979C244.49 109.356 244.803 109.669 245.428 109.916C245.851 110.079 246.355 110.206 246.941 110.297C247.462 110.375 247.96 110.463 248.436 110.561C248.911 110.652 249.373 110.84 249.822 111.127C250.623 111.635 251.023 112.322 251.023 113.188C251.023 114.268 250.525 115.046 249.529 115.521C248.533 115.997 247.589 116.234 246.697 116.234Z" fill="#191919"/>
</svg>
