<svg width="294" height="152" viewBox="0 0 294 152" fill="none" xmlns="http://www.w3.org/2000/svg">
<rect x="0.5" y="0.5" width="293" height="151" rx="7.5" stroke="#7ED297" stroke-opacity="0.3"/>
<g clip-path="url(#clip0_1938_6697)">
<path d="M55 56H46C44.9391 56 43.9217 55.5786 43.1716 54.8284C42.4214 54.0783 42 53.0609 42 52V34C42 32.9391 42.4214 31.9217 43.1716 31.1716C43.9217 30.4214 44.9391 30 46 30H55C56.0609 30 57.0783 30.4214 57.8284 31.1716C58.5786 31.9217 59 32.9391 59 34V52C59 53.0609 58.5786 54.0783 57.8284 54.8284C57.0783 55.5786 56.0609 56 55 56ZM46 32C45.4696 32 44.9609 32.2107 44.5858 32.5858C44.2107 32.9609 44 33.4696 44 34V52C44 52.5304 44.2107 53.0391 44.5858 53.4142C44.9609 53.7893 45.4696 54 46 54H55C55.5304 54 56.0391 53.7893 56.4142 53.4142C56.7893 53.0391 57 52.5304 57 52V34C57 33.4696 56.7893 32.9609 56.4142 32.5858C56.0391 32.2107 55.5304 32 55 32H46Z" fill="#7ED297"/>
<path d="M50.4997 53C50.3025 52.9992 50.11 52.9401 49.9463 52.8301C49.7827 52.7202 49.6551 52.5643 49.5798 52.3821C49.5044 52.1999 49.4847 51.9995 49.5229 51.8061C49.5611 51.6126 49.6557 51.4348 49.7947 51.295C49.9821 51.1087 50.2355 51.0042 50.4997 51.0042C50.7639 51.0042 51.0173 51.1087 51.2047 51.295C51.3437 51.4348 51.4383 51.6126 51.4765 51.8061C51.5148 51.9995 51.495 52.1999 51.4196 52.3821C51.3443 52.5643 51.2168 52.7202 51.0531 52.8301C50.8894 52.9401 50.6969 52.9992 50.4997 53ZM69.9997 52H57.9997V50H69.9997C70.5301 50 71.0389 49.7893 71.4139 49.4142C71.789 49.0391 71.9997 48.5304 71.9997 48V28C71.9997 27.4696 71.789 26.9609 71.4139 26.5858C71.0389 26.2107 70.5301 26 69.9997 26H54.4997C53.9693 26 53.4606 26.2107 53.0855 26.5858C52.7104 26.9609 52.4997 27.4696 52.4997 28V31H50.4997V28C50.4997 26.9391 50.9211 25.9217 51.6713 25.1716C52.4214 24.4214 53.4388 24 54.4997 24H69.9997C71.0606 24 72.078 24.4214 72.8281 25.1716C73.5783 25.9217 73.9997 26.9391 73.9997 28V48C73.9997 49.0609 73.5783 50.0783 72.8281 50.8284C72.078 51.5786 71.0606 52 69.9997 52Z" fill="#7ED297"/>
<path d="M62.25 49C61.9848 49 61.7304 48.8946 61.5429 48.7071C61.3554 48.5196 61.25 48.2652 61.25 48C61.2426 47.9352 61.2426 47.8698 61.25 47.805C61.2629 47.7419 61.2813 47.68 61.305 47.62C61.3308 47.5587 61.3626 47.5 61.4 47.445C61.4345 47.3894 61.4766 47.339 61.525 47.295C61.7124 47.1087 61.9658 47.0042 62.23 47.0042C62.4942 47.0042 62.7476 47.1087 62.935 47.295C63.0729 47.4336 63.1671 47.6096 63.2061 47.8012C63.245 47.9928 63.2269 48.1917 63.154 48.3731C63.0811 48.5545 62.9566 48.7106 62.7959 48.822C62.6353 48.9334 62.4455 48.9953 62.25 49ZM64.5 38C64.2348 38 63.9804 37.8946 63.7929 37.7071C63.6054 37.5196 63.5 37.2652 63.5 37V34.5H61C60.7348 34.5 60.4804 34.3946 60.2929 34.2071C60.1054 34.0196 60 33.7652 60 33.5C60 33.2348 60.1054 32.9804 60.2929 32.7929C60.4804 32.6054 60.7348 32.5 61 32.5H64.5C64.7652 32.5 65.0196 32.6054 65.2071 32.7929C65.3946 32.9804 65.5 33.2348 65.5 33.5V37C65.5 37.2652 65.3946 37.5196 65.2071 37.7071C65.0196 37.8946 64.7652 38 64.5 38ZM55 47.5H51.5C51.2348 47.5 50.9804 47.3946 50.7929 47.2071C50.6054 47.0196 50.5 46.7652 50.5 46.5V43C50.5 42.7348 50.6054 42.4804 50.7929 42.2929C50.9804 42.1054 51.2348 42 51.5 42C51.7652 42 52.0196 42.1054 52.2071 42.2929C52.3946 42.4804 52.5 42.7348 52.5 43V45.5H55C55.2652 45.5 55.5196 45.6054 55.7071 45.7929C55.8946 45.9804 56 46.2348 56 46.5C56 46.7652 55.8946 47.0196 55.7071 47.2071C55.5196 47.3946 55.2652 47.5 55 47.5Z" fill="#7ED297"/>
<path d="M51.3047 45.287L63.8007 33.0365L65.2007 34.4645L52.7052 46.715L51.3047 45.287Z" fill="#7ED297"/>
</g>
<path d="M48.5723 88.2344C47.2897 88.2344 46.0365 87.847 44.8125 87.0723C43.5885 86.291 42.9766 85.194 42.9766 83.7812V75.0605C42.9766 74.696 43.3053 74.5137 43.9629 74.5137C44.627 74.5137 44.959 74.696 44.959 75.0605V83.7812C44.959 84.7383 45.3333 85.5391 46.082 86.1836C46.8372 86.8216 47.6738 87.1406 48.5918 87.1406C49.5163 87.1406 50.3496 86.8151 51.0918 86.1641C51.8405 85.513 52.2148 84.7188 52.2148 83.7812V75.0605C52.2148 74.696 52.5469 74.5137 53.2109 74.5137C53.8685 74.5137 54.1973 74.696 54.1973 75.0605V83.7812C54.1973 85.2005 53.5788 86.2975 52.3418 87.0723C51.1113 87.847 49.8548 88.2344 48.5723 88.2344ZM60.0957 88.2344C59.1322 88.2344 58.2305 88.0228 57.3906 87.5996C56.5573 87.1699 55.9974 86.4733 55.7109 85.5098C55.6849 85.4316 55.6719 85.373 55.6719 85.334C55.6719 84.9759 56.0007 84.7969 56.6582 84.7969C57.2376 84.7969 57.5664 84.9499 57.6445 85.2559C57.9831 86.5189 58.7969 87.1504 60.0859 87.1504C60.6263 87.1504 61.1536 86.9876 61.668 86.6621C62.1888 86.3301 62.4492 85.8581 62.4492 85.2461C62.4492 84.862 62.166 84.5462 61.5996 84.2988C61.2155 84.1296 60.7109 84.0026 60.0859 83.918C59.5651 83.8464 59.054 83.765 58.5527 83.6738C58.0579 83.5827 57.5859 83.3874 57.1367 83.0879C56.3229 82.5475 55.916 81.8509 55.916 80.998C55.916 79.9954 56.4076 79.2858 57.3906 78.8691C58.3802 78.446 59.2884 78.2344 60.1152 78.2344C60.9616 78.2344 61.7819 78.4232 62.5762 78.8008C63.377 79.1784 63.8945 79.8001 64.1289 80.666C64.1484 80.7246 64.1582 80.7799 64.1582 80.832C64.1582 81.1641 63.8294 81.3398 63.1719 81.3594C62.5924 81.3594 62.2637 81.2031 62.1855 80.8906C61.9316 79.8424 61.2383 79.3184 60.1055 79.3184C59.6172 79.3184 59.1257 79.4551 58.6309 79.7285C58.1361 79.9954 57.8887 80.4121 57.8887 80.9785C57.8887 81.3561 58.2012 81.6686 58.8262 81.916C59.2493 82.0788 59.7539 82.2057 60.3398 82.2969C60.8607 82.375 61.3587 82.4629 61.834 82.5605C62.3092 82.6517 62.7715 82.8405 63.2207 83.127C64.0215 83.6348 64.4219 84.3216 64.4219 85.1875C64.4219 86.2682 63.9238 87.0462 62.9277 87.5215C61.9316 87.9967 60.9876 88.2344 60.0957 88.2344ZM70.6621 88.2344C69.1842 88.2344 67.9375 87.7949 66.9219 86.916C65.9062 86.0306 65.3984 84.8229 65.3984 83.293C65.3984 81.737 65.9128 80.5065 66.9414 79.6016C67.9766 78.6901 69.2461 78.2344 70.75 78.2344C72.1823 78.2344 73.416 78.612 74.4512 79.3672C75.4863 80.1159 76.0039 81.2389 76.0039 82.7363C76.0039 83.153 75.6751 83.3613 75.0176 83.3613H67.3711C67.3841 84.3249 67.6771 85.1973 68.25 85.9785C68.8229 86.7598 69.6302 87.1504 70.6719 87.1504C71.4206 87.1504 72.1139 86.9486 72.752 86.5449C73.4225 86.1152 73.7871 85.6074 73.8457 85.0215C73.8783 84.6829 74.2005 84.5137 74.8125 84.5137C75.4831 84.5137 75.8184 84.6927 75.8184 85.0508C75.8184 85.2331 75.763 85.4544 75.6523 85.7148C75.4115 86.2878 74.9525 86.7956 74.2754 87.2383C73.2598 87.9023 72.0553 88.2344 70.6621 88.2344ZM74.002 82.2773C73.7936 80.3047 72.7096 79.3184 70.75 79.3184C69.0052 79.3184 67.918 80.3047 67.4883 82.2773H74.002ZM78.4648 88.2344C77.8008 88.2344 77.4688 88.0521 77.4688 87.6875V78.7812C77.4688 78.4167 77.8008 78.2344 78.4648 78.2344C79.1224 78.2344 79.4512 78.4167 79.4512 78.7812V79.377C79.9915 78.6152 80.7793 78.2344 81.8145 78.2344C82.6022 78.2344 83.2826 78.4199 83.8555 78.791C84.0182 78.8952 84.0996 79.0189 84.0996 79.1621C84.0996 79.3444 83.9954 79.5039 83.7871 79.6406C83.6048 79.7643 83.403 79.8262 83.1816 79.8262C82.9733 79.8262 82.7943 79.7708 82.6445 79.6602C82.3385 79.4193 81.9967 79.2988 81.6191 79.2988C80.8639 79.2988 80.2943 79.696 79.9102 80.4902C79.6042 81.1087 79.4512 81.9421 79.4512 82.9902V87.6875C79.4512 88.0521 79.1224 88.2344 78.4648 88.2344ZM95.7402 88H91.1895C90.5319 88 90.2031 87.8177 90.2031 87.4531V75.2949C90.2031 74.9303 90.5319 74.748 91.1895 74.748H95.7402C97.7064 74.748 99.2363 75.3991 100.33 76.7012C101.424 78.0033 101.971 79.5755 101.971 81.418C101.971 83.2604 101.424 84.8197 100.33 86.0957C99.2363 87.3652 97.7064 88 95.7402 88ZM95.7402 86.9062C97.2051 86.9062 98.2793 86.3008 98.9629 85.0898C99.653 83.8724 99.998 82.6452 99.998 81.4082C99.998 80.1842 99.653 78.9505 98.9629 77.707C98.2728 76.4635 97.1986 75.8418 95.7402 75.8418H92.1855V86.9062H95.7402ZM112.42 88.2344C112.127 88.2344 111.889 88.179 111.707 88.0684C111.251 87.8014 110.965 87.4531 110.848 87.0234C110.431 87.5117 109.871 87.8372 109.168 88C108.471 88.1562 107.843 88.2344 107.283 88.2344C106.391 88.2344 105.486 88.0228 104.568 87.5996C103.657 87.1699 103.201 86.4342 103.201 85.3926C103.201 84.2077 103.65 83.4557 104.549 83.1367C105.447 82.8177 106.378 82.6582 107.342 82.6582C107.55 82.6582 107.804 82.6647 108.104 82.6777C108.41 82.6908 108.696 82.6973 108.963 82.6973C109.699 82.6973 110.223 82.6126 110.535 82.4434V81.5156C110.535 80.0508 109.686 79.3184 107.986 79.3184C107.361 79.3184 106.805 79.4746 106.316 79.7871C105.75 80.1517 105.467 80.5879 105.467 81.0957C105.467 81.4538 105.135 81.6328 104.471 81.6328C103.82 81.6328 103.494 81.4538 103.494 81.0957C103.494 80.334 103.93 79.6634 104.803 79.084C105.669 78.5176 106.73 78.2344 107.986 78.2344C108.995 78.2344 110.001 78.4818 111.004 78.9766C112.007 79.4648 112.508 80.3112 112.508 81.5156V85.7246C112.508 86.5449 112.719 87.0755 113.143 87.3164C113.325 87.4206 113.416 87.5443 113.416 87.6875C113.416 87.8503 113.315 87.9837 113.113 88.0879C112.938 88.1855 112.706 88.2344 112.42 88.2344ZM107.283 87.1504C108.019 87.1504 108.745 86.9323 109.461 86.4961C110.177 86.0534 110.535 85.4284 110.535 84.6211V83.6836C110.164 83.7487 109.708 83.7812 109.168 83.7812C108.868 83.7812 108.566 83.7747 108.26 83.7617C107.954 83.7422 107.648 83.7324 107.342 83.7324C105.903 83.7324 105.184 84.2858 105.184 85.3926C105.184 86.5645 105.883 87.1504 107.283 87.1504ZM118.572 88.2344C117.609 88.2344 116.707 88.0228 115.867 87.5996C115.034 87.1699 114.474 86.4733 114.188 85.5098C114.161 85.4316 114.148 85.373 114.148 85.334C114.148 84.9759 114.477 84.7969 115.135 84.7969C115.714 84.7969 116.043 84.9499 116.121 85.2559C116.46 86.5189 117.273 87.1504 118.562 87.1504C119.103 87.1504 119.63 86.9876 120.145 86.6621C120.665 86.3301 120.926 85.8581 120.926 85.2461C120.926 84.862 120.643 84.5462 120.076 84.2988C119.692 84.1296 119.188 84.0026 118.562 83.918C118.042 83.8464 117.531 83.765 117.029 83.6738C116.535 83.5827 116.062 83.3874 115.613 83.0879C114.799 82.5475 114.393 81.8509 114.393 80.998C114.393 79.9954 114.884 79.2858 115.867 78.8691C116.857 78.446 117.765 78.2344 118.592 78.2344C119.438 78.2344 120.258 78.4232 121.053 78.8008C121.854 79.1784 122.371 79.8001 122.605 80.666C122.625 80.7246 122.635 80.7799 122.635 80.832C122.635 81.1641 122.306 81.3398 121.648 81.3594C121.069 81.3594 120.74 81.2031 120.662 80.8906C120.408 79.8424 119.715 79.3184 118.582 79.3184C118.094 79.3184 117.602 79.4551 117.107 79.7285C116.613 79.9954 116.365 80.4121 116.365 80.9785C116.365 81.3561 116.678 81.6686 117.303 81.916C117.726 82.0788 118.23 82.2057 118.816 82.2969C119.337 82.375 119.835 82.4629 120.311 82.5605C120.786 82.6517 121.248 82.8405 121.697 83.127C122.498 83.6348 122.898 84.3216 122.898 85.1875C122.898 86.2682 122.4 87.0462 121.404 87.5215C120.408 87.9967 119.464 88.2344 118.572 88.2344ZM132.742 88.2344C132.085 88.2344 131.756 88.0521 131.756 87.6875V82.6289C131.756 81.8672 131.548 81.1283 131.131 80.4121C130.714 79.696 130.057 79.3379 129.158 79.3379C128.195 79.3379 127.485 79.7285 127.029 80.5098C126.574 81.2845 126.346 82.0788 126.346 82.8926V87.6875C126.346 88.0521 126.017 88.2344 125.359 88.2344C124.695 88.2344 124.363 88.0521 124.363 87.6875V75.0605C124.363 74.696 124.695 74.5137 125.359 74.5137C126.017 74.5137 126.346 74.696 126.346 75.0605V79.377C127.062 78.6152 128.038 78.2344 129.275 78.2344C130.577 78.2344 131.645 78.651 132.479 79.4844C133.318 80.3112 133.738 81.3561 133.738 82.6191V87.6875C133.738 88.0521 133.406 88.2344 132.742 88.2344ZM136.199 88.2344C135.535 88.2344 135.203 88.0521 135.203 87.6875V75.0605C135.203 74.696 135.535 74.5137 136.199 74.5137C136.857 74.5137 137.186 74.696 137.186 75.0605V79.3574C137.941 78.6022 138.947 78.2246 140.203 78.2246C143.536 78.2246 145.203 79.8913 145.203 83.2246C145.203 86.5579 143.536 88.2246 140.203 88.2246C138.94 88.2246 137.934 87.847 137.186 87.0918V87.6875C137.186 88.0521 136.857 88.2344 136.199 88.2344ZM140.203 87.1309C141.232 87.1309 141.99 86.6979 142.479 85.832C142.973 84.9661 143.221 84.097 143.221 83.2246C143.221 82.3522 142.973 81.4831 142.479 80.6172C141.99 79.7513 141.232 79.3184 140.203 79.3184C139.181 79.3184 138.423 79.7513 137.928 80.6172C137.433 81.4831 137.186 82.3522 137.186 83.2246C137.186 84.097 137.433 84.9661 137.928 85.832C138.423 86.6979 139.181 87.1309 140.203 87.1309ZM151.502 88.2344C149.979 88.2344 148.709 87.7819 147.693 86.877C146.684 85.972 146.18 84.7578 146.18 83.2344C146.18 81.7109 146.684 80.4967 147.693 79.5918C148.709 78.6868 149.979 78.2344 151.502 78.2344C153.025 78.2344 154.292 78.6868 155.301 79.5918C156.316 80.4967 156.824 81.7109 156.824 83.2344C156.824 84.7578 156.316 85.972 155.301 86.877C154.292 87.7819 153.025 88.2344 151.502 88.2344ZM151.502 87.1504C152.589 87.1504 153.416 86.7402 153.982 85.9199C154.555 85.0931 154.842 84.1979 154.842 83.2344C154.842 82.2643 154.555 81.3691 153.982 80.5488C153.416 79.7285 152.589 79.3184 151.502 79.3184C150.421 79.3184 149.594 79.7285 149.021 80.5488C148.449 81.3691 148.162 82.2643 148.162 83.2344C148.162 84.1979 148.449 85.0931 149.021 85.9199C149.594 86.7402 150.421 87.1504 151.502 87.1504ZM167.264 88.2344C166.971 88.2344 166.733 88.179 166.551 88.0684C166.095 87.8014 165.809 87.4531 165.691 87.0234C165.275 87.5117 164.715 87.8372 164.012 88C163.315 88.1562 162.687 88.2344 162.127 88.2344C161.235 88.2344 160.33 88.0228 159.412 87.5996C158.501 87.1699 158.045 86.4342 158.045 85.3926C158.045 84.2077 158.494 83.4557 159.393 83.1367C160.291 82.8177 161.222 82.6582 162.186 82.6582C162.394 82.6582 162.648 82.6647 162.947 82.6777C163.253 82.6908 163.54 82.6973 163.807 82.6973C164.542 82.6973 165.066 82.6126 165.379 82.4434V81.5156C165.379 80.0508 164.529 79.3184 162.83 79.3184C162.205 79.3184 161.648 79.4746 161.16 79.7871C160.594 80.1517 160.311 80.5879 160.311 81.0957C160.311 81.4538 159.979 81.6328 159.314 81.6328C158.663 81.6328 158.338 81.4538 158.338 81.0957C158.338 80.334 158.774 79.6634 159.646 79.084C160.512 78.5176 161.574 78.2344 162.83 78.2344C163.839 78.2344 164.845 78.4818 165.848 78.9766C166.85 79.4648 167.352 80.3112 167.352 81.5156V85.7246C167.352 86.5449 167.563 87.0755 167.986 87.3164C168.169 87.4206 168.26 87.5443 168.26 87.6875C168.26 87.8503 168.159 87.9837 167.957 88.0879C167.781 88.1855 167.55 88.2344 167.264 88.2344ZM162.127 87.1504C162.863 87.1504 163.589 86.9323 164.305 86.4961C165.021 86.0534 165.379 85.4284 165.379 84.6211V83.6836C165.008 83.7487 164.552 83.7812 164.012 83.7812C163.712 83.7812 163.41 83.7747 163.104 83.7617C162.798 83.7422 162.492 83.7324 162.186 83.7324C160.747 83.7324 160.027 84.2858 160.027 85.3926C160.027 86.5645 160.727 87.1504 162.127 87.1504ZM170.477 88.2344C169.812 88.2344 169.48 88.0521 169.48 87.6875V78.7812C169.48 78.4167 169.812 78.2344 170.477 78.2344C171.134 78.2344 171.463 78.4167 171.463 78.7812V79.377C172.003 78.6152 172.791 78.2344 173.826 78.2344C174.614 78.2344 175.294 78.4199 175.867 78.791C176.03 78.8952 176.111 79.0189 176.111 79.1621C176.111 79.3444 176.007 79.5039 175.799 79.6406C175.617 79.7643 175.415 79.8262 175.193 79.8262C174.985 79.8262 174.806 79.7708 174.656 79.6602C174.35 79.4193 174.008 79.2988 173.631 79.2988C172.876 79.2988 172.306 79.696 171.922 80.4902C171.616 81.1087 171.463 81.9421 171.463 82.9902V87.6875C171.463 88.0521 171.134 88.2344 170.477 88.2344ZM185.359 88.2344C184.702 88.2344 184.373 88.0521 184.373 87.6875V87.0918C183.624 87.847 182.618 88.2246 181.355 88.2246C178.022 88.2246 176.355 86.5579 176.355 83.2246C176.355 79.8913 178.022 78.2246 181.355 78.2246C182.612 78.2246 183.618 78.6022 184.373 79.3574V75.0605C184.373 74.696 184.702 74.5137 185.359 74.5137C186.023 74.5137 186.355 74.696 186.355 75.0605V87.6875C186.355 88.0521 186.023 88.2344 185.359 88.2344ZM181.355 87.1309C182.384 87.1309 183.143 86.6979 183.631 85.832C184.126 84.9661 184.373 84.097 184.373 83.2246C184.373 82.3522 184.126 81.4831 183.631 80.6172C183.143 79.7513 182.384 79.3184 181.355 79.3184C180.333 79.3184 179.575 79.7513 179.08 80.6172C178.585 81.4831 178.338 82.3522 178.338 83.2246C178.338 84.097 178.585 84.9661 179.08 85.832C179.575 86.6979 180.333 87.1309 181.355 87.1309ZM202.166 88.2344C201.873 88.2344 201.635 88.179 201.453 88.0684C200.997 87.8014 200.711 87.4531 200.594 87.0234C200.177 87.5117 199.617 87.8372 198.914 88C198.217 88.1562 197.589 88.2344 197.029 88.2344C196.137 88.2344 195.232 88.0228 194.314 87.5996C193.403 87.1699 192.947 86.4342 192.947 85.3926C192.947 84.2077 193.396 83.4557 194.295 83.1367C195.193 82.8177 196.124 82.6582 197.088 82.6582C197.296 82.6582 197.55 82.6647 197.85 82.6777C198.156 82.6908 198.442 82.6973 198.709 82.6973C199.445 82.6973 199.969 82.6126 200.281 82.4434V81.5156C200.281 80.0508 199.432 79.3184 197.732 79.3184C197.107 79.3184 196.551 79.4746 196.062 79.7871C195.496 80.1517 195.213 80.5879 195.213 81.0957C195.213 81.4538 194.881 81.6328 194.217 81.6328C193.566 81.6328 193.24 81.4538 193.24 81.0957C193.24 80.334 193.676 79.6634 194.549 79.084C195.415 78.5176 196.476 78.2344 197.732 78.2344C198.742 78.2344 199.747 78.4818 200.75 78.9766C201.753 79.4648 202.254 80.3112 202.254 81.5156V85.7246C202.254 86.5449 202.465 87.0755 202.889 87.3164C203.071 87.4206 203.162 87.5443 203.162 87.6875C203.162 87.8503 203.061 87.9837 202.859 88.0879C202.684 88.1855 202.452 88.2344 202.166 88.2344ZM197.029 87.1504C197.765 87.1504 198.491 86.9323 199.207 86.4961C199.923 86.0534 200.281 85.4284 200.281 84.6211V83.6836C199.91 83.7487 199.454 83.7812 198.914 83.7812C198.615 83.7812 198.312 83.7747 198.006 83.7617C197.7 83.7422 197.394 83.7324 197.088 83.7324C195.649 83.7324 194.93 84.2858 194.93 85.3926C194.93 86.5645 195.63 87.1504 197.029 87.1504ZM212.762 88.2344C212.104 88.2344 211.775 88.0521 211.775 87.6875V82.6289C211.775 81.8672 211.567 81.1283 211.15 80.4121C210.734 79.696 210.076 79.3379 209.178 79.3379C208.214 79.3379 207.505 79.7285 207.049 80.5098C206.593 81.2845 206.365 82.0788 206.365 82.8926V87.6875C206.365 88.0521 206.036 88.2344 205.379 88.2344C204.715 88.2344 204.383 88.0521 204.383 87.6875V78.791C204.383 78.4264 204.715 78.2441 205.379 78.2441C206.036 78.2441 206.365 78.4264 206.365 78.791V79.377C207.081 78.6152 208.058 78.2344 209.295 78.2344C210.597 78.2344 211.665 78.651 212.498 79.4844C213.338 80.3112 213.758 81.3561 213.758 82.6191V87.6875C213.758 88.0521 213.426 88.2344 212.762 88.2344ZM224.227 88.2344C223.569 88.2344 223.24 88.0521 223.24 87.6875V87.0918C222.492 87.847 221.486 88.2246 220.223 88.2246C216.889 88.2246 215.223 86.5579 215.223 83.2246C215.223 79.8913 216.889 78.2246 220.223 78.2246C221.479 78.2246 222.485 78.6022 223.24 79.3574V75.0605C223.24 74.696 223.569 74.5137 224.227 74.5137C224.891 74.5137 225.223 74.696 225.223 75.0605V87.6875C225.223 88.0521 224.891 88.2344 224.227 88.2344ZM220.223 87.1309C221.251 87.1309 222.01 86.6979 222.498 85.832C222.993 84.9661 223.24 84.097 223.24 83.2246C223.24 82.3522 222.993 81.4831 222.498 80.6172C222.01 79.7513 221.251 79.3184 220.223 79.3184C219.201 79.3184 218.442 79.7513 217.947 80.6172C217.452 81.4831 217.205 82.3522 217.205 83.2246C217.205 84.097 217.452 84.9661 217.947 85.832C218.442 86.6979 219.201 87.1309 220.223 87.1309ZM54.0312 116.234C53.7773 116.234 53.556 116.186 53.3672 116.088C52.625 115.717 52.0651 115.219 51.6875 114.594C51.3099 113.969 50.9714 113.327 50.6719 112.67C50.4505 112.175 50.1576 111.609 49.793 110.971C49.4349 110.326 48.9271 110.004 48.2695 110.004H44.959V115.688C44.959 116.052 44.627 116.234 43.9629 116.234C43.3053 116.234 42.9766 116.052 42.9766 115.688V103.295C42.9766 102.93 43.3053 102.748 43.9629 102.748H50.0078C51.069 102.748 52.0521 103.07 52.957 103.715C53.862 104.359 54.3145 105.245 54.3145 106.371C54.3145 108.292 53.2207 109.467 51.0332 109.896C51.3978 110.235 51.6973 110.629 51.9316 111.078C52.1725 111.521 52.3939 111.964 52.5957 112.406C52.8236 112.921 53.097 113.461 53.416 114.027C53.735 114.594 54.1615 115.01 54.6953 115.277C54.9102 115.388 55.0176 115.525 55.0176 115.688C55.0176 115.824 54.9329 115.945 54.7637 116.049C54.5749 116.173 54.3307 116.234 54.0312 116.234ZM50.0078 108.91C50.6654 108.91 51.2155 108.64 51.6582 108.1C52.1074 107.559 52.332 106.983 52.332 106.371C52.332 105.753 52.1074 105.176 51.6582 104.643C51.2155 104.109 50.6654 103.842 50.0078 103.842H44.959V108.91H50.0078ZM61.2676 116.234C59.7897 116.234 58.543 115.795 57.5273 114.916C56.5117 114.031 56.0039 112.823 56.0039 111.293C56.0039 109.737 56.5182 108.507 57.5469 107.602C58.582 106.69 59.8516 106.234 61.3555 106.234C62.7878 106.234 64.0215 106.612 65.0566 107.367C66.0918 108.116 66.6094 109.239 66.6094 110.736C66.6094 111.153 66.2806 111.361 65.623 111.361H57.9766C57.9896 112.325 58.2826 113.197 58.8555 113.979C59.4284 114.76 60.2357 115.15 61.2773 115.15C62.026 115.15 62.7194 114.949 63.3574 114.545C64.028 114.115 64.3926 113.607 64.4512 113.021C64.4837 112.683 64.806 112.514 65.418 112.514C66.0885 112.514 66.4238 112.693 66.4238 113.051C66.4238 113.233 66.3685 113.454 66.2578 113.715C66.0169 114.288 65.5579 114.796 64.8809 115.238C63.8652 115.902 62.6608 116.234 61.2676 116.234ZM64.6074 110.277C64.3991 108.305 63.3151 107.318 61.3555 107.318C59.6107 107.318 58.5234 108.305 58.0938 110.277H64.6074ZM72.0098 116.234C71.0462 116.234 70.1445 116.023 69.3047 115.6C68.4714 115.17 67.9115 114.473 67.625 113.51C67.599 113.432 67.5859 113.373 67.5859 113.334C67.5859 112.976 67.9147 112.797 68.5723 112.797C69.1517 112.797 69.4805 112.95 69.5586 113.256C69.8971 114.519 70.7109 115.15 72 115.15C72.5404 115.15 73.0677 114.988 73.582 114.662C74.1029 114.33 74.3633 113.858 74.3633 113.246C74.3633 112.862 74.0801 112.546 73.5137 112.299C73.1296 112.13 72.625 112.003 72 111.918C71.4792 111.846 70.9681 111.765 70.4668 111.674C69.972 111.583 69.5 111.387 69.0508 111.088C68.237 110.548 67.8301 109.851 67.8301 108.998C67.8301 107.995 68.3216 107.286 69.3047 106.869C70.2943 106.446 71.2025 106.234 72.0293 106.234C72.8757 106.234 73.696 106.423 74.4902 106.801C75.291 107.178 75.8086 107.8 76.043 108.666C76.0625 108.725 76.0723 108.78 76.0723 108.832C76.0723 109.164 75.7435 109.34 75.0859 109.359C74.5065 109.359 74.1777 109.203 74.0996 108.891C73.8457 107.842 73.1523 107.318 72.0195 107.318C71.5312 107.318 71.0397 107.455 70.5449 107.729C70.0501 107.995 69.8027 108.412 69.8027 108.979C69.8027 109.356 70.1152 109.669 70.7402 109.916C71.1634 110.079 71.668 110.206 72.2539 110.297C72.7747 110.375 73.2728 110.463 73.748 110.561C74.2233 110.652 74.6855 110.84 75.1348 111.127C75.9355 111.635 76.3359 112.322 76.3359 113.188C76.3359 114.268 75.8379 115.046 74.8418 115.521C73.8457 115.997 72.9017 116.234 72.0098 116.234ZM78.7969 119.945C78.1328 119.945 77.8008 119.763 77.8008 119.398V106.771C77.8008 106.407 78.1328 106.225 78.7969 106.225C79.4544 106.225 79.7832 106.407 79.7832 106.771V107.367C80.5319 106.612 81.5378 106.234 82.8008 106.234C86.1341 106.234 87.8008 107.901 87.8008 111.234C87.8008 114.568 86.1341 116.234 82.8008 116.234C81.5443 116.234 80.5384 115.857 79.7832 115.102V119.398C79.7832 119.763 79.4544 119.945 78.7969 119.945ZM82.8008 115.141C83.8294 115.141 84.5879 114.708 85.0762 113.842C85.571 112.976 85.8184 112.107 85.8184 111.234C85.8184 110.362 85.571 109.493 85.0762 108.627C84.5879 107.761 83.8294 107.328 82.8008 107.328C81.7786 107.328 81.0202 107.761 80.5254 108.627C80.0306 109.493 79.7832 110.362 79.7832 111.234C79.7832 112.107 80.0306 112.976 80.5254 113.842C81.0202 114.708 81.7786 115.141 82.8008 115.141ZM94.0996 116.234C92.5762 116.234 91.3066 115.782 90.291 114.877C89.2819 113.972 88.7773 112.758 88.7773 111.234C88.7773 109.711 89.2819 108.497 90.291 107.592C91.3066 106.687 92.5762 106.234 94.0996 106.234C95.623 106.234 96.8893 106.687 97.8984 107.592C98.9141 108.497 99.4219 109.711 99.4219 111.234C99.4219 112.758 98.9141 113.972 97.8984 114.877C96.8893 115.782 95.623 116.234 94.0996 116.234ZM94.0996 115.15C95.1868 115.15 96.0137 114.74 96.5801 113.92C97.153 113.093 97.4395 112.198 97.4395 111.234C97.4395 110.264 97.153 109.369 96.5801 108.549C96.0137 107.729 95.1868 107.318 94.0996 107.318C93.0189 107.318 92.1921 107.729 91.6191 108.549C91.0462 109.369 90.7598 110.264 90.7598 111.234C90.7598 112.198 91.0462 113.093 91.6191 113.92C92.1921 114.74 93.0189 115.15 94.0996 115.15ZM109.266 116.234C108.608 116.234 108.279 116.052 108.279 115.688V110.629C108.279 109.867 108.071 109.128 107.654 108.412C107.238 107.696 106.58 107.338 105.682 107.338C104.718 107.338 104.008 107.729 103.553 108.51C103.097 109.285 102.869 110.079 102.869 110.893V115.688C102.869 116.052 102.54 116.234 101.883 116.234C101.219 116.234 100.887 116.052 100.887 115.688V106.791C100.887 106.426 101.219 106.244 101.883 106.244C102.54 106.244 102.869 106.426 102.869 106.791V107.377C103.585 106.615 104.562 106.234 105.799 106.234C107.101 106.234 108.169 106.651 109.002 107.484C109.842 108.311 110.262 109.356 110.262 110.619V115.688C110.262 116.052 109.93 116.234 109.266 116.234ZM116.15 116.234C115.187 116.234 114.285 116.023 113.445 115.6C112.612 115.17 112.052 114.473 111.766 113.51C111.74 113.432 111.727 113.373 111.727 113.334C111.727 112.976 112.055 112.797 112.713 112.797C113.292 112.797 113.621 112.95 113.699 113.256C114.038 114.519 114.852 115.15 116.141 115.15C116.681 115.15 117.208 114.988 117.723 114.662C118.243 114.33 118.504 113.858 118.504 113.246C118.504 112.862 118.221 112.546 117.654 112.299C117.27 112.13 116.766 112.003 116.141 111.918C115.62 111.846 115.109 111.765 114.607 111.674C114.113 111.583 113.641 111.387 113.191 111.088C112.378 110.548 111.971 109.851 111.971 108.998C111.971 107.995 112.462 107.286 113.445 106.869C114.435 106.446 115.343 106.234 116.17 106.234C117.016 106.234 117.837 106.423 118.631 106.801C119.432 107.178 119.949 107.8 120.184 108.666C120.203 108.725 120.213 108.78 120.213 108.832C120.213 109.164 119.884 109.34 119.227 109.359C118.647 109.359 118.318 109.203 118.24 108.891C117.986 107.842 117.293 107.318 116.16 107.318C115.672 107.318 115.18 107.455 114.686 107.729C114.191 107.995 113.943 108.412 113.943 108.979C113.943 109.356 114.256 109.669 114.881 109.916C115.304 110.079 115.809 110.206 116.395 110.297C116.915 110.375 117.413 110.463 117.889 110.561C118.364 110.652 118.826 110.84 119.275 111.127C120.076 111.635 120.477 112.322 120.477 113.188C120.477 114.268 119.979 115.046 118.982 115.521C117.986 115.997 117.042 116.234 116.15 116.234ZM122.703 105.375C122.033 105.375 121.697 105.043 121.697 104.379C121.697 103.708 122.033 103.373 122.703 103.373C123.367 103.373 123.699 103.708 123.699 104.379C123.699 105.043 123.367 105.375 122.703 105.375ZM122.703 116.234C122.039 116.234 121.707 116.052 121.707 115.688V106.781C121.707 106.417 122.039 106.234 122.703 106.234C123.361 106.234 123.689 106.417 123.689 106.781V115.688C123.689 116.052 123.361 116.234 122.703 116.234ZM129.705 116.234C129.132 116.234 128.784 116.098 128.66 115.824L124.705 106.869C124.686 106.817 124.676 106.775 124.676 106.742C124.676 106.41 125.031 106.244 125.74 106.244C126.281 106.244 126.609 106.378 126.727 106.645L129.959 113.959L133.182 106.537C133.266 106.342 133.517 106.244 133.934 106.244C134.454 106.244 134.715 106.365 134.715 106.605C134.715 106.618 134.708 106.651 134.695 106.703L130.74 115.824C130.623 116.098 130.278 116.234 129.705 116.234ZM140.213 116.234C138.735 116.234 137.488 115.795 136.473 114.916C135.457 114.031 134.949 112.823 134.949 111.293C134.949 109.737 135.464 108.507 136.492 107.602C137.527 106.69 138.797 106.234 140.301 106.234C141.733 106.234 142.967 106.612 144.002 107.367C145.037 108.116 145.555 109.239 145.555 110.736C145.555 111.153 145.226 111.361 144.568 111.361H136.922C136.935 112.325 137.228 113.197 137.801 113.979C138.374 114.76 139.181 115.15 140.223 115.15C140.971 115.15 141.665 114.949 142.303 114.545C142.973 114.115 143.338 113.607 143.396 113.021C143.429 112.683 143.751 112.514 144.363 112.514C145.034 112.514 145.369 112.693 145.369 113.051C145.369 113.233 145.314 113.454 145.203 113.715C144.962 114.288 144.503 114.796 143.826 115.238C142.811 115.902 141.606 116.234 140.213 116.234ZM143.553 110.277C143.344 108.305 142.26 107.318 140.301 107.318C138.556 107.318 137.469 108.305 137.039 110.277H143.553ZM163.436 116.234C162.843 116.234 162.485 116.094 162.361 115.814L160.574 111.762H154.49L152.693 115.932C152.609 116.133 152.365 116.234 151.961 116.234C151.434 116.234 151.17 116.104 151.17 115.844C151.17 115.824 151.176 115.795 151.189 115.756L156.736 102.914C156.847 102.647 157.218 102.514 157.85 102.514C158.403 102.514 158.742 102.65 158.865 102.924L164.451 115.58C164.471 115.626 164.48 115.668 164.48 115.707C164.48 116.059 164.132 116.234 163.436 116.234ZM160.086 110.668L157.498 104.799L154.969 110.668H160.086ZM166.707 119.945C166.043 119.945 165.711 119.763 165.711 119.398V106.771C165.711 106.407 166.043 106.225 166.707 106.225C167.365 106.225 167.693 106.407 167.693 106.771V107.367C168.442 106.612 169.448 106.234 170.711 106.234C174.044 106.234 175.711 107.901 175.711 111.234C175.711 114.568 174.044 116.234 170.711 116.234C169.454 116.234 168.449 115.857 167.693 115.102V119.398C167.693 119.763 167.365 119.945 166.707 119.945ZM170.711 115.141C171.74 115.141 172.498 114.708 172.986 113.842C173.481 112.976 173.729 112.107 173.729 111.234C173.729 110.362 173.481 109.493 172.986 108.627C172.498 107.761 171.74 107.328 170.711 107.328C169.689 107.328 168.93 107.761 168.436 108.627C167.941 109.493 167.693 110.362 167.693 111.234C167.693 112.107 167.941 112.976 168.436 113.842C168.93 114.708 169.689 115.141 170.711 115.141ZM178.172 119.945C177.508 119.945 177.176 119.763 177.176 119.398V106.771C177.176 106.407 177.508 106.225 178.172 106.225C178.829 106.225 179.158 106.407 179.158 106.771V107.367C179.907 106.612 180.913 106.234 182.176 106.234C185.509 106.234 187.176 107.901 187.176 111.234C187.176 114.568 185.509 116.234 182.176 116.234C180.919 116.234 179.913 115.857 179.158 115.102V119.398C179.158 119.763 178.829 119.945 178.172 119.945ZM182.176 115.141C183.204 115.141 183.963 114.708 184.451 113.842C184.946 112.976 185.193 112.107 185.193 111.234C185.193 110.362 184.946 109.493 184.451 108.627C183.963 107.761 183.204 107.328 182.176 107.328C181.154 107.328 180.395 107.761 179.9 108.627C179.406 109.493 179.158 110.362 179.158 111.234C179.158 112.107 179.406 112.976 179.9 113.842C180.395 114.708 181.154 115.141 182.176 115.141ZM189.393 116.234C188.729 116.234 188.396 116.052 188.396 115.688V103.061C188.396 102.696 188.729 102.514 189.393 102.514C190.05 102.514 190.379 102.696 190.379 103.061V115.688C190.379 116.052 190.05 116.234 189.393 116.234ZM193.641 105.375C192.97 105.375 192.635 105.043 192.635 104.379C192.635 103.708 192.97 103.373 193.641 103.373C194.305 103.373 194.637 103.708 194.637 104.379C194.637 105.043 194.305 105.375 193.641 105.375ZM193.641 116.234C192.977 116.234 192.645 116.052 192.645 115.688V106.781C192.645 106.417 192.977 106.234 193.641 106.234C194.298 106.234 194.627 106.417 194.627 106.781V115.688C194.627 116.052 194.298 116.234 193.641 116.234ZM201.082 116.234C197.599 116.234 195.857 114.581 195.857 111.273C195.857 109.698 196.362 108.464 197.371 107.572C198.38 106.68 199.65 106.234 201.18 106.234C202.143 106.234 203.11 106.482 204.08 106.977C205.057 107.471 205.636 108.23 205.818 109.252C205.831 109.33 205.838 109.382 205.838 109.408C205.838 109.766 205.509 109.945 204.852 109.945C204.24 109.945 203.911 109.779 203.865 109.447C203.663 108.028 202.765 107.318 201.17 107.318C200.063 107.318 199.23 107.732 198.67 108.559C198.11 109.379 197.83 110.29 197.83 111.293C197.837 112.27 198.11 113.158 198.65 113.959C199.191 114.753 200.014 115.15 201.121 115.15C202.697 115.15 203.618 114.438 203.885 113.012C203.937 112.686 204.266 112.523 204.871 112.523C205.535 112.523 205.867 112.702 205.867 113.061C205.867 113.035 205.854 113.1 205.828 113.256C205.594 114.265 204.985 115.014 204.002 115.502C203.019 115.99 202.046 116.234 201.082 116.234ZM216.307 116.234C216.014 116.234 215.776 116.179 215.594 116.068C215.138 115.801 214.852 115.453 214.734 115.023C214.318 115.512 213.758 115.837 213.055 116C212.358 116.156 211.73 116.234 211.17 116.234C210.278 116.234 209.373 116.023 208.455 115.6C207.544 115.17 207.088 114.434 207.088 113.393C207.088 112.208 207.537 111.456 208.436 111.137C209.334 110.818 210.265 110.658 211.229 110.658C211.437 110.658 211.691 110.665 211.99 110.678C212.296 110.691 212.583 110.697 212.85 110.697C213.585 110.697 214.109 110.613 214.422 110.443V109.516C214.422 108.051 213.572 107.318 211.873 107.318C211.248 107.318 210.691 107.475 210.203 107.787C209.637 108.152 209.354 108.588 209.354 109.096C209.354 109.454 209.021 109.633 208.357 109.633C207.706 109.633 207.381 109.454 207.381 109.096C207.381 108.334 207.817 107.663 208.689 107.084C209.555 106.518 210.617 106.234 211.873 106.234C212.882 106.234 213.888 106.482 214.891 106.977C215.893 107.465 216.395 108.311 216.395 109.516V113.725C216.395 114.545 216.606 115.076 217.029 115.316C217.212 115.421 217.303 115.544 217.303 115.688C217.303 115.85 217.202 115.984 217 116.088C216.824 116.186 216.593 116.234 216.307 116.234ZM211.17 115.15C211.906 115.15 212.632 114.932 213.348 114.496C214.064 114.053 214.422 113.428 214.422 112.621V111.684C214.051 111.749 213.595 111.781 213.055 111.781C212.755 111.781 212.452 111.775 212.146 111.762C211.84 111.742 211.535 111.732 211.229 111.732C209.79 111.732 209.07 112.286 209.07 113.393C209.07 114.564 209.77 115.15 211.17 115.15ZM223.152 116.234C220.958 116.221 219.861 115.323 219.861 113.539V107.328H218.768C218.11 107.328 217.781 107.146 217.781 106.781C217.781 106.417 218.11 106.234 218.768 106.234H219.861V103.061C219.861 102.696 220.193 102.514 220.857 102.514C221.521 102.514 221.854 102.696 221.854 103.061V106.234H223.494C224.158 106.234 224.49 106.417 224.49 106.781C224.49 107.146 224.158 107.328 223.494 107.328H221.854V113.539C221.854 114.607 222.29 115.141 223.162 115.141C223.344 115.141 223.517 115.124 223.68 115.092C223.849 115.053 224.018 115.033 224.188 115.033C224.871 115.033 225.213 115.222 225.213 115.6C225.213 115.854 224.939 116.029 224.393 116.127C223.963 116.199 223.549 116.234 223.152 116.234ZM227.195 105.375C226.525 105.375 226.189 105.043 226.189 104.379C226.189 103.708 226.525 103.373 227.195 103.373C227.859 103.373 228.191 103.708 228.191 104.379C228.191 105.043 227.859 105.375 227.195 105.375ZM227.195 116.234C226.531 116.234 226.199 116.052 226.199 115.688V106.781C226.199 106.417 226.531 106.234 227.195 106.234C227.853 106.234 228.182 106.417 228.182 106.781V115.688C228.182 116.052 227.853 116.234 227.195 116.234ZM234.744 116.234C233.221 116.234 231.951 115.782 230.936 114.877C229.926 113.972 229.422 112.758 229.422 111.234C229.422 109.711 229.926 108.497 230.936 107.592C231.951 106.687 233.221 106.234 234.744 106.234C236.268 106.234 237.534 106.687 238.543 107.592C239.559 108.497 240.066 109.711 240.066 111.234C240.066 112.758 239.559 113.972 238.543 114.877C237.534 115.782 236.268 116.234 234.744 116.234ZM234.744 115.15C235.831 115.15 236.658 114.74 237.225 113.92C237.798 113.093 238.084 112.198 238.084 111.234C238.084 110.264 237.798 109.369 237.225 108.549C236.658 107.729 235.831 107.318 234.744 107.318C233.663 107.318 232.837 107.729 232.264 108.549C231.691 109.369 231.404 110.264 231.404 111.234C231.404 112.198 231.691 113.093 232.264 113.92C232.837 114.74 233.663 115.15 234.744 115.15ZM249.91 116.234C249.253 116.234 248.924 116.052 248.924 115.688V110.629C248.924 109.867 248.715 109.128 248.299 108.412C247.882 107.696 247.225 107.338 246.326 107.338C245.363 107.338 244.653 107.729 244.197 108.51C243.742 109.285 243.514 110.079 243.514 110.893V115.688C243.514 116.052 243.185 116.234 242.527 116.234C241.863 116.234 241.531 116.052 241.531 115.688V106.791C241.531 106.426 241.863 106.244 242.527 106.244C243.185 106.244 243.514 106.426 243.514 106.791V107.377C244.23 106.615 245.206 106.234 246.443 106.234C247.745 106.234 248.813 106.651 249.646 107.484C250.486 108.311 250.906 109.356 250.906 110.619V115.688C250.906 116.052 250.574 116.234 249.91 116.234Z" fill="#191919"/>
<defs>
<clipPath id="clip0_1938_6697">
<rect width="32" height="32" fill="white" transform="translate(42 24)"/>
</clipPath>
</defs>
</svg>
