<svg width="294" height="152" viewBox="0 0 294 152" fill="none" xmlns="http://www.w3.org/2000/svg">
<rect x="0.5" y="0.5" width="293" height="151" rx="7.5" stroke="#FF9191" stroke-opacity="0.3"/>
<g clip-path="url(#clip0_1938_6705)">
<path d="M71.5381 37.7485C71.039 37.7491 70.5542 37.9153 70.1597 38.2209C69.7651 38.5265 69.4831 38.9544 69.3578 39.4374H68.7556C68.6241 36.9584 67.6372 34.6016 65.9628 32.7687L66.3892 32.3422C66.8207 32.6087 67.3295 32.7217 67.8333 32.663C68.3371 32.6043 68.8063 32.3773 69.1649 32.0187C69.4651 31.7185 69.6743 31.3395 69.7683 30.9254C69.8623 30.5114 69.8373 30.0792 69.6962 29.6788C69.5551 29.2783 69.3037 28.9259 68.9709 28.6623C68.6381 28.3986 68.2375 28.2344 67.8154 28.1887C67.3933 28.1429 66.9669 28.2175 66.5853 28.4037C66.2037 28.5899 65.8826 28.8803 65.659 29.2412C65.4354 29.6021 65.3184 30.0189 65.3215 30.4435C65.3246 30.8681 65.4477 31.2831 65.6766 31.6407L65.2561 32.0612C63.3704 30.3342 60.9299 29.3374 58.3744 29.2503V28.6812C58.9202 28.589 59.4129 28.2991 59.7585 27.8667C60.1041 27.4343 60.2783 26.8897 60.2478 26.337C60.2173 25.7843 59.9843 25.2622 59.5933 24.8704C59.2023 24.4786 58.6806 24.2446 58.128 24.213C57.5754 24.1814 57.0305 24.3546 56.5974 24.6993C56.1643 25.044 55.8733 25.5362 55.7801 26.0818C55.6869 26.6274 55.7979 27.1883 56.092 27.6572C56.3861 28.1262 56.8426 28.4704 57.3744 28.6241V29.2617C54.9195 29.4028 52.5876 30.3827 50.7688 32.0374L50.3411 31.6098C50.6314 31.1395 50.7383 30.5788 50.6414 30.0347C50.5444 29.4906 50.2505 29.0013 49.8156 28.6602C49.3808 28.3191 48.8355 28.1501 48.284 28.1856C47.7325 28.221 47.2134 28.4584 46.8257 28.8523C46.4381 29.2462 46.2092 29.7691 46.1827 30.3212C46.1562 30.8732 46.3339 31.4156 46.682 31.8449C47.0301 32.2742 47.5241 32.5602 48.0697 32.6483C48.6153 32.7364 49.1742 32.6205 49.6398 32.3226L50.0601 32.7429C48.3571 34.595 47.359 36.9867 47.2404 39.4999H46.6556C46.5327 38.9602 46.2152 38.4847 45.7639 38.1642C45.3125 37.8437 44.7589 37.7007 44.2088 37.7626C43.6588 37.8244 43.1507 38.0868 42.7818 38.4995C42.4129 38.9122 42.209 39.4464 42.209 39.9999C42.209 40.5535 42.4129 41.0876 42.7818 41.5004C43.1507 41.9131 43.6588 42.1754 44.2088 42.2373C44.7589 42.2991 45.3125 42.1562 45.7639 41.8357C46.2152 41.5152 46.5327 41.0397 46.6556 40.4999H47.2394C47.3523 43.0379 48.3619 45.4535 50.0886 47.3169L49.6931 47.7124C49.2357 47.401 48.6795 47.2691 48.1309 47.3417C47.5823 47.4144 47.0797 47.6867 46.7191 48.1064C46.3585 48.5262 46.1651 49.0641 46.176 49.6174C46.1869 50.1707 46.4012 50.7006 46.7781 51.1059C47.1549 51.5112 47.6678 51.7635 48.2189 51.8145C48.7699 51.8656 49.3204 51.7118 49.7653 51.3827C50.2102 51.0535 50.5182 50.572 50.6306 50.0302C50.7429 49.4883 50.6517 48.924 50.3744 48.4451L50.7999 48.0196C52.6302 49.6725 54.974 50.6443 57.4369 50.7717V51.3583C56.9007 51.4964 56.4342 51.8273 56.1265 52.2876C55.8188 52.7479 55.6914 53.3055 55.7688 53.8538C55.8461 54.4021 56.1228 54.9026 56.5458 55.2598C56.9689 55.6171 57.5087 55.8059 58.0622 55.7903C58.6157 55.7747 59.144 55.5557 59.5463 55.1753C59.9486 54.7948 60.1966 54.2794 60.2429 53.7277C60.2893 53.1759 60.1307 52.6264 59.7976 52.1841C59.4644 51.7419 58.98 51.4378 58.4369 51.3301V50.7767C60.9989 50.6742 63.4395 49.6577 65.3169 47.9114L65.7115 48.306C65.4004 48.7631 65.2686 49.3189 65.3413 49.867C65.414 50.4152 65.686 50.9173 66.1055 51.2776C66.5249 51.6379 67.0624 51.8311 67.6153 51.8202C68.1681 51.8093 68.6976 51.5952 69.1026 51.2187C69.5075 50.8422 69.7596 50.3297 69.8107 49.7791C69.8617 49.2285 69.7082 48.6784 69.3794 48.2338C69.0506 47.7893 68.5695 47.4814 68.0281 47.3691C67.4867 47.2567 66.9228 47.3477 66.4443 47.6247L66.0183 47.1987C67.6947 45.3347 68.6654 42.9425 68.7619 40.4374H69.3296C69.4125 40.8559 69.6125 41.2421 69.9064 41.5513C70.2004 41.8604 70.576 42.0797 70.9898 42.1836C71.4035 42.2875 71.8382 42.2717 72.2433 42.1381C72.6484 42.0045 73.0072 41.7585 73.2779 41.4289C73.5487 41.0992 73.7202 40.6995 73.7725 40.2761C73.8249 39.8528 73.7558 39.4233 73.5735 39.0377C73.3912 38.652 73.1031 38.3261 72.7427 38.0979C72.3824 37.8696 71.9646 37.7485 71.5381 37.7485ZM44.4607 41.2514C44.2132 41.2514 43.9712 41.1779 43.7655 41.0404C43.5597 40.9029 43.3993 40.7075 43.3046 40.4788C43.2099 40.2501 43.1851 39.9985 43.2334 39.7557C43.2817 39.513 43.4009 39.29 43.5759 39.115C43.7509 38.94 43.9739 38.8208 44.2166 38.7725C44.4594 38.7243 44.711 38.749 44.9397 38.8438C45.1683 38.9385 45.3638 39.0989 45.5013 39.3047C45.6388 39.5105 45.7122 39.7524 45.7122 39.9999C45.7118 40.3317 45.5798 40.6498 45.3452 40.8844C45.1106 41.119 44.7925 41.251 44.4607 41.2514ZM66.6878 29.5417C66.9225 29.307 67.2408 29.1751 67.5727 29.1752C67.9047 29.1752 68.223 29.307 68.4577 29.5417C68.6924 29.7764 68.8242 30.0947 68.8242 30.4266C68.8242 30.7586 68.6923 31.0769 68.4576 31.3116C68.3414 31.4278 68.2035 31.5199 68.0516 31.5828C67.8998 31.6457 67.7371 31.6781 67.5727 31.6781C67.4084 31.6781 67.2456 31.6457 67.0938 31.5828C66.942 31.5199 66.804 31.4277 66.6878 31.3115C66.5716 31.1953 66.4794 31.0573 66.4166 30.9055C66.3537 30.7537 66.3213 30.5909 66.3213 30.4266C66.3213 30.2622 66.3537 30.0995 66.4166 29.9477C66.4795 29.7958 66.5716 29.6579 66.6878 29.5417ZM56.7479 26.4613C56.748 26.2137 56.8214 25.9718 56.9589 25.766C57.0964 25.5602 57.2919 25.3998 57.5205 25.3051C57.7492 25.2104 58.0008 25.1856 58.2436 25.2339C58.4863 25.2822 58.7093 25.4014 58.8843 25.5764C59.0593 25.7515 59.1785 25.9744 59.2268 26.2172C59.2751 26.4599 59.2503 26.7116 59.1556 26.9402C59.0608 27.1689 58.9004 27.3643 58.6946 27.5018C58.4888 27.6394 58.2469 27.7127 57.9994 27.7127C57.6676 27.7124 57.3495 27.5804 57.1149 27.3458C56.8803 27.1111 56.7483 26.793 56.7479 26.4613ZM47.5411 31.3116C47.3661 31.1365 47.2469 30.9135 47.1986 30.6708C47.1503 30.428 47.1751 30.1764 47.2698 29.9477C47.3646 29.719 47.525 29.5235 47.7308 29.386C47.9366 29.2485 48.1785 29.1751 48.4261 29.1751C48.6736 29.1751 48.9156 29.2485 49.1214 29.386C49.3272 29.5235 49.4876 29.719 49.5823 29.9477C49.677 30.1764 49.7018 30.428 49.6535 30.6708C49.6052 30.9135 49.486 31.1365 49.311 31.3116C49.0761 31.5459 48.7579 31.6775 48.4261 31.6775C48.0943 31.6775 47.776 31.5459 47.5411 31.3116ZM49.311 50.4582C49.136 50.633 48.9131 50.752 48.6705 50.8002C48.4279 50.8484 48.1764 50.8236 47.9479 50.7288C47.7194 50.6341 47.5241 50.4738 47.3867 50.2681C47.2493 50.0624 47.1759 49.8206 47.1759 49.5732C47.1759 49.3259 47.2493 49.0841 47.3867 48.8784C47.5241 48.6727 47.7194 48.5123 47.9479 48.4176C48.1764 48.3229 48.4279 48.2981 48.6705 48.3463C48.9131 48.3944 49.136 48.5135 49.311 48.6883C49.5453 48.9232 49.6769 49.2414 49.6769 49.5732C49.6769 49.905 49.5453 50.2233 49.311 50.4582ZM59.2508 53.5386C59.2509 53.7861 59.1775 54.0281 59.04 54.2339C58.9026 54.4398 58.7071 54.6002 58.4785 54.695C58.2498 54.7897 57.9982 54.8145 57.7554 54.7663C57.5126 54.718 57.2896 54.5989 57.1146 54.4238C56.9395 54.2488 56.8203 54.0259 56.772 53.7831C56.7237 53.5403 56.7485 53.2887 56.8432 53.06C56.9379 52.8313 57.0983 52.6359 57.3041 52.4983C57.5099 52.3608 57.7519 52.2874 57.9994 52.2874C58.3311 52.2878 58.6492 52.4197 58.8838 52.6543C59.1184 52.8888 59.2504 53.2069 59.2508 53.5386ZM68.4576 48.6883C68.6923 48.923 68.8242 49.2413 68.8242 49.5732C68.8242 49.9051 68.6924 50.2234 68.4577 50.4581C68.223 50.6928 67.9047 50.8247 67.5727 50.8247C67.2408 50.8247 66.9225 50.6929 66.6878 50.4582C66.4531 50.2235 66.3213 49.9052 66.3213 49.5732C66.3213 49.2413 66.4532 48.923 66.6879 48.6883C66.9226 48.4536 67.2409 48.3218 67.5728 48.3218C67.9047 48.3218 68.223 48.4537 68.4577 48.6884L68.4576 48.6883ZM57.9994 49.7863C52.6113 49.7863 48.2278 45.4027 48.2278 40.0147C48.2278 34.6266 52.6113 30.2431 57.9994 30.2431C63.3874 30.2431 67.771 34.6266 67.771 40.0147C67.771 45.4027 63.3874 49.7863 57.9994 49.7863ZM71.5381 41.2514C71.2906 41.2514 71.0486 41.1779 70.8428 41.0404C70.637 40.9029 70.4766 40.7075 70.3819 40.4788C70.2872 40.2501 70.2625 39.9985 70.3107 39.7557C70.359 39.513 70.4782 39.29 70.6533 39.115C70.8283 38.94 71.0513 38.8208 71.294 38.7725C71.5368 38.7243 71.7884 38.749 72.017 38.8438C72.2457 38.9385 72.4412 39.0989 72.5787 39.3047C72.7162 39.5105 72.7896 39.7524 72.7896 39.9999C72.7892 40.3317 72.6572 40.6498 72.4226 40.8844C72.188 41.1191 71.8699 41.251 71.5381 41.2514Z" fill="#BD3285"/>
<path d="M63.7268 43.625H62.8125V37.0704C62.814 37.0049 62.8025 36.9399 62.7788 36.8789C62.755 36.8179 62.7194 36.7622 62.6741 36.715C62.6287 36.6678 62.5745 36.63 62.5145 36.6038C62.4545 36.5776 62.3899 36.5636 62.3245 36.5625H60.4254C60.3599 36.5636 60.2954 36.5777 60.2354 36.6038C60.1754 36.63 60.1212 36.6678 60.0758 36.715C60.0305 36.7622 59.9949 36.8179 59.9712 36.8789C59.9475 36.9399 59.936 37.005 59.9375 37.0704V43.625H59.625V39.9517C59.6198 39.815 59.5624 39.6856 59.4647 39.5899C59.3669 39.4943 59.2362 39.4397 59.0995 39.4375H57.2003C57.0649 39.4402 56.9358 39.4953 56.8402 39.5912C56.7446 39.6871 56.6899 39.8163 56.6875 39.9517V43.625H56.375V38.4233C56.3747 38.3583 56.3614 38.2941 56.3359 38.2344C56.3104 38.1746 56.2733 38.1205 56.2267 38.0753C56.1801 38.0301 56.125 37.9946 56.0645 37.9709C56.004 37.9472 55.9394 37.9359 55.8745 37.9375H53.9753C53.9117 37.9364 53.8486 37.9483 53.7898 37.9725C53.7309 37.9967 53.6777 38.0326 53.6332 38.0781C53.5887 38.1235 53.554 38.1776 53.5312 38.237C53.5083 38.2963 53.4978 38.3597 53.5003 38.4233V43.625H52.75V35.8562C52.75 35.7236 52.6973 35.5964 52.6036 35.5026C52.5098 35.4089 52.3826 35.3562 52.25 35.3562C52.1174 35.3562 51.9902 35.4089 51.8964 35.5026C51.8027 35.5964 51.75 35.7236 51.75 35.8562V44.1437C51.75 44.4199 51.9971 44.625 52.2732 44.625H63.7268C63.8594 44.625 63.9865 44.5723 64.0803 44.4785C64.1741 44.3847 64.2268 44.2576 64.2268 44.125C64.2268 43.9923 64.1741 43.8652 64.0803 43.7714C63.9865 43.6776 63.8594 43.625 63.7268 43.625ZM60.9375 37.5625H61.8125V43.625H60.9375V37.5625ZM57.6875 40.4375H58.625V43.625H57.6875V40.4375ZM54.5 38.9375H55.375V43.625H54.5V38.9375Z" fill="#E111D8"/>
</g>
<path d="M48.5723 88.2344C47.2897 88.2344 46.0365 87.847 44.8125 87.0723C43.5885 86.291 42.9766 85.194 42.9766 83.7812V75.0605C42.9766 74.696 43.3053 74.5137 43.9629 74.5137C44.627 74.5137 44.959 74.696 44.959 75.0605V83.7812C44.959 84.7383 45.3333 85.5391 46.082 86.1836C46.8372 86.8216 47.6738 87.1406 48.5918 87.1406C49.5163 87.1406 50.3496 86.8151 51.0918 86.1641C51.8405 85.513 52.2148 84.7188 52.2148 83.7812V75.0605C52.2148 74.696 52.5469 74.5137 53.2109 74.5137C53.8685 74.5137 54.1973 74.696 54.1973 75.0605V83.7812C54.1973 85.2005 53.5788 86.2975 52.3418 87.0723C51.1113 87.847 49.8548 88.2344 48.5723 88.2344ZM60.0957 88.2344C59.1322 88.2344 58.2305 88.0228 57.3906 87.5996C56.5573 87.1699 55.9974 86.4733 55.7109 85.5098C55.6849 85.4316 55.6719 85.373 55.6719 85.334C55.6719 84.9759 56.0007 84.7969 56.6582 84.7969C57.2376 84.7969 57.5664 84.9499 57.6445 85.2559C57.9831 86.5189 58.7969 87.1504 60.0859 87.1504C60.6263 87.1504 61.1536 86.9876 61.668 86.6621C62.1888 86.3301 62.4492 85.8581 62.4492 85.2461C62.4492 84.862 62.166 84.5462 61.5996 84.2988C61.2155 84.1296 60.7109 84.0026 60.0859 83.918C59.5651 83.8464 59.054 83.765 58.5527 83.6738C58.0579 83.5827 57.5859 83.3874 57.1367 83.0879C56.3229 82.5475 55.916 81.8509 55.916 80.998C55.916 79.9954 56.4076 79.2858 57.3906 78.8691C58.3802 78.446 59.2884 78.2344 60.1152 78.2344C60.9616 78.2344 61.7819 78.4232 62.5762 78.8008C63.377 79.1784 63.8945 79.8001 64.1289 80.666C64.1484 80.7246 64.1582 80.7799 64.1582 80.832C64.1582 81.1641 63.8294 81.3398 63.1719 81.3594C62.5924 81.3594 62.2637 81.2031 62.1855 80.8906C61.9316 79.8424 61.2383 79.3184 60.1055 79.3184C59.6172 79.3184 59.1257 79.4551 58.6309 79.7285C58.1361 79.9954 57.8887 80.4121 57.8887 80.9785C57.8887 81.3561 58.2012 81.6686 58.8262 81.916C59.2493 82.0788 59.7539 82.2057 60.3398 82.2969C60.8607 82.375 61.3587 82.4629 61.834 82.5605C62.3092 82.6517 62.7715 82.8405 63.2207 83.127C64.0215 83.6348 64.4219 84.3216 64.4219 85.1875C64.4219 86.2682 63.9238 87.0462 62.9277 87.5215C61.9316 87.9967 60.9876 88.2344 60.0957 88.2344ZM74.8613 88.2344C74.5684 88.2344 74.3307 88.179 74.1484 88.0684C73.6927 87.8014 73.4062 87.4531 73.2891 87.0234C72.8724 87.5117 72.3125 87.8372 71.6094 88C70.9128 88.1562 70.2845 88.2344 69.7246 88.2344C68.8327 88.2344 67.9277 88.0228 67.0098 87.5996C66.0983 87.1699 65.6426 86.4342 65.6426 85.3926C65.6426 84.2077 66.0918 83.4557 66.9902 83.1367C67.8887 82.8177 68.8197 82.6582 69.7832 82.6582C69.9915 82.6582 70.2454 82.6647 70.5449 82.6777C70.8509 82.6908 71.1374 82.6973 71.4043 82.6973C72.14 82.6973 72.6641 82.6126 72.9766 82.4434V81.5156C72.9766 80.0508 72.127 79.3184 70.4277 79.3184C69.8027 79.3184 69.2461 79.4746 68.7578 79.7871C68.1914 80.1517 67.9082 80.5879 67.9082 81.0957C67.9082 81.4538 67.5762 81.6328 66.9121 81.6328C66.2611 81.6328 65.9355 81.4538 65.9355 81.0957C65.9355 80.334 66.3717 79.6634 67.2441 79.084C68.11 78.5176 69.1712 78.2344 70.4277 78.2344C71.4368 78.2344 72.4427 78.4818 73.4453 78.9766C74.4479 79.4648 74.9492 80.3112 74.9492 81.5156V85.7246C74.9492 86.5449 75.1608 87.0755 75.584 87.3164C75.7663 87.4206 75.8574 87.5443 75.8574 87.6875C75.8574 87.8503 75.7565 87.9837 75.5547 88.0879C75.3789 88.1855 75.1478 88.2344 74.8613 88.2344ZM69.7246 87.1504C70.4603 87.1504 71.1862 86.9323 71.9023 86.4961C72.6185 86.0534 72.9766 85.4284 72.9766 84.6211V83.6836C72.6055 83.7487 72.1497 83.7812 71.6094 83.7812C71.3099 83.7812 71.0072 83.7747 70.7012 83.7617C70.3952 83.7422 70.0892 83.7324 69.7832 83.7324C68.3444 83.7324 67.625 84.2858 67.625 85.3926C67.625 86.5645 68.3249 87.1504 69.7246 87.1504ZM86.5605 87.6094C86.5605 89.1198 86.0365 90.2201 84.9883 90.9102C83.9466 91.6003 82.7454 91.9453 81.3848 91.9453C80.5905 91.9453 79.7214 91.8118 78.7773 91.5449C77.8333 91.278 77.1302 90.8125 76.668 90.1484C76.6224 90.0833 76.5996 90.0182 76.5996 89.9531C76.5996 89.5951 76.9316 89.416 77.5957 89.416C78.0579 89.416 78.3672 89.5299 78.5234 89.7578C78.8034 90.1615 79.2233 90.4447 79.7832 90.6074C80.3496 90.7702 80.8737 90.8516 81.3555 90.8516C83.5104 90.8516 84.5879 89.7708 84.5879 87.6094V87.1016C83.8587 87.8503 82.8561 88.2246 81.5801 88.2246C78.2533 88.2246 76.5898 86.5579 76.5898 83.2246C76.5898 79.8913 78.2565 78.2246 81.5898 78.2246C82.8333 78.2246 83.8392 78.6055 84.6074 79.3672V78.7715C84.6074 78.4069 84.9362 78.2246 85.5938 78.2246C86.2448 78.2246 86.5703 78.4069 86.5703 78.7715L86.5605 87.6094ZM81.5801 87.1309C82.6087 87.1309 83.3704 86.6979 83.8652 85.832C84.36 84.9661 84.6074 84.097 84.6074 83.2246C84.6074 82.3522 84.36 81.4831 83.8652 80.6172C83.377 79.7513 82.6185 79.3184 81.5898 79.3184C80.5677 79.3184 79.8092 79.7513 79.3145 80.6172C78.8197 81.4831 78.5723 82.3522 78.5723 83.2246C78.5723 84.097 78.8164 84.9661 79.3047 85.832C79.7995 86.6979 80.5579 87.1309 81.5801 87.1309ZM93.2988 88.2344C91.821 88.2344 90.5742 87.7949 89.5586 86.916C88.543 86.0306 88.0352 84.8229 88.0352 83.293C88.0352 81.737 88.5495 80.5065 89.5781 79.6016C90.6133 78.6901 91.8828 78.2344 93.3867 78.2344C94.819 78.2344 96.0527 78.612 97.0879 79.3672C98.123 80.1159 98.6406 81.2389 98.6406 82.7363C98.6406 83.153 98.3118 83.3613 97.6543 83.3613H90.0078C90.0208 84.3249 90.3138 85.1973 90.8867 85.9785C91.4596 86.7598 92.2669 87.1504 93.3086 87.1504C94.0573 87.1504 94.7507 86.9486 95.3887 86.5449C96.0592 86.1152 96.4238 85.6074 96.4824 85.0215C96.515 84.6829 96.8372 84.5137 97.4492 84.5137C98.1198 84.5137 98.4551 84.6927 98.4551 85.0508C98.4551 85.2331 98.3997 85.4544 98.2891 85.7148C98.0482 86.2878 97.5892 86.7956 96.9121 87.2383C95.8965 87.9023 94.6921 88.2344 93.2988 88.2344ZM96.6387 82.2773C96.4303 80.3047 95.3464 79.3184 93.3867 79.3184C91.6419 79.3184 90.5547 80.3047 90.125 82.2773H96.6387ZM116.521 88.2344C115.929 88.2344 115.571 88.0944 115.447 87.8145L113.66 83.7617H107.576L105.779 87.9316C105.695 88.1335 105.451 88.2344 105.047 88.2344C104.52 88.2344 104.256 88.1042 104.256 87.8438C104.256 87.8242 104.262 87.7949 104.275 87.7559L109.822 74.9141C109.933 74.6471 110.304 74.5137 110.936 74.5137C111.489 74.5137 111.827 74.6504 111.951 74.9238L117.537 87.5801C117.557 87.6257 117.566 87.668 117.566 87.707C117.566 88.0586 117.218 88.2344 116.521 88.2344ZM113.172 82.668L110.584 76.7988L108.055 82.668H113.172ZM127.176 88.2344C126.518 88.2344 126.189 88.0521 126.189 87.6875V82.6289C126.189 81.8672 125.981 81.1283 125.564 80.4121C125.148 79.696 124.49 79.3379 123.592 79.3379C122.628 79.3379 121.919 79.7285 121.463 80.5098C121.007 81.2845 120.779 82.0788 120.779 82.8926V87.6875C120.779 88.0521 120.451 88.2344 119.793 88.2344C119.129 88.2344 118.797 88.0521 118.797 87.6875V78.791C118.797 78.4264 119.129 78.2441 119.793 78.2441C120.451 78.2441 120.779 78.4264 120.779 78.791V79.377C121.495 78.6152 122.472 78.2344 123.709 78.2344C125.011 78.2344 126.079 78.651 126.912 79.4844C127.752 80.3112 128.172 81.3561 128.172 82.6191V87.6875C128.172 88.0521 127.84 88.2344 127.176 88.2344ZM139.1 88.2344C138.807 88.2344 138.569 88.179 138.387 88.0684C137.931 87.8014 137.645 87.4531 137.527 87.0234C137.111 87.5117 136.551 87.8372 135.848 88C135.151 88.1562 134.523 88.2344 133.963 88.2344C133.071 88.2344 132.166 88.0228 131.248 87.5996C130.337 87.1699 129.881 86.4342 129.881 85.3926C129.881 84.2077 130.33 83.4557 131.229 83.1367C132.127 82.8177 133.058 82.6582 134.021 82.6582C134.23 82.6582 134.484 82.6647 134.783 82.6777C135.089 82.6908 135.376 82.6973 135.643 82.6973C136.378 82.6973 136.902 82.6126 137.215 82.4434V81.5156C137.215 80.0508 136.365 79.3184 134.666 79.3184C134.041 79.3184 133.484 79.4746 132.996 79.7871C132.43 80.1517 132.146 80.5879 132.146 81.0957C132.146 81.4538 131.814 81.6328 131.15 81.6328C130.499 81.6328 130.174 81.4538 130.174 81.0957C130.174 80.334 130.61 79.6634 131.482 79.084C132.348 78.5176 133.41 78.2344 134.666 78.2344C135.675 78.2344 136.681 78.4818 137.684 78.9766C138.686 79.4648 139.188 80.3112 139.188 81.5156V85.7246C139.188 86.5449 139.399 87.0755 139.822 87.3164C140.005 87.4206 140.096 87.5443 140.096 87.6875C140.096 87.8503 139.995 87.9837 139.793 88.0879C139.617 88.1855 139.386 88.2344 139.1 88.2344ZM133.963 87.1504C134.699 87.1504 135.424 86.9323 136.141 86.4961C136.857 86.0534 137.215 85.4284 137.215 84.6211V83.6836C136.844 83.7487 136.388 83.7812 135.848 83.7812C135.548 83.7812 135.245 83.7747 134.939 83.7617C134.633 83.7422 134.327 83.7324 134.021 83.7324C132.583 83.7324 131.863 84.2858 131.863 85.3926C131.863 86.5645 132.563 87.1504 133.963 87.1504ZM142.068 88.2344C141.404 88.2344 141.072 88.0521 141.072 87.6875V75.0605C141.072 74.696 141.404 74.5137 142.068 74.5137C142.726 74.5137 143.055 74.696 143.055 75.0605V87.6875C143.055 88.0521 142.726 88.2344 142.068 88.2344ZM154.148 87.6777C154.148 89.1491 153.67 90.2201 152.713 90.8906C151.762 91.5677 150.61 91.9062 149.256 91.9062C148.475 91.9062 147.658 91.7728 146.805 91.5059C145.958 91.2389 145.304 90.7734 144.842 90.1094C144.796 90.0443 144.773 89.9792 144.773 89.9141C144.773 89.556 145.102 89.377 145.76 89.377C146.222 89.377 146.531 89.4909 146.688 89.7188C147.189 90.4479 148.038 90.8125 149.236 90.8125C151.189 90.8125 152.166 89.7318 152.166 87.5703V87.043C151.528 87.8047 150.626 88.1855 149.461 88.1855C146.336 88.1855 144.773 86.7207 144.773 83.791V78.7324C144.773 78.3678 145.105 78.1855 145.77 78.1855C146.427 78.1855 146.756 78.3678 146.756 78.7324V83.791C146.756 84.5788 146.98 85.3275 147.43 86.0371C147.879 86.7467 148.556 87.1016 149.461 87.1016C150.333 87.1016 151.001 86.7467 151.463 86.0371C151.932 85.3275 152.166 84.5885 152.166 83.8203V78.7324C152.166 78.3678 152.495 78.1855 153.152 78.1855C153.816 78.1855 154.148 78.3678 154.148 78.7324V87.6777ZM160.73 88.2344C158.536 88.2214 157.439 87.3229 157.439 85.5391V79.3281H156.346C155.688 79.3281 155.359 79.1458 155.359 78.7812C155.359 78.4167 155.688 78.2344 156.346 78.2344H157.439V75.0605C157.439 74.696 157.771 74.5137 158.436 74.5137C159.1 74.5137 159.432 74.696 159.432 75.0605V78.2344H161.072C161.736 78.2344 162.068 78.4167 162.068 78.7812C162.068 79.1458 161.736 79.3281 161.072 79.3281H159.432V85.5391C159.432 86.6068 159.868 87.1406 160.74 87.1406C160.923 87.1406 161.095 87.1243 161.258 87.0918C161.427 87.0527 161.596 87.0332 161.766 87.0332C162.449 87.0332 162.791 87.222 162.791 87.5996C162.791 87.8535 162.518 88.0293 161.971 88.127C161.541 88.1986 161.128 88.2344 160.73 88.2344ZM164.773 77.375C164.103 77.375 163.768 77.043 163.768 76.3789C163.768 75.7083 164.103 75.373 164.773 75.373C165.438 75.373 165.77 75.7083 165.77 76.3789C165.77 77.043 165.438 77.375 164.773 77.375ZM164.773 88.2344C164.109 88.2344 163.777 88.0521 163.777 87.6875V78.7812C163.777 78.4167 164.109 78.2344 164.773 78.2344C165.431 78.2344 165.76 78.4167 165.76 78.7812V87.6875C165.76 88.0521 165.431 88.2344 164.773 88.2344ZM172.215 88.2344C168.732 88.2344 166.99 86.5807 166.99 83.2734C166.99 81.6979 167.495 80.4642 168.504 79.5723C169.513 78.6803 170.783 78.2344 172.312 78.2344C173.276 78.2344 174.243 78.4818 175.213 78.9766C176.189 79.4714 176.769 80.2298 176.951 81.252C176.964 81.3301 176.971 81.3822 176.971 81.4082C176.971 81.7663 176.642 81.9453 175.984 81.9453C175.372 81.9453 175.044 81.7793 174.998 81.4473C174.796 80.028 173.898 79.3184 172.303 79.3184C171.196 79.3184 170.363 79.7318 169.803 80.5586C169.243 81.3789 168.963 82.2904 168.963 83.293C168.969 84.2695 169.243 85.1582 169.783 85.959C170.324 86.7533 171.147 87.1504 172.254 87.1504C173.829 87.1504 174.751 86.4375 175.018 85.0117C175.07 84.6862 175.398 84.5234 176.004 84.5234C176.668 84.5234 177 84.7025 177 85.0605C177 85.0345 176.987 85.0996 176.961 85.2559C176.727 86.265 176.118 87.0137 175.135 87.502C174.152 87.9902 173.178 88.2344 172.215 88.2344ZM182.4 88.2344C181.437 88.2344 180.535 88.0228 179.695 87.5996C178.862 87.1699 178.302 86.4733 178.016 85.5098C177.99 85.4316 177.977 85.373 177.977 85.334C177.977 84.9759 178.305 84.7969 178.963 84.7969C179.542 84.7969 179.871 84.9499 179.949 85.2559C180.288 86.5189 181.102 87.1504 182.391 87.1504C182.931 87.1504 183.458 86.9876 183.973 86.6621C184.493 86.3301 184.754 85.8581 184.754 85.2461C184.754 84.862 184.471 84.5462 183.904 84.2988C183.52 84.1296 183.016 84.0026 182.391 83.918C181.87 83.8464 181.359 83.765 180.857 83.6738C180.363 83.5827 179.891 83.3874 179.441 83.0879C178.628 82.5475 178.221 81.8509 178.221 80.998C178.221 79.9954 178.712 79.2858 179.695 78.8691C180.685 78.446 181.593 78.2344 182.42 78.2344C183.266 78.2344 184.087 78.4232 184.881 78.8008C185.682 79.1784 186.199 79.8001 186.434 80.666C186.453 80.7246 186.463 80.7799 186.463 80.832C186.463 81.1641 186.134 81.3398 185.477 81.3594C184.897 81.3594 184.568 81.2031 184.49 80.8906C184.236 79.8424 183.543 79.3184 182.41 79.3184C181.922 79.3184 181.43 79.4551 180.936 79.7285C180.441 79.9954 180.193 80.4121 180.193 80.9785C180.193 81.3561 180.506 81.6686 181.131 81.916C181.554 82.0788 182.059 82.2057 182.645 82.2969C183.165 82.375 183.663 82.4629 184.139 82.5605C184.614 82.6517 185.076 82.8405 185.525 83.127C186.326 83.6348 186.727 84.3216 186.727 85.1875C186.727 86.2682 186.229 87.0462 185.232 87.5215C184.236 87.9967 183.292 88.2344 182.4 88.2344ZM202.049 88.2344C201.756 88.2344 201.518 88.179 201.336 88.0684C200.88 87.8014 200.594 87.4531 200.477 87.0234C200.06 87.5117 199.5 87.8372 198.797 88C198.1 88.1562 197.472 88.2344 196.912 88.2344C196.02 88.2344 195.115 88.0228 194.197 87.5996C193.286 87.1699 192.83 86.4342 192.83 85.3926C192.83 84.2077 193.279 83.4557 194.178 83.1367C195.076 82.8177 196.007 82.6582 196.971 82.6582C197.179 82.6582 197.433 82.6647 197.732 82.6777C198.038 82.6908 198.325 82.6973 198.592 82.6973C199.327 82.6973 199.852 82.6126 200.164 82.4434V81.5156C200.164 80.0508 199.314 79.3184 197.615 79.3184C196.99 79.3184 196.434 79.4746 195.945 79.7871C195.379 80.1517 195.096 80.5879 195.096 81.0957C195.096 81.4538 194.764 81.6328 194.1 81.6328C193.449 81.6328 193.123 81.4538 193.123 81.0957C193.123 80.334 193.559 79.6634 194.432 79.084C195.298 78.5176 196.359 78.2344 197.615 78.2344C198.624 78.2344 199.63 78.4818 200.633 78.9766C201.635 79.4648 202.137 80.3112 202.137 81.5156V85.7246C202.137 86.5449 202.348 87.0755 202.771 87.3164C202.954 87.4206 203.045 87.5443 203.045 87.6875C203.045 87.8503 202.944 87.9837 202.742 88.0879C202.566 88.1855 202.335 88.2344 202.049 88.2344ZM196.912 87.1504C197.648 87.1504 198.374 86.9323 199.09 86.4961C199.806 86.0534 200.164 85.4284 200.164 84.6211V83.6836C199.793 83.7487 199.337 83.7812 198.797 83.7812C198.497 83.7812 198.195 83.7747 197.889 83.7617C197.583 83.7422 197.277 83.7324 196.971 83.7324C195.532 83.7324 194.812 84.2858 194.812 85.3926C194.812 86.5645 195.512 87.1504 196.912 87.1504ZM212.645 88.2344C211.987 88.2344 211.658 88.0521 211.658 87.6875V82.6289C211.658 81.8672 211.45 81.1283 211.033 80.4121C210.617 79.696 209.959 79.3379 209.061 79.3379C208.097 79.3379 207.387 79.7285 206.932 80.5098C206.476 81.2845 206.248 82.0788 206.248 82.8926V87.6875C206.248 88.0521 205.919 88.2344 205.262 88.2344C204.598 88.2344 204.266 88.0521 204.266 87.6875V78.791C204.266 78.4264 204.598 78.2441 205.262 78.2441C205.919 78.2441 206.248 78.4264 206.248 78.791V79.377C206.964 78.6152 207.941 78.2344 209.178 78.2344C210.48 78.2344 211.548 78.651 212.381 79.4844C213.221 80.3112 213.641 81.3561 213.641 82.6191V87.6875C213.641 88.0521 213.309 88.2344 212.645 88.2344ZM224.109 88.2344C223.452 88.2344 223.123 88.0521 223.123 87.6875V87.0918C222.374 87.847 221.368 88.2246 220.105 88.2246C216.772 88.2246 215.105 86.5579 215.105 83.2246C215.105 79.8913 216.772 78.2246 220.105 78.2246C221.362 78.2246 222.368 78.6022 223.123 79.3574V75.0605C223.123 74.696 223.452 74.5137 224.109 74.5137C224.773 74.5137 225.105 74.696 225.105 75.0605V87.6875C225.105 88.0521 224.773 88.2344 224.109 88.2344ZM220.105 87.1309C221.134 87.1309 221.893 86.6979 222.381 85.832C222.876 84.9661 223.123 84.097 223.123 83.2246C223.123 82.3522 222.876 81.4831 222.381 80.6172C221.893 79.7513 221.134 79.3184 220.105 79.3184C219.083 79.3184 218.325 79.7513 217.83 80.6172C217.335 81.4831 217.088 82.3522 217.088 83.2246C217.088 84.097 217.335 84.9661 217.83 85.832C218.325 86.6979 219.083 87.1309 220.105 87.1309ZM43.4844 116.234C42.8203 116.234 42.4883 116.052 42.4883 115.688V103.061C42.4883 102.696 42.8203 102.514 43.4844 102.514C44.1419 102.514 44.4707 102.696 44.4707 103.061V115.688C44.4707 116.052 44.1419 116.234 43.4844 116.234ZM54.3242 116.234C53.6667 116.234 53.3379 116.052 53.3379 115.688V110.629C53.3379 109.867 53.1296 109.128 52.7129 108.412C52.2962 107.696 51.6387 107.338 50.7402 107.338C49.7767 107.338 49.0671 107.729 48.6113 108.51C48.1556 109.285 47.9277 110.079 47.9277 110.893V115.688C47.9277 116.052 47.599 116.234 46.9414 116.234C46.2773 116.234 45.9453 116.052 45.9453 115.688V106.791C45.9453 106.426 46.2773 106.244 46.9414 106.244C47.599 106.244 47.9277 106.426 47.9277 106.791V107.377C48.6439 106.615 49.6204 106.234 50.8574 106.234C52.1595 106.234 53.2272 106.651 54.0605 107.484C54.9004 108.311 55.3203 109.356 55.3203 110.619V115.688C55.3203 116.052 54.9883 116.234 54.3242 116.234ZM61.209 116.234C60.2454 116.234 59.3438 116.023 58.5039 115.6C57.6706 115.17 57.1107 114.473 56.8242 113.51C56.7982 113.432 56.7852 113.373 56.7852 113.334C56.7852 112.976 57.1139 112.797 57.7715 112.797C58.3509 112.797 58.6797 112.95 58.7578 113.256C59.0964 114.519 59.9102 115.15 61.1992 115.15C61.7396 115.15 62.2669 114.988 62.7812 114.662C63.3021 114.33 63.5625 113.858 63.5625 113.246C63.5625 112.862 63.2793 112.546 62.7129 112.299C62.3288 112.13 61.8242 112.003 61.1992 111.918C60.6784 111.846 60.1673 111.765 59.666 111.674C59.1712 111.583 58.6992 111.387 58.25 111.088C57.4362 110.548 57.0293 109.851 57.0293 108.998C57.0293 107.995 57.5208 107.286 58.5039 106.869C59.4935 106.446 60.4017 106.234 61.2285 106.234C62.0749 106.234 62.8952 106.423 63.6895 106.801C64.4902 107.178 65.0078 107.8 65.2422 108.666C65.2617 108.725 65.2715 108.78 65.2715 108.832C65.2715 109.164 64.9427 109.34 64.2852 109.359C63.7057 109.359 63.377 109.203 63.2988 108.891C63.0449 107.842 62.3516 107.318 61.2188 107.318C60.7305 107.318 60.2389 107.455 59.7441 107.729C59.2493 107.995 59.002 108.412 59.002 108.979C59.002 109.356 59.3145 109.669 59.9395 109.916C60.3626 110.079 60.8672 110.206 61.4531 110.297C61.974 110.375 62.472 110.463 62.9473 110.561C63.4225 110.652 63.8848 110.84 64.334 111.127C65.1348 111.635 65.5352 112.322 65.5352 113.188C65.5352 114.268 65.0371 115.046 64.041 115.521C63.0449 115.997 62.1009 116.234 61.209 116.234ZM67.7617 105.375C67.0911 105.375 66.7559 105.043 66.7559 104.379C66.7559 103.708 67.0911 103.373 67.7617 103.373C68.4258 103.373 68.7578 103.708 68.7578 104.379C68.7578 105.043 68.4258 105.375 67.7617 105.375ZM67.7617 116.234C67.0977 116.234 66.7656 116.052 66.7656 115.688V106.781C66.7656 106.417 67.0977 106.234 67.7617 106.234C68.4193 106.234 68.748 106.417 68.748 106.781V115.688C68.748 116.052 68.4193 116.234 67.7617 116.234ZM79.959 115.609C79.959 117.12 79.4349 118.22 78.3867 118.91C77.3451 119.6 76.1439 119.945 74.7832 119.945C73.9889 119.945 73.1198 119.812 72.1758 119.545C71.2318 119.278 70.5286 118.812 70.0664 118.148C70.0208 118.083 69.998 118.018 69.998 117.953C69.998 117.595 70.3301 117.416 70.9941 117.416C71.4564 117.416 71.7656 117.53 71.9219 117.758C72.2018 118.161 72.6217 118.445 73.1816 118.607C73.748 118.77 74.2721 118.852 74.7539 118.852C76.9089 118.852 77.9863 117.771 77.9863 115.609V115.102C77.2572 115.85 76.2546 116.225 74.9785 116.225C71.6517 116.225 69.9883 114.558 69.9883 111.225C69.9883 107.891 71.6549 106.225 74.9883 106.225C76.2318 106.225 77.2376 106.605 78.0059 107.367V106.771C78.0059 106.407 78.3346 106.225 78.9922 106.225C79.6432 106.225 79.9688 106.407 79.9688 106.771L79.959 115.609ZM74.9785 115.131C76.0072 115.131 76.7689 114.698 77.2637 113.832C77.7585 112.966 78.0059 112.097 78.0059 111.225C78.0059 110.352 77.7585 109.483 77.2637 108.617C76.7754 107.751 76.0169 107.318 74.9883 107.318C73.9661 107.318 73.2077 107.751 72.7129 108.617C72.2181 109.483 71.9707 110.352 71.9707 111.225C71.9707 112.097 72.2148 112.966 72.7031 113.832C73.1979 114.698 73.9564 115.131 74.9785 115.131ZM90.3008 116.234C89.6432 116.234 89.3145 116.052 89.3145 115.688V110.629C89.3145 109.867 89.1061 109.128 88.6895 108.412C88.2728 107.696 87.6152 107.338 86.7168 107.338C85.7533 107.338 85.0436 107.729 84.5879 108.51C84.1322 109.285 83.9043 110.079 83.9043 110.893V115.688C83.9043 116.052 83.5755 116.234 82.918 116.234C82.2539 116.234 81.9219 116.052 81.9219 115.688V103.061C81.9219 102.696 82.2539 102.514 82.918 102.514C83.5755 102.514 83.9043 102.696 83.9043 103.061V107.377C84.6204 106.615 85.597 106.234 86.834 106.234C88.1361 106.234 89.2038 106.651 90.0371 107.484C90.877 108.311 91.2969 109.356 91.2969 110.619V115.688C91.2969 116.052 90.9648 116.234 90.3008 116.234ZM97.3906 116.234C95.1966 116.221 94.0996 115.323 94.0996 113.539V107.328H93.0059C92.3483 107.328 92.0195 107.146 92.0195 106.781C92.0195 106.417 92.3483 106.234 93.0059 106.234H94.0996V103.061C94.0996 102.696 94.4316 102.514 95.0957 102.514C95.7598 102.514 96.0918 102.696 96.0918 103.061V106.234H97.7324C98.3965 106.234 98.7285 106.417 98.7285 106.781C98.7285 107.146 98.3965 107.328 97.7324 107.328H96.0918V113.539C96.0918 114.607 96.528 115.141 97.4004 115.141C97.5827 115.141 97.7552 115.124 97.918 115.092C98.0872 115.053 98.2565 115.033 98.4258 115.033C99.1094 115.033 99.4512 115.222 99.4512 115.6C99.4512 115.854 99.1777 116.029 98.6309 116.127C98.2012 116.199 97.7878 116.234 97.3906 116.234ZM104.607 116.234C103.644 116.234 102.742 116.023 101.902 115.6C101.069 115.17 100.509 114.473 100.223 113.51C100.197 113.432 100.184 113.373 100.184 113.334C100.184 112.976 100.512 112.797 101.17 112.797C101.749 112.797 102.078 112.95 102.156 113.256C102.495 114.519 103.309 115.15 104.598 115.15C105.138 115.15 105.665 114.988 106.18 114.662C106.701 114.33 106.961 113.858 106.961 113.246C106.961 112.862 106.678 112.546 106.111 112.299C105.727 112.13 105.223 112.003 104.598 111.918C104.077 111.846 103.566 111.765 103.064 111.674C102.57 111.583 102.098 111.387 101.648 111.088C100.835 110.548 100.428 109.851 100.428 108.998C100.428 107.995 100.919 107.286 101.902 106.869C102.892 106.446 103.8 106.234 104.627 106.234C105.473 106.234 106.294 106.423 107.088 106.801C107.889 107.178 108.406 107.8 108.641 108.666C108.66 108.725 108.67 108.78 108.67 108.832C108.67 109.164 108.341 109.34 107.684 109.359C107.104 109.359 106.775 109.203 106.697 108.891C106.443 107.842 105.75 107.318 104.617 107.318C104.129 107.318 103.637 107.455 103.143 107.729C102.648 107.995 102.4 108.412 102.4 108.979C102.4 109.356 102.713 109.669 103.338 109.916C103.761 110.079 104.266 110.206 104.852 110.297C105.372 110.375 105.87 110.463 106.346 110.561C106.821 110.652 107.283 110.84 107.732 111.127C108.533 111.635 108.934 112.322 108.934 113.188C108.934 114.268 108.436 115.046 107.439 115.521C106.443 115.997 105.499 116.234 104.607 116.234Z" fill="#191919"/>
<defs>
<clipPath id="clip0_1938_6705">
<rect width="32" height="32" fill="white" transform="translate(42 24)"/>
</clipPath>
</defs>
</svg>
