<svg width="88" height="100" viewBox="0 0 88 100" fill="none" xmlns="http://www.w3.org/2000/svg">
<rect x="1.5" y="1.5" width="85" height="97" rx="16.5" stroke="#9162FA" stroke-width="3"/>
<path d="M55.4814 32.6666H32.5185C29.0411 32.6666 26.2222 35.4857 26.2222 38.9633V61.0385C26.2222 64.5161 29.0411 67.3352 32.5185 67.3352H55.4814C58.9588 67.3352 61.7777 64.5161 61.7777 61.0385V38.9633C61.7777 35.4857 58.9588 32.6666 55.4814 32.6666Z" fill="#001E36"/>
<path d="M34.2275 56.9776V41.7355C34.2275 41.6244 34.2753 41.5685 34.3707 41.5685C34.6248 41.5685 34.8569 41.5648 35.2068 41.5566C35.5564 41.5488 35.9341 41.5408 36.3398 41.5328C36.7453 41.5249 37.1747 41.517 37.6278 41.5089C38.081 41.5011 38.5302 41.4971 38.9754 41.4969C40.1837 41.4969 41.2014 41.648 42.0284 41.9502C42.7745 42.2026 43.4549 42.6181 44.0201 43.1667C44.4992 43.6421 44.8695 44.2159 45.1053 44.8483C45.3285 45.4638 45.4415 46.1138 45.4393 46.7685C45.4393 48.0409 45.1451 49.0905 44.5568 49.9171C43.9646 50.7472 43.1321 51.3757 42.1716 51.718C41.1698 52.0919 40.0566 52.2186 38.8323 52.2186C38.4824 52.2186 38.2359 52.2147 38.0929 52.2067C37.9498 52.1988 37.7352 52.1949 37.449 52.1948V56.9538C37.4531 56.983 37.4504 57.0127 37.4411 57.0406C37.4318 57.0686 37.4161 57.094 37.3953 57.1148C37.3744 57.1356 37.349 57.1513 37.3211 57.1607C37.2931 57.17 37.2634 57.1727 37.2343 57.1685H34.3945C34.2831 57.1685 34.2275 57.1051 34.2275 56.9776ZM37.4489 44.4309V49.4023C37.6554 49.4183 37.8462 49.4262 38.0214 49.4261H38.8085C39.3876 49.4242 39.9629 49.3323 40.5139 49.1538C40.9864 49.0135 41.4087 48.7402 41.7303 48.3667C42.0404 48.0011 42.1954 47.4922 42.1955 46.8401C42.208 46.3787 42.088 45.9233 41.8495 45.5281C41.5989 45.146 41.2366 44.8503 40.812 44.6814C40.2576 44.4658 39.6654 44.3644 39.0708 44.3832C38.6892 44.3832 38.3513 44.3872 38.0572 44.3951C37.7627 44.4033 37.56 44.4153 37.4489 44.4309Z" fill="#31A8FF"/>
<path d="M54.6617 48.4979C54.2135 48.2675 53.736 48.099 53.2425 47.9969C52.6987 47.8722 52.1427 47.8082 51.5848 47.8061C51.283 47.7979 50.9817 47.8341 50.6904 47.9135C50.505 47.9548 50.3402 48.0604 50.2252 48.2116C50.1475 48.3326 50.1061 48.4733 50.106 48.6171C50.1104 48.7566 50.1607 48.8908 50.2491 48.9988C50.3884 49.1618 50.5587 49.2955 50.75 49.3923C51.0901 49.5755 51.4405 49.7388 51.7995 49.8813C52.6 50.1493 53.3649 50.5138 54.0773 50.9667C54.5626 51.273 54.9643 51.6951 55.2461 52.1951C55.483 52.6685 55.6017 53.1924 55.5919 53.7217C55.6062 54.4207 55.4065 55.1073 55.0195 55.6896C54.6052 56.2806 54.0298 56.7402 53.3617 57.0134C52.638 57.3314 51.7436 57.4904 50.6784 57.4905C50.0018 57.4973 49.3263 57.4334 48.663 57.2997C48.1403 57.2038 47.6316 57.0436 47.1483 56.8226C47.0962 56.7957 47.0528 56.7545 47.0232 56.7038C46.9937 56.6531 46.9791 56.595 46.9814 56.5364V53.9602C46.9785 53.935 46.9825 53.9095 46.9931 53.8864C47.0036 53.8633 47.0202 53.8434 47.0411 53.829C47.0615 53.8175 47.0851 53.8124 47.1085 53.8145C47.1319 53.8167 47.1542 53.8259 47.1722 53.841C47.7429 54.1775 48.3625 54.4229 49.0088 54.5685C49.5784 54.7113 50.1628 54.7873 50.75 54.7951C51.3064 54.7951 51.7159 54.7235 51.9783 54.5804C52.0969 54.5262 52.1971 54.4387 52.267 54.3286C52.3369 54.2186 52.3733 54.0906 52.3719 53.9602C52.3719 53.7538 52.2527 53.555 52.0142 53.3639C51.7757 53.1731 51.2907 52.9425 50.5592 52.6721C49.8102 52.4115 49.1001 52.0504 48.4483 51.5988C47.982 51.2745 47.5981 50.8456 47.3272 50.3465C47.0927 49.8764 46.9741 49.3571 46.9814 48.8318C46.9801 48.2007 47.1534 47.5815 47.4823 47.0428C47.8572 46.4496 48.3956 45.9775 49.0327 45.6832C49.7322 45.3336 50.6068 45.1587 51.6564 45.1584C52.2711 45.1535 52.8852 45.1974 53.493 45.2896C53.9331 45.3454 54.3634 45.4618 54.7716 45.6355C54.804 45.6448 54.8337 45.6615 54.8586 45.6842C54.8834 45.707 54.9026 45.7352 54.9147 45.7667C54.9308 45.8249 54.9388 45.8851 54.9385 45.9456V48.3547C54.9402 48.3828 54.9345 48.4108 54.9219 48.4359C54.9094 48.461 54.8904 48.4824 54.867 48.4979C54.8351 48.5137 54.8 48.522 54.7644 48.522C54.7287 48.522 54.6936 48.5137 54.6617 48.4979Z" fill="#31A8FF"/>
</svg>
