<svg width="357" height="156" viewBox="0 0 357 156" fill="none" xmlns="http://www.w3.org/2000/svg">
<rect width="357" height="156" rx="16" fill="#343434"/>
<path d="M30.128 40.224C32.768 40.224 34.88 38.416 35.408 35.696H33.344C32.912 37.264 31.632 38.304 30.128 38.304C27.984 38.304 26.56 36.784 26.56 34.512C26.56 32.24 27.984 30.72 30.128 30.72C31.472 30.72 32.72 31.664 33.248 33.072H35.36C34.72 30.512 32.624 28.8 30.128 28.8C26.704 28.8 24.416 31.088 24.416 34.512C24.416 37.936 26.704 40.224 30.128 40.224ZM40.9001 40.224C43.5081 40.224 45.2361 38.528 45.2361 36C45.2361 33.472 43.5081 31.776 40.9001 31.776C38.2921 31.776 36.5641 33.472 36.5641 36C36.5641 38.528 38.2921 40.224 40.9001 40.224ZM40.9001 38.528C39.4441 38.528 38.4841 37.52 38.4841 36C38.4841 34.48 39.4441 33.472 40.9001 33.472C42.3561 33.472 43.3161 34.48 43.3161 36C43.3161 37.52 42.3561 38.528 40.9001 38.528ZM46.5479 40H48.4679V34.608C48.4679 33.92 49.0439 33.472 49.9239 33.472C50.8039 33.472 51.3799 33.92 51.3799 34.608V40H53.2999V34.608C53.2999 33.92 53.8759 33.472 54.7559 33.472C55.6359 33.472 56.2119 33.92 56.2119 34.608V40H58.1319V34.416C58.1319 32.832 56.8519 31.776 54.9479 31.776C54.0679 31.776 53.1079 32.16 52.5479 32.736C52.0039 32.16 51.1559 31.776 50.4199 31.776C49.6519 31.776 48.9479 32.112 48.4679 32.72V32H46.5479V40ZM64.5064 31.776C63.5304 31.776 62.4584 32.224 61.8504 32.88V32H59.9304V42.976H61.8504V39.12C62.4584 39.776 63.5304 40.224 64.5064 40.224C67.0344 40.224 68.7304 38.528 68.7304 36C68.7304 33.472 67.0344 31.776 64.5064 31.776ZM64.3144 33.472C65.8184 33.472 66.8104 34.48 66.8104 36C66.8104 37.52 65.8184 38.528 64.3144 38.528C62.8424 38.528 61.8504 37.52 61.8504 36C61.8504 34.48 62.8424 33.472 64.3144 33.472ZM74.0435 40.224C74.9875 40.224 76.0275 39.792 76.6355 39.136V40H78.5555V32H76.6355V32.864C76.0275 32.208 74.9875 31.776 74.0435 31.776C71.5475 31.776 69.8835 33.472 69.8835 36C69.8835 38.528 71.5475 40.224 74.0435 40.224ZM74.2355 38.528C72.7795 38.528 71.8035 37.52 71.8035 36C71.8035 34.48 72.7795 33.472 74.2355 33.472C75.6755 33.472 76.6355 34.48 76.6355 36C76.6355 37.52 75.6755 38.528 74.2355 38.528ZM80.3516 40H82.2716V35.248C82.2716 34.176 83.0556 33.472 84.2236 33.472C85.3916 33.472 86.1756 34.176 86.1756 35.248V40H88.0956V35.024C88.0956 33.072 86.6396 31.776 84.4476 31.776C83.6636 31.776 82.7996 32.096 82.2716 32.592V32H80.3516V40ZM90.702 42.976H92.766L97.086 32H95.022L93.054 37.024L91.07 32H89.022L92.078 39.488L90.702 42.976Z" fill="#D3D3D3"/>
<path d="M45.8438 89.7969C45.7188 90.1823 45.2344 90.375 44.3906 90.375C43.6406 90.375 43.2135 90.1823 43.1094 89.7969L38.6562 72.5938L34.2656 89.7812C34.1719 90.1771 33.7083 90.375 32.875 90.375C32.1042 90.375 31.6615 90.1927 31.5469 89.8281L24.4375 69.3594C24.4062 69.2656 24.3906 69.1823 24.3906 69.1094C24.3906 68.651 24.8385 68.4219 25.7344 68.4219C26.4844 68.4219 26.9271 68.6198 27.0625 69.0156L33.1875 86.7344L37.7188 68.9844C37.8125 68.6094 38.2708 68.4219 39.0938 68.4219C39.875 68.4219 40.3177 68.625 40.4219 69.0312L45.0156 86.7344L51.1094 68.7969C51.2031 68.5469 51.5052 68.4219 52.0156 68.4219C52.6302 68.4219 52.9375 68.5573 52.9375 68.8281C52.9375 68.901 52.9219 68.9792 52.8906 69.0625L45.8438 89.7969ZM69.9212 89.4844C69.9212 91.8906 69.1348 93.6198 67.5619 94.6719C65.989 95.724 64.2598 96.25 62.3744 96.25C59.2077 96.25 56.989 95.3177 55.7181 93.4531C55.6556 93.3594 55.6244 93.2708 55.6244 93.1875C55.6244 92.7292 56.041 92.5 56.8744 92.5C57.489 92.5 57.8952 92.651 58.0931 92.9531C58.9577 94.2135 60.4056 94.8438 62.4369 94.8438C65.7285 94.8438 67.3744 93.0573 67.3744 89.4844V88.2656C66.3223 89.6302 64.7754 90.3125 62.7337 90.3125C57.9421 90.3125 55.5462 87.974 55.5462 83.2969V75.0156C55.5462 74.5365 55.9733 74.2969 56.8275 74.2969C57.6712 74.2969 58.0931 74.5365 58.0931 75.0156V83.2969C58.0931 84.7031 58.4837 85.9896 59.265 87.1562C60.0567 88.3125 61.2129 88.8906 62.7337 88.8906C64.1921 88.8906 65.3275 88.2969 66.14 87.1094C66.9629 85.9219 67.3744 84.6406 67.3744 83.2656V75.0156C67.3744 74.5365 67.7962 74.2969 68.64 74.2969C69.4942 74.2969 69.9212 74.5365 69.9212 75.0156V89.4844ZM74.9675 90.375C74.1133 90.375 73.6862 90.1354 73.6862 89.6562V75.0938C73.6862 74.6146 74.1133 74.375 74.9675 74.375C75.8112 74.375 76.2331 74.6146 76.2331 75.0938V76.8281C76.9831 75.1927 78.3477 74.375 80.3269 74.375C81.4935 74.375 82.504 74.6562 83.3581 75.2188C83.5665 75.3542 83.6706 75.5208 83.6706 75.7188C83.6706 75.9583 83.53 76.1823 83.2487 76.3906C83.03 76.5469 82.7852 76.625 82.5144 76.625C82.1498 76.625 81.8112 76.4948 81.4987 76.2344C81.1862 75.9635 80.6915 75.8281 80.0144 75.8281C78.5248 75.8281 77.5196 76.5417 76.9987 77.9688C76.4883 79.3958 76.2331 80.7292 76.2331 81.9688V89.6562C76.2331 90.1354 75.8112 90.375 74.9675 90.375ZM92.8262 90.375C90.4825 90.375 88.5398 89.6615 86.9981 88.2344C85.4669 86.7969 84.7012 84.8854 84.7012 82.5C84.7012 80.0833 85.4773 78.125 87.0294 76.625C88.5919 75.125 90.5658 74.375 92.9512 74.375C95.1908 74.375 97.0971 74.9844 98.67 76.2031C100.253 77.4219 101.045 79.2135 101.045 81.5781C101.045 82.1406 100.623 82.4219 99.7794 82.4219H87.2325C87.2325 84.0885 87.7117 85.5938 88.67 86.9375C89.6387 88.2812 91.0294 88.9531 92.8419 88.9531C94.1648 88.9531 95.3471 88.599 96.3887 87.8906C97.5137 87.1406 98.1231 86.2812 98.2169 85.3125C98.269 84.8646 98.6856 84.6406 99.4669 84.6406C100.321 84.6406 100.748 84.875 100.748 85.3438C100.748 85.6771 100.634 86.0833 100.404 86.5625C99.9877 87.4375 99.3002 88.1875 98.3419 88.8125C96.7794 89.8542 94.9408 90.375 92.8262 90.375ZM98.4825 80.9844C98.2221 77.526 96.3783 75.7969 92.9512 75.7969C89.8887 75.7969 88.0294 77.526 87.3731 80.9844H98.4825Z" fill="#FCFCFC"/>
<path d="M32.1914 127.924C32.1445 128.068 31.9629 128.141 31.6465 128.141C31.3652 128.141 31.2051 128.068 31.166 127.924L29.4961 121.473L27.8496 127.918C27.8145 128.066 27.6406 128.141 27.3281 128.141C27.0391 128.141 26.873 128.072 26.8301 127.936L24.1641 120.26C24.1523 120.225 24.1465 120.193 24.1465 120.166C24.1465 119.994 24.3145 119.908 24.6504 119.908C24.9316 119.908 25.0977 119.982 25.1484 120.131L27.4453 126.775L29.1445 120.119C29.1797 119.979 29.3516 119.908 29.6602 119.908C29.9531 119.908 30.1191 119.984 30.1582 120.137L31.8809 126.775L34.166 120.049C34.2012 119.955 34.3145 119.908 34.5059 119.908C34.7363 119.908 34.8516 119.959 34.8516 120.061C34.8516 120.088 34.8457 120.117 34.834 120.148L32.1914 127.924ZM41.2205 127.807C41.2205 128.709 40.9255 129.357 40.3357 129.752C39.7459 130.146 39.0974 130.344 38.3904 130.344C37.2029 130.344 36.3709 129.994 35.8943 129.295C35.8709 129.26 35.8591 129.227 35.8591 129.195C35.8591 129.023 36.0154 128.938 36.3279 128.938C36.5584 128.938 36.7107 128.994 36.7849 129.107C37.1091 129.58 37.6521 129.816 38.4138 129.816C39.6482 129.816 40.2654 129.146 40.2654 127.807V127.35C39.8709 127.861 39.2908 128.117 38.5252 128.117C36.7283 128.117 35.8298 127.24 35.8298 125.486V122.381C35.8298 122.201 35.99 122.111 36.3103 122.111C36.6267 122.111 36.7849 122.201 36.7849 122.381V125.486C36.7849 126.014 36.9314 126.496 37.2244 126.934C37.5212 127.367 37.9548 127.584 38.5252 127.584C39.072 127.584 39.4978 127.361 39.8025 126.916C40.1111 126.471 40.2654 125.99 40.2654 125.475V122.381C40.2654 122.201 40.4236 122.111 40.74 122.111C41.0603 122.111 41.2205 122.201 41.2205 122.381V127.807ZM43.1128 128.141C42.7925 128.141 42.6323 128.051 42.6323 127.871V122.41C42.6323 122.23 42.7925 122.141 43.1128 122.141C43.4292 122.141 43.5874 122.23 43.5874 122.41V123.061C43.8687 122.447 44.3804 122.141 45.1226 122.141C45.5601 122.141 45.939 122.246 46.2593 122.457C46.3374 122.508 46.3765 122.57 46.3765 122.645C46.3765 122.734 46.3237 122.818 46.2183 122.896C46.1362 122.955 46.0445 122.984 45.9429 122.984C45.8062 122.984 45.6792 122.936 45.562 122.838C45.4448 122.736 45.2593 122.686 45.0054 122.686C44.4468 122.686 44.0698 122.953 43.8745 123.488C43.6831 124.023 43.5874 124.523 43.5874 124.988V127.871C43.5874 128.051 43.4292 128.141 43.1128 128.141ZM49.8098 128.141C48.9309 128.141 48.2024 127.873 47.6243 127.338C47.0501 126.799 46.763 126.082 46.763 125.188C46.763 124.281 47.054 123.547 47.636 122.984C48.222 122.422 48.9622 122.141 49.8567 122.141C50.6966 122.141 51.4114 122.369 52.0012 122.826C52.595 123.283 52.8919 123.955 52.8919 124.842C52.8919 125.053 52.7337 125.158 52.4173 125.158H47.7122C47.7122 125.783 47.8919 126.348 48.2512 126.852C48.6145 127.355 49.136 127.607 49.8157 127.607C50.3118 127.607 50.7552 127.475 51.1458 127.209C51.5677 126.928 51.7962 126.605 51.8313 126.242C51.8509 126.074 52.0071 125.99 52.3001 125.99C52.6204 125.99 52.7805 126.078 52.7805 126.254C52.7805 126.379 52.7376 126.531 52.6516 126.711C52.4954 127.039 52.2376 127.32 51.8782 127.555C51.2923 127.945 50.6028 128.141 49.8098 128.141ZM51.9309 124.619C51.8333 123.322 51.1419 122.674 49.8567 122.674C48.7083 122.674 48.011 123.322 47.7649 124.619H51.9309ZM58.9209 128.146C58.6045 128.146 58.4463 128.057 58.4463 127.877V124.771C58.4463 124.26 58.3077 123.785 58.0303 123.348C57.7569 122.906 57.333 122.686 56.7588 122.686C55.5635 122.686 54.9659 123.438 54.9659 124.941V127.877C54.9659 128.057 54.8077 128.146 54.4912 128.146C54.1709 128.146 54.0108 128.057 54.0108 127.877V122.41C54.0108 122.23 54.1709 122.141 54.4912 122.141C54.8077 122.141 54.9659 122.23 54.9659 122.41V123.072C55.3135 122.447 55.9385 122.135 56.8409 122.135C57.4659 122.131 58.0479 122.352 58.587 122.797C59.1299 123.238 59.4014 123.896 59.4014 124.771V127.877C59.4014 128.057 59.2412 128.146 58.9209 128.146ZM66.2742 127.824C66.2742 128.711 65.9734 129.355 65.3719 129.758C64.7742 130.164 64.073 130.367 63.2684 130.367C62.8113 130.367 62.3113 130.289 61.7684 130.133C61.2293 129.977 60.827 129.703 60.5613 129.312C60.5379 129.277 60.5262 129.244 60.5262 129.213C60.5262 129.041 60.6883 128.955 61.0125 128.955C61.2234 128.955 61.3699 129.012 61.452 129.125C61.6316 129.387 61.9031 129.57 62.2664 129.676C62.6297 129.781 62.9656 129.834 63.2742 129.834C64.6414 129.834 65.325 129.164 65.325 127.824V127.268C64.8953 127.846 64.2547 128.135 63.4031 128.135C62.5086 128.135 61.8035 127.848 61.2879 127.273C60.7762 126.695 60.5203 125.982 60.5203 125.135C60.5203 124.283 60.7762 123.57 61.2879 122.996C61.8035 122.422 62.5086 122.135 63.4031 122.135C64.2391 122.135 64.8797 122.432 65.325 123.025L65.3309 122.404C65.3309 122.225 65.4891 122.135 65.8055 122.135C66.118 122.135 66.2742 122.225 66.2742 122.404V127.824ZM63.4031 127.602C64.0555 127.602 64.5398 127.332 64.8563 126.793C65.1727 126.254 65.3309 125.701 65.3309 125.135C65.3309 124.564 65.1727 124.012 64.8563 123.477C64.5398 122.938 64.0555 122.668 63.4031 122.668C62.7547 122.668 62.2703 122.938 61.95 123.477C61.6336 124.012 61.4754 124.564 61.4754 125.135C61.4754 125.701 61.6336 126.254 61.95 126.793C62.2703 127.332 62.7547 127.602 63.4031 127.602ZM68.313 126.74C68.7349 126.74 68.9459 126.949 68.9459 127.367C68.9459 127.789 68.7349 128 68.313 128C67.8951 128 67.6861 127.789 67.6861 127.367C67.6861 126.949 67.8951 126.74 68.313 126.74ZM75.3616 125.996C75.678 125.996 75.8363 126.08 75.8363 126.248C75.8363 126.475 75.7327 126.736 75.5257 127.033C75.0023 127.771 74.182 128.141 73.0648 128.141C71.0687 128.141 70.0706 127.152 70.0706 125.176C70.0628 123.152 71.0823 122.141 73.1292 122.141C74.2034 122.141 74.9905 122.486 75.4905 123.178C75.7132 123.475 75.8245 123.754 75.8245 124.016C75.8245 124.195 75.6663 124.285 75.3499 124.285C75.053 124.285 74.8948 124.203 74.8753 124.039C74.7503 123.129 74.1722 122.674 73.1409 122.674C72.4339 122.674 71.9046 122.93 71.553 123.441C71.2015 123.953 71.0257 124.531 71.0257 125.176C71.0257 125.812 71.1995 126.377 71.5472 126.869C71.8948 127.361 72.4144 127.607 73.1058 127.607C74.1292 127.607 74.723 127.15 74.887 126.236C74.9144 126.076 75.0726 125.996 75.3616 125.996ZM79.7384 122.141C80.6407 122.141 81.379 122.418 81.9532 122.973C82.5274 123.527 82.8145 124.25 82.8145 125.141C82.8145 126.031 82.5274 126.754 81.9532 127.309C81.379 127.863 80.6407 128.141 79.7384 128.141C78.836 128.141 78.0977 127.863 77.5235 127.309C76.9493 126.754 76.6622 126.031 76.6622 125.141C76.6622 124.25 76.9493 123.527 77.5235 122.973C78.0977 122.418 78.836 122.141 79.7384 122.141ZM79.7384 122.674C79.0548 122.674 78.5294 122.93 78.1622 123.441C77.7989 123.953 77.6173 124.52 77.6173 125.141C77.6173 125.762 77.7989 126.328 78.1622 126.84C78.5294 127.352 79.0548 127.607 79.7384 127.607C80.422 127.607 80.9454 127.352 81.3087 126.84C81.6759 126.328 81.8595 125.762 81.8595 125.141C81.8595 124.52 81.6759 123.953 81.3087 123.441C80.9454 122.93 80.422 122.674 79.7384 122.674ZM92.3885 128.141C92.0721 128.141 91.9139 128.053 91.9139 127.877V124.754C91.9139 124.258 91.8026 123.791 91.5799 123.354C91.3573 122.912 90.9608 122.691 90.3905 122.691C89.8241 122.691 89.4315 122.914 89.2127 123.359C88.994 123.801 88.8846 124.266 88.8846 124.754V127.877C88.8846 128.053 88.7245 128.141 88.4041 128.141C88.0877 128.141 87.9295 128.053 87.9295 127.877V124.754C87.9295 124.258 87.8221 123.791 87.6073 123.354C87.3924 122.912 86.9979 122.691 86.4237 122.691C85.8573 122.691 85.4588 122.939 85.2284 123.436C85.0018 123.928 84.8885 124.43 84.8885 124.941V127.871C84.8885 128.051 84.7303 128.141 84.4139 128.141C84.0936 128.141 83.9334 128.051 83.9334 127.871V122.404C83.9334 122.229 84.0936 122.141 84.4139 122.141C84.7303 122.141 84.8885 122.229 84.8885 122.404V123.049C85.2205 122.443 85.7948 122.141 86.6112 122.141C87.4159 122.141 88.037 122.467 88.4745 123.119C88.8651 122.467 89.5057 122.141 90.3963 122.141C92.0448 122.141 92.869 123.012 92.869 124.754V127.877C92.869 128.053 92.7088 128.141 92.3885 128.141Z" fill="#FCFCFC"/>
<path d="M24 131.809H93.4549V132.395H24V131.809Z" fill="#FCFCFC"/>
<a href="https://www.wyreng.com/">
<rect fill="black" fill-opacity="0" y="0.175781" width="69.4549" height="14.6484"/>
</a>
</svg>
