<svg width="294" height="152" viewBox="0 0 294 152" fill="none" xmlns="http://www.w3.org/2000/svg">
<rect x="0.5" y="0.5" width="293" height="151" rx="7.5" stroke="#0074FF" stroke-opacity="0.3"/>
<g clip-path="url(#clip0_1938_6721)">
<path d="M73.3327 27.3333V30H42.666V27.3333C42.666 26.626 42.947 25.9478 43.4471 25.4477C43.9472 24.9476 44.6254 24.6666 45.3327 24.6666H70.666C71.3733 24.6666 72.0516 24.9476 72.5517 25.4477C73.0517 25.9478 73.3327 26.626 73.3327 27.3333Z" fill="#0074FF"/>
<path d="M73.3328 30V52.6667C73.3328 53.3739 73.0519 54.0522 72.5518 54.5523C72.0517 55.0524 71.3734 55.3333 70.6662 55.3333H45.3328C44.742 55.3329 44.168 55.1362 43.701 54.7742C43.2341 54.4122 42.9005 53.9054 42.7528 53.3333C42.6261 52.8933 42.6662 54.9067 42.6662 30H73.3328Z" fill="#CCD3EB"/>
<path d="M71.3328 30V51.3333C71.3328 51.8638 71.1221 52.3725 70.747 52.7475C70.372 53.1226 69.8633 53.3333 69.3328 53.3333H42.7528C42.6261 52.8933 42.6662 54.9067 42.6662 30H71.3328Z" fill="#F5F7FF"/>
<path d="M50.6673 44C53.6128 44 56.0007 41.6122 56.0007 38.6667C56.0007 35.7212 53.6128 33.3334 50.6673 33.3334C47.7218 33.3334 45.334 35.7212 45.334 38.6667C45.334 41.6122 47.7218 44 50.6673 44Z" fill="#F5F7FF"/>
<path d="M50.666 40C51.7706 40 52.666 39.1046 52.666 38C52.666 36.8954 51.7706 36 50.666 36C49.5614 36 48.666 36.8954 48.666 38C48.666 39.1046 49.5614 40 50.666 40Z" fill="#0074FF"/>
<path d="M59.334 50H70.6673V52.6666H59.334V50ZM66.6673 42H70.6673V47.3333H66.6673V42ZM59.334 32.6666H70.6673V36.6666H59.334V32.6666Z" fill="#CCD3EB"/>
<path d="M54.153 42.6999C53.1842 43.5369 51.9466 43.9975 50.6664 43.9975C49.3861 43.9975 48.1485 43.5369 47.1797 42.6999C49.2064 39.1533 52.0864 39.0866 54.153 42.6999Z" fill="#0074FF"/>
<path d="M52.6666 25.3333C52.8208 25.3324 52.9699 25.2781 53.0886 25.1796C53.2072 25.0812 53.288 24.9446 53.3173 24.7932C53.3466 24.6418 53.3225 24.485 53.2491 24.3494C53.1757 24.2138 53.0576 24.1078 52.9148 24.0495C52.7721 23.9912 52.6136 23.9842 52.4662 24.0296C52.3189 24.0751 52.1919 24.1702 52.1068 24.2988C52.0217 24.4274 51.9838 24.5815 51.9996 24.7349C52.0154 24.8882 52.0838 25.0314 52.1933 25.14C52.321 25.2618 52.4901 25.3309 52.6666 25.3333ZM72.6666 39.3333V52.6667C72.6666 53.1971 72.4559 53.7058 72.0808 54.0809C71.7058 54.4559 71.1971 54.6667 70.6666 54.6667H52.6666C52.4898 54.6667 52.3202 54.7369 52.1952 54.8619C52.0702 54.9869 51.9999 55.1565 51.9999 55.3333C51.9999 55.5101 52.0702 55.6797 52.1952 55.8047C52.3202 55.9297 52.4898 56 52.6666 56H70.6666C71.1044 56 71.5378 55.9138 71.9422 55.7463C72.3466 55.5787 72.7141 55.3332 73.0236 55.0237C73.3332 54.7141 73.5787 54.3467 73.7462 53.9423C73.9137 53.5378 74 53.1044 74 52.6667V39.3333C74 39.1565 73.9297 38.9869 73.8047 38.8619C73.6797 38.7369 73.5101 38.6667 73.3333 38.6667C73.1565 38.6667 72.9869 38.7369 72.8619 38.8619C72.7369 38.9869 72.6666 39.1565 72.6666 39.3333Z" fill="#033C59"/>
<path d="M70.6667 24H55.3333C55.1565 24 54.987 24.0702 54.8619 24.1953C54.7369 24.3203 54.6667 24.4899 54.6667 24.6667C54.6667 24.8435 54.7369 25.013 54.8619 25.1381C54.987 25.2631 55.1565 25.3333 55.3333 25.3333H70.6667C71.1971 25.3333 71.7058 25.544 72.0809 25.9191C72.456 26.2942 72.6667 26.8029 72.6667 27.3333V29.3333H43.3333V27.3333C43.3333 26.8029 43.544 26.2942 43.9191 25.9191C44.2942 25.544 44.8029 25.3333 45.3333 25.3333H50C50.1768 25.3333 50.3464 25.2631 50.4714 25.1381C50.5964 25.013 50.6667 24.8435 50.6667 24.6667C50.6667 24.4899 50.5964 24.3203 50.4714 24.1953C50.3464 24.0702 50.1768 24 50 24H45.3333C44.4493 24 43.6014 24.3512 42.9763 24.9763C42.3512 25.6014 42 26.4493 42 27.3333V52.6667C42 53.1044 42.0862 53.5379 42.2537 53.9423C42.4213 54.3467 42.6668 54.7142 42.9763 55.0237C43.2858 55.3332 43.6533 55.5787 44.0577 55.7463C44.4621 55.9138 44.8956 56 45.3333 56H50C50.1768 56 50.3464 55.9298 50.4714 55.8047C50.5964 55.6797 50.6667 55.5101 50.6667 55.3333C50.6667 55.1565 50.5964 54.987 50.4714 54.8619C50.3464 54.7369 50.1768 54.6667 50 54.6667H45.3333C44.8029 54.6667 44.2942 54.456 43.9191 54.0809C43.544 53.7058 43.3333 53.1971 43.3333 52.6667V30.6667H72.6667V36.6667C72.6667 36.8435 72.7369 37.013 72.8619 37.1381C72.987 37.2631 73.1565 37.3333 73.3333 37.3333C73.5101 37.3333 73.6797 37.2631 73.8047 37.1381C73.9298 37.013 74 36.8435 74 36.6667V27.3333C74 26.8956 73.9138 26.4621 73.7463 26.0577C73.5787 25.6533 73.3332 25.2858 73.0237 24.9763C72.7142 24.6668 72.3467 24.4213 71.9423 24.2537C71.5379 24.0862 71.1044 24 70.6667 24Z" fill="#033C59"/>
<path d="M71.1393 27.8067C71.2649 27.6811 71.3354 27.5109 71.3354 27.3333C71.3354 27.1558 71.2649 26.9855 71.1393 26.86C71.0138 26.7345 70.8435 26.6639 70.666 26.6639C70.4885 26.6639 70.3182 26.7345 70.1927 26.86C70.0671 26.9855 69.9966 27.1558 69.9966 27.3333C69.9966 27.5109 70.0671 27.6811 70.1927 27.8067C70.3182 27.9322 70.4885 28.0027 70.666 28.0027C70.8435 28.0027 71.0138 27.9322 71.1393 27.8067ZM67.746 27.9467C67.8526 27.9909 67.9689 28.0067 68.0835 27.9925C68.1981 27.9783 68.307 27.9346 68.3996 27.8656C68.4922 27.7967 68.5653 27.7048 68.6118 27.5992C68.6582 27.4935 68.6764 27.3775 68.6646 27.2627C68.6528 27.1478 68.6114 27.038 68.5444 26.944C68.4774 26.85 68.3871 26.775 68.2824 26.7263C68.1777 26.6777 68.0622 26.657 67.9471 26.6664C67.8321 26.6759 67.7214 26.715 67.626 26.78C67.5267 26.8477 67.4475 26.9409 67.3969 27.0499C67.3463 27.1589 67.326 27.2796 67.3383 27.3991C67.3506 27.5186 67.395 27.6326 67.4667 27.729C67.5385 27.8254 67.635 27.9006 67.746 27.9467ZM65.3327 28C65.442 27.9994 65.5495 27.9718 65.6458 27.9199C65.742 27.8679 65.8239 27.793 65.8843 27.7019C65.9448 27.6108 65.9819 27.5062 65.9924 27.3973C66.0029 27.2885 65.9864 27.1787 65.9445 27.0777C65.9026 26.9767 65.8364 26.8876 65.7519 26.8182C65.6674 26.7488 65.5672 26.7012 65.4599 26.6797C65.3527 26.6582 65.2419 26.6634 65.1371 26.6948C65.0324 26.7263 64.937 26.783 64.8593 26.86C64.7653 26.9532 64.7012 27.0724 64.6752 27.2022C64.6491 27.332 64.6623 27.4667 64.7131 27.589C64.7639 27.7113 64.8499 27.8157 64.9603 27.8889C65.0706 27.9621 65.2003 28.0008 65.3327 28ZM45.3327 28H57.3327C57.5095 28 57.6791 27.9298 57.8041 27.8047C57.9291 27.6797 57.9993 27.5101 57.9993 27.3333C57.9993 27.1565 57.9291 26.987 57.8041 26.8619C57.6791 26.7369 57.5095 26.6667 57.3327 26.6667H45.3327C45.1559 26.6667 44.9863 26.7369 44.8613 26.8619C44.7363 26.987 44.666 27.1565 44.666 27.3333C44.666 27.5101 44.7363 27.6797 44.8613 27.8047C44.9863 27.9298 45.1559 28 45.3327 28Z" fill="#F5F7FF"/>
<path d="M50.666 44.6666C51.8527 44.6666 53.0127 44.3147 53.9994 43.6554C54.9861 42.9962 55.7552 42.0591 56.2093 40.9627C56.6634 39.8664 56.7822 38.66 56.5507 37.4961C56.3192 36.3322 55.7478 35.2631 54.9087 34.424C54.0695 33.5849 53.0004 33.0134 51.8366 32.7819C50.6727 32.5504 49.4663 32.6692 48.3699 33.1234C47.2736 33.5775 46.3365 34.3465 45.6772 35.3332C45.0179 36.3199 44.666 37.4799 44.666 38.6666C44.666 40.2579 45.2982 41.7841 46.4234 42.9093C47.5486 44.0345 49.0747 44.6666 50.666 44.6666ZM48.066 42.54C49.7727 40.06 51.5593 40.06 53.266 42.54C52.4971 43.0559 51.592 43.3314 50.666 43.3314C49.74 43.3314 48.835 43.0559 48.066 42.54ZM49.3327 38C49.3327 37.7363 49.4109 37.4785 49.5574 37.2592C49.7039 37.0399 49.9121 36.869 50.1558 36.7681C50.3994 36.6672 50.6675 36.6408 50.9261 36.6922C51.1848 36.7437 51.4224 36.8707 51.6088 37.0572C51.7953 37.2436 51.9223 37.4812 51.9737 37.7398C52.0252 37.9985 51.9988 38.2666 51.8979 38.5102C51.7969 38.7538 51.626 38.9621 51.4068 39.1086C51.1875 39.2551 50.9297 39.3333 50.666 39.3333C50.3124 39.3333 49.9733 39.1928 49.7232 38.9428C49.4732 38.6927 49.3327 38.3536 49.3327 38ZM50.666 34C51.5511 34.0006 52.4178 34.253 53.1649 34.7276C53.912 35.2022 54.5087 35.8795 54.8854 36.6805C55.2622 37.4814 55.4033 38.373 55.2925 39.2511C55.1816 40.1293 54.8233 40.9578 54.2593 41.64C53.7899 40.9605 53.1975 40.3749 52.5127 39.9133C52.8965 39.5448 53.1614 39.07 53.2732 38.5498C53.3849 38.0296 53.3386 37.4879 53.14 36.9943C52.9414 36.5007 52.5997 36.0777 52.1589 35.7799C51.718 35.482 51.1981 35.3228 50.666 35.3228C50.134 35.3228 49.6141 35.482 49.1732 35.7799C48.7323 36.0777 48.3906 36.5007 48.192 36.9943C47.9935 37.4879 47.9471 38.0296 48.0589 38.5498C48.1707 39.07 48.4355 39.5448 48.8193 39.9133C48.1345 40.3749 47.5421 40.9605 47.0727 41.64C46.5087 40.9578 46.1504 40.1293 46.0396 39.2511C45.9287 38.373 46.0699 37.4814 46.4466 36.6805C46.8233 35.8795 47.42 35.2022 48.1671 34.7276C48.9142 34.253 49.7809 34.0006 50.666 34Z" fill="#033C59"/>
<path d="M56.666 49.3333H51.3327C51.1559 49.3333 50.9863 49.4036 50.8613 49.5286C50.7363 49.6536 50.666 49.8232 50.666 50C50.666 50.1768 50.7363 50.3464 50.8613 50.4714C50.9863 50.5964 51.1559 50.6667 51.3327 50.6667H56.666C56.8428 50.6667 57.0124 50.5964 57.1374 50.4714C57.2624 50.3464 57.3327 50.1768 57.3327 50C57.3327 49.8232 57.2624 49.6536 57.1374 49.5286C57.0124 49.4036 56.8428 49.3333 56.666 49.3333ZM45.3327 48H56.666C56.8428 48 57.0124 47.9298 57.1374 47.8047C57.2624 47.6797 57.3327 47.5102 57.3327 47.3333C57.3327 47.1565 57.2624 46.987 57.1374 46.8619C57.0124 46.7369 56.8428 46.6667 56.666 46.6667H45.3327C45.1559 46.6667 44.9863 46.7369 44.8613 46.8619C44.7363 46.987 44.666 47.1565 44.666 47.3333C44.666 47.5102 44.7363 47.6797 44.8613 47.8047C44.9863 47.9298 45.1559 48 45.3327 48ZM45.3327 53.3333H56.666C56.8428 53.3333 57.0124 53.2631 57.1374 53.1381C57.2624 53.0131 57.3327 52.8435 57.3327 52.6667C57.3327 52.4899 57.2624 52.3203 57.1374 52.1953C57.0124 52.0702 56.8428 52 56.666 52H45.3327C45.1559 52 44.9863 52.0702 44.8613 52.1953C44.7363 52.3203 44.666 52.4899 44.666 52.6667C44.666 52.8435 44.7363 53.0131 44.8613 53.1381C44.9863 53.2631 45.1559 53.3333 45.3327 53.3333ZM58.666 52.6667C58.666 52.8435 58.7363 53.0131 58.8613 53.1381C58.9863 53.2631 59.1559 53.3333 59.3327 53.3333H70.666C70.8428 53.3333 71.0124 53.2631 71.1374 53.1381C71.2625 53.0131 71.3327 52.8435 71.3327 52.6667V50C71.3327 49.8232 71.2625 49.6536 71.1374 49.5286C71.0124 49.4036 70.8428 49.3333 70.666 49.3333H59.3327C59.1559 49.3333 58.9863 49.4036 58.8613 49.5286C58.7363 49.6536 58.666 49.8232 58.666 50V52.6667ZM59.9994 50.6667H69.9994V52H59.9994V50.6667ZM70.666 41.3333H66.666C66.4892 41.3333 66.3196 41.4036 66.1946 41.5286C66.0696 41.6536 65.9994 41.8232 65.9994 42V47.3333C65.9994 47.5102 66.0696 47.6797 66.1946 47.8047C66.3196 47.9298 66.4892 48 66.666 48H70.666C70.8428 48 71.0124 47.9298 71.1374 47.8047C71.2625 47.6797 71.3327 47.5102 71.3327 47.3333V42C71.3327 41.8232 71.2625 41.6536 71.1374 41.5286C71.0124 41.4036 70.8428 41.3333 70.666 41.3333ZM69.9994 46.6667H67.3327V42.6667H69.9994V46.6667ZM59.3327 48H63.9994C64.1762 48 64.3457 47.9298 64.4708 47.8047C64.5958 47.6797 64.666 47.5102 64.666 47.3333C64.666 47.1565 64.5958 46.987 64.4708 46.8619C64.3457 46.7369 64.1762 46.6667 63.9994 46.6667H59.3327C59.1559 46.6667 58.9863 46.7369 58.8613 46.8619C58.7363 46.987 58.666 47.1565 58.666 47.3333C58.666 47.5102 58.7363 47.6797 58.8613 47.8047C58.9863 47.9298 59.1559 48 59.3327 48ZM59.3327 45.3333H63.9994C64.1762 45.3333 64.3457 45.2631 64.4708 45.1381C64.5958 45.0131 64.666 44.8435 64.666 44.6667C64.666 44.4899 64.5958 44.3203 64.4708 44.1953C64.3457 44.0702 64.1762 44 63.9994 44H59.3327C59.1559 44 58.9863 44.0702 58.8613 44.1953C58.7363 44.3203 58.666 44.4899 58.666 44.6667C58.666 44.8435 58.7363 45.0131 58.8613 45.1381C58.9863 45.2631 59.1559 45.3333 59.3327 45.3333ZM59.3327 42.6667H63.9994C64.1762 42.6667 64.3457 42.5964 64.4708 42.4714C64.5958 42.3464 64.666 42.1768 64.666 42C64.666 41.8232 64.5958 41.6536 64.4708 41.5286C64.3457 41.4036 64.1762 41.3333 63.9994 41.3333H59.3327C59.1559 41.3333 58.9863 41.4036 58.8613 41.5286C58.7363 41.6536 58.666 41.8232 58.666 42C58.666 42.1768 58.7363 42.3464 58.8613 42.4714C58.9863 42.5964 59.1559 42.6667 59.3327 42.6667ZM59.3327 40H70.666C70.8428 40 71.0124 39.9298 71.1374 39.8047C71.2625 39.6797 71.3327 39.5101 71.3327 39.3333C71.3327 39.1565 71.2625 38.987 71.1374 38.8619C71.0124 38.7369 70.8428 38.6667 70.666 38.6667H59.3327C59.1559 38.6667 58.9863 38.7369 58.8613 38.8619C58.7363 38.987 58.666 39.1565 58.666 39.3333C58.666 39.5101 58.7363 39.6797 58.8613 39.8047C58.9863 39.9298 59.1559 40 59.3327 40ZM59.3327 37.3333H70.666C70.8428 37.3333 71.0124 37.2631 71.1374 37.1381C71.2625 37.013 71.3327 36.8435 71.3327 36.6667V32.6667C71.3327 32.4899 71.2625 32.3203 71.1374 32.1953C71.0124 32.0702 70.8428 32 70.666 32H59.3327C59.1559 32 58.9863 32.0702 58.8613 32.1953C58.7363 32.3203 58.666 32.4899 58.666 32.6667V36.6667C58.666 36.8435 58.7363 37.013 58.8613 37.1381C58.9863 37.2631 59.1559 37.3333 59.3327 37.3333ZM59.9994 33.3333H69.9994V36H59.9994V33.3333ZM45.3327 50.6667H48.666C48.8428 50.6667 49.0124 50.5964 49.1374 50.4714C49.2624 50.3464 49.3327 50.1768 49.3327 50C49.3327 49.8232 49.2624 49.6536 49.1374 49.5286C49.0124 49.4036 48.8428 49.3333 48.666 49.3333H45.3327C45.1559 49.3333 44.9863 49.4036 44.8613 49.5286C44.7363 49.6536 44.666 49.8232 44.666 50C44.666 50.1768 44.7363 50.3464 44.8613 50.4714C44.9863 50.5964 45.1559 50.6667 45.3327 50.6667Z" fill="#96A1C3"/>
</g>
<path d="M48.5723 88.2344C47.2897 88.2344 46.0365 87.847 44.8125 87.0723C43.5885 86.291 42.9766 85.194 42.9766 83.7812V75.0605C42.9766 74.696 43.3053 74.5137 43.9629 74.5137C44.627 74.5137 44.959 74.696 44.959 75.0605V83.7812C44.959 84.7383 45.3333 85.5391 46.082 86.1836C46.8372 86.8216 47.6738 87.1406 48.5918 87.1406C49.5163 87.1406 50.3496 86.8151 51.0918 86.1641C51.8405 85.513 52.2148 84.7188 52.2148 83.7812V75.0605C52.2148 74.696 52.5469 74.5137 53.2109 74.5137C53.8685 74.5137 54.1973 74.696 54.1973 75.0605V83.7812C54.1973 85.2005 53.5788 86.2975 52.3418 87.0723C51.1113 87.847 49.8548 88.2344 48.5723 88.2344ZM60.0957 88.2344C59.1322 88.2344 58.2305 88.0228 57.3906 87.5996C56.5573 87.1699 55.9974 86.4733 55.7109 85.5098C55.6849 85.4316 55.6719 85.373 55.6719 85.334C55.6719 84.9759 56.0007 84.7969 56.6582 84.7969C57.2376 84.7969 57.5664 84.9499 57.6445 85.2559C57.9831 86.5189 58.7969 87.1504 60.0859 87.1504C60.6263 87.1504 61.1536 86.9876 61.668 86.6621C62.1888 86.3301 62.4492 85.8581 62.4492 85.2461C62.4492 84.862 62.166 84.5462 61.5996 84.2988C61.2155 84.1296 60.7109 84.0026 60.0859 83.918C59.5651 83.8464 59.054 83.765 58.5527 83.6738C58.0579 83.5827 57.5859 83.3874 57.1367 83.0879C56.3229 82.5475 55.916 81.8509 55.916 80.998C55.916 79.9954 56.4076 79.2858 57.3906 78.8691C58.3802 78.446 59.2884 78.2344 60.1152 78.2344C60.9616 78.2344 61.7819 78.4232 62.5762 78.8008C63.377 79.1784 63.8945 79.8001 64.1289 80.666C64.1484 80.7246 64.1582 80.7799 64.1582 80.832C64.1582 81.1641 63.8294 81.3398 63.1719 81.3594C62.5924 81.3594 62.2637 81.2031 62.1855 80.8906C61.9316 79.8424 61.2383 79.3184 60.1055 79.3184C59.6172 79.3184 59.1257 79.4551 58.6309 79.7285C58.1361 79.9954 57.8887 80.4121 57.8887 80.9785C57.8887 81.3561 58.2012 81.6686 58.8262 81.916C59.2493 82.0788 59.7539 82.2057 60.3398 82.2969C60.8607 82.375 61.3587 82.4629 61.834 82.5605C62.3092 82.6517 62.7715 82.8405 63.2207 83.127C64.0215 83.6348 64.4219 84.3216 64.4219 85.1875C64.4219 86.2682 63.9238 87.0462 62.9277 87.5215C61.9316 87.9967 60.9876 88.2344 60.0957 88.2344ZM70.6621 88.2344C69.1842 88.2344 67.9375 87.7949 66.9219 86.916C65.9062 86.0306 65.3984 84.8229 65.3984 83.293C65.3984 81.737 65.9128 80.5065 66.9414 79.6016C67.9766 78.6901 69.2461 78.2344 70.75 78.2344C72.1823 78.2344 73.416 78.612 74.4512 79.3672C75.4863 80.1159 76.0039 81.2389 76.0039 82.7363C76.0039 83.153 75.6751 83.3613 75.0176 83.3613H67.3711C67.3841 84.3249 67.6771 85.1973 68.25 85.9785C68.8229 86.7598 69.6302 87.1504 70.6719 87.1504C71.4206 87.1504 72.1139 86.9486 72.752 86.5449C73.4225 86.1152 73.7871 85.6074 73.8457 85.0215C73.8783 84.6829 74.2005 84.5137 74.8125 84.5137C75.4831 84.5137 75.8184 84.6927 75.8184 85.0508C75.8184 85.2331 75.763 85.4544 75.6523 85.7148C75.4115 86.2878 74.9525 86.7956 74.2754 87.2383C73.2598 87.9023 72.0553 88.2344 70.6621 88.2344ZM74.002 82.2773C73.7936 80.3047 72.7096 79.3184 70.75 79.3184C69.0052 79.3184 67.918 80.3047 67.4883 82.2773H74.002ZM78.4648 88.2344C77.8008 88.2344 77.4688 88.0521 77.4688 87.6875V78.7812C77.4688 78.4167 77.8008 78.2344 78.4648 78.2344C79.1224 78.2344 79.4512 78.4167 79.4512 78.7812V79.377C79.9915 78.6152 80.7793 78.2344 81.8145 78.2344C82.6022 78.2344 83.2826 78.4199 83.8555 78.791C84.0182 78.8952 84.0996 79.0189 84.0996 79.1621C84.0996 79.3444 83.9954 79.5039 83.7871 79.6406C83.6048 79.7643 83.403 79.8262 83.1816 79.8262C82.9733 79.8262 82.7943 79.7708 82.6445 79.6602C82.3385 79.4193 81.9967 79.2988 81.6191 79.2988C80.8639 79.2988 80.2943 79.696 79.9102 80.4902C79.6042 81.1087 79.4512 81.9421 79.4512 82.9902V87.6875C79.4512 88.0521 79.1224 88.2344 78.4648 88.2344ZM86.3164 83.6055C85.6523 83.6055 85.3203 83.4264 85.3203 83.0684C85.3203 82.7103 85.6523 82.5312 86.3164 82.5312H90.7012C91.3652 82.5312 91.6973 82.7103 91.6973 83.0684C91.6973 83.4264 91.3652 83.6055 90.7012 83.6055H86.3164ZM94.6465 88.2344C93.9889 88.2344 93.6602 88.0521 93.6602 87.6875V75.2949C93.6602 74.9303 93.9889 74.748 94.6465 74.748H102.859C103.517 74.748 103.846 74.9303 103.846 75.2949C103.846 75.6595 103.517 75.8418 102.859 75.8418H95.6426V80.8906H101.697C102.361 80.8906 102.693 81.0729 102.693 81.4375C102.693 81.8021 102.361 81.9844 101.697 81.9844H95.6426V87.6875C95.6426 88.0521 95.3105 88.2344 94.6465 88.2344ZM106.316 88.2344C105.652 88.2344 105.32 88.0521 105.32 87.6875V78.7812C105.32 78.4167 105.652 78.2344 106.316 78.2344C106.974 78.2344 107.303 78.4167 107.303 78.7812V79.377C107.843 78.6152 108.631 78.2344 109.666 78.2344C110.454 78.2344 111.134 78.4199 111.707 78.791C111.87 78.8952 111.951 79.0189 111.951 79.1621C111.951 79.3444 111.847 79.5039 111.639 79.6406C111.456 79.7643 111.255 79.8262 111.033 79.8262C110.825 79.8262 110.646 79.7708 110.496 79.6602C110.19 79.4193 109.848 79.2988 109.471 79.2988C108.715 79.2988 108.146 79.696 107.762 80.4902C107.456 81.1087 107.303 81.9421 107.303 82.9902V87.6875C107.303 88.0521 106.974 88.2344 106.316 88.2344ZM113.934 77.375C113.263 77.375 112.928 77.043 112.928 76.3789C112.928 75.7083 113.263 75.373 113.934 75.373C114.598 75.373 114.93 75.7083 114.93 76.3789C114.93 77.043 114.598 77.375 113.934 77.375ZM113.934 88.2344C113.27 88.2344 112.938 88.0521 112.938 87.6875V78.7812C112.938 78.4167 113.27 78.2344 113.934 78.2344C114.591 78.2344 114.92 78.4167 114.92 78.7812V87.6875C114.92 88.0521 114.591 88.2344 113.934 88.2344ZM121.424 88.2344C119.946 88.2344 118.699 87.7949 117.684 86.916C116.668 86.0306 116.16 84.8229 116.16 83.293C116.16 81.737 116.674 80.5065 117.703 79.6016C118.738 78.6901 120.008 78.2344 121.512 78.2344C122.944 78.2344 124.178 78.612 125.213 79.3672C126.248 80.1159 126.766 81.2389 126.766 82.7363C126.766 83.153 126.437 83.3613 125.779 83.3613H118.133C118.146 84.3249 118.439 85.1973 119.012 85.9785C119.585 86.7598 120.392 87.1504 121.434 87.1504C122.182 87.1504 122.876 86.9486 123.514 86.5449C124.184 86.1152 124.549 85.6074 124.607 85.0215C124.64 84.6829 124.962 84.5137 125.574 84.5137C126.245 84.5137 126.58 84.6927 126.58 85.0508C126.58 85.2331 126.525 85.4544 126.414 85.7148C126.173 86.2878 125.714 86.7956 125.037 87.2383C124.021 87.9023 122.817 88.2344 121.424 88.2344ZM124.764 82.2773C124.555 80.3047 123.471 79.3184 121.512 79.3184C119.767 79.3184 118.68 80.3047 118.25 82.2773H124.764ZM136.609 88.2344C135.952 88.2344 135.623 88.0521 135.623 87.6875V82.6289C135.623 81.8672 135.415 81.1283 134.998 80.4121C134.581 79.696 133.924 79.3379 133.025 79.3379C132.062 79.3379 131.352 79.7285 130.896 80.5098C130.441 81.2845 130.213 82.0788 130.213 82.8926V87.6875C130.213 88.0521 129.884 88.2344 129.227 88.2344C128.562 88.2344 128.23 88.0521 128.23 87.6875V78.791C128.23 78.4264 128.562 78.2441 129.227 78.2441C129.884 78.2441 130.213 78.4264 130.213 78.791V79.377C130.929 78.6152 131.906 78.2344 133.143 78.2344C134.445 78.2344 135.512 78.651 136.346 79.4844C137.186 80.3112 137.605 81.3561 137.605 82.6191V87.6875C137.605 88.0521 137.273 88.2344 136.609 88.2344ZM148.074 88.2344C147.417 88.2344 147.088 88.0521 147.088 87.6875V87.0918C146.339 87.847 145.333 88.2246 144.07 88.2246C140.737 88.2246 139.07 86.5579 139.07 83.2246C139.07 79.8913 140.737 78.2246 144.07 78.2246C145.327 78.2246 146.333 78.6022 147.088 79.3574V75.0605C147.088 74.696 147.417 74.5137 148.074 74.5137C148.738 74.5137 149.07 74.696 149.07 75.0605V87.6875C149.07 88.0521 148.738 88.2344 148.074 88.2344ZM144.07 87.1309C145.099 87.1309 145.857 86.6979 146.346 85.832C146.84 84.9661 147.088 84.097 147.088 83.2246C147.088 82.3522 146.84 81.4831 146.346 80.6172C145.857 79.7513 145.099 79.3184 144.07 79.3184C143.048 79.3184 142.29 79.7513 141.795 80.6172C141.3 81.4831 141.053 82.3522 141.053 83.2246C141.053 84.097 141.3 84.9661 141.795 85.832C142.29 86.6979 143.048 87.1309 144.07 87.1309ZM151.775 88.2344C151.111 88.2344 150.779 88.0521 150.779 87.6875V75.0605C150.779 74.696 151.111 74.5137 151.775 74.5137C152.433 74.5137 152.762 74.696 152.762 75.0605V87.6875C152.762 88.0521 152.433 88.2344 151.775 88.2344ZM163.855 87.6777C163.855 89.1491 163.377 90.2201 162.42 90.8906C161.469 91.5677 160.317 91.9062 158.963 91.9062C158.182 91.9062 157.365 91.7728 156.512 91.5059C155.665 91.2389 155.011 90.7734 154.549 90.1094C154.503 90.0443 154.48 89.9792 154.48 89.9141C154.48 89.556 154.809 89.377 155.467 89.377C155.929 89.377 156.238 89.4909 156.395 89.7188C156.896 90.4479 157.745 90.8125 158.943 90.8125C160.896 90.8125 161.873 89.7318 161.873 87.5703V87.043C161.235 87.8047 160.333 88.1855 159.168 88.1855C156.043 88.1855 154.48 86.7207 154.48 83.791V78.7324C154.48 78.3678 154.812 78.1855 155.477 78.1855C156.134 78.1855 156.463 78.3678 156.463 78.7324V83.791C156.463 84.5788 156.688 85.3275 157.137 86.0371C157.586 86.7467 158.263 87.1016 159.168 87.1016C160.04 87.1016 160.708 86.7467 161.17 86.0371C161.639 85.3275 161.873 84.5885 161.873 83.8203V78.7324C161.873 78.3678 162.202 78.1855 162.859 78.1855C163.523 78.1855 163.855 78.3678 163.855 78.7324V87.6777ZM171.199 88.2344C170.535 88.2344 170.203 88.0521 170.203 87.6875V75.0605C170.203 74.696 170.535 74.5137 171.199 74.5137C171.857 74.5137 172.186 74.696 172.186 75.0605V87.6875C172.186 88.0521 171.857 88.2344 171.199 88.2344ZM182.039 88.2344C181.382 88.2344 181.053 88.0521 181.053 87.6875V82.6289C181.053 81.8672 180.844 81.1283 180.428 80.4121C180.011 79.696 179.354 79.3379 178.455 79.3379C177.492 79.3379 176.782 79.7285 176.326 80.5098C175.87 81.2845 175.643 82.0788 175.643 82.8926V87.6875C175.643 88.0521 175.314 88.2344 174.656 88.2344C173.992 88.2344 173.66 88.0521 173.66 87.6875V78.791C173.66 78.4264 173.992 78.2441 174.656 78.2441C175.314 78.2441 175.643 78.4264 175.643 78.791V79.377C176.359 78.6152 177.335 78.2344 178.572 78.2344C179.874 78.2344 180.942 78.651 181.775 79.4844C182.615 80.3112 183.035 81.3561 183.035 82.6191V87.6875C183.035 88.0521 182.703 88.2344 182.039 88.2344ZM189.617 88.2344C187.423 88.2214 186.326 87.3229 186.326 85.5391V79.3281H185.232C184.575 79.3281 184.246 79.1458 184.246 78.7812C184.246 78.4167 184.575 78.2344 185.232 78.2344H186.326V75.0605C186.326 74.696 186.658 74.5137 187.322 74.5137C187.986 74.5137 188.318 74.696 188.318 75.0605V78.2344H189.959C190.623 78.2344 190.955 78.4167 190.955 78.7812C190.955 79.1458 190.623 79.3281 189.959 79.3281H188.318V85.5391C188.318 86.6068 188.755 87.1406 189.627 87.1406C189.809 87.1406 189.982 87.1243 190.145 87.0918C190.314 87.0527 190.483 87.0332 190.652 87.0332C191.336 87.0332 191.678 87.222 191.678 87.5996C191.678 87.8535 191.404 88.0293 190.857 88.127C190.428 88.1986 190.014 88.2344 189.617 88.2344ZM197.186 88.2344C195.708 88.2344 194.461 87.7949 193.445 86.916C192.43 86.0306 191.922 84.8229 191.922 83.293C191.922 81.737 192.436 80.5065 193.465 79.6016C194.5 78.6901 195.77 78.2344 197.273 78.2344C198.706 78.2344 199.939 78.612 200.975 79.3672C202.01 80.1159 202.527 81.2389 202.527 82.7363C202.527 83.153 202.199 83.3613 201.541 83.3613H193.895C193.908 84.3249 194.201 85.1973 194.773 85.9785C195.346 86.7598 196.154 87.1504 197.195 87.1504C197.944 87.1504 198.637 86.9486 199.275 86.5449C199.946 86.1152 200.311 85.6074 200.369 85.0215C200.402 84.6829 200.724 84.5137 201.336 84.5137C202.007 84.5137 202.342 84.6927 202.342 85.0508C202.342 85.2331 202.286 85.4544 202.176 85.7148C201.935 86.2878 201.476 86.7956 200.799 87.2383C199.783 87.9023 198.579 88.2344 197.186 88.2344ZM200.525 82.2773C200.317 80.3047 199.233 79.3184 197.273 79.3184C195.529 79.3184 194.441 80.3047 194.012 82.2773H200.525ZM204.988 88.2344C204.324 88.2344 203.992 88.0521 203.992 87.6875V78.7812C203.992 78.4167 204.324 78.2344 204.988 78.2344C205.646 78.2344 205.975 78.4167 205.975 78.7812V79.377C206.515 78.6152 207.303 78.2344 208.338 78.2344C209.126 78.2344 209.806 78.4199 210.379 78.791C210.542 78.8952 210.623 79.0189 210.623 79.1621C210.623 79.3444 210.519 79.5039 210.311 79.6406C210.128 79.7643 209.926 79.8262 209.705 79.8262C209.497 79.8262 209.318 79.7708 209.168 79.6602C208.862 79.4193 208.52 79.2988 208.143 79.2988C207.387 79.2988 206.818 79.696 206.434 80.4902C206.128 81.1087 205.975 81.9421 205.975 82.9902V87.6875C205.975 88.0521 205.646 88.2344 204.988 88.2344ZM214.148 88.2344C213.484 88.2344 213.152 88.0521 213.152 87.6875V79.3184H212.088C211.43 79.3184 211.102 79.1361 211.102 78.7715C211.102 78.4069 211.43 78.2246 212.088 78.2246H213.152V77.209C213.152 75.4251 214.246 74.5267 216.434 74.5137C216.837 74.5137 217.254 74.5495 217.684 74.6211C218.23 74.7188 218.504 74.8945 218.504 75.1484C218.504 75.526 218.159 75.7148 217.469 75.7148C217.306 75.7148 217.14 75.6986 216.971 75.666C216.808 75.627 216.635 75.6074 216.453 75.6074C215.574 75.6074 215.135 76.1413 215.135 77.209V78.2246H216.805C217.469 78.2246 217.801 78.4069 217.801 78.7715C217.801 79.1361 217.469 79.3184 216.805 79.3184H215.135V87.6875C215.135 88.0521 214.806 88.2344 214.148 88.2344ZM228.201 88.2344C227.908 88.2344 227.671 88.179 227.488 88.0684C227.033 87.8014 226.746 87.4531 226.629 87.0234C226.212 87.5117 225.652 87.8372 224.949 88C224.253 88.1562 223.624 88.2344 223.064 88.2344C222.173 88.2344 221.268 88.0228 220.35 87.5996C219.438 87.1699 218.982 86.4342 218.982 85.3926C218.982 84.2077 219.432 83.4557 220.33 83.1367C221.229 82.8177 222.16 82.6582 223.123 82.6582C223.331 82.6582 223.585 82.6647 223.885 82.6777C224.191 82.6908 224.477 82.6973 224.744 82.6973C225.48 82.6973 226.004 82.6126 226.316 82.4434V81.5156C226.316 80.0508 225.467 79.3184 223.768 79.3184C223.143 79.3184 222.586 79.4746 222.098 79.7871C221.531 80.1517 221.248 80.5879 221.248 81.0957C221.248 81.4538 220.916 81.6328 220.252 81.6328C219.601 81.6328 219.275 81.4538 219.275 81.0957C219.275 80.334 219.712 79.6634 220.584 79.084C221.45 78.5176 222.511 78.2344 223.768 78.2344C224.777 78.2344 225.783 78.4818 226.785 78.9766C227.788 79.4648 228.289 80.3112 228.289 81.5156V85.7246C228.289 86.5449 228.501 87.0755 228.924 87.3164C229.106 87.4206 229.197 87.5443 229.197 87.6875C229.197 87.8503 229.096 87.9837 228.895 88.0879C228.719 88.1855 228.488 88.2344 228.201 88.2344ZM223.064 87.1504C223.8 87.1504 224.526 86.9323 225.242 86.4961C225.958 86.0534 226.316 85.4284 226.316 84.6211V83.6836C225.945 83.7487 225.49 83.7812 224.949 83.7812C224.65 83.7812 224.347 83.7747 224.041 83.7617C223.735 83.7422 223.429 83.7324 223.123 83.7324C221.684 83.7324 220.965 84.2858 220.965 85.3926C220.965 86.5645 221.665 87.1504 223.064 87.1504ZM235.145 88.2344C231.661 88.2344 229.92 86.5807 229.92 83.2734C229.92 81.6979 230.424 80.4642 231.434 79.5723C232.443 78.6803 233.712 78.2344 235.242 78.2344C236.206 78.2344 237.173 78.4818 238.143 78.9766C239.119 79.4714 239.699 80.2298 239.881 81.252C239.894 81.3301 239.9 81.3822 239.9 81.4082C239.9 81.7663 239.572 81.9453 238.914 81.9453C238.302 81.9453 237.973 81.7793 237.928 81.4473C237.726 80.028 236.827 79.3184 235.232 79.3184C234.126 79.3184 233.292 79.7318 232.732 80.5586C232.173 81.3789 231.893 82.2904 231.893 83.293C231.899 84.2695 232.173 85.1582 232.713 85.959C233.253 86.7533 234.077 87.1504 235.184 87.1504C236.759 87.1504 237.68 86.4375 237.947 85.0117C237.999 84.6862 238.328 84.5234 238.934 84.5234C239.598 84.5234 239.93 84.7025 239.93 85.0605C239.93 85.0345 239.917 85.0996 239.891 85.2559C239.656 86.265 239.048 87.0137 238.064 87.502C237.081 87.9902 236.108 88.2344 235.145 88.2344ZM246.17 88.2344C244.692 88.2344 243.445 87.7949 242.43 86.916C241.414 86.0306 240.906 84.8229 240.906 83.293C240.906 81.737 241.421 80.5065 242.449 79.6016C243.484 78.6901 244.754 78.2344 246.258 78.2344C247.69 78.2344 248.924 78.612 249.959 79.3672C250.994 80.1159 251.512 81.2389 251.512 82.7363C251.512 83.153 251.183 83.3613 250.525 83.3613H242.879C242.892 84.3249 243.185 85.1973 243.758 85.9785C244.331 86.7598 245.138 87.1504 246.18 87.1504C246.928 87.1504 247.622 86.9486 248.26 86.5449C248.93 86.1152 249.295 85.6074 249.354 85.0215C249.386 84.6829 249.708 84.5137 250.32 84.5137C250.991 84.5137 251.326 84.6927 251.326 85.0508C251.326 85.2331 251.271 85.4544 251.16 85.7148C250.919 86.2878 250.46 86.7956 249.783 87.2383C248.768 87.9023 247.563 88.2344 246.17 88.2344ZM249.51 82.2773C249.301 80.3047 248.217 79.3184 246.258 79.3184C244.513 79.3184 243.426 80.3047 242.996 82.2773H249.51ZM51.9512 116.234C51.6582 116.234 51.4206 116.179 51.2383 116.068C50.7826 115.801 50.4961 115.453 50.3789 115.023C49.9622 115.512 49.4023 115.837 48.6992 116C48.0026 116.156 47.3743 116.234 46.8145 116.234C45.9225 116.234 45.0176 116.023 44.0996 115.6C43.1882 115.17 42.7324 114.434 42.7324 113.393C42.7324 112.208 43.1816 111.456 44.0801 111.137C44.9785 110.818 45.9095 110.658 46.873 110.658C47.0814 110.658 47.3353 110.665 47.6348 110.678C47.9408 110.691 48.2272 110.697 48.4941 110.697C49.2298 110.697 49.7539 110.613 50.0664 110.443V109.516C50.0664 108.051 49.2168 107.318 47.5176 107.318C46.8926 107.318 46.3359 107.475 45.8477 107.787C45.2812 108.152 44.998 108.588 44.998 109.096C44.998 109.454 44.666 109.633 44.002 109.633C43.3509 109.633 43.0254 109.454 43.0254 109.096C43.0254 108.334 43.4616 107.663 44.334 107.084C45.1999 106.518 46.2611 106.234 47.5176 106.234C48.5267 106.234 49.5326 106.482 50.5352 106.977C51.5378 107.465 52.0391 108.311 52.0391 109.516V113.725C52.0391 114.545 52.2507 115.076 52.6738 115.316C52.8561 115.421 52.9473 115.544 52.9473 115.688C52.9473 115.85 52.8464 115.984 52.6445 116.088C52.4688 116.186 52.2376 116.234 51.9512 116.234ZM46.8145 115.15C47.5501 115.15 48.276 114.932 48.9922 114.496C49.7083 114.053 50.0664 113.428 50.0664 112.621V111.684C49.6953 111.749 49.2396 111.781 48.6992 111.781C48.3997 111.781 48.097 111.775 47.791 111.762C47.485 111.742 47.179 111.732 46.873 111.732C45.4342 111.732 44.7148 112.286 44.7148 113.393C44.7148 114.564 45.4147 115.15 46.8145 115.15ZM62.5469 116.234C61.8893 116.234 61.5605 116.052 61.5605 115.688V110.629C61.5605 109.867 61.3522 109.128 60.9355 108.412C60.5189 107.696 59.8613 107.338 58.9629 107.338C57.9993 107.338 57.2897 107.729 56.834 108.51C56.3783 109.285 56.1504 110.079 56.1504 110.893V115.688C56.1504 116.052 55.8216 116.234 55.1641 116.234C54.5 116.234 54.168 116.052 54.168 115.688V106.791C54.168 106.426 54.5 106.244 55.1641 106.244C55.8216 106.244 56.1504 106.426 56.1504 106.791V107.377C56.8665 106.615 57.8431 106.234 59.0801 106.234C60.3822 106.234 61.4499 106.651 62.2832 107.484C63.123 108.311 63.543 109.356 63.543 110.619V115.688C63.543 116.052 63.2109 116.234 62.5469 116.234ZM74.0117 116.234C73.3542 116.234 73.0254 116.052 73.0254 115.688V115.092C72.2767 115.847 71.2708 116.225 70.0078 116.225C66.6745 116.225 65.0078 114.558 65.0078 111.225C65.0078 107.891 66.6745 106.225 70.0078 106.225C71.2643 106.225 72.2702 106.602 73.0254 107.357V103.061C73.0254 102.696 73.3542 102.514 74.0117 102.514C74.6758 102.514 75.0078 102.696 75.0078 103.061V115.688C75.0078 116.052 74.6758 116.234 74.0117 116.234ZM70.0078 115.131C71.0365 115.131 71.7949 114.698 72.2832 113.832C72.778 112.966 73.0254 112.097 73.0254 111.225C73.0254 110.352 72.778 109.483 72.2832 108.617C71.7949 107.751 71.0365 107.318 70.0078 107.318C68.9857 107.318 68.2272 107.751 67.7324 108.617C67.2376 109.483 66.9902 110.352 66.9902 111.225C66.9902 112.097 67.2376 112.966 67.7324 113.832C68.2272 114.698 68.9857 115.131 70.0078 115.131ZM93.377 116.234C92.7845 116.234 92.4264 116.094 92.3027 115.814L90.5156 111.762H84.4316L82.6348 115.932C82.5501 116.133 82.306 116.234 81.9023 116.234C81.375 116.234 81.1113 116.104 81.1113 115.844C81.1113 115.824 81.1178 115.795 81.1309 115.756L86.6777 102.914C86.7884 102.647 87.1595 102.514 87.791 102.514C88.3444 102.514 88.6829 102.65 88.8066 102.924L94.3926 115.58C94.4121 115.626 94.4219 115.668 94.4219 115.707C94.4219 116.059 94.0736 116.234 93.377 116.234ZM90.0273 110.668L87.4395 104.799L84.9102 110.668H90.0273ZM100.379 116.234C96.8958 116.234 95.1543 114.581 95.1543 111.273C95.1543 109.698 95.6589 108.464 96.668 107.572C97.6771 106.68 98.9466 106.234 100.477 106.234C101.44 106.234 102.407 106.482 103.377 106.977C104.354 107.471 104.933 108.23 105.115 109.252C105.128 109.33 105.135 109.382 105.135 109.408C105.135 109.766 104.806 109.945 104.148 109.945C103.536 109.945 103.208 109.779 103.162 109.447C102.96 108.028 102.062 107.318 100.467 107.318C99.36 107.318 98.5267 107.732 97.9668 108.559C97.4069 109.379 97.127 110.29 97.127 111.293C97.1335 112.27 97.4069 113.158 97.9473 113.959C98.4876 114.753 99.3112 115.15 100.418 115.15C101.993 115.15 102.915 114.438 103.182 113.012C103.234 112.686 103.562 112.523 104.168 112.523C104.832 112.523 105.164 112.702 105.164 113.061C105.164 113.035 105.151 113.1 105.125 113.256C104.891 114.265 104.282 115.014 103.299 115.502C102.316 115.99 101.342 116.234 100.379 116.234ZM111.355 116.234C107.872 116.234 106.131 114.581 106.131 111.273C106.131 109.698 106.635 108.464 107.645 107.572C108.654 106.68 109.923 106.234 111.453 106.234C112.417 106.234 113.383 106.482 114.354 106.977C115.33 107.471 115.91 108.23 116.092 109.252C116.105 109.33 116.111 109.382 116.111 109.408C116.111 109.766 115.783 109.945 115.125 109.945C114.513 109.945 114.184 109.779 114.139 109.447C113.937 108.028 113.038 107.318 111.443 107.318C110.337 107.318 109.503 107.732 108.943 108.559C108.383 109.379 108.104 110.29 108.104 111.293C108.11 112.27 108.383 113.158 108.924 113.959C109.464 114.753 110.288 115.15 111.395 115.15C112.97 115.15 113.891 114.438 114.158 113.012C114.21 112.686 114.539 112.523 115.145 112.523C115.809 112.523 116.141 112.702 116.141 113.061C116.141 113.035 116.128 113.1 116.102 113.256C115.867 114.265 115.258 115.014 114.275 115.502C113.292 115.99 112.319 116.234 111.355 116.234ZM122.381 116.234C120.903 116.234 119.656 115.795 118.641 114.916C117.625 114.031 117.117 112.823 117.117 111.293C117.117 109.737 117.632 108.507 118.66 107.602C119.695 106.69 120.965 106.234 122.469 106.234C123.901 106.234 125.135 106.612 126.17 107.367C127.205 108.116 127.723 109.239 127.723 110.736C127.723 111.153 127.394 111.361 126.736 111.361H119.09C119.103 112.325 119.396 113.197 119.969 113.979C120.542 114.76 121.349 115.15 122.391 115.15C123.139 115.15 123.833 114.949 124.471 114.545C125.141 114.115 125.506 113.607 125.564 113.021C125.597 112.683 125.919 112.514 126.531 112.514C127.202 112.514 127.537 112.693 127.537 113.051C127.537 113.233 127.482 113.454 127.371 113.715C127.13 114.288 126.671 114.796 125.994 115.238C124.979 115.902 123.774 116.234 122.381 116.234ZM125.721 110.277C125.512 108.305 124.428 107.318 122.469 107.318C120.724 107.318 119.637 108.305 119.207 110.277H125.721ZM133.123 116.234C132.16 116.234 131.258 116.023 130.418 115.6C129.585 115.17 129.025 114.473 128.738 113.51C128.712 113.432 128.699 113.373 128.699 113.334C128.699 112.976 129.028 112.797 129.686 112.797C130.265 112.797 130.594 112.95 130.672 113.256C131.01 114.519 131.824 115.15 133.113 115.15C133.654 115.15 134.181 114.988 134.695 114.662C135.216 114.33 135.477 113.858 135.477 113.246C135.477 112.862 135.193 112.546 134.627 112.299C134.243 112.13 133.738 112.003 133.113 111.918C132.592 111.846 132.081 111.765 131.58 111.674C131.085 111.583 130.613 111.387 130.164 111.088C129.35 110.548 128.943 109.851 128.943 108.998C128.943 107.995 129.435 107.286 130.418 106.869C131.408 106.446 132.316 106.234 133.143 106.234C133.989 106.234 134.809 106.423 135.604 106.801C136.404 107.178 136.922 107.8 137.156 108.666C137.176 108.725 137.186 108.78 137.186 108.832C137.186 109.164 136.857 109.34 136.199 109.359C135.62 109.359 135.291 109.203 135.213 108.891C134.959 107.842 134.266 107.318 133.133 107.318C132.645 107.318 132.153 107.455 131.658 107.729C131.163 107.995 130.916 108.412 130.916 108.979C130.916 109.356 131.229 109.669 131.854 109.916C132.277 110.079 132.781 110.206 133.367 110.297C133.888 110.375 134.386 110.463 134.861 110.561C135.337 110.652 135.799 110.84 136.248 111.127C137.049 111.635 137.449 112.322 137.449 113.188C137.449 114.268 136.951 115.046 135.955 115.521C134.959 115.997 134.015 116.234 133.123 116.234ZM142.85 116.234C141.886 116.234 140.984 116.023 140.145 115.6C139.311 115.17 138.751 114.473 138.465 113.51C138.439 113.432 138.426 113.373 138.426 113.334C138.426 112.976 138.755 112.797 139.412 112.797C139.992 112.797 140.32 112.95 140.398 113.256C140.737 114.519 141.551 115.15 142.84 115.15C143.38 115.15 143.908 114.988 144.422 114.662C144.943 114.33 145.203 113.858 145.203 113.246C145.203 112.862 144.92 112.546 144.354 112.299C143.969 112.13 143.465 112.003 142.84 111.918C142.319 111.846 141.808 111.765 141.307 111.674C140.812 111.583 140.34 111.387 139.891 111.088C139.077 110.548 138.67 109.851 138.67 108.998C138.67 107.995 139.161 107.286 140.145 106.869C141.134 106.446 142.042 106.234 142.869 106.234C143.715 106.234 144.536 106.423 145.33 106.801C146.131 107.178 146.648 107.8 146.883 108.666C146.902 108.725 146.912 108.78 146.912 108.832C146.912 109.164 146.583 109.34 145.926 109.359C145.346 109.359 145.018 109.203 144.939 108.891C144.686 107.842 143.992 107.318 142.859 107.318C142.371 107.318 141.88 107.455 141.385 107.729C140.89 107.995 140.643 108.412 140.643 108.979C140.643 109.356 140.955 109.669 141.58 109.916C142.003 110.079 142.508 110.206 143.094 110.297C143.615 110.375 144.113 110.463 144.588 110.561C145.063 110.652 145.525 110.84 145.975 111.127C146.775 111.635 147.176 112.322 147.176 113.188C147.176 114.268 146.678 115.046 145.682 115.521C144.686 115.997 143.742 116.234 142.85 116.234ZM149.402 105.375C148.732 105.375 148.396 105.043 148.396 104.379C148.396 103.708 148.732 103.373 149.402 103.373C150.066 103.373 150.398 103.708 150.398 104.379C150.398 105.043 150.066 105.375 149.402 105.375ZM149.402 116.234C148.738 116.234 148.406 116.052 148.406 115.688V106.781C148.406 106.417 148.738 106.234 149.402 106.234C150.06 106.234 150.389 106.417 150.389 106.781V115.688C150.389 116.052 150.06 116.234 149.402 116.234ZM153.113 116.234C152.449 116.234 152.117 116.052 152.117 115.688V103.061C152.117 102.696 152.449 102.514 153.113 102.514C153.771 102.514 154.1 102.696 154.1 103.061V107.357C154.855 106.602 155.861 106.225 157.117 106.225C160.451 106.225 162.117 107.891 162.117 111.225C162.117 114.558 160.451 116.225 157.117 116.225C155.854 116.225 154.848 115.847 154.1 115.092V115.688C154.1 116.052 153.771 116.234 153.113 116.234ZM157.117 115.131C158.146 115.131 158.904 114.698 159.393 113.832C159.887 112.966 160.135 112.097 160.135 111.225C160.135 110.352 159.887 109.483 159.393 108.617C158.904 107.751 158.146 107.318 157.117 107.318C156.095 107.318 155.337 107.751 154.842 108.617C154.347 109.483 154.1 110.352 154.1 111.225C154.1 112.097 154.347 112.966 154.842 113.832C155.337 114.698 156.095 115.131 157.117 115.131ZM164.344 105.375C163.673 105.375 163.338 105.043 163.338 104.379C163.338 103.708 163.673 103.373 164.344 103.373C165.008 103.373 165.34 103.708 165.34 104.379C165.34 105.043 165.008 105.375 164.344 105.375ZM164.344 116.234C163.68 116.234 163.348 116.052 163.348 115.688V106.781C163.348 106.417 163.68 106.234 164.344 106.234C165.001 106.234 165.33 106.417 165.33 106.781V115.688C165.33 116.052 165.001 116.234 164.344 116.234ZM168.592 116.234C167.928 116.234 167.596 116.052 167.596 115.688V103.061C167.596 102.696 167.928 102.514 168.592 102.514C169.249 102.514 169.578 102.696 169.578 103.061V115.688C169.578 116.052 169.249 116.234 168.592 116.234ZM172.84 105.375C172.169 105.375 171.834 105.043 171.834 104.379C171.834 103.708 172.169 103.373 172.84 103.373C173.504 103.373 173.836 103.708 173.836 104.379C173.836 105.043 173.504 105.375 172.84 105.375ZM172.84 116.234C172.176 116.234 171.844 116.052 171.844 115.688V106.781C171.844 106.417 172.176 106.234 172.84 106.234C173.497 106.234 173.826 106.417 173.826 106.781V115.688C173.826 116.052 173.497 116.234 172.84 116.234ZM180.184 116.234C177.99 116.221 176.893 115.323 176.893 113.539V107.328H175.799C175.141 107.328 174.812 107.146 174.812 106.781C174.812 106.417 175.141 106.234 175.799 106.234H176.893V103.061C176.893 102.696 177.225 102.514 177.889 102.514C178.553 102.514 178.885 102.696 178.885 103.061V106.234H180.525C181.189 106.234 181.521 106.417 181.521 106.781C181.521 107.146 181.189 107.328 180.525 107.328H178.885V113.539C178.885 114.607 179.321 115.141 180.193 115.141C180.376 115.141 180.548 115.124 180.711 115.092C180.88 115.053 181.049 115.033 181.219 115.033C181.902 115.033 182.244 115.222 182.244 115.6C182.244 115.854 181.971 116.029 181.424 116.127C180.994 116.199 180.581 116.234 180.184 116.234ZM192.84 115.678C192.84 117.149 192.361 118.22 191.404 118.891C190.454 119.568 189.301 119.906 187.947 119.906C187.166 119.906 186.349 119.773 185.496 119.506C184.65 119.239 183.995 118.773 183.533 118.109C183.488 118.044 183.465 117.979 183.465 117.914C183.465 117.556 183.794 117.377 184.451 117.377C184.913 117.377 185.223 117.491 185.379 117.719C185.88 118.448 186.73 118.812 187.928 118.812C189.881 118.812 190.857 117.732 190.857 115.57V115.043C190.219 115.805 189.318 116.186 188.152 116.186C185.027 116.186 183.465 114.721 183.465 111.791V106.732C183.465 106.368 183.797 106.186 184.461 106.186C185.118 106.186 185.447 106.368 185.447 106.732V111.791C185.447 112.579 185.672 113.327 186.121 114.037C186.57 114.747 187.247 115.102 188.152 115.102C189.025 115.102 189.692 114.747 190.154 114.037C190.623 113.327 190.857 112.589 190.857 111.82V106.732C190.857 106.368 191.186 106.186 191.844 106.186C192.508 106.186 192.84 106.368 192.84 106.732V115.678Z" fill="#191919"/>
<defs>
<clipPath id="clip0_1938_6721">
<rect width="32" height="32" fill="white" transform="translate(42 24)"/>
</clipPath>
</defs>
</svg>
