<svg width="60" height="70" viewBox="0 0 88 100" fill="none" xmlns="http://www.w3.org/2000/svg">
<rect x="1.5" y="1.5" width="85" height="97" rx="16.5" stroke="#9162FA" stroke-width="2"/>
<path d="M61.1087 48.4165L45.5842 32.8934C45.3715 32.6806 45.119 32.5118 44.8411 32.3966C44.5631 32.2814 44.2652 32.2222 43.9644 32.2222C43.6635 32.2222 43.3656 32.2814 43.0877 32.3966C42.8098 32.5118 42.5573 32.6806 42.3446 32.8934L39.1221 36.1174L43.2106 40.2059C43.6913 40.0427 44.2081 40.0172 44.7025 40.1323C45.1969 40.2475 45.6492 40.4987 46.0083 40.8575C46.3693 41.219 46.6214 41.6747 46.7356 42.1727C46.8498 42.6706 46.8216 43.1907 46.6541 43.6733L50.596 47.614C51.0788 47.4463 51.599 47.4181 52.0971 47.5325C52.5952 47.6469 53.051 47.8994 53.4122 48.261C53.6652 48.5139 53.8659 48.8143 54.0029 49.1448C54.1398 49.4754 54.2103 49.8296 54.2103 50.1874C54.2103 50.5452 54.1398 50.8995 54.0029 51.23C53.8659 51.5605 53.6652 51.8609 53.4122 52.1138C52.9007 52.6248 52.2072 52.9118 51.4842 52.9118C50.7612 52.9118 50.0677 52.6248 49.5562 52.1138C49.1762 51.7332 48.9173 51.2487 48.8121 50.7213C48.7069 50.1938 48.7601 49.6471 48.965 49.1498L45.2889 45.475V55.1475C45.6769 55.3391 46.0137 55.6205 46.2713 55.9682C46.5289 56.3159 46.7 56.72 46.7703 57.147C46.8407 57.574 46.8083 58.0116 46.6758 58.4236C46.5434 58.8356 46.3147 59.2101 46.0087 59.5161C45.7557 59.7691 45.4554 59.9698 45.1248 60.1068C44.7943 60.2437 44.44 60.3142 44.0822 60.3142C43.7244 60.3142 43.3702 60.2437 43.0396 60.1068C42.7091 59.9698 42.4087 59.7691 42.1558 59.5161C41.9027 59.2631 41.702 58.9628 41.565 58.6322C41.428 58.3016 41.3575 57.9473 41.3575 57.5895C41.3575 57.2317 41.428 56.8774 41.565 56.5468C41.702 56.2162 41.9027 55.9159 42.1558 55.6629C42.4107 55.4074 42.7137 55.205 43.0473 55.0674V45.3059C42.7151 45.169 42.4132 44.9679 42.1589 44.714C41.9046 44.4602 41.703 44.1585 41.5657 43.8265C41.4283 43.4945 41.3579 43.1386 41.3585 42.7793C41.3591 42.42 41.4307 42.0644 41.5692 41.7328L37.5379 37.7008L26.8921 48.3438C26.4631 48.7736 26.2222 49.3561 26.2222 49.9634C26.2222 50.5706 26.4631 51.1531 26.8921 51.5829L42.4174 67.108C42.8472 67.5369 43.4296 67.7777 44.0368 67.7777C44.6439 67.7777 45.2263 67.5369 45.6561 67.108L61.1087 51.6557C61.5377 51.2258 61.7786 50.6434 61.7786 50.0361C61.7786 49.4288 61.5377 48.8464 61.1087 48.4165Z" fill="#F03C2E"/>
</svg>
