<svg width="42" height="43" viewBox="0 0 42 43" fill="none" xmlns="http://www.w3.org/2000/svg">
<circle cx="21" cy="21.6659" r="20" stroke="#9162FA" stroke-width="2"/>
<path d="M20.0703 32.1688C20.0703 32.0222 20.038 31.8773 19.9758 31.7445C19.9135 31.6117 19.8228 31.4943 19.7101 31.4004C19.5974 31.3066 19.4655 31.2387 19.3236 31.2015C19.1817 31.1644 19.0334 31.1589 18.8892 31.1854C17.5801 31.4257 15.9273 31.4618 15.4878 30.2274C15.1046 29.2714 14.4699 28.437 13.6509 27.8124C13.5925 27.7806 13.5368 27.7441 13.4844 27.7031C13.4127 27.514 13.2854 27.3511 13.1193 27.2358C12.9531 27.1206 12.7559 27.0584 12.5537 27.0575H12.5488C12.2844 27.0574 12.0308 27.1621 11.8434 27.3486C11.6559 27.5351 11.55 27.7883 11.5488 28.0527C11.5449 28.8681 12.3598 29.3906 12.6904 29.5673C13.0803 29.959 13.3936 30.42 13.6143 30.9267C13.9785 31.9501 15.0371 33.5029 18.0801 33.3027C18.0811 33.3378 18.082 33.371 18.0825 33.4013L18.0869 33.6689C18.0869 33.9341 18.1923 34.1885 18.3798 34.376C18.5674 34.5635 18.8217 34.6689 19.0869 34.6689C19.3521 34.6689 19.6065 34.5635 19.794 34.376C19.9816 34.1885 20.0869 33.9341 20.0869 33.6689L20.082 33.3505C20.0772 33.161 20.0703 32.8866 20.0703 32.1688ZM30.7373 17.0428C30.7691 16.9178 30.8003 16.7792 30.8277 16.6229C30.9894 15.5085 30.8484 14.3711 30.4195 13.3299C30.3653 13.1942 30.2822 13.0719 30.1758 12.9717C30.0694 12.8715 29.9425 12.7958 29.8037 12.7498C29.4477 12.6297 28.1333 12.3934 25.6197 13.9998C23.5302 13.5081 21.3551 13.5081 19.2657 13.9998C16.7622 12.4169 15.4546 12.6317 15.1021 12.745C14.9599 12.7891 14.8295 12.8644 14.7202 12.9655C14.611 13.0665 14.5257 13.1907 14.4707 13.329C14.033 14.3902 13.8936 15.5508 14.0674 16.6854C14.0918 16.8134 14.1182 16.9315 14.1455 17.0399C13.3171 18.1434 12.8758 19.4893 12.8902 20.869C12.8875 21.1769 12.9016 21.4846 12.9326 21.7909C13.2666 26.3934 16.2666 27.7753 18.3569 28.2499C18.3135 28.3749 18.2739 28.5087 18.2388 28.6503C18.1761 28.9076 18.2181 29.1792 18.3554 29.4057C18.4927 29.6321 18.7142 29.7948 18.9714 29.8582C19.2285 29.9215 19.5002 29.8803 19.727 29.7436C19.9538 29.6068 20.1171 29.3858 20.1812 29.1288C20.2448 28.7956 20.4079 28.4895 20.6489 28.2509C20.7947 28.1233 20.9002 27.956 20.9527 27.7696C21.0052 27.5831 21.0023 27.3854 20.9445 27.2005C20.8866 27.0156 20.7763 26.8515 20.6269 26.7282C20.4775 26.6048 20.2955 26.5276 20.103 26.5058C16.6489 26.1112 15.1494 24.704 14.9238 21.6073C14.8989 21.362 14.8876 21.1156 14.8902 20.869C14.8741 19.8857 15.199 18.9271 15.8096 18.1562C15.8709 18.0758 15.9363 17.9985 16.0054 17.9247C16.1278 17.7877 16.2101 17.6196 16.2433 17.4389C16.2765 17.2582 16.2592 17.0718 16.1934 16.9003C16.1259 16.7198 16.074 16.5339 16.0381 16.3446C15.9566 15.8063 15.9834 15.2572 16.1167 14.7294C16.9858 14.9749 17.8038 15.3744 18.5317 15.9091C18.6521 15.9892 18.7883 16.0426 18.9311 16.0655C19.0739 16.0884 19.2199 16.0804 19.3594 16.0419C21.3805 15.4934 23.5113 15.4937 25.5322 16.0429C25.6724 16.0813 25.8192 16.0889 25.9626 16.0651C26.106 16.0414 26.2425 15.9868 26.3628 15.9052C27.0872 15.3683 27.9018 14.9652 28.768 14.7148C28.9008 15.2299 28.9305 15.7662 28.8554 16.2929C28.8192 16.5004 28.7626 16.7039 28.6865 16.9003C28.6207 17.0719 28.6034 17.2582 28.6366 17.4389C28.6697 17.6196 28.7521 17.7877 28.8745 17.9247C28.9516 18.0116 29.0288 18.1054 29.0981 18.1933C29.7044 18.9512 30.0238 19.8987 30 20.869C30.0018 21.1286 29.9893 21.3882 29.9624 21.6464C29.7422 24.702 28.2368 26.1102 24.7666 26.5057C24.5741 26.5277 24.392 26.6051 24.2427 26.7285C24.0933 26.852 23.983 27.0162 23.9253 27.2012C23.8675 27.3861 23.8647 27.5839 23.9172 27.7704C23.9698 27.957 24.0754 28.1242 24.2212 28.2518C24.4698 28.4969 24.6333 28.8152 24.6875 29.16C24.7551 29.4277 24.7861 29.7034 24.7798 29.9794V32.3134C24.77 32.9608 24.77 33.4462 24.77 33.6688C24.77 33.934 24.8754 34.1884 25.0629 34.3759C25.2504 34.5635 25.5048 34.6688 25.77 34.6688C26.0352 34.6688 26.2896 34.5635 26.4771 34.3759C26.6647 34.1884 26.77 33.934 26.77 33.6688C26.77 33.452 26.77 32.9765 26.7798 32.329V29.9794C26.7878 29.5372 26.7358 29.096 26.625 28.6679C26.5933 28.5273 26.5545 28.3885 26.5088 28.2519C28.03 27.9991 29.4123 27.2148 30.4094 26.0385C31.4065 24.8621 31.9539 23.3701 31.9541 21.828C31.987 21.5094 32.0024 21.1893 32 20.869C32.0222 19.4878 31.5773 18.1396 30.7373 17.0429L30.7373 17.0428Z" fill="#7F3BF3"/>
</svg>
