<svg width="528" height="233" viewBox="0 0 758 232" fill="none" xmlns="http://www.w3.org/2000/svg">
<path d="M59.88 117.12H28.44L23.4 132H1.92L32.4 47.76H56.16L86.64 132H64.92L59.88 117.12ZM54.6 101.28L44.16 70.44L33.84 101.28H54.6ZM91.8366 98.4C91.8366 91.52 93.1166 85.48 95.6766 80.28C98.3166 75.08 101.877 71.08 106.357 68.28C110.837 65.48 115.837 64.08 121.357 64.08C126.077 64.08 130.197 65.04 133.717 66.96C137.317 68.88 140.077 71.4 141.997 74.52V65.04H162.517V132H141.997V122.52C139.997 125.64 137.197 128.16 133.597 130.08C130.077 132 125.957 132.96 121.237 132.96C115.797 132.96 110.837 131.56 106.357 128.76C101.877 125.88 98.3166 121.84 95.6766 116.64C93.1166 111.36 91.8366 105.28 91.8366 98.4ZM141.997 98.52C141.997 93.4 140.557 89.36 137.677 86.4C134.877 83.44 131.437 81.96 127.357 81.96C123.277 81.96 119.797 83.44 116.917 86.4C114.117 89.28 112.717 93.28 112.717 98.4C112.717 103.52 114.117 107.6 116.917 110.64C119.797 113.6 123.277 115.08 127.357 115.08C131.437 115.08 134.877 113.6 137.677 110.64C140.557 107.68 141.997 103.64 141.997 98.52Z" fill="#D7DBE2"/>
<path d="M254 62.164V65.78H244.688V71.508H251.824V75.06H244.688V84.5H240.208V62.164H254ZM265.049 84.788C263.342 84.788 261.806 84.4147 260.441 83.668C259.075 82.9 257.998 81.8227 257.209 80.436C256.441 79.0493 256.057 77.4493 256.057 75.636C256.057 73.8227 256.451 72.2227 257.241 70.836C258.051 69.4493 259.15 68.3827 260.537 67.636C261.923 66.868 263.47 66.484 265.177 66.484C266.883 66.484 268.43 66.868 269.817 67.636C271.203 68.3827 272.291 69.4493 273.081 70.836C273.891 72.2227 274.297 73.8227 274.297 75.636C274.297 77.4493 273.881 79.0493 273.049 80.436C272.238 81.8227 271.129 82.9 269.721 83.668C268.334 84.4147 266.777 84.788 265.049 84.788ZM265.049 80.884C265.859 80.884 266.617 80.692 267.321 80.308C268.046 79.9027 268.622 79.3053 269.049 78.516C269.475 77.7267 269.689 76.7667 269.689 75.636C269.689 73.9507 269.241 72.66 268.345 71.764C267.47 70.8467 266.393 70.388 265.113 70.388C263.833 70.388 262.755 70.8467 261.881 71.764C261.027 72.66 260.601 73.9507 260.601 75.636C260.601 77.3213 261.017 78.6227 261.849 79.54C262.702 80.436 263.769 80.884 265.049 80.884ZM287.407 66.516C289.519 66.516 291.226 67.188 292.527 68.532C293.828 69.8547 294.479 71.7107 294.479 74.1V84.5H289.999V74.708C289.999 73.3 289.647 72.2227 288.943 71.476C288.239 70.708 287.279 70.324 286.063 70.324C284.826 70.324 283.844 70.708 283.119 71.476C282.415 72.2227 282.063 73.3 282.063 74.708V84.5H277.583V66.772H282.063V68.98C282.66 68.212 283.418 67.6147 284.335 67.188C285.274 66.74 286.298 66.516 287.407 66.516ZM303.955 70.452V79.028C303.955 79.6253 304.094 80.0627 304.371 80.34C304.67 80.596 305.161 80.724 305.843 80.724H307.923V84.5H305.107C301.331 84.5 299.443 82.6653 299.443 78.996V70.452H297.331V66.772H299.443V62.388H303.955V66.772H307.923V70.452H303.955Z" fill="white"/>
<path d="M251.464 110.788C251.464 111.636 251.264 112.436 250.864 113.188C250.464 113.94 249.824 114.556 248.944 115.036C248.064 115.5 246.936 115.732 245.56 115.732H242.536V122.5H239.8V105.82H245.56C246.84 105.82 247.92 106.044 248.8 106.492C249.696 106.924 250.36 107.516 250.792 108.268C251.24 109.02 251.464 109.86 251.464 110.788ZM245.56 113.5C246.6 113.5 247.376 113.268 247.888 112.804C248.4 112.324 248.656 111.652 248.656 110.788C248.656 108.964 247.624 108.052 245.56 108.052H242.536V113.5H245.56ZM259.329 122.716C258.081 122.716 256.953 122.436 255.945 121.876C254.937 121.3 254.145 120.5 253.569 119.476C252.993 118.436 252.705 117.236 252.705 115.876C252.705 114.532 253.001 113.34 253.593 112.3C254.185 111.26 254.993 110.46 256.017 109.9C257.041 109.34 258.185 109.06 259.449 109.06C260.713 109.06 261.857 109.34 262.881 109.9C263.905 110.46 264.713 111.26 265.305 112.3C265.897 113.34 266.193 114.532 266.193 115.876C266.193 117.22 265.889 118.412 265.281 119.452C264.673 120.492 263.841 121.3 262.785 121.876C261.745 122.436 260.593 122.716 259.329 122.716ZM259.329 120.34C260.033 120.34 260.689 120.172 261.297 119.836C261.921 119.5 262.425 118.996 262.809 118.324C263.193 117.652 263.385 116.836 263.385 115.876C263.385 114.916 263.201 114.108 262.833 113.452C262.465 112.78 261.977 112.276 261.369 111.94C260.761 111.604 260.105 111.436 259.401 111.436C258.697 111.436 258.041 111.604 257.433 111.94C256.841 112.276 256.369 112.78 256.017 113.452C255.665 114.108 255.489 114.916 255.489 115.876C255.489 117.3 255.849 118.404 256.569 119.188C257.305 119.956 258.225 120.34 259.329 120.34ZM271.154 111.22C271.618 110.612 272.25 110.1 273.05 109.684C273.85 109.268 274.754 109.06 275.762 109.06C276.914 109.06 277.962 109.348 278.906 109.924C279.866 110.484 280.618 111.276 281.162 112.3C281.706 113.324 281.978 114.5 281.978 115.828C281.978 117.156 281.706 118.348 281.162 119.404C280.618 120.444 279.866 121.26 278.906 121.852C277.962 122.428 276.914 122.716 275.762 122.716C274.754 122.716 273.858 122.516 273.074 122.116C272.29 121.7 271.65 121.188 271.154 120.58V128.788H268.418V109.276H271.154V111.22ZM279.194 115.828C279.194 114.916 279.002 114.132 278.618 113.476C278.25 112.804 277.754 112.3 277.13 111.964C276.522 111.612 275.866 111.436 275.162 111.436C274.474 111.436 273.818 111.612 273.194 111.964C272.586 112.316 272.09 112.828 271.706 113.5C271.338 114.172 271.154 114.964 271.154 115.876C271.154 116.788 271.338 117.588 271.706 118.276C272.09 118.948 272.586 119.46 273.194 119.812C273.818 120.164 274.474 120.34 275.162 120.34C275.866 120.34 276.522 120.164 277.13 119.812C277.754 119.444 278.25 118.916 278.618 118.228C279.002 117.54 279.194 116.74 279.194 115.828ZM286.94 111.22C287.404 110.612 288.036 110.1 288.836 109.684C289.636 109.268 290.54 109.06 291.548 109.06C292.7 109.06 293.748 109.348 294.692 109.924C295.652 110.484 296.404 111.276 296.948 112.3C297.492 113.324 297.764 114.5 297.764 115.828C297.764 117.156 297.492 118.348 296.948 119.404C296.404 120.444 295.652 121.26 294.692 121.852C293.748 122.428 292.7 122.716 291.548 122.716C290.54 122.716 289.644 122.516 288.86 122.116C288.076 121.7 287.436 121.188 286.94 120.58V128.788H284.204V109.276H286.94V111.22ZM294.98 115.828C294.98 114.916 294.788 114.132 294.404 113.476C294.036 112.804 293.54 112.3 292.916 111.964C292.308 111.612 291.652 111.436 290.948 111.436C290.26 111.436 289.604 111.612 288.98 111.964C288.372 112.316 287.876 112.828 287.492 113.5C287.124 114.172 286.94 114.964 286.94 115.876C286.94 116.788 287.124 117.588 287.492 118.276C287.876 118.948 288.372 119.46 288.98 119.812C289.604 120.164 290.26 120.34 290.948 120.34C291.652 120.34 292.308 120.164 292.916 119.812C293.54 119.444 294.036 118.916 294.404 118.228C294.788 117.54 294.98 116.74 294.98 115.828ZM301.381 107.524C300.885 107.524 300.469 107.356 300.133 107.02C299.797 106.684 299.629 106.268 299.629 105.772C299.629 105.276 299.797 104.86 300.133 104.524C300.469 104.188 300.885 104.02 301.381 104.02C301.861 104.02 302.269 104.188 302.605 104.524C302.941 104.86 303.109 105.276 303.109 105.772C303.109 106.268 302.941 106.684 302.605 107.02C302.269 107.356 301.861 107.524 301.381 107.524ZM302.725 109.276V122.5H299.989V109.276H302.725ZM312.509 109.06C313.549 109.06 314.477 109.276 315.293 109.708C316.125 110.14 316.773 110.78 317.237 111.628C317.701 112.476 317.933 113.5 317.933 114.7V122.5H315.221V115.108C315.221 113.924 314.925 113.02 314.333 112.396C313.741 111.756 312.933 111.436 311.909 111.436C310.885 111.436 310.069 111.756 309.461 112.396C308.869 113.02 308.573 113.924 308.573 115.108V122.5H305.837V109.276H308.573V110.788C309.021 110.244 309.589 109.82 310.277 109.516C310.981 109.212 311.725 109.06 312.509 109.06ZM325.743 122.716C324.703 122.716 323.767 122.532 322.935 122.164C322.119 121.78 321.471 121.268 320.991 120.628C320.511 119.972 320.255 119.244 320.223 118.444H323.055C323.103 119.004 323.367 119.476 323.847 119.86C324.343 120.228 324.959 120.412 325.695 120.412C326.463 120.412 327.055 120.268 327.471 119.98C327.903 119.676 328.119 119.292 328.119 118.828C328.119 118.332 327.879 117.964 327.399 117.724C326.935 117.484 326.191 117.22 325.167 116.932C324.175 116.66 323.367 116.396 322.743 116.14C322.119 115.884 321.575 115.492 321.111 114.964C320.663 114.436 320.439 113.74 320.439 112.876C320.439 112.172 320.647 111.532 321.063 110.956C321.479 110.364 322.071 109.9 322.839 109.564C323.623 109.228 324.519 109.06 325.527 109.06C327.031 109.06 328.239 109.444 329.151 110.212C330.079 110.964 330.575 111.996 330.639 113.308H327.903C327.855 112.716 327.615 112.244 327.183 111.892C326.751 111.54 326.167 111.364 325.431 111.364C324.711 111.364 324.159 111.5 323.775 111.772C323.391 112.044 323.199 112.404 323.199 112.852C323.199 113.204 323.327 113.5 323.583 113.74C323.839 113.98 324.151 114.172 324.519 114.316C324.887 114.444 325.431 114.612 326.151 114.82C327.111 115.076 327.895 115.34 328.503 115.612C329.127 115.868 329.663 116.252 330.111 116.764C330.559 117.276 330.791 117.956 330.807 118.804C330.807 119.556 330.599 120.228 330.183 120.82C329.767 121.412 329.175 121.876 328.407 122.212C327.655 122.548 326.767 122.716 325.743 122.716Z" fill="#E4E7EC"/>
<rect y="166" width="158" height="66" rx="12" fill="#1E1E1E"/>
<rect x="20" y="174" width="46" height="50" rx="10" fill="#383838"/>
<path d="M31.5256 208H27.571L33.5966 190.545H38.3523L44.3693 208H40.4148L36.0426 194.534H35.9062L31.5256 208ZM31.2784 201.139H40.6193V204.02H31.2784V201.139ZM49.6549 208.247C48.8197 208.247 48.0754 208.102 47.422 207.812C46.7686 207.517 46.2515 207.082 45.8709 206.509C45.4959 205.929 45.3084 205.207 45.3084 204.344C45.3084 203.616 45.4419 203.006 45.7089 202.511C45.976 202.017 46.3396 201.619 46.7998 201.318C47.2601 201.017 47.7828 200.79 48.368 200.636C48.9589 200.483 49.5782 200.375 50.226 200.312C50.9873 200.233 51.601 200.159 52.0669 200.091C52.5328 200.017 52.8709 199.909 53.0811 199.767C53.2913 199.625 53.3964 199.415 53.3964 199.136V199.085C53.3964 198.545 53.226 198.128 52.8851 197.832C52.5498 197.537 52.0726 197.389 51.4532 197.389C50.7998 197.389 50.2799 197.534 49.8936 197.824C49.5072 198.108 49.2515 198.466 49.1265 198.898L45.7686 198.625C45.939 197.83 46.2743 197.142 46.7743 196.562C47.2743 195.977 47.9191 195.528 48.7089 195.216C49.5044 194.898 50.4248 194.739 51.4703 194.739C52.1976 194.739 52.8936 194.824 53.5584 194.994C54.2288 195.165 54.8226 195.429 55.3396 195.787C55.8623 196.145 56.2743 196.605 56.5754 197.168C56.8765 197.724 57.0271 198.392 57.0271 199.17V208H53.5839V206.185H53.4816C53.2714 206.594 52.9902 206.955 52.6379 207.267C52.2856 207.574 51.8623 207.815 51.368 207.991C50.8737 208.162 50.3027 208.247 49.6549 208.247ZM50.6947 205.741C51.2288 205.741 51.7004 205.636 52.1095 205.426C52.5186 205.21 52.8396 204.92 53.0726 204.557C53.3055 204.193 53.422 203.781 53.422 203.321V201.932C53.3084 202.006 53.1521 202.074 52.9532 202.136C52.7601 202.193 52.5413 202.247 52.297 202.298C52.0527 202.344 51.8084 202.386 51.564 202.426C51.3197 202.46 51.0981 202.491 50.8993 202.52C50.4731 202.582 50.101 202.682 49.7828 202.818C49.4646 202.955 49.2174 203.139 49.0413 203.372C48.8652 203.599 48.7771 203.884 48.7771 204.224C48.7771 204.719 48.9561 205.097 49.314 205.358C49.6777 205.614 50.1379 205.741 50.6947 205.741Z" fill="#F2F3F5"/>
<path d="M78.1477 194V182.364H82.5114C83.4053 182.364 84.1553 182.53 84.7614 182.864C85.3712 183.197 85.8314 183.655 86.142 184.239C86.4564 184.818 86.6136 185.477 86.6136 186.216C86.6136 186.962 86.4564 187.625 86.142 188.205C85.8277 188.784 85.3636 189.241 84.75 189.574C84.1364 189.903 83.3807 190.068 82.483 190.068H79.5909V188.335H82.1989C82.7216 188.335 83.1496 188.244 83.483 188.062C83.8163 187.881 84.0625 187.631 84.2216 187.312C84.3845 186.994 84.4659 186.629 84.4659 186.216C84.4659 185.803 84.3845 185.439 84.2216 185.125C84.0625 184.811 83.8144 184.566 83.4773 184.392C83.1439 184.214 82.714 184.125 82.1875 184.125H80.2557V194H78.1477ZM91.7155 194.17C90.8632 194.17 90.1246 193.983 89.4996 193.608C88.8746 193.233 88.3898 192.708 88.0451 192.034C87.7041 191.36 87.5337 190.572 87.5337 189.67C87.5337 188.769 87.7041 187.979 88.0451 187.301C88.3898 186.623 88.8746 186.097 89.4996 185.722C90.1246 185.347 90.8632 185.159 91.7155 185.159C92.5678 185.159 93.3064 185.347 93.9314 185.722C94.5564 186.097 95.0394 186.623 95.3803 187.301C95.725 187.979 95.8973 188.769 95.8973 189.67C95.8973 190.572 95.725 191.36 95.3803 192.034C95.0394 192.708 94.5564 193.233 93.9314 193.608C93.3064 193.983 92.5678 194.17 91.7155 194.17ZM91.7269 192.523C92.189 192.523 92.5754 192.396 92.886 192.142C93.1966 191.884 93.4276 191.54 93.5791 191.108C93.7345 190.676 93.8121 190.195 93.8121 189.665C93.8121 189.131 93.7345 188.648 93.5791 188.216C93.4276 187.78 93.1966 187.434 92.886 187.176C92.5754 186.919 92.189 186.79 91.7269 186.79C91.2534 186.79 90.8595 186.919 90.5451 187.176C90.2345 187.434 90.0015 187.78 89.8462 188.216C89.6947 188.648 89.6189 189.131 89.6189 189.665C89.6189 190.195 89.6947 190.676 89.8462 191.108C90.0015 191.54 90.2345 191.884 90.5451 192.142C90.8595 192.396 91.2534 192.523 91.7269 192.523ZM97.3231 197.273V185.273H99.3458V186.716H99.4651C99.5712 186.504 99.7208 186.278 99.914 186.04C100.107 185.797 100.369 185.591 100.698 185.42C101.028 185.246 101.448 185.159 101.959 185.159C102.634 185.159 103.242 185.331 103.783 185.676C104.329 186.017 104.761 186.523 105.079 187.193C105.401 187.86 105.562 188.678 105.562 189.648C105.562 190.606 105.405 191.42 105.09 192.091C104.776 192.761 104.348 193.273 103.806 193.625C103.264 193.977 102.651 194.153 101.965 194.153C101.465 194.153 101.05 194.07 100.721 193.903C100.391 193.737 100.126 193.536 99.9253 193.301C99.7284 193.062 99.575 192.837 99.4651 192.625H99.3799V197.273H97.3231ZM99.3401 189.636C99.3401 190.201 99.4197 190.695 99.5788 191.119C99.7416 191.544 99.9746 191.875 100.278 192.114C100.584 192.348 100.956 192.466 101.391 192.466C101.846 192.466 102.226 192.345 102.533 192.102C102.84 191.856 103.071 191.521 103.226 191.097C103.386 190.669 103.465 190.182 103.465 189.636C103.465 189.095 103.387 188.614 103.232 188.193C103.077 187.773 102.846 187.443 102.539 187.205C102.232 186.966 101.85 186.847 101.391 186.847C100.952 186.847 100.579 186.962 100.272 187.193C99.9651 187.424 99.7322 187.748 99.5731 188.165C99.4178 188.581 99.3401 189.072 99.3401 189.636ZM107.003 197.273V185.273H109.026V186.716H109.145C109.251 186.504 109.401 186.278 109.594 186.04C109.787 185.797 110.049 185.591 110.378 185.42C110.708 185.246 111.128 185.159 111.639 185.159C112.314 185.159 112.922 185.331 113.463 185.676C114.009 186.017 114.441 186.523 114.759 187.193C115.081 187.86 115.242 188.678 115.242 189.648C115.242 190.606 115.085 191.42 114.77 192.091C114.456 192.761 114.028 193.273 113.486 193.625C112.944 193.977 112.331 194.153 111.645 194.153C111.145 194.153 110.73 194.07 110.401 193.903C110.071 193.737 109.806 193.536 109.605 193.301C109.408 193.062 109.255 192.837 109.145 192.625H109.06V197.273H107.003ZM109.02 189.636C109.02 190.201 109.1 190.695 109.259 191.119C109.422 191.544 109.655 191.875 109.958 192.114C110.264 192.348 110.636 192.466 111.071 192.466C111.526 192.466 111.906 192.345 112.213 192.102C112.52 191.856 112.751 191.521 112.906 191.097C113.066 190.669 113.145 190.182 113.145 189.636C113.145 189.095 113.067 188.614 112.912 188.193C112.757 187.773 112.526 187.443 112.219 187.205C111.912 186.966 111.53 186.847 111.071 186.847C110.632 186.847 110.259 186.962 109.952 187.193C109.645 187.424 109.412 187.748 109.253 188.165C109.098 188.581 109.02 189.072 109.02 189.636ZM116.683 194V185.273H118.74V194H116.683ZM117.717 184.034C117.391 184.034 117.111 183.926 116.876 183.71C116.641 183.491 116.524 183.227 116.524 182.92C116.524 182.61 116.641 182.347 116.876 182.131C117.111 181.911 117.391 181.801 117.717 181.801C118.047 181.801 118.327 181.911 118.558 182.131C118.793 182.347 118.91 182.61 118.91 182.92C118.91 183.227 118.793 183.491 118.558 183.71C118.327 183.926 118.047 184.034 117.717 184.034ZM122.592 188.886V194H120.535V185.273H122.501V186.756H122.603C122.804 186.267 123.124 185.879 123.563 185.591C124.007 185.303 124.554 185.159 125.205 185.159C125.808 185.159 126.332 185.288 126.779 185.545C127.23 185.803 127.579 186.176 127.825 186.665C128.075 187.153 128.198 187.746 128.194 188.443V194H126.137V188.761C126.137 188.178 125.986 187.722 125.683 187.392C125.383 187.062 124.969 186.898 124.438 186.898C124.079 186.898 123.758 186.977 123.478 187.136C123.202 187.292 122.984 187.517 122.825 187.812C122.669 188.108 122.592 188.466 122.592 188.886ZM136.863 187.58L134.988 187.784C134.935 187.595 134.842 187.417 134.709 187.25C134.58 187.083 134.406 186.949 134.187 186.847C133.967 186.744 133.698 186.693 133.38 186.693C132.952 186.693 132.592 186.786 132.3 186.972C132.012 187.157 131.87 187.398 131.874 187.693C131.87 187.947 131.963 188.153 132.152 188.312C132.346 188.472 132.664 188.602 133.107 188.705L134.596 189.023C135.421 189.201 136.035 189.483 136.437 189.869C136.842 190.256 137.046 190.761 137.05 191.386C137.046 191.936 136.885 192.42 136.567 192.841C136.253 193.258 135.815 193.583 135.255 193.818C134.694 194.053 134.05 194.17 133.323 194.17C132.255 194.17 131.395 193.947 130.743 193.5C130.092 193.049 129.704 192.422 129.579 191.619L131.584 191.426C131.675 191.82 131.868 192.117 132.164 192.318C132.459 192.519 132.844 192.619 133.317 192.619C133.806 192.619 134.198 192.519 134.493 192.318C134.793 192.117 134.942 191.869 134.942 191.574C134.942 191.324 134.846 191.117 134.652 190.955C134.463 190.792 134.168 190.667 133.766 190.58L132.277 190.267C131.44 190.093 130.821 189.799 130.419 189.386C130.018 188.97 129.819 188.443 129.823 187.807C129.819 187.269 129.965 186.803 130.26 186.409C130.56 186.011 130.974 185.705 131.505 185.489C132.039 185.269 132.654 185.159 133.351 185.159C134.374 185.159 135.179 185.377 135.766 185.812C136.357 186.248 136.723 186.837 136.863 187.58Z" fill="white"/>
<path d="M77.8608 217V208.273H81.2017C81.8324 208.273 82.3565 208.372 82.7741 208.571C83.1946 208.767 83.5085 209.036 83.7159 209.376C83.9261 209.717 84.0312 210.104 84.0312 210.536C84.0312 210.891 83.9631 211.195 83.8267 211.447C83.6903 211.697 83.5071 211.901 83.277 212.057C83.0469 212.213 82.7898 212.325 82.5057 212.393V212.479C82.8153 212.496 83.1122 212.591 83.3963 212.764C83.6832 212.935 83.9176 213.176 84.0994 213.489C84.2813 213.801 84.3722 214.179 84.3722 214.622C84.3722 215.074 84.2628 215.48 84.044 215.841C83.8253 216.199 83.4957 216.482 83.0554 216.689C82.6151 216.896 82.0611 217 81.3935 217H77.8608ZM79.4418 215.679H81.142C81.7159 215.679 82.1293 215.57 82.3821 215.351C82.6378 215.129 82.7656 214.845 82.7656 214.499C82.7656 214.24 82.7017 214.007 82.5739 213.8C82.446 213.589 82.2642 213.425 82.0284 213.305C81.7926 213.183 81.5114 213.122 81.1847 213.122H79.4418V215.679ZM79.4418 211.984H81.0057C81.2784 211.984 81.5241 211.935 81.7429 211.835C81.9616 211.733 82.1335 211.589 82.2585 211.405C82.3864 211.217 82.4503 210.996 82.4503 210.74C82.4503 210.402 82.331 210.124 82.0923 209.905C81.8565 209.686 81.5057 209.577 81.0398 209.577H79.4418V211.984ZM88.5344 217.128C87.8952 217.128 87.3413 216.987 86.8725 216.706C86.4038 216.425 86.0401 216.031 85.7816 215.526C85.5259 215.02 85.3981 214.429 85.3981 213.753C85.3981 213.077 85.5259 212.484 85.7816 211.976C86.0401 211.467 86.4038 211.072 86.8725 210.791C87.3413 210.51 87.8952 210.369 88.5344 210.369C89.1737 210.369 89.7276 210.51 90.1964 210.791C90.6651 211.072 91.0273 211.467 91.283 211.976C91.5415 212.484 91.6708 213.077 91.6708 213.753C91.6708 214.429 91.5415 215.02 91.283 215.526C91.0273 216.031 90.6651 216.425 90.1964 216.706C89.7276 216.987 89.1737 217.128 88.5344 217.128ZM88.543 215.892C88.8896 215.892 89.1793 215.797 89.4123 215.607C89.6452 215.413 89.8185 215.155 89.9322 214.831C90.0487 214.507 90.1069 214.146 90.1069 213.749C90.1069 213.348 90.0487 212.986 89.9322 212.662C89.8185 212.335 89.6452 212.075 89.4123 211.882C89.1793 211.689 88.8896 211.592 88.543 211.592C88.1879 211.592 87.8924 211.689 87.6566 211.882C87.4237 212.075 87.2489 212.335 87.1325 212.662C87.0188 212.986 86.962 213.348 86.962 213.749C86.962 214.146 87.0188 214.507 87.1325 214.831C87.2489 215.155 87.4237 215.413 87.6566 215.607C87.8924 215.797 88.1879 215.892 88.543 215.892ZM94.5227 208.273V217H92.9801V208.273H94.5227ZM98.538 217.115C98.0238 217.115 97.5636 216.983 97.1573 216.719C96.7511 216.455 96.43 216.071 96.1942 215.568C95.9585 215.065 95.8406 214.455 95.8406 213.736C95.8406 213.009 95.9599 212.395 96.1985 211.895C96.44 211.392 96.7653 211.013 97.1744 210.757C97.5835 210.499 98.0394 210.369 98.5423 210.369C98.9258 210.369 99.2411 210.435 99.4883 210.565C99.7354 210.693 99.9315 210.848 100.076 211.03C100.221 211.209 100.333 211.378 100.413 211.537H100.477V208.273H102.024V217H100.507V215.969H100.413C100.333 216.128 100.218 216.297 100.068 216.476C99.9173 216.652 99.7184 216.803 99.4712 216.928C99.2241 217.053 98.913 217.115 98.538 217.115ZM98.9684 215.849C99.2951 215.849 99.5735 215.761 99.8036 215.585C100.034 215.406 100.208 215.158 100.328 214.839C100.447 214.521 100.507 214.151 100.507 213.727C100.507 213.304 100.447 212.936 100.328 212.624C100.211 212.311 100.038 212.068 99.8079 211.895C99.5806 211.722 99.3008 211.635 98.9684 211.635C98.6246 211.635 98.3377 211.724 98.1076 211.903C97.8775 212.082 97.7042 212.33 97.5877 212.645C97.4712 212.96 97.413 213.321 97.413 213.727C97.413 214.136 97.4712 214.501 97.5877 214.822C97.707 215.141 97.8817 215.392 98.1119 215.577C98.3448 215.759 98.6303 215.849 98.9684 215.849Z" fill="#CACFD8"/>
<rect x="172" y="166" width="157" height="66" rx="12" fill="#1E1E1E"/>
<rect x="192" y="174" width="45" height="50" rx="10" fill="#383838"/>
<path d="M202.963 208H199.588L205.733 190.545H209.636L215.79 208H212.415L207.753 194.125H207.616L202.963 208ZM203.074 201.156H212.278V203.696H203.074V201.156ZM221.239 208.264C220.41 208.264 219.663 208.116 218.998 207.821C218.339 207.52 217.816 207.077 217.43 206.491C217.049 205.906 216.859 205.185 216.859 204.327C216.859 203.588 216.995 202.977 217.268 202.494C217.541 202.011 217.913 201.625 218.384 201.335C218.856 201.045 219.387 200.827 219.978 200.679C220.575 200.526 221.191 200.415 221.828 200.347C222.595 200.267 223.217 200.196 223.694 200.134C224.171 200.065 224.518 199.963 224.734 199.827C224.955 199.685 225.066 199.466 225.066 199.17V199.119C225.066 198.477 224.876 197.98 224.495 197.628C224.114 197.276 223.566 197.099 222.85 197.099C222.095 197.099 221.495 197.264 221.052 197.594C220.614 197.923 220.319 198.312 220.166 198.761L217.285 198.352C217.512 197.557 217.887 196.892 218.41 196.358C218.933 195.818 219.572 195.415 220.328 195.148C221.083 194.875 221.918 194.739 222.833 194.739C223.464 194.739 224.092 194.812 224.717 194.96C225.342 195.108 225.913 195.352 226.43 195.693C226.947 196.028 227.362 196.486 227.674 197.065C227.992 197.645 228.151 198.369 228.151 199.239V208H225.185V206.202H225.083C224.896 206.565 224.632 206.906 224.291 207.224C223.955 207.537 223.532 207.79 223.021 207.983C222.515 208.17 221.921 208.264 221.239 208.264ZM222.041 205.997C222.66 205.997 223.197 205.875 223.651 205.631C224.106 205.381 224.455 205.051 224.7 204.642C224.95 204.233 225.075 203.787 225.075 203.304V201.761C224.978 201.841 224.813 201.915 224.58 201.983C224.353 202.051 224.097 202.111 223.813 202.162C223.529 202.213 223.248 202.259 222.97 202.298C222.691 202.338 222.45 202.372 222.245 202.401C221.785 202.463 221.373 202.565 221.009 202.707C220.646 202.849 220.359 203.048 220.149 203.304C219.938 203.554 219.833 203.878 219.833 204.276C219.833 204.844 220.041 205.273 220.455 205.562C220.87 205.852 221.399 205.997 222.041 205.997Z" fill="#F2F3F5"/>
<path d="M249.148 194V182.364H253.511C254.405 182.364 255.155 182.53 255.761 182.864C256.371 183.197 256.831 183.655 257.142 184.239C257.456 184.818 257.614 185.477 257.614 186.216C257.614 186.962 257.456 187.625 257.142 188.205C256.828 188.784 256.364 189.241 255.75 189.574C255.136 189.903 254.381 190.068 253.483 190.068H250.591V188.335H253.199C253.722 188.335 254.15 188.244 254.483 188.062C254.816 187.881 255.063 187.631 255.222 187.312C255.384 186.994 255.466 186.629 255.466 186.216C255.466 185.803 255.384 185.439 255.222 185.125C255.063 184.811 254.814 184.566 254.477 184.392C254.144 184.214 253.714 184.125 253.188 184.125H251.256V194H249.148ZM262.716 194.17C261.863 194.17 261.125 193.983 260.5 193.608C259.875 193.233 259.39 192.708 259.045 192.034C258.704 191.36 258.534 190.572 258.534 189.67C258.534 188.769 258.704 187.979 259.045 187.301C259.39 186.623 259.875 186.097 260.5 185.722C261.125 185.347 261.863 185.159 262.716 185.159C263.568 185.159 264.306 185.347 264.931 185.722C265.556 186.097 266.039 186.623 266.38 187.301C266.725 187.979 266.897 188.769 266.897 189.67C266.897 190.572 266.725 191.36 266.38 192.034C266.039 192.708 265.556 193.233 264.931 193.608C264.306 193.983 263.568 194.17 262.716 194.17ZM262.727 192.523C263.189 192.523 263.575 192.396 263.886 192.142C264.197 191.884 264.428 191.54 264.579 191.108C264.734 190.676 264.812 190.195 264.812 189.665C264.812 189.131 264.734 188.648 264.579 188.216C264.428 187.78 264.197 187.434 263.886 187.176C263.575 186.919 263.189 186.79 262.727 186.79C262.253 186.79 261.859 186.919 261.545 187.176C261.234 187.434 261.001 187.78 260.846 188.216C260.695 188.648 260.619 189.131 260.619 189.665C260.619 190.195 260.695 190.676 260.846 191.108C261.001 191.54 261.234 191.884 261.545 192.142C261.859 192.396 262.253 192.523 262.727 192.523ZM268.323 197.273V185.273H270.346V186.716H270.465C270.571 186.504 270.721 186.278 270.914 186.04C271.107 185.797 271.369 185.591 271.698 185.42C272.028 185.246 272.448 185.159 272.959 185.159C273.634 185.159 274.242 185.331 274.783 185.676C275.329 186.017 275.761 186.523 276.079 187.193C276.401 187.86 276.562 188.678 276.562 189.648C276.562 190.606 276.405 191.42 276.09 192.091C275.776 192.761 275.348 193.273 274.806 193.625C274.264 193.977 273.651 194.153 272.965 194.153C272.465 194.153 272.05 194.07 271.721 193.903C271.391 193.737 271.126 193.536 270.925 193.301C270.728 193.062 270.575 192.837 270.465 192.625H270.38V197.273H268.323ZM270.34 189.636C270.34 190.201 270.42 190.695 270.579 191.119C270.742 191.544 270.975 191.875 271.278 192.114C271.584 192.348 271.956 192.466 272.391 192.466C272.846 192.466 273.226 192.345 273.533 192.102C273.84 191.856 274.071 191.521 274.226 191.097C274.386 190.669 274.465 190.182 274.465 189.636C274.465 189.095 274.387 188.614 274.232 188.193C274.077 187.773 273.846 187.443 273.539 187.205C273.232 186.966 272.85 186.847 272.391 186.847C271.952 186.847 271.579 186.962 271.272 187.193C270.965 187.424 270.732 187.748 270.573 188.165C270.418 188.581 270.34 189.072 270.34 189.636ZM278.003 197.273V185.273H280.026V186.716H280.145C280.251 186.504 280.401 186.278 280.594 186.04C280.787 185.797 281.049 185.591 281.378 185.42C281.708 185.246 282.128 185.159 282.639 185.159C283.314 185.159 283.922 185.331 284.463 185.676C285.009 186.017 285.441 186.523 285.759 187.193C286.081 187.86 286.242 188.678 286.242 189.648C286.242 190.606 286.085 191.42 285.77 192.091C285.456 192.761 285.028 193.273 284.486 193.625C283.944 193.977 283.331 194.153 282.645 194.153C282.145 194.153 281.73 194.07 281.401 193.903C281.071 193.737 280.806 193.536 280.605 193.301C280.408 193.062 280.255 192.837 280.145 192.625H280.06V197.273H278.003ZM280.02 189.636C280.02 190.201 280.1 190.695 280.259 191.119C280.422 191.544 280.655 191.875 280.958 192.114C281.264 192.348 281.636 192.466 282.071 192.466C282.526 192.466 282.906 192.345 283.213 192.102C283.52 191.856 283.751 191.521 283.906 191.097C284.066 190.669 284.145 190.182 284.145 189.636C284.145 189.095 284.067 188.614 283.912 188.193C283.757 187.773 283.526 187.443 283.219 187.205C282.912 186.966 282.53 186.847 282.071 186.847C281.632 186.847 281.259 186.962 280.952 187.193C280.645 187.424 280.412 187.748 280.253 188.165C280.098 188.581 280.02 189.072 280.02 189.636ZM287.683 194V185.273H289.74V194H287.683ZM288.717 184.034C288.391 184.034 288.111 183.926 287.876 183.71C287.641 183.491 287.524 183.227 287.524 182.92C287.524 182.61 287.641 182.347 287.876 182.131C288.111 181.911 288.391 181.801 288.717 181.801C289.047 181.801 289.327 181.911 289.558 182.131C289.793 182.347 289.91 182.61 289.91 182.92C289.91 183.227 289.793 183.491 289.558 183.71C289.327 183.926 289.047 184.034 288.717 184.034ZM293.592 188.886V194H291.535V185.273H293.501V186.756H293.603C293.804 186.267 294.124 185.879 294.563 185.591C295.007 185.303 295.554 185.159 296.205 185.159C296.808 185.159 297.332 185.288 297.779 185.545C298.23 185.803 298.579 186.176 298.825 186.665C299.075 187.153 299.198 187.746 299.194 188.443V194H297.137V188.761C297.137 188.178 296.986 187.722 296.683 187.392C296.383 187.062 295.969 186.898 295.438 186.898C295.079 186.898 294.758 186.977 294.478 187.136C294.202 187.292 293.984 187.517 293.825 187.812C293.669 188.108 293.592 188.466 293.592 188.886ZM307.863 187.58L305.988 187.784C305.935 187.595 305.842 187.417 305.709 187.25C305.58 187.083 305.406 186.949 305.187 186.847C304.967 186.744 304.698 186.693 304.38 186.693C303.952 186.693 303.592 186.786 303.3 186.972C303.012 187.157 302.87 187.398 302.874 187.693C302.87 187.947 302.963 188.153 303.152 188.312C303.346 188.472 303.664 188.602 304.107 188.705L305.596 189.023C306.421 189.201 307.035 189.483 307.437 189.869C307.842 190.256 308.046 190.761 308.05 191.386C308.046 191.936 307.885 192.42 307.567 192.841C307.253 193.258 306.815 193.583 306.255 193.818C305.694 194.053 305.05 194.17 304.323 194.17C303.255 194.17 302.395 193.947 301.743 193.5C301.092 193.049 300.704 192.422 300.579 191.619L302.584 191.426C302.675 191.82 302.868 192.117 303.164 192.318C303.459 192.519 303.844 192.619 304.317 192.619C304.806 192.619 305.198 192.519 305.493 192.318C305.793 192.117 305.942 191.869 305.942 191.574C305.942 191.324 305.846 191.117 305.652 190.955C305.463 190.792 305.168 190.667 304.766 190.58L303.277 190.267C302.44 190.093 301.821 189.799 301.419 189.386C301.018 188.97 300.819 188.443 300.823 187.807C300.819 187.269 300.965 186.803 301.26 186.409C301.56 186.011 301.974 185.705 302.505 185.489C303.039 185.269 303.654 185.159 304.351 185.159C305.374 185.159 306.179 185.377 306.766 185.812C307.357 186.248 307.723 186.837 307.863 187.58Z" fill="white"/>
<path d="M253.604 210.672C253.564 210.3 253.396 210.01 253.101 209.803C252.808 209.595 252.428 209.491 251.959 209.491C251.629 209.491 251.347 209.541 251.111 209.641C250.875 209.74 250.695 209.875 250.57 210.045C250.445 210.216 250.381 210.411 250.378 210.629C250.378 210.811 250.419 210.969 250.501 211.102C250.587 211.236 250.702 211.349 250.847 211.443C250.991 211.534 251.152 211.611 251.328 211.673C251.504 211.736 251.682 211.788 251.861 211.831L252.679 212.036C253.009 212.112 253.325 212.216 253.629 212.347C253.936 212.477 254.21 212.642 254.452 212.841C254.696 213.04 254.889 213.28 255.031 213.561C255.173 213.842 255.244 214.172 255.244 214.55C255.244 215.061 255.114 215.511 254.852 215.901C254.591 216.287 254.213 216.589 253.719 216.808C253.227 217.024 252.632 217.132 251.933 217.132C251.254 217.132 250.665 217.027 250.165 216.817C249.668 216.607 249.278 216.3 248.997 215.896C248.719 215.493 248.568 215.001 248.545 214.422H250.101C250.124 214.726 250.217 214.979 250.382 215.18C250.547 215.382 250.761 215.533 251.026 215.632C251.293 215.732 251.591 215.781 251.92 215.781C252.264 215.781 252.565 215.73 252.824 215.628C253.085 215.523 253.29 215.378 253.438 215.193C253.585 215.006 253.661 214.787 253.663 214.537C253.661 214.31 253.594 214.122 253.463 213.974C253.332 213.824 253.149 213.699 252.913 213.599C252.68 213.497 252.408 213.406 252.095 213.327L251.102 213.071C250.384 212.886 249.815 212.607 249.398 212.232C248.983 211.854 248.776 211.352 248.776 210.727C248.776 210.213 248.915 209.763 249.193 209.376C249.474 208.99 249.857 208.69 250.339 208.477C250.822 208.261 251.369 208.153 251.98 208.153C252.599 208.153 253.142 208.261 253.608 208.477C254.077 208.69 254.445 208.987 254.712 209.368C254.979 209.746 255.116 210.18 255.125 210.672H253.604ZM259.483 217.128C258.827 217.128 258.26 216.991 257.783 216.719C257.309 216.443 256.944 216.054 256.688 215.551C256.432 215.045 256.304 214.45 256.304 213.766C256.304 213.092 256.432 212.501 256.688 211.993C256.946 211.482 257.307 211.084 257.77 210.8C258.233 210.513 258.777 210.369 259.402 210.369C259.806 210.369 260.186 210.435 260.544 210.565C260.905 210.693 261.223 210.892 261.499 211.162C261.777 211.432 261.996 211.776 262.155 212.193C262.314 212.608 262.394 213.102 262.394 213.676V214.149H257.029V213.109H260.915C260.912 212.814 260.848 212.551 260.723 212.321C260.598 212.088 260.424 211.905 260.199 211.771C259.978 211.638 259.719 211.571 259.424 211.571C259.108 211.571 258.831 211.648 258.593 211.801C258.354 211.952 258.168 212.151 258.034 212.398C257.904 212.642 257.837 212.911 257.834 213.203V214.111C257.834 214.491 257.904 214.818 258.043 215.091C258.182 215.361 258.377 215.568 258.627 215.713C258.877 215.855 259.169 215.926 259.505 215.926C259.729 215.926 259.932 215.895 260.114 215.832C260.296 215.767 260.453 215.672 260.587 215.547C260.721 215.422 260.821 215.267 260.89 215.082L262.33 215.244C262.239 215.625 262.066 215.957 261.81 216.241C261.557 216.523 261.233 216.741 260.838 216.898C260.444 217.051 259.992 217.128 259.483 217.128ZM263.699 217V210.455H265.173V211.567H265.25C265.386 211.192 265.612 210.899 265.928 210.689C266.243 210.476 266.619 210.369 267.057 210.369C267.5 210.369 267.874 210.477 268.178 210.693C268.484 210.906 268.7 211.197 268.825 211.567H268.893C269.038 211.203 269.283 210.913 269.626 210.697C269.973 210.479 270.384 210.369 270.858 210.369C271.46 210.369 271.952 210.56 272.332 210.94C272.713 211.321 272.903 211.876 272.903 212.607V217H271.357V212.845C271.357 212.439 271.249 212.142 271.033 211.955C270.817 211.764 270.553 211.669 270.24 211.669C269.868 211.669 269.577 211.786 269.366 212.018C269.159 212.249 269.055 212.548 269.055 212.918V217H267.543V212.781C267.543 212.443 267.44 212.173 267.236 211.972C267.034 211.77 266.77 211.669 266.443 211.669C266.222 211.669 266.02 211.726 265.838 211.839C265.656 211.95 265.511 212.108 265.403 212.312C265.295 212.514 265.241 212.75 265.241 213.02V217H263.699ZM274.468 217V210.455H276.011V217H274.468ZM275.244 209.526C275 209.526 274.789 209.445 274.613 209.283C274.437 209.118 274.349 208.92 274.349 208.69C274.349 208.457 274.437 208.26 274.613 208.098C274.789 207.933 275 207.851 275.244 207.851C275.491 207.851 275.701 207.933 275.875 208.098C276.051 208.26 276.139 208.457 276.139 208.69C276.139 208.92 276.051 209.118 275.875 209.283C275.701 209.445 275.491 209.526 275.244 209.526ZM277.665 217V208.273H279.208V211.537H279.272C279.352 211.378 279.464 211.209 279.609 211.03C279.754 210.848 279.95 210.693 280.197 210.565C280.444 210.435 280.759 210.369 281.143 210.369C281.648 210.369 282.104 210.499 282.511 210.757C282.92 211.013 283.244 211.392 283.482 211.895C283.724 212.395 283.844 213.009 283.844 213.736C283.844 214.455 283.727 215.065 283.491 215.568C283.255 216.071 282.934 216.455 282.528 216.719C282.121 216.983 281.661 217.115 281.147 217.115C280.772 217.115 280.461 217.053 280.214 216.928C279.967 216.803 279.768 216.652 279.617 216.476C279.469 216.297 279.354 216.128 279.272 215.969H279.183V217H277.665ZM279.178 213.727C279.178 214.151 279.238 214.521 279.357 214.839C279.479 215.158 279.654 215.406 279.881 215.585C280.112 215.761 280.39 215.849 280.717 215.849C281.058 215.849 281.343 215.759 281.573 215.577C281.803 215.392 281.977 215.141 282.093 214.822C282.212 214.501 282.272 214.136 282.272 213.727C282.272 213.321 282.214 212.96 282.097 212.645C281.981 212.33 281.808 212.082 281.577 211.903C281.347 211.724 281.06 211.635 280.717 211.635C280.387 211.635 280.107 211.722 279.877 211.895C279.647 212.068 279.472 212.311 279.353 212.624C279.237 212.936 279.178 213.304 279.178 213.727ZM288.011 217.128C287.372 217.128 286.818 216.987 286.349 216.706C285.88 216.425 285.517 216.031 285.258 215.526C285.002 215.02 284.875 214.429 284.875 213.753C284.875 213.077 285.002 212.484 285.258 211.976C285.517 211.467 285.88 211.072 286.349 210.791C286.818 210.51 287.372 210.369 288.011 210.369C288.65 210.369 289.204 210.51 289.673 210.791C290.142 211.072 290.504 211.467 290.76 211.976C291.018 212.484 291.147 213.077 291.147 213.753C291.147 214.429 291.018 215.02 290.76 215.526C290.504 216.031 290.142 216.425 289.673 216.706C289.204 216.987 288.65 217.128 288.011 217.128ZM288.02 215.892C288.366 215.892 288.656 215.797 288.889 215.607C289.122 215.413 289.295 215.155 289.409 214.831C289.525 214.507 289.583 214.146 289.583 213.749C289.583 213.348 289.525 212.986 289.409 212.662C289.295 212.335 289.122 212.075 288.889 211.882C288.656 211.689 288.366 211.592 288.02 211.592C287.664 211.592 287.369 211.689 287.133 211.882C286.9 212.075 286.725 212.335 286.609 212.662C286.495 212.986 286.439 213.348 286.439 213.749C286.439 214.146 286.495 214.507 286.609 214.831C286.725 215.155 286.9 215.413 287.133 215.607C287.369 215.797 287.664 215.892 288.02 215.892ZM293.999 208.273V217H292.457V208.273H293.999ZM298.015 217.115C297.5 217.115 297.04 216.983 296.634 216.719C296.228 216.455 295.907 216.071 295.671 215.568C295.435 215.065 295.317 214.455 295.317 213.736C295.317 213.009 295.436 212.395 295.675 211.895C295.917 211.392 296.242 211.013 296.651 210.757C297.06 210.499 297.516 210.369 298.019 210.369C298.402 210.369 298.718 210.435 298.965 210.565C299.212 210.693 299.408 210.848 299.553 211.03C299.698 211.209 299.81 211.378 299.89 211.537H299.953V208.273H301.5V217H299.983V215.969H299.89C299.81 216.128 299.695 216.297 299.544 216.476C299.394 216.652 299.195 216.803 298.948 216.928C298.701 217.053 298.39 217.115 298.015 217.115ZM298.445 215.849C298.772 215.849 299.05 215.761 299.28 215.585C299.51 215.406 299.685 215.158 299.804 214.839C299.924 214.521 299.983 214.151 299.983 213.727C299.983 213.304 299.924 212.936 299.804 212.624C299.688 212.311 299.515 212.068 299.284 211.895C299.057 211.722 298.777 211.635 298.445 211.635C298.101 211.635 297.814 211.724 297.584 211.903C297.354 212.082 297.181 212.33 297.064 212.645C296.948 212.96 296.89 213.321 296.89 213.727C296.89 214.136 296.948 214.501 297.064 214.822C297.184 215.141 297.358 215.392 297.588 215.577C297.821 215.759 298.107 215.849 298.445 215.849Z" fill="#CACFD8"/>
<rect x="343" y="166" width="157" height="66" rx="12" fill="#1E1E1E"/>
<rect x="363" y="174" width="46" height="50" rx="10" fill="#383838"/>
<path d="M374.392 208H371.597L377.878 190.545H380.92L387.202 208H384.406L379.472 193.716H379.335L374.392 208ZM374.861 201.165H383.929V203.381H374.861V201.165ZM392.847 208.29C392.018 208.29 391.268 208.136 390.597 207.83C389.927 207.517 389.396 207.065 389.004 206.474C388.617 205.884 388.424 205.159 388.424 204.301C388.424 203.562 388.566 202.955 388.85 202.477C389.134 202 389.518 201.622 390.001 201.344C390.484 201.065 391.024 200.855 391.62 200.713C392.217 200.571 392.825 200.463 393.444 200.389C394.228 200.298 394.864 200.224 395.353 200.168C395.842 200.105 396.197 200.006 396.418 199.869C396.64 199.733 396.751 199.511 396.751 199.205V199.145C396.751 198.401 396.541 197.824 396.12 197.415C395.705 197.006 395.086 196.801 394.262 196.801C393.404 196.801 392.728 196.991 392.234 197.372C391.745 197.747 391.407 198.165 391.22 198.625L388.825 198.08C389.109 197.284 389.524 196.642 390.069 196.153C390.62 195.659 391.254 195.301 391.97 195.08C392.685 194.852 393.438 194.739 394.228 194.739C394.751 194.739 395.305 194.801 395.89 194.926C396.481 195.045 397.032 195.267 397.543 195.591C398.06 195.915 398.484 196.378 398.813 196.98C399.143 197.577 399.308 198.352 399.308 199.307V208H396.819V206.21H396.717C396.552 206.54 396.305 206.864 395.975 207.182C395.646 207.5 395.222 207.764 394.705 207.974C394.188 208.185 393.569 208.29 392.847 208.29ZM393.401 206.244C394.106 206.244 394.708 206.105 395.208 205.827C395.714 205.548 396.097 205.185 396.359 204.736C396.626 204.281 396.759 203.795 396.759 203.278V201.591C396.668 201.682 396.492 201.767 396.231 201.847C395.975 201.92 395.683 201.986 395.353 202.043C395.024 202.094 394.703 202.142 394.39 202.188C394.078 202.227 393.816 202.261 393.606 202.29C393.112 202.352 392.66 202.457 392.251 202.605C391.847 202.753 391.524 202.966 391.279 203.244C391.041 203.517 390.921 203.881 390.921 204.335C390.921 204.966 391.154 205.443 391.62 205.767C392.086 206.085 392.68 206.244 393.401 206.244Z" fill="#F2F3F5"/>
<path d="M420.148 194V182.364H424.511C425.405 182.364 426.155 182.53 426.761 182.864C427.371 183.197 427.831 183.655 428.142 184.239C428.456 184.818 428.614 185.477 428.614 186.216C428.614 186.962 428.456 187.625 428.142 188.205C427.828 188.784 427.364 189.241 426.75 189.574C426.136 189.903 425.381 190.068 424.483 190.068H421.591V188.335H424.199C424.722 188.335 425.15 188.244 425.483 188.062C425.816 187.881 426.063 187.631 426.222 187.312C426.384 186.994 426.466 186.629 426.466 186.216C426.466 185.803 426.384 185.439 426.222 185.125C426.063 184.811 425.814 184.566 425.477 184.392C425.144 184.214 424.714 184.125 424.188 184.125H422.256V194H420.148ZM433.716 194.17C432.863 194.17 432.125 193.983 431.5 193.608C430.875 193.233 430.39 192.708 430.045 192.034C429.704 191.36 429.534 190.572 429.534 189.67C429.534 188.769 429.704 187.979 430.045 187.301C430.39 186.623 430.875 186.097 431.5 185.722C432.125 185.347 432.863 185.159 433.716 185.159C434.568 185.159 435.306 185.347 435.931 185.722C436.556 186.097 437.039 186.623 437.38 187.301C437.725 187.979 437.897 188.769 437.897 189.67C437.897 190.572 437.725 191.36 437.38 192.034C437.039 192.708 436.556 193.233 435.931 193.608C435.306 193.983 434.568 194.17 433.716 194.17ZM433.727 192.523C434.189 192.523 434.575 192.396 434.886 192.142C435.197 191.884 435.428 191.54 435.579 191.108C435.734 190.676 435.812 190.195 435.812 189.665C435.812 189.131 435.734 188.648 435.579 188.216C435.428 187.78 435.197 187.434 434.886 187.176C434.575 186.919 434.189 186.79 433.727 186.79C433.253 186.79 432.859 186.919 432.545 187.176C432.234 187.434 432.001 187.78 431.846 188.216C431.695 188.648 431.619 189.131 431.619 189.665C431.619 190.195 431.695 190.676 431.846 191.108C432.001 191.54 432.234 191.884 432.545 192.142C432.859 192.396 433.253 192.523 433.727 192.523ZM439.323 197.273V185.273H441.346V186.716H441.465C441.571 186.504 441.721 186.278 441.914 186.04C442.107 185.797 442.369 185.591 442.698 185.42C443.028 185.246 443.448 185.159 443.959 185.159C444.634 185.159 445.242 185.331 445.783 185.676C446.329 186.017 446.761 186.523 447.079 187.193C447.401 187.86 447.562 188.678 447.562 189.648C447.562 190.606 447.405 191.42 447.09 192.091C446.776 192.761 446.348 193.273 445.806 193.625C445.264 193.977 444.651 194.153 443.965 194.153C443.465 194.153 443.05 194.07 442.721 193.903C442.391 193.737 442.126 193.536 441.925 193.301C441.728 193.062 441.575 192.837 441.465 192.625H441.38V197.273H439.323ZM441.34 189.636C441.34 190.201 441.42 190.695 441.579 191.119C441.742 191.544 441.975 191.875 442.278 192.114C442.584 192.348 442.956 192.466 443.391 192.466C443.846 192.466 444.226 192.345 444.533 192.102C444.84 191.856 445.071 191.521 445.226 191.097C445.386 190.669 445.465 190.182 445.465 189.636C445.465 189.095 445.387 188.614 445.232 188.193C445.077 187.773 444.846 187.443 444.539 187.205C444.232 186.966 443.85 186.847 443.391 186.847C442.952 186.847 442.579 186.962 442.272 187.193C441.965 187.424 441.732 187.748 441.573 188.165C441.418 188.581 441.34 189.072 441.34 189.636ZM449.003 197.273V185.273H451.026V186.716H451.145C451.251 186.504 451.401 186.278 451.594 186.04C451.787 185.797 452.049 185.591 452.378 185.42C452.708 185.246 453.128 185.159 453.639 185.159C454.314 185.159 454.922 185.331 455.463 185.676C456.009 186.017 456.441 186.523 456.759 187.193C457.081 187.86 457.242 188.678 457.242 189.648C457.242 190.606 457.085 191.42 456.77 192.091C456.456 192.761 456.028 193.273 455.486 193.625C454.944 193.977 454.331 194.153 453.645 194.153C453.145 194.153 452.73 194.07 452.401 193.903C452.071 193.737 451.806 193.536 451.605 193.301C451.408 193.062 451.255 192.837 451.145 192.625H451.06V197.273H449.003ZM451.02 189.636C451.02 190.201 451.1 190.695 451.259 191.119C451.422 191.544 451.655 191.875 451.958 192.114C452.264 192.348 452.636 192.466 453.071 192.466C453.526 192.466 453.906 192.345 454.213 192.102C454.52 191.856 454.751 191.521 454.906 191.097C455.066 190.669 455.145 190.182 455.145 189.636C455.145 189.095 455.067 188.614 454.912 188.193C454.757 187.773 454.526 187.443 454.219 187.205C453.912 186.966 453.53 186.847 453.071 186.847C452.632 186.847 452.259 186.962 451.952 187.193C451.645 187.424 451.412 187.748 451.253 188.165C451.098 188.581 451.02 189.072 451.02 189.636ZM458.683 194V185.273H460.74V194H458.683ZM459.717 184.034C459.391 184.034 459.111 183.926 458.876 183.71C458.641 183.491 458.524 183.227 458.524 182.92C458.524 182.61 458.641 182.347 458.876 182.131C459.111 181.911 459.391 181.801 459.717 181.801C460.047 181.801 460.327 181.911 460.558 182.131C460.793 182.347 460.91 182.61 460.91 182.92C460.91 183.227 460.793 183.491 460.558 183.71C460.327 183.926 460.047 184.034 459.717 184.034ZM464.592 188.886V194H462.535V185.273H464.501V186.756H464.603C464.804 186.267 465.124 185.879 465.563 185.591C466.007 185.303 466.554 185.159 467.205 185.159C467.808 185.159 468.332 185.288 468.779 185.545C469.23 185.803 469.579 186.176 469.825 186.665C470.075 187.153 470.198 187.746 470.194 188.443V194H468.137V188.761C468.137 188.178 467.986 187.722 467.683 187.392C467.383 187.062 466.969 186.898 466.438 186.898C466.079 186.898 465.758 186.977 465.478 187.136C465.202 187.292 464.984 187.517 464.825 187.812C464.669 188.108 464.592 188.466 464.592 188.886ZM478.863 187.58L476.988 187.784C476.935 187.595 476.842 187.417 476.709 187.25C476.58 187.083 476.406 186.949 476.187 186.847C475.967 186.744 475.698 186.693 475.38 186.693C474.952 186.693 474.592 186.786 474.3 186.972C474.012 187.157 473.87 187.398 473.874 187.693C473.87 187.947 473.963 188.153 474.152 188.312C474.346 188.472 474.664 188.602 475.107 188.705L476.596 189.023C477.421 189.201 478.035 189.483 478.437 189.869C478.842 190.256 479.046 190.761 479.05 191.386C479.046 191.936 478.885 192.42 478.567 192.841C478.253 193.258 477.815 193.583 477.255 193.818C476.694 194.053 476.05 194.17 475.323 194.17C474.255 194.17 473.395 193.947 472.743 193.5C472.092 193.049 471.704 192.422 471.579 191.619L473.584 191.426C473.675 191.82 473.868 192.117 474.164 192.318C474.459 192.519 474.844 192.619 475.317 192.619C475.806 192.619 476.198 192.519 476.493 192.318C476.793 192.117 476.942 191.869 476.942 191.574C476.942 191.324 476.846 191.117 476.652 190.955C476.463 190.792 476.168 190.667 475.766 190.58L474.277 190.267C473.44 190.093 472.821 189.799 472.419 189.386C472.018 188.97 471.819 188.443 471.823 187.807C471.819 187.269 471.965 186.803 472.26 186.409C472.56 186.011 472.974 185.705 473.505 185.489C474.039 185.269 474.654 185.159 475.351 185.159C476.374 185.159 477.179 185.377 477.766 185.812C478.357 186.248 478.723 186.837 478.863 187.58Z" fill="white"/>
<path d="M419.861 208.273H421.795L424.386 214.597H424.489L427.08 208.273H429.014V217H427.497V211.004H427.416L425.004 216.974H423.871L421.459 210.991H421.378V217H419.861V208.273ZM433.565 217.128C432.909 217.128 432.342 216.991 431.865 216.719C431.391 216.443 431.026 216.054 430.77 215.551C430.514 215.045 430.386 214.45 430.386 213.766C430.386 213.092 430.514 212.501 430.77 211.993C431.028 211.482 431.389 211.084 431.852 210.8C432.315 210.513 432.859 210.369 433.484 210.369C433.888 210.369 434.268 210.435 434.626 210.565C434.987 210.693 435.305 210.892 435.581 211.162C435.859 211.432 436.078 211.776 436.237 212.193C436.396 212.608 436.476 213.102 436.476 213.676V214.149H431.111V213.109H434.997C434.994 212.814 434.93 212.551 434.805 212.321C434.68 212.088 434.506 211.905 434.281 211.771C434.06 211.638 433.801 211.571 433.506 211.571C433.19 211.571 432.913 211.648 432.675 211.801C432.436 211.952 432.25 212.151 432.116 212.398C431.986 212.642 431.919 212.911 431.916 213.203V214.111C431.916 214.491 431.986 214.818 432.125 215.091C432.264 215.361 432.459 215.568 432.709 215.713C432.959 215.855 433.251 215.926 433.587 215.926C433.811 215.926 434.014 215.895 434.196 215.832C434.378 215.767 434.536 215.672 434.669 215.547C434.803 215.422 434.903 215.267 434.972 215.082L436.412 215.244C436.321 215.625 436.148 215.957 435.892 216.241C435.639 216.523 435.315 216.741 434.92 216.898C434.526 217.051 434.074 217.128 433.565 217.128ZM440.21 217.115C439.696 217.115 439.235 216.983 438.829 216.719C438.423 216.455 438.102 216.071 437.866 215.568C437.63 215.065 437.512 214.455 437.512 213.736C437.512 213.009 437.632 212.395 437.87 211.895C438.112 211.392 438.437 211.013 438.846 210.757C439.255 210.499 439.711 210.369 440.214 210.369C440.598 210.369 440.913 210.435 441.16 210.565C441.407 210.693 441.603 210.848 441.748 211.03C441.893 211.209 442.005 211.378 442.085 211.537H442.149V208.273H443.696V217H442.179V215.969H442.085C442.005 216.128 441.89 216.297 441.74 216.476C441.589 216.652 441.39 216.803 441.143 216.928C440.896 217.053 440.585 217.115 440.21 217.115ZM440.64 215.849C440.967 215.849 441.245 215.761 441.475 215.585C441.706 215.406 441.88 215.158 442 214.839C442.119 214.521 442.179 214.151 442.179 213.727C442.179 213.304 442.119 212.936 442 212.624C441.883 212.311 441.71 212.068 441.48 211.895C441.252 211.722 440.973 211.635 440.64 211.635C440.297 211.635 440.01 211.724 439.779 211.903C439.549 212.082 439.376 212.33 439.26 212.645C439.143 212.96 439.085 213.321 439.085 213.727C439.085 214.136 439.143 214.501 439.26 214.822C439.379 215.141 439.554 215.392 439.784 215.577C440.017 215.759 440.302 215.849 440.64 215.849ZM445.339 217V210.455H446.882V217H445.339ZM446.115 209.526C445.871 209.526 445.661 209.445 445.484 209.283C445.308 209.118 445.22 208.92 445.22 208.69C445.22 208.457 445.308 208.26 445.484 208.098C445.661 207.933 445.871 207.851 446.115 207.851C446.362 207.851 446.572 207.933 446.746 208.098C446.922 208.26 447.01 208.457 447.01 208.69C447.01 208.92 446.922 209.118 446.746 209.283C446.572 209.445 446.362 209.526 446.115 209.526ZM452.64 214.247V210.455H454.183V217H452.687V215.837H452.619C452.471 216.203 452.228 216.503 451.89 216.736C451.555 216.969 451.142 217.085 450.65 217.085C450.221 217.085 449.842 216.99 449.512 216.8C449.186 216.607 448.93 216.327 448.745 215.96C448.561 215.591 448.468 215.145 448.468 214.622V210.455H450.011V214.384C450.011 214.798 450.125 215.128 450.352 215.372C450.579 215.616 450.877 215.739 451.247 215.739C451.474 215.739 451.694 215.683 451.907 215.572C452.12 215.462 452.295 215.297 452.431 215.078C452.571 214.857 452.64 214.58 452.64 214.247ZM455.769 217V210.455H457.244V211.567H457.32C457.457 211.192 457.683 210.899 457.998 210.689C458.313 210.476 458.69 210.369 459.127 210.369C459.57 210.369 459.944 210.477 460.248 210.693C460.555 210.906 460.771 211.197 460.896 211.567H460.964C461.109 211.203 461.353 210.913 461.697 210.697C462.043 210.479 462.454 210.369 462.928 210.369C463.531 210.369 464.022 210.56 464.403 210.94C464.783 211.321 464.974 211.876 464.974 212.607V217H463.427V212.845C463.427 212.439 463.319 212.142 463.103 211.955C462.887 211.764 462.623 211.669 462.31 211.669C461.938 211.669 461.647 211.786 461.437 212.018C461.229 212.249 461.126 212.548 461.126 212.918V217H459.613V212.781C459.613 212.443 459.511 212.173 459.306 211.972C459.104 211.77 458.84 211.669 458.513 211.669C458.292 211.669 458.09 211.726 457.908 211.839C457.727 211.95 457.582 212.108 457.474 212.312C457.366 212.514 457.312 212.75 457.312 213.02V217H455.769Z" fill="#CACFD8"/>
<rect x="514" y="166" width="157" height="66" rx="12" fill="#1E1E1E"/>
<rect x="534" y="174" width="46" height="50" rx="10" fill="#383838"/>
<path d="M544.83 208H542.614L549.023 190.545H551.205L557.614 208H555.398L550.182 193.307H550.045L544.83 208ZM545.648 201.182H554.58V203.057H545.648V201.182ZM563.432 208.307C562.602 208.307 561.85 208.151 561.173 207.838C560.497 207.52 559.96 207.062 559.563 206.466C559.165 205.864 558.966 205.136 558.966 204.284C558.966 203.534 559.114 202.926 559.409 202.46C559.705 201.989 560.1 201.619 560.594 201.352C561.088 201.085 561.634 200.886 562.23 200.756C562.833 200.619 563.438 200.511 564.046 200.432C564.841 200.33 565.486 200.253 565.98 200.202C566.48 200.145 566.844 200.051 567.071 199.92C567.304 199.79 567.421 199.562 567.421 199.239V199.17C567.421 198.33 567.19 197.676 566.73 197.21C566.276 196.744 565.585 196.511 564.659 196.511C563.699 196.511 562.946 196.722 562.401 197.142C561.855 197.562 561.472 198.011 561.25 198.489L559.341 197.807C559.682 197.011 560.136 196.392 560.705 195.949C561.279 195.5 561.904 195.187 562.58 195.011C563.261 194.83 563.932 194.739 564.591 194.739C565.011 194.739 565.494 194.79 566.04 194.892C566.591 194.989 567.122 195.19 567.634 195.497C568.151 195.804 568.58 196.267 568.921 196.886C569.261 197.506 569.432 198.335 569.432 199.375V208H567.421V206.227H567.318C567.182 206.511 566.955 206.815 566.636 207.139C566.318 207.463 565.895 207.739 565.367 207.966C564.838 208.193 564.193 208.307 563.432 208.307ZM563.739 206.5C564.534 206.5 565.205 206.344 565.75 206.031C566.301 205.719 566.716 205.315 566.994 204.821C567.279 204.327 567.421 203.807 567.421 203.261V201.42C567.335 201.523 567.148 201.616 566.858 201.702C566.574 201.781 566.244 201.852 565.869 201.915C565.5 201.972 565.139 202.023 564.787 202.068C564.44 202.108 564.159 202.142 563.943 202.17C563.421 202.239 562.932 202.349 562.477 202.503C562.029 202.651 561.665 202.875 561.386 203.176C561.114 203.472 560.977 203.875 560.977 204.386C560.977 205.085 561.236 205.614 561.753 205.972C562.276 206.324 562.938 206.5 563.739 206.5Z" fill="#F2F3F5"/>
<path d="M591.148 194V182.364H595.511C596.405 182.364 597.155 182.53 597.761 182.864C598.371 183.197 598.831 183.655 599.142 184.239C599.456 184.818 599.614 185.477 599.614 186.216C599.614 186.962 599.456 187.625 599.142 188.205C598.828 188.784 598.364 189.241 597.75 189.574C597.136 189.903 596.381 190.068 595.483 190.068H592.591V188.335H595.199C595.722 188.335 596.15 188.244 596.483 188.062C596.816 187.881 597.063 187.631 597.222 187.312C597.384 186.994 597.466 186.629 597.466 186.216C597.466 185.803 597.384 185.439 597.222 185.125C597.063 184.811 596.814 184.566 596.477 184.392C596.144 184.214 595.714 184.125 595.188 184.125H593.256V194H591.148ZM604.716 194.17C603.863 194.17 603.125 193.983 602.5 193.608C601.875 193.233 601.39 192.708 601.045 192.034C600.704 191.36 600.534 190.572 600.534 189.67C600.534 188.769 600.704 187.979 601.045 187.301C601.39 186.623 601.875 186.097 602.5 185.722C603.125 185.347 603.863 185.159 604.716 185.159C605.568 185.159 606.306 185.347 606.931 185.722C607.556 186.097 608.039 186.623 608.38 187.301C608.725 187.979 608.897 188.769 608.897 189.67C608.897 190.572 608.725 191.36 608.38 192.034C608.039 192.708 607.556 193.233 606.931 193.608C606.306 193.983 605.568 194.17 604.716 194.17ZM604.727 192.523C605.189 192.523 605.575 192.396 605.886 192.142C606.197 191.884 606.428 191.54 606.579 191.108C606.734 190.676 606.812 190.195 606.812 189.665C606.812 189.131 606.734 188.648 606.579 188.216C606.428 187.78 606.197 187.434 605.886 187.176C605.575 186.919 605.189 186.79 604.727 186.79C604.253 186.79 603.859 186.919 603.545 187.176C603.234 187.434 603.001 187.78 602.846 188.216C602.695 188.648 602.619 189.131 602.619 189.665C602.619 190.195 602.695 190.676 602.846 191.108C603.001 191.54 603.234 191.884 603.545 192.142C603.859 192.396 604.253 192.523 604.727 192.523ZM610.323 197.273V185.273H612.346V186.716H612.465C612.571 186.504 612.721 186.278 612.914 186.04C613.107 185.797 613.369 185.591 613.698 185.42C614.028 185.246 614.448 185.159 614.959 185.159C615.634 185.159 616.242 185.331 616.783 185.676C617.329 186.017 617.761 186.523 618.079 187.193C618.401 187.86 618.562 188.678 618.562 189.648C618.562 190.606 618.405 191.42 618.09 192.091C617.776 192.761 617.348 193.273 616.806 193.625C616.264 193.977 615.651 194.153 614.965 194.153C614.465 194.153 614.05 194.07 613.721 193.903C613.391 193.737 613.126 193.536 612.925 193.301C612.728 193.062 612.575 192.837 612.465 192.625H612.38V197.273H610.323ZM612.34 189.636C612.34 190.201 612.42 190.695 612.579 191.119C612.742 191.544 612.975 191.875 613.278 192.114C613.584 192.348 613.956 192.466 614.391 192.466C614.846 192.466 615.226 192.345 615.533 192.102C615.84 191.856 616.071 191.521 616.226 191.097C616.386 190.669 616.465 190.182 616.465 189.636C616.465 189.095 616.387 188.614 616.232 188.193C616.077 187.773 615.846 187.443 615.539 187.205C615.232 186.966 614.85 186.847 614.391 186.847C613.952 186.847 613.579 186.962 613.272 187.193C612.965 187.424 612.732 187.748 612.573 188.165C612.418 188.581 612.34 189.072 612.34 189.636ZM620.003 197.273V185.273H622.026V186.716H622.145C622.251 186.504 622.401 186.278 622.594 186.04C622.787 185.797 623.049 185.591 623.378 185.42C623.708 185.246 624.128 185.159 624.639 185.159C625.314 185.159 625.922 185.331 626.463 185.676C627.009 186.017 627.441 186.523 627.759 187.193C628.081 187.86 628.242 188.678 628.242 189.648C628.242 190.606 628.085 191.42 627.77 192.091C627.456 192.761 627.028 193.273 626.486 193.625C625.944 193.977 625.331 194.153 624.645 194.153C624.145 194.153 623.73 194.07 623.401 193.903C623.071 193.737 622.806 193.536 622.605 193.301C622.408 193.062 622.255 192.837 622.145 192.625H622.06V197.273H620.003ZM622.02 189.636C622.02 190.201 622.1 190.695 622.259 191.119C622.422 191.544 622.655 191.875 622.958 192.114C623.264 192.348 623.636 192.466 624.071 192.466C624.526 192.466 624.906 192.345 625.213 192.102C625.52 191.856 625.751 191.521 625.906 191.097C626.066 190.669 626.145 190.182 626.145 189.636C626.145 189.095 626.067 188.614 625.912 188.193C625.757 187.773 625.526 187.443 625.219 187.205C624.912 186.966 624.53 186.847 624.071 186.847C623.632 186.847 623.259 186.962 622.952 187.193C622.645 187.424 622.412 187.748 622.253 188.165C622.098 188.581 622.02 189.072 622.02 189.636ZM629.683 194V185.273H631.74V194H629.683ZM630.717 184.034C630.391 184.034 630.111 183.926 629.876 183.71C629.641 183.491 629.524 183.227 629.524 182.92C629.524 182.61 629.641 182.347 629.876 182.131C630.111 181.911 630.391 181.801 630.717 181.801C631.047 181.801 631.327 181.911 631.558 182.131C631.793 182.347 631.91 182.61 631.91 182.92C631.91 183.227 631.793 183.491 631.558 183.71C631.327 183.926 631.047 184.034 630.717 184.034ZM635.592 188.886V194H633.535V185.273H635.501V186.756H635.603C635.804 186.267 636.124 185.879 636.563 185.591C637.007 185.303 637.554 185.159 638.205 185.159C638.808 185.159 639.332 185.288 639.779 185.545C640.23 185.803 640.579 186.176 640.825 186.665C641.075 187.153 641.198 187.746 641.194 188.443V194H639.137V188.761C639.137 188.178 638.986 187.722 638.683 187.392C638.383 187.062 637.969 186.898 637.438 186.898C637.079 186.898 636.758 186.977 636.478 187.136C636.202 187.292 635.984 187.517 635.825 187.812C635.669 188.108 635.592 188.466 635.592 188.886ZM649.863 187.58L647.988 187.784C647.935 187.595 647.842 187.417 647.709 187.25C647.58 187.083 647.406 186.949 647.187 186.847C646.967 186.744 646.698 186.693 646.38 186.693C645.952 186.693 645.592 186.786 645.3 186.972C645.012 187.157 644.87 187.398 644.874 187.693C644.87 187.947 644.963 188.153 645.152 188.312C645.346 188.472 645.664 188.602 646.107 188.705L647.596 189.023C648.421 189.201 649.035 189.483 649.437 189.869C649.842 190.256 650.046 190.761 650.05 191.386C650.046 191.936 649.885 192.42 649.567 192.841C649.253 193.258 648.815 193.583 648.255 193.818C647.694 194.053 647.05 194.17 646.323 194.17C645.255 194.17 644.395 193.947 643.743 193.5C643.092 193.049 642.704 192.422 642.579 191.619L644.584 191.426C644.675 191.82 644.868 192.117 645.164 192.318C645.459 192.519 645.844 192.619 646.317 192.619C646.806 192.619 647.198 192.519 647.493 192.318C647.793 192.117 647.942 191.869 647.942 191.574C647.942 191.324 647.846 191.117 647.652 190.955C647.463 190.792 647.168 190.667 646.766 190.58L645.277 190.267C644.44 190.093 643.821 189.799 643.419 189.386C643.018 188.97 642.819 188.443 642.823 187.807C642.819 187.269 642.965 186.803 643.26 186.409C643.56 186.011 643.974 185.705 644.505 185.489C645.039 185.269 645.654 185.159 646.351 185.159C647.374 185.159 648.179 185.377 648.766 185.812C649.357 186.248 649.723 186.837 649.863 187.58Z" fill="white"/>
<path d="M590.861 217V208.273H594.134C594.804 208.273 595.366 208.389 595.821 208.622C596.278 208.855 596.624 209.182 596.857 209.602C597.092 210.02 597.21 210.507 597.21 211.064C597.21 211.624 597.091 212.109 596.852 212.521C596.616 212.93 596.268 213.247 595.808 213.472C595.348 213.693 594.783 213.804 594.112 213.804H591.781V212.491H593.899C594.291 212.491 594.612 212.437 594.862 212.33C595.112 212.219 595.297 212.058 595.416 211.848C595.538 211.635 595.599 211.374 595.599 211.064C595.599 210.754 595.538 210.49 595.416 210.271C595.294 210.05 595.108 209.882 594.858 209.768C594.608 209.652 594.286 209.594 593.891 209.594H592.442V217H590.861ZM595.369 213.045L597.53 217H595.766L593.643 213.045H595.369ZM601.401 217.128C600.745 217.128 600.178 216.991 599.701 216.719C599.227 216.443 598.862 216.054 598.606 215.551C598.35 215.045 598.222 214.45 598.222 213.766C598.222 213.092 598.35 212.501 598.606 211.993C598.864 211.482 599.225 211.084 599.688 210.8C600.151 210.513 600.695 210.369 601.32 210.369C601.724 210.369 602.104 210.435 602.462 210.565C602.823 210.693 603.141 210.892 603.417 211.162C603.695 211.432 603.914 211.776 604.073 212.193C604.232 212.608 604.312 213.102 604.312 213.676V214.149H598.947V213.109H602.833C602.83 212.814 602.766 212.551 602.641 212.321C602.516 212.088 602.342 211.905 602.117 211.771C601.896 211.638 601.637 211.571 601.342 211.571C601.026 211.571 600.749 211.648 600.511 211.801C600.272 211.952 600.086 212.151 599.952 212.398C599.822 212.642 599.755 212.911 599.752 213.203V214.111C599.752 214.491 599.822 214.818 599.961 215.091C600.1 215.361 600.295 215.568 600.545 215.713C600.795 215.855 601.087 215.926 601.423 215.926C601.647 215.926 601.85 215.895 602.032 215.832C602.214 215.767 602.371 215.672 602.505 215.547C602.638 215.422 602.739 215.267 602.808 215.082L604.248 215.244C604.157 215.625 603.984 215.957 603.728 216.241C603.475 216.523 603.151 216.741 602.756 216.898C602.362 217.051 601.91 217.128 601.401 217.128ZM608.463 219.591C607.909 219.591 607.434 219.516 607.036 219.365C606.638 219.217 606.319 219.018 606.077 218.768C605.836 218.518 605.668 218.241 605.574 217.938L606.963 217.601C607.026 217.729 607.117 217.855 607.236 217.98C607.355 218.108 607.516 218.213 607.718 218.295C607.922 218.381 608.179 218.423 608.489 218.423C608.926 218.423 609.289 218.317 609.576 218.104C609.863 217.893 610.006 217.547 610.006 217.064V215.824H609.929C609.85 215.983 609.733 216.146 609.58 216.314C609.429 216.482 609.229 216.622 608.979 216.736C608.732 216.849 608.421 216.906 608.046 216.906C607.543 216.906 607.087 216.788 606.678 216.553C606.272 216.314 605.948 215.959 605.706 215.487C605.468 215.013 605.348 214.419 605.348 213.706C605.348 212.987 605.468 212.381 605.706 211.886C605.948 211.389 606.273 211.013 606.682 210.757C607.091 210.499 607.547 210.369 608.05 210.369C608.434 210.369 608.749 210.435 608.996 210.565C609.246 210.693 609.445 210.848 609.593 211.03C609.74 211.209 609.853 211.378 609.929 211.537H610.015V210.455H611.536V217.107C611.536 217.666 611.402 218.129 611.135 218.496C610.868 218.862 610.503 219.136 610.04 219.318C609.577 219.5 609.051 219.591 608.463 219.591ZM608.476 215.696C608.803 215.696 609.081 215.616 609.311 215.457C609.542 215.298 609.716 215.07 609.836 214.771C609.955 214.473 610.015 214.115 610.015 213.697C610.015 213.286 609.955 212.925 609.836 212.615C609.719 212.305 609.546 212.065 609.316 211.895C609.088 211.722 608.809 211.635 608.476 211.635C608.132 211.635 607.846 211.724 607.615 211.903C607.385 212.082 607.212 212.328 607.096 212.641C606.979 212.95 606.921 213.303 606.921 213.697C606.921 214.098 606.979 214.449 607.096 214.75C607.215 215.048 607.39 215.281 607.62 215.449C607.853 215.614 608.138 215.696 608.476 215.696ZM617.289 214.247V210.455H618.831V217H617.336V215.837H617.267C617.12 216.203 616.877 216.503 616.539 216.736C616.203 216.969 615.79 217.085 615.299 217.085C614.87 217.085 614.49 216.99 614.161 216.8C613.834 216.607 613.578 216.327 613.394 215.96C613.209 215.591 613.117 215.145 613.117 214.622V210.455H614.659V214.384C614.659 214.798 614.773 215.128 615 215.372C615.228 215.616 615.526 215.739 615.895 215.739C616.123 215.739 616.343 215.683 616.556 215.572C616.769 215.462 616.944 215.297 617.08 215.078C617.219 214.857 617.289 214.58 617.289 214.247ZM621.96 208.273V217H620.418V208.273H621.96ZM625.43 217.132C625.015 217.132 624.642 217.058 624.309 216.911C623.98 216.76 623.718 216.538 623.525 216.246C623.335 215.953 623.24 215.592 623.24 215.163C623.24 214.794 623.308 214.489 623.444 214.247C623.581 214.006 623.767 213.812 624.002 213.668C624.238 213.523 624.504 213.413 624.799 213.339C625.098 213.263 625.406 213.207 625.724 213.173C626.108 213.134 626.419 213.098 626.657 213.067C626.896 213.033 627.069 212.982 627.177 212.913C627.288 212.842 627.343 212.733 627.343 212.585V212.56C627.343 212.239 627.248 211.99 627.058 211.814C626.868 211.638 626.593 211.55 626.235 211.55C625.858 211.55 625.558 211.632 625.336 211.797C625.118 211.962 624.97 212.156 624.893 212.381L623.453 212.176C623.566 211.778 623.754 211.446 624.015 211.179C624.277 210.909 624.596 210.707 624.974 210.574C625.352 210.438 625.77 210.369 626.227 210.369C626.542 210.369 626.856 210.406 627.169 210.48C627.481 210.554 627.767 210.676 628.025 210.847C628.284 211.014 628.491 211.243 628.647 211.533C628.806 211.822 628.886 212.185 628.886 212.619V217H627.403V216.101H627.352C627.258 216.283 627.126 216.453 626.956 216.612C626.788 216.768 626.576 216.895 626.321 216.991C626.068 217.085 625.771 217.132 625.43 217.132ZM625.831 215.999C626.14 215.999 626.409 215.937 626.636 215.815C626.863 215.69 627.038 215.526 627.16 215.321C627.285 215.116 627.348 214.893 627.348 214.652V213.881C627.299 213.92 627.217 213.957 627.1 213.991C626.987 214.026 626.859 214.055 626.717 214.081C626.575 214.107 626.434 214.129 626.295 214.149C626.156 214.169 626.035 214.186 625.933 214.2C625.703 214.232 625.497 214.283 625.315 214.354C625.133 214.425 624.99 214.524 624.885 214.652C624.779 214.777 624.727 214.939 624.727 215.138C624.727 215.422 624.831 215.636 625.038 215.781C625.245 215.926 625.51 215.999 625.831 215.999ZM630.437 217V210.455H631.933V211.545H632.001C632.12 211.168 632.325 210.876 632.615 210.672C632.907 210.464 633.241 210.361 633.616 210.361C633.701 210.361 633.797 210.365 633.902 210.374C634.01 210.379 634.099 210.389 634.17 210.403V211.822C634.105 211.8 634.001 211.78 633.859 211.763C633.72 211.743 633.585 211.733 633.454 211.733C633.173 211.733 632.92 211.794 632.696 211.916C632.474 212.036 632.299 212.202 632.172 212.415C632.044 212.628 631.98 212.874 631.98 213.152V217H630.437Z" fill="#CACFD8"/>
</svg>
