<svg width="528" height="233" viewBox="0 0 758 232" fill="none" xmlns="http://www.w3.org/2000/svg">
<path d="M22.6278 116H2.85511L32.983 28.7273H56.7614L86.8466 116H67.0739L45.2131 48.6705H44.5312L22.6278 116ZM21.392 81.696H68.0966V96.0994H21.392V81.696ZM115.675 117.236C111.499 117.236 107.777 116.511 104.51 115.062C101.243 113.585 98.6577 111.412 96.7543 108.543C94.8793 105.645 93.9418 102.037 93.9418 97.7188C93.9418 94.0824 94.6094 91.0284 95.9446 88.5568C97.2798 86.0852 99.098 84.0966 101.399 82.5909C103.7 81.0852 106.314 79.9489 109.24 79.1818C112.195 78.4148 115.291 77.875 118.53 77.5625C122.337 77.1648 125.405 76.7955 127.734 76.4545C130.064 76.0852 131.754 75.5455 132.805 74.8352C133.857 74.125 134.382 73.0739 134.382 71.6818V71.4261C134.382 68.7273 133.53 66.6392 131.825 65.1619C130.149 63.6847 127.763 62.946 124.666 62.946C121.399 62.946 118.8 63.6705 116.868 65.1193C114.936 66.5398 113.658 68.3295 113.033 70.4886L96.2429 69.125C97.0952 65.1477 98.7713 61.7102 101.271 58.8125C103.771 55.8864 106.996 53.642 110.945 52.0795C114.922 50.4886 119.524 49.6932 124.751 49.6932C128.388 49.6932 131.868 50.1193 135.192 50.9716C138.544 51.8239 141.513 53.1449 144.098 54.9347C146.712 56.7244 148.771 59.0256 150.277 61.8381C151.783 64.6222 152.536 67.9602 152.536 71.8523V116H135.32V106.923H134.808C133.757 108.969 132.351 110.773 130.589 112.335C128.828 113.869 126.712 115.077 124.24 115.957C121.768 116.81 118.913 117.236 115.675 117.236ZM120.874 104.707C123.544 104.707 125.902 104.182 127.947 103.131C129.993 102.051 131.598 100.602 132.763 98.7841C133.928 96.9659 134.51 94.9062 134.51 92.6051V85.6591C133.942 86.0284 133.161 86.3693 132.166 86.6818C131.2 86.9659 130.107 87.2358 128.885 87.4915C127.663 87.7187 126.442 87.9318 125.22 88.1307C123.999 88.3011 122.891 88.4574 121.896 88.5994C119.766 88.9119 117.905 89.4091 116.314 90.0909C114.723 90.7727 113.487 91.696 112.607 92.8608C111.726 93.9972 111.286 95.4176 111.286 97.1222C111.286 99.5938 112.18 101.483 113.97 102.79C115.788 104.068 118.089 104.707 120.874 104.707Z" fill="#222124"/>
<path d="M230.295 67.5V44.2273H245.205V47.7614H234.511V54.0795H244.182V57.6136H234.511V67.5H230.295ZM255.196 67.8409C253.491 67.8409 252.014 67.4659 250.764 66.7159C249.514 65.9659 248.545 64.9167 247.855 63.5682C247.173 62.2197 246.832 60.6439 246.832 58.8409C246.832 57.0379 247.173 55.4583 247.855 54.1023C248.545 52.7462 249.514 51.6932 250.764 50.9432C252.014 50.1932 253.491 49.8182 255.196 49.8182C256.901 49.8182 258.378 50.1932 259.628 50.9432C260.878 51.6932 261.844 52.7462 262.526 54.1023C263.215 55.4583 263.56 57.0379 263.56 58.8409C263.56 60.6439 263.215 62.2197 262.526 63.5682C261.844 64.9167 260.878 65.9659 259.628 66.7159C258.378 67.4659 256.901 67.8409 255.196 67.8409ZM255.219 64.5455C256.143 64.5455 256.916 64.2917 257.537 63.7841C258.158 63.2689 258.62 62.5795 258.923 61.7159C259.234 60.8523 259.389 59.8902 259.389 58.8295C259.389 57.7614 259.234 56.7955 258.923 55.9318C258.62 55.0606 258.158 54.3674 257.537 53.8523C256.916 53.3371 256.143 53.0795 255.219 53.0795C254.272 53.0795 253.484 53.3371 252.855 53.8523C252.234 54.3674 251.768 55.0606 251.457 55.9318C251.154 56.7955 251.003 57.7614 251.003 58.8295C251.003 59.8902 251.154 60.8523 251.457 61.7159C251.768 62.5795 252.234 63.2689 252.855 63.7841C253.484 64.2917 254.272 64.5455 255.219 64.5455ZM271.165 57.2727V67.5H267.051V50.0455H270.983V53.0114H271.188C271.589 52.0341 272.229 51.2576 273.108 50.6818C273.994 50.1061 275.089 49.8182 276.392 49.8182C277.597 49.8182 278.646 50.0758 279.54 50.5909C280.441 51.1061 281.138 51.8523 281.631 52.8295C282.131 53.8068 282.377 54.9924 282.369 56.3864V67.5H278.256V57.0227C278.256 55.8561 277.953 54.9432 277.347 54.2841C276.748 53.625 275.919 53.2955 274.858 53.2955C274.138 53.2955 273.498 53.4545 272.938 53.7727C272.384 54.0833 271.949 54.5341 271.631 55.125C271.32 55.7159 271.165 56.4318 271.165 57.2727ZM295.267 50.0455V53.2273H285.233V50.0455H295.267ZM287.71 45.8636H291.824V62.25C291.824 62.803 291.907 63.2273 292.074 63.5227C292.248 63.8106 292.475 64.0076 292.756 64.1136C293.036 64.2197 293.347 64.2727 293.688 64.2727C293.945 64.2727 294.18 64.2538 294.392 64.2159C294.612 64.178 294.778 64.1439 294.892 64.1136L295.585 67.3295C295.366 67.4053 295.051 67.4886 294.642 67.5795C294.241 67.6705 293.748 67.7235 293.165 67.7386C292.134 67.7689 291.206 67.6136 290.381 67.2727C289.555 66.9242 288.9 66.3864 288.415 65.6591C287.938 64.9318 287.703 64.0227 287.71 62.9318V45.8636Z" fill="#0A0A0A"/>
<path d="M229.896 83.7H232.296V100.5H229.896V83.7ZM235.436 88.5H237.5L237.644 89.892C238.028 89.396 238.516 89.012 239.108 88.74C239.7 88.468 240.356 88.332 241.076 88.332C242.004 88.332 242.804 88.532 243.476 88.932C244.164 89.316 244.692 89.892 245.06 90.66C245.444 91.428 245.636 92.388 245.636 93.54V100.5H243.38V93.828C243.38 92.708 243.14 91.86 242.66 91.284C242.196 90.692 241.516 90.396 240.62 90.396C239.692 90.396 238.972 90.7 238.46 91.308C237.948 91.9 237.692 92.78 237.692 93.948V100.5H235.436V88.5ZM249.177 88.5V85.14H251.457V88.5H254.457V90.516H251.457V96.42C251.457 97.156 251.601 97.676 251.889 97.98C252.193 98.284 252.569 98.46 253.017 98.508C253.481 98.54 253.961 98.524 254.457 98.46V100.404C253.801 100.548 253.153 100.588 252.513 100.524C251.889 100.476 251.321 100.3 250.809 99.996C250.313 99.692 249.913 99.252 249.609 98.676C249.321 98.084 249.177 97.332 249.177 96.42V90.516H247.449V88.5H249.177ZM261.715 100.668C260.563 100.668 259.539 100.404 258.643 99.876C257.763 99.332 257.067 98.588 256.555 97.644C256.059 96.7 255.811 95.62 255.811 94.404C255.811 93.236 256.059 92.196 256.555 91.284C257.051 90.372 257.731 89.652 258.595 89.124C259.475 88.596 260.467 88.332 261.571 88.332C262.691 88.332 263.683 88.58 264.547 89.076C265.411 89.556 266.083 90.236 266.563 91.116C267.043 91.98 267.275 92.98 267.259 94.116C267.259 94.308 267.251 94.508 267.235 94.716C267.219 94.908 267.195 95.124 267.163 95.364H258.283C258.331 96.004 258.507 96.572 258.811 97.068C259.131 97.548 259.531 97.924 260.011 98.196C260.507 98.468 261.067 98.604 261.691 98.604C262.491 98.604 263.187 98.452 263.779 98.148C264.371 97.828 264.787 97.404 265.027 96.876L266.995 97.572C266.515 98.548 265.811 99.308 264.883 99.852C263.971 100.396 262.915 100.668 261.715 100.668ZM264.787 93.42C264.787 92.844 264.643 92.324 264.355 91.86C264.067 91.396 263.675 91.036 263.179 90.78C262.699 90.508 262.155 90.372 261.547 90.372C261.003 90.372 260.499 90.508 260.035 90.78C259.587 91.036 259.203 91.396 258.883 91.86C258.579 92.308 258.387 92.828 258.307 93.42H264.787ZM269.55 88.5H271.614L271.758 90.108C272.094 89.692 272.478 89.348 272.91 89.076C273.358 88.788 273.838 88.588 274.35 88.476C274.878 88.364 275.422 88.372 275.982 88.5V90.636C275.454 90.508 274.942 90.492 274.446 90.588C273.95 90.684 273.502 90.892 273.102 91.212C272.718 91.516 272.406 91.924 272.166 92.436C271.926 92.948 271.806 93.564 271.806 94.284V100.5H269.55V88.5Z" fill="#222124"/>
<rect y="166" width="132" height="66" rx="12" fill="#E8E8E8"/>
<rect x="20" y="174" width="46" height="50" rx="10" fill="#CBCBCB"/>
<path d="M31.5256 208H27.571L33.5966 190.545H38.3523L44.3693 208H40.4148L36.0426 194.534H35.9062L31.5256 208ZM31.2784 201.139H40.6193V204.02H31.2784V201.139ZM49.6549 208.247C48.8197 208.247 48.0754 208.102 47.422 207.812C46.7686 207.517 46.2515 207.082 45.8709 206.509C45.4959 205.929 45.3084 205.207 45.3084 204.344C45.3084 203.616 45.4419 203.006 45.7089 202.511C45.976 202.017 46.3396 201.619 46.7998 201.318C47.2601 201.017 47.7828 200.79 48.368 200.636C48.9589 200.483 49.5782 200.375 50.226 200.312C50.9873 200.233 51.601 200.159 52.0669 200.091C52.5328 200.017 52.8709 199.909 53.0811 199.767C53.2913 199.625 53.3964 199.415 53.3964 199.136V199.085C53.3964 198.545 53.226 198.128 52.8851 197.832C52.5498 197.537 52.0726 197.389 51.4532 197.389C50.7998 197.389 50.2799 197.534 49.8936 197.824C49.5072 198.108 49.2515 198.466 49.1265 198.898L45.7686 198.625C45.939 197.83 46.2743 197.142 46.7743 196.562C47.2743 195.977 47.9191 195.528 48.7089 195.216C49.5044 194.898 50.4248 194.739 51.4703 194.739C52.1976 194.739 52.8936 194.824 53.5584 194.994C54.2288 195.165 54.8226 195.429 55.3396 195.787C55.8623 196.145 56.2743 196.605 56.5754 197.168C56.8765 197.724 57.0271 198.392 57.0271 199.17V208H53.5839V206.185H53.4816C53.2714 206.594 52.9902 206.955 52.6379 207.267C52.2856 207.574 51.8623 207.815 51.368 207.991C50.8737 208.162 50.3027 208.247 49.6549 208.247ZM50.6947 205.741C51.2288 205.741 51.7004 205.636 52.1095 205.426C52.5186 205.21 52.8396 204.92 53.0726 204.557C53.3055 204.193 53.422 203.781 53.422 203.321V201.932C53.3084 202.006 53.1521 202.074 52.9532 202.136C52.7601 202.193 52.5413 202.247 52.297 202.298C52.0527 202.344 51.8084 202.386 51.564 202.426C51.3197 202.46 51.0981 202.491 50.8993 202.52C50.4731 202.582 50.101 202.682 49.7828 202.818C49.4646 202.955 49.2174 203.139 49.0413 203.372C48.8652 203.599 48.7771 203.884 48.7771 204.224C48.7771 204.719 48.9561 205.097 49.314 205.358C49.6777 205.614 50.1379 205.741 50.6947 205.741Z" fill="#222124"/>
<path d="M80.2557 182.364V194H78.1477V182.364H80.2557ZM84.1843 188.886V194H82.1274V185.273H84.0934V186.756H84.1956C84.3964 186.267 84.7165 185.879 85.1559 185.591C85.599 185.303 86.1464 185.159 86.7979 185.159C87.4002 185.159 87.9248 185.288 88.3718 185.545C88.8225 185.803 89.171 186.176 89.4172 186.665C89.6672 187.153 89.7903 187.746 89.7865 188.443V194H87.7297V188.761C87.7297 188.178 87.5782 187.722 87.2752 187.392C86.9759 187.062 86.5612 186.898 86.0309 186.898C85.671 186.898 85.3509 186.977 85.0706 187.136C84.7941 187.292 84.5763 187.517 84.4172 187.812C84.2619 188.108 84.1843 188.466 84.1843 188.886ZM95.9154 185.273V186.864H90.8984V185.273H95.9154ZM92.137 183.182H94.1938V191.375C94.1938 191.652 94.2355 191.864 94.3188 192.011C94.4059 192.155 94.5196 192.254 94.6597 192.307C94.7999 192.36 94.9552 192.386 95.1256 192.386C95.2544 192.386 95.3718 192.377 95.4779 192.358C95.5877 192.339 95.6711 192.322 95.7279 192.307L96.0745 193.915C95.9646 193.953 95.8074 193.994 95.6029 194.04C95.4021 194.085 95.1559 194.112 94.8643 194.119C94.3491 194.134 93.8851 194.057 93.4722 193.886C93.0593 193.712 92.7317 193.443 92.4893 193.08C92.2506 192.716 92.1332 192.261 92.137 191.716V183.182ZM101.085 194.17C100.21 194.17 99.4548 193.989 98.8184 193.625C98.1858 193.258 97.6991 192.739 97.3582 192.068C97.0173 191.394 96.8468 190.6 96.8468 189.688C96.8468 188.79 97.0173 188.002 97.3582 187.324C97.7029 186.642 98.1839 186.112 98.8014 185.733C99.4188 185.35 100.144 185.159 100.978 185.159C101.515 185.159 102.023 185.246 102.5 185.42C102.981 185.591 103.406 185.856 103.773 186.216C104.144 186.576 104.436 187.034 104.648 187.591C104.86 188.144 104.966 188.803 104.966 189.568V190.199H97.8127V188.812H102.995C102.991 188.419 102.906 188.068 102.739 187.761C102.572 187.451 102.339 187.206 102.04 187.028C101.745 186.85 101.4 186.761 101.006 186.761C100.585 186.761 100.216 186.864 99.898 187.068C99.5798 187.269 99.3317 187.534 99.1536 187.864C98.9794 188.189 98.8904 188.547 98.8866 188.938V190.148C98.8866 190.655 98.9794 191.091 99.165 191.455C99.3506 191.814 99.6101 192.091 99.9434 192.284C100.277 192.473 100.667 192.568 101.114 192.568C101.413 192.568 101.684 192.527 101.926 192.443C102.169 192.356 102.379 192.229 102.557 192.062C102.735 191.896 102.87 191.689 102.96 191.443L104.881 191.659C104.76 192.167 104.529 192.61 104.188 192.989C103.851 193.364 103.419 193.655 102.892 193.864C102.366 194.068 101.763 194.17 101.085 194.17ZM106.386 194V185.273H108.381V186.727H108.471C108.631 186.223 108.903 185.835 109.29 185.562C109.68 185.286 110.125 185.148 110.625 185.148C110.738 185.148 110.865 185.153 111.006 185.165C111.149 185.172 111.269 185.186 111.363 185.205V187.097C111.276 187.066 111.138 187.04 110.949 187.017C110.763 186.991 110.583 186.977 110.409 186.977C110.034 186.977 109.697 187.059 109.398 187.222C109.102 187.381 108.869 187.602 108.699 187.886C108.528 188.17 108.443 188.498 108.443 188.869V194H106.386Z" fill="#0A0A0A"/>
<path d="M82.844 210.976C82.844 210.6 82.72 210.308 82.472 210.1C82.232 209.892 81.892 209.788 81.452 209.788H79.304V212.152H81.452C81.892 212.152 82.232 212.052 82.472 211.852C82.72 211.644 82.844 211.352 82.844 210.976ZM77.876 217V208.6H81.596C82.188 208.6 82.68 208.7 83.072 208.9C83.472 209.1 83.772 209.368 83.972 209.704C84.18 210.032 84.284 210.396 84.284 210.796C84.284 211.164 84.216 211.476 84.08 211.732C83.944 211.988 83.76 212.192 83.528 212.344C83.296 212.496 83.036 212.604 82.748 212.668V212.764C83.092 212.812 83.396 212.912 83.66 213.064C83.924 213.216 84.128 213.432 84.272 213.712C84.416 213.992 84.488 214.34 84.488 214.756C84.488 215.18 84.376 215.564 84.152 215.908C83.936 216.244 83.624 216.512 83.216 216.712C82.808 216.904 82.32 217 81.752 217H77.876ZM79.304 215.812H81.608C82.064 215.812 82.42 215.708 82.676 215.5C82.932 215.292 83.06 214.992 83.06 214.6C83.06 214.184 82.92 213.868 82.64 213.652C82.368 213.436 82.008 213.328 81.56 213.328H79.304V215.812ZM88.5542 217.084C87.9782 217.084 87.4622 216.96 87.0062 216.712C86.5502 216.456 86.1942 216.1 85.9382 215.644C85.6822 215.18 85.5542 214.636 85.5542 214.012C85.5542 213.38 85.6862 212.832 85.9502 212.368C86.2142 211.904 86.5782 211.548 87.0422 211.3C87.5062 211.044 88.0222 210.916 88.5902 210.916C89.1662 210.916 89.6822 211.044 90.1382 211.3C90.6022 211.548 90.9702 211.904 91.2422 212.368C91.5142 212.824 91.6502 213.364 91.6502 213.988C91.6502 214.62 91.5102 215.168 91.2302 215.632C90.9582 216.096 90.5862 216.456 90.1142 216.712C89.6502 216.96 89.1302 217.084 88.5542 217.084ZM88.5422 215.872C88.8222 215.872 89.0862 215.804 89.3342 215.668C89.5902 215.532 89.7982 215.328 89.9582 215.056C90.1182 214.776 90.1982 214.42 90.1982 213.988C90.1982 213.572 90.1222 213.228 89.9702 212.956C89.8182 212.676 89.6182 212.468 89.3702 212.332C89.1222 212.196 88.8542 212.128 88.5662 212.128C88.2862 212.128 88.0262 212.196 87.7862 212.332C87.5542 212.468 87.3662 212.676 87.2222 212.956C87.0782 213.228 87.0062 213.58 87.0062 214.012C87.0062 214.428 87.0742 214.776 87.2102 215.056C87.3542 215.328 87.5422 215.532 87.7742 215.668C88.0062 215.804 88.2622 215.872 88.5422 215.872ZM92.9212 208.36H94.2772V217H92.9212V208.36ZM100.279 211.888L100.123 211.924V208.36H101.479V217H100.255L100.159 216.256C99.9506 216.488 99.6866 216.684 99.3666 216.844C99.0466 217.004 98.6666 217.084 98.2266 217.084C97.6906 217.084 97.2186 216.956 96.8106 216.7C96.4106 216.444 96.0986 216.084 95.8746 215.62C95.6506 215.156 95.5386 214.616 95.5386 214C95.5386 213.384 95.6506 212.844 95.8746 212.38C96.0986 211.916 96.4106 211.556 96.8106 211.3C97.2186 211.044 97.6906 210.916 98.2266 210.916C98.6986 210.916 99.1106 211.012 99.4626 211.204C99.8146 211.388 100.087 211.616 100.279 211.888ZM96.9906 214C96.9906 214.552 97.1346 215 97.4226 215.344C97.7106 215.688 98.0866 215.86 98.5506 215.86C98.8306 215.86 99.0866 215.788 99.3186 215.644C99.5586 215.5 99.7506 215.292 99.8946 215.02C100.047 214.74 100.123 214.4 100.123 214C100.123 213.6 100.047 213.264 99.8946 212.992C99.7506 212.712 99.5586 212.5 99.3186 212.356C99.0866 212.212 98.8306 212.14 98.5506 212.14C98.0866 212.14 97.7106 212.312 97.4226 212.656C97.1346 213 96.9906 213.448 96.9906 214Z" fill="#5A5C60"/>
<rect x="146" y="166" width="149" height="66" rx="12" fill="#E8E8E8"/>
<rect x="166" y="174" width="45" height="50" rx="10" fill="#CBCBCB"/>
<path d="M176.963 208H173.588L179.733 190.545H183.636L189.79 208H186.415L181.753 194.125H181.616L176.963 208ZM177.074 201.156H186.278V203.696H177.074V201.156ZM195.239 208.264C194.41 208.264 193.663 208.116 192.998 207.821C192.339 207.52 191.816 207.077 191.43 206.491C191.049 205.906 190.859 205.185 190.859 204.327C190.859 203.588 190.995 202.977 191.268 202.494C191.541 202.011 191.913 201.625 192.384 201.335C192.856 201.045 193.387 200.827 193.978 200.679C194.575 200.526 195.191 200.415 195.828 200.347C196.595 200.267 197.217 200.196 197.694 200.134C198.171 200.065 198.518 199.963 198.734 199.827C198.955 199.685 199.066 199.466 199.066 199.17V199.119C199.066 198.477 198.876 197.98 198.495 197.628C198.114 197.276 197.566 197.099 196.85 197.099C196.095 197.099 195.495 197.264 195.052 197.594C194.614 197.923 194.319 198.312 194.166 198.761L191.285 198.352C191.512 197.557 191.887 196.892 192.41 196.358C192.933 195.818 193.572 195.415 194.328 195.148C195.083 194.875 195.918 194.739 196.833 194.739C197.464 194.739 198.092 194.812 198.717 194.96C199.342 195.108 199.913 195.352 200.43 195.693C200.947 196.028 201.362 196.486 201.674 197.065C201.992 197.645 202.151 198.369 202.151 199.239V208H199.185V206.202H199.083C198.896 206.565 198.632 206.906 198.291 207.224C197.955 207.537 197.532 207.79 197.021 207.983C196.515 208.17 195.921 208.264 195.239 208.264ZM196.041 205.997C196.66 205.997 197.197 205.875 197.651 205.631C198.106 205.381 198.455 205.051 198.7 204.642C198.95 204.233 199.075 203.787 199.075 203.304V201.761C198.978 201.841 198.813 201.915 198.58 201.983C198.353 202.051 198.097 202.111 197.813 202.162C197.529 202.213 197.248 202.259 196.97 202.298C196.691 202.338 196.45 202.372 196.245 202.401C195.785 202.463 195.373 202.565 195.009 202.707C194.646 202.849 194.359 203.048 194.149 203.304C193.938 203.554 193.833 203.878 193.833 204.276C193.833 204.844 194.041 205.273 194.455 205.562C194.87 205.852 195.399 205.997 196.041 205.997Z" fill="#222124"/>
<path d="M225.256 182.364V194H223.148V182.364H225.256ZM229.184 188.886V194H227.127V185.273H229.093V186.756H229.196C229.396 186.267 229.716 185.879 230.156 185.591C230.599 185.303 231.146 185.159 231.798 185.159C232.4 185.159 232.925 185.288 233.372 185.545C233.823 185.803 234.171 186.176 234.417 186.665C234.667 187.153 234.79 187.746 234.787 188.443V194H232.73V188.761C232.73 188.178 232.578 187.722 232.275 187.392C231.976 187.062 231.561 186.898 231.031 186.898C230.671 186.898 230.351 186.977 230.071 187.136C229.794 187.292 229.576 187.517 229.417 187.812C229.262 188.108 229.184 188.466 229.184 188.886ZM240.915 185.273V186.864H235.898V185.273H240.915ZM237.137 183.182H239.194V191.375C239.194 191.652 239.235 191.864 239.319 192.011C239.406 192.155 239.52 192.254 239.66 192.307C239.8 192.36 239.955 192.386 240.126 192.386C240.254 192.386 240.372 192.377 240.478 192.358C240.588 192.339 240.671 192.322 240.728 192.307L241.074 193.915C240.965 193.953 240.807 193.994 240.603 194.04C240.402 194.085 240.156 194.112 239.864 194.119C239.349 194.134 238.885 194.057 238.472 193.886C238.059 193.712 237.732 193.443 237.489 193.08C237.251 192.716 237.133 192.261 237.137 191.716V183.182ZM246.085 194.17C245.21 194.17 244.455 193.989 243.818 193.625C243.186 193.258 242.699 192.739 242.358 192.068C242.017 191.394 241.847 190.6 241.847 189.688C241.847 188.79 242.017 188.002 242.358 187.324C242.703 186.642 243.184 186.112 243.801 185.733C244.419 185.35 245.144 185.159 245.978 185.159C246.515 185.159 247.023 185.246 247.5 185.42C247.981 185.591 248.406 185.856 248.773 186.216C249.144 186.576 249.436 187.034 249.648 187.591C249.86 188.144 249.966 188.803 249.966 189.568V190.199H242.813V188.812H247.995C247.991 188.419 247.906 188.068 247.739 187.761C247.572 187.451 247.339 187.206 247.04 187.028C246.745 186.85 246.4 186.761 246.006 186.761C245.585 186.761 245.216 186.864 244.898 187.068C244.58 187.269 244.332 187.534 244.154 187.864C243.979 188.189 243.89 188.547 243.887 188.938V190.148C243.887 190.655 243.979 191.091 244.165 191.455C244.351 191.814 244.61 192.091 244.943 192.284C245.277 192.473 245.667 192.568 246.114 192.568C246.413 192.568 246.684 192.527 246.926 192.443C247.169 192.356 247.379 192.229 247.557 192.062C247.735 191.896 247.87 191.689 247.96 191.443L249.881 191.659C249.76 192.167 249.529 192.61 249.188 192.989C248.851 193.364 248.419 193.655 247.892 193.864C247.366 194.068 246.763 194.17 246.085 194.17ZM251.386 194V185.273H253.381V186.727H253.471C253.631 186.223 253.903 185.835 254.29 185.562C254.68 185.286 255.125 185.148 255.625 185.148C255.738 185.148 255.865 185.153 256.006 185.165C256.149 185.172 256.269 185.186 256.363 185.205V187.097C256.276 187.066 256.138 187.04 255.949 187.017C255.763 186.991 255.583 186.977 255.409 186.977C255.034 186.977 254.697 187.059 254.398 187.222C254.102 187.381 253.869 187.602 253.699 187.886C253.528 188.17 253.443 188.498 253.443 188.869V194H251.386Z" fill="#0A0A0A"/>
<path d="M223.836 214.696C223.884 214.92 223.976 215.124 224.112 215.308C224.256 215.484 224.444 215.624 224.676 215.728C224.916 215.832 225.2 215.884 225.528 215.884C226.032 215.884 226.408 215.768 226.656 215.536C226.904 215.296 227.028 215.016 227.028 214.696C227.028 214.432 226.948 214.212 226.788 214.036C226.636 213.86 226.42 213.712 226.14 213.592C225.86 213.464 225.54 213.344 225.18 213.232C224.852 213.136 224.536 213.036 224.232 212.932C223.928 212.82 223.652 212.684 223.404 212.524C223.164 212.356 222.972 212.144 222.828 211.888C222.684 211.624 222.616 211.296 222.624 210.904C222.624 210.392 222.744 209.96 222.984 209.608C223.224 209.248 223.56 208.976 223.992 208.792C224.424 208.608 224.92 208.516 225.48 208.516C225.952 208.516 226.376 208.584 226.752 208.72C227.136 208.848 227.46 209.04 227.724 209.296C227.988 209.544 228.184 209.852 228.312 210.22L227.004 210.652C226.956 210.476 226.86 210.32 226.716 210.184C226.572 210.04 226.392 209.928 226.176 209.848C225.968 209.768 225.74 209.724 225.492 209.716C225.22 209.708 224.976 209.748 224.76 209.836C224.552 209.924 224.384 210.052 224.256 210.22C224.128 210.38 224.064 210.568 224.064 210.784C224.064 211.032 224.136 211.228 224.28 211.372C224.424 211.508 224.612 211.624 224.844 211.72C225.084 211.808 225.348 211.9 225.636 211.996C225.972 212.092 226.304 212.204 226.632 212.332C226.968 212.452 227.272 212.608 227.544 212.8C227.824 212.984 228.048 213.22 228.216 213.508C228.384 213.796 228.468 214.156 228.468 214.588C228.468 215.052 228.36 215.472 228.144 215.848C227.936 216.224 227.616 216.524 227.184 216.748C226.752 216.972 226.216 217.084 225.576 217.084C225.056 217.084 224.58 217.008 224.148 216.856C223.724 216.696 223.368 216.472 223.08 216.184C222.8 215.888 222.616 215.54 222.528 215.14L223.836 214.696ZM232.488 217.084C231.888 217.084 231.36 216.952 230.904 216.688C230.456 216.424 230.104 216.056 229.848 215.584C229.6 215.112 229.476 214.568 229.476 213.952C229.476 213.368 229.6 212.848 229.848 212.392C230.096 211.936 230.44 211.576 230.88 211.312C231.32 211.048 231.82 210.916 232.38 210.916C232.948 210.916 233.448 211.04 233.88 211.288C234.312 211.536 234.648 211.884 234.888 212.332C235.136 212.772 235.26 213.284 235.26 213.868C235.26 213.964 235.256 214.068 235.248 214.18C235.24 214.284 235.228 214.396 235.212 214.516H230.94C230.98 214.796 231.068 215.04 231.204 215.248C231.348 215.448 231.528 215.604 231.744 215.716C231.96 215.828 232.208 215.884 232.488 215.884C232.824 215.884 233.124 215.816 233.388 215.68C233.66 215.544 233.848 215.364 233.952 215.14L235.14 215.536C234.9 216.016 234.544 216.396 234.072 216.676C233.6 216.948 233.072 217.084 232.488 217.084ZM233.784 213.412C233.776 213.164 233.708 212.94 233.58 212.74C233.452 212.54 233.284 212.384 233.076 212.272C232.868 212.152 232.636 212.092 232.38 212.092C232.156 212.092 231.944 212.148 231.744 212.26C231.544 212.372 231.372 212.528 231.228 212.728C231.092 212.92 231.004 213.148 230.964 213.412H233.784ZM236.538 211H237.762L237.858 211.564C238.058 211.364 238.294 211.208 238.566 211.096C238.838 210.976 239.134 210.916 239.454 210.916C239.854 210.916 240.214 211 240.534 211.168C240.854 211.328 241.114 211.564 241.314 211.876C241.522 211.564 241.806 211.328 242.166 211.168C242.526 211 242.914 210.916 243.33 210.916C243.802 210.916 244.21 211.016 244.554 211.216C244.906 211.408 245.178 211.696 245.37 212.08C245.562 212.456 245.658 212.928 245.658 213.496V217H244.29V213.676C244.29 213.172 244.182 212.792 243.966 212.536C243.758 212.28 243.45 212.152 243.042 212.152C242.626 212.152 242.302 212.284 242.07 212.548C241.838 212.804 241.722 213.188 241.722 213.7V217H240.366V213.676C240.366 213.172 240.266 212.792 240.066 212.536C239.874 212.28 239.574 212.152 239.166 212.152C238.75 212.152 238.434 212.284 238.218 212.548C238.002 212.804 237.894 213.184 237.894 213.688V217H236.538V211ZM247.348 211H248.704V217H247.348V211ZM248.032 210.088C247.784 210.088 247.576 210.004 247.408 209.836C247.24 209.668 247.156 209.468 247.156 209.236C247.156 208.988 247.24 208.78 247.408 208.612C247.576 208.444 247.784 208.36 248.032 208.36C248.272 208.36 248.476 208.444 248.644 208.612C248.812 208.78 248.896 208.988 248.896 209.236C248.896 209.468 248.812 209.668 248.644 209.836C248.476 210.004 248.272 210.088 248.032 210.088ZM251.695 211.888C251.887 211.616 252.159 211.388 252.511 211.204C252.863 211.012 253.279 210.916 253.759 210.916C254.287 210.916 254.751 211.044 255.151 211.3C255.551 211.556 255.863 211.916 256.087 212.38C256.319 212.844 256.435 213.384 256.435 214C256.435 214.616 256.319 215.156 256.087 215.62C255.863 216.084 255.547 216.444 255.139 216.7C254.739 216.956 254.279 217.084 253.759 217.084C253.303 217.084 252.915 217.004 252.595 216.844C252.275 216.684 252.015 216.488 251.815 216.256L251.719 217H250.495V208.36H251.851V211.924L251.695 211.888ZM254.983 214C254.983 213.448 254.835 213 254.539 212.656C254.251 212.312 253.879 212.14 253.423 212.14C253.135 212.14 252.871 212.212 252.631 212.356C252.399 212.5 252.211 212.712 252.067 212.992C251.923 213.264 251.851 213.6 251.851 214C251.851 214.4 251.923 214.74 252.067 215.02C252.211 215.292 252.399 215.5 252.631 215.644C252.871 215.788 253.135 215.86 253.423 215.86C253.879 215.86 254.251 215.688 254.539 215.344C254.835 215 254.983 214.552 254.983 214ZM260.308 217.084C259.732 217.084 259.216 216.96 258.76 216.712C258.304 216.456 257.948 216.1 257.692 215.644C257.436 215.18 257.308 214.636 257.308 214.012C257.308 213.38 257.44 212.832 257.704 212.368C257.968 211.904 258.332 211.548 258.796 211.3C259.26 211.044 259.776 210.916 260.344 210.916C260.92 210.916 261.436 211.044 261.892 211.3C262.356 211.548 262.724 211.904 262.996 212.368C263.268 212.824 263.404 213.364 263.404 213.988C263.404 214.62 263.264 215.168 262.984 215.632C262.712 216.096 262.34 216.456 261.868 216.712C261.404 216.96 260.884 217.084 260.308 217.084ZM260.296 215.872C260.576 215.872 260.84 215.804 261.088 215.668C261.344 215.532 261.552 215.328 261.712 215.056C261.872 214.776 261.952 214.42 261.952 213.988C261.952 213.572 261.876 213.228 261.724 212.956C261.572 212.676 261.372 212.468 261.124 212.332C260.876 212.196 260.608 212.128 260.32 212.128C260.04 212.128 259.78 212.196 259.54 212.332C259.308 212.468 259.12 212.676 258.976 212.956C258.832 213.228 258.76 213.58 258.76 214.012C258.76 214.428 258.828 214.776 258.964 215.056C259.108 215.328 259.296 215.532 259.528 215.668C259.76 215.804 260.016 215.872 260.296 215.872ZM264.675 208.36H266.031V217H264.675V208.36ZM272.033 211.888L271.877 211.924V208.36H273.233V217H272.009L271.913 216.256C271.705 216.488 271.441 216.684 271.121 216.844C270.801 217.004 270.421 217.084 269.98 217.084C269.445 217.084 268.973 216.956 268.565 216.7C268.165 216.444 267.853 216.084 267.629 215.62C267.405 215.156 267.293 214.616 267.293 214C267.293 213.384 267.405 212.844 267.629 212.38C267.853 211.916 268.165 211.556 268.565 211.3C268.973 211.044 269.445 210.916 269.98 210.916C270.453 210.916 270.865 211.012 271.217 211.204C271.569 211.388 271.841 211.616 272.033 211.888ZM268.745 214C268.745 214.552 268.889 215 269.177 215.344C269.465 215.688 269.841 215.86 270.305 215.86C270.585 215.86 270.841 215.788 271.073 215.644C271.313 215.5 271.505 215.292 271.649 215.02C271.801 214.74 271.877 214.4 271.877 214C271.877 213.6 271.801 213.264 271.649 212.992C271.505 212.712 271.313 212.5 271.073 212.356C270.841 212.212 270.585 212.14 270.305 212.14C269.841 212.14 269.465 212.312 269.177 212.656C268.889 213 268.745 213.448 268.745 214Z" fill="#5A5C60"/>
<rect x="309" y="166" width="142" height="66" rx="12" fill="#E8E8E8"/>
<rect x="329" y="174" width="46" height="50" rx="10" fill="#CBCBCB"/>
<path d="M340.392 208H337.597L343.878 190.545H346.92L353.202 208H350.406L345.472 193.716H345.335L340.392 208ZM340.861 201.165H349.929V203.381H340.861V201.165ZM358.847 208.29C358.018 208.29 357.268 208.136 356.597 207.83C355.927 207.517 355.396 207.065 355.004 206.474C354.617 205.884 354.424 205.159 354.424 204.301C354.424 203.562 354.566 202.955 354.85 202.477C355.134 202 355.518 201.622 356.001 201.344C356.484 201.065 357.024 200.855 357.62 200.713C358.217 200.571 358.825 200.463 359.444 200.389C360.228 200.298 360.864 200.224 361.353 200.168C361.842 200.105 362.197 200.006 362.418 199.869C362.64 199.733 362.751 199.511 362.751 199.205V199.145C362.751 198.401 362.541 197.824 362.12 197.415C361.705 197.006 361.086 196.801 360.262 196.801C359.404 196.801 358.728 196.991 358.234 197.372C357.745 197.747 357.407 198.165 357.22 198.625L354.825 198.08C355.109 197.284 355.524 196.642 356.069 196.153C356.62 195.659 357.254 195.301 357.97 195.08C358.685 194.852 359.438 194.739 360.228 194.739C360.751 194.739 361.305 194.801 361.89 194.926C362.481 195.045 363.032 195.267 363.543 195.591C364.06 195.915 364.484 196.378 364.813 196.98C365.143 197.577 365.308 198.352 365.308 199.307V208H362.819V206.21H362.717C362.552 206.54 362.305 206.864 361.975 207.182C361.646 207.5 361.222 207.764 360.705 207.974C360.188 208.185 359.569 208.29 358.847 208.29ZM359.401 206.244C360.106 206.244 360.708 206.105 361.208 205.827C361.714 205.548 362.097 205.185 362.359 204.736C362.626 204.281 362.759 203.795 362.759 203.278V201.591C362.668 201.682 362.492 201.767 362.231 201.847C361.975 201.92 361.683 201.986 361.353 202.043C361.024 202.094 360.703 202.142 360.39 202.188C360.078 202.227 359.816 202.261 359.606 202.29C359.112 202.352 358.66 202.457 358.251 202.605C357.847 202.753 357.524 202.966 357.279 203.244C357.041 203.517 356.921 203.881 356.921 204.335C356.921 204.966 357.154 205.443 357.62 205.767C358.086 206.085 358.68 206.244 359.401 206.244Z" fill="#222124"/>
<path d="M388.256 182.364V194H386.148V182.364H388.256ZM392.184 188.886V194H390.127V185.273H392.093V186.756H392.196C392.396 186.267 392.716 185.879 393.156 185.591C393.599 185.303 394.146 185.159 394.798 185.159C395.4 185.159 395.925 185.288 396.372 185.545C396.823 185.803 397.171 186.176 397.417 186.665C397.667 187.153 397.79 187.746 397.787 188.443V194H395.73V188.761C395.73 188.178 395.578 187.722 395.275 187.392C394.976 187.062 394.561 186.898 394.031 186.898C393.671 186.898 393.351 186.977 393.071 187.136C392.794 187.292 392.576 187.517 392.417 187.812C392.262 188.108 392.184 188.466 392.184 188.886ZM403.915 185.273V186.864H398.898V185.273H403.915ZM400.137 183.182H402.194V191.375C402.194 191.652 402.235 191.864 402.319 192.011C402.406 192.155 402.52 192.254 402.66 192.307C402.8 192.36 402.955 192.386 403.126 192.386C403.254 192.386 403.372 192.377 403.478 192.358C403.588 192.339 403.671 192.322 403.728 192.307L404.074 193.915C403.965 193.953 403.807 193.994 403.603 194.04C403.402 194.085 403.156 194.112 402.864 194.119C402.349 194.134 401.885 194.057 401.472 193.886C401.059 193.712 400.732 193.443 400.489 193.08C400.251 192.716 400.133 192.261 400.137 191.716V183.182ZM409.085 194.17C408.21 194.17 407.455 193.989 406.818 193.625C406.186 193.258 405.699 192.739 405.358 192.068C405.017 191.394 404.847 190.6 404.847 189.688C404.847 188.79 405.017 188.002 405.358 187.324C405.703 186.642 406.184 186.112 406.801 185.733C407.419 185.35 408.144 185.159 408.978 185.159C409.515 185.159 410.023 185.246 410.5 185.42C410.981 185.591 411.406 185.856 411.773 186.216C412.144 186.576 412.436 187.034 412.648 187.591C412.86 188.144 412.966 188.803 412.966 189.568V190.199H405.813V188.812H410.995C410.991 188.419 410.906 188.068 410.739 187.761C410.572 187.451 410.339 187.206 410.04 187.028C409.745 186.85 409.4 186.761 409.006 186.761C408.585 186.761 408.216 186.864 407.898 187.068C407.58 187.269 407.332 187.534 407.154 187.864C406.979 188.189 406.89 188.547 406.887 188.938V190.148C406.887 190.655 406.979 191.091 407.165 191.455C407.351 191.814 407.61 192.091 407.943 192.284C408.277 192.473 408.667 192.568 409.114 192.568C409.413 192.568 409.684 192.527 409.926 192.443C410.169 192.356 410.379 192.229 410.557 192.062C410.735 191.896 410.87 191.689 410.96 191.443L412.881 191.659C412.76 192.167 412.529 192.61 412.188 192.989C411.851 193.364 411.419 193.655 410.892 193.864C410.366 194.068 409.763 194.17 409.085 194.17ZM414.386 194V185.273H416.381V186.727H416.471C416.631 186.223 416.903 185.835 417.29 185.562C417.68 185.286 418.125 185.148 418.625 185.148C418.738 185.148 418.865 185.153 419.006 185.165C419.149 185.172 419.269 185.186 419.363 185.205V187.097C419.276 187.066 419.138 187.04 418.949 187.017C418.763 186.991 418.583 186.977 418.409 186.977C418.034 186.977 417.697 187.059 417.398 187.222C417.102 187.381 416.869 187.602 416.699 187.886C416.528 188.17 416.443 188.498 416.443 188.869V194H414.386Z" fill="#0A0A0A"/>
<path d="M387.304 217H385.876V208.6H387.472L390.304 215.128L393.136 208.6H394.72V217H393.304V211.324L390.844 217H389.764L387.304 211.324V217ZM399.097 217.084C398.497 217.084 397.969 216.952 397.513 216.688C397.065 216.424 396.713 216.056 396.457 215.584C396.209 215.112 396.085 214.568 396.085 213.952C396.085 213.368 396.209 212.848 396.457 212.392C396.705 211.936 397.049 211.576 397.489 211.312C397.929 211.048 398.429 210.916 398.989 210.916C399.557 210.916 400.057 211.04 400.489 211.288C400.921 211.536 401.257 211.884 401.497 212.332C401.745 212.772 401.869 213.284 401.869 213.868C401.869 213.964 401.865 214.068 401.857 214.18C401.849 214.284 401.837 214.396 401.821 214.516H397.549C397.589 214.796 397.677 215.04 397.813 215.248C397.957 215.448 398.137 215.604 398.353 215.716C398.569 215.828 398.817 215.884 399.097 215.884C399.433 215.884 399.733 215.816 399.997 215.68C400.269 215.544 400.457 215.364 400.561 215.14L401.749 215.536C401.509 216.016 401.153 216.396 400.681 216.676C400.209 216.948 399.681 217.084 399.097 217.084ZM400.393 213.412C400.385 213.164 400.317 212.94 400.189 212.74C400.061 212.54 399.893 212.384 399.685 212.272C399.477 212.152 399.245 212.092 398.989 212.092C398.765 212.092 398.553 212.148 398.353 212.26C398.153 212.372 397.981 212.528 397.837 212.728C397.701 212.92 397.613 213.148 397.573 213.412H400.393ZM407.564 211.888L407.408 211.924V208.36H408.764V217H407.54L407.444 216.256C407.236 216.488 406.972 216.684 406.652 216.844C406.332 217.004 405.952 217.084 405.512 217.084C404.976 217.084 404.504 216.956 404.096 216.7C403.696 216.444 403.384 216.084 403.16 215.62C402.936 215.156 402.824 214.616 402.824 214C402.824 213.384 402.936 212.844 403.16 212.38C403.384 211.916 403.696 211.556 404.096 211.3C404.504 211.044 404.976 210.916 405.512 210.916C405.984 210.916 406.396 211.012 406.748 211.204C407.1 211.388 407.372 211.616 407.564 211.888ZM404.276 214C404.276 214.552 404.42 215 404.708 215.344C404.996 215.688 405.372 215.86 405.836 215.86C406.116 215.86 406.372 215.788 406.604 215.644C406.844 215.5 407.036 215.292 407.18 215.02C407.332 214.74 407.408 214.4 407.408 214C407.408 213.6 407.332 213.264 407.18 212.992C407.036 212.712 406.844 212.5 406.604 212.356C406.372 212.212 406.116 212.14 405.836 212.14C405.372 212.14 404.996 212.312 404.708 212.656C404.42 213 404.276 213.448 404.276 214ZM410.547 211H411.903V217H410.547V211ZM411.231 210.088C410.983 210.088 410.775 210.004 410.607 209.836C410.439 209.668 410.355 209.468 410.355 209.236C410.355 208.988 410.439 208.78 410.607 208.612C410.775 208.444 410.983 208.36 411.231 208.36C411.471 208.36 411.675 208.444 411.843 208.612C412.011 208.78 412.095 208.988 412.095 209.236C412.095 209.468 412.011 209.668 411.843 209.836C411.675 210.004 411.471 210.088 411.231 210.088ZM418.831 217H417.583L417.499 216.4C417.299 216.616 417.059 216.784 416.779 216.904C416.499 217.024 416.203 217.084 415.891 217.084C415.419 217.084 415.011 216.988 414.667 216.796C414.331 216.596 414.071 216.308 413.887 215.932C413.703 215.548 413.611 215.076 413.611 214.516V211H414.967V214.336C414.967 214.832 415.067 215.212 415.267 215.476C415.467 215.732 415.775 215.86 416.191 215.86C416.591 215.86 416.903 215.732 417.127 215.476C417.359 215.212 417.475 214.824 417.475 214.312V211H418.831V217ZM420.409 211H421.633L421.729 211.564C421.929 211.364 422.165 211.208 422.437 211.096C422.709 210.976 423.005 210.916 423.325 210.916C423.725 210.916 424.085 211 424.405 211.168C424.725 211.328 424.985 211.564 425.185 211.876C425.393 211.564 425.677 211.328 426.037 211.168C426.397 211 426.785 210.916 427.201 210.916C427.673 210.916 428.081 211.016 428.425 211.216C428.777 211.408 429.049 211.696 429.241 212.08C429.433 212.456 429.529 212.928 429.529 213.496V217H428.161V213.676C428.161 213.172 428.053 212.792 427.837 212.536C427.629 212.28 427.321 212.152 426.913 212.152C426.497 212.152 426.173 212.284 425.941 212.548C425.709 212.804 425.593 213.188 425.593 213.7V217H424.237V213.676C424.237 213.172 424.137 212.792 423.937 212.536C423.745 212.28 423.445 212.152 423.037 212.152C422.621 212.152 422.305 212.284 422.089 212.548C421.873 212.804 421.765 213.184 421.765 213.688V217H420.409V211Z" fill="#5A5C60"/>
<rect x="465" y="166" width="139" height="66" rx="12" fill="#E8E8E8"/>
<rect x="485" y="174" width="46" height="50" rx="10" fill="#CBCBCB"/>
<path d="M495.83 208H493.614L500.023 190.545H502.205L508.614 208H506.398L501.182 193.307H501.045L495.83 208ZM496.648 201.182H505.58V203.057H496.648V201.182ZM514.432 208.307C513.602 208.307 512.85 208.151 512.173 207.838C511.497 207.52 510.96 207.062 510.563 206.466C510.165 205.864 509.966 205.136 509.966 204.284C509.966 203.534 510.114 202.926 510.409 202.46C510.705 201.989 511.1 201.619 511.594 201.352C512.088 201.085 512.634 200.886 513.23 200.756C513.833 200.619 514.438 200.511 515.046 200.432C515.841 200.33 516.486 200.253 516.98 200.202C517.48 200.145 517.844 200.051 518.071 199.92C518.304 199.79 518.421 199.562 518.421 199.239V199.17C518.421 198.33 518.19 197.676 517.73 197.21C517.276 196.744 516.585 196.511 515.659 196.511C514.699 196.511 513.946 196.722 513.401 197.142C512.855 197.562 512.472 198.011 512.25 198.489L510.341 197.807C510.682 197.011 511.136 196.392 511.705 195.949C512.279 195.5 512.904 195.187 513.58 195.011C514.261 194.83 514.932 194.739 515.591 194.739C516.011 194.739 516.494 194.79 517.04 194.892C517.591 194.989 518.122 195.19 518.634 195.497C519.151 195.804 519.58 196.267 519.921 196.886C520.261 197.506 520.432 198.335 520.432 199.375V208H518.421V206.227H518.318C518.182 206.511 517.955 206.815 517.636 207.139C517.318 207.463 516.895 207.739 516.367 207.966C515.838 208.193 515.193 208.307 514.432 208.307ZM514.739 206.5C515.534 206.5 516.205 206.344 516.75 206.031C517.301 205.719 517.716 205.315 517.994 204.821C518.279 204.327 518.421 203.807 518.421 203.261V201.42C518.335 201.523 518.148 201.616 517.858 201.702C517.574 201.781 517.244 201.852 516.869 201.915C516.5 201.972 516.139 202.023 515.787 202.068C515.44 202.108 515.159 202.142 514.943 202.17C514.421 202.239 513.932 202.349 513.477 202.503C513.029 202.651 512.665 202.875 512.386 203.176C512.114 203.472 511.977 203.875 511.977 204.386C511.977 205.085 512.236 205.614 512.753 205.972C513.276 206.324 513.938 206.5 514.739 206.5Z" fill="#222124"/>
<path d="M544.256 182.364V194H542.148V182.364H544.256ZM548.184 188.886V194H546.127V185.273H548.093V186.756H548.196C548.396 186.267 548.716 185.879 549.156 185.591C549.599 185.303 550.146 185.159 550.798 185.159C551.4 185.159 551.925 185.288 552.372 185.545C552.823 185.803 553.171 186.176 553.417 186.665C553.667 187.153 553.79 187.746 553.787 188.443V194H551.73V188.761C551.73 188.178 551.578 187.722 551.275 187.392C550.976 187.062 550.561 186.898 550.031 186.898C549.671 186.898 549.351 186.977 549.071 187.136C548.794 187.292 548.576 187.517 548.417 187.812C548.262 188.108 548.184 188.466 548.184 188.886ZM559.915 185.273V186.864H554.898V185.273H559.915ZM556.137 183.182H558.194V191.375C558.194 191.652 558.235 191.864 558.319 192.011C558.406 192.155 558.52 192.254 558.66 192.307C558.8 192.36 558.955 192.386 559.126 192.386C559.254 192.386 559.372 192.377 559.478 192.358C559.588 192.339 559.671 192.322 559.728 192.307L560.074 193.915C559.965 193.953 559.807 193.994 559.603 194.04C559.402 194.085 559.156 194.112 558.864 194.119C558.349 194.134 557.885 194.057 557.472 193.886C557.059 193.712 556.732 193.443 556.489 193.08C556.251 192.716 556.133 192.261 556.137 191.716V183.182ZM565.085 194.17C564.21 194.17 563.455 193.989 562.818 193.625C562.186 193.258 561.699 192.739 561.358 192.068C561.017 191.394 560.847 190.6 560.847 189.688C560.847 188.79 561.017 188.002 561.358 187.324C561.703 186.642 562.184 186.112 562.801 185.733C563.419 185.35 564.144 185.159 564.978 185.159C565.515 185.159 566.023 185.246 566.5 185.42C566.981 185.591 567.406 185.856 567.773 186.216C568.144 186.576 568.436 187.034 568.648 187.591C568.86 188.144 568.966 188.803 568.966 189.568V190.199H561.813V188.812H566.995C566.991 188.419 566.906 188.068 566.739 187.761C566.572 187.451 566.339 187.206 566.04 187.028C565.745 186.85 565.4 186.761 565.006 186.761C564.585 186.761 564.216 186.864 563.898 187.068C563.58 187.269 563.332 187.534 563.154 187.864C562.979 188.189 562.89 188.547 562.887 188.938V190.148C562.887 190.655 562.979 191.091 563.165 191.455C563.351 191.814 563.61 192.091 563.943 192.284C564.277 192.473 564.667 192.568 565.114 192.568C565.413 192.568 565.684 192.527 565.926 192.443C566.169 192.356 566.379 192.229 566.557 192.062C566.735 191.896 566.87 191.689 566.96 191.443L568.881 191.659C568.76 192.167 568.529 192.61 568.188 192.989C567.851 193.364 567.419 193.655 566.892 193.864C566.366 194.068 565.763 194.17 565.085 194.17ZM570.386 194V185.273H572.381V186.727H572.471C572.631 186.223 572.903 185.835 573.29 185.562C573.68 185.286 574.125 185.148 574.625 185.148C574.738 185.148 574.865 185.153 575.006 185.165C575.149 185.172 575.269 185.186 575.363 185.205V187.097C575.276 187.066 575.138 187.04 574.949 187.017C574.763 186.991 574.583 186.977 574.409 186.977C574.034 186.977 573.697 187.059 573.398 187.222C573.102 187.381 572.869 187.602 572.699 187.886C572.528 188.17 572.443 188.498 572.443 188.869V194H570.386Z" fill="#0A0A0A"/>
<path d="M546.688 211.132C546.688 210.716 546.564 210.388 546.316 210.148C546.068 209.908 545.684 209.788 545.164 209.788H543.304V212.488H545.164C545.516 212.488 545.8 212.436 546.016 212.332C546.24 212.22 546.408 212.064 546.52 211.864C546.632 211.656 546.688 211.412 546.688 211.132ZM545.164 208.6C545.836 208.6 546.388 208.716 546.82 208.948C547.26 209.172 547.588 209.48 547.804 209.872C548.02 210.256 548.128 210.676 548.128 211.132C548.128 211.436 548.076 211.736 547.972 212.032C547.868 212.328 547.7 212.604 547.468 212.86C547.236 213.108 546.928 213.308 546.544 213.46C546.168 213.604 545.708 213.676 545.164 213.676H543.304V217H541.876V208.6H545.164ZM546.016 213.208L548.308 217H546.7L544.492 213.208H546.016ZM552.25 217.084C551.65 217.084 551.122 216.952 550.666 216.688C550.218 216.424 549.866 216.056 549.61 215.584C549.362 215.112 549.238 214.568 549.238 213.952C549.238 213.368 549.362 212.848 549.61 212.392C549.858 211.936 550.202 211.576 550.642 211.312C551.082 211.048 551.582 210.916 552.142 210.916C552.71 210.916 553.21 211.04 553.642 211.288C554.074 211.536 554.41 211.884 554.65 212.332C554.898 212.772 555.022 213.284 555.022 213.868C555.022 213.964 555.018 214.068 555.01 214.18C555.002 214.284 554.99 214.396 554.974 214.516H550.702C550.742 214.796 550.83 215.04 550.966 215.248C551.11 215.448 551.29 215.604 551.506 215.716C551.722 215.828 551.97 215.884 552.25 215.884C552.586 215.884 552.886 215.816 553.15 215.68C553.422 215.544 553.61 215.364 553.714 215.14L554.902 215.536C554.662 216.016 554.306 216.396 553.834 216.676C553.362 216.948 552.834 217.084 552.25 217.084ZM553.546 213.412C553.538 213.164 553.47 212.94 553.342 212.74C553.214 212.54 553.046 212.384 552.838 212.272C552.63 212.152 552.398 212.092 552.142 212.092C551.918 212.092 551.706 212.148 551.506 212.26C551.306 212.372 551.134 212.528 550.99 212.728C550.854 212.92 550.766 213.148 550.726 213.412H553.546ZM560.692 211H561.916V216.1C561.916 216.78 561.748 217.364 561.412 217.852C561.076 218.348 560.592 218.728 559.96 218.992C559.328 219.264 558.568 219.4 557.68 219.4L557.476 218.236C558.484 218.212 559.248 218.02 559.768 217.66C560.296 217.3 560.56 216.784 560.56 216.112V216.1H560.716C560.532 216.372 560.264 216.604 559.912 216.796C559.568 216.988 559.156 217.084 558.676 217.084C558.148 217.084 557.68 216.956 557.272 216.7C556.864 216.444 556.544 216.084 556.312 215.62C556.088 215.156 555.976 214.616 555.976 214C555.976 213.384 556.088 212.844 556.312 212.38C556.544 211.916 556.864 211.556 557.272 211.3C557.68 211.044 558.148 210.916 558.676 210.916C558.972 210.916 559.24 210.956 559.48 211.036C559.728 211.108 559.944 211.208 560.128 211.336C560.32 211.456 560.476 211.592 560.596 211.744L560.692 211ZM557.428 214C557.428 214.552 557.572 215 557.86 215.344C558.148 215.688 558.532 215.86 559.012 215.86C559.292 215.86 559.548 215.788 559.78 215.644C560.012 215.492 560.2 215.276 560.344 214.996C560.488 214.716 560.56 214.384 560.56 214C560.56 213.6 560.488 213.264 560.344 212.992C560.2 212.712 560.008 212.5 559.768 212.356C559.536 212.212 559.284 212.14 559.012 212.14C558.532 212.14 558.148 212.312 557.86 212.656C557.572 212.992 557.428 213.44 557.428 214ZM568.643 217H567.395L567.311 216.4C567.111 216.616 566.871 216.784 566.591 216.904C566.311 217.024 566.015 217.084 565.703 217.084C565.231 217.084 564.823 216.988 564.479 216.796C564.143 216.596 563.883 216.308 563.699 215.932C563.515 215.548 563.423 215.076 563.423 214.516V211H564.779V214.336C564.779 214.832 564.879 215.212 565.079 215.476C565.279 215.732 565.587 215.86 566.003 215.86C566.403 215.86 566.715 215.732 566.939 215.476C567.171 215.212 567.287 214.824 567.287 214.312V211H568.643V217ZM570.222 208.36H571.578V217H570.222V208.36ZM576.739 217L576.619 216.268C576.427 216.524 576.199 216.72 575.935 216.856C575.671 216.992 575.319 217.06 574.879 217.06C574.463 217.06 574.103 216.992 573.799 216.856C573.495 216.712 573.259 216.516 573.091 216.268C572.931 216.012 572.851 215.716 572.851 215.38C572.851 214.876 573.035 214.456 573.403 214.12C573.779 213.776 574.327 213.564 575.047 213.484L576.619 213.316V212.848C576.619 212.656 576.535 212.484 576.367 212.332C576.199 212.172 575.931 212.092 575.563 212.092C575.243 212.092 574.963 212.172 574.723 212.332C574.491 212.484 574.335 212.716 574.255 213.028L573.079 212.596C573.231 212.068 573.531 211.656 573.979 211.36C574.435 211.064 574.987 210.916 575.635 210.916C576.419 210.916 577.007 211.112 577.399 211.504C577.791 211.896 577.987 212.396 577.987 213.004V217H576.739ZM576.619 214.36L575.179 214.54C574.875 214.58 574.647 214.668 574.495 214.804C574.343 214.932 574.267 215.096 574.267 215.296C574.267 215.48 574.339 215.64 574.483 215.776C574.635 215.904 574.839 215.968 575.095 215.968C575.423 215.968 575.699 215.908 575.923 215.788C576.155 215.668 576.327 215.496 576.439 215.272C576.559 215.048 576.619 214.772 576.619 214.444V214.36ZM579.492 211H580.716L580.824 211.744C580.984 211.544 581.172 211.38 581.388 211.252C581.604 211.116 581.836 211.024 582.084 210.976C582.34 210.928 582.596 210.936 582.852 211V212.248C582.644 212.176 582.42 212.16 582.18 212.2C581.948 212.232 581.732 212.32 581.532 212.464C581.332 212.6 581.168 212.796 581.04 213.052C580.912 213.3 580.848 213.608 580.848 213.976V217H579.492V211Z" fill="#5A5C60"/>
</svg>
