<svg width="507" height="250" viewBox="0 0 707 349" fill="none" xmlns="http://www.w3.org/2000/svg">
<path d="M25.89 28V15.4H30.804C31.908 15.4 32.85 15.574 33.63 15.922C34.41 16.27 35.01 16.774 35.43 17.434C35.85 18.094 36.06 18.88 36.06 19.792C36.06 20.704 35.85 21.49 35.43 22.15C35.01 22.798 34.41 23.302 33.63 23.662C32.85 24.01 31.908 24.184 30.804 24.184H26.88L27.69 23.338V28H25.89ZM27.69 23.518L26.88 22.618H30.75C31.902 22.618 32.772 22.372 33.36 21.88C33.96 21.388 34.26 20.692 34.26 19.792C34.26 18.892 33.96 18.196 33.36 17.704C32.772 17.212 31.902 16.966 30.75 16.966H26.88L27.69 16.066V23.518ZM37.9167 28V18.46H39.5727V21.052L39.4107 20.404C39.6747 19.744 40.1187 19.24 40.7427 18.892C41.3667 18.544 42.1347 18.37 43.0467 18.37V20.044C42.9747 20.032 42.9027 20.026 42.8307 20.026C42.7707 20.026 42.7107 20.026 42.6507 20.026C41.7267 20.026 40.9947 20.302 40.4547 20.854C39.9147 21.406 39.6447 22.204 39.6447 23.248V28H37.9167ZM44.8164 28V18.46H46.5444V28H44.8164ZM45.6804 16.624C45.3444 16.624 45.0624 16.516 44.8344 16.3C44.6184 16.084 44.5104 15.82 44.5104 15.508C44.5104 15.184 44.6184 14.914 44.8344 14.698C45.0624 14.482 45.3444 14.374 45.6804 14.374C46.0164 14.374 46.2924 14.482 46.5084 14.698C46.7364 14.902 46.8504 15.16 46.8504 15.472C46.8504 15.796 46.7424 16.072 46.5264 16.3C46.3104 16.516 46.0284 16.624 45.6804 16.624ZM61.4178 18.37C62.1858 18.37 62.8638 18.52 63.4518 18.82C64.0398 19.12 64.4958 19.576 64.8198 20.188C65.1558 20.8 65.3238 21.574 65.3238 22.51V28H63.5958V22.708C63.5958 21.784 63.3798 21.088 62.9478 20.62C62.5158 20.152 61.9098 19.918 61.1298 19.918C60.5538 19.918 60.0498 20.038 59.6178 20.278C59.1858 20.518 58.8498 20.872 58.6098 21.34C58.3818 21.808 58.2678 22.39 58.2678 23.086V28H56.5398V22.708C56.5398 21.784 56.3238 21.088 55.8918 20.62C55.4718 20.152 54.8658 19.918 54.0738 19.918C53.5098 19.918 53.0118 20.038 52.5798 20.278C52.1478 20.518 51.8118 20.872 51.5718 21.34C51.3318 21.808 51.2118 22.39 51.2118 23.086V28H49.4838V18.46H51.1398V20.998L50.8698 20.35C51.1698 19.726 51.6318 19.24 52.2558 18.892C52.8798 18.544 53.6058 18.37 54.4338 18.37C55.3458 18.37 56.1318 18.598 56.7918 19.054C57.4518 19.498 57.8838 20.176 58.0878 21.088L57.3858 20.8C57.6738 20.068 58.1778 19.48 58.8978 19.036C59.6178 18.592 60.4578 18.37 61.4178 18.37ZM74.0653 28V25.984L73.9753 25.606V22.168C73.9753 21.436 73.7593 20.872 73.3273 20.476C72.9073 20.068 72.2713 19.864 71.4193 19.864C70.8553 19.864 70.3033 19.96 69.7633 20.152C69.2233 20.332 68.7673 20.578 68.3953 20.89L67.6753 19.594C68.1673 19.198 68.7553 18.898 69.4393 18.694C70.1353 18.478 70.8613 18.37 71.6173 18.37C72.9253 18.37 73.9333 18.688 74.6413 19.324C75.3493 19.96 75.7033 20.932 75.7033 22.24V28H74.0653ZM70.9333 28.108C70.2253 28.108 69.6013 27.988 69.0613 27.748C68.5333 27.508 68.1253 27.178 67.8373 26.758C67.5493 26.326 67.4053 25.84 67.4053 25.3C67.4053 24.784 67.5253 24.316 67.7653 23.896C68.0173 23.476 68.4193 23.14 68.9713 22.888C69.5353 22.636 70.2913 22.51 71.2393 22.51H74.2633V23.752H71.3113C70.4473 23.752 69.8653 23.896 69.5653 24.184C69.2653 24.472 69.1153 24.82 69.1153 25.228C69.1153 25.696 69.3013 26.074 69.6733 26.362C70.0453 26.638 70.5613 26.776 71.2213 26.776C71.8693 26.776 72.4333 26.632 72.9133 26.344C73.4053 26.056 73.7593 25.636 73.9753 25.084L74.3173 26.272C74.0893 26.836 73.6873 27.286 73.1113 27.622C72.5353 27.946 71.8093 28.108 70.9333 28.108ZM78.5411 28V18.46H80.1971V21.052L80.0351 20.404C80.2991 19.744 80.7431 19.24 81.3671 18.892C81.9911 18.544 82.7591 18.37 83.6711 18.37V20.044C83.5991 20.032 83.5271 20.026 83.4551 20.026C83.3951 20.026 83.3351 20.026 83.2751 20.026C82.3511 20.026 81.6191 20.302 81.0791 20.854C80.5391 21.406 80.2691 22.204 80.2691 23.248V28H78.5411ZM86.2416 31.6C85.7856 31.6 85.3416 31.522 84.9096 31.366C84.4776 31.222 84.1056 31.006 83.7936 30.718L84.5316 29.422C84.7716 29.65 85.0356 29.824 85.3236 29.944C85.6116 30.064 85.9176 30.124 86.2416 30.124C86.6616 30.124 87.0096 30.016 87.2856 29.8C87.5616 29.584 87.8196 29.2 88.0596 28.648L88.6536 27.334L88.8336 27.118L92.5776 18.46H94.2696L89.6436 28.954C89.3676 29.626 89.0556 30.154 88.7076 30.538C88.3716 30.922 87.9996 31.192 87.5916 31.348C87.1836 31.516 86.7336 31.6 86.2416 31.6ZM88.5096 28.306L84.1536 18.46H85.9536L89.6616 26.956L88.5096 28.306ZM105.882 28.144C104.922 28.144 104.034 27.988 103.218 27.676C102.414 27.352 101.712 26.902 101.112 26.326C100.524 25.738 100.062 25.054 99.7263 24.274C99.3903 23.494 99.2223 22.636 99.2223 21.7C99.2223 20.764 99.3903 19.906 99.7263 19.126C100.062 18.346 100.53 17.668 101.13 17.092C101.73 16.504 102.432 16.054 103.236 15.742C104.052 15.418 104.94 15.256 105.9 15.256C106.872 15.256 107.766 15.424 108.582 15.76C109.41 16.084 110.112 16.57 110.688 17.218L109.518 18.352C109.038 17.848 108.498 17.476 107.898 17.236C107.298 16.984 106.656 16.858 105.972 16.858C105.264 16.858 104.604 16.978 103.992 17.218C103.392 17.458 102.87 17.794 102.426 18.226C101.982 18.658 101.634 19.174 101.382 19.774C101.142 20.362 101.022 21.004 101.022 21.7C101.022 22.396 101.142 23.044 101.382 23.644C101.634 24.232 101.982 24.742 102.426 25.174C102.87 25.606 103.392 25.942 103.992 26.182C104.604 26.422 105.264 26.542 105.972 26.542C106.656 26.542 107.298 26.422 107.898 26.182C108.498 25.93 109.038 25.546 109.518 25.03L110.688 26.164C110.112 26.812 109.41 27.304 108.582 27.64C107.766 27.976 106.866 28.144 105.882 28.144ZM116.326 28.108C115.366 28.108 114.514 27.898 113.77 27.478C113.026 27.058 112.438 26.482 112.006 25.75C111.574 25.006 111.358 24.166 111.358 23.23C111.358 22.282 111.574 21.442 112.006 20.71C112.438 19.978 113.026 19.408 113.77 19C114.514 18.58 115.366 18.37 116.326 18.37C117.274 18.37 118.12 18.58 118.864 19C119.62 19.408 120.208 19.978 120.628 20.71C121.06 21.43 121.276 22.27 121.276 23.23C121.276 24.178 121.06 25.018 120.628 25.75C120.208 26.482 119.62 27.058 118.864 27.478C118.12 27.898 117.274 28.108 116.326 28.108ZM116.326 26.596C116.938 26.596 117.484 26.458 117.964 26.182C118.456 25.906 118.84 25.516 119.116 25.012C119.392 24.496 119.53 23.902 119.53 23.23C119.53 22.546 119.392 21.958 119.116 21.466C118.84 20.962 118.456 20.572 117.964 20.296C117.484 20.02 116.938 19.882 116.326 19.882C115.714 19.882 115.168 20.02 114.688 20.296C114.208 20.572 113.824 20.962 113.536 21.466C113.248 21.958 113.104 22.546 113.104 23.23C113.104 23.902 113.248 24.496 113.536 25.012C113.824 25.516 114.208 25.906 114.688 26.182C115.168 26.458 115.714 26.596 116.326 26.596ZM123.306 28V14.644H125.034V28H123.306ZM132.059 28.108C131.099 28.108 130.247 27.898 129.503 27.478C128.759 27.058 128.171 26.482 127.739 25.75C127.307 25.006 127.091 24.166 127.091 23.23C127.091 22.282 127.307 21.442 127.739 20.71C128.171 19.978 128.759 19.408 129.503 19C130.247 18.58 131.099 18.37 132.059 18.37C133.007 18.37 133.853 18.58 134.597 19C135.353 19.408 135.941 19.978 136.361 20.71C136.793 21.43 137.009 22.27 137.009 23.23C137.009 24.178 136.793 25.018 136.361 25.75C135.941 26.482 135.353 27.058 134.597 27.478C133.853 27.898 133.007 28.108 132.059 28.108ZM132.059 26.596C132.671 26.596 133.217 26.458 133.697 26.182C134.189 25.906 134.573 25.516 134.849 25.012C135.125 24.496 135.263 23.902 135.263 23.23C135.263 22.546 135.125 21.958 134.849 21.466C134.573 20.962 134.189 20.572 133.697 20.296C133.217 20.02 132.671 19.882 132.059 19.882C131.447 19.882 130.901 20.02 130.421 20.296C129.941 20.572 129.557 20.962 129.269 21.466C128.981 21.958 128.837 22.546 128.837 23.23C128.837 23.902 128.981 24.496 129.269 25.012C129.557 25.516 129.941 25.906 130.421 26.182C130.901 26.458 131.447 26.596 132.059 26.596ZM139.039 28V18.46H140.695V21.052L140.533 20.404C140.797 19.744 141.241 19.24 141.865 18.892C142.489 18.544 143.257 18.37 144.169 18.37V20.044C144.097 20.032 144.025 20.026 143.953 20.026C143.893 20.026 143.833 20.026 143.773 20.026C142.849 20.026 142.117 20.302 141.577 20.854C141.037 21.406 140.767 22.204 140.767 23.248V28H139.039Z" fill="#D7DBE2"/>
<path d="M368.562 28.144C367.602 28.144 366.684 28 365.808 27.712C364.932 27.412 364.242 27.028 363.738 26.56L364.404 25.156C364.884 25.576 365.496 25.924 366.24 26.2C366.984 26.476 367.758 26.614 368.562 26.614C369.294 26.614 369.888 26.53 370.344 26.362C370.8 26.194 371.136 25.966 371.352 25.678C371.568 25.378 371.676 25.042 371.676 24.67C371.676 24.238 371.532 23.89 371.244 23.626C370.968 23.362 370.602 23.152 370.146 22.996C369.702 22.828 369.21 22.684 368.67 22.564C368.13 22.444 367.584 22.306 367.032 22.15C366.492 21.982 365.994 21.772 365.538 21.52C365.094 21.268 364.734 20.932 364.458 20.512C364.182 20.08 364.044 19.528 364.044 18.856C364.044 18.208 364.212 17.614 364.548 17.074C364.896 16.522 365.424 16.084 366.132 15.76C366.852 15.424 367.764 15.256 368.868 15.256C369.6 15.256 370.326 15.352 371.046 15.544C371.766 15.736 372.39 16.012 372.918 16.372L372.324 17.812C371.784 17.452 371.214 17.194 370.614 17.038C370.014 16.87 369.432 16.786 368.868 16.786C368.16 16.786 367.578 16.876 367.122 17.056C366.666 17.236 366.33 17.476 366.114 17.776C365.91 18.076 365.808 18.412 365.808 18.784C365.808 19.228 365.946 19.582 366.222 19.846C366.51 20.11 366.876 20.32 367.32 20.476C367.776 20.632 368.274 20.776 368.814 20.908C369.354 21.028 369.894 21.166 370.434 21.322C370.986 21.478 371.484 21.682 371.928 21.934C372.384 22.186 372.75 22.522 373.026 22.942C373.302 23.362 373.44 23.902 373.44 24.562C373.44 25.198 373.266 25.792 372.918 26.344C372.57 26.884 372.03 27.322 371.298 27.658C370.578 27.982 369.666 28.144 368.562 28.144ZM379.706 28.108C378.686 28.108 377.786 27.898 377.006 27.478C376.238 27.058 375.638 26.482 375.206 25.75C374.786 25.018 374.576 24.178 374.576 23.23C374.576 22.282 374.78 21.442 375.188 20.71C375.608 19.978 376.178 19.408 376.898 19C377.63 18.58 378.452 18.37 379.364 18.37C380.288 18.37 381.104 18.574 381.812 18.982C382.52 19.39 383.072 19.966 383.468 20.71C383.876 21.442 384.08 22.3 384.08 23.284C384.08 23.356 384.074 23.44 384.062 23.536C384.062 23.632 384.056 23.722 384.044 23.806H375.926V22.564H383.144L382.442 22.996C382.454 22.384 382.328 21.838 382.064 21.358C381.8 20.878 381.434 20.506 380.966 20.242C380.51 19.966 379.976 19.828 379.364 19.828C378.764 19.828 378.23 19.966 377.762 20.242C377.294 20.506 376.928 20.884 376.664 21.376C376.4 21.856 376.268 22.408 376.268 23.032V23.32C376.268 23.956 376.412 24.526 376.7 25.03C377 25.522 377.414 25.906 377.942 26.182C378.47 26.458 379.076 26.596 379.76 26.596C380.324 26.596 380.834 26.5 381.29 26.308C381.758 26.116 382.166 25.828 382.514 25.444L383.468 26.56C383.036 27.064 382.496 27.448 381.848 27.712C381.212 27.976 380.498 28.108 379.706 28.108ZM390.277 28.108C389.305 28.108 388.435 27.898 387.667 27.478C386.911 27.058 386.317 26.482 385.885 25.75C385.453 25.018 385.237 24.178 385.237 23.23C385.237 22.282 385.453 21.442 385.885 20.71C386.317 19.978 386.911 19.408 387.667 19C388.435 18.58 389.305 18.37 390.277 18.37C391.141 18.37 391.909 18.544 392.581 18.892C393.265 19.228 393.793 19.732 394.165 20.404L392.851 21.25C392.539 20.782 392.155 20.44 391.699 20.224C391.255 19.996 390.775 19.882 390.259 19.882C389.635 19.882 389.077 20.02 388.585 20.296C388.093 20.572 387.703 20.962 387.415 21.466C387.127 21.958 386.983 22.546 386.983 23.23C386.983 23.914 387.127 24.508 387.415 25.012C387.703 25.516 388.093 25.906 388.585 26.182C389.077 26.458 389.635 26.596 390.259 26.596C390.775 26.596 391.255 26.488 391.699 26.272C392.155 26.044 392.539 25.696 392.851 25.228L394.165 26.056C393.793 26.716 393.265 27.226 392.581 27.586C391.909 27.934 391.141 28.108 390.277 28.108ZM399.988 28.108C399.028 28.108 398.176 27.898 397.432 27.478C396.688 27.058 396.1 26.482 395.668 25.75C395.236 25.006 395.02 24.166 395.02 23.23C395.02 22.282 395.236 21.442 395.668 20.71C396.1 19.978 396.688 19.408 397.432 19C398.176 18.58 399.028 18.37 399.988 18.37C400.936 18.37 401.782 18.58 402.526 19C403.282 19.408 403.87 19.978 404.29 20.71C404.722 21.43 404.938 22.27 404.938 23.23C404.938 24.178 404.722 25.018 404.29 25.75C403.87 26.482 403.282 27.058 402.526 27.478C401.782 27.898 400.936 28.108 399.988 28.108ZM399.988 26.596C400.6 26.596 401.146 26.458 401.626 26.182C402.118 25.906 402.502 25.516 402.778 25.012C403.054 24.496 403.192 23.902 403.192 23.23C403.192 22.546 403.054 21.958 402.778 21.466C402.502 20.962 402.118 20.572 401.626 20.296C401.146 20.02 400.6 19.882 399.988 19.882C399.376 19.882 398.83 20.02 398.35 20.296C397.87 20.572 397.486 20.962 397.198 21.466C396.91 21.958 396.766 22.546 396.766 23.23C396.766 23.902 396.91 24.496 397.198 25.012C397.486 25.516 397.87 25.906 398.35 26.182C398.83 26.458 399.376 26.596 399.988 26.596ZM412.062 18.37C412.842 18.37 413.526 18.52 414.114 18.82C414.714 19.12 415.182 19.576 415.518 20.188C415.854 20.8 416.022 21.574 416.022 22.51V28H414.294V22.708C414.294 21.784 414.066 21.088 413.61 20.62C413.166 20.152 412.536 19.918 411.72 19.918C411.108 19.918 410.574 20.038 410.118 20.278C409.662 20.518 409.308 20.872 409.056 21.34C408.816 21.808 408.696 22.39 408.696 23.086V28H406.968V18.46H408.624V21.034L408.354 20.35C408.666 19.726 409.146 19.24 409.794 18.892C410.442 18.544 411.198 18.37 412.062 18.37ZM422.801 28.108C421.877 28.108 421.049 27.904 420.317 27.496C419.597 27.088 419.027 26.518 418.607 25.786C418.187 25.054 417.977 24.202 417.977 23.23C417.977 22.258 418.187 21.412 418.607 20.692C419.027 19.96 419.597 19.39 420.317 18.982C421.049 18.574 421.877 18.37 422.801 18.37C423.605 18.37 424.331 18.55 424.979 18.91C425.627 19.27 426.143 19.81 426.527 20.53C426.923 21.25 427.121 22.15 427.121 23.23C427.121 24.31 426.929 25.21 426.545 25.93C426.173 26.65 425.663 27.196 425.015 27.568C424.367 27.928 423.629 28.108 422.801 28.108ZM422.945 26.596C423.545 26.596 424.085 26.458 424.565 26.182C425.057 25.906 425.441 25.516 425.717 25.012C426.005 24.496 426.149 23.902 426.149 23.23C426.149 22.546 426.005 21.958 425.717 21.466C425.441 20.962 425.057 20.572 424.565 20.296C424.085 20.02 423.545 19.882 422.945 19.882C422.333 19.882 421.787 20.02 421.307 20.296C420.827 20.572 420.443 20.962 420.155 21.466C419.867 21.958 419.723 22.546 419.723 23.23C419.723 23.902 419.867 24.496 420.155 25.012C420.443 25.516 420.827 25.906 421.307 26.182C421.787 26.458 422.333 26.596 422.945 26.596ZM426.203 28V25.426L426.311 23.212L426.131 20.998V14.644H427.859V28H426.203ZM436.691 28V25.984L436.601 25.606V22.168C436.601 21.436 436.385 20.872 435.953 20.476C435.533 20.068 434.897 19.864 434.045 19.864C433.481 19.864 432.929 19.96 432.389 20.152C431.849 20.332 431.393 20.578 431.021 20.89L430.301 19.594C430.793 19.198 431.381 18.898 432.065 18.694C432.761 18.478 433.487 18.37 434.243 18.37C435.551 18.37 436.559 18.688 437.267 19.324C437.975 19.96 438.329 20.932 438.329 22.24V28H436.691ZM433.559 28.108C432.851 28.108 432.227 27.988 431.687 27.748C431.159 27.508 430.751 27.178 430.463 26.758C430.175 26.326 430.031 25.84 430.031 25.3C430.031 24.784 430.151 24.316 430.391 23.896C430.643 23.476 431.045 23.14 431.597 22.888C432.161 22.636 432.917 22.51 433.865 22.51H436.889V23.752H433.937C433.073 23.752 432.491 23.896 432.191 24.184C431.891 24.472 431.741 24.82 431.741 25.228C431.741 25.696 431.927 26.074 432.299 26.362C432.671 26.638 433.187 26.776 433.847 26.776C434.495 26.776 435.059 26.632 435.539 26.344C436.031 26.056 436.385 25.636 436.601 25.084L436.943 26.272C436.715 26.836 436.313 27.286 435.737 27.622C435.161 27.946 434.435 28.108 433.559 28.108ZM441.167 28V18.46H442.823V21.052L442.661 20.404C442.925 19.744 443.369 19.24 443.993 18.892C444.617 18.544 445.385 18.37 446.297 18.37V20.044C446.225 20.032 446.153 20.026 446.081 20.026C446.021 20.026 445.961 20.026 445.901 20.026C444.977 20.026 444.245 20.302 443.705 20.854C443.165 21.406 442.895 22.204 442.895 23.248V28H441.167ZM448.867 31.6C448.411 31.6 447.967 31.522 447.535 31.366C447.103 31.222 446.731 31.006 446.419 30.718L447.157 29.422C447.397 29.65 447.661 29.824 447.949 29.944C448.237 30.064 448.543 30.124 448.867 30.124C449.287 30.124 449.635 30.016 449.911 29.8C450.187 29.584 450.445 29.2 450.685 28.648L451.279 27.334L451.459 27.118L455.203 18.46H456.895L452.269 28.954C451.993 29.626 451.681 30.154 451.333 30.538C450.997 30.922 450.625 31.192 450.217 31.348C449.809 31.516 449.359 31.6 448.867 31.6ZM451.135 28.306L446.779 18.46H448.579L452.287 26.956L451.135 28.306ZM468.508 28.144C467.548 28.144 466.66 27.988 465.844 27.676C465.04 27.352 464.338 26.902 463.738 26.326C463.15 25.738 462.688 25.054 462.352 24.274C462.016 23.494 461.848 22.636 461.848 21.7C461.848 20.764 462.016 19.906 462.352 19.126C462.688 18.346 463.156 17.668 463.756 17.092C464.356 16.504 465.058 16.054 465.862 15.742C466.678 15.418 467.566 15.256 468.526 15.256C469.498 15.256 470.392 15.424 471.208 15.76C472.036 16.084 472.738 16.57 473.314 17.218L472.144 18.352C471.664 17.848 471.124 17.476 470.524 17.236C469.924 16.984 469.282 16.858 468.598 16.858C467.89 16.858 467.23 16.978 466.618 17.218C466.018 17.458 465.496 17.794 465.052 18.226C464.608 18.658 464.26 19.174 464.008 19.774C463.768 20.362 463.648 21.004 463.648 21.7C463.648 22.396 463.768 23.044 464.008 23.644C464.26 24.232 464.608 24.742 465.052 25.174C465.496 25.606 466.018 25.942 466.618 26.182C467.23 26.422 467.89 26.542 468.598 26.542C469.282 26.542 469.924 26.422 470.524 26.182C471.124 25.93 471.664 25.546 472.144 25.03L473.314 26.164C472.738 26.812 472.036 27.304 471.208 27.64C470.392 27.976 469.492 28.144 468.508 28.144ZM478.952 28.108C477.992 28.108 477.14 27.898 476.396 27.478C475.652 27.058 475.064 26.482 474.632 25.75C474.2 25.006 473.984 24.166 473.984 23.23C473.984 22.282 474.2 21.442 474.632 20.71C475.064 19.978 475.652 19.408 476.396 19C477.14 18.58 477.992 18.37 478.952 18.37C479.9 18.37 480.746 18.58 481.49 19C482.246 19.408 482.834 19.978 483.254 20.71C483.686 21.43 483.902 22.27 483.902 23.23C483.902 24.178 483.686 25.018 483.254 25.75C482.834 26.482 482.246 27.058 481.49 27.478C480.746 27.898 479.9 28.108 478.952 28.108ZM478.952 26.596C479.564 26.596 480.11 26.458 480.59 26.182C481.082 25.906 481.466 25.516 481.742 25.012C482.018 24.496 482.156 23.902 482.156 23.23C482.156 22.546 482.018 21.958 481.742 21.466C481.466 20.962 481.082 20.572 480.59 20.296C480.11 20.02 479.564 19.882 478.952 19.882C478.34 19.882 477.794 20.02 477.314 20.296C476.834 20.572 476.45 20.962 476.162 21.466C475.874 21.958 475.73 22.546 475.73 23.23C475.73 23.902 475.874 24.496 476.162 25.012C476.45 25.516 476.834 25.906 477.314 26.182C477.794 26.458 478.34 26.596 478.952 26.596ZM485.931 28V14.644H487.659V28H485.931ZM494.685 28.108C493.725 28.108 492.873 27.898 492.129 27.478C491.385 27.058 490.797 26.482 490.365 25.75C489.933 25.006 489.717 24.166 489.717 23.23C489.717 22.282 489.933 21.442 490.365 20.71C490.797 19.978 491.385 19.408 492.129 19C492.873 18.58 493.725 18.37 494.685 18.37C495.633 18.37 496.479 18.58 497.223 19C497.979 19.408 498.567 19.978 498.987 20.71C499.419 21.43 499.635 22.27 499.635 23.23C499.635 24.178 499.419 25.018 498.987 25.75C498.567 26.482 497.979 27.058 497.223 27.478C496.479 27.898 495.633 28.108 494.685 28.108ZM494.685 26.596C495.297 26.596 495.843 26.458 496.323 26.182C496.815 25.906 497.199 25.516 497.475 25.012C497.751 24.496 497.889 23.902 497.889 23.23C497.889 22.546 497.751 21.958 497.475 21.466C497.199 20.962 496.815 20.572 496.323 20.296C495.843 20.02 495.297 19.882 494.685 19.882C494.073 19.882 493.527 20.02 493.047 20.296C492.567 20.572 492.183 20.962 491.895 21.466C491.607 21.958 491.463 22.546 491.463 23.23C491.463 23.902 491.607 24.496 491.895 25.012C492.183 25.516 492.567 25.906 493.047 26.182C493.527 26.458 494.073 26.596 494.685 26.596ZM501.664 28V18.46H503.32V21.052L503.158 20.404C503.422 19.744 503.866 19.24 504.49 18.892C505.114 18.544 505.882 18.37 506.794 18.37V20.044C506.722 20.032 506.65 20.026 506.578 20.026C506.518 20.026 506.458 20.026 506.398 20.026C505.474 20.026 504.742 20.302 504.202 20.854C503.662 21.406 503.392 22.204 503.392 23.248V28H501.664Z" fill="#D7DBE2"/>
<path d="M28.326 187.112C27.5793 187.112 26.8653 187 26.184 186.776C25.5027 186.543 24.966 186.244 24.574 185.88L25.092 184.788C25.4653 185.115 25.9413 185.385 26.52 185.6C27.0987 185.815 27.7007 185.922 28.326 185.922C28.8953 185.922 29.3573 185.857 29.712 185.726C30.0667 185.595 30.328 185.418 30.496 185.194C30.664 184.961 30.748 184.699 30.748 184.41C30.748 184.074 30.636 183.803 30.412 183.598C30.1973 183.393 29.9127 183.229 29.558 183.108C29.2127 182.977 28.83 182.865 28.41 182.772C27.99 182.679 27.5653 182.571 27.136 182.45C26.716 182.319 26.3287 182.156 25.974 181.96C25.6287 181.764 25.3487 181.503 25.134 181.176C24.9193 180.84 24.812 180.411 24.812 179.888C24.812 179.384 24.9427 178.922 25.204 178.502C25.4747 178.073 25.8853 177.732 26.436 177.48C26.996 177.219 27.7053 177.088 28.564 177.088C29.1333 177.088 29.698 177.163 30.258 177.312C30.818 177.461 31.3033 177.676 31.714 177.956L31.252 179.076C30.832 178.796 30.3887 178.595 29.922 178.474C29.4553 178.343 29.0027 178.278 28.564 178.278C28.0133 178.278 27.5607 178.348 27.206 178.488C26.8513 178.628 26.59 178.815 26.422 179.048C26.2633 179.281 26.184 179.543 26.184 179.832C26.184 180.177 26.2913 180.453 26.506 180.658C26.73 180.863 27.0147 181.027 27.36 181.148C27.7147 181.269 28.102 181.381 28.522 181.484C28.942 181.577 29.362 181.685 29.782 181.806C30.2113 181.927 30.5987 182.086 30.944 182.282C31.2987 182.478 31.5833 182.739 31.798 183.066C32.0127 183.393 32.12 183.813 32.12 184.326C32.12 184.821 31.9847 185.283 31.714 185.712C31.4433 186.132 31.0233 186.473 30.454 186.734C29.894 186.986 29.1847 187.112 28.326 187.112ZM37.6513 179.51C38.258 179.51 38.79 179.627 39.2473 179.86C39.714 180.093 40.078 180.448 40.3393 180.924C40.6006 181.4 40.7313 182.002 40.7313 182.73V187H39.3873V182.884C39.3873 182.165 39.21 181.624 38.8553 181.26C38.51 180.896 38.02 180.714 37.3853 180.714C36.9093 180.714 36.494 180.807 36.1393 180.994C35.7846 181.181 35.5093 181.456 35.3133 181.82C35.1266 182.184 35.0333 182.637 35.0333 183.178V187H33.6893V176.612H35.0333V181.582L34.7673 181.05C35.01 180.565 35.3833 180.187 35.8873 179.916C36.3913 179.645 36.9793 179.51 37.6513 179.51ZM47.5446 187V185.432L47.4746 185.138V182.464C47.4746 181.895 47.3066 181.456 46.9706 181.148C46.6439 180.831 46.1493 180.672 45.4866 180.672C45.0479 180.672 44.6186 180.747 44.1986 180.896C43.7786 181.036 43.4239 181.227 43.1346 181.47L42.5746 180.462C42.9573 180.154 43.4146 179.921 43.9466 179.762C44.4879 179.594 45.0526 179.51 45.6406 179.51C46.6579 179.51 47.4419 179.757 47.9926 180.252C48.5433 180.747 48.8186 181.503 48.8186 182.52V187H47.5446ZM45.1086 187.084C44.5579 187.084 44.0726 186.991 43.6526 186.804C43.2419 186.617 42.9246 186.361 42.7006 186.034C42.4766 185.698 42.3646 185.32 42.3646 184.9C42.3646 184.499 42.4579 184.135 42.6446 183.808C42.8406 183.481 43.1533 183.22 43.5826 183.024C44.0213 182.828 44.6093 182.73 45.3466 182.73H47.6986V183.696H45.4026C44.7306 183.696 44.2779 183.808 44.0446 184.032C43.8113 184.256 43.6946 184.527 43.6946 184.844C43.6946 185.208 43.8393 185.502 44.1286 185.726C44.4179 185.941 44.8193 186.048 45.3326 186.048C45.8366 186.048 46.2753 185.936 46.6486 185.712C47.0313 185.488 47.3066 185.161 47.4746 184.732L47.7406 185.656C47.5633 186.095 47.2506 186.445 46.8026 186.706C46.3546 186.958 45.7899 187.084 45.1086 187.084ZM54.0918 187.084C53.3731 187.084 52.7291 186.925 52.1598 186.608C51.5998 186.291 51.1565 185.847 50.8298 185.278C50.5031 184.709 50.3398 184.046 50.3398 183.29C50.3398 182.534 50.5031 181.876 50.8298 181.316C51.1565 180.747 51.5998 180.303 52.1598 179.986C52.7291 179.669 53.3731 179.51 54.0918 179.51C54.7171 179.51 55.2818 179.65 55.7858 179.93C56.2898 180.21 56.6911 180.63 56.9898 181.19C57.2978 181.75 57.4518 182.45 57.4518 183.29C57.4518 184.13 57.3025 184.83 57.0038 185.39C56.7145 185.95 56.3178 186.375 55.8138 186.664C55.3098 186.944 54.7358 187.084 54.0918 187.084ZM54.2038 185.908C54.6705 185.908 55.0905 185.801 55.4638 185.586C55.8465 185.371 56.1451 185.068 56.3598 184.676C56.5838 184.275 56.6958 183.813 56.6958 183.29C56.6958 182.758 56.5838 182.301 56.3598 181.918C56.1451 181.526 55.8465 181.223 55.4638 181.008C55.0905 180.793 54.6705 180.686 54.2038 180.686C53.7278 180.686 53.3031 180.793 52.9298 181.008C52.5565 181.223 52.2578 181.526 52.0338 181.918C51.8098 182.301 51.6978 182.758 51.6978 183.29C51.6978 183.813 51.8098 184.275 52.0338 184.676C52.2578 185.068 52.5565 185.371 52.9298 185.586C53.3031 185.801 53.7278 185.908 54.2038 185.908ZM56.7378 187V184.998L56.8218 183.276L56.6818 181.554V176.612H58.0258V187H56.7378ZM63.5928 187.084C62.7994 187.084 62.0994 186.921 61.4928 186.594C60.8954 186.267 60.4288 185.819 60.0928 185.25C59.7661 184.681 59.6028 184.027 59.6028 183.29C59.6028 182.553 59.7614 181.899 60.0788 181.33C60.4054 180.761 60.8488 180.317 61.4088 180C61.9781 179.673 62.6174 179.51 63.3268 179.51C64.0454 179.51 64.6801 179.669 65.2308 179.986C65.7814 180.303 66.2108 180.751 66.5188 181.33C66.8361 181.899 66.9948 182.567 66.9948 183.332C66.9948 183.388 66.9901 183.453 66.9808 183.528C66.9808 183.603 66.9761 183.673 66.9668 183.738H60.6528V182.772H66.2668L65.7208 183.108C65.7301 182.632 65.6321 182.207 65.4268 181.834C65.2214 181.461 64.9368 181.171 64.5728 180.966C64.2181 180.751 63.8028 180.644 63.3268 180.644C62.8601 180.644 62.4448 180.751 62.0808 180.966C61.7168 181.171 61.4321 181.465 61.2268 181.848C61.0214 182.221 60.9188 182.651 60.9188 183.136V183.36C60.9188 183.855 61.0308 184.298 61.2548 184.69C61.4881 185.073 61.8101 185.371 62.2208 185.586C62.6314 185.801 63.1028 185.908 63.6348 185.908C64.0734 185.908 64.4701 185.833 64.8248 185.684C65.1888 185.535 65.5061 185.311 65.7768 185.012L66.5188 185.88C66.1828 186.272 65.7628 186.571 65.2588 186.776C64.7641 186.981 64.2088 187.084 63.5928 187.084ZM70.709 187.084C70.093 187.084 69.505 187 68.945 186.832C68.3944 186.664 67.9604 186.459 67.643 186.216L68.203 185.152C68.5204 185.367 68.9124 185.549 69.379 185.698C69.8457 185.847 70.3217 185.922 70.807 185.922C71.4324 185.922 71.8804 185.833 72.151 185.656C72.431 185.479 72.571 185.231 72.571 184.914C72.571 184.681 72.487 184.499 72.319 184.368C72.151 184.237 71.927 184.139 71.647 184.074C71.3764 184.009 71.073 183.953 70.737 183.906C70.401 183.85 70.065 183.785 69.729 183.71C69.393 183.626 69.085 183.514 68.805 183.374C68.525 183.225 68.301 183.024 68.133 182.772C67.965 182.511 67.881 182.165 67.881 181.736C67.881 181.288 68.007 180.896 68.259 180.56C68.511 180.224 68.8657 179.967 69.323 179.79C69.7897 179.603 70.3404 179.51 70.975 179.51C71.4604 179.51 71.9504 179.571 72.445 179.692C72.949 179.804 73.3597 179.967 73.677 180.182L73.103 181.246C72.767 181.022 72.417 180.868 72.053 180.784C71.689 180.7 71.325 180.658 70.961 180.658C70.373 180.658 69.9344 180.756 69.645 180.952C69.3557 181.139 69.211 181.381 69.211 181.68C69.211 181.932 69.295 182.128 69.463 182.268C69.6404 182.399 69.8644 182.501 70.135 182.576C70.415 182.651 70.723 182.716 71.059 182.772C71.395 182.819 71.731 182.884 72.067 182.968C72.403 183.043 72.7064 183.15 72.977 183.29C73.257 183.43 73.481 183.626 73.649 183.878C73.8264 184.13 73.915 184.466 73.915 184.886C73.915 185.334 73.7844 185.721 73.523 186.048C73.2617 186.375 72.893 186.631 72.417 186.818C71.941 186.995 71.3717 187.084 70.709 187.084Z" fill="#A6AFBE"/>
<path d="M27.416 278V269.418H24.056V268.2H32.162V269.418H28.802V278H27.416ZM33.2108 278V270.58H34.5548V278H33.2108ZM33.8828 269.152C33.6215 269.152 33.4021 269.068 33.2248 268.9C33.0568 268.732 32.9728 268.527 32.9728 268.284C32.9728 268.032 33.0568 267.822 33.2248 267.654C33.4021 267.486 33.6215 267.402 33.8828 267.402C34.1441 267.402 34.3588 267.486 34.5268 267.654C34.7041 267.813 34.7928 268.013 34.7928 268.256C34.7928 268.508 34.7088 268.723 34.5408 268.9C34.3728 269.068 34.1535 269.152 33.8828 269.152ZM40.803 270.51C41.4096 270.51 41.9416 270.627 42.399 270.86C42.8656 271.093 43.2296 271.448 43.491 271.924C43.7523 272.4 43.883 273.002 43.883 273.73V278H42.539V273.884C42.539 273.165 42.3616 272.624 42.007 272.26C41.6616 271.896 41.1716 271.714 40.537 271.714C40.061 271.714 39.6456 271.807 39.291 271.994C38.9363 272.181 38.661 272.456 38.465 272.82C38.2783 273.184 38.185 273.637 38.185 274.178V278H36.841V270.58H38.129V272.582L37.919 272.05C38.1616 271.565 38.535 271.187 39.039 270.916C39.543 270.645 40.131 270.51 40.803 270.51ZM48.6382 278.084C47.8916 278.084 47.3129 277.883 46.9022 277.482C46.4916 277.081 46.2862 276.507 46.2862 275.76V268.956H47.6302V275.704C47.6302 276.105 47.7282 276.413 47.9243 276.628C48.1296 276.843 48.4189 276.95 48.7922 276.95C49.2123 276.95 49.5623 276.833 49.8423 276.6L50.2623 277.566C50.0569 277.743 49.8096 277.874 49.5203 277.958C49.2403 278.042 48.9463 278.084 48.6382 278.084ZM45.0262 271.686V270.58H49.7583V271.686H45.0262ZM53.7351 278.084C53.1191 278.084 52.5311 278 51.9711 277.832C51.4205 277.664 50.9865 277.459 50.6691 277.216L51.2291 276.152C51.5465 276.367 51.9385 276.549 52.4051 276.698C52.8718 276.847 53.3478 276.922 53.8331 276.922C54.4585 276.922 54.9065 276.833 55.1771 276.656C55.4571 276.479 55.5971 276.231 55.5971 275.914C55.5971 275.681 55.5131 275.499 55.3451 275.368C55.1771 275.237 54.9531 275.139 54.6731 275.074C54.4025 275.009 54.0991 274.953 53.7631 274.906C53.4271 274.85 53.0911 274.785 52.7551 274.71C52.4191 274.626 52.1111 274.514 51.8311 274.374C51.5511 274.225 51.3271 274.024 51.1591 273.772C50.9911 273.511 50.9071 273.165 50.9071 272.736C50.9071 272.288 51.0331 271.896 51.2851 271.56C51.5371 271.224 51.8918 270.967 52.3491 270.79C52.8158 270.603 53.3665 270.51 54.0011 270.51C54.4865 270.51 54.9765 270.571 55.4711 270.692C55.9751 270.804 56.3858 270.967 56.7031 271.182L56.1291 272.246C55.7931 272.022 55.4431 271.868 55.0791 271.784C54.7151 271.7 54.3511 271.658 53.9871 271.658C53.3991 271.658 52.9605 271.756 52.6711 271.952C52.3818 272.139 52.2371 272.381 52.2371 272.68C52.2371 272.932 52.3211 273.128 52.4891 273.268C52.6665 273.399 52.8905 273.501 53.1611 273.576C53.4411 273.651 53.7491 273.716 54.0851 273.772C54.4211 273.819 54.7571 273.884 55.0931 273.968C55.4291 274.043 55.7325 274.15 56.0031 274.29C56.2831 274.43 56.5071 274.626 56.6751 274.878C56.8525 275.13 56.9411 275.466 56.9411 275.886C56.9411 276.334 56.8105 276.721 56.5491 277.048C56.2878 277.375 55.9191 277.631 55.4431 277.818C54.9671 277.995 54.3978 278.084 53.7351 278.084Z" fill="#A6AFBE"/>
<path d="M367.326 187.112C366.579 187.112 365.865 187 365.184 186.776C364.503 186.543 363.966 186.244 363.574 185.88L364.092 184.788C364.465 185.115 364.941 185.385 365.52 185.6C366.099 185.815 366.701 185.922 367.326 185.922C367.895 185.922 368.357 185.857 368.712 185.726C369.067 185.595 369.328 185.418 369.496 185.194C369.664 184.961 369.748 184.699 369.748 184.41C369.748 184.074 369.636 183.803 369.412 183.598C369.197 183.393 368.913 183.229 368.558 183.108C368.213 182.977 367.83 182.865 367.41 182.772C366.99 182.679 366.565 182.571 366.136 182.45C365.716 182.319 365.329 182.156 364.974 181.96C364.629 181.764 364.349 181.503 364.134 181.176C363.919 180.84 363.812 180.411 363.812 179.888C363.812 179.384 363.943 178.922 364.204 178.502C364.475 178.073 364.885 177.732 365.436 177.48C365.996 177.219 366.705 177.088 367.564 177.088C368.133 177.088 368.698 177.163 369.258 177.312C369.818 177.461 370.303 177.676 370.714 177.956L370.252 179.076C369.832 178.796 369.389 178.595 368.922 178.474C368.455 178.343 368.003 178.278 367.564 178.278C367.013 178.278 366.561 178.348 366.206 178.488C365.851 178.628 365.59 178.815 365.422 179.048C365.263 179.281 365.184 179.543 365.184 179.832C365.184 180.177 365.291 180.453 365.506 180.658C365.73 180.863 366.015 181.027 366.36 181.148C366.715 181.269 367.102 181.381 367.522 181.484C367.942 181.577 368.362 181.685 368.782 181.806C369.211 181.927 369.599 182.086 369.944 182.282C370.299 182.478 370.583 182.739 370.798 183.066C371.013 183.393 371.12 183.813 371.12 184.326C371.12 184.821 370.985 185.283 370.714 185.712C370.443 186.132 370.023 186.473 369.454 186.734C368.894 186.986 368.185 187.112 367.326 187.112ZM376.651 179.51C377.258 179.51 377.79 179.627 378.247 179.86C378.714 180.093 379.078 180.448 379.339 180.924C379.601 181.4 379.731 182.002 379.731 182.73V187H378.387V182.884C378.387 182.165 378.21 181.624 377.855 181.26C377.51 180.896 377.02 180.714 376.385 180.714C375.909 180.714 375.494 180.807 375.139 180.994C374.785 181.181 374.509 181.456 374.313 181.82C374.127 182.184 374.033 182.637 374.033 183.178V187H372.689V176.612H374.033V181.582L373.767 181.05C374.01 180.565 374.383 180.187 374.887 179.916C375.391 179.645 375.979 179.51 376.651 179.51ZM386.545 187V185.432L386.475 185.138V182.464C386.475 181.895 386.307 181.456 385.971 181.148C385.644 180.831 385.149 180.672 384.487 180.672C384.048 180.672 383.619 180.747 383.199 180.896C382.779 181.036 382.424 181.227 382.135 181.47L381.575 180.462C381.957 180.154 382.415 179.921 382.947 179.762C383.488 179.594 384.053 179.51 384.641 179.51C385.658 179.51 386.442 179.757 386.993 180.252C387.543 180.747 387.819 181.503 387.819 182.52V187H386.545ZM384.109 187.084C383.558 187.084 383.073 186.991 382.653 186.804C382.242 186.617 381.925 186.361 381.701 186.034C381.477 185.698 381.365 185.32 381.365 184.9C381.365 184.499 381.458 184.135 381.645 183.808C381.841 183.481 382.153 183.22 382.583 183.024C383.021 182.828 383.609 182.73 384.347 182.73H386.699V183.696H384.403C383.731 183.696 383.278 183.808 383.045 184.032C382.811 184.256 382.695 184.527 382.695 184.844C382.695 185.208 382.839 185.502 383.129 185.726C383.418 185.941 383.819 186.048 384.333 186.048C384.837 186.048 385.275 185.936 385.649 185.712C386.031 185.488 386.307 185.161 386.475 184.732L386.741 185.656C386.563 186.095 386.251 186.445 385.803 186.706C385.355 186.958 384.79 187.084 384.109 187.084ZM393.092 187.084C392.373 187.084 391.729 186.925 391.16 186.608C390.6 186.291 390.156 185.847 389.83 185.278C389.503 184.709 389.34 184.046 389.34 183.29C389.34 182.534 389.503 181.876 389.83 181.316C390.156 180.747 390.6 180.303 391.16 179.986C391.729 179.669 392.373 179.51 393.092 179.51C393.717 179.51 394.282 179.65 394.786 179.93C395.29 180.21 395.691 180.63 395.99 181.19C396.298 181.75 396.452 182.45 396.452 183.29C396.452 184.13 396.302 184.83 396.004 185.39C395.714 185.95 395.318 186.375 394.814 186.664C394.31 186.944 393.736 187.084 393.092 187.084ZM393.204 185.908C393.67 185.908 394.09 185.801 394.464 185.586C394.846 185.371 395.145 185.068 395.36 184.676C395.584 184.275 395.696 183.813 395.696 183.29C395.696 182.758 395.584 182.301 395.36 181.918C395.145 181.526 394.846 181.223 394.464 181.008C394.09 180.793 393.67 180.686 393.204 180.686C392.728 180.686 392.303 180.793 391.93 181.008C391.556 181.223 391.258 181.526 391.034 181.918C390.81 182.301 390.698 182.758 390.698 183.29C390.698 183.813 390.81 184.275 391.034 184.676C391.258 185.068 391.556 185.371 391.93 185.586C392.303 185.801 392.728 185.908 393.204 185.908ZM395.738 187V184.998L395.822 183.276L395.682 181.554V176.612H397.026V187H395.738ZM402.593 187.084C401.799 187.084 401.099 186.921 400.493 186.594C399.895 186.267 399.429 185.819 399.093 185.25C398.766 184.681 398.603 184.027 398.603 183.29C398.603 182.553 398.761 181.899 399.079 181.33C399.405 180.761 399.849 180.317 400.409 180C400.978 179.673 401.617 179.51 402.327 179.51C403.045 179.51 403.68 179.669 404.231 179.986C404.781 180.303 405.211 180.751 405.519 181.33C405.836 181.899 405.995 182.567 405.995 183.332C405.995 183.388 405.99 183.453 405.981 183.528C405.981 183.603 405.976 183.673 405.967 183.738H399.653V182.772H405.267L404.721 183.108C404.73 182.632 404.632 182.207 404.427 181.834C404.221 181.461 403.937 181.171 403.573 180.966C403.218 180.751 402.803 180.644 402.327 180.644C401.86 180.644 401.445 180.751 401.081 180.966C400.717 181.171 400.432 181.465 400.227 181.848C400.021 182.221 399.919 182.651 399.919 183.136V183.36C399.919 183.855 400.031 184.298 400.255 184.69C400.488 185.073 400.81 185.371 401.221 185.586C401.631 185.801 402.103 185.908 402.635 185.908C403.073 185.908 403.47 185.833 403.825 185.684C404.189 185.535 404.506 185.311 404.777 185.012L405.519 185.88C405.183 186.272 404.763 186.571 404.259 186.776C403.764 186.981 403.209 187.084 402.593 187.084ZM409.709 187.084C409.093 187.084 408.505 187 407.945 186.832C407.394 186.664 406.96 186.459 406.643 186.216L407.203 185.152C407.52 185.367 407.912 185.549 408.379 185.698C408.846 185.847 409.322 185.922 409.807 185.922C410.432 185.922 410.88 185.833 411.151 185.656C411.431 185.479 411.571 185.231 411.571 184.914C411.571 184.681 411.487 184.499 411.319 184.368C411.151 184.237 410.927 184.139 410.647 184.074C410.376 184.009 410.073 183.953 409.737 183.906C409.401 183.85 409.065 183.785 408.729 183.71C408.393 183.626 408.085 183.514 407.805 183.374C407.525 183.225 407.301 183.024 407.133 182.772C406.965 182.511 406.881 182.165 406.881 181.736C406.881 181.288 407.007 180.896 407.259 180.56C407.511 180.224 407.866 179.967 408.323 179.79C408.79 179.603 409.34 179.51 409.975 179.51C410.46 179.51 410.95 179.571 411.445 179.692C411.949 179.804 412.36 179.967 412.677 180.182L412.103 181.246C411.767 181.022 411.417 180.868 411.053 180.784C410.689 180.7 410.325 180.658 409.961 180.658C409.373 180.658 408.934 180.756 408.645 180.952C408.356 181.139 408.211 181.381 408.211 181.68C408.211 181.932 408.295 182.128 408.463 182.268C408.64 182.399 408.864 182.501 409.135 182.576C409.415 182.651 409.723 182.716 410.059 182.772C410.395 182.819 410.731 182.884 411.067 182.968C411.403 183.043 411.706 183.15 411.977 183.29C412.257 183.43 412.481 183.626 412.649 183.878C412.826 184.13 412.915 184.466 412.915 184.886C412.915 185.334 412.784 185.721 412.523 186.048C412.262 186.375 411.893 186.631 411.417 186.818C410.941 186.995 410.372 187.084 409.709 187.084Z" fill="#A6AFBE"/>
<path d="M366.416 278V269.418H363.056V268.2H371.162V269.418H367.802V278H366.416ZM372.211 278V270.58H373.555V278H372.211ZM372.883 269.152C372.621 269.152 372.402 269.068 372.225 268.9C372.057 268.732 371.973 268.527 371.973 268.284C371.973 268.032 372.057 267.822 372.225 267.654C372.402 267.486 372.621 267.402 372.883 267.402C373.144 267.402 373.359 267.486 373.527 267.654C373.704 267.813 373.793 268.013 373.793 268.256C373.793 268.508 373.709 268.723 373.541 268.9C373.373 269.068 373.153 269.152 372.883 269.152ZM379.803 270.51C380.41 270.51 380.942 270.627 381.399 270.86C381.866 271.093 382.23 271.448 382.491 271.924C382.752 272.4 382.883 273.002 382.883 273.73V278H381.539V273.884C381.539 273.165 381.362 272.624 381.007 272.26C380.662 271.896 380.172 271.714 379.537 271.714C379.061 271.714 378.646 271.807 378.291 271.994C377.936 272.181 377.661 272.456 377.465 272.82C377.278 273.184 377.185 273.637 377.185 274.178V278H375.841V270.58H377.129V272.582L376.919 272.05C377.162 271.565 377.535 271.187 378.039 270.916C378.543 270.645 379.131 270.51 379.803 270.51ZM387.638 278.084C386.892 278.084 386.313 277.883 385.902 277.482C385.492 277.081 385.286 276.507 385.286 275.76V268.956H386.63V275.704C386.63 276.105 386.728 276.413 386.924 276.628C387.13 276.843 387.419 276.95 387.792 276.95C388.212 276.95 388.562 276.833 388.842 276.6L389.262 277.566C389.057 277.743 388.81 277.874 388.52 277.958C388.24 278.042 387.946 278.084 387.638 278.084ZM384.026 271.686V270.58H388.758V271.686H384.026ZM392.735 278.084C392.119 278.084 391.531 278 390.971 277.832C390.42 277.664 389.986 277.459 389.669 277.216L390.229 276.152C390.546 276.367 390.938 276.549 391.405 276.698C391.872 276.847 392.348 276.922 392.833 276.922C393.458 276.922 393.906 276.833 394.177 276.656C394.457 276.479 394.597 276.231 394.597 275.914C394.597 275.681 394.513 275.499 394.345 275.368C394.177 275.237 393.953 275.139 393.673 275.074C393.402 275.009 393.099 274.953 392.763 274.906C392.427 274.85 392.091 274.785 391.755 274.71C391.419 274.626 391.111 274.514 390.831 274.374C390.551 274.225 390.327 274.024 390.159 273.772C389.991 273.511 389.907 273.165 389.907 272.736C389.907 272.288 390.033 271.896 390.285 271.56C390.537 271.224 390.892 270.967 391.349 270.79C391.816 270.603 392.366 270.51 393.001 270.51C393.486 270.51 393.976 270.571 394.471 270.692C394.975 270.804 395.386 270.967 395.703 271.182L395.129 272.246C394.793 272.022 394.443 271.868 394.079 271.784C393.715 271.7 393.351 271.658 392.987 271.658C392.399 271.658 391.96 271.756 391.671 271.952C391.382 272.139 391.237 272.381 391.237 272.68C391.237 272.932 391.321 273.128 391.489 273.268C391.666 273.399 391.89 273.501 392.161 273.576C392.441 273.651 392.749 273.716 393.085 273.772C393.421 273.819 393.757 273.884 394.093 273.968C394.429 274.043 394.732 274.15 395.003 274.29C395.283 274.43 395.507 274.626 395.675 274.878C395.852 275.13 395.941 275.466 395.941 275.886C395.941 276.334 395.81 276.721 395.549 277.048C395.288 277.375 394.919 277.631 394.443 277.818C393.967 277.995 393.398 278.084 392.735 278.084Z" fill="#A6AFBE"/>
<rect x="363" y="47" width="303" height="96" rx="10" fill="#5B50CF"/>
<path d="M488.368 101.096C487.568 101.096 486.805 100.968 486.08 100.712C485.355 100.445 484.779 100.093 484.352 99.656L484.912 98.744C485.264 99.1173 485.744 99.4267 486.352 99.672C486.971 99.9173 487.637 100.04 488.352 100.04C489.301 100.04 490.021 99.832 490.512 99.416C491.013 98.9893 491.264 98.4347 491.264 97.752C491.264 97.272 491.147 96.8613 490.912 96.52C490.688 96.168 490.304 95.896 489.76 95.704C489.216 95.512 488.469 95.416 487.52 95.416H485.136L485.712 89.8H491.84V90.824H486.176L486.768 90.264L486.272 94.968L485.68 94.392H487.776C488.907 94.392 489.813 94.5307 490.496 94.808C491.179 95.0853 491.669 95.4747 491.968 95.976C492.277 96.4667 492.432 97.0427 492.432 97.704C492.432 98.3333 492.283 98.9093 491.984 99.432C491.685 99.944 491.237 100.349 490.64 100.648C490.043 100.947 489.285 101.096 488.368 101.096ZM494.567 101V89.8H499.399C500.647 89.8 501.612 90.0507 502.295 90.552C502.988 91.0533 503.335 91.7627 503.335 92.68C503.335 93.288 503.191 93.8 502.903 94.216C502.625 94.632 502.241 94.9467 501.751 95.16C501.271 95.3733 500.743 95.48 500.167 95.48L500.439 95.096C501.153 95.096 501.767 95.208 502.279 95.432C502.801 95.6453 503.207 95.9707 503.495 96.408C503.783 96.8347 503.927 97.368 503.927 98.008C503.927 98.9573 503.575 99.6933 502.871 100.216C502.177 100.739 501.127 101 499.719 101H494.567ZM495.751 100.024H499.703C500.684 100.024 501.436 99.8587 501.959 99.528C502.481 99.1867 502.743 98.648 502.743 97.912C502.743 97.1867 502.481 96.6587 501.959 96.328C501.436 95.9867 500.684 95.816 499.703 95.816H495.623V94.84H499.319C500.215 94.84 500.908 94.6693 501.399 94.328C501.9 93.9867 502.151 93.48 502.151 92.808C502.151 92.1253 501.9 91.6187 501.399 91.288C500.908 90.9467 500.215 90.776 499.319 90.776H495.751V100.024ZM508.853 101.096C508.053 101.096 507.29 100.968 506.565 100.712C505.84 100.445 505.264 100.093 504.837 99.656L505.397 98.744C505.749 99.1173 506.229 99.4267 506.837 99.672C507.456 99.9173 508.122 100.04 508.837 100.04C509.786 100.04 510.506 99.832 510.997 99.416C511.498 98.9893 511.749 98.4347 511.749 97.752C511.749 97.272 511.632 96.8613 511.397 96.52C511.173 96.168 510.789 95.896 510.245 95.704C509.701 95.512 508.954 95.416 508.005 95.416H505.621L506.197 89.8H512.325V90.824H506.661L507.253 90.264L506.757 94.968L506.165 94.392H508.261C509.392 94.392 510.298 94.5307 510.981 94.808C511.664 95.0853 512.154 95.4747 512.453 95.976C512.762 96.4667 512.917 97.0427 512.917 97.704C512.917 98.3333 512.768 98.9093 512.469 99.432C512.17 99.944 511.722 100.349 511.125 100.648C510.528 100.947 509.77 101.096 508.853 101.096ZM518.524 101.096C517.66 101.096 516.892 100.872 516.22 100.424C515.548 99.9653 515.02 99.3147 514.636 98.472C514.252 97.6187 514.06 96.5947 514.06 95.4C514.06 94.2053 514.252 93.1867 514.636 92.344C515.02 91.4907 515.548 90.84 516.22 90.392C516.892 89.9333 517.66 89.704 518.524 89.704C519.388 89.704 520.156 89.9333 520.828 90.392C521.5 90.84 522.028 91.4907 522.412 92.344C522.806 93.1867 523.004 94.2053 523.004 95.4C523.004 96.5947 522.806 97.6187 522.412 98.472C522.028 99.3147 521.5 99.9653 520.828 100.424C520.156 100.872 519.388 101.096 518.524 101.096ZM518.524 100.04C519.185 100.04 519.761 99.864 520.252 99.512C520.742 99.1493 521.126 98.6267 521.404 97.944C521.681 97.2507 521.82 96.4027 521.82 95.4C521.82 94.3973 521.681 93.5547 521.404 92.872C521.126 92.1787 520.742 91.656 520.252 91.304C519.761 90.9413 519.185 90.76 518.524 90.76C517.884 90.76 517.313 90.9413 516.812 91.304C516.31 91.656 515.921 92.1787 515.644 92.872C515.366 93.5547 515.228 94.3973 515.228 95.4C515.228 96.4027 515.366 97.2507 515.644 97.944C515.921 98.6267 516.31 99.1493 516.812 99.512C517.313 99.864 517.884 100.04 518.524 100.04ZM530.189 101.096C529.347 101.096 528.568 100.957 527.853 100.68C527.139 100.392 526.52 99.992 525.997 99.48C525.475 98.968 525.064 98.3653 524.765 97.672C524.477 96.9787 524.333 96.2213 524.333 95.4C524.333 94.5787 524.477 93.8213 524.765 93.128C525.064 92.4347 525.475 91.832 525.997 91.32C526.531 90.808 527.155 90.4133 527.869 90.136C528.584 89.848 529.363 89.704 530.205 89.704C531.016 89.704 531.779 89.8427 532.493 90.12C533.208 90.3867 533.811 90.792 534.301 91.336L533.549 92.088C533.091 91.6187 532.584 91.2827 532.029 91.08C531.475 90.8667 530.877 90.76 530.237 90.76C529.565 90.76 528.941 90.8773 528.365 91.112C527.789 91.336 527.288 91.6613 526.861 92.088C526.435 92.504 526.099 92.9947 525.853 93.56C525.619 94.1147 525.501 94.728 525.501 95.4C525.501 96.072 525.619 96.6907 525.853 97.256C526.099 97.8107 526.435 98.3013 526.861 98.728C527.288 99.144 527.789 99.4693 528.365 99.704C528.941 99.928 529.565 100.04 530.237 100.04C530.877 100.04 531.475 99.9333 532.029 99.72C532.584 99.5067 533.091 99.1653 533.549 98.696L534.301 99.448C533.811 99.992 533.208 100.403 532.493 100.68C531.779 100.957 531.011 101.096 530.189 101.096ZM537.561 95.224H543.481V96.248H537.561V95.224ZM537.689 101H536.505V89.8H544.185V90.824H537.689V101Z" fill="black"/>
<path d="M24 56.5254C24 51.0025 28.4772 46.5254 34 46.5254H334C339.523 46.5254 344 51.0025 344 56.5254V132.525C344 138.048 339.523 142.525 334 142.525H34C28.4772 142.525 24 138.048 24 132.525V56.5254Z" fill="#CFD21D"/>
<path d="M153.688 100.621C152.845 100.621 152.067 100.483 151.352 100.205C150.637 99.9174 150.019 99.5174 149.496 99.0054C148.973 98.4934 148.563 97.8907 148.264 97.1974C147.976 96.5041 147.832 95.7467 147.832 94.9254C147.832 94.1041 147.976 93.3467 148.264 92.6534C148.563 91.9601 148.973 91.3574 149.496 90.8454C150.029 90.3334 150.653 89.9387 151.368 89.6614C152.083 89.3734 152.861 89.2294 153.704 89.2294C154.515 89.2294 155.277 89.3681 155.992 89.6454C156.707 89.9121 157.309 90.3174 157.8 90.8614L157.048 91.6134C156.589 91.1441 156.083 90.8081 155.528 90.6054C154.973 90.3921 154.376 90.2854 153.736 90.2854C153.064 90.2854 152.44 90.4027 151.864 90.6374C151.288 90.8614 150.787 91.1867 150.36 91.6134C149.933 92.0294 149.597 92.5201 149.352 93.0854C149.117 93.6401 149 94.2534 149 94.9254C149 95.5974 149.117 96.2161 149.352 96.7814C149.597 97.3361 149.933 97.8267 150.36 98.2534C150.787 98.6694 151.288 98.9947 151.864 99.2294C152.44 99.4534 153.064 99.5654 153.736 99.5654C154.376 99.5654 154.973 99.4587 155.528 99.2454C156.083 99.0321 156.589 98.6907 157.048 98.2214L157.8 98.9734C157.309 99.5174 156.707 99.9281 155.992 100.205C155.277 100.483 154.509 100.621 153.688 100.621ZM161.06 94.7494H166.98V95.7734H161.06V94.7494ZM161.188 100.525H160.004V89.3254H167.684V90.3494H161.188V100.525ZM169.809 100.525V89.3254H174.369C175.564 89.3254 176.609 89.5654 177.505 90.0454C178.412 90.5147 179.116 91.1707 179.617 92.0134C180.118 92.8561 180.369 93.8267 180.369 94.9254C180.369 96.0241 180.118 96.9947 179.617 97.8374C179.116 98.6801 178.412 99.3414 177.505 99.8214C176.609 100.291 175.564 100.525 174.369 100.525H169.809ZM170.993 99.5014H174.305C175.297 99.5014 176.156 99.3094 176.881 98.9254C177.617 98.5307 178.188 97.9921 178.593 97.3094C178.998 96.6161 179.201 95.8214 179.201 94.9254C179.201 94.0187 178.998 93.2241 178.593 92.5414C178.188 91.8587 177.617 91.3254 176.881 90.9414C176.156 90.5467 175.297 90.3494 174.305 90.3494H170.993V99.5014ZM181.352 100.525V99.7094L186.008 95.1494C186.434 94.7334 186.754 94.3707 186.968 94.0614C187.181 93.7414 187.325 93.4427 187.4 93.1654C187.474 92.8881 187.512 92.6267 187.512 92.3814C187.512 91.7307 187.288 91.2187 186.84 90.8454C186.402 90.4721 185.752 90.2854 184.888 90.2854C184.226 90.2854 183.64 90.3867 183.128 90.5894C182.626 90.7921 182.194 91.1067 181.832 91.5334L181.016 90.8294C181.453 90.3174 182.013 89.9227 182.696 89.6454C183.378 89.3681 184.141 89.2294 184.984 89.2294C185.741 89.2294 186.397 89.3521 186.952 89.5974C187.506 89.8321 187.933 90.1787 188.232 90.6374C188.541 91.0961 188.696 91.6347 188.696 92.2534C188.696 92.6161 188.642 92.9734 188.536 93.3254C188.44 93.6774 188.258 94.0507 187.992 94.4454C187.736 94.8294 187.357 95.2667 186.856 95.7574L182.584 99.9494L182.264 99.5014H189.208V100.525H181.352ZM192.285 100.525V89.8054L192.797 90.3494H189.645V89.3254H193.437V100.525H192.285ZM196.787 100.525V89.3254H201.347C202.541 89.3254 203.587 89.5654 204.483 90.0454C205.389 90.5147 206.093 91.1707 206.595 92.0134C207.096 92.8561 207.347 93.8267 207.347 94.9254C207.347 96.0241 207.096 96.9947 206.595 97.8374C206.093 98.6801 205.389 99.3414 204.483 99.8214C203.587 100.291 202.541 100.525 201.347 100.525H196.787ZM197.971 99.5014H201.283C202.275 99.5014 203.133 99.3094 203.859 98.9254C204.595 98.5307 205.165 97.9921 205.571 97.3094C205.976 96.6161 206.179 95.8214 206.179 94.9254C206.179 94.0187 205.976 93.2241 205.571 92.5414C205.165 91.8587 204.595 91.3254 203.859 90.9414C203.133 90.5467 202.275 90.3494 201.283 90.3494H197.971V99.5014Z" fill="black"/>
<rect x="24" y="198" width="80" height="40" fill="#FCFF7C"/>
<rect x="104" y="198" width="80" height="40" fill="#E6E93B"/>
<rect x="184" y="198" width="80" height="40" fill="#D2D621"/>
<rect x="264" y="198" width="80" height="40" fill="#BDC01B"/>
<rect x="24" y="289" width="64" height="40" fill="#CFD21D"/>
<rect x="88" y="289" width="64" height="40" fill="#CFD21D" fill-opacity="0.8"/>
<rect x="152" y="289" width="64" height="40" fill="#CFD21D" fill-opacity="0.6"/>
<rect x="216" y="289" width="64" height="40" fill="#CFD21D" fill-opacity="0.4"/>
<rect x="280" y="289" width="64" height="40" fill="#CFD21D" fill-opacity="0.2"/>
<rect x="363" y="289" width="63.2" height="40" fill="#5B50CF"/>
<rect x="426.199" y="289" width="63.2" height="40" fill="#5B50CF" fill-opacity="0.8"/>
<rect x="489.4" y="289" width="63.2" height="40" fill="#5B50CF" fill-opacity="0.6"/>
<rect x="552.6" y="289" width="63.2" height="40" fill="#5B50CF" fill-opacity="0.4"/>
<rect x="615.801" y="289" width="63.2" height="40" fill="#5B50CF" fill-opacity="0.2"/>
<rect x="363" y="198" width="79" height="40" fill="#5B50CF"/>
<rect x="442" y="198" width="79" height="40" fill="#7368E8"/>
<rect x="521" y="198" width="79" height="40" fill="#8C84EA"/>
<rect x="600" y="198" width="79" height="40" fill="#9B92FF"/>
</svg>
