<svg width="184" height="184" viewBox="0 0 214 214" fill="none" xmlns="http://www.w3.org/2000/svg">
<rect width="214" height="214" rx="16" fill="#DFE1F1"/>
<path d="M107.196 98.8442H114.373V100.138H107.196V98.8442Z" fill="black"/>
<path d="M99.7852 94.4907H114.374V95.7849H99.7852V94.4907Z" fill="black"/>
<path d="M99.7852 98.8442H105.511V100.138H99.7852V98.8442Z" fill="black"/>
<path d="M104.373 118.256C104.373 119.237 104.922 120.139 105.745 120.57V131.002H104.961C103.392 123.119 99.863 119.315 95.5097 111.668C94.7646 110.335 94.2155 108.609 94.2547 107.119C94.2547 106.727 94.2155 104.06 94.2547 103.628H105.745V115.904C104.922 116.374 104.373 117.237 104.373 118.257V118.256Z" fill="black"/>
<path d="M119.823 107.081C119.902 108.571 119.353 110.296 118.568 111.63C114.255 119.316 110.725 123.12 109.156 131.002H108.372V120.57C109.196 120.1 109.705 119.237 109.705 118.256C109.705 117.276 109.156 116.374 108.372 115.943V103.628H119.823C119.863 104.02 119.823 106.687 119.823 107.079V107.081Z" fill="black"/>
<path d="M113.786 83.0007H104.06C103.432 83.0007 102.883 83.236 102.452 83.6674L95.1575 90.8048C94.6085 91.3146 94.334 92.0598 94.334 92.8048V102.177H96.3733V92.8048C96.3733 92.7264 96.4125 92.6088 96.4125 92.5303L99.1968 92.4519C99.3929 92.4519 99.589 92.4519 99.7459 92.4127C101.354 92.2166 102.805 91.1577 103.432 89.6675C103.628 89.2753 103.707 88.8439 103.785 88.4126V85.1968L103.864 85.1183C103.903 85.0791 103.981 85.0399 104.02 85.0399H113.746C115.942 85.0399 117.707 86.8439 117.707 89.0009V102.099H119.746V89.0394C119.825 85.7059 117.119 83 113.786 83L113.786 83.0007Z" fill="black"/>
<path d="M125.43 88.53C125.705 89.0791 125.94 89.6281 126.215 90.1771C126.293 90.334 126.45 90.4909 126.646 90.6085C127.156 90.883 127.666 91.1183 128.293 91.3929C127.744 91.6674 127.234 91.8635 126.724 92.138C126.489 92.2556 126.293 92.4909 126.175 92.687C125.901 93.1576 125.705 93.6675 125.43 94.2557C125.156 93.7067 124.96 93.1576 124.685 92.687C124.567 92.4517 124.332 92.2556 124.136 92.138C123.665 91.8635 123.156 91.6674 122.567 91.3929C123.156 91.1183 123.665 90.9223 124.175 90.6477C124.371 90.5301 124.567 90.334 124.685 90.1379C124.92 89.6281 125.156 89.0791 125.352 88.5692C125.352 88.53 125.391 88.53 125.43 88.53H125.43Z" fill="black"/>
<path d="M85.8628 89.6672C86.1373 90.2163 86.3726 90.7653 86.6472 91.3143C86.7256 91.4712 86.8825 91.6281 87.0786 91.7457C87.5884 92.0202 88.0982 92.2555 88.7257 92.5301C88.1766 92.8046 87.6669 93.0007 87.157 93.2752C86.9217 93.3928 86.7256 93.6281 86.608 93.8242C86.3334 94.2948 86.1373 94.8047 85.8628 95.3929C85.5883 94.8439 85.3922 94.2948 85.1177 93.8242C85.0001 93.5889 84.7648 93.3928 84.5687 93.2752C84.0981 93.0007 83.5882 92.8046 83 92.5301C83.5883 92.2555 84.0981 92.0595 84.6079 91.7849C84.804 91.6673 85.0001 91.4712 85.1178 91.2751C85.3531 90.7653 85.5884 90.2163 85.7844 89.7065C85.8237 89.6672 85.8629 89.6672 85.8629 89.6672H85.8628Z" fill="black"/>
<path d="M125.394 122.61C124.924 121.551 124.532 120.649 124.061 119.786C123.826 119.394 123.473 119.002 123.041 118.766C122.179 118.296 121.277 117.904 120.218 117.394C121.277 116.884 122.257 116.492 123.159 115.982C123.512 115.786 123.826 115.472 124.022 115.119C124.492 114.217 124.885 113.276 125.394 112.178C125.904 113.237 126.296 114.178 126.767 115.08C126.963 115.433 127.316 115.786 127.669 115.982C128.571 116.453 129.512 116.845 130.61 117.355C129.551 117.825 128.649 118.178 127.786 118.688C127.355 118.923 126.963 119.355 126.688 119.786C126.218 120.649 125.865 121.551 125.394 122.61H125.394Z" fill="black"/>
<path d="M94.255 118.962C94.5295 119.551 94.804 119.982 94.9609 120.453C95.2746 121.59 96.0589 122.139 97.0786 122.531C97.51 122.688 97.9021 122.923 98.4511 123.159C97.6276 123.551 96.8432 123.865 96.1374 124.257C95.8236 124.414 95.5099 124.727 95.353 125.041C94.9609 125.747 94.6471 126.492 94.255 127.355C93.8628 126.531 93.5098 125.865 93.1961 125.119C93.0001 124.649 92.6863 124.335 92.2157 124.139C91.5098 123.865 90.8431 123.512 90.0195 123.119C90.8823 122.727 91.6666 122.374 92.3725 121.982C92.6471 121.825 92.9216 121.551 93.0784 121.276C93.549 120.609 93.8628 119.864 94.255 118.962V118.962Z" fill="black"/>
</svg>
