<svg width="340" height="140" viewBox="0 0 357 156" fill="none" xmlns="http://www.w3.org/2000/svg">
<rect width="357" height="156" rx="16" fill="#343434"/>
<path d="M30.128 40.224C32.768 40.224 34.88 38.416 35.408 35.696H33.344C32.912 37.264 31.632 38.304 30.128 38.304C27.984 38.304 26.56 36.784 26.56 34.512C26.56 32.24 27.984 30.72 30.128 30.72C31.472 30.72 32.72 31.664 33.248 33.072H35.36C34.72 30.512 32.624 28.8 30.128 28.8C26.704 28.8 24.416 31.088 24.416 34.512C24.416 37.936 26.704 40.224 30.128 40.224ZM40.9001 40.224C43.5081 40.224 45.2361 38.528 45.2361 36C45.2361 33.472 43.5081 31.776 40.9001 31.776C38.2921 31.776 36.5641 33.472 36.5641 36C36.5641 38.528 38.2921 40.224 40.9001 40.224ZM40.9001 38.528C39.4441 38.528 38.4841 37.52 38.4841 36C38.4841 34.48 39.4441 33.472 40.9001 33.472C42.3561 33.472 43.3161 34.48 43.3161 36C43.3161 37.52 42.3561 38.528 40.9001 38.528ZM46.5479 40H48.4679V34.608C48.4679 33.92 49.0439 33.472 49.9239 33.472C50.8039 33.472 51.3799 33.92 51.3799 34.608V40H53.2999V34.608C53.2999 33.92 53.8759 33.472 54.7559 33.472C55.6359 33.472 56.2119 33.92 56.2119 34.608V40H58.1319V34.416C58.1319 32.832 56.8519 31.776 54.9479 31.776C54.0679 31.776 53.1079 32.16 52.5479 32.736C52.0039 32.16 51.1559 31.776 50.4199 31.776C49.6519 31.776 48.9479 32.112 48.4679 32.72V32H46.5479V40ZM64.5064 31.776C63.5304 31.776 62.4584 32.224 61.8504 32.88V32H59.9304V42.976H61.8504V39.12C62.4584 39.776 63.5304 40.224 64.5064 40.224C67.0344 40.224 68.7304 38.528 68.7304 36C68.7304 33.472 67.0344 31.776 64.5064 31.776ZM64.3144 33.472C65.8184 33.472 66.8104 34.48 66.8104 36C66.8104 37.52 65.8184 38.528 64.3144 38.528C62.8424 38.528 61.8504 37.52 61.8504 36C61.8504 34.48 62.8424 33.472 64.3144 33.472ZM74.0435 40.224C74.9875 40.224 76.0275 39.792 76.6355 39.136V40H78.5555V32H76.6355V32.864C76.0275 32.208 74.9875 31.776 74.0435 31.776C71.5475 31.776 69.8835 33.472 69.8835 36C69.8835 38.528 71.5475 40.224 74.0435 40.224ZM74.2355 38.528C72.7795 38.528 71.8035 37.52 71.8035 36C71.8035 34.48 72.7795 33.472 74.2355 33.472C75.6755 33.472 76.6355 34.48 76.6355 36C76.6355 37.52 75.6755 38.528 74.2355 38.528ZM80.3516 40H82.2716V35.248C82.2716 34.176 83.0556 33.472 84.2236 33.472C85.3916 33.472 86.1756 34.176 86.1756 35.248V40H88.0956V35.024C88.0956 33.072 86.6396 31.776 84.4476 31.776C83.6636 31.776 82.7996 32.096 82.2716 32.592V32H80.3516V40ZM90.702 42.976H92.766L97.086 32H95.022L93.054 37.024L91.07 32H89.022L92.078 39.488L90.702 42.976Z" fill="#D3D3D3"/>
<path d="M26.9121 86.7129C26.9121 87.123 26.543 87.3281 25.8047 87.3281C25.0573 87.3281 24.6836 87.123 24.6836 86.7129V68.7344C24.6836 68.3242 25.0573 68.1191 25.8047 68.1191C26.543 68.1191 26.9121 68.3242 26.9121 68.7344V86.7129ZM49.2651 87.3281C48.5268 87.3281 48.1577 87.123 48.1577 86.7129V79.4258C48.1577 78.2682 47.8979 77.179 47.3784 76.1582C46.8588 75.1283 45.9337 74.6133 44.603 74.6133C43.2814 74.6133 42.3653 75.1328 41.8549 76.1719C41.3445 77.2018 41.0893 78.2865 41.0893 79.4258V86.7129C41.0893 87.123 40.7156 87.3281 39.9682 87.3281C39.2299 87.3281 38.8608 87.123 38.8608 86.7129V79.4258C38.8608 78.2682 38.6101 77.179 38.1088 76.1582C37.6075 75.1283 36.687 74.6133 35.3471 74.6133C34.0255 74.6133 33.0958 75.1921 32.558 76.3496C32.0294 77.498 31.7651 78.6693 31.7651 79.8633V86.6992C31.7651 87.1185 31.3959 87.3281 30.6577 87.3281C29.9103 87.3281 29.5366 87.1185 29.5366 86.6992V73.9434C29.5366 73.5332 29.9103 73.3281 30.6577 73.3281C31.3959 73.3281 31.7651 73.5332 31.7651 73.9434V75.4473C32.5398 74.0345 33.8797 73.3281 35.7846 73.3281C37.6622 73.3281 39.1114 74.0892 40.1323 75.6113C41.0437 74.0892 42.5385 73.3281 44.6166 73.3281C48.463 73.3281 50.3862 75.3607 50.3862 79.4258V86.7129C50.3862 87.123 50.0125 87.3281 49.2651 87.3281ZM60.4208 87.3281C58.3791 87.3281 56.8798 86.6445 55.9227 85.2773V91.9082C55.9227 92.3184 55.5536 92.5234 54.8153 92.5234C54.0679 92.5234 53.6942 92.3184 53.6942 91.9082V73.9297C53.6942 73.5195 54.0679 73.3145 54.8153 73.3145C55.5536 73.3145 55.9227 73.5195 55.9227 73.9297V75.3789C56.8798 74.0117 58.3791 73.3281 60.4208 73.3281C62.508 73.3281 64.1486 73.998 65.3427 75.3379C66.5458 76.6777 67.1473 78.3411 67.1473 80.3281C67.1473 82.306 66.5458 83.9694 65.3427 85.3184C64.1486 86.6582 62.508 87.3281 60.4208 87.3281ZM60.4208 86.084C61.9429 86.084 63.0731 85.4551 63.8114 84.1973C64.5497 82.9395 64.9188 81.6497 64.9188 80.3281C64.9188 78.9974 64.5497 77.7077 63.8114 76.459C63.0731 75.2012 61.9429 74.5723 60.4208 74.5723C58.9078 74.5723 57.7776 75.2012 57.0302 76.459C56.2919 77.7077 55.9227 78.9974 55.9227 80.3281C55.9227 81.6497 56.2919 82.9395 57.0302 84.1973C57.7776 85.4551 58.9078 86.084 60.4208 86.084ZM76.1839 87.3281C74.1331 87.3281 72.4333 86.7038 71.0843 85.4551C69.7445 84.1973 69.0745 82.5247 69.0745 80.4375C69.0745 78.3229 69.7536 76.6094 71.1116 75.2969C72.4788 73.9844 74.206 73.3281 76.2933 73.3281C78.2529 73.3281 79.9209 73.8613 81.2972 74.9277C82.6826 75.9941 83.3753 77.5618 83.3753 79.6309C83.3753 80.123 83.0062 80.3691 82.2679 80.3691H71.2894C71.2894 81.8275 71.7086 83.1445 72.5472 84.3203C73.3948 85.4961 74.6116 86.084 76.1976 86.084C77.3551 86.084 78.3896 85.7741 79.3011 85.1543C80.2855 84.498 80.8187 83.7461 80.9007 82.8984C80.9463 82.5065 81.3109 82.3105 81.9945 82.3105C82.7418 82.3105 83.1155 82.5156 83.1155 82.9258C83.1155 83.2174 83.0153 83.5729 82.8148 83.9922C82.4502 84.7578 81.8486 85.4141 81.0101 85.9609C79.6429 86.8724 78.0342 87.3281 76.1839 87.3281ZM81.1331 79.1113C80.9053 76.0853 79.292 74.5723 76.2933 74.5723C73.6136 74.5723 71.9866 76.0853 71.4124 79.1113H81.1331ZM87.1072 87.3281C86.3598 87.3281 85.9861 87.1185 85.9861 86.6992V73.957C85.9861 73.5378 86.3598 73.3281 87.1072 73.3281C87.8455 73.3281 88.2146 73.5378 88.2146 73.957V75.4746C88.8709 74.0436 90.0649 73.3281 91.7966 73.3281C92.8175 73.3281 93.7016 73.5742 94.449 74.0664C94.6313 74.1849 94.7224 74.3307 94.7224 74.5039C94.7224 74.7135 94.5994 74.9095 94.3533 75.0918C94.1619 75.2285 93.9477 75.2969 93.7107 75.2969C93.3917 75.2969 93.0955 75.1829 92.822 74.9551C92.5486 74.7181 92.1157 74.5996 91.5232 74.5996C90.2198 74.5996 89.3403 75.224 88.8845 76.4727C88.4379 77.7214 88.2146 78.888 88.2146 79.9727V86.6992C88.2146 87.1185 87.8455 87.3281 87.1072 87.3281ZM97.8801 69.3223C98.7004 69.3223 99.1105 69.7324 99.1105 70.5527C99.1105 71.373 98.7004 71.7832 97.8801 71.7832C97.0598 71.7832 96.6496 71.373 96.6496 70.5527C96.6496 69.7324 97.0598 69.3223 97.8801 69.3223ZM96.759 73.9434C96.759 73.5332 97.1327 73.3281 97.8801 73.3281C98.6275 73.3281 99.0012 73.5332 99.0012 73.9434V86.6992C99.0012 87.1185 98.6275 87.3281 97.8801 87.3281C97.1327 87.3281 96.759 87.1185 96.759 86.6992V73.9434ZM103.184 73.3145C103.923 73.3145 104.292 73.5241 104.292 73.9434V81.1895C104.292 82.3835 104.611 83.4954 105.249 84.5254C105.896 85.5462 106.889 86.0566 108.229 86.0566C111.018 86.0566 112.413 84.3021 112.413 80.793V73.9434C112.413 73.5241 112.782 73.3145 113.52 73.3145C114.268 73.3145 114.641 73.5241 114.641 73.9434V86.6992C114.641 87.1185 114.268 87.3281 113.52 87.3281C112.782 87.3281 112.413 87.1185 112.413 86.6992V85.1543C111.602 86.6126 110.143 87.3418 108.038 87.3418C106.579 87.3509 105.217 86.8405 103.95 85.8105C102.692 84.7715 102.063 83.2311 102.063 81.1895V73.9434C102.063 73.5241 102.437 73.3145 103.184 73.3145ZM137.664 87.3281C136.926 87.3281 136.557 87.123 136.557 86.7129V79.4258C136.557 78.2682 136.297 77.179 135.777 76.1582C135.258 75.1283 134.333 74.6133 133.002 74.6133C131.68 74.6133 130.764 75.1328 130.254 76.1719C129.744 77.2018 129.488 78.2865 129.488 79.4258V86.7129C129.488 87.123 129.115 87.3281 128.367 87.3281C127.629 87.3281 127.26 87.123 127.26 86.7129V79.4258C127.26 78.2682 127.009 77.179 126.508 76.1582C126.007 75.1283 125.086 74.6133 123.746 74.6133C122.425 74.6133 121.495 75.1921 120.957 76.3496C120.428 77.498 120.164 78.6693 120.164 79.8633V86.6992C120.164 87.1185 119.795 87.3281 119.057 87.3281C118.309 87.3281 117.936 87.1185 117.936 86.6992V73.9434C117.936 73.5332 118.309 73.3281 119.057 73.3281C119.795 73.3281 120.164 73.5332 120.164 73.9434V75.4473C120.939 74.0345 122.279 73.3281 124.184 73.3281C126.061 73.3281 127.51 74.0892 128.531 75.6113C129.443 74.0892 130.938 73.3281 133.016 73.3281C136.862 73.3281 138.785 75.3607 138.785 79.4258V86.7129C138.785 87.123 138.412 87.3281 137.664 87.3281ZM147.521 92.1953C147.084 92.1953 146.76 92.0859 146.55 91.8672C143.579 88.7409 142.093 84.776 142.093 79.9727C142.093 75.2786 143.579 71.3503 146.55 68.1875C146.76 67.9688 147.084 67.8594 147.521 67.8594C148.268 67.8594 148.642 68.069 148.642 68.4883C148.642 68.5977 148.601 68.6934 148.519 68.7754C145.721 71.7376 144.322 75.4701 144.322 79.9727C144.322 84.5846 145.716 88.3535 148.505 91.2793C148.597 91.3796 148.642 91.4753 148.642 91.5664C148.642 91.9857 148.268 92.1953 147.521 92.1953ZM166.853 81.668C166.853 83.4271 166.037 84.8125 164.405 85.8242C162.783 86.8268 160.992 87.3281 159.032 87.3281C157.382 87.3281 155.765 86.9408 154.179 86.166C152.602 85.3822 151.649 84.097 151.321 82.3105C151.285 82.11 151.267 81.987 151.267 81.9414C151.267 81.5404 151.649 81.3398 152.415 81.3398C153.035 81.3398 153.39 81.5176 153.481 81.873C154.22 84.7077 156.102 86.1113 159.128 86.084C160.349 86.0658 161.571 85.6966 162.792 84.9766C164.013 84.2474 164.624 83.1855 164.624 81.791C164.624 80.7884 164.018 80.0046 162.806 79.4395C161.912 79.0202 160.787 78.7376 159.429 78.5918C158.608 78.5098 157.742 78.3776 156.831 78.1953C155.929 78.0039 155.099 77.7122 154.343 77.3203C152.611 76.4271 151.745 75.0553 151.745 73.2051C151.745 71.3639 152.602 70.056 154.315 69.2812C156.029 68.5065 157.647 68.1191 159.169 68.1191C160.691 68.1191 162.14 68.4701 163.517 69.1719C164.902 69.8737 165.813 71.0039 166.251 72.5625C166.306 72.7539 166.333 72.8724 166.333 72.918C166.333 73.2917 165.946 73.4785 165.171 73.4785C164.551 73.4785 164.196 73.2962 164.104 72.9316C163.558 70.5527 161.917 69.3633 159.183 69.3633C158.034 69.3633 156.877 69.6641 155.71 70.2656C154.552 70.8581 153.974 71.8333 153.974 73.1914C153.974 74.1484 154.644 74.9232 155.983 75.5156C156.603 75.7799 157.255 75.9805 157.938 76.1172C158.622 76.2539 159.192 76.3451 159.647 76.3906C160.55 76.4818 161.466 76.6276 162.395 76.8281C163.325 77.0286 164.145 77.3568 164.856 77.8125C166.187 78.6875 166.853 79.9727 166.853 81.668ZM175.67 87.3281C172.79 87.3099 171.35 86.084 171.35 83.6504V74.5723H169.545C168.807 74.5723 168.438 74.3672 168.438 73.957C168.438 73.5378 168.807 73.3281 169.545 73.3281H171.35V68.748C171.35 68.3288 171.724 68.1191 172.471 68.1191C173.209 68.1191 173.579 68.3288 173.579 68.748V73.3281H176.149C176.896 73.3281 177.27 73.5378 177.27 73.957C177.27 74.3672 176.896 74.5723 176.149 74.5723H173.579V83.6504C173.579 85.2637 174.276 86.0749 175.67 86.084C175.935 86.084 176.185 86.0612 176.422 86.0156C176.659 85.9609 176.896 85.9336 177.133 85.9336C177.89 85.9336 178.268 86.1432 178.268 86.5625C178.268 86.8633 177.949 87.0684 177.311 87.1777C176.764 87.278 176.217 87.3281 175.67 87.3281ZM186.293 87.3281C184.242 87.3281 182.542 86.7038 181.193 85.4551C179.853 84.1973 179.183 82.5247 179.183 80.4375C179.183 78.3229 179.862 76.6094 181.221 75.2969C182.588 73.9844 184.315 73.3281 186.402 73.3281C188.362 73.3281 190.03 73.8613 191.406 74.9277C192.792 75.9941 193.484 77.5618 193.484 79.6309C193.484 80.123 193.115 80.3691 192.377 80.3691H181.398C181.398 81.8275 181.818 83.1445 182.656 84.3203C183.504 85.4961 184.721 86.084 186.306 86.084C187.464 86.084 188.499 85.7741 189.41 85.1543C190.394 84.498 190.928 83.7461 191.01 82.8984C191.055 82.5065 191.42 82.3105 192.103 82.3105C192.851 82.3105 193.224 82.5156 193.224 82.9258C193.224 83.2174 193.124 83.5729 192.924 83.9922C192.559 84.7578 191.958 85.4141 191.119 85.9609C189.752 86.8724 188.143 87.3281 186.293 87.3281ZM191.242 79.1113C191.014 76.0853 189.401 74.5723 186.402 74.5723C183.723 74.5723 182.096 76.0853 181.521 79.1113H191.242ZM197.216 87.3281C196.469 87.3281 196.095 87.1185 196.095 86.6992V73.957C196.095 73.5378 196.469 73.3281 197.216 73.3281C197.954 73.3281 198.324 73.5378 198.324 73.957V75.4746C198.98 74.0436 200.174 73.3281 201.906 73.3281C202.926 73.3281 203.81 73.5742 204.558 74.0664C204.74 74.1849 204.831 74.3307 204.831 74.5039C204.831 74.7135 204.708 74.9095 204.462 75.0918C204.271 75.2285 204.057 75.2969 203.82 75.2969C203.501 75.2969 203.204 75.1829 202.931 74.9551C202.658 74.7181 202.225 74.5996 201.632 74.5996C200.329 74.5996 199.449 75.224 198.993 76.4727C198.547 77.7214 198.324 78.888 198.324 79.9727V86.6992C198.324 87.1185 197.954 87.3281 197.216 87.3281ZM206.759 68.7344C206.759 68.3242 207.132 68.1191 207.88 68.1191C208.618 68.1191 208.987 68.3242 208.987 68.7344V86.7129C208.987 87.123 208.618 87.3281 207.88 87.3281C207.132 87.3281 206.759 87.123 206.759 86.7129V68.7344ZM213.936 69.3223C214.756 69.3223 215.166 69.7324 215.166 70.5527C215.166 71.373 214.756 71.7832 213.936 71.7832C213.115 71.7832 212.705 71.373 212.705 70.5527C212.705 69.7324 213.115 69.3223 213.936 69.3223ZM212.815 73.9434C212.815 73.5332 213.188 73.3281 213.936 73.3281C214.683 73.3281 215.057 73.5332 215.057 73.9434V86.6992C215.057 87.1185 214.683 87.3281 213.936 87.3281C213.188 87.3281 212.815 87.1185 212.815 86.6992V73.9434ZM229.576 87.3418C228.837 87.3418 228.468 87.1322 228.468 86.7129V79.4668C228.468 78.2728 228.145 77.1654 227.498 76.1445C226.86 75.1146 225.871 74.5996 224.531 74.5996C221.742 74.5996 220.347 76.3542 220.347 79.8633V86.7129C220.347 87.1322 219.978 87.3418 219.24 87.3418C218.492 87.3418 218.119 87.1322 218.119 86.7129V73.957C218.119 73.5378 218.492 73.3281 219.24 73.3281C219.978 73.3281 220.347 73.5378 220.347 73.957V75.502C221.158 74.0436 222.617 73.3145 224.722 73.3145C226.181 73.3053 227.539 73.8203 228.796 74.8594C230.063 75.8893 230.697 77.4251 230.697 79.4668V86.7129C230.697 87.1322 230.323 87.3418 229.576 87.3418ZM246.733 86.5898C246.733 88.6589 246.032 90.1628 244.628 91.1016C243.233 92.0495 241.597 92.5234 239.72 92.5234C238.653 92.5234 237.487 92.3411 236.22 91.9766C234.962 91.612 234.023 90.974 233.403 90.0625C233.349 89.9805 233.321 89.903 233.321 89.8301C233.321 89.429 233.7 89.2285 234.456 89.2285C234.948 89.2285 235.29 89.3607 235.481 89.625C235.901 90.2357 236.534 90.6641 237.382 90.9102C238.23 91.1562 239.013 91.2793 239.733 91.2793C242.924 91.2793 244.519 89.7161 244.519 86.5898V85.291C243.516 86.64 242.021 87.3145 240.034 87.3145C237.947 87.3145 236.302 86.6445 235.099 85.3047C233.905 83.9557 233.308 82.2923 233.308 80.3145C233.308 78.3275 233.905 76.6641 235.099 75.3242C236.302 73.9844 237.947 73.3145 240.034 73.3145C241.985 73.3145 243.48 74.0072 244.519 75.3926L244.532 73.9434C244.532 73.5241 244.901 73.3145 245.64 73.3145C246.369 73.3145 246.733 73.5241 246.733 73.9434V86.5898ZM240.034 86.0703C241.556 86.0703 242.687 85.4414 243.425 84.1836C244.163 82.9258 244.532 81.6361 244.532 80.3145C244.532 78.9837 244.163 77.694 243.425 76.4453C242.687 75.1875 241.556 74.5586 240.034 74.5586C238.521 74.5586 237.391 75.1875 236.644 76.4453C235.905 77.694 235.536 78.9837 235.536 80.3145C235.536 81.6361 235.905 82.9258 236.644 84.1836C237.391 85.4414 238.521 86.0703 240.034 86.0703ZM264.15 73.3145C266.238 73.3145 267.878 73.9844 269.072 75.3242C270.275 76.6641 270.877 78.3275 270.877 80.3145C270.877 82.2923 270.275 83.9557 269.072 85.3047C267.878 86.6445 266.238 87.3145 264.15 87.3145C262.109 87.3145 260.609 86.6309 259.652 85.2637V86.7129C259.652 87.123 259.283 87.3281 258.545 87.3281C257.797 87.3281 257.424 87.123 257.424 86.7129V68.7344C257.424 68.3242 257.797 68.1191 258.545 68.1191C259.283 68.1191 259.652 68.3242 259.652 68.7344V75.3652C260.609 73.998 262.109 73.3145 264.15 73.3145ZM264.15 74.5586C262.637 74.5586 261.507 75.1875 260.76 76.4453C260.021 77.694 259.652 78.9837 259.652 80.3145C259.652 81.6361 260.021 82.9258 260.76 84.1836C261.507 85.4414 262.637 86.0703 264.15 86.0703C265.672 86.0703 266.803 85.4414 267.541 84.1836C268.279 82.9258 268.648 81.6361 268.648 80.3145C268.648 78.9837 268.279 77.694 267.541 76.4453C266.803 75.1875 265.672 74.5586 264.15 74.5586ZM285.792 87.3281C284.726 87.3281 284.02 86.6764 283.673 85.373C282.525 86.6764 280.829 87.3281 278.587 87.3281C277.211 87.3281 276.031 87.0501 275.046 86.4941C273.779 85.7923 273.146 84.7669 273.146 83.418C273.146 82.4427 273.419 81.6589 273.966 81.0664C274.522 80.4648 275.251 80.082 276.154 79.918C277.065 79.7448 277.963 79.6582 278.847 79.6582C279.139 79.6582 279.467 79.6673 279.831 79.6855C280.205 79.7038 280.583 79.7129 280.966 79.7129C282.105 79.7129 282.917 79.5625 283.4 79.2617V77.8809C283.4 75.6751 282.124 74.5723 279.572 74.5723C278.615 74.5723 277.767 74.8138 277.029 75.2969C276.19 75.8438 275.771 76.5 275.771 77.2656C275.771 77.6849 275.402 77.8945 274.663 77.8945C273.925 77.8945 273.556 77.6849 273.556 77.2656C273.574 76.1992 274.167 75.2741 275.333 74.4902C276.491 73.7155 277.904 73.3281 279.572 73.3281C280.984 73.3281 282.347 73.6745 283.66 74.3672C284.972 75.0599 285.628 76.2311 285.628 77.8809V83.8828C285.628 84.5573 285.715 85.0905 285.888 85.4824C286.052 85.8288 286.289 86.0931 286.599 86.2754C286.8 86.3939 286.9 86.5352 286.9 86.6992C286.9 87.1185 286.531 87.3281 285.792 87.3281ZM278.587 86.084C279.663 86.084 280.734 85.7604 281.8 85.1133C282.867 84.4661 283.4 83.5365 283.4 82.3242V80.7656C282.807 80.8932 282.092 80.957 281.253 80.957C280.834 80.957 280.415 80.9479 279.995 80.9297C279.576 80.9023 279.157 80.8887 278.738 80.8887C278.191 80.8796 277.621 80.9342 277.029 81.0527C276.436 81.1621 275.99 81.4857 275.689 82.0234C275.461 82.4245 275.347 82.8757 275.347 83.377C275.365 84.2611 275.689 84.9401 276.318 85.4141C276.883 85.8607 277.639 86.084 278.587 86.084ZM300.626 87.3418C299.888 87.3418 299.518 87.1322 299.518 86.7129V79.4668C299.518 78.2728 299.195 77.1654 298.548 76.1445C297.91 75.1146 296.921 74.5996 295.581 74.5996C292.792 74.5996 291.397 76.3542 291.397 79.8633V86.7129C291.397 87.1322 291.028 87.3418 290.29 87.3418C289.542 87.3418 289.169 87.1322 289.169 86.7129V73.957C289.169 73.5378 289.542 73.3281 290.29 73.3281C291.028 73.3281 291.397 73.5378 291.397 73.957V75.502C292.208 74.0436 293.667 73.3145 295.772 73.3145C297.231 73.3053 298.589 73.8203 299.846 74.8594C301.113 75.8893 301.747 77.4251 301.747 79.4668V86.7129C301.747 87.1322 301.373 87.3418 300.626 87.3418ZM316.58 87.3281C315.979 87.3281 315.559 87.196 315.323 86.9316L309.416 80.5332L307.256 82.3789V86.6992C307.256 87.1185 306.887 87.3281 306.149 87.3281C305.401 87.3281 305.028 87.1185 305.028 86.6992V68.7344C305.028 68.3242 305.401 68.1191 306.149 68.1191C306.887 68.1191 307.256 68.3242 307.256 68.7344V80.4785L315.336 73.5742C315.509 73.4102 315.778 73.3281 316.143 73.3281C316.316 73.3281 316.48 73.3509 316.635 73.3965C316.963 73.4785 317.127 73.6198 317.127 73.8203C317.127 73.8932 317.082 73.9707 316.99 74.0527L311.098 79.0977L317.811 86.3574C317.902 86.4668 317.948 86.5625 317.948 86.6445C317.948 86.8633 317.783 87.0365 317.455 87.1641C317.191 87.2734 316.899 87.3281 316.58 87.3281ZM321.324 92.1953C320.577 92.1953 320.203 91.9857 320.203 91.5664C320.203 91.4753 320.248 91.3796 320.34 91.2793C323.129 88.3535 324.523 84.5846 324.523 79.9727C324.523 75.4701 323.124 71.7376 320.326 68.7754C320.244 68.6934 320.203 68.5977 320.203 68.4883C320.203 68.069 320.577 67.8594 321.324 67.8594C321.761 67.8594 322.085 67.9688 322.295 68.1875C325.266 71.3503 326.752 75.2786 326.752 79.9727C326.752 84.776 325.266 88.7409 322.295 91.8672C322.085 92.0859 321.761 92.1953 321.324 92.1953Z" fill="#FCFCFC"/>
<path d="M25.248 122.877C25.248 123.053 25.0898 123.141 24.7734 123.141C24.4531 123.141 24.293 123.053 24.293 122.877V115.172C24.293 114.996 24.4531 114.908 24.7734 114.908C25.0898 114.908 25.248 114.996 25.248 115.172V122.877ZM34.8279 123.141C34.5115 123.141 34.3533 123.053 34.3533 122.877V119.754C34.3533 119.258 34.242 118.791 34.0193 118.354C33.7966 117.912 33.4002 117.691 32.8298 117.691C32.2634 117.691 31.8709 117.914 31.6521 118.359C31.4334 118.801 31.324 119.266 31.324 119.754V122.877C31.324 123.053 31.1638 123.141 30.8435 123.141C30.5271 123.141 30.3689 123.053 30.3689 122.877V119.754C30.3689 119.258 30.2615 118.791 30.0466 118.354C29.8318 117.912 29.4373 117.691 28.863 117.691C28.2966 117.691 27.8982 117.939 27.6677 118.436C27.4412 118.928 27.3279 119.43 27.3279 119.941V122.871C27.3279 123.051 27.1697 123.141 26.8533 123.141C26.533 123.141 26.3728 123.051 26.3728 122.871V117.404C26.3728 117.229 26.533 117.141 26.8533 117.141C27.1697 117.141 27.3279 117.229 27.3279 117.404V118.049C27.6599 117.443 28.2341 117.141 29.0505 117.141C29.8552 117.141 30.4763 117.467 30.9138 118.119C31.3045 117.467 31.9451 117.141 32.8357 117.141C34.4841 117.141 35.3084 118.012 35.3084 119.754V122.877C35.3084 123.053 35.1482 123.141 34.8279 123.141ZM39.6089 123.141C38.7339 123.141 38.0913 122.848 37.6812 122.262V125.104C37.6812 125.279 37.523 125.367 37.2066 125.367C36.8862 125.367 36.7261 125.279 36.7261 125.104V117.398C36.7261 117.223 36.8862 117.135 37.2066 117.135C37.523 117.135 37.6812 117.223 37.6812 117.398V118.02C38.0913 117.434 38.7339 117.141 39.6089 117.141C40.5034 117.141 41.2066 117.428 41.7183 118.002C42.2339 118.576 42.4917 119.289 42.4917 120.141C42.4917 120.988 42.2339 121.701 41.7183 122.279C41.2066 122.854 40.5034 123.141 39.6089 123.141ZM39.6089 122.607C40.2612 122.607 40.7456 122.338 41.062 121.799C41.3784 121.26 41.5366 120.707 41.5366 120.141C41.5366 119.57 41.3784 119.018 41.062 118.482C40.7456 117.943 40.2612 117.674 39.6089 117.674C38.9605 117.674 38.4761 117.943 38.1558 118.482C37.8394 119.018 37.6812 119.57 37.6812 120.141C37.6812 120.707 37.8394 121.26 38.1558 121.799C38.4761 122.338 38.9605 122.607 39.6089 122.607ZM46.3645 123.141C45.4856 123.141 44.7571 122.873 44.179 122.338C43.6048 121.799 43.3177 121.082 43.3177 120.188C43.3177 119.281 43.6087 118.547 44.1907 117.984C44.7766 117.422 45.5169 117.141 46.4114 117.141C47.2512 117.141 47.9661 117.369 48.5559 117.826C49.1497 118.283 49.4466 118.955 49.4466 119.842C49.4466 120.053 49.2884 120.158 48.972 120.158H44.2669C44.2669 120.783 44.4466 121.348 44.8059 121.852C45.1692 122.355 45.6907 122.607 46.3704 122.607C46.8665 122.607 47.3098 122.475 47.7005 122.209C48.1223 121.928 48.3509 121.605 48.386 121.242C48.4055 121.074 48.5618 120.99 48.8548 120.99C49.1751 120.99 49.3352 121.078 49.3352 121.254C49.3352 121.379 49.2923 121.531 49.2063 121.711C49.0501 122.039 48.7923 122.32 48.4329 122.555C47.847 122.945 47.1575 123.141 46.3645 123.141ZM48.4856 119.619C48.388 118.322 47.6966 117.674 46.4114 117.674C45.263 117.674 44.5657 118.322 44.3196 119.619H48.4856ZM51.0459 123.141C50.7256 123.141 50.5655 123.051 50.5655 122.871V117.41C50.5655 117.23 50.7256 117.141 51.0459 117.141C51.3623 117.141 51.5205 117.23 51.5205 117.41V118.061C51.8018 117.447 52.3135 117.141 53.0557 117.141C53.4932 117.141 53.8721 117.246 54.1924 117.457C54.2705 117.508 54.3096 117.57 54.3096 117.645C54.3096 117.734 54.2569 117.818 54.1514 117.896C54.0694 117.955 53.9776 117.984 53.876 117.984C53.7393 117.984 53.6123 117.936 53.4952 117.838C53.378 117.736 53.1924 117.686 52.9385 117.686C52.3799 117.686 52.003 117.953 51.8077 118.488C51.6162 119.023 51.5205 119.523 51.5205 119.988V122.871C51.5205 123.051 51.3623 123.141 51.0459 123.141ZM55.6629 115.424C56.0145 115.424 56.1902 115.6 56.1902 115.951C56.1902 116.303 56.0145 116.479 55.6629 116.479C55.3113 116.479 55.1355 116.303 55.1355 115.951C55.1355 115.6 55.3113 115.424 55.6629 115.424ZM55.1824 117.404C55.1824 117.229 55.3426 117.141 55.6629 117.141C55.9832 117.141 56.1434 117.229 56.1434 117.404V122.871C56.1434 123.051 55.9832 123.141 55.6629 123.141C55.3426 123.141 55.1824 123.051 55.1824 122.871V117.404ZM57.9361 117.135C58.2525 117.135 58.4107 117.225 58.4107 117.404V120.51C58.4107 121.021 58.5474 121.498 58.8209 121.939C59.0982 122.377 59.524 122.596 60.0982 122.596C61.2935 122.596 61.8912 121.844 61.8912 120.34V117.404C61.8912 117.225 62.0494 117.135 62.3658 117.135C62.6861 117.135 62.8462 117.225 62.8462 117.404V122.871C62.8462 123.051 62.6861 123.141 62.3658 123.141C62.0494 123.141 61.8912 123.051 61.8912 122.871V122.209C61.5435 122.834 60.9185 123.146 60.0162 123.146C59.3912 123.15 58.8072 122.932 58.2642 122.49C57.7252 122.045 57.4556 121.385 57.4556 120.51V117.404C57.4556 117.225 57.6158 117.135 57.9361 117.135ZM72.7132 123.141C72.3968 123.141 72.2386 123.053 72.2386 122.877V119.754C72.2386 119.258 72.1273 118.791 71.9046 118.354C71.682 117.912 71.2855 117.691 70.7152 117.691C70.1488 117.691 69.7562 117.914 69.5374 118.359C69.3187 118.801 69.2093 119.266 69.2093 119.754V122.877C69.2093 123.053 69.0491 123.141 68.7288 123.141C68.4124 123.141 68.2542 123.053 68.2542 122.877V119.754C68.2542 119.258 68.1468 118.791 67.932 118.354C67.7171 117.912 67.3226 117.691 66.7484 117.691C66.182 117.691 65.7835 117.939 65.553 118.436C65.3265 118.928 65.2132 119.43 65.2132 119.941V122.871C65.2132 123.051 65.055 123.141 64.7386 123.141C64.4183 123.141 64.2581 123.051 64.2581 122.871V117.404C64.2581 117.229 64.4183 117.141 64.7386 117.141C65.055 117.141 65.2132 117.229 65.2132 117.404V118.049C65.5452 117.443 66.1195 117.141 66.9359 117.141C67.7405 117.141 68.3616 117.467 68.7991 118.119C69.1898 117.467 69.8304 117.141 70.721 117.141C72.3695 117.141 73.1937 118.012 73.1937 119.754V122.877C73.1937 123.053 73.0335 123.141 72.7132 123.141ZM79.5216 123.146C79.2052 123.146 79.047 123.057 79.047 122.877V119.771C79.047 119.26 78.9083 118.785 78.6309 118.348C78.3575 117.906 77.9337 117.686 77.3595 117.686C76.1641 117.686 75.5665 118.438 75.5665 119.941V122.877C75.5665 123.057 75.4083 123.146 75.0919 123.146C74.7716 123.146 74.6114 123.057 74.6114 122.877V117.41C74.6114 117.23 74.7716 117.141 75.0919 117.141C75.4083 117.141 75.5665 117.23 75.5665 117.41V118.072C75.9141 117.447 76.5391 117.135 77.4415 117.135C78.0665 117.131 78.6485 117.352 79.1876 117.797C79.7305 118.238 80.002 118.896 80.002 119.771V122.877C80.002 123.057 79.8419 123.146 79.5216 123.146ZM86.8748 122.824C86.8748 123.711 86.5741 124.355 85.9725 124.758C85.3748 125.164 84.6737 125.367 83.869 125.367C83.412 125.367 82.912 125.289 82.369 125.133C81.8299 124.977 81.4276 124.703 81.162 124.312C81.1385 124.277 81.1268 124.244 81.1268 124.213C81.1268 124.041 81.2889 123.955 81.6131 123.955C81.8241 123.955 81.9705 124.012 82.0526 124.125C82.2323 124.387 82.5037 124.57 82.867 124.676C83.2303 124.781 83.5662 124.834 83.8748 124.834C85.242 124.834 85.9256 124.164 85.9256 122.824V122.268C85.4959 122.846 84.8553 123.135 84.0037 123.135C83.1092 123.135 82.4041 122.848 81.8885 122.273C81.3768 121.695 81.1209 120.982 81.1209 120.135C81.1209 119.283 81.3768 118.57 81.8885 117.996C82.4041 117.422 83.1092 117.135 84.0037 117.135C84.8397 117.135 85.4803 117.432 85.9256 118.025L85.9315 117.404C85.9315 117.225 86.0897 117.135 86.4061 117.135C86.7186 117.135 86.8748 117.225 86.8748 117.404V122.824ZM84.0037 122.602C84.6561 122.602 85.1405 122.332 85.4569 121.793C85.7733 121.254 85.9315 120.701 85.9315 120.135C85.9315 119.564 85.7733 119.012 85.4569 118.477C85.1405 117.938 84.6561 117.668 84.0037 117.668C83.3553 117.668 82.8709 117.938 82.5506 118.477C82.2342 119.012 82.076 119.564 82.076 120.135C82.076 120.701 82.2342 121.254 82.5506 121.793C82.8709 122.332 83.3553 122.602 84.0037 122.602ZM88.9137 121.74C89.3355 121.74 89.5465 121.949 89.5465 122.367C89.5465 122.789 89.3355 123 88.9137 123C88.4957 123 88.2867 122.789 88.2867 122.367C88.2867 121.949 88.4957 121.74 88.9137 121.74ZM95.9623 120.996C96.2787 120.996 96.4369 121.08 96.4369 121.248C96.4369 121.475 96.3334 121.736 96.1263 122.033C95.6029 122.771 94.7826 123.141 93.6654 123.141C91.6693 123.141 90.6712 122.152 90.6712 120.176C90.6634 118.152 91.683 117.141 93.7298 117.141C94.8041 117.141 95.5912 117.486 96.0912 118.178C96.3138 118.475 96.4252 118.754 96.4252 119.016C96.4252 119.195 96.267 119.285 95.9505 119.285C95.6537 119.285 95.4955 119.203 95.4759 119.039C95.3509 118.129 94.7728 117.674 93.7416 117.674C93.0345 117.674 92.5052 117.93 92.1537 118.441C91.8021 118.953 91.6263 119.531 91.6263 120.176C91.6263 120.812 91.8002 121.377 92.1478 121.869C92.4955 122.361 93.015 122.607 93.7064 122.607C94.7298 122.607 95.3236 122.15 95.4877 121.236C95.515 121.076 95.6732 120.996 95.9623 120.996ZM100.339 117.141C101.241 117.141 101.98 117.418 102.554 117.973C103.128 118.527 103.415 119.25 103.415 120.141C103.415 121.031 103.128 121.754 102.554 122.309C101.98 122.863 101.241 123.141 100.339 123.141C99.4366 123.141 98.6984 122.863 98.1241 122.309C97.5499 121.754 97.2628 121.031 97.2628 120.141C97.2628 119.25 97.5499 118.527 98.1241 117.973C98.6984 117.418 99.4366 117.141 100.339 117.141ZM100.339 117.674C99.6554 117.674 99.13 117.93 98.7628 118.441C98.3995 118.953 98.2179 119.52 98.2179 120.141C98.2179 120.762 98.3995 121.328 98.7628 121.84C99.13 122.352 99.6554 122.607 100.339 122.607C101.023 122.607 101.546 122.352 101.909 121.84C102.276 121.328 102.46 120.762 102.46 120.141C102.46 119.52 102.276 118.953 101.909 118.441C101.546 117.93 101.023 117.674 100.339 117.674ZM112.989 123.141C112.673 123.141 112.515 123.053 112.515 122.877V119.754C112.515 119.258 112.403 118.791 112.181 118.354C111.958 117.912 111.561 117.691 110.991 117.691C110.425 117.691 110.032 117.914 109.813 118.359C109.595 118.801 109.485 119.266 109.485 119.754V122.877C109.485 123.053 109.325 123.141 109.005 123.141C108.688 123.141 108.53 123.053 108.53 122.877V119.754C108.53 119.258 108.423 118.791 108.208 118.354C107.993 117.912 107.599 117.691 107.024 117.691C106.458 117.691 106.059 117.939 105.829 118.436C105.602 118.928 105.489 119.43 105.489 119.941V122.871C105.489 123.051 105.331 123.141 105.015 123.141C104.694 123.141 104.534 123.051 104.534 122.871V117.404C104.534 117.229 104.694 117.141 105.015 117.141C105.331 117.141 105.489 117.229 105.489 117.404V118.049C105.821 117.443 106.395 117.141 107.212 117.141C108.016 117.141 108.638 117.467 109.075 118.119C109.466 117.467 110.106 117.141 110.997 117.141C112.645 117.141 113.47 118.012 113.47 119.754V122.877C113.47 123.053 113.309 123.141 112.989 123.141Z" fill="#FCFCFC"/>
<path d="M24 126.809H114.056V127.395H24V126.809Z" fill="#FCFCFC"/>
<a href="https://www.imperiumng.com/">
<rect fill="black" fill-opacity="0" y="0.175781" width="90.0555" height="14.6484"/>
</a>
</svg>
