<svg width="42" height="43" viewBox="0 0 42 43" fill="none" xmlns="http://www.w3.org/2000/svg">
<circle cx="21" cy="21.6659" r="20" stroke="#9162FA" stroke-width="2"/>
<path d="M26.34 15.1259C26.1027 15.1259 25.8707 15.1963 25.6733 15.3281C25.476 15.46 25.3222 15.6474 25.2313 15.8667C25.1405 16.0859 25.1168 16.3272 25.1631 16.56C25.2094 16.7928 25.3236 17.0066 25.4915 17.1744C25.6593 17.3422 25.8731 17.4565 26.1059 17.5028C26.3387 17.5491 26.5799 17.5254 26.7992 17.4345C27.0185 17.3437 27.2059 17.1899 27.3378 16.9926C27.4696 16.7952 27.54 16.5632 27.54 16.3259C27.54 16.0076 27.4136 15.7024 27.1885 15.4774C26.9635 15.2523 26.6583 15.1259 26.34 15.1259ZM30.94 17.5459C30.9206 16.7162 30.7652 15.8953 30.48 15.1159C30.2257 14.449 29.83 13.8452 29.32 13.3459C28.8248 12.8333 28.2196 12.4401 27.55 12.1959C26.7727 11.9021 25.9508 11.7431 25.12 11.7259C24.06 11.6659 23.72 11.6659 21 11.6659C18.28 11.6659 17.94 11.6659 16.88 11.7259C16.0492 11.7431 15.2273 11.9021 14.45 12.1959C13.7817 12.4425 13.1769 12.8355 12.68 13.3459C12.1674 13.8411 11.7742 14.4463 11.53 15.1159C11.2362 15.8932 11.0772 16.715 11.06 17.5459C11 18.6059 11 18.9459 11 21.6659C11 24.3859 11 24.7259 11.06 25.7859C11.0772 26.6167 11.2362 27.4385 11.53 28.2159C11.7742 28.8855 12.1674 29.4907 12.68 29.9859C13.1769 30.4963 13.7817 30.8892 14.45 31.1359C15.2273 31.4297 16.0492 31.5887 16.88 31.6059C17.94 31.6659 18.28 31.6659 21 31.6659C23.72 31.6659 24.06 31.6659 25.12 31.6059C25.9508 31.5887 26.7727 31.4297 27.55 31.1359C28.2196 30.8917 28.8248 30.4985 29.32 29.9859C29.8322 29.4885 30.2283 28.8841 30.48 28.2159C30.7652 27.4365 30.9206 26.6156 30.94 25.7859C30.94 24.7259 31 24.3859 31 21.6659C31 18.9459 31 18.6059 30.94 17.5459ZM29.14 25.6659C29.1327 26.3007 29.0178 26.9296 28.8 27.5259C28.6403 27.9611 28.3839 28.3543 28.05 28.6759C27.7256 29.0064 27.3332 29.2623 26.9 29.4259C26.3037 29.6436 25.6748 29.7586 25.04 29.7659C24.04 29.8159 23.67 29.8259 21.04 29.8259C18.41 29.8259 18.04 29.8259 17.04 29.7659C16.3809 29.7782 15.7246 29.6767 15.1 29.4659C14.6858 29.294 14.3114 29.0387 14 28.7159C13.6681 28.3946 13.4148 28.0011 13.26 27.5659C13.0159 26.961 12.8804 26.3178 12.86 25.6659C12.86 24.6659 12.8 24.2959 12.8 21.6659C12.8 19.0359 12.8 18.6659 12.86 17.6659C12.8645 17.0169 12.983 16.3738 13.21 15.7659C13.386 15.3438 13.6563 14.9676 14 14.6659C14.3038 14.3221 14.6793 14.049 15.1 13.8659C15.7096 13.6459 16.352 13.531 17 13.5259C18 13.5259 18.37 13.4659 21 13.4659C23.63 13.4659 24 13.4659 25 13.5259C25.6348 13.5332 26.2637 13.6481 26.86 13.8659C27.3144 14.0345 27.7223 14.3087 28.05 14.6659C28.3777 14.9731 28.6338 15.3486 28.8 15.7659C29.0223 16.3748 29.1373 17.0177 29.14 17.6659C29.19 18.6659 29.2 19.0359 29.2 21.6659C29.2 24.2959 29.19 24.6659 29.14 25.6659ZM21 16.5359C19.9858 16.5379 18.995 16.8404 18.1527 17.4053C17.3103 17.9702 16.6544 18.7721 16.2676 19.7096C15.8809 20.6472 15.7807 21.6784 15.9798 22.6728C16.1789 23.6673 16.6682 24.5804 17.3861 25.2969C18.1039 26.0133 19.018 26.5009 20.0129 26.698C21.0077 26.8952 22.0387 26.793 22.9755 26.4044C23.9123 26.0159 24.7129 25.3583 25.2761 24.5149C25.8394 23.6715 26.14 22.6801 26.14 21.6659C26.1413 20.991 26.0092 20.3225 25.7512 19.6988C25.4933 19.0752 25.1146 18.5087 24.6369 18.0319C24.1592 17.5552 23.5919 17.1776 22.9678 16.9208C22.3436 16.6641 21.6749 16.5333 21 16.5359ZM21 24.9959C20.3414 24.9959 19.6976 24.8006 19.15 24.4347C18.6023 24.0688 18.1755 23.5487 17.9235 22.9402C17.6714 22.3318 17.6055 21.6622 17.734 21.0162C17.8625 20.3703 18.1796 19.7769 18.6453 19.3112C19.111 18.8455 19.7044 18.5284 20.3503 18.3999C20.9963 18.2714 21.6659 18.3373 22.2743 18.5894C22.8828 18.8414 23.4029 19.2682 23.7688 19.8158C24.1347 20.3635 24.33 21.0073 24.33 21.6659C24.33 22.1032 24.2439 22.5362 24.0765 22.9402C23.9092 23.3442 23.6639 23.7113 23.3547 24.0206C23.0454 24.3298 22.6784 24.5751 22.2743 24.7424C21.8703 24.9098 21.4373 24.9959 21 24.9959Z" fill="#7F3BF3"/>
</svg>
