<svg width="42" height="43" viewBox="0 0 42 43" fill="none" xmlns="http://www.w3.org/2000/svg">
<circle cx="21" cy="21.6659" r="20" stroke="#9162FA" stroke-width="2"/>
<path d="M26.5002 18.6649C25.605 18.6645 24.7236 18.8859 23.9348 19.3094C23.8628 19.1198 23.7349 18.9566 23.5679 18.8415C23.401 18.7264 23.203 18.6648 23.0002 18.6649H19.0002C18.8689 18.6648 18.7388 18.6906 18.6174 18.7408C18.4961 18.7911 18.3858 18.8647 18.2929 18.9576C18.2001 19.0505 18.1264 19.1607 18.0762 19.2821C18.026 19.4035 18.0001 19.5335 18.0002 19.6649V31.6649C18.0001 31.7962 18.026 31.9263 18.0762 32.0476C18.1264 32.169 18.2001 32.2793 18.2929 32.3721C18.3858 32.465 18.4961 32.5387 18.6174 32.5889C18.7388 32.6391 18.8689 32.6649 19.0002 32.6649H23.0002C23.1316 32.6649 23.2616 32.6391 23.383 32.5889C23.5043 32.5387 23.6146 32.465 23.7075 32.3721C23.8004 32.2793 23.874 32.169 23.9242 32.0476C23.9745 31.9263 24.0003 31.7962 24.0002 31.6649V26.1649C24.0002 25.8996 24.1056 25.6453 24.2931 25.4578C24.4806 25.2702 24.735 25.1649 25.0002 25.1649C25.2654 25.1649 25.5198 25.2702 25.7073 25.4578C25.8949 25.6453 26.0002 25.8996 26.0002 26.1649V31.6649C26.0001 31.7962 26.026 31.9263 26.0762 32.0476C26.1264 32.169 26.2001 32.2793 26.2929 32.3721C26.3858 32.465 26.4961 32.5387 26.6174 32.5889C26.7388 32.6391 26.8689 32.6649 27.0002 32.6649H31.0002C31.1316 32.6649 31.2616 32.6391 31.383 32.5889C31.5044 32.5387 31.6146 32.465 31.7075 32.3721C31.8004 32.2793 31.874 32.169 31.9242 32.0476C31.9745 31.9263 32.0003 31.7962 32.0002 31.6649V24.1649C31.9984 22.7067 31.4184 21.3088 30.3873 20.2778C29.3562 19.2467 27.9583 18.6667 26.5002 18.6649ZM30.0002 30.6649H28.0002V26.1649C28.0002 25.3692 27.6841 24.6062 27.1215 24.0435C26.5589 23.4809 25.7959 23.1649 25.0002 23.1649C24.2046 23.1649 23.4415 23.4809 22.8789 24.0435C22.3163 24.6062 22.0002 25.3692 22.0002 26.1649V30.6649H20.0002V20.6649H22.0002V21.368C22.0003 21.5752 22.0648 21.7772 22.1847 21.9462C22.3045 22.1152 22.4739 22.2429 22.6694 22.3115C22.865 22.3801 23.077 22.3863 23.2761 22.3292C23.4753 22.2722 23.6519 22.1547 23.7815 21.993C24.2302 21.423 24.8458 21.0074 25.5422 20.8042C26.2386 20.601 26.9811 20.6204 27.6659 20.8596C28.3508 21.0988 28.9439 21.5458 29.3624 22.1384C29.7809 22.731 30.0039 23.4394 30.0002 24.1649V30.6649ZM16.0002 18.6649H12.0002C11.8689 18.6648 11.7388 18.6906 11.6174 18.7408C11.4961 18.7911 11.3858 18.8647 11.2929 18.9576C11.2001 19.0505 11.1264 19.1607 11.0762 19.2821C11.026 19.4035 11.0001 19.5335 11.0002 19.6649V31.6649C11.0001 31.7962 11.026 31.9263 11.0762 32.0476C11.1264 32.169 11.2001 32.2793 11.2929 32.3721C11.3858 32.465 11.4961 32.5387 11.6174 32.5889C11.7388 32.6391 11.8689 32.6649 12.0002 32.6649H16.0002C16.1316 32.6649 16.2616 32.6391 16.383 32.5889C16.5043 32.5387 16.6146 32.465 16.7075 32.3721C16.8004 32.2793 16.874 32.169 16.9242 32.0476C16.9745 31.9263 17.0003 31.7962 17.0002 31.6649V19.6649C17.0003 19.5335 16.9745 19.4035 16.9242 19.2821C16.874 19.1607 16.8004 19.0505 16.7075 18.9576C16.6146 18.8647 16.5043 18.7911 16.383 18.7408C16.2616 18.6906 16.1316 18.6648 16.0002 18.6649ZM15.0002 30.6649H13.0002V20.6649H15.0002V30.6649ZM14.0149 11.2079C13.5772 11.1817 13.1388 11.2448 12.7263 11.3933C12.3139 11.5419 11.9359 11.7728 11.6154 12.072C11.295 12.3712 11.0387 12.7324 10.8623 13.1338C10.6858 13.5351 10.5928 13.9681 10.589 14.4066C10.5851 14.845 10.6705 15.2796 10.8399 15.6839C11.0093 16.0883 11.2592 16.454 11.5743 16.7588C11.8895 17.0636 12.2633 17.3011 12.6731 17.4568C13.083 17.6126 13.5202 17.6834 13.9582 17.6649H13.9865C14.4253 17.6909 14.8648 17.6272 15.2782 17.4777C15.6915 17.3282 16.0701 17.0959 16.3906 16.7952C16.7112 16.4944 16.9671 16.1314 17.1426 15.7284C17.3182 15.3254 17.4097 14.8909 17.4116 14.4513C17.4136 14.0118 17.3258 13.5764 17.1538 13.1719C16.9818 12.7674 16.7291 12.4022 16.4112 12.0986C16.0933 11.795 15.7168 11.5595 15.3048 11.4063C14.8928 11.2532 14.4539 11.1857 14.0149 11.2079H14.0149ZM13.9865 15.6649H13.9582C13.7853 15.6859 13.6099 15.6696 13.4437 15.6173C13.2776 15.5649 13.1245 15.4777 12.9949 15.3613C12.8652 15.245 12.7619 15.1023 12.6919 14.9427C12.6219 14.7832 12.5869 14.6106 12.5891 14.4364C12.5891 13.6903 13.1487 13.2079 14.0149 13.2079C14.1896 13.1846 14.3672 13.199 14.5359 13.2501C14.7045 13.3013 14.8603 13.388 14.9926 13.5044C15.1249 13.6208 15.2308 13.7642 15.303 13.925C15.3752 14.0858 15.4122 14.2601 15.4113 14.4364C15.4113 15.1825 14.8518 15.6649 13.9865 15.6649Z" fill="#7F3BF3"/>
</svg>
