<svg width="360" height="800" viewBox="0 0 360 800" fill="none" xmlns="http://www.w3.org/2000/svg">
<g clip-path="url(#clip0_910_12738)">
<rect width="360" height="800" fill="white"/>
<rect width="360" height="800" fill="white"/>
<path d="M165.748 69.8021C167.647 70.5968 170.424 71.5304 172.162 70.2555C173.684 69.1383 173.444 67.1737 173.444 65.5028C172.316 66.1276 171.086 66.4401 169.756 66.4401C168.708 66.4401 167.725 66.2435 166.808 65.8506C165.891 65.4576 165.09 64.9183 164.404 64.233C163.719 63.5477 163.18 62.7464 162.787 61.8295C162.394 60.9123 162.197 59.9295 162.197 58.8816C162.197 57.8335 162.394 56.8509 162.787 55.9338C163.18 55.0168 163.719 54.2156 164.404 53.5303C165.09 52.8449 165.891 52.3059 166.808 51.9127C167.725 51.5195 168.708 51.3231 169.756 51.3231C170.804 51.3231 171.786 51.5197 172.704 51.9127C173.621 52.3059 174.422 52.8449 175.107 53.5303C175.792 54.2156 176.332 55.0168 176.725 55.9338C177.118 56.8509 177.314 57.8337 177.314 58.8816V66.4404C177.314 74.3642 171.122 76.2684 164.279 73.0951L165.748 69.8025L165.748 69.8021ZM169.756 62.57C170.239 62.57 170.703 62.4793 171.147 62.2978C171.59 62.1163 171.978 61.8643 172.311 61.542C172.643 61.2195 172.91 60.8416 173.112 60.4083C173.313 59.975 173.424 59.5164 173.445 59.0326V58.8814C173.445 58.3776 173.349 57.8988 173.157 57.4454C172.966 56.9919 172.704 56.5987 172.371 56.2662C172.038 55.9335 171.646 55.6715 171.192 55.48C170.739 55.2885 170.26 55.1928 169.756 55.1928C169.252 55.1928 168.773 55.2885 168.32 55.48C167.866 55.6715 167.473 55.9335 167.141 56.2662C166.808 56.5989 166.546 56.9919 166.354 57.4454C166.163 57.8988 166.067 58.3776 166.067 58.8814C166.067 59.3852 166.163 59.8642 166.354 60.3174C166.546 60.7709 166.808 61.1641 167.141 61.4966C167.473 61.8293 167.866 62.0912 168.32 62.2827C168.773 62.4742 169.252 62.57 169.756 62.57H169.756Z" fill="#4E00AD"/>
<path d="M218.519 55.3923L218.499 51.3622H215.385L215.404 48L211.244 48.0053L211.268 51.352H204.477C206.621 52.1555 207.652 53.2457 208.561 55.2314H211.244V60.583C211.244 64.4782 212.386 66.4356 217.187 66.252C217.603 66.2362 219.756 66.1064 220.229 66.0582C219.282 65.0221 218.485 63.8647 218.519 62.044C217.847 62.0849 217.275 62.0978 216.811 62.0485C215.897 61.9504 215.404 61.6068 215.404 60.7441V55.3925H218.519V55.3923Z" fill="#4E00AD"/>
<path d="M143.327 56.9275C143.226 56.4035 142.979 55.97 142.586 55.6276C142.193 55.2849 141.724 55.1136 141.18 55.1136C140.616 55.1136 140.127 55.3051 139.714 55.6879C139.301 56.0709 139.074 56.5445 139.034 57.1088V66.3908H135.163V57.2298C135.143 56.6454 134.926 56.1464 134.513 55.7331C134.1 55.3199 133.601 55.1133 133.017 55.1133C132.473 55.1133 131.999 55.2847 131.596 55.6273C131.193 55.97 130.951 56.4033 130.87 56.9273V66.3908H127V57.2298C127 56.4033 127.161 55.6273 127.484 54.9017C127.806 54.176 128.24 53.5463 128.784 53.0122C129.328 52.478 129.963 52.0547 130.689 51.7424C131.414 51.4298 132.19 51.2738 133.017 51.2738C133.803 51.2738 134.544 51.4199 135.239 51.7122C135.934 52.0046 136.554 52.4027 137.098 52.9064C137.623 52.4027 138.237 52.0044 138.943 51.7122C139.648 51.4199 140.394 51.2738 141.18 51.2738C142.007 51.2738 142.782 51.4301 143.508 51.7424C144.234 52.0549 144.869 52.478 145.413 53.0122C145.957 53.5463 146.39 54.1762 146.713 54.9017C147.036 55.6273 147.197 56.4033 147.197 57.2298V66.3908H144.933H143.327V66.3892H147.196V59.3155H143.327V56.9273L143.327 56.9275Z" fill="#4E00AD"/>
<path d="M208.592 66.3871L204.722 66.3797V58.8323C204.722 58.3285 204.626 57.8495 204.435 57.3963C204.243 56.9428 203.981 56.5496 203.649 56.2171C203.316 55.8845 202.923 55.6225 202.469 55.431C202.016 55.2395 201.537 55.1437 201.033 55.1437C200.53 55.1437 200.051 55.2395 199.597 55.431C199.144 55.6225 198.751 55.8845 198.418 56.2171C198.085 56.5498 197.823 56.9428 197.632 57.3963C197.44 57.8498 197.345 58.3285 197.345 58.8323V66.391H193.475V58.8323C193.475 57.7842 193.671 56.8016 194.064 55.8845C194.457 54.9675 194.996 54.1663 195.682 53.481C196.367 52.7956 197.168 52.2564 198.085 51.8634C199.002 51.4702 199.985 51.2738 201.033 51.2738C202.081 51.2738 203.064 51.4704 203.981 51.8634C204.898 52.2564 205.699 52.7956 206.384 53.481C207.07 54.1663 207.609 54.9675 208.002 55.8845C208.395 56.8014 208.592 57.7846 208.592 58.8323V66.3871H208.592Z" fill="#4E00AD"/>
<path d="M182.79 60.9011L192.832 59.5938C192.875 59.0418 192.858 58.4686 192.781 57.8747C192.224 53.6034 188.754 50.8049 184.624 51.3425C180.155 51.9244 177.523 55.5753 178.072 59.7897C178.621 64.0043 182.042 66.8669 186.879 66.2372C189.567 65.8874 191.531 64.6247 192.667 62.5208L189.018 61.011C188.533 61.707 187.602 62.2885 186.443 62.4394C184.887 62.642 183.519 62.3021 182.79 60.9014V60.9011ZM182.293 57.7444C182.501 56.2502 183.473 55.3181 185.085 55.1083C186.358 54.9426 187.708 55.371 188.375 56.9526L182.293 57.7444Z" fill="#4E00AD"/>
<path d="M226.072 51.7697C228.421 51.7697 229.726 52.305 230.961 53.3743C232.195 54.444 232.917 55.9626 232.935 58.1711L233.001 66.3591H228.667L228.682 64.3202C227.969 65.6946 226.577 66.3815 224.507 66.3815C223.411 66.3815 222.463 66.19 221.663 65.8075C220.863 65.4247 220.258 64.9073 219.85 64.2551C219.441 63.6027 219.236 62.8592 219.236 62.0241C219.236 60.6847 219.75 59.6451 220.776 58.906C221.802 58.1669 223.385 57.7971 225.525 57.7971H229.089C229.002 56.3011 227.255 55.5531 225.342 55.5531C224.664 55.5531 223.977 55.6619 223.281 55.8793C222.585 56.0968 221.993 56.3968 221.507 56.7796L219.837 53.4137C220.619 52.8918 221.572 52.4875 222.694 52.2005C223.816 51.9135 224.942 51.7699 226.073 51.7699L226.072 51.7697ZM225.89 63.2505C226.464 63.2505 226.968 63.1112 227.403 62.833C227.838 62.5548 228.151 62.1458 228.343 61.6068V60.3803H226.203C224.759 60.3803 224.037 60.8588 224.037 61.8154C224.037 62.2504 224.202 62.5981 224.533 62.8592C224.863 63.12 225.316 63.2505 225.89 63.2505V63.2505Z" fill="#4E00AD"/>
<path d="M154.713 51.7697C157.062 51.7697 158.367 52.305 159.602 53.3743C160.836 54.444 161.558 55.9626 161.576 58.1711L161.642 66.3591H157.307L157.322 64.3202C156.609 65.6946 155.218 66.3815 153.147 66.3815C152.052 66.3815 151.103 66.19 150.303 65.8075C149.503 65.4247 148.899 64.9073 148.49 64.2551C148.081 63.6027 147.877 62.8592 147.877 62.0241C147.877 60.6847 148.39 59.6451 149.416 58.906C150.443 58.1669 152.026 57.7971 154.165 57.7971H157.73C157.643 56.3011 155.896 55.5531 153.983 55.5531C153.304 55.5531 152.617 55.6619 151.921 55.8793C151.225 56.0968 150.634 56.3968 150.147 56.7796L148.477 53.4137C149.26 52.8918 150.212 52.4875 151.334 52.2005C152.456 51.9135 153.583 51.7699 154.713 51.7699V51.7697ZM154.531 63.2505C155.105 63.2505 155.609 63.1112 156.044 62.833C156.479 62.5548 156.792 62.1458 156.984 61.6068V60.3803H154.844C153.4 60.3803 152.678 60.8588 152.678 61.8154C152.678 62.2504 152.843 62.5981 153.174 62.8592C153.504 63.12 153.957 63.2505 154.531 63.2505Z" fill="#4E00AD"/>
<path d="M147.167 61.011H143.258V66.3869H147.167V61.011Z" fill="#CC00C1"/>
<path d="M60.7216 204V186.545H63.8835V201.349H71.571V204H60.7216ZM79.4092 204.256C78.1308 204.256 77.0228 203.974 76.0853 203.412C75.1478 202.849 74.4206 202.062 73.9035 201.051C73.3922 200.04 73.1365 198.858 73.1365 197.506C73.1365 196.153 73.3922 194.969 73.9035 193.952C74.4206 192.935 75.1478 192.145 76.0853 191.582C77.0228 191.02 78.1308 190.739 79.4092 190.739C80.6876 190.739 81.7956 191.02 82.7331 191.582C83.6706 192.145 84.395 192.935 84.9064 193.952C85.4234 194.969 85.6819 196.153 85.6819 197.506C85.6819 198.858 85.4234 200.04 84.9064 201.051C84.395 202.062 83.6706 202.849 82.7331 203.412C81.7956 203.974 80.6876 204.256 79.4092 204.256ZM79.4263 201.784C80.1194 201.784 80.699 201.594 81.1649 201.213C81.6308 200.827 81.9774 200.31 82.2047 199.662C82.4376 199.014 82.5541 198.293 82.5541 197.497C82.5541 196.696 82.4376 195.972 82.2047 195.324C81.9774 194.67 81.6308 194.151 81.1649 193.764C80.699 193.378 80.1194 193.185 79.4263 193.185C78.716 193.185 78.1251 193.378 77.6535 193.764C77.1876 194.151 76.8382 194.67 76.6052 195.324C76.378 195.972 76.2643 196.696 76.2643 197.497C76.2643 198.293 76.378 199.014 76.6052 199.662C76.8382 200.31 77.1876 200.827 77.6535 201.213C78.1251 201.594 78.716 201.784 79.4263 201.784ZM93.5137 209.182C92.4058 209.182 91.4541 209.031 90.6586 208.73C89.8632 208.435 89.2239 208.037 88.741 207.537C88.258 207.037 87.9228 206.483 87.7353 205.875L90.5137 205.202C90.6387 205.457 90.8205 205.71 91.0592 205.96C91.2978 206.216 91.6188 206.426 92.0222 206.591C92.4313 206.761 92.9455 206.847 93.5649 206.847C94.4399 206.847 95.1643 206.634 95.7382 206.207C96.312 205.787 96.5989 205.094 96.5989 204.128V201.648H96.4455C96.2865 201.966 96.0535 202.293 95.7467 202.628C95.4455 202.963 95.045 203.244 94.545 203.472C94.0507 203.699 93.4285 203.812 92.6785 203.812C91.6728 203.812 90.7609 203.577 89.9427 203.105C89.1302 202.628 88.4825 201.918 87.9995 200.974C87.5222 200.026 87.2836 198.838 87.2836 197.412C87.2836 195.974 87.5222 194.761 87.9995 193.773C88.4825 192.778 89.133 192.026 89.9512 191.514C90.7694 190.997 91.6813 190.739 92.687 190.739C93.4541 190.739 94.0847 190.869 94.5791 191.131C95.0791 191.386 95.4768 191.696 95.7722 192.06C96.0677 192.418 96.2921 192.756 96.4455 193.074H96.616V190.909H99.6586V204.213C99.6586 205.332 99.3916 206.259 98.8575 206.991C98.3234 207.724 97.5933 208.273 96.6671 208.636C95.741 209 94.6899 209.182 93.5137 209.182ZM93.5393 201.392C94.1927 201.392 94.7495 201.233 95.2097 200.915C95.67 200.597 96.0194 200.139 96.258 199.543C96.4967 198.946 96.616 198.23 96.616 197.395C96.616 196.571 96.4967 195.849 96.258 195.23C96.0251 194.611 95.6785 194.131 95.2183 193.79C94.7637 193.443 94.2041 193.27 93.5393 193.27C92.8518 193.27 92.2779 193.449 91.8177 193.807C91.3575 194.165 91.0109 194.656 90.7779 195.281C90.545 195.901 90.4285 196.605 90.4285 197.395C90.4285 198.196 90.545 198.898 90.7779 199.5C91.0166 200.097 91.366 200.562 91.8262 200.898C92.2921 201.227 92.8632 201.392 93.5393 201.392ZM102.341 204V190.909H105.426V204H102.341ZM103.892 189.051C103.403 189.051 102.983 188.889 102.63 188.565C102.278 188.236 102.102 187.841 102.102 187.381C102.102 186.915 102.278 186.52 102.63 186.196C102.983 185.866 103.403 185.702 103.892 185.702C104.386 185.702 104.806 185.866 105.153 186.196C105.505 186.52 105.681 186.915 105.681 187.381C105.681 187.841 105.505 188.236 105.153 188.565C104.806 188.889 104.386 189.051 103.892 189.051ZM111.204 196.33V204H108.118V190.909H111.067V193.134H111.221C111.522 192.401 112.002 191.818 112.661 191.386C113.326 190.955 114.147 190.739 115.124 190.739C116.027 190.739 116.814 190.932 117.485 191.318C118.161 191.705 118.684 192.264 119.053 192.997C119.428 193.73 119.613 194.619 119.607 195.665V204H116.522V196.142C116.522 195.267 116.294 194.582 115.84 194.088C115.391 193.594 114.769 193.347 113.973 193.347C113.434 193.347 112.954 193.466 112.533 193.705C112.118 193.937 111.792 194.276 111.553 194.719C111.32 195.162 111.204 195.699 111.204 196.33ZM134.273 190.909V193.295H126.748V190.909H134.273ZM128.606 187.773H131.691V200.062C131.691 200.477 131.754 200.795 131.879 201.017C132.009 201.233 132.18 201.381 132.39 201.46C132.6 201.54 132.833 201.58 133.089 201.58C133.282 201.58 133.458 201.565 133.617 201.537C133.782 201.509 133.907 201.483 133.992 201.46L134.512 203.872C134.347 203.929 134.111 203.991 133.805 204.06C133.504 204.128 133.134 204.168 132.697 204.179C131.924 204.202 131.228 204.085 130.609 203.83C129.989 203.568 129.498 203.165 129.134 202.619C128.776 202.074 128.6 201.392 128.606 200.574V187.773ZM141.943 204.256C140.665 204.256 139.557 203.974 138.619 203.412C137.682 202.849 136.955 202.062 136.438 201.051C135.926 200.04 135.671 198.858 135.671 197.506C135.671 196.153 135.926 194.969 136.438 193.952C136.955 192.935 137.682 192.145 138.619 191.582C139.557 191.02 140.665 190.739 141.943 190.739C143.222 190.739 144.33 191.02 145.267 191.582C146.205 192.145 146.929 192.935 147.44 193.952C147.957 194.969 148.216 196.153 148.216 197.506C148.216 198.858 147.957 200.04 147.44 201.051C146.929 202.062 146.205 202.849 145.267 203.412C144.33 203.974 143.222 204.256 141.943 204.256ZM141.96 201.784C142.653 201.784 143.233 201.594 143.699 201.213C144.165 200.827 144.511 200.31 144.739 199.662C144.972 199.014 145.088 198.293 145.088 197.497C145.088 196.696 144.972 195.972 144.739 195.324C144.511 194.67 144.165 194.151 143.699 193.764C143.233 193.378 142.653 193.185 141.96 193.185C141.25 193.185 140.659 193.378 140.188 193.764C139.722 194.151 139.372 194.67 139.139 195.324C138.912 195.972 138.798 196.696 138.798 197.497C138.798 198.293 138.912 199.014 139.139 199.662C139.372 200.31 139.722 200.827 140.188 201.213C140.659 201.594 141.25 201.784 141.96 201.784ZM157.745 208.909C157.325 208.909 156.936 208.875 156.578 208.807C156.225 208.744 155.944 208.67 155.734 208.585L156.45 206.182C156.899 206.313 157.299 206.375 157.652 206.369C158.004 206.364 158.314 206.253 158.581 206.037C158.853 205.827 159.083 205.474 159.271 204.98L159.535 204.273L154.788 190.909H158.061L161.078 200.795H161.214L164.24 190.909H167.521L162.279 205.585C162.035 206.278 161.711 206.872 161.308 207.366C160.904 207.866 160.41 208.247 159.825 208.509C159.245 208.776 158.552 208.909 157.745 208.909ZM174.441 204.256C173.162 204.256 172.054 203.974 171.117 203.412C170.179 202.849 169.452 202.062 168.935 201.051C168.424 200.04 168.168 198.858 168.168 197.506C168.168 196.153 168.424 194.969 168.935 193.952C169.452 192.935 170.179 192.145 171.117 191.582C172.054 191.02 173.162 190.739 174.441 190.739C175.719 190.739 176.827 191.02 177.765 191.582C178.702 192.145 179.427 192.935 179.938 193.952C180.455 194.969 180.713 196.153 180.713 197.506C180.713 198.858 180.455 200.04 179.938 201.051C179.427 202.062 178.702 202.849 177.765 203.412C176.827 203.974 175.719 204.256 174.441 204.256ZM174.458 201.784C175.151 201.784 175.731 201.594 176.196 201.213C176.662 200.827 177.009 200.31 177.236 199.662C177.469 199.014 177.586 198.293 177.586 197.497C177.586 196.696 177.469 195.972 177.236 195.324C177.009 194.67 176.662 194.151 176.196 193.764C175.731 193.378 175.151 193.185 174.458 193.185C173.748 193.185 173.157 193.378 172.685 193.764C172.219 194.151 171.87 194.67 171.637 195.324C171.41 195.972 171.296 196.696 171.296 197.497C171.296 198.293 171.41 199.014 171.637 199.662C171.87 200.31 172.219 200.827 172.685 201.213C173.157 201.594 173.748 201.784 174.458 201.784ZM191.196 198.494V190.909H194.281V204H191.29V201.673H191.153C190.858 202.406 190.372 203.006 189.696 203.472C189.025 203.937 188.199 204.17 187.216 204.17C186.358 204.17 185.599 203.98 184.94 203.599C184.287 203.213 183.775 202.653 183.406 201.92C183.037 201.182 182.852 200.29 182.852 199.244V190.909H185.937V198.767C185.937 199.597 186.165 200.256 186.619 200.744C187.074 201.233 187.67 201.477 188.409 201.477C188.863 201.477 189.304 201.366 189.73 201.145C190.156 200.923 190.506 200.594 190.778 200.156C191.057 199.713 191.196 199.159 191.196 198.494ZM196.974 204V190.909H199.965V193.091H200.102C200.34 192.335 200.749 191.753 201.329 191.344C201.914 190.929 202.582 190.722 203.332 190.722C203.502 190.722 203.692 190.73 203.903 190.747C204.119 190.759 204.298 190.778 204.44 190.807V193.645C204.309 193.599 204.102 193.56 203.817 193.526C203.539 193.486 203.269 193.466 203.008 193.466C202.445 193.466 201.94 193.588 201.491 193.832C201.048 194.071 200.698 194.403 200.442 194.83C200.187 195.256 200.059 195.747 200.059 196.304V204H196.974ZM215.249 204.264C214.42 204.264 213.673 204.116 213.008 203.821C212.349 203.52 211.826 203.077 211.44 202.491C211.059 201.906 210.869 201.185 210.869 200.327C210.869 199.588 211.005 198.977 211.278 198.494C211.551 198.011 211.923 197.625 212.394 197.335C212.866 197.045 213.397 196.827 213.988 196.679C214.585 196.526 215.201 196.415 215.838 196.347C216.605 196.267 217.227 196.196 217.704 196.134C218.181 196.065 218.528 195.963 218.744 195.827C218.965 195.685 219.076 195.466 219.076 195.17V195.119C219.076 194.477 218.886 193.98 218.505 193.628C218.124 193.276 217.576 193.099 216.86 193.099C216.105 193.099 215.505 193.264 215.062 193.594C214.624 193.923 214.329 194.312 214.176 194.761L211.295 194.352C211.522 193.557 211.897 192.892 212.42 192.358C212.943 191.818 213.582 191.415 214.338 191.148C215.093 190.875 215.928 190.739 216.843 190.739C217.474 190.739 218.102 190.812 218.727 190.96C219.352 191.108 219.923 191.352 220.44 191.693C220.957 192.028 221.372 192.486 221.684 193.065C222.002 193.645 222.161 194.369 222.161 195.239V204H219.195V202.202H219.093C218.906 202.565 218.642 202.906 218.301 203.224C217.965 203.537 217.542 203.79 217.031 203.983C216.525 204.17 215.931 204.264 215.249 204.264ZM216.051 201.997C216.67 201.997 217.207 201.875 217.661 201.631C218.116 201.381 218.465 201.051 218.71 200.642C218.96 200.233 219.085 199.787 219.085 199.304V197.761C218.988 197.841 218.823 197.915 218.59 197.983C218.363 198.051 218.107 198.111 217.823 198.162C217.539 198.213 217.258 198.259 216.98 198.298C216.701 198.338 216.46 198.372 216.255 198.401C215.795 198.463 215.383 198.565 215.019 198.707C214.656 198.849 214.369 199.048 214.159 199.304C213.948 199.554 213.843 199.878 213.843 200.276C213.843 200.844 214.051 201.273 214.465 201.562C214.88 201.852 215.409 201.997 216.051 201.997ZM230.494 204.256C229.187 204.256 228.065 203.969 227.127 203.395C226.196 202.821 225.477 202.028 224.971 201.017C224.471 200 224.221 198.83 224.221 197.506C224.221 196.176 224.477 195.003 224.988 193.986C225.5 192.963 226.221 192.168 227.153 191.599C228.09 191.026 229.198 190.739 230.477 190.739C231.539 190.739 232.48 190.935 233.298 191.327C234.122 191.713 234.778 192.261 235.267 192.972C235.755 193.676 236.034 194.5 236.102 195.443H233.153C233.034 194.812 232.75 194.287 232.301 193.866C231.858 193.44 231.264 193.227 230.519 193.227C229.889 193.227 229.335 193.398 228.858 193.739C228.38 194.074 228.008 194.557 227.741 195.188C227.48 195.818 227.349 196.574 227.349 197.455C227.349 198.347 227.48 199.114 227.741 199.756C228.002 200.392 228.369 200.884 228.84 201.23C229.318 201.571 229.877 201.741 230.519 201.741C230.974 201.741 231.38 201.656 231.738 201.486C232.102 201.31 232.406 201.057 232.65 200.727C232.894 200.398 233.062 199.997 233.153 199.526H236.102C236.028 200.452 235.755 201.273 235.284 201.989C234.812 202.699 234.17 203.256 233.358 203.659C232.545 204.057 231.59 204.256 230.494 204.256ZM243.865 204.256C242.559 204.256 241.436 203.969 240.499 203.395C239.567 202.821 238.848 202.028 238.343 201.017C237.843 200 237.593 198.83 237.593 197.506C237.593 196.176 237.848 195.003 238.36 193.986C238.871 192.963 239.593 192.168 240.525 191.599C241.462 191.026 242.57 190.739 243.848 190.739C244.911 190.739 245.851 190.935 246.669 191.327C247.493 191.713 248.15 192.261 248.638 192.972C249.127 193.676 249.405 194.5 249.473 195.443H246.525C246.405 194.812 246.121 194.287 245.672 193.866C245.229 193.44 244.635 193.227 243.891 193.227C243.26 193.227 242.706 193.398 242.229 193.739C241.752 194.074 241.38 194.557 241.113 195.188C240.851 195.818 240.721 196.574 240.721 197.455C240.721 198.347 240.851 199.114 241.113 199.756C241.374 200.392 241.74 200.884 242.212 201.23C242.689 201.571 243.249 201.741 243.891 201.741C244.346 201.741 244.752 201.656 245.11 201.486C245.473 201.31 245.777 201.057 246.022 200.727C246.266 200.398 246.434 199.997 246.525 199.526H249.473C249.4 200.452 249.127 201.273 248.655 201.989C248.184 202.699 247.542 203.256 246.729 203.659C245.917 204.057 244.962 204.256 243.865 204.256ZM257.237 204.256C255.959 204.256 254.851 203.974 253.913 203.412C252.976 202.849 252.248 202.062 251.731 201.051C251.22 200.04 250.964 198.858 250.964 197.506C250.964 196.153 251.22 194.969 251.731 193.952C252.248 192.935 252.976 192.145 253.913 191.582C254.851 191.02 255.959 190.739 257.237 190.739C258.515 190.739 259.623 191.02 260.561 191.582C261.498 192.145 262.223 192.935 262.734 193.952C263.251 194.969 263.51 196.153 263.51 197.506C263.51 198.858 263.251 200.04 262.734 201.051C262.223 202.062 261.498 202.849 260.561 203.412C259.623 203.974 258.515 204.256 257.237 204.256ZM257.254 201.784C257.947 201.784 258.527 201.594 258.993 201.213C259.459 200.827 259.805 200.31 260.032 199.662C260.265 199.014 260.382 198.293 260.382 197.497C260.382 196.696 260.265 195.972 260.032 195.324C259.805 194.67 259.459 194.151 258.993 193.764C258.527 193.378 257.947 193.185 257.254 193.185C256.544 193.185 255.953 193.378 255.481 193.764C255.015 194.151 254.666 194.67 254.433 195.324C254.206 195.972 254.092 196.696 254.092 197.497C254.092 198.293 254.206 199.014 254.433 199.662C254.666 200.31 255.015 200.827 255.481 201.213C255.953 201.594 256.544 201.784 257.254 201.784ZM273.992 198.494V190.909H277.077V204H274.086V201.673H273.949C273.654 202.406 273.168 203.006 272.492 203.472C271.822 203.937 270.995 204.17 270.012 204.17C269.154 204.17 268.396 203.98 267.736 203.599C267.083 203.213 266.572 202.653 266.202 201.92C265.833 201.182 265.648 200.29 265.648 199.244V190.909H268.734V198.767C268.734 199.597 268.961 200.256 269.415 200.744C269.87 201.233 270.467 201.477 271.205 201.477C271.66 201.477 272.1 201.366 272.526 201.145C272.952 200.923 273.302 200.594 273.574 200.156C273.853 199.713 273.992 199.159 273.992 198.494ZM282.855 196.33V204H279.77V190.909H282.719V193.134H282.872C283.173 192.401 283.653 191.818 284.313 191.386C284.977 190.955 285.798 190.739 286.776 190.739C287.679 190.739 288.466 190.932 289.136 191.318C289.813 191.705 290.335 192.264 290.705 192.997C291.08 193.73 291.264 194.619 291.259 195.665V204H288.173V196.142C288.173 195.267 287.946 194.582 287.492 194.088C287.043 193.594 286.42 193.347 285.625 193.347C285.085 193.347 284.605 193.466 284.185 193.705C283.77 193.937 283.443 194.276 283.205 194.719C282.972 195.162 282.855 195.699 282.855 196.33ZM300.452 190.909V193.295H292.926V190.909H300.452ZM294.784 187.773H297.869V200.062C297.869 200.477 297.932 200.795 298.057 201.017C298.188 201.233 298.358 201.381 298.568 201.46C298.779 201.54 299.011 201.58 299.267 201.58C299.46 201.58 299.636 201.565 299.796 201.537C299.96 201.509 300.085 201.483 300.171 201.46L300.69 203.872C300.526 203.929 300.29 203.991 299.983 204.06C299.682 204.128 299.313 204.168 298.875 204.179C298.102 204.202 297.406 204.085 296.787 203.83C296.168 203.568 295.676 203.165 295.313 202.619C294.955 202.074 294.779 201.392 294.784 200.574V187.773Z" fill="black"/>
<path d="M92.233 234V223.818H95.6733C96.4721 223.818 97.125 223.962 97.6321 224.251C98.1425 224.536 98.5204 224.922 98.7656 225.409C99.0109 225.896 99.1335 226.44 99.1335 227.04C99.1335 227.64 99.0109 228.185 98.7656 228.675C98.5237 229.166 98.1491 229.557 97.642 229.849C97.1349 230.137 96.4853 230.281 95.6932 230.281H93.2273V229.188H95.6534C96.2003 229.188 96.6394 229.093 96.9709 228.904C97.3023 228.715 97.5426 228.46 97.6918 228.138C97.8442 227.814 97.9205 227.447 97.9205 227.04C97.9205 226.632 97.8442 226.268 97.6918 225.946C97.5426 225.625 97.3007 225.373 96.9659 225.19C96.6312 225.005 96.187 224.912 95.6335 224.912H93.4659V234H92.233ZM102.134 223.818V234H100.961V223.818H102.134ZM107.485 234.159C106.749 234.159 106.114 233.997 105.58 233.672C105.05 233.344 104.641 232.886 104.352 232.3C104.067 231.71 103.925 231.024 103.925 230.241C103.925 229.459 104.067 228.77 104.352 228.173C104.641 227.573 105.042 227.106 105.556 226.771C106.073 226.433 106.676 226.264 107.365 226.264C107.763 226.264 108.156 226.33 108.544 226.463C108.931 226.596 109.284 226.811 109.602 227.109C109.921 227.404 110.174 227.795 110.363 228.283C110.552 228.77 110.646 229.37 110.646 230.082V230.58H104.76V229.565H109.453C109.453 229.134 109.367 228.75 109.195 228.412C109.026 228.074 108.784 227.807 108.469 227.612C108.157 227.416 107.789 227.318 107.365 227.318C106.898 227.318 106.494 227.434 106.152 227.666C105.814 227.895 105.554 228.193 105.372 228.561C105.189 228.929 105.098 229.323 105.098 229.744V230.42C105.098 230.997 105.198 231.486 105.396 231.887C105.599 232.285 105.879 232.588 106.237 232.797C106.595 233.002 107.011 233.105 107.485 233.105C107.793 233.105 108.071 233.062 108.32 232.976C108.572 232.886 108.789 232.754 108.971 232.578C109.153 232.399 109.294 232.177 109.394 231.912L110.527 232.23C110.408 232.615 110.207 232.953 109.926 233.244C109.644 233.533 109.296 233.758 108.882 233.92C108.467 234.08 108.002 234.159 107.485 234.159ZM114.678 234.179C114.195 234.179 113.755 234.088 113.361 233.906C112.967 233.72 112.653 233.453 112.421 233.105C112.189 232.754 112.073 232.33 112.073 231.832C112.073 231.395 112.16 231.04 112.332 230.768C112.504 230.493 112.735 230.278 113.023 230.122C113.311 229.966 113.629 229.85 113.977 229.774C114.329 229.695 114.682 229.632 115.036 229.585C115.5 229.526 115.877 229.481 116.165 229.451C116.457 229.418 116.669 229.363 116.801 229.287C116.937 229.211 117.005 229.078 117.005 228.889V228.849C117.005 228.359 116.871 227.978 116.602 227.706C116.337 227.434 115.935 227.298 115.394 227.298C114.834 227.298 114.395 227.421 114.077 227.666C113.759 227.911 113.535 228.173 113.406 228.452L112.292 228.054C112.491 227.59 112.756 227.229 113.088 226.97C113.422 226.708 113.787 226.526 114.181 226.423C114.579 226.317 114.97 226.264 115.355 226.264C115.6 226.264 115.882 226.294 116.2 226.354C116.521 226.41 116.831 226.528 117.129 226.707C117.431 226.886 117.681 227.156 117.88 227.517C118.079 227.878 118.178 228.362 118.178 228.969V234H117.005V232.966H116.945C116.866 233.132 116.733 233.309 116.548 233.498C116.362 233.687 116.115 233.848 115.807 233.98C115.499 234.113 115.123 234.179 114.678 234.179ZM114.857 233.125C115.321 233.125 115.713 233.034 116.031 232.852C116.352 232.669 116.594 232.434 116.757 232.146C116.922 231.857 117.005 231.554 117.005 231.236V230.162C116.955 230.222 116.846 230.276 116.677 230.326C116.511 230.372 116.319 230.414 116.1 230.45C115.885 230.483 115.674 230.513 115.469 230.54C115.267 230.563 115.103 230.583 114.977 230.599C114.672 230.639 114.387 230.704 114.122 230.793C113.86 230.879 113.648 231.01 113.485 231.186C113.326 231.358 113.247 231.594 113.247 231.892C113.247 232.3 113.397 232.608 113.699 232.817C114.004 233.022 114.39 233.125 114.857 233.125ZM125.729 228.074L124.675 228.372C124.609 228.196 124.511 228.026 124.382 227.86C124.256 227.691 124.083 227.552 123.865 227.442C123.646 227.333 123.366 227.278 123.025 227.278C122.557 227.278 122.168 227.386 121.856 227.602C121.548 227.814 121.394 228.084 121.394 228.412C121.394 228.704 121.5 228.934 121.712 229.103C121.924 229.272 122.256 229.413 122.706 229.526L123.84 229.804C124.523 229.97 125.031 230.223 125.366 230.565C125.701 230.903 125.868 231.339 125.868 231.872C125.868 232.31 125.742 232.701 125.49 233.045C125.242 233.39 124.894 233.662 124.446 233.861C123.999 234.06 123.479 234.159 122.885 234.159C122.106 234.159 121.462 233.99 120.951 233.652C120.441 233.314 120.118 232.82 119.982 232.17L121.096 231.892C121.202 232.303 121.402 232.611 121.697 232.817C121.995 233.022 122.385 233.125 122.865 233.125C123.412 233.125 123.846 233.009 124.168 232.777C124.493 232.542 124.655 232.26 124.655 231.932C124.655 231.667 124.562 231.445 124.377 231.266C124.191 231.083 123.906 230.947 123.522 230.858L122.249 230.56C121.55 230.394 121.036 230.137 120.708 229.789C120.383 229.438 120.221 228.999 120.221 228.472C120.221 228.041 120.342 227.66 120.583 227.328C120.829 226.997 121.162 226.737 121.583 226.548C122.007 226.359 122.488 226.264 123.025 226.264C123.78 226.264 124.373 226.43 124.804 226.761C125.239 227.093 125.547 227.53 125.729 228.074ZM130.836 234.159C130.1 234.159 129.466 233.997 128.932 233.672C128.402 233.344 127.992 232.886 127.704 232.3C127.419 231.71 127.276 231.024 127.276 230.241C127.276 229.459 127.419 228.77 127.704 228.173C127.992 227.573 128.393 227.106 128.907 226.771C129.424 226.433 130.027 226.264 130.717 226.264C131.115 226.264 131.507 226.33 131.895 226.463C132.283 226.596 132.636 226.811 132.954 227.109C133.272 227.404 133.526 227.795 133.715 228.283C133.904 228.77 133.998 229.37 133.998 230.082V230.58H128.112V229.565H132.805C132.805 229.134 132.719 228.75 132.546 228.412C132.377 228.074 132.135 227.807 131.82 227.612C131.509 227.416 131.141 227.318 130.717 227.318C130.249 227.318 129.845 227.434 129.504 227.666C129.166 227.895 128.905 228.193 128.723 228.561C128.541 228.929 128.45 229.323 128.45 229.744V230.42C128.45 230.997 128.549 231.486 128.748 231.887C128.95 232.285 129.23 232.588 129.588 232.797C129.946 233.002 130.362 233.105 130.836 233.105C131.144 233.105 131.423 233.062 131.671 232.976C131.923 232.886 132.14 232.754 132.323 232.578C132.505 232.399 132.646 232.177 132.745 231.912L133.879 232.23C133.759 232.615 133.559 232.953 133.277 233.244C132.995 233.533 132.647 233.758 132.233 233.92C131.819 234.08 131.353 234.159 130.836 234.159ZM139.72 236.864V226.364H140.854V227.577H140.993C141.079 227.444 141.199 227.275 141.351 227.07C141.507 226.861 141.729 226.675 142.017 226.513C142.309 226.347 142.703 226.264 143.2 226.264C143.843 226.264 144.41 226.425 144.901 226.746C145.391 227.068 145.774 227.524 146.049 228.114C146.324 228.704 146.462 229.4 146.462 230.202C146.462 231.01 146.324 231.711 146.049 232.305C145.774 232.895 145.393 233.352 144.906 233.677C144.419 233.998 143.857 234.159 143.22 234.159C142.73 234.159 142.337 234.078 142.042 233.915C141.747 233.75 141.52 233.562 141.361 233.354C141.202 233.142 141.079 232.966 140.993 232.827H140.894V236.864H139.72ZM140.874 230.182C140.874 230.759 140.958 231.267 141.127 231.708C141.296 232.146 141.543 232.489 141.868 232.737C142.193 232.982 142.591 233.105 143.061 233.105C143.552 233.105 143.961 232.976 144.289 232.717C144.621 232.455 144.869 232.104 145.035 231.663C145.204 231.219 145.289 230.725 145.289 230.182C145.289 229.645 145.206 229.161 145.04 228.73C144.878 228.296 144.631 227.953 144.299 227.701C143.971 227.446 143.558 227.318 143.061 227.318C142.584 227.318 142.183 227.439 141.858 227.681C141.533 227.92 141.288 228.254 141.122 228.685C140.957 229.113 140.874 229.612 140.874 230.182ZM148.252 234V226.364H149.385V227.517H149.465C149.604 227.139 149.856 226.833 150.22 226.597C150.585 226.362 150.996 226.244 151.453 226.244C151.539 226.244 151.647 226.246 151.776 226.249C151.906 226.253 152.003 226.258 152.07 226.264V227.457C152.03 227.447 151.939 227.433 151.796 227.413C151.657 227.389 151.51 227.378 151.354 227.378C150.983 227.378 150.651 227.456 150.36 227.612C150.071 227.764 149.843 227.976 149.673 228.248C149.508 228.516 149.425 228.823 149.425 229.168V234H148.252ZM156.33 234.159C155.641 234.159 155.036 233.995 154.516 233.667C153.999 233.339 153.594 232.88 153.303 232.29C153.014 231.7 152.87 231.01 152.87 230.222C152.87 229.426 153.014 228.732 153.303 228.138C153.594 227.545 153.999 227.085 154.516 226.756C155.036 226.428 155.641 226.264 156.33 226.264C157.02 226.264 157.623 226.428 158.14 226.756C158.66 227.085 159.065 227.545 159.353 228.138C159.645 228.732 159.791 229.426 159.791 230.222C159.791 231.01 159.645 231.7 159.353 232.29C159.065 232.88 158.66 233.339 158.14 233.667C157.623 233.995 157.02 234.159 156.33 234.159ZM156.33 233.105C156.854 233.105 157.285 232.971 157.623 232.702C157.961 232.434 158.211 232.081 158.374 231.643C158.536 231.206 158.617 230.732 158.617 230.222C158.617 229.711 158.536 229.236 158.374 228.795C158.211 228.354 157.961 227.998 157.623 227.726C157.285 227.454 156.854 227.318 156.33 227.318C155.807 227.318 155.376 227.454 155.038 227.726C154.7 227.998 154.45 228.354 154.287 228.795C154.125 229.236 154.044 229.711 154.044 230.222C154.044 230.732 154.125 231.206 154.287 231.643C154.45 232.081 154.7 232.434 155.038 232.702C155.376 232.971 155.807 233.105 156.33 233.105ZM167.553 226.364L164.729 234H163.536L160.712 226.364H161.984L164.092 232.449H164.172L166.28 226.364H167.553ZM169.101 234V226.364H170.275V234H169.101ZM169.698 225.091C169.469 225.091 169.272 225.013 169.106 224.857C168.944 224.701 168.863 224.514 168.863 224.295C168.863 224.077 168.944 223.889 169.106 223.734C169.272 223.578 169.469 223.5 169.698 223.5C169.926 223.5 170.122 223.578 170.284 223.734C170.45 223.889 170.533 224.077 170.533 224.295C170.533 224.514 170.45 224.701 170.284 224.857C170.122 225.013 169.926 225.091 169.698 225.091ZM175.307 234.159C174.671 234.159 174.109 233.998 173.622 233.677C173.134 233.352 172.753 232.895 172.478 232.305C172.203 231.711 172.066 231.01 172.066 230.202C172.066 229.4 172.203 228.704 172.478 228.114C172.753 227.524 173.136 227.068 173.627 226.746C174.117 226.425 174.684 226.264 175.327 226.264C175.824 226.264 176.217 226.347 176.505 226.513C176.797 226.675 177.019 226.861 177.171 227.07C177.327 227.275 177.448 227.444 177.534 227.577H177.634V223.818H178.807V234H177.673V232.827H177.534C177.448 232.966 177.325 233.142 177.166 233.354C177.007 233.562 176.78 233.75 176.485 233.915C176.19 234.078 175.798 234.159 175.307 234.159ZM175.466 233.105C175.937 233.105 176.334 232.982 176.659 232.737C176.984 232.489 177.231 232.146 177.4 231.708C177.569 231.267 177.654 230.759 177.654 230.182C177.654 229.612 177.571 229.113 177.405 228.685C177.239 228.254 176.994 227.92 176.669 227.681C176.344 227.439 175.943 227.318 175.466 227.318C174.969 227.318 174.555 227.446 174.223 227.701C173.895 227.953 173.648 228.296 173.482 228.73C173.32 229.161 173.239 229.645 173.239 230.182C173.239 230.725 173.322 231.219 173.487 231.663C173.656 232.104 173.905 232.455 174.233 232.717C174.565 232.976 174.976 233.105 175.466 233.105ZM184.32 234.159C183.585 234.159 182.95 233.997 182.416 233.672C181.886 233.344 181.477 232.886 181.188 232.3C180.903 231.71 180.761 231.024 180.761 230.241C180.761 229.459 180.903 228.77 181.188 228.173C181.477 227.573 181.878 227.106 182.392 226.771C182.909 226.433 183.512 226.264 184.201 226.264C184.599 226.264 184.992 226.33 185.379 226.463C185.767 226.596 186.12 226.811 186.438 227.109C186.757 227.404 187.01 227.795 187.199 228.283C187.388 228.77 187.482 229.37 187.482 230.082V230.58H181.596V229.565H186.289C186.289 229.134 186.203 228.75 186.031 228.412C185.862 228.074 185.62 227.807 185.305 227.612C184.993 227.416 184.625 227.318 184.201 227.318C183.734 227.318 183.329 227.434 182.988 227.666C182.65 227.895 182.39 228.193 182.208 228.561C182.025 228.929 181.934 229.323 181.934 229.744V230.42C181.934 230.997 182.034 231.486 182.232 231.887C182.435 232.285 182.715 232.588 183.073 232.797C183.431 233.002 183.847 233.105 184.32 233.105C184.629 233.105 184.907 233.062 185.156 232.976C185.408 232.886 185.625 232.754 185.807 232.578C185.989 232.399 186.13 232.177 186.23 231.912L187.363 232.23C187.244 232.615 187.043 232.953 186.762 233.244C186.48 233.533 186.132 233.758 185.718 233.92C185.303 234.08 184.838 234.159 184.32 234.159ZM193.96 236.864C193.762 236.864 193.584 236.847 193.428 236.814C193.273 236.784 193.165 236.754 193.105 236.724L193.404 235.69C193.689 235.763 193.941 235.79 194.159 235.77C194.378 235.75 194.572 235.652 194.741 235.477C194.913 235.304 195.071 235.024 195.213 234.636L195.432 234.04L192.608 226.364H193.881L195.989 232.449H196.068L198.176 226.364H199.449L196.208 235.114C196.062 235.508 195.881 235.835 195.666 236.093C195.45 236.355 195.2 236.549 194.915 236.675C194.633 236.801 194.315 236.864 193.96 236.864ZM203.827 234.159C203.137 234.159 202.532 233.995 202.012 233.667C201.495 233.339 201.09 232.88 200.799 232.29C200.51 231.7 200.366 231.01 200.366 230.222C200.366 229.426 200.51 228.732 200.799 228.138C201.09 227.545 201.495 227.085 202.012 226.756C202.532 226.428 203.137 226.264 203.827 226.264C204.516 226.264 205.119 226.428 205.636 226.756C206.157 227.085 206.561 227.545 206.849 228.138C207.141 228.732 207.287 229.426 207.287 230.222C207.287 231.01 207.141 231.7 206.849 232.29C206.561 232.88 206.157 233.339 205.636 233.667C205.119 233.995 204.516 234.159 203.827 234.159ZM203.827 233.105C204.35 233.105 204.781 232.971 205.119 232.702C205.457 232.434 205.707 232.081 205.87 231.643C206.032 231.206 206.113 230.732 206.113 230.222C206.113 229.711 206.032 229.236 205.87 228.795C205.707 228.354 205.457 227.998 205.119 227.726C204.781 227.454 204.35 227.318 203.827 227.318C203.303 227.318 202.872 227.454 202.534 227.726C202.196 227.998 201.946 228.354 201.783 228.795C201.621 229.236 201.54 229.711 201.54 230.222C201.54 230.732 201.621 231.206 201.783 231.643C201.946 232.081 202.196 232.434 202.534 232.702C202.872 232.971 203.303 233.105 203.827 233.105ZM213.89 230.878V226.364H215.064V234H213.89V232.707H213.811C213.632 233.095 213.353 233.425 212.975 233.697C212.598 233.965 212.12 234.099 211.544 234.099C211.066 234.099 210.642 233.995 210.271 233.786C209.9 233.574 209.608 233.256 209.396 232.832C209.184 232.404 209.078 231.866 209.078 231.216V226.364H210.251V231.136C210.251 231.693 210.407 232.137 210.718 232.469C211.033 232.8 211.434 232.966 211.922 232.966C212.213 232.966 212.51 232.891 212.811 232.742C213.116 232.593 213.372 232.364 213.577 232.056C213.786 231.748 213.89 231.355 213.89 230.878ZM217.213 234V226.364H218.346V227.517H218.426C218.565 227.139 218.817 226.833 219.181 226.597C219.546 226.362 219.957 226.244 220.414 226.244C220.5 226.244 220.608 226.246 220.737 226.249C220.867 226.253 220.964 226.258 221.031 226.264V227.457C220.991 227.447 220.9 227.433 220.757 227.413C220.618 227.389 220.471 227.378 220.315 227.378C219.944 227.378 219.612 227.456 219.32 227.612C219.032 227.764 218.803 227.976 218.634 228.248C218.469 228.516 218.386 228.823 218.386 229.168V234H217.213ZM229.243 234.159C228.606 234.159 228.044 233.998 227.557 233.677C227.07 233.352 226.689 232.895 226.414 232.305C226.139 231.711 226.001 231.01 226.001 230.202C226.001 229.4 226.139 228.704 226.414 228.114C226.689 227.524 227.072 227.068 227.562 226.746C228.053 226.425 228.619 226.264 229.262 226.264C229.76 226.264 230.152 226.347 230.441 226.513C230.732 226.675 230.954 226.861 231.107 227.07C231.263 227.275 231.384 227.444 231.47 227.577H231.569V223.818H232.743V234H231.609V232.827H231.47C231.384 232.966 231.261 233.142 231.102 233.354C230.943 233.562 230.716 233.75 230.421 233.915C230.126 234.078 229.733 234.159 229.243 234.159ZM229.402 233.105C229.872 233.105 230.27 232.982 230.595 232.737C230.92 232.489 231.167 232.146 231.336 231.708C231.505 231.267 231.589 230.759 231.589 230.182C231.589 229.612 231.506 229.113 231.341 228.685C231.175 228.254 230.93 227.92 230.605 227.681C230.28 227.439 229.879 227.318 229.402 227.318C228.904 227.318 228.49 227.446 228.159 227.701C227.831 227.953 227.584 228.296 227.418 228.73C227.256 229.161 227.174 229.645 227.174 230.182C227.174 230.725 227.257 231.219 227.423 231.663C227.592 232.104 227.841 232.455 228.169 232.717C228.5 232.976 228.911 233.105 229.402 233.105ZM238.256 234.159C237.52 234.159 236.886 233.997 236.352 233.672C235.822 233.344 235.412 232.886 235.124 232.3C234.839 231.71 234.696 231.024 234.696 230.241C234.696 229.459 234.839 228.77 235.124 228.173C235.412 227.573 235.813 227.106 236.327 226.771C236.844 226.433 237.447 226.264 238.137 226.264C238.534 226.264 238.927 226.33 239.315 226.463C239.703 226.596 240.056 226.811 240.374 227.109C240.692 227.404 240.946 227.795 241.135 228.283C241.324 228.77 241.418 229.37 241.418 230.082V230.58H235.532V229.565H240.225C240.225 229.134 240.139 228.75 239.966 228.412C239.797 228.074 239.555 227.807 239.24 227.612C238.929 227.416 238.561 227.318 238.137 227.318C237.669 227.318 237.265 227.434 236.924 227.666C236.586 227.895 236.325 228.193 236.143 228.561C235.961 228.929 235.87 229.323 235.87 229.744V230.42C235.87 230.997 235.969 231.486 236.168 231.887C236.37 232.285 236.65 232.588 237.008 232.797C237.366 233.002 237.782 233.105 238.256 233.105C238.564 233.105 238.843 233.062 239.091 232.976C239.343 232.886 239.56 232.754 239.743 232.578C239.925 232.399 240.066 232.177 240.165 231.912L241.299 232.23C241.179 232.615 240.979 232.953 240.697 233.244C240.415 233.533 240.067 233.758 239.653 233.92C239.239 234.08 238.773 234.159 238.256 234.159ZM246.524 226.364V227.358H242.566V226.364H246.524ZM243.72 224.534H244.893V231.812C244.893 232.144 244.941 232.393 245.037 232.558C245.137 232.721 245.263 232.83 245.415 232.886C245.571 232.939 245.735 232.966 245.907 232.966C246.037 232.966 246.143 232.959 246.225 232.946C246.308 232.929 246.375 232.916 246.424 232.906L246.663 233.96C246.583 233.99 246.472 234.02 246.33 234.05C246.187 234.083 246.007 234.099 245.788 234.099C245.457 234.099 245.132 234.028 244.814 233.886C244.499 233.743 244.237 233.526 244.028 233.234C243.823 232.943 243.72 232.575 243.72 232.131V224.534ZM250.536 234.179C250.052 234.179 249.613 234.088 249.218 233.906C248.824 233.72 248.511 233.453 248.279 233.105C248.047 232.754 247.931 232.33 247.931 231.832C247.931 231.395 248.017 231.04 248.189 230.768C248.362 230.493 248.592 230.278 248.88 230.122C249.169 229.966 249.487 229.85 249.835 229.774C250.186 229.695 250.539 229.632 250.894 229.585C251.358 229.526 251.734 229.481 252.022 229.451C252.314 229.418 252.526 229.363 252.659 229.287C252.795 229.211 252.863 229.078 252.863 228.889V228.849C252.863 228.359 252.728 227.978 252.46 227.706C252.195 227.434 251.792 227.298 251.252 227.298C250.692 227.298 250.252 227.421 249.934 227.666C249.616 227.911 249.392 228.173 249.263 228.452L248.15 228.054C248.348 227.59 248.614 227.229 248.945 226.97C249.28 226.708 249.644 226.526 250.039 226.423C250.436 226.317 250.828 226.264 251.212 226.264C251.457 226.264 251.739 226.294 252.057 226.354C252.379 226.41 252.689 226.528 252.987 226.707C253.288 226.886 253.539 227.156 253.738 227.517C253.936 227.878 254.036 228.362 254.036 228.969V234H252.863V232.966H252.803C252.723 233.132 252.591 233.309 252.405 233.498C252.22 233.687 251.973 233.848 251.664 233.98C251.356 234.113 250.98 234.179 250.536 234.179ZM250.715 233.125C251.179 233.125 251.57 233.034 251.888 232.852C252.21 232.669 252.452 232.434 252.614 232.146C252.78 231.857 252.863 231.554 252.863 231.236V230.162C252.813 230.222 252.703 230.276 252.534 230.326C252.369 230.372 252.176 230.414 251.958 230.45C251.742 230.483 251.532 230.513 251.326 230.54C251.124 230.563 250.96 230.583 250.834 230.599C250.529 230.639 250.244 230.704 249.979 230.793C249.717 230.879 249.505 231.01 249.343 231.186C249.184 231.358 249.104 231.594 249.104 231.892C249.104 232.3 249.255 232.608 249.556 232.817C249.861 233.022 250.248 233.125 250.715 233.125ZM256.177 234V226.364H257.351V234H256.177ZM256.774 225.091C256.545 225.091 256.348 225.013 256.182 224.857C256.02 224.701 255.939 224.514 255.939 224.295C255.939 224.077 256.02 223.889 256.182 223.734C256.348 223.578 256.545 223.5 256.774 223.5C257.003 223.5 257.198 223.578 257.361 223.734C257.526 223.889 257.609 224.077 257.609 224.295C257.609 224.514 257.526 224.701 257.361 224.857C257.198 225.013 257.003 225.091 256.774 225.091ZM260.673 223.818V234H259.5V223.818H260.673ZM268.231 228.074L267.177 228.372C267.111 228.196 267.013 228.026 266.884 227.86C266.758 227.691 266.585 227.552 266.367 227.442C266.148 227.333 265.868 227.278 265.526 227.278C265.059 227.278 264.67 227.386 264.358 227.602C264.05 227.814 263.896 228.084 263.896 228.412C263.896 228.704 264.002 228.934 264.214 229.103C264.426 229.272 264.758 229.413 265.208 229.526L266.342 229.804C267.025 229.97 267.533 230.223 267.868 230.565C268.203 230.903 268.37 231.339 268.37 231.872C268.37 232.31 268.244 232.701 267.992 233.045C267.744 233.39 267.396 233.662 266.948 233.861C266.501 234.06 265.981 234.159 265.387 234.159C264.608 234.159 263.964 233.99 263.453 233.652C262.943 233.314 262.62 232.82 262.484 232.17L263.597 231.892C263.704 232.303 263.904 232.611 264.199 232.817C264.497 233.022 264.887 233.125 265.367 233.125C265.914 233.125 266.348 233.009 266.67 232.777C266.995 232.542 267.157 232.26 267.157 231.932C267.157 231.667 267.064 231.445 266.879 231.266C266.693 231.083 266.408 230.947 266.024 230.858L264.751 230.56C264.052 230.394 263.538 230.137 263.21 229.789C262.885 229.438 262.722 228.999 262.722 228.472C262.722 228.041 262.843 227.66 263.085 227.328C263.331 226.997 263.664 226.737 264.085 226.548C264.509 226.359 264.99 226.264 265.526 226.264C266.282 226.264 266.875 226.43 267.306 226.761C267.74 227.093 268.049 227.53 268.231 228.074Z" fill="black"/>
<rect x="16" y="439" width="328" height="44" rx="10" fill="#4E00AD"/>
<path d="M160.409 467V455.364H161.818V465.75H167.227V467H160.409ZM172.773 467.182C171.985 467.182 171.294 466.994 170.699 466.619C170.108 466.244 169.646 465.72 169.312 465.045C168.983 464.371 168.818 463.583 168.818 462.682C168.818 461.773 168.983 460.979 169.312 460.301C169.646 459.623 170.108 459.097 170.699 458.722C171.294 458.347 171.985 458.159 172.773 458.159C173.561 458.159 174.25 458.347 174.841 458.722C175.436 459.097 175.898 459.623 176.227 460.301C176.561 460.979 176.727 461.773 176.727 462.682C176.727 463.583 176.561 464.371 176.227 465.045C175.898 465.72 175.436 466.244 174.841 466.619C174.25 466.994 173.561 467.182 172.773 467.182ZM172.773 465.977C173.371 465.977 173.864 465.824 174.25 465.517C174.636 465.21 174.922 464.807 175.108 464.307C175.294 463.807 175.386 463.265 175.386 462.682C175.386 462.098 175.294 461.555 175.108 461.051C174.922 460.547 174.636 460.14 174.25 459.83C173.864 459.519 173.371 459.364 172.773 459.364C172.174 459.364 171.682 459.519 171.295 459.83C170.909 460.14 170.623 460.547 170.438 461.051C170.252 461.555 170.159 462.098 170.159 462.682C170.159 463.265 170.252 463.807 170.438 464.307C170.623 464.807 170.909 465.21 171.295 465.517C171.682 465.824 172.174 465.977 172.773 465.977ZM182.297 470.455C181.649 470.455 181.092 470.371 180.626 470.205C180.161 470.042 179.772 469.826 179.462 469.557C179.155 469.292 178.911 469.008 178.729 468.705L179.797 467.955C179.918 468.114 180.071 468.295 180.257 468.5C180.443 468.708 180.696 468.888 181.018 469.04C181.344 469.195 181.77 469.273 182.297 469.273C183.001 469.273 183.583 469.102 184.041 468.761C184.5 468.42 184.729 467.886 184.729 467.159V465.386H184.615C184.517 465.545 184.376 465.742 184.195 465.977C184.017 466.208 183.759 466.415 183.422 466.597C183.089 466.775 182.638 466.864 182.07 466.864C181.365 466.864 180.732 466.697 180.172 466.364C179.615 466.03 179.174 465.545 178.848 464.909C178.526 464.273 178.365 463.5 178.365 462.591C178.365 461.697 178.522 460.919 178.837 460.256C179.151 459.589 179.589 459.074 180.149 458.71C180.71 458.343 181.357 458.159 182.092 458.159C182.661 458.159 183.111 458.254 183.445 458.443C183.782 458.629 184.039 458.841 184.217 459.08C184.399 459.314 184.539 459.508 184.638 459.659H184.774V458.273H186.07V467.25C186.07 468 185.899 468.61 185.558 469.08C185.221 469.553 184.767 469.9 184.195 470.119C183.626 470.343 182.994 470.455 182.297 470.455ZM182.251 465.659C182.789 465.659 183.244 465.536 183.615 465.29C183.986 465.044 184.268 464.689 184.462 464.227C184.655 463.765 184.751 463.212 184.751 462.568C184.751 461.939 184.657 461.384 184.467 460.903C184.278 460.422 183.998 460.045 183.626 459.773C183.255 459.5 182.797 459.364 182.251 459.364C181.683 459.364 181.21 459.508 180.831 459.795C180.456 460.083 180.174 460.47 179.984 460.955C179.799 461.439 179.706 461.977 179.706 462.568C179.706 463.174 179.801 463.71 179.99 464.176C180.183 464.638 180.467 465.002 180.842 465.267C181.221 465.528 181.691 465.659 182.251 465.659ZM188.524 467V458.273H189.865V467H188.524ZM189.206 456.818C188.945 456.818 188.719 456.729 188.53 456.551C188.344 456.373 188.251 456.159 188.251 455.909C188.251 455.659 188.344 455.445 188.53 455.267C188.719 455.089 188.945 455 189.206 455C189.467 455 189.691 455.089 189.876 455.267C190.066 455.445 190.161 455.659 190.161 455.909C190.161 456.159 190.066 456.373 189.876 456.551C189.691 456.729 189.467 456.818 189.206 456.818ZM193.662 461.75V467H192.321V458.273H193.616V459.636H193.73C193.935 459.193 194.245 458.837 194.662 458.568C195.079 458.295 195.616 458.159 196.276 458.159C196.866 458.159 197.384 458.28 197.827 458.523C198.27 458.761 198.615 459.125 198.861 459.614C199.107 460.098 199.23 460.712 199.23 461.455V467H197.889V461.545C197.889 460.86 197.711 460.326 197.355 459.943C196.999 459.557 196.51 459.364 195.889 459.364C195.461 459.364 195.079 459.456 194.741 459.642C194.408 459.828 194.145 460.098 193.952 460.455C193.759 460.811 193.662 461.242 193.662 461.75Z" fill="white"/>
<path opacity="0.7" d="M43.112 274.86C43.112 274.347 42.9393 273.941 42.594 273.642C42.258 273.334 41.754 273.18 41.082 273.18H38.31V276.526H41.124C41.7587 276.526 42.2487 276.377 42.594 276.078C42.9393 275.779 43.112 275.373 43.112 274.86ZM37.19 282V272.2H41.18C41.8707 272.2 42.44 272.317 42.888 272.55C43.336 272.783 43.6673 273.091 43.882 273.474C44.106 273.847 44.218 274.263 44.218 274.72C44.218 275.168 44.134 275.546 43.966 275.854C43.8073 276.153 43.588 276.391 43.308 276.568C43.0373 276.745 42.7387 276.867 42.412 276.932V277.03C42.804 277.086 43.154 277.212 43.462 277.408C43.77 277.595 44.0127 277.851 44.19 278.178C44.3673 278.505 44.456 278.901 44.456 279.368C44.456 279.853 44.3347 280.297 44.092 280.698C43.8493 281.099 43.49 281.417 43.014 281.65C42.5473 281.883 41.9733 282 41.292 282H37.19ZM38.31 281.02H41.208C41.88 281.02 42.4027 280.871 42.776 280.572C43.1587 280.264 43.35 279.825 43.35 279.256C43.35 278.687 43.1493 278.253 42.748 277.954C42.356 277.655 41.8287 277.506 41.166 277.506H38.31V281.02ZM46.3202 275H47.2862L47.3422 276.022C47.5289 275.77 47.7529 275.555 48.0142 275.378C48.2849 275.201 48.5789 275.079 48.8962 275.014C49.2229 274.939 49.5682 274.935 49.9322 275V276.05C49.5402 275.975 49.1855 275.975 48.8682 276.05C48.5602 276.125 48.2942 276.265 48.0702 276.47C47.8462 276.675 47.6735 276.937 47.5522 277.254C47.4309 277.562 47.3702 277.921 47.3702 278.332V282H46.3202V275ZM55.7471 282L55.6631 280.74C55.4671 281.169 55.1778 281.505 54.7951 281.748C54.4124 281.981 53.9271 282.098 53.3391 282.098C52.8351 282.098 52.4058 282.019 52.0511 281.86C51.6964 281.701 51.4211 281.477 51.2251 281.188C51.0384 280.889 50.9451 280.539 50.9451 280.138C50.9451 279.55 51.1644 279.069 51.6031 278.696C52.0418 278.313 52.6764 278.08 53.5071 277.996L55.6631 277.758V277.198C55.6631 276.806 55.5184 276.493 55.2291 276.26C54.9398 276.017 54.5478 275.896 54.0531 275.896C53.5678 275.896 53.1618 276.008 52.8351 276.232C52.5178 276.456 52.2984 276.778 52.1771 277.198L51.2251 276.862C51.4118 276.246 51.7524 275.765 52.2471 275.42C52.7511 275.075 53.3624 274.902 54.0811 274.902C54.9118 274.902 55.5558 275.117 56.0131 275.546C56.4798 275.966 56.7131 276.54 56.7131 277.268V282H55.7471ZM55.6631 278.654L53.4931 278.906C53.0264 278.962 52.6718 279.093 52.4291 279.298C52.1864 279.494 52.0651 279.755 52.0651 280.082C52.0651 280.409 52.1818 280.67 52.4151 280.866C52.6578 281.062 53.0031 281.16 53.4511 281.16C53.9644 281.16 54.3844 281.057 54.7111 280.852C55.0378 280.647 55.2758 280.371 55.4251 280.026C55.5838 279.671 55.6631 279.289 55.6631 278.878V278.654ZM58.7616 275H59.7276L59.7836 275.994C60.0076 275.649 60.3016 275.383 60.6656 275.196C61.0296 275 61.4543 274.902 61.9396 274.902C62.4716 274.902 62.9383 275.019 63.3396 275.252C63.7409 275.476 64.0536 275.817 64.2776 276.274C64.5016 276.722 64.6136 277.287 64.6136 277.968V282H63.5636V278.094C63.5636 277.366 63.4049 276.815 63.0876 276.442C62.7796 276.059 62.3316 275.868 61.7436 275.868C61.1369 275.868 60.6609 276.069 60.3156 276.47C59.9796 276.871 59.8116 277.464 59.8116 278.248V282H58.7616V275ZM69.6323 282.098C68.9509 282.098 68.3536 281.949 67.8403 281.65C67.3269 281.351 66.9256 280.936 66.6363 280.404C66.3563 279.863 66.2163 279.237 66.2163 278.528C66.2163 277.809 66.3563 277.179 66.6363 276.638C66.9256 276.087 67.3269 275.663 67.8403 275.364C68.3536 275.056 68.9509 274.902 69.6323 274.902C70.3509 274.902 70.9809 275.07 71.5223 275.406C72.0636 275.733 72.4556 276.19 72.6983 276.778L71.7323 277.114C71.5923 276.741 71.3356 276.447 70.9623 276.232C70.5983 276.008 70.1736 275.896 69.6883 275.896C69.2123 275.896 68.7969 276.003 68.4423 276.218C68.0969 276.433 67.8263 276.736 67.6303 277.128C67.4436 277.52 67.3503 277.982 67.3503 278.514C67.3503 279.298 67.5603 279.928 67.9803 280.404C68.4003 280.871 68.9603 281.104 69.6603 281.104C70.1363 281.104 70.5609 280.997 70.9343 280.782C71.3076 280.567 71.5829 280.278 71.7603 279.914L72.7123 280.25C72.4603 280.829 72.0636 281.281 71.5223 281.608C70.9809 281.935 70.3509 282.098 69.6323 282.098ZM74.4296 271.92H75.4796V275.952C75.7036 275.616 76.0069 275.359 76.3896 275.182C76.7722 274.995 77.2016 274.902 77.6776 274.902C78.1909 274.902 78.6482 275.019 79.0496 275.252C79.4509 275.485 79.7636 275.831 79.9876 276.288C80.2209 276.745 80.3376 277.315 80.3376 277.996V282H79.2176V278.122C79.2176 277.394 79.0636 276.839 78.7556 276.456C78.4476 276.064 77.9996 275.868 77.4116 275.868C76.8049 275.868 76.3289 276.073 75.9836 276.484C75.6476 276.895 75.4796 277.492 75.4796 278.276V282H74.4296V271.92ZM86.4088 272.2H87.5288V282H86.4088V272.2ZM95.2008 276.414L95.0888 276.428V271.92H96.1388V282H95.1728L95.1028 280.698C94.8881 281.09 94.5661 281.421 94.1368 281.692C93.7168 281.963 93.1941 282.098 92.5688 282.098C91.9248 282.098 91.3601 281.953 90.8748 281.664C90.3988 281.365 90.0254 280.945 89.7548 280.404C89.4934 279.863 89.3628 279.228 89.3628 278.5C89.3628 277.772 89.4934 277.142 89.7548 276.61C90.0254 276.069 90.3988 275.649 90.8748 275.35C91.3601 275.051 91.9248 274.902 92.5688 274.902C93.2314 274.902 93.7821 275.047 94.2208 275.336C94.6594 275.625 94.9861 275.985 95.2008 276.414ZM90.4968 278.5C90.4968 279.303 90.7021 279.942 91.1128 280.418C91.5234 280.885 92.0834 281.118 92.7928 281.118C93.2314 281.118 93.6234 281.015 93.9688 280.81C94.3141 280.605 94.5848 280.306 94.7808 279.914C94.9861 279.522 95.0888 279.051 95.0888 278.5C95.0888 277.949 94.9861 277.483 94.7808 277.1C94.5848 276.708 94.3141 276.409 93.9688 276.204C93.6234 275.989 93.2314 275.882 92.7928 275.882C92.0928 275.882 91.5328 276.12 91.1128 276.596C90.7021 277.063 90.4968 277.697 90.4968 278.5Z" fill="#7132BD"/>
<path opacity="0.7" d="M40.648 351.016C41.1707 351.016 41.5953 350.937 41.922 350.778C42.2487 350.619 42.4867 350.395 42.636 350.106C42.7947 349.817 42.874 349.481 42.874 349.098C42.874 348.491 42.6967 348.02 42.342 347.684C41.9967 347.348 41.432 347.18 40.648 347.18H38.31V351.016H40.648ZM43.98 349.098C43.98 349.481 43.9147 349.849 43.784 350.204C43.6627 350.549 43.4667 350.857 43.196 351.128C42.9253 351.399 42.58 351.613 42.16 351.772C41.74 351.921 41.236 351.996 40.648 351.996H38.31V356H37.19V346.2H40.648C41.4133 346.2 42.0387 346.331 42.524 346.592C43.0187 346.853 43.3827 347.203 43.616 347.642C43.8587 348.081 43.98 348.566 43.98 349.098ZM49.4717 356L49.3877 354.74C49.1917 355.169 48.9024 355.505 48.5197 355.748C48.1371 355.981 47.6517 356.098 47.0637 356.098C46.5597 356.098 46.1304 356.019 45.7757 355.86C45.4211 355.701 45.1457 355.477 44.9497 355.188C44.7631 354.889 44.6697 354.539 44.6697 354.138C44.6697 353.55 44.8891 353.069 45.3277 352.696C45.7664 352.313 46.4011 352.08 47.2317 351.996L49.3877 351.758V351.198C49.3877 350.806 49.2431 350.493 48.9537 350.26C48.6644 350.017 48.2724 349.896 47.7777 349.896C47.2924 349.896 46.8864 350.008 46.5597 350.232C46.2424 350.456 46.0231 350.778 45.9017 351.198L44.9497 350.862C45.1364 350.246 45.4771 349.765 45.9717 349.42C46.4757 349.075 47.0871 348.902 47.8057 348.902C48.6364 348.902 49.2804 349.117 49.7377 349.546C50.2044 349.966 50.4377 350.54 50.4377 351.268V356H49.4717ZM49.3877 352.654L47.2177 352.906C46.7511 352.962 46.3964 353.093 46.1537 353.298C45.9111 353.494 45.7897 353.755 45.7897 354.082C45.7897 354.409 45.9064 354.67 46.1397 354.866C46.3824 355.062 46.7277 355.16 47.1757 355.16C47.6891 355.16 48.1091 355.057 48.4357 354.852C48.7624 354.647 49.0004 354.371 49.1497 354.026C49.3084 353.671 49.3877 353.289 49.3877 352.878V352.654ZM53.0602 353.858C53.1162 354.138 53.2189 354.371 53.3682 354.558C53.5175 354.735 53.7089 354.871 53.9422 354.964C54.1849 355.057 54.4649 355.104 54.7822 355.104C55.2769 355.104 55.6502 355.011 55.9022 354.824C56.1635 354.628 56.2942 354.385 56.2942 354.096C56.2942 353.853 56.2149 353.657 56.0562 353.508C55.9069 353.359 55.7062 353.237 55.4542 353.144C55.2022 353.041 54.9222 352.953 54.6142 352.878C54.3715 352.822 54.1102 352.757 53.8302 352.682C53.5502 352.598 53.2842 352.486 53.0322 352.346C52.7802 352.206 52.5749 352.024 52.4162 351.8C52.2575 351.576 52.1782 351.282 52.1782 350.918C52.1782 350.517 52.2855 350.167 52.5002 349.868C52.7242 349.56 53.0275 349.322 53.4102 349.154C53.8022 348.986 54.2502 348.902 54.7542 348.902C55.3329 348.902 55.8462 349.028 56.2942 349.28C56.7515 349.532 57.0689 349.924 57.2462 350.456L56.2662 350.792C56.2009 350.549 56.0795 350.363 55.9022 350.232C55.7342 350.101 55.5429 350.013 55.3282 349.966C55.1229 349.919 54.9175 349.896 54.7122 349.896C54.2922 349.896 53.9515 349.98 53.6902 350.148C53.4382 350.307 53.3122 350.549 53.3122 350.876C53.3122 351.053 53.3542 351.203 53.4382 351.324C53.5222 351.436 53.6389 351.529 53.7882 351.604C53.9375 351.679 54.1149 351.744 54.3202 351.8C54.5255 351.847 54.7495 351.903 54.9922 351.968C55.2629 352.033 55.5382 352.117 55.8182 352.22C56.0982 352.313 56.3595 352.439 56.6022 352.598C56.8449 352.747 57.0409 352.943 57.1902 353.186C57.3489 353.419 57.4282 353.713 57.4282 354.068C57.4282 354.479 57.3162 354.838 57.0922 355.146C56.8682 355.445 56.5555 355.678 56.1542 355.846C55.7622 356.014 55.3049 356.098 54.7822 356.098C54.0635 356.098 53.4662 355.939 52.9902 355.622C52.5235 355.295 52.2109 354.819 52.0522 354.194L53.0602 353.858ZM59.7047 353.858C59.7607 354.138 59.8634 354.371 60.0127 354.558C60.1621 354.735 60.3534 354.871 60.5867 354.964C60.8294 355.057 61.1094 355.104 61.4267 355.104C61.9214 355.104 62.2947 355.011 62.5467 354.824C62.8081 354.628 62.9387 354.385 62.9387 354.096C62.9387 353.853 62.8594 353.657 62.7007 353.508C62.5514 353.359 62.3507 353.237 62.0987 353.144C61.8467 353.041 61.5667 352.953 61.2587 352.878C61.0161 352.822 60.7547 352.757 60.4747 352.682C60.1947 352.598 59.9287 352.486 59.6767 352.346C59.4247 352.206 59.2194 352.024 59.0607 351.8C58.9021 351.576 58.8227 351.282 58.8227 350.918C58.8227 350.517 58.9301 350.167 59.1447 349.868C59.3687 349.56 59.6721 349.322 60.0547 349.154C60.4467 348.986 60.8947 348.902 61.3987 348.902C61.9774 348.902 62.4907 349.028 62.9387 349.28C63.3961 349.532 63.7134 349.924 63.8907 350.456L62.9107 350.792C62.8454 350.549 62.7241 350.363 62.5467 350.232C62.3787 350.101 62.1874 350.013 61.9727 349.966C61.7674 349.919 61.5621 349.896 61.3567 349.896C60.9367 349.896 60.5961 349.98 60.3347 350.148C60.0827 350.307 59.9567 350.549 59.9567 350.876C59.9567 351.053 59.9987 351.203 60.0827 351.324C60.1667 351.436 60.2834 351.529 60.4327 351.604C60.5821 351.679 60.7594 351.744 60.9647 351.8C61.1701 351.847 61.3941 351.903 61.6367 351.968C61.9074 352.033 62.1827 352.117 62.4627 352.22C62.7427 352.313 63.0041 352.439 63.2467 352.598C63.4894 352.747 63.6854 352.943 63.8347 353.186C63.9934 353.419 64.0727 353.713 64.0727 354.068C64.0727 354.479 63.9607 354.838 63.7367 355.146C63.5127 355.445 63.2001 355.678 62.7987 355.846C62.4067 356.014 61.9494 356.098 61.4267 356.098C60.7081 356.098 60.1107 355.939 59.6347 355.622C59.1681 355.295 58.8554 354.819 58.6967 354.194L59.7047 353.858ZM68.7573 356.098C68.0759 356.098 67.4786 355.949 66.9653 355.65C66.4519 355.351 66.0506 354.936 65.7613 354.404C65.4813 353.863 65.3413 353.237 65.3413 352.528C65.3413 351.809 65.4813 351.179 65.7613 350.638C66.0506 350.087 66.4519 349.663 66.9653 349.364C67.4786 349.056 68.0759 348.902 68.7573 348.902C69.4759 348.902 70.1059 349.07 70.6473 349.406C71.1886 349.733 71.5806 350.19 71.8233 350.778L70.8573 351.114C70.7173 350.741 70.4606 350.447 70.0873 350.232C69.7233 350.008 69.2986 349.896 68.8133 349.896C68.3373 349.896 67.9219 350.003 67.5673 350.218C67.2219 350.433 66.9513 350.736 66.7553 351.128C66.5686 351.52 66.4753 351.982 66.4753 352.514C66.4753 353.298 66.6853 353.928 67.1053 354.404C67.5253 354.871 68.0853 355.104 68.7853 355.104C69.2613 355.104 69.6859 354.997 70.0593 354.782C70.4326 354.567 70.7079 354.278 70.8853 353.914L71.8373 354.25C71.5853 354.829 71.1886 355.281 70.6473 355.608C70.1059 355.935 69.4759 356.098 68.7573 356.098ZM76.5786 356.098C75.9159 356.098 75.3232 355.953 74.8006 355.664C74.2779 355.375 73.8672 354.964 73.5686 354.432C73.2699 353.891 73.1206 353.251 73.1206 352.514C73.1206 351.767 73.2699 351.123 73.5686 350.582C73.8766 350.041 74.2919 349.625 74.8146 349.336C75.3466 349.047 75.9439 348.902 76.6066 348.902C77.2692 348.902 77.8619 349.047 78.3846 349.336C78.9166 349.625 79.3319 350.041 79.6306 350.582C79.9386 351.114 80.0926 351.749 80.0926 352.486C80.0926 353.233 79.9386 353.877 79.6306 354.418C79.3226 354.959 78.9026 355.375 78.3706 355.664C77.8386 355.953 77.2412 356.098 76.5786 356.098ZM76.5646 355.104C76.9752 355.104 77.3626 355.015 77.7266 354.838C78.0906 354.651 78.3846 354.367 78.6086 353.984C78.8419 353.592 78.9586 353.097 78.9586 352.5C78.9586 351.893 78.8466 351.399 78.6226 351.016C78.3986 350.633 78.1046 350.353 77.7406 350.176C77.3859 349.989 77.0032 349.896 76.5926 349.896C76.1819 349.896 75.7992 349.989 75.4446 350.176C75.0899 350.353 74.8006 350.638 74.5766 351.03C74.3619 351.413 74.2546 351.903 74.2546 352.5C74.2546 353.107 74.3619 353.601 74.5766 353.984C74.7912 354.367 75.0712 354.651 75.4166 354.838C75.7712 355.015 76.1539 355.104 76.5646 355.104ZM87.2164 350.414L87.1044 350.428V345.92H88.1544V356H87.1884L87.1184 354.698C86.9037 355.09 86.5817 355.421 86.1524 355.692C85.7324 355.963 85.2097 356.098 84.5844 356.098C83.9404 356.098 83.3757 355.953 82.8904 355.664C82.4144 355.365 82.041 354.945 81.7704 354.404C81.509 353.863 81.3784 353.228 81.3784 352.5C81.3784 351.772 81.509 351.142 81.7704 350.61C82.041 350.069 82.4144 349.649 82.8904 349.35C83.3757 349.051 83.9404 348.902 84.5844 348.902C85.247 348.902 85.7977 349.047 86.2364 349.336C86.675 349.625 87.0017 349.985 87.2164 350.414ZM82.5124 352.5C82.5124 353.303 82.7177 353.942 83.1284 354.418C83.539 354.885 84.099 355.118 84.8084 355.118C85.247 355.118 85.639 355.015 85.9844 354.81C86.3297 354.605 86.6004 354.306 86.7964 353.914C87.0017 353.522 87.1044 353.051 87.1044 352.5C87.1044 351.949 87.0017 351.483 86.7964 351.1C86.6004 350.708 86.3297 350.409 85.9844 350.204C85.639 349.989 85.247 349.882 84.8084 349.882C84.1084 349.882 83.5484 350.12 83.1284 350.596C82.7177 351.063 82.5124 351.697 82.5124 352.5ZM93.2426 356.098C92.5893 356.098 92.0059 355.939 91.4926 355.622C90.9886 355.305 90.5919 354.871 90.3026 354.32C90.0133 353.769 89.8686 353.139 89.8686 352.43C89.8686 351.749 90.0133 351.142 90.3026 350.61C90.5919 350.078 90.9886 349.663 91.4926 349.364C91.9966 349.056 92.5706 348.902 93.2146 348.902C93.8493 348.902 94.4139 349.042 94.9086 349.322C95.4126 349.602 95.8046 349.989 96.0846 350.484C96.3646 350.979 96.4953 351.543 96.4766 352.178C96.4766 352.281 96.4719 352.388 96.4626 352.5C96.4533 352.612 96.4439 352.733 96.4346 352.864H91.0166C91.0353 353.303 91.1426 353.69 91.3386 354.026C91.5346 354.362 91.7913 354.628 92.1086 354.824C92.4353 355.011 92.8039 355.104 93.2146 355.104C93.7559 355.104 94.2133 355.001 94.5866 354.796C94.9693 354.591 95.2446 354.297 95.4126 353.914L96.3226 354.278C96.0426 354.866 95.6366 355.319 95.1046 355.636C94.5726 355.944 93.9519 356.098 93.2426 356.098ZM95.3286 351.954C95.3379 351.553 95.2493 351.198 95.0626 350.89C94.8853 350.582 94.6333 350.339 94.3066 350.162C93.9799 349.985 93.6019 349.896 93.1726 349.896C92.7993 349.896 92.4586 349.985 92.1506 350.162C91.8426 350.339 91.5859 350.587 91.3806 350.904C91.1846 351.212 91.0679 351.562 91.0306 351.954H95.3286Z" fill="#7132BD"/>
<path d="M34.2222 279H26C20.4772 279 16 283.477 16 289V313C16 318.523 20.4771 323 26 323H334C339.523 323 344 318.523 344 313V289C344 283.477 339.523 279 334 279H99" stroke="#C7AFE4"/>
<path d="M34.2222 353H26C20.4772 353 16 357.477 16 363V387C16 392.523 20.4771 397 26 397H334C339.523 397 344 392.523 344 387V363C344 357.477 339.523 353 334 353H99" stroke="#C7AFE4"/>
<path opacity="0.9" d="M37.1307 295.818H38.3636V303.097C38.3636 303.746 38.2443 304.298 38.0057 304.752C37.767 305.206 37.4306 305.551 36.9964 305.786C36.5623 306.022 36.0502 306.139 35.4602 306.139C34.9034 306.139 34.4079 306.038 33.9737 305.836C33.5395 305.63 33.1982 305.339 32.9496 304.961C32.701 304.583 32.5767 304.134 32.5767 303.614H33.7898C33.7898 303.902 33.861 304.154 34.0036 304.369C34.1494 304.581 34.3482 304.747 34.6001 304.866C34.852 304.986 35.1387 305.045 35.4602 305.045C35.8149 305.045 36.1165 304.971 36.3651 304.822C36.6136 304.673 36.8026 304.454 36.9318 304.165C37.0644 303.874 37.1307 303.518 37.1307 303.097V295.818ZM43.7777 306.159C43.0883 306.159 42.4834 305.995 41.9631 305.667C41.446 305.339 41.0417 304.88 40.75 304.29C40.4616 303.7 40.3175 303.01 40.3175 302.222C40.3175 301.426 40.4616 300.732 40.75 300.138C41.0417 299.545 41.446 299.085 41.9631 298.756C42.4834 298.428 43.0883 298.264 43.7777 298.264C44.4671 298.264 45.0703 298.428 45.5874 298.756C46.1077 299.085 46.5121 299.545 46.8004 300.138C47.0921 300.732 47.2379 301.426 47.2379 302.222C47.2379 303.01 47.0921 303.7 46.8004 304.29C46.5121 304.88 46.1077 305.339 45.5874 305.667C45.0703 305.995 44.4671 306.159 43.7777 306.159ZM43.7777 305.105C44.3014 305.105 44.7322 304.971 45.0703 304.702C45.4084 304.434 45.6586 304.081 45.821 303.643C45.9834 303.206 46.0646 302.732 46.0646 302.222C46.0646 301.711 45.9834 301.236 45.821 300.795C45.6586 300.354 45.4084 299.998 45.0703 299.726C44.7322 299.454 44.3014 299.318 43.7777 299.318C43.254 299.318 42.8232 299.454 42.4851 299.726C42.147 299.998 41.8968 300.354 41.7344 300.795C41.572 301.236 41.4908 301.711 41.4908 302.222C41.4908 302.732 41.572 303.206 41.7344 303.643C41.8968 304.081 42.147 304.434 42.4851 304.702C42.8232 304.971 43.254 305.105 43.7777 305.105ZM50.2022 301.406V306H49.0289V298.364H50.1625V299.557H50.2619C50.4409 299.169 50.7127 298.857 51.0772 298.622C51.4418 298.384 51.9125 298.264 52.4892 298.264C53.0062 298.264 53.4586 298.37 53.8464 298.582C54.2342 298.791 54.5358 299.109 54.7512 299.537C54.9667 299.961 55.0744 300.498 55.0744 301.148V306H53.9011V301.227C53.9011 300.627 53.7453 300.16 53.4338 299.825C53.1222 299.487 52.6947 299.318 52.1511 299.318C51.7766 299.318 51.4418 299.399 51.1468 299.562C50.8552 299.724 50.6248 299.961 50.4558 300.273C50.2868 300.584 50.2022 300.962 50.2022 301.406ZM58.3917 301.406V306H57.2184V298.364H58.3519V299.557H58.4513C58.6303 299.169 58.9021 298.857 59.2667 298.622C59.6313 298.384 60.1019 298.264 60.6786 298.264C61.1957 298.264 61.6481 298.37 62.0359 298.582C62.4237 298.791 62.7253 299.109 62.9407 299.537C63.1561 299.961 63.2638 300.498 63.2638 301.148V306H62.0906V301.227C62.0906 300.627 61.9348 300.16 61.6232 299.825C61.3117 299.487 60.8841 299.318 60.3406 299.318C59.966 299.318 59.6313 299.399 59.3363 299.562C59.0446 299.724 58.8143 299.961 58.6452 300.273C58.4762 300.584 58.3917 300.962 58.3917 301.406ZM65.8901 308.864C65.6912 308.864 65.5139 308.847 65.3581 308.814C65.2024 308.784 65.0946 308.754 65.035 308.724L65.3333 307.69C65.6183 307.763 65.8702 307.79 66.089 307.77C66.3077 307.75 66.5016 307.652 66.6706 307.477C66.843 307.304 67.0004 307.024 67.1429 306.636L67.3617 306.04L64.5378 298.364H65.8105L67.9185 304.449H67.998L70.106 298.364H71.3787L68.1373 307.114C67.9914 307.508 67.8108 307.835 67.5953 308.093C67.3799 308.355 67.1297 308.549 66.8446 308.675C66.5629 308.801 66.2447 308.864 65.8901 308.864ZM74.1007 301.406V306H72.9274V295.818H74.1007V299.557H74.2001C74.3791 299.162 74.6475 298.849 75.0055 298.617C75.3668 298.382 75.8474 298.264 76.4473 298.264C76.9676 298.264 77.4234 298.369 77.8145 298.577C78.2056 298.783 78.5088 299.099 78.7243 299.527C78.943 299.951 79.0524 300.491 79.0524 301.148V306H77.8791V301.227C77.8791 300.621 77.7217 300.152 77.4068 299.82C77.0952 299.486 76.6627 299.318 76.1092 299.318C75.7247 299.318 75.38 299.399 75.0751 299.562C74.7735 299.724 74.5349 299.961 74.3592 300.273C74.1868 300.584 74.1007 300.962 74.1007 301.406ZM83.446 306.179C82.9621 306.179 82.523 306.088 82.1286 305.906C81.7341 305.72 81.4209 305.453 81.1889 305.105C80.9569 304.754 80.8409 304.33 80.8409 303.832C80.8409 303.395 80.9271 303.04 81.0994 302.768C81.2718 302.493 81.5021 302.278 81.7905 302.122C82.0788 301.966 82.397 301.85 82.745 301.774C83.0964 301.695 83.4493 301.632 83.804 301.585C84.268 301.526 84.6442 301.481 84.9325 301.451C85.2242 301.418 85.4363 301.363 85.5689 301.287C85.7048 301.211 85.7727 301.078 85.7727 300.889V300.849C85.7727 300.359 85.6385 299.978 85.37 299.706C85.1049 299.434 84.7022 299.298 84.1619 299.298C83.6018 299.298 83.1626 299.421 82.8445 299.666C82.5263 299.911 82.3026 300.173 82.1733 300.452L81.0597 300.054C81.2585 299.59 81.5237 299.229 81.8551 298.97C82.1899 298.708 82.5545 298.526 82.9489 298.423C83.3466 298.317 83.7377 298.264 84.1222 298.264C84.3674 298.264 84.6491 298.294 84.9673 298.354C85.2888 298.41 85.5987 298.528 85.897 298.707C86.1986 298.886 86.4489 299.156 86.6477 299.517C86.8466 299.878 86.946 300.362 86.946 300.969V306H85.7727V304.966H85.7131C85.6335 305.132 85.5009 305.309 85.3153 305.498C85.1297 305.687 84.8828 305.848 84.5746 305.98C84.2663 306.113 83.8902 306.179 83.446 306.179ZM83.625 305.125C84.089 305.125 84.4801 305.034 84.7983 304.852C85.1198 304.669 85.3617 304.434 85.5241 304.146C85.6899 303.857 85.7727 303.554 85.7727 303.236V302.162C85.723 302.222 85.6136 302.276 85.4446 302.326C85.2789 302.372 85.0866 302.414 84.8679 302.45C84.6525 302.483 84.442 302.513 84.2365 302.54C84.0343 302.563 83.8703 302.583 83.7443 302.599C83.4394 302.639 83.1544 302.704 82.8892 302.793C82.6274 302.879 82.4152 303.01 82.2528 303.186C82.0938 303.358 82.0142 303.594 82.0142 303.892C82.0142 304.3 82.165 304.608 82.4666 304.817C82.7715 305.022 83.1577 305.125 83.625 305.125ZM92.2892 306.159C91.5534 306.159 90.9187 305.997 90.3851 305.672C89.8548 305.344 89.4455 304.886 89.1571 304.3C88.8721 303.71 88.7296 303.024 88.7296 302.241C88.7296 301.459 88.8721 300.77 89.1571 300.173C89.4455 299.573 89.8465 299.106 90.3603 298.771C90.8773 298.433 91.4805 298.264 92.1699 298.264C92.5676 298.264 92.9604 298.33 93.3482 298.463C93.736 298.596 94.089 298.811 94.4071 299.109C94.7253 299.404 94.9789 299.795 95.1678 300.283C95.3567 300.77 95.4512 301.37 95.4512 302.082V302.58H89.5648V301.565H94.258C94.258 301.134 94.1718 300.75 93.9995 300.412C93.8304 300.074 93.5885 299.807 93.2736 299.612C92.9621 299.416 92.5942 299.318 92.1699 299.318C91.7026 299.318 91.2982 299.434 90.9569 299.666C90.6188 299.895 90.3586 300.193 90.1763 300.561C89.994 300.929 89.9029 301.323 89.9029 301.744V302.42C89.9029 302.997 90.0023 303.486 90.2012 303.887C90.4033 304.285 90.6834 304.588 91.0414 304.797C91.3993 305.002 91.8153 305.105 92.2892 305.105C92.5975 305.105 92.8759 305.062 93.1245 304.976C93.3764 304.886 93.5935 304.754 93.7757 304.578C93.958 304.399 94.0989 304.177 94.1983 303.912L95.3319 304.23C95.2125 304.615 95.012 304.953 94.7303 305.244C94.4486 305.533 94.1006 305.758 93.6863 305.92C93.272 306.08 92.8063 306.159 92.2892 306.159ZM98.4093 295.818V306H97.236V295.818H98.4093ZM106.425 308.685C105.411 308.685 104.514 308.545 103.735 308.267C102.956 307.992 102.302 307.586 101.771 307.049C101.241 306.512 100.84 305.854 100.568 305.075C100.296 304.296 100.161 303.405 100.161 302.401C100.161 301.429 100.298 300.561 100.573 299.795C100.852 299.03 101.254 298.38 101.781 297.847C102.312 297.31 102.955 296.9 103.71 296.619C104.469 296.337 105.328 296.196 106.286 296.196C107.217 296.196 108.032 296.348 108.732 296.653C109.434 296.955 110.021 297.364 110.491 297.881C110.965 298.395 111.32 298.973 111.555 299.616C111.794 300.259 111.913 300.922 111.913 301.605C111.913 302.086 111.89 302.573 111.844 303.067C111.797 303.561 111.7 304.015 111.55 304.429C111.401 304.84 111.171 305.171 110.859 305.423C110.551 305.675 110.134 305.801 109.607 305.801C109.375 305.801 109.119 305.765 108.841 305.692C108.562 305.619 108.316 305.498 108.1 305.329C107.885 305.16 107.757 304.933 107.717 304.648H107.658C107.578 304.84 107.455 305.022 107.29 305.195C107.127 305.367 106.914 305.504 106.648 305.607C106.387 305.71 106.067 305.755 105.689 305.741C105.258 305.725 104.879 305.629 104.55 305.453C104.222 305.274 103.947 305.032 103.725 304.727C103.506 304.419 103.341 304.063 103.228 303.658C103.119 303.251 103.064 302.812 103.064 302.341C103.064 301.893 103.13 301.484 103.263 301.113C103.395 300.742 103.579 300.417 103.815 300.138C104.053 299.86 104.332 299.638 104.65 299.472C104.971 299.303 105.318 299.199 105.689 299.159C106.02 299.126 106.322 299.141 106.594 299.204C106.866 299.263 107.089 299.355 107.265 299.477C107.441 299.597 107.552 299.729 107.598 299.875H107.658V299.318H108.712V303.812C108.712 304.091 108.79 304.336 108.945 304.548C109.101 304.76 109.328 304.866 109.626 304.866C109.964 304.866 110.223 304.75 110.402 304.518C110.584 304.286 110.709 303.929 110.775 303.445C110.844 302.961 110.879 302.341 110.879 301.585C110.879 301.141 110.818 300.704 110.695 300.273C110.576 299.839 110.394 299.433 110.148 299.055C109.906 298.677 109.6 298.344 109.229 298.055C108.857 297.767 108.422 297.542 107.921 297.379C107.424 297.214 106.859 297.131 106.226 297.131C105.447 297.131 104.749 297.252 104.133 297.494C103.52 297.732 102.998 298.082 102.567 298.543C102.139 299 101.813 299.557 101.587 300.213C101.365 300.866 101.254 301.608 101.254 302.44C101.254 303.286 101.365 304.036 101.587 304.692C101.813 305.349 102.144 305.902 102.582 306.353C103.022 306.804 103.568 307.145 104.217 307.377C104.867 307.612 105.616 307.73 106.464 307.73C106.829 307.73 107.189 307.695 107.543 307.626C107.898 307.556 108.211 307.48 108.483 307.397C108.755 307.314 108.95 307.253 109.07 307.213L109.348 308.128C109.143 308.214 108.874 308.3 108.543 308.386C108.214 308.473 107.863 308.544 107.489 308.6C107.117 308.656 106.763 308.685 106.425 308.685ZM105.848 304.727C106.292 304.727 106.652 304.638 106.927 304.459C107.202 304.28 107.402 304.01 107.528 303.648C107.654 303.287 107.717 302.831 107.717 302.281C107.717 301.724 107.648 301.29 107.509 300.979C107.369 300.667 107.164 300.448 106.892 300.322C106.62 300.196 106.286 300.134 105.888 300.134C105.51 300.134 105.187 300.233 104.918 300.432C104.653 300.627 104.449 300.889 104.307 301.217C104.168 301.542 104.098 301.897 104.098 302.281C104.098 302.705 104.154 303.105 104.267 303.479C104.38 303.851 104.564 304.152 104.819 304.384C105.074 304.613 105.417 304.727 105.848 304.727ZM116.752 309.023C116.185 309.023 115.698 308.95 115.29 308.804C114.883 308.661 114.543 308.473 114.271 308.237C114.003 308.005 113.789 307.757 113.63 307.491L114.564 306.835C114.671 306.974 114.805 307.134 114.967 307.312C115.13 307.495 115.352 307.652 115.633 307.785C115.918 307.921 116.291 307.989 116.752 307.989C117.368 307.989 117.877 307.839 118.278 307.541C118.679 307.243 118.88 306.776 118.88 306.139V304.588H118.78C118.694 304.727 118.572 304.9 118.412 305.105C118.257 305.307 118.031 305.488 117.736 305.647C117.445 305.803 117.05 305.881 116.553 305.881C115.937 305.881 115.383 305.735 114.893 305.443C114.405 305.152 114.019 304.727 113.734 304.17C113.452 303.614 113.312 302.937 113.312 302.142C113.312 301.36 113.449 300.679 113.724 300.099C113.999 299.515 114.382 299.065 114.873 298.746C115.363 298.425 115.93 298.264 116.573 298.264C117.07 298.264 117.465 298.347 117.756 298.513C118.051 298.675 118.277 298.861 118.432 299.07C118.591 299.275 118.714 299.444 118.8 299.577H118.92V298.364H120.053V306.219C120.053 306.875 119.904 307.409 119.606 307.82C119.311 308.234 118.913 308.537 118.412 308.729C117.915 308.925 117.362 309.023 116.752 309.023ZM116.712 304.827C117.183 304.827 117.581 304.719 117.905 304.504C118.23 304.288 118.477 303.978 118.646 303.574C118.815 303.17 118.9 302.686 118.9 302.122C118.9 301.572 118.817 301.086 118.651 300.665C118.485 300.245 118.24 299.915 117.915 299.676C117.59 299.437 117.189 299.318 116.712 299.318C116.215 299.318 115.801 299.444 115.469 299.696C115.141 299.948 114.894 300.286 114.729 300.71C114.566 301.134 114.485 301.605 114.485 302.122C114.485 302.652 114.568 303.121 114.733 303.529C114.903 303.933 115.151 304.252 115.479 304.484C115.811 304.712 116.222 304.827 116.712 304.827ZM122.201 306V298.364H123.334V299.557H123.434C123.593 299.149 123.85 298.833 124.204 298.607C124.559 298.379 124.985 298.264 125.482 298.264C125.986 298.264 126.405 298.379 126.74 298.607C127.078 298.833 127.341 299.149 127.53 299.557H127.61C127.805 299.162 128.099 298.849 128.49 298.617C128.881 298.382 129.35 298.264 129.897 298.264C130.58 298.264 131.138 298.478 131.572 298.906C132.006 299.33 132.224 299.991 132.224 300.889V306H131.05V300.889C131.05 300.326 130.896 299.923 130.588 299.681C130.28 299.439 129.917 299.318 129.499 299.318C128.962 299.318 128.546 299.481 128.251 299.805C127.956 300.127 127.809 300.535 127.809 301.028V306H126.616V300.77C126.616 300.336 126.475 299.986 126.193 299.721C125.911 299.452 125.548 299.318 125.104 299.318C124.799 299.318 124.514 299.399 124.249 299.562C123.987 299.724 123.775 299.95 123.613 300.238C123.454 300.523 123.374 300.853 123.374 301.227V306H122.201ZM136.616 306.179C136.132 306.179 135.693 306.088 135.298 305.906C134.904 305.72 134.591 305.453 134.359 305.105C134.127 304.754 134.011 304.33 134.011 303.832C134.011 303.395 134.097 303.04 134.269 302.768C134.442 302.493 134.672 302.278 134.96 302.122C135.249 301.966 135.567 301.85 135.915 301.774C136.266 301.695 136.619 301.632 136.974 301.585C137.438 301.526 137.814 301.481 138.102 301.451C138.394 301.418 138.606 301.363 138.739 301.287C138.875 301.211 138.943 301.078 138.943 300.889V300.849C138.943 300.359 138.808 299.978 138.54 299.706C138.275 299.434 137.872 299.298 137.332 299.298C136.772 299.298 136.333 299.421 136.014 299.666C135.696 299.911 135.472 300.173 135.343 300.452L134.23 300.054C134.428 299.59 134.694 299.229 135.025 298.97C135.36 298.708 135.724 298.526 136.119 298.423C136.517 298.317 136.908 298.264 137.292 298.264C137.537 298.264 137.819 298.294 138.137 298.354C138.459 298.41 138.769 298.528 139.067 298.707C139.369 298.886 139.619 299.156 139.818 299.517C140.017 299.878 140.116 300.362 140.116 300.969V306H138.943V304.966H138.883C138.803 305.132 138.671 305.309 138.485 305.498C138.3 305.687 138.053 305.848 137.744 305.98C137.436 306.113 137.06 306.179 136.616 306.179ZM136.795 305.125C137.259 305.125 137.65 305.034 137.968 304.852C138.29 304.669 138.532 304.434 138.694 304.146C138.86 303.857 138.943 303.554 138.943 303.236V302.162C138.893 302.222 138.784 302.276 138.615 302.326C138.449 302.372 138.257 302.414 138.038 302.45C137.822 302.483 137.612 302.513 137.406 302.54C137.204 302.563 137.04 302.583 136.914 302.599C136.609 302.639 136.324 302.704 136.059 302.793C135.797 302.879 135.585 303.01 135.423 303.186C135.264 303.358 135.184 303.594 135.184 303.892C135.184 304.3 135.335 304.608 135.637 304.817C135.941 305.022 136.328 305.125 136.795 305.125ZM142.257 306V298.364H143.431V306H142.257ZM142.854 297.091C142.625 297.091 142.428 297.013 142.262 296.857C142.1 296.701 142.019 296.514 142.019 296.295C142.019 296.077 142.1 295.889 142.262 295.734C142.428 295.578 142.625 295.5 142.854 295.5C143.083 295.5 143.278 295.578 143.441 295.734C143.606 295.889 143.689 296.077 143.689 296.295C143.689 296.514 143.606 296.701 143.441 296.857C143.278 297.013 143.083 297.091 142.854 297.091ZM146.753 295.818V306H145.58V295.818H146.753ZM149.757 306.08C149.512 306.08 149.301 305.992 149.126 305.816C148.95 305.64 148.862 305.43 148.862 305.185C148.862 304.939 148.95 304.729 149.126 304.553C149.301 304.378 149.512 304.29 149.757 304.29C150.002 304.29 150.213 304.378 150.388 304.553C150.564 304.729 150.652 304.939 150.652 305.185C150.652 305.347 150.611 305.496 150.528 305.632C150.448 305.768 150.34 305.877 150.205 305.96C150.072 306.04 149.923 306.08 149.757 306.08ZM155.86 306.159C155.144 306.159 154.527 305.99 154.01 305.652C153.493 305.314 153.096 304.848 152.817 304.255C152.539 303.662 152.4 302.984 152.4 302.222C152.4 301.446 152.542 300.762 152.827 300.168C153.115 299.572 153.516 299.106 154.03 298.771C154.547 298.433 155.15 298.264 155.84 298.264C156.377 298.264 156.861 298.364 157.292 298.562C157.722 298.761 158.075 299.04 158.35 299.398C158.626 299.756 158.796 300.173 158.863 300.651H157.689C157.6 300.303 157.401 299.994 157.093 299.726C156.788 299.454 156.377 299.318 155.86 299.318C155.402 299.318 155.001 299.437 154.657 299.676C154.315 299.911 154.048 300.245 153.856 300.675C153.667 301.103 153.573 301.605 153.573 302.182C153.573 302.772 153.666 303.286 153.851 303.723C154.04 304.161 154.305 304.5 154.647 304.742C154.991 304.984 155.396 305.105 155.86 305.105C156.165 305.105 156.441 305.052 156.69 304.946C156.939 304.84 157.149 304.688 157.321 304.489C157.494 304.29 157.616 304.051 157.689 303.773H158.863C158.796 304.223 158.632 304.629 158.37 304.991C158.112 305.349 157.769 305.634 157.341 305.846C156.917 306.055 156.423 306.159 155.86 306.159ZM163.68 306.159C162.991 306.159 162.386 305.995 161.865 305.667C161.348 305.339 160.944 304.88 160.652 304.29C160.364 303.7 160.22 303.01 160.22 302.222C160.22 301.426 160.364 300.732 160.652 300.138C160.944 299.545 161.348 299.085 161.865 298.756C162.386 298.428 162.991 298.264 163.68 298.264C164.369 298.264 164.973 298.428 165.49 298.756C166.01 299.085 166.414 299.545 166.703 300.138C166.994 300.732 167.14 301.426 167.14 302.222C167.14 303.01 166.994 303.7 166.703 304.29C166.414 304.88 166.01 305.339 165.49 305.667C164.973 305.995 164.369 306.159 163.68 306.159ZM163.68 305.105C164.204 305.105 164.635 304.971 164.973 304.702C165.311 304.434 165.561 304.081 165.723 303.643C165.886 303.206 165.967 302.732 165.967 302.222C165.967 301.711 165.886 301.236 165.723 300.795C165.561 300.354 165.311 299.998 164.973 299.726C164.635 299.454 164.204 299.318 163.68 299.318C163.156 299.318 162.725 299.454 162.387 299.726C162.049 299.998 161.799 300.354 161.637 300.795C161.474 301.236 161.393 301.711 161.393 302.222C161.393 302.732 161.474 303.206 161.637 303.643C161.799 304.081 162.049 304.434 162.387 304.702C162.725 304.971 163.156 305.105 163.68 305.105ZM168.931 306V298.364H170.065V299.557H170.164C170.323 299.149 170.58 298.833 170.935 298.607C171.289 298.379 171.715 298.264 172.213 298.264C172.716 298.264 173.136 298.379 173.47 298.607C173.808 298.833 174.072 299.149 174.261 299.557H174.34C174.536 299.162 174.829 298.849 175.22 298.617C175.611 298.382 176.08 298.264 176.627 298.264C177.31 298.264 177.869 298.478 178.303 298.906C178.737 299.33 178.954 299.991 178.954 300.889V306H177.781V300.889C177.781 300.326 177.627 299.923 177.318 299.681C177.01 299.439 176.647 299.318 176.23 299.318C175.693 299.318 175.277 299.481 174.982 299.805C174.687 300.127 174.539 300.535 174.539 301.028V306H173.346V300.77C173.346 300.336 173.205 299.986 172.923 299.721C172.642 299.452 172.279 299.318 171.835 299.318C171.53 299.318 171.245 299.399 170.98 299.562C170.718 299.724 170.506 299.95 170.343 300.238C170.184 300.523 170.105 300.853 170.105 301.227V306H168.931Z" fill="black"/>
<path opacity="0.9" d="M35.0227 379.545L35.1023 377.358L33.2528 378.531L32.7756 377.696L34.7244 376.682L32.7756 375.668L33.2528 374.832L35.1023 376.006L35.0227 373.818H35.9773L35.8977 376.006L37.7472 374.832L38.2244 375.668L36.2756 376.682L38.2244 377.696L37.7472 378.531L35.8977 377.358L35.9773 379.545H35.0227ZM42.0227 379.545L42.1023 377.358L40.2528 378.531L39.7756 377.696L41.7244 376.682L39.7756 375.668L40.2528 374.832L42.1023 376.006L42.0227 373.818H42.9773L42.8977 376.006L44.7472 374.832L45.2244 375.668L43.2756 376.682L45.2244 377.696L44.7472 378.531L42.8977 377.358L42.9773 379.545H42.0227ZM49.0227 379.545L49.1023 377.358L47.2528 378.531L46.7756 377.696L48.7244 376.682L46.7756 375.668L47.2528 374.832L49.1023 376.006L49.0227 373.818H49.9773L49.8977 376.006L51.7472 374.832L52.2244 375.668L50.2756 376.682L52.2244 377.696L51.7472 378.531L49.8977 377.358L49.9773 379.545H49.0227ZM56.0227 379.545L56.1023 377.358L54.2528 378.531L53.7756 377.696L55.7244 376.682L53.7756 375.668L54.2528 374.832L56.1023 376.006L56.0227 373.818H56.9773L56.8977 376.006L58.7472 374.832L59.2244 375.668L57.2756 376.682L59.2244 377.696L58.7472 378.531L56.8977 377.358L56.9773 379.545H56.0227ZM63.0227 379.545L63.1023 377.358L61.2528 378.531L60.7756 377.696L62.7244 376.682L60.7756 375.668L61.2528 374.832L63.1023 376.006L63.0227 373.818H63.9773L63.8977 376.006L65.7472 374.832L66.2244 375.668L64.2756 376.682L66.2244 377.696L65.7472 378.531L63.8977 377.358L63.9773 379.545H63.0227ZM70.0227 379.545L70.1023 377.358L68.2528 378.531L67.7756 377.696L69.7244 376.682L67.7756 375.668L68.2528 374.832L70.1023 376.006L70.0227 373.818H70.9773L70.8977 376.006L72.7472 374.832L73.2244 375.668L71.2756 376.682L73.2244 377.696L72.7472 378.531L70.8977 377.358L70.9773 379.545H70.0227ZM77.0227 379.545L77.1023 377.358L75.2528 378.531L74.7756 377.696L76.7244 376.682L74.7756 375.668L75.2528 374.832L77.1023 376.006L77.0227 373.818H77.9773L77.8977 376.006L79.7472 374.832L80.2244 375.668L78.2756 376.682L80.2244 377.696L79.7472 378.531L77.8977 377.358L77.9773 379.545H77.0227ZM84.0227 379.545L84.1023 377.358L82.2528 378.531L81.7756 377.696L83.7244 376.682L81.7756 375.668L82.2528 374.832L84.1023 376.006L84.0227 373.818H84.9773L84.8977 376.006L86.7472 374.832L87.2244 375.668L85.2756 376.682L87.2244 377.696L86.7472 378.531L84.8977 377.358L84.9773 379.545H84.0227ZM91.0227 379.545L91.1023 377.358L89.2528 378.531L88.7756 377.696L90.7244 376.682L88.7756 375.668L89.2528 374.832L91.1023 376.006L91.0227 373.818H91.9773L91.8977 376.006L93.7472 374.832L94.2244 375.668L92.2756 376.682L94.2244 377.696L93.7472 378.531L91.8977 377.358L91.9773 379.545H91.0227ZM98.0227 379.545L98.1023 377.358L96.2528 378.531L95.7756 377.696L97.7244 376.682L95.7756 375.668L96.2528 374.832L98.1023 376.006L98.0227 373.818H98.9773L98.8977 376.006L100.747 374.832L101.224 375.668L99.2756 376.682L101.224 377.696L100.747 378.531L98.8977 377.358L98.9773 379.545H98.0227ZM105.023 379.545L105.102 377.358L103.253 378.531L102.776 377.696L104.724 376.682L102.776 375.668L103.253 374.832L105.102 376.006L105.023 373.818H105.977L105.898 376.006L107.747 374.832L108.224 375.668L106.276 376.682L108.224 377.696L107.747 378.531L105.898 377.358L105.977 379.545H105.023ZM112.023 379.545L112.102 377.358L110.253 378.531L109.776 377.696L111.724 376.682L109.776 375.668L110.253 374.832L112.102 376.006L112.023 373.818H112.977L112.898 376.006L114.747 374.832L115.224 375.668L113.276 376.682L115.224 377.696L114.747 378.531L112.898 377.358L112.977 379.545H112.023ZM119.023 379.545L119.102 377.358L117.253 378.531L116.776 377.696L118.724 376.682L116.776 375.668L117.253 374.832L119.102 376.006L119.023 373.818H119.977L119.898 376.006L121.747 374.832L122.224 375.668L120.276 376.682L122.224 377.696L121.747 378.531L119.898 377.358L119.977 379.545H119.023ZM126.023 379.545L126.102 377.358L124.253 378.531L123.776 377.696L125.724 376.682L123.776 375.668L124.253 374.832L126.102 376.006L126.023 373.818H126.977L126.898 376.006L128.747 374.832L129.224 375.668L127.276 376.682L129.224 377.696L128.747 378.531L126.898 377.358L126.977 379.545H126.023ZM133.023 379.545L133.102 377.358L131.253 378.531L130.776 377.696L132.724 376.682L130.776 375.668L131.253 374.832L133.102 376.006L133.023 373.818H133.977L133.898 376.006L135.747 374.832L136.224 375.668L134.276 376.682L136.224 377.696L135.747 378.531L133.898 377.358L133.977 379.545H133.023ZM140.023 379.545L140.102 377.358L138.253 378.531L137.776 377.696L139.724 376.682L137.776 375.668L138.253 374.832L140.102 376.006L140.023 373.818H140.977L140.898 376.006L142.747 374.832L143.224 375.668L141.276 376.682L143.224 377.696L142.747 378.531L140.898 377.358L140.977 379.545H140.023Z" fill="black"/>
<path d="M187.791 145.93C185.731 147.98 182.781 148.61 180.191 147.8L175.481 152.5C175.141 152.85 174.471 153.06 173.991 152.99L171.811 152.69C171.091 152.59 170.421 151.91 170.311 151.19L170.011 149.01C169.941 148.53 170.171 147.86 170.501 147.52L175.201 142.82C174.401 140.22 175.021 137.27 177.081 135.22C180.031 132.27 184.821 132.27 187.781 135.22C190.741 138.17 190.741 142.98 187.791 145.93Z" stroke="#4E00AD" stroke-width="1.5" stroke-miterlimit="10" stroke-linecap="round" stroke-linejoin="round"/>
<path d="M174.891 148.49L177.191 150.79" stroke="#4E00AD" stroke-width="1.5" stroke-miterlimit="10" stroke-linecap="round" stroke-linejoin="round"/>
<path d="M182.5 142C183.328 142 184 141.328 184 140.5C184 139.672 183.328 139 182.5 139C181.672 139 181 139.672 181 140.5C181 141.328 181.672 142 182.5 142Z" stroke="#4E00AD" stroke-width="1.5" stroke-linecap="round" stroke-linejoin="round"/>
</g>
<defs>
<clipPath id="clip0_910_12738">
<rect width="360" height="800" fill="white"/>
</clipPath>
</defs>
</svg>
