<svg width="60" height="70" viewBox="0 0 88 100" fill="none" xmlns="http://www.w3.org/2000/svg">
<rect x="1.5" y="1.5" width="85" height="97" rx="16.5" stroke="#9162FA" stroke-width="2"/>
<path d="M59.1111 32.2222H28.8888C27.4161 32.2222 26.2222 33.4161 26.2222 34.8888V65.1111C26.2222 66.5838 27.4161 67.7777 28.8888 67.7777H59.1111C60.5838 67.7777 61.7777 66.5838 61.7777 65.1111V34.8888C61.7777 33.4161 60.5838 32.2222 59.1111 32.2222Z" fill="#FFD02F"/>
<path fill-rule="evenodd" clip-rule="evenodd" d="M50.3956 36.6686H46.4924L49.7462 42.3826L42.5913 36.6686H38.6881L42.2666 43.6535L34.787 36.6686H30.8838L34.787 45.5568L30.8838 63.3352H34.787L42.2666 44.2879L38.6881 63.3352H42.5913L49.7462 43.017L46.4924 63.3352H50.3956L57.5505 41.1137L50.3956 36.6686Z" fill="#050038"/>
</svg>
