<svg width="700" height="968" viewBox="0 0 732 978" fill="none" xmlns="http://www.w3.org/2000/svg">
<g clip-path="url(#clip0_1082_13230)">
<mask id="mask0_1082_13230" style="mask-type:luminance" maskUnits="userSpaceOnUse" x="0" y="0" width="216" height="468">
<path d="M197.568 0H18.432C8.25229 0 0 8.25229 0 18.432V449.28C0 459.46 8.25229 467.712 18.432 467.712H197.568C207.748 467.712 216 459.46 216 449.28V18.432C216 8.25229 207.748 0 197.568 0Z" fill="white"/>
</mask>
<g mask="url(#mask0_1082_13230)">
<path d="M197.568 0H18.432C8.25229 0 0 8.25229 0 18.432V449.28C0 459.46 8.25229 467.712 18.432 467.712H197.568C207.748 467.712 216 459.46 216 449.28V18.432C216 8.25229 207.748 0 197.568 0Z" fill="black"/>
<path d="M82.943 13.248H81.791" stroke="white" stroke-width="4" stroke-linecap="round"/>
<path d="M92.7363 13.248H128.448" stroke="white" stroke-width="4" stroke-linecap="round"/>
<path d="M197.567 31.1045H184.895C182.987 31.1045 181.439 32.6518 181.439 34.5605V46.0805C181.439 47.9892 182.987 49.5365 184.895 49.5365H197.567C199.476 49.5365 201.023 47.9892 201.023 46.0805V34.5605C201.023 32.6518 199.476 31.1045 197.567 31.1045Z" fill="white" stroke="black" stroke-width="4"/>
<path d="M31.1046 31.1045H18.4326C16.5239 31.1045 14.9766 32.6518 14.9766 34.5605V46.0805C14.9766 47.9892 16.5239 49.5365 18.4326 49.5365H31.1046C33.0133 49.5365 34.5606 47.9892 34.5606 46.0805V34.5605C34.5606 32.6518 33.0133 31.1045 31.1046 31.1045Z" fill="white" stroke="black" stroke-width="4"/>
<path d="M215.424 61.6318H0.575722C-3.8779 61.6318 -7.48828 65.2422 -7.48828 69.6958V264.96C-7.48828 269.414 -3.8779 273.024 0.575722 273.024H215.424C219.877 273.024 223.488 269.414 223.488 264.96V69.6958C223.488 65.2422 219.877 61.6318 215.424 61.6318Z" fill="#A1A0A3"/>
<path d="M151.375 126.861C161.465 137.541 167.65 151.945 167.65 167.796C167.65 183.629 161.478 198.02 151.407 208.696L107.956 166.106L151.375 126.861ZM108.034 108.18C124.28 108.18 139.006 114.676 149.76 125.215L106.307 164.49L66.2742 125.249C77.031 114.69 91.7708 108.18 108.034 108.18ZM64.6608 126.895L104.595 166.038L61.4652 205.02C53.3 194.819 48.418 181.879 48.418 167.796C48.418 151.961 54.5896 137.571 64.6608 126.895ZM108.034 227.412C90.0204 227.412 73.8739 219.423 62.9409 206.793L106.243 167.653L149.794 210.341C139.037 220.901 124.297 227.412 108.034 227.412Z" stroke="white" stroke-width="4"/>
<path d="M215.424 61.6318H0.575722C-3.8779 61.6318 -7.48828 65.2422 -7.48828 69.6958V264.96C-7.48828 269.414 -3.8779 273.024 0.575722 273.024H215.424C219.877 273.024 223.488 269.414 223.488 264.96V69.6958C223.488 65.2422 219.877 61.6318 215.424 61.6318Z" stroke="black" stroke-width="4"/>
<path d="M192.961 357.12H121.537C117.083 357.12 113.473 360.73 113.473 365.184V490.752C113.473 495.206 117.083 498.816 121.537 498.816H192.961C197.414 498.816 201.025 495.206 201.025 490.752V365.184C201.025 360.73 197.414 357.12 192.961 357.12Z" fill="#A1A0A3"/>
<path d="M141.695 453.889H173.951" stroke="white" stroke-width="4" stroke-linecap="round"/>
<path d="M135.936 442.368H179.712" stroke="white" stroke-width="4" stroke-linecap="round"/>
<path d="M157.247 381.888C163.099 381.888 168.427 384.124 172.427 387.792L156.596 402.1L142.032 387.825C146.035 384.138 151.377 381.888 157.247 381.888ZM158.244 403.716L174.044 389.435C177.571 393.403 179.711 398.626 179.711 404.352C179.711 410.06 177.583 415.27 174.075 419.233L158.244 403.716ZM140.419 389.47L154.883 403.648L139.241 417.786C136.441 414.039 134.783 409.39 134.783 404.352C134.783 398.643 136.911 393.434 140.419 389.47ZM140.714 419.56L156.532 405.264L172.462 420.879C168.46 424.566 163.117 426.816 157.247 426.816C150.707 426.816 144.821 424.022 140.714 419.56Z" stroke="white" stroke-width="4"/>
<path d="M192.961 357.12H121.537C117.083 357.12 113.473 360.73 113.473 365.184V490.752C113.473 495.206 117.083 498.816 121.537 498.816H192.961C197.414 498.816 201.025 495.206 201.025 490.752V365.184C201.025 360.73 197.414 357.12 192.961 357.12Z" stroke="white" stroke-width="4"/>
<path d="M94.4646 357.12H23.0406C18.5869 357.12 14.9766 360.73 14.9766 365.184V490.752C14.9766 495.206 18.5869 498.816 23.0406 498.816H94.4646C98.9182 498.816 102.529 495.206 102.529 490.752V365.184C102.529 360.73 98.9182 357.12 94.4646 357.12Z" fill="#A1A0A3"/>
<path d="M43.1992 453.889H75.4552" stroke="white" stroke-width="4" stroke-linecap="round"/>
<path d="M37.4395 442.368H81.2155" stroke="white" stroke-width="4" stroke-linecap="round"/>
<path d="M58.7511 381.888C64.6033 381.888 69.9313 384.124 73.9304 387.792L58.0997 402.1L43.536 387.825C47.5387 384.138 52.8812 381.888 58.7511 381.888ZM59.7482 403.716L75.5478 389.435C79.0747 393.403 81.2151 398.626 81.2151 404.352C81.2151 410.06 79.0874 415.27 75.5789 419.233L59.7482 403.716ZM41.9231 389.47L56.3873 403.648L40.7451 417.786C37.9446 414.039 36.2871 409.39 36.2871 404.352C36.2871 398.643 38.4151 393.434 41.9231 389.47ZM42.2181 419.56L58.0357 405.264L73.9661 420.879C69.9635 424.566 64.6211 426.816 58.7511 426.816C52.2113 426.816 46.3249 424.022 42.2181 419.56Z" stroke="white" stroke-width="4"/>
<path d="M94.4646 357.12H23.0406C18.5869 357.12 14.9766 360.73 14.9766 365.184V490.752C14.9766 495.206 18.5869 498.816 23.0406 498.816H94.4646C98.9182 498.816 102.529 495.206 102.529 490.752V365.184C102.529 360.73 98.9182 357.12 94.4646 357.12Z" stroke="white" stroke-width="4"/>
<path d="M150.336 284.544H65.6641V300.672H150.336V284.544Z" fill="black"/>
<path d="M142.272 291.456H66.8161C66.1798 291.456 65.6641 291.972 65.6641 292.608C65.6641 293.244 66.1798 293.76 66.8161 293.76H142.272C142.908 293.76 143.424 293.244 143.424 292.608C143.424 291.972 142.908 291.456 142.272 291.456Z" fill="white"/>
<path d="M187.777 309.888H28.2246V344.448H187.777V309.888Z" fill="black"/>
<path d="M179.713 316.8H29.3766C28.7404 316.8 28.2246 317.316 28.2246 317.952C28.2246 318.588 28.7404 319.104 29.3766 319.104H179.713C180.349 319.104 180.865 318.588 180.865 317.952C180.865 317.316 180.349 316.8 179.713 316.8Z" fill="white"/>
<path d="M145.727 326.016H63.359C62.7228 326.016 62.207 326.531 62.207 327.168C62.207 327.804 62.7228 328.32 63.359 328.32H145.727C146.363 328.32 146.879 327.804 146.879 327.168C146.879 326.531 146.363 326.016 145.727 326.016Z" fill="white"/>
<path d="M122.688 335.232H86.4C85.7638 335.232 85.248 335.748 85.248 336.384C85.248 337.021 85.7638 337.536 86.4 337.536H122.688C123.324 337.536 123.84 337.021 123.84 336.384C123.84 335.748 123.324 335.232 122.688 335.232Z" fill="white"/>
</g>
<path d="M197.568 1.15234H18.4323C8.88886 1.15234 1.15234 8.88887 1.15234 18.4324V449.281C1.15234 458.824 8.88886 466.561 18.4323 466.561H197.568C207.112 466.561 214.848 458.824 214.848 449.281V18.4324C214.848 8.88887 207.112 1.15234 197.568 1.15234Z" stroke="white" stroke-width="2"/>
</g>
<g clip-path="url(#clip1_1082_13230)">
<mask id="mask1_1082_13230" style="mask-type:luminance" maskUnits="userSpaceOnUse" x="258" y="0" width="216" height="468">
<path d="M455.568 0H276.432C266.252 0 258 8.25229 258 18.432V449.28C258 459.46 266.252 467.712 276.432 467.712H455.568C465.748 467.712 474 459.46 474 449.28V18.432C474 8.25229 465.748 0 455.568 0Z" fill="white"/>
</mask>
<g mask="url(#mask1_1082_13230)">
<path d="M455.568 0H276.432C266.252 0 258 8.25229 258 18.432V449.28C258 459.46 266.252 467.712 276.432 467.712H455.568C465.748 467.712 474 459.46 474 449.28V18.432C474 8.25229 465.748 0 455.568 0Z" fill="#0A0A0A"/>
<path d="M474 0H258V115.776H474V0Z" fill="#222124"/>
<path d="M340.945 13.248H339.793" stroke="white" stroke-width="4" stroke-linecap="round"/>
<path d="M350.736 13.248H386.448" stroke="white" stroke-width="4" stroke-linecap="round"/>
<path d="M455.567 31.1045H442.895C440.987 31.1045 439.439 32.6518 439.439 34.5605V46.0805C439.439 47.9892 440.987 49.5365 442.895 49.5365H455.567C457.476 49.5365 459.023 47.9892 459.023 46.0805V34.5605C459.023 32.6518 457.476 31.1045 455.567 31.1045Z" fill="white" stroke="white" stroke-width="4"/>
<path d="M289.105 31.1045H276.433C274.524 31.1045 272.977 32.6518 272.977 34.5605V46.0805C272.977 47.9892 274.524 49.5365 276.433 49.5365H289.105C291.013 49.5365 292.561 47.9892 292.561 46.0805V34.5605C292.561 32.6518 291.013 31.1045 289.105 31.1045Z" fill="white" stroke="white" stroke-width="4"/>
<path d="M310.992 66.8164H271.824V82.9444H310.992V66.8164Z" fill="#222124"/>
<path d="M302.928 73.7275H272.976C272.34 73.7275 271.824 74.2433 271.824 74.8795C271.824 75.5158 272.34 76.0315 272.976 76.0315H302.928C303.564 76.0315 304.08 75.5158 304.08 74.8795C304.08 74.2433 303.564 73.7275 302.928 73.7275Z" fill="white"/>
<path d="M351.313 66.8164H312.145V82.9444H351.313V66.8164Z" fill="#222124"/>
<path d="M343.249 73.7275H313.297C312.66 73.7275 312.145 74.2433 312.145 74.8795C312.145 75.5158 312.66 76.0315 313.297 76.0315H343.249C343.885 76.0315 344.401 75.5158 344.401 74.8795C344.401 74.2433 343.885 73.7275 343.249 73.7275Z" fill="white"/>
<path d="M391.633 66.8164H352.465V82.9444H391.633V66.8164Z" fill="#222124"/>
<path d="M383.569 73.7275H353.617C352.981 73.7275 352.465 74.2433 352.465 74.8795C352.465 75.5158 352.981 76.0315 353.617 76.0315H383.569C384.205 76.0315 384.721 75.5158 384.721 74.8795C384.721 74.2433 384.205 73.7275 383.569 73.7275Z" fill="white"/>
<path d="M325.968 87.5518H271.824V103.68H325.968V87.5518Z" fill="#222124"/>
<path d="M317.904 94.4639H272.976C272.34 94.4639 271.824 94.9796 271.824 95.6159C271.824 96.2521 272.34 96.7679 272.976 96.7679H317.904C318.54 96.7679 319.056 96.2521 319.056 95.6159C319.056 94.9796 318.54 94.4639 317.904 94.4639Z" fill="white"/>
<path d="M346.704 156.672H271.824V158.976H346.704V156.672Z" fill="white"/>
<path d="M338.64 156.672H272.976C272.34 156.672 271.824 157.188 271.824 157.824C271.824 158.46 272.34 158.976 272.976 158.976H338.64C339.276 158.976 339.792 158.46 339.792 157.824C339.792 157.188 339.276 156.672 338.64 156.672Z" fill="white"/>
<path d="M318.481 127.872H276.433C274.524 127.872 272.977 129.419 272.977 131.328V142.848C272.977 144.757 274.524 146.304 276.433 146.304H318.481C320.389 146.304 321.937 144.757 321.937 142.848V131.328C321.937 129.419 320.389 127.872 318.481 127.872Z" fill="white" stroke="white" stroke-width="4"/>
<path d="M455.568 127.872H413.52C411.612 127.872 410.064 129.419 410.064 131.328V142.848C410.064 144.757 411.612 146.304 413.52 146.304H455.568C457.477 146.304 459.024 144.757 459.024 142.848V131.328C459.024 129.419 457.477 127.872 455.568 127.872Z" fill="white" stroke="white" stroke-width="4"/>
<path d="M450.961 178.56H379.537C375.083 178.56 371.473 182.17 371.473 186.624V312.192C371.473 316.645 375.083 320.256 379.537 320.256H450.961C455.414 320.256 459.025 316.645 459.025 312.192V186.624C459.025 182.17 455.414 178.56 450.961 178.56Z" fill="#A1A0A3"/>
<path d="M378.385 302.4H397.393" stroke="white" stroke-width="4" stroke-linecap="round"/>
<path d="M421.584 302.4H453.84" stroke="white" stroke-width="4" stroke-linecap="round"/>
<path d="M399.695 275.328H431.951" stroke="white" stroke-width="4" stroke-linecap="round"/>
<path d="M393.936 263.808H437.712" stroke="white" stroke-width="4" stroke-linecap="round"/>
<path d="M415.247 203.328C421.099 203.328 426.427 205.565 430.427 209.232L414.596 223.541L400.032 209.265C404.035 205.578 409.377 203.328 415.247 203.328ZM416.244 225.156L432.044 210.875C435.571 214.844 437.711 220.067 437.711 225.792C437.711 231.501 435.583 236.71 432.075 240.674L416.244 225.156ZM398.419 210.911L412.883 225.088L397.241 239.226C394.441 235.479 392.783 230.83 392.783 225.792C392.783 220.083 394.911 214.874 398.419 210.911ZM398.714 241.001L414.532 226.704L430.462 242.319C426.46 246.006 421.117 248.256 415.247 248.256C408.707 248.256 402.821 245.463 398.714 241.001Z" fill="#A1A0A3" stroke="white" stroke-width="4"/>
<path d="M450.961 178.56H379.537C375.083 178.56 371.473 182.17 371.473 186.624V312.192C371.473 316.645 375.083 320.256 379.537 320.256H450.961C455.414 320.256 459.025 316.645 459.025 312.192V186.624C459.025 182.17 455.414 178.56 450.961 178.56Z" stroke="white" stroke-width="4"/>
<path d="M450.961 336.384H379.537C375.083 336.384 371.473 339.994 371.473 344.448V470.016C371.473 474.469 375.083 478.08 379.537 478.08H450.961C455.414 478.08 459.025 474.469 459.025 470.016V344.448C459.025 339.994 455.414 336.384 450.961 336.384Z" fill="#A1A0A3"/>
<path d="M378.385 460.225H397.393" stroke="white" stroke-width="4" stroke-linecap="round"/>
<path d="M421.584 460.225H453.84" stroke="white" stroke-width="4" stroke-linecap="round"/>
<path d="M399.695 433.152H431.951" stroke="white" stroke-width="4" stroke-linecap="round"/>
<path d="M393.936 421.632H437.712" stroke="white" stroke-width="4" stroke-linecap="round"/>
<path d="M415.247 361.152C421.099 361.152 426.427 363.389 430.427 367.056L414.596 381.365L400.032 367.089C404.035 363.402 409.377 361.152 415.247 361.152ZM416.244 382.98L432.044 368.7C435.571 372.668 437.711 377.891 437.711 383.616C437.711 389.325 435.583 394.534 432.075 398.498L416.244 382.98ZM398.419 368.735L412.883 382.912L397.241 397.05C394.441 393.304 392.783 388.655 392.783 383.616C392.783 377.908 394.911 372.698 398.419 368.735ZM398.714 398.825L414.532 384.528L430.462 400.144C426.46 403.83 421.117 406.08 415.247 406.08C408.707 406.08 402.821 403.287 398.714 398.825Z" fill="#A1A0A3" stroke="white" stroke-width="4"/>
<path d="M450.961 336.384H379.537C375.083 336.384 371.473 339.994 371.473 344.448V470.016C371.473 474.469 375.083 478.08 379.537 478.08H450.961C455.414 478.08 459.025 474.469 459.025 470.016V344.448C459.025 339.994 455.414 336.384 450.961 336.384Z" stroke="white" stroke-width="4"/>
<path d="M352.465 178.56H281.041C276.587 178.56 272.977 182.17 272.977 186.624V312.192C272.977 316.645 276.587 320.256 281.041 320.256H352.465C356.918 320.256 360.529 316.645 360.529 312.192V186.624C360.529 182.17 356.918 178.56 352.465 178.56Z" fill="#A1A0A3"/>
<path d="M279.889 302.4H298.897" stroke="white" stroke-width="4" stroke-linecap="round"/>
<path d="M323.088 302.4H355.344" stroke="white" stroke-width="4" stroke-linecap="round"/>
<path d="M301.199 275.328H333.455" stroke="white" stroke-width="4" stroke-linecap="round"/>
<path d="M295.439 263.808H339.215" stroke="white" stroke-width="4" stroke-linecap="round"/>
<path d="M316.751 203.328C322.603 203.328 327.931 205.565 331.93 209.232L316.1 223.541L301.536 209.265C305.539 205.578 310.881 203.328 316.751 203.328ZM317.748 225.156L333.548 210.875C337.075 214.844 339.215 220.067 339.215 225.792C339.215 231.501 337.087 236.71 333.579 240.674L317.748 225.156ZM299.923 210.911L314.387 225.088L298.745 239.226C295.945 235.479 294.287 230.83 294.287 225.792C294.287 220.083 296.415 214.874 299.923 210.911ZM300.218 241.001L316.036 226.704L331.966 242.319C327.964 246.006 322.621 248.256 316.751 248.256C310.211 248.256 304.325 245.463 300.218 241.001Z" fill="#A1A0A3" stroke="white" stroke-width="4"/>
<path d="M352.465 178.56H281.041C276.587 178.56 272.977 182.17 272.977 186.624V312.192C272.977 316.645 276.587 320.256 281.041 320.256H352.465C356.918 320.256 360.529 316.645 360.529 312.192V186.624C360.529 182.17 356.918 178.56 352.465 178.56Z" stroke="white" stroke-width="4"/>
<path d="M352.465 336.384H281.041C276.587 336.384 272.977 339.994 272.977 344.448V470.016C272.977 474.469 276.587 478.08 281.041 478.08H352.465C356.918 478.08 360.529 474.469 360.529 470.016V344.448C360.529 339.994 356.918 336.384 352.465 336.384Z" fill="#A1A0A3"/>
<path d="M279.889 460.225H298.897" stroke="white" stroke-width="4" stroke-linecap="round"/>
<path d="M323.088 460.225H355.344" stroke="white" stroke-width="4" stroke-linecap="round"/>
<path d="M301.199 433.152H333.455" stroke="white" stroke-width="4" stroke-linecap="round"/>
<path d="M295.439 421.632H339.215" stroke="white" stroke-width="4" stroke-linecap="round"/>
<path d="M316.751 361.152C322.603 361.152 327.931 363.389 331.93 367.056L316.1 381.365L301.536 367.089C305.539 363.402 310.881 361.152 316.751 361.152ZM317.748 382.98L333.548 368.7C337.075 372.668 339.215 377.891 339.215 383.616C339.215 389.325 337.087 394.534 333.579 398.498L317.748 382.98ZM299.923 368.735L314.387 382.912L298.745 397.05C295.945 393.304 294.287 388.655 294.287 383.616C294.287 377.908 296.415 372.698 299.923 368.735ZM300.218 398.825L316.036 384.528L331.966 400.144C327.964 403.83 322.621 406.08 316.751 406.08C310.211 406.08 304.325 403.287 300.218 398.825Z" fill="#A1A0A3" stroke="white" stroke-width="4"/>
<path d="M352.465 336.384H281.041C276.587 336.384 272.977 339.994 272.977 344.448V470.016C272.977 474.469 276.587 478.08 281.041 478.08H352.465C356.918 478.08 360.529 474.469 360.529 470.016V344.448C360.529 339.994 356.918 336.384 352.465 336.384Z" stroke="white" stroke-width="4"/>
</g>
<path d="M455.568 1.15234H276.432C266.889 1.15234 259.152 8.88887 259.152 18.4324V449.281C259.152 458.824 266.889 466.561 276.432 466.561H455.568C465.112 466.561 472.848 458.824 472.848 449.281V18.4324C472.848 8.88887 465.112 1.15234 455.568 1.15234Z" stroke="white" stroke-width="2"/>
</g>
<g clip-path="url(#clip2_1082_13230)">
<path d="M713.568 1.15234H534.432C524.889 1.15234 517.152 8.88887 517.152 18.4324V449.281C517.152 458.824 524.889 466.561 534.432 466.561H713.568C723.112 466.561 730.848 458.824 730.848 449.281V18.4324C730.848 8.88887 723.112 1.15234 713.568 1.15234Z" fill="#0A0A0A"/>
<path d="M516 109.44H732L731.424 14.4646L728.544 8.18744L726.24 4.91243L722.784 2.45617L715.296 0.54574L533.568 0L524.352 3.27502L521.76 5.45847L519.456 8.73349L518.304 16.6479L516 109.44Z" fill="#333333"/>
<path d="M598.945 13.248H597.793" stroke="white" stroke-width="4" stroke-linecap="round"/>
<path d="M608.736 13.248H644.448" stroke="white" stroke-width="4" stroke-linecap="round"/>
<path d="M713.567 31.1045H700.895C698.987 31.1045 697.439 32.6518 697.439 34.5605V46.0805C697.439 47.9892 698.987 49.5365 700.895 49.5365H713.567C715.476 49.5365 717.023 47.9892 717.023 46.0805V34.5605C717.023 32.6518 715.476 31.1045 713.567 31.1045Z" fill="white" stroke="white" stroke-width="4"/>
<path d="M547.105 31.1045H534.433C532.524 31.1045 530.977 32.6518 530.977 34.5605V46.0805C530.977 47.9892 532.524 49.5365 534.433 49.5365H547.105C549.013 49.5365 550.561 47.9892 550.561 46.0805V34.5605C550.561 32.6518 549.013 31.1045 547.105 31.1045Z" fill="white" stroke="white" stroke-width="4"/>
<path d="M568.992 66.8164H529.824V82.9444H568.992V66.8164Z" fill="#333333"/>
<path d="M560.928 73.7275H530.976C530.34 73.7275 529.824 74.2433 529.824 74.8795C529.824 75.5158 530.34 76.0315 530.976 76.0315H560.928C561.564 76.0315 562.08 75.5158 562.08 74.8795C562.08 74.2433 561.564 73.7275 560.928 73.7275Z" fill="white"/>
<path d="M609.313 66.8164H570.145V82.9444H609.313V66.8164Z" fill="#333333"/>
<path d="M601.249 73.7275H571.297C570.66 73.7275 570.145 74.2433 570.145 74.8795C570.145 75.5158 570.66 76.0315 571.297 76.0315H601.249C601.885 76.0315 602.401 75.5158 602.401 74.8795C602.401 74.2433 601.885 73.7275 601.249 73.7275Z" fill="white"/>
<path d="M649.633 66.8164H610.465V82.9444H649.633V66.8164Z" fill="#333333"/>
<path d="M641.569 73.7275H611.617C610.981 73.7275 610.465 74.2433 610.465 74.8795C610.465 75.5158 610.981 76.0315 611.617 76.0315H641.569C642.205 76.0315 642.721 75.5158 642.721 74.8795C642.721 74.2433 642.205 73.7275 641.569 73.7275Z" fill="white"/>
<path d="M583.968 87.5518H529.824V103.68H583.968V87.5518Z" fill="#333333"/>
<path d="M575.904 94.4639H530.976C530.34 94.4639 529.824 94.9796 529.824 95.6159C529.824 96.2521 530.34 96.7679 530.976 96.7679H575.904C576.54 96.7679 577.056 96.2521 577.056 95.6159C577.056 94.9796 576.54 94.4639 575.904 94.4639Z" fill="white"/>
<path d="M615.649 410.688H534.433C532.524 410.688 530.977 412.236 530.977 414.144V432.576C530.977 434.485 532.524 436.032 534.433 436.032H615.649C617.557 436.032 619.105 434.485 619.105 432.576V414.144C619.105 412.236 617.557 410.688 615.649 410.688Z" fill="white"/>
<path d="M615.649 410.688H534.433C532.524 410.688 530.977 412.236 530.977 414.144V432.576C530.977 434.485 532.524 436.032 534.433 436.032H615.649C617.557 436.032 619.105 434.485 619.105 432.576V414.144C619.105 412.236 617.557 410.688 615.649 410.688Z" stroke="white" stroke-width="4"/>
<path d="M713.568 410.688H632.352C630.444 410.688 628.896 412.236 628.896 414.144V432.576C628.896 434.485 630.444 436.032 632.352 436.032H713.568C715.477 436.032 717.024 434.485 717.024 432.576V414.144C717.024 412.236 715.477 410.688 713.568 410.688Z" fill="#A1A0A3"/>
<path d="M713.568 410.688H632.352C630.444 410.688 628.896 412.236 628.896 414.144V432.576C628.896 434.485 630.444 436.032 632.352 436.032H713.568C715.477 436.032 717.024 434.485 717.024 432.576V414.144C717.024 412.236 715.477 410.688 713.568 410.688Z" fill="white" stroke="white" stroke-width="4"/>
<path d="M708.961 116.928H539.041C534.587 116.928 530.977 120.538 530.977 124.992V240.192C530.977 244.645 534.587 248.256 539.041 248.256H708.961C713.414 248.256 717.025 244.645 717.025 240.192V124.992C717.025 120.538 713.414 116.928 708.961 116.928Z" fill="#A1A0A3"/>
<path d="M624.288 145.729C634.169 145.729 643.14 149.615 649.76 155.944L623.22 179.933L598.781 155.978C605.404 149.628 614.39 145.729 624.288 145.729ZM624.868 181.548L651.376 157.589C657.445 164.161 661.152 172.943 661.152 182.593C661.152 192.226 657.458 200.994 651.408 207.562L624.868 181.548ZM597.168 157.623L621.507 181.48L595.207 205.251C590.329 199 587.424 191.137 587.424 182.593C587.424 172.959 591.118 164.191 597.168 157.623ZM596.682 207.024L623.155 183.096L649.795 209.207C643.171 215.557 634.186 219.457 624.288 219.457C613.301 219.457 603.437 214.652 596.682 207.024Z" fill="#A1A0A3" stroke="white" stroke-width="4"/>
<path d="M708.961 116.928H539.041C534.587 116.928 530.977 120.538 530.977 124.992V240.192C530.977 244.645 534.587 248.256 539.041 248.256H708.961C713.414 248.256 717.025 244.645 717.025 240.192V124.992C717.025 120.538 713.414 116.928 708.961 116.928Z" stroke="white" stroke-width="4"/>
<path d="M610.464 265.536H535.584V267.84H610.464V265.536Z" fill="white"/>
<path d="M602.4 265.536H536.736C536.1 265.536 535.584 266.052 535.584 266.688C535.584 267.324 536.1 267.84 536.736 267.84H602.4C603.036 267.84 603.552 267.324 603.552 266.688C603.552 266.052 603.036 265.536 602.4 265.536Z" fill="white"/>
<path d="M581.664 281.088H539.616C537.707 281.088 536.16 282.635 536.16 284.544V296.064C536.16 297.973 537.707 299.52 539.616 299.52H581.664C583.573 299.52 585.12 297.973 585.12 296.064V284.544C585.12 282.635 583.573 281.088 581.664 281.088Z" fill="white" stroke="white" stroke-width="4"/>
<path d="M539.298 312.769H708.703C713.299 312.769 717.025 316.379 717.025 320.833V356.545C717.025 360.998 713.299 364.609 708.703 364.609H539.298C534.702 364.609 530.977 360.998 530.977 356.545V320.833C530.977 316.379 534.702 312.769 539.298 312.769Z" fill="#A1A0A3" stroke="white" stroke-width="4"/>
<path d="M636.96 376.704H540.768V392.832H636.96V376.704Z" fill="black"/>
<path d="M619.105 383.616H532.129C531.492 383.616 530.977 384.132 530.977 384.768C530.977 385.404 531.492 385.92 532.129 385.92H619.105C619.741 385.92 620.257 385.404 620.257 384.768C620.257 384.132 619.741 383.616 619.105 383.616Z" fill="white"/>
<path d="M718.176 376.704H686.496V392.832H718.176V376.704Z" fill="black"/>
<path d="M715.872 383.616H693.408C692.772 383.616 692.256 384.132 692.256 384.768C692.256 385.404 692.772 385.92 693.408 385.92H715.872C716.508 385.92 717.024 385.404 717.024 384.768C717.024 384.132 716.508 383.616 715.872 383.616Z" fill="white"/>
<path d="M713.568 1.15234H534.432C524.889 1.15234 517.152 8.88887 517.152 18.4324V449.281C517.152 458.824 524.889 466.561 534.432 466.561H713.568C723.112 466.561 730.848 458.824 730.848 449.281V18.4324C730.848 8.88887 723.112 1.15234 713.568 1.15234Z" stroke="white" stroke-width="2"/>
</g>
<g clip-path="url(#clip3_1082_13230)">
<path d="M197.568 510.864H18.4323C8.88886 510.864 1.15234 518.601 1.15234 528.144V958.992C1.15234 968.536 8.88886 976.272 18.4323 976.272H197.568C207.112 976.272 214.848 968.536 214.848 958.992V528.144C214.848 518.601 207.112 510.864 197.568 510.864Z" fill="#0A0A0A"/>
<path d="M0 625.488H216V525.552L211.968 517.488L207.859 513.584L199.008 509.712H17.856L7.2 514.32L6.624 515.472L2.592 519.792L0 527.568V625.488Z" fill="#333333"/>
<path d="M82.945 522.96H81.793" stroke="white" stroke-width="4" stroke-linecap="round"/>
<path d="M92.7363 522.96H128.448" stroke="white" stroke-width="4" stroke-linecap="round"/>
<path d="M197.567 540.815H184.895C182.987 540.815 181.439 542.363 181.439 544.271V555.791C181.439 557.7 182.987 559.247 184.895 559.247H197.567C199.476 559.247 201.023 557.7 201.023 555.791V544.271C201.023 542.363 199.476 540.815 197.567 540.815Z" fill="white" stroke="white" stroke-width="4"/>
<path d="M31.1046 540.815H18.4326C16.5239 540.815 14.9766 542.363 14.9766 544.271V555.791C14.9766 557.7 16.5239 559.247 18.4326 559.247H31.1046C33.0133 559.247 34.5606 557.7 34.5606 555.791V544.271C34.5606 542.363 33.0133 540.815 31.1046 540.815Z" fill="white" stroke="white" stroke-width="4"/>
<path d="M52.9922 576.528H13.8242V592.656H52.9922V576.528Z" fill="#333333"/>
<path d="M44.9282 583.439H14.9762C14.34 583.439 13.8242 583.955 13.8242 584.591C13.8242 585.228 14.34 585.743 14.9762 585.743H44.9282C45.5645 585.743 46.0802 585.228 46.0802 584.591C46.0802 583.955 45.5645 583.439 44.9282 583.439Z" fill="white"/>
<path d="M93.3125 576.528H54.1445V592.656H93.3125V576.528Z" fill="#333333"/>
<path d="M85.2485 583.439H55.2965C54.6603 583.439 54.1445 583.955 54.1445 584.591C54.1445 585.228 54.6603 585.743 55.2965 585.743H85.2485C85.8848 585.743 86.4005 585.228 86.4005 584.591C86.4005 583.955 85.8848 583.439 85.2485 583.439Z" fill="white"/>
<path d="M133.633 576.528H94.4648V592.656H133.633V576.528Z" fill="#333333"/>
<path d="M125.569 583.439H95.6168C94.9806 583.439 94.4648 583.955 94.4648 584.591C94.4648 585.228 94.9806 585.743 95.6168 585.743H125.569C126.205 585.743 126.721 585.228 126.721 584.591C126.721 583.955 126.205 583.439 125.569 583.439Z" fill="white"/>
<path d="M67.9682 597.264H13.8242V613.392H67.9682V597.264Z" fill="#333333"/>
<path d="M59.9042 604.176H14.9762C14.34 604.176 13.8242 604.692 13.8242 605.328C13.8242 605.964 14.34 606.48 14.9762 606.48H59.9042C60.5404 606.48 61.0562 605.964 61.0562 605.328C61.0562 604.692 60.5404 604.176 59.9042 604.176Z" fill="white"/>
<path d="M195.264 692.304H13.8242V694.608H195.264V692.304Z" fill="#0A0A0A"/>
<path d="M187.2 692.304H14.9762C14.34 692.304 13.8242 692.819 13.8242 693.456C13.8242 694.092 14.34 694.608 14.9762 694.608H187.2C187.836 694.608 188.352 694.092 188.352 693.456C188.352 692.819 187.836 692.304 187.2 692.304Z" fill="white"/>
<path d="M129.6 703.824H13.8242V706.128H129.6V703.824Z" fill="#0A0A0A"/>
<path d="M121.536 703.824H14.9762C14.34 703.824 13.8242 704.34 13.8242 704.976C13.8242 705.612 14.34 706.128 14.9762 706.128H121.536C122.172 706.128 122.688 705.612 122.688 704.976C122.688 704.34 122.172 703.824 121.536 703.824Z" fill="white"/>
<path d="M202.176 671.568H13.8242V673.872H202.176V671.568Z" fill="#F5F5F5"/>
<path d="M194.112 671.568H14.9762C14.34 671.568 13.8242 672.084 13.8242 672.72C13.8242 673.357 14.34 673.872 14.9762 673.872H194.112C194.748 673.872 195.264 673.357 195.264 672.72C195.264 672.084 194.748 671.568 194.112 671.568Z" fill="#F5F5F5"/>
<path d="M60.4806 640.464H18.4326C16.5239 640.464 14.9766 642.011 14.9766 643.92V655.44C14.9766 657.349 16.5239 658.896 18.4326 658.896H60.4806C62.3893 658.896 63.9366 657.349 63.9366 655.44V643.92C63.9366 642.011 62.3893 640.464 60.4806 640.464Z" fill="white" stroke="#0A0A0A" stroke-width="4"/>
<path d="M197.569 726.864H18.4326C16.5239 726.864 14.9766 728.412 14.9766 730.32V779.856C14.9766 781.765 16.5239 783.312 18.4326 783.312H197.569C199.477 783.312 201.025 781.765 201.025 779.856V730.32C201.025 728.412 199.477 726.864 197.569 726.864Z" fill="#0A0A0A"/>
<path d="M197.569 726.864H18.4326C16.5239 726.864 14.9766 728.412 14.9766 730.32V779.856C14.9766 781.765 16.5239 783.312 18.4326 783.312H197.569C199.477 783.312 201.025 781.765 201.025 779.856V730.32C201.025 728.412 199.477 726.864 197.569 726.864Z" stroke="#A1A0A3" stroke-width="4"/>
<path d="M197.569 799.439H18.4326C16.5239 799.439 14.9766 800.987 14.9766 802.895V852.431C14.9766 854.34 16.5239 855.887 18.4326 855.887H197.569C199.477 855.887 201.025 854.34 201.025 852.431V802.895C201.025 800.987 199.477 799.439 197.569 799.439Z" fill="#0A0A0A"/>
<path d="M197.569 799.439H18.4326C16.5239 799.439 14.9766 800.987 14.9766 802.895V852.431C14.9766 854.34 16.5239 855.887 18.4326 855.887H197.569C199.477 855.887 201.025 854.34 201.025 852.431V802.895C201.025 800.987 199.477 799.439 197.569 799.439Z" stroke="#A1A0A3" stroke-width="4"/>
<path d="M197.569 872.016H18.4326C16.5239 872.016 14.9766 873.563 14.9766 875.472V893.328C14.9766 895.236 16.5239 896.784 18.4326 896.784H197.569C199.477 896.784 201.025 895.236 201.025 893.328V875.472C201.025 873.563 199.477 872.016 197.569 872.016Z" fill="#0A0A0A"/>
<path d="M197.569 872.016H18.4326C16.5239 872.016 14.9766 873.563 14.9766 875.472V893.328C14.9766 895.236 16.5239 896.784 18.4326 896.784H197.569C199.477 896.784 201.025 895.236 201.025 893.328V875.472C201.025 873.563 199.477 872.016 197.569 872.016Z" stroke="#A1A0A3" stroke-width="4"/>
<path d="M122.688 737.808H24.7676V740.112H122.688V737.808Z" fill="#0A0A0A"/>
<path d="M114.624 737.808H25.9196C25.2833 737.808 24.7676 738.323 24.7676 738.96C24.7676 739.596 25.2833 740.112 25.9196 740.112H114.624C115.26 740.112 115.776 739.596 115.776 738.96C115.776 738.323 115.26 737.808 114.624 737.808Z" fill="white"/>
<path d="M122.688 810.384H24.7676V812.688H122.688V810.384Z" fill="#0A0A0A"/>
<path d="M114.624 810.384H25.9196C25.2833 810.384 24.7676 810.9 24.7676 811.536C24.7676 812.172 25.2833 812.688 25.9196 812.688H114.624C115.26 812.688 115.776 812.172 115.776 811.536C115.776 810.9 115.26 810.384 114.624 810.384Z" fill="white"/>
<path d="M122.688 882.96H24.7676V885.264H122.688V882.96Z" fill="#0A0A0A"/>
<path d="M114.624 882.96H25.9196C25.2833 882.96 24.7676 883.476 24.7676 884.112C24.7676 884.748 25.2833 885.264 25.9196 885.264H114.624C115.26 885.264 115.776 884.748 115.776 884.112C115.776 883.476 115.26 882.96 114.624 882.96Z" fill="white"/>
<path d="M111.744 908.88H13.8242V911.184H111.744V908.88Z" fill="#0A0A0A"/>
<path d="M103.68 908.88H14.9762C14.34 908.88 13.8242 909.396 13.8242 910.032C13.8242 910.668 14.34 911.184 14.9762 911.184H103.68C104.316 911.184 104.832 910.668 104.832 910.032C104.832 909.396 104.316 908.88 103.68 908.88Z" fill="white"/>
<path d="M188.352 760.271H24.7676V762.575H188.352V760.271Z" fill="#0A0A0A"/>
<path d="M180.288 760.271H25.9196C25.2833 760.271 24.7676 760.787 24.7676 761.423C24.7676 762.06 25.2833 762.575 25.9196 762.575H180.288C180.924 762.575 181.44 762.06 181.44 761.423C181.44 760.787 180.924 760.271 180.288 760.271Z" fill="white"/>
<path d="M188.352 832.848H24.7676V835.152H188.352V832.848Z" fill="#0A0A0A"/>
<path d="M180.288 832.848H25.9196C25.2833 832.848 24.7676 833.363 24.7676 834C24.7676 834.636 25.2833 835.152 25.9196 835.152H180.288C180.924 835.152 181.44 834.636 181.44 834C181.44 833.363 180.924 832.848 180.288 832.848Z" fill="white"/>
<path d="M157.824 771.792H24.7676V774.096H157.824V771.792Z" fill="#0A0A0A"/>
<path d="M149.76 771.792H25.9196C25.2833 771.792 24.7676 772.308 24.7676 772.944C24.7676 773.58 25.2833 774.096 25.9196 774.096H149.76C150.396 774.096 150.912 773.58 150.912 772.944C150.912 772.308 150.396 771.792 149.76 771.792Z" fill="white"/>
<path d="M157.824 844.368H24.7676V846.672H157.824V844.368Z" fill="#0A0A0A"/>
<path d="M149.76 844.368H25.9196C25.2833 844.368 24.7676 844.884 24.7676 845.52C24.7676 846.156 25.2833 846.672 25.9196 846.672H149.76C150.396 846.672 150.912 846.156 150.912 845.52C150.912 844.884 150.396 844.368 149.76 844.368Z" fill="white"/>
<path d="M197.569 931.92H18.4326C16.5239 931.92 14.9766 933.467 14.9766 935.376V955.536C14.9766 957.445 16.5239 958.992 18.4326 958.992H197.569C199.477 958.992 201.025 957.445 201.025 955.536V935.376C201.025 933.467 199.477 931.92 197.569 931.92Z" fill="white"/>
<path d="M197.569 931.92H18.4326C16.5239 931.92 14.9766 933.467 14.9766 935.376V955.536C14.9766 957.445 16.5239 958.992 18.4326 958.992H197.569C199.477 958.992 201.025 957.445 201.025 955.536V935.376C201.025 933.467 199.477 931.92 197.569 931.92Z" stroke="#0A0A0A" stroke-width="4"/>
<path d="M197.568 510.864H18.4323C8.88886 510.864 1.15234 518.601 1.15234 528.144V958.992C1.15234 968.536 8.88886 976.272 18.4323 976.272H197.568C207.112 976.272 214.848 968.536 214.848 958.992V528.144C214.848 518.601 207.112 510.864 197.568 510.864Z" stroke="white" stroke-width="2"/>
</g>
<g clip-path="url(#clip4_1082_13230)">
<path d="M276.432 511.364H455.568C464.836 511.364 472.348 518.877 472.348 528.144V958.992C472.348 968.26 464.836 975.772 455.568 975.772H276.432C267.165 975.772 259.652 968.26 259.652 958.992V528.144C259.652 518.877 267.165 511.364 276.432 511.364Z" fill="#0A0A0A" stroke="white"/>
<path d="M474 625.488H258V527.856L262.32 517.2L267.504 512.88L273.552 509.712H276.72H457.008L462.48 513.079L469.392 516.912L474 524.976V625.488Z" fill="#333333"/>
<path d="M340.945 522.96H339.793" stroke="white" stroke-width="4" stroke-linecap="round"/>
<path d="M350.736 522.96H386.448" stroke="white" stroke-width="4" stroke-linecap="round"/>
<path d="M455.567 540.815H442.895C440.987 540.815 439.439 542.363 439.439 544.271V555.791C439.439 557.7 440.987 559.247 442.895 559.247H455.567C457.476 559.247 459.023 557.7 459.023 555.791V544.271C459.023 542.363 457.476 540.815 455.567 540.815Z" fill="white" stroke="white" stroke-width="4"/>
<path d="M455.567 641.04H442.895C440.987 641.04 439.439 642.587 439.439 644.496V656.016C439.439 657.925 440.987 659.472 442.895 659.472H455.567C457.476 659.472 459.023 657.925 459.023 656.016V644.496C459.023 642.587 457.476 641.04 455.567 641.04Z" fill="white" stroke="white" stroke-width="4"/>
<path d="M289.105 540.815H276.433C274.524 540.815 272.977 542.363 272.977 544.271V555.791C272.977 557.7 274.524 559.247 276.433 559.247H289.105C291.013 559.247 292.561 557.7 292.561 555.791V544.271C292.561 542.363 291.013 540.815 289.105 540.815Z" fill="white" stroke="white" stroke-width="4"/>
<path d="M325.968 576.528H271.824V592.656H325.968V576.528Z" fill="#333333"/>
<path d="M272.976 583.939H317.904C318.264 583.939 318.556 584.231 318.556 584.591C318.556 584.952 318.264 585.243 317.904 585.243H272.976C272.616 585.243 272.324 584.952 272.324 584.591C272.324 584.231 272.616 583.939 272.976 583.939Z" fill="white" stroke="white"/>
<path d="M325.968 597.264H271.824V613.392H325.968V597.264Z" fill="#333333"/>
<path d="M272.976 604.676H317.904C318.264 604.676 318.556 604.968 318.556 605.328C318.556 605.688 318.264 605.98 317.904 605.98H272.976C272.616 605.98 272.324 605.688 272.324 605.328C272.324 604.968 272.616 604.676 272.976 604.676Z" fill="white" stroke="white"/>
<path d="M281.041 690.576H319.057C323.51 690.576 327.121 694.187 327.121 698.64V734.352C327.121 738.806 323.51 742.416 319.057 742.416H281.041C276.587 742.416 272.977 738.806 272.977 734.352V698.64C272.977 694.187 276.587 690.576 281.041 690.576Z" fill="white" stroke="#0A0A0A" stroke-width="4"/>
<path d="M309.84 715.344C309.84 721.07 305.198 725.712 299.472 725.712C293.745 725.712 289.104 721.07 289.104 715.344C289.104 709.618 293.745 704.976 299.472 704.976C305.198 704.976 309.84 709.618 309.84 715.344Z" fill="white" stroke="#0A0A0A" stroke-width="4"/>
<path d="M281.041 753.936H319.057C323.51 753.936 327.121 757.546 327.121 762V797.712C327.121 802.165 323.51 805.776 319.057 805.776H281.041C276.587 805.776 272.977 802.165 272.977 797.712V762C272.977 757.546 276.587 753.936 281.041 753.936Z" fill="white" stroke="#0A0A0A" stroke-width="4"/>
<path d="M309.84 778.704C309.84 784.43 305.198 789.072 299.472 789.072C293.745 789.072 289.104 784.43 289.104 778.704C289.104 772.978 293.745 768.336 299.472 768.336C305.198 768.336 309.84 772.978 309.84 778.704Z" fill="white" stroke="#0A0A0A" stroke-width="4"/>
<path d="M385.872 643.344H271.824V659.472H385.872V643.344Z" fill="#0A0A0A"/>
<path d="M377.808 650.256H272.976C272.34 650.256 271.824 650.772 271.824 651.408C271.824 652.044 272.34 652.56 272.976 652.56H377.808C378.444 652.56 378.96 652.044 378.96 651.408C378.96 650.772 378.444 650.256 377.808 650.256Z" fill="white"/>
<path d="M433.68 717.647H337.488V733.775H433.68V717.647Z" fill="#0A0A0A"/>
<path d="M425.616 724.56H338.64C338.004 724.56 337.488 725.075 337.488 725.712C337.488 726.348 338.004 726.864 338.64 726.864H425.616C426.253 726.864 426.768 726.348 426.768 725.712C426.768 725.075 426.253 724.56 425.616 724.56Z" fill="white"/>
<path d="M433.68 781.008H337.488V797.136H433.68V781.008Z" fill="#0A0A0A"/>
<path d="M425.616 787.92H338.64C338.004 787.92 337.488 788.436 337.488 789.072C337.488 789.708 338.004 790.224 338.64 790.224H425.616C426.253 790.224 426.768 789.708 426.768 789.072C426.768 788.436 426.253 787.92 425.616 787.92Z" fill="white"/>
<path d="M460.176 882.384H271.824V898.512H460.176V882.384Z" fill="#0A0A0A"/>
<path d="M452.112 889.296H272.976C272.34 889.296 271.824 889.812 271.824 890.448C271.824 891.084 272.34 891.6 272.976 891.6H452.112C452.748 891.6 453.264 891.084 453.264 890.448C453.264 889.812 452.748 889.296 452.112 889.296Z" fill="white"/>
<path d="M369.168 699.216H337.488V715.344H369.168V699.216Z" fill="#0A0A0A"/>
<path d="M361.104 706.128H338.64C338.004 706.128 337.488 706.644 337.488 707.28C337.488 707.916 338.004 708.432 338.64 708.432H361.104C361.741 708.432 362.256 707.916 362.256 707.28C362.256 706.644 361.741 706.128 361.104 706.128Z" fill="white"/>
<path d="M369.168 762.576H337.488V778.704H369.168V762.576Z" fill="#0A0A0A"/>
<path d="M361.104 769.488H338.64C338.004 769.488 337.488 770.004 337.488 770.64C337.488 771.277 338.004 771.792 338.64 771.792H361.104C361.741 771.792 362.256 771.277 362.256 770.64C362.256 770.004 361.741 769.488 361.104 769.488Z" fill="white"/>
<path d="M357.649 920.4H276.433C274.524 920.4 272.977 921.948 272.977 923.856V942.288C272.977 944.197 274.524 945.744 276.433 945.744H357.649C359.557 945.744 361.105 944.197 361.105 942.288V923.856C361.105 921.948 359.557 920.4 357.649 920.4Z" fill="white"/>
<path d="M357.649 920.4H276.433C274.524 920.4 272.977 921.948 272.977 923.856V942.288C272.977 944.197 274.524 945.744 276.433 945.744H357.649C359.557 945.744 361.105 944.197 361.105 942.288V923.856C361.105 921.948 359.557 920.4 357.649 920.4Z" stroke="#0A0A0A" stroke-width="4"/>
<path d="M455.568 920.4H374.352C372.444 920.4 370.896 921.948 370.896 923.856V942.288C370.896 944.197 372.444 945.744 374.352 945.744H455.568C457.477 945.744 459.024 944.197 459.024 942.288V923.856C459.024 921.948 457.477 920.4 455.568 920.4Z" fill="#A1A0A3"/>
<path d="M455.568 920.4H374.352C372.444 920.4 370.896 921.948 370.896 923.856V942.288C370.896 944.197 372.444 945.744 374.352 945.744H455.568C457.477 945.744 459.024 944.197 459.024 942.288V923.856C459.024 921.948 457.477 920.4 455.568 920.4Z" fill="white" stroke="#0A0A0A" stroke-width="4"/>
<path d="M455.568 510.864H276.432C266.889 510.864 259.152 518.601 259.152 528.144V958.992C259.152 968.536 266.889 976.272 276.432 976.272H455.568C465.112 976.272 472.848 968.536 472.848 958.992V528.144C472.848 518.601 465.112 510.864 455.568 510.864Z" stroke="white" stroke-width="2"/>
</g>
<g clip-path="url(#clip5_1082_13230)">
<path d="M713.568 510.864H534.432C524.889 510.864 517.152 518.601 517.152 528.144V958.992C517.152 968.536 524.889 976.272 534.432 976.272H713.568C723.112 976.272 730.848 968.536 730.848 958.992V528.144C730.848 518.601 723.112 510.864 713.568 510.864Z" fill="#0A0A0A"/>
<path d="M732 509.712H516V625.488H732V509.712Z" fill="#333333"/>
<path d="M598.945 522.96H597.793" stroke="white" stroke-width="4" stroke-linecap="round"/>
<path d="M608.736 522.96H644.448" stroke="white" stroke-width="4" stroke-linecap="round"/>
<path d="M713.567 540.815H700.895C698.987 540.815 697.439 542.363 697.439 544.271V555.791C697.439 557.7 698.987 559.247 700.895 559.247H713.567C715.476 559.247 717.023 557.7 717.023 555.791V544.271C717.023 542.363 715.476 540.815 713.567 540.815Z" fill="white" stroke="white" stroke-width="4"/>
<path d="M547.105 540.815H534.433C532.524 540.815 530.977 542.363 530.977 544.271V555.791C530.977 557.7 532.524 559.247 534.433 559.247H547.105C549.013 559.247 550.561 557.7 550.561 555.791V544.271C550.561 542.363 549.013 540.815 547.105 540.815Z" fill="white" stroke="white" stroke-width="4"/>
<path d="M568.992 576.528H529.824V592.656H568.992V576.528Z" fill="#333333"/>
<path d="M560.928 583.439H530.976C530.34 583.439 529.824 583.955 529.824 584.591C529.824 585.228 530.34 585.743 530.976 585.743H560.928C561.564 585.743 562.08 585.228 562.08 584.591C562.08 583.955 561.564 583.439 560.928 583.439Z" fill="white"/>
<path d="M609.313 576.528H570.145V592.656H609.313V576.528Z" fill="#333333"/>
<path d="M601.249 583.439H571.297C570.66 583.439 570.145 583.955 570.145 584.591C570.145 585.228 570.66 585.743 571.297 585.743H601.249C601.885 585.743 602.401 585.228 602.401 584.591C602.401 583.955 601.885 583.439 601.249 583.439Z" fill="white"/>
<path d="M649.633 576.528H610.465V592.656H649.633V576.528Z" fill="#333333"/>
<path d="M641.569 583.439H611.617C610.981 583.439 610.465 583.955 610.465 584.591C610.465 585.228 610.981 585.743 611.617 585.743H641.569C642.205 585.743 642.721 585.228 642.721 584.591C642.721 583.955 642.205 583.439 641.569 583.439Z" fill="white"/>
<path d="M583.968 597.264H529.824V613.392H583.968V597.264Z" fill="#333333"/>
<path d="M575.904 604.176H530.976C530.34 604.176 529.824 604.692 529.824 605.328C529.824 605.964 530.34 606.48 530.976 606.48H575.904C576.54 606.48 577.056 605.964 577.056 605.328C577.056 604.692 576.54 604.176 575.904 604.176Z" fill="white"/>
<path d="M711.264 692.304H529.824V694.608H711.264V692.304Z" fill="#0A0A0A"/>
<path d="M703.2 692.304H530.976C530.34 692.304 529.824 692.819 529.824 693.456C529.824 694.092 530.34 694.608 530.976 694.608H703.2C703.836 694.608 704.352 694.092 704.352 693.456C704.352 692.819 703.836 692.304 703.2 692.304Z" fill="white"/>
<path d="M645.6 703.824H529.824V706.128H645.6V703.824Z" fill="#0A0A0A"/>
<path d="M637.536 703.824H530.976C530.34 703.824 529.824 704.34 529.824 704.976C529.824 705.612 530.34 706.128 530.976 706.128H637.536C638.172 706.128 638.688 705.612 638.688 704.976C638.688 704.34 638.172 703.824 637.536 703.824Z" fill="white"/>
<path d="M583.395 651.984H530.397C530.081 651.984 529.824 652.5 529.824 653.136C529.824 653.773 530.081 654.288 530.397 654.288H583.395C583.712 654.288 583.968 653.773 583.968 653.136C583.968 652.5 583.712 651.984 583.395 651.984Z" fill="white"/>
<path d="M710.112 671.568H530.976C530.34 671.568 529.824 672.084 529.824 672.72C529.824 673.357 530.34 673.872 530.976 673.872H710.112C710.748 673.872 711.264 673.357 711.264 672.72C711.264 672.084 710.748 671.568 710.112 671.568Z" fill="#3E3E3E"/>
<path d="M713.569 889.296H534.433C532.524 889.296 530.977 890.843 530.977 892.752V910.608C530.977 912.517 532.524 914.064 534.433 914.064H713.569C715.477 914.064 717.025 912.517 717.025 910.608V892.752C717.025 890.843 715.477 889.296 713.569 889.296Z" fill="#0A0A0A"/>
<path d="M713.569 889.296H534.433C532.524 889.296 530.977 890.843 530.977 892.752V910.608C530.977 912.517 532.524 914.064 534.433 914.064H713.569C715.477 914.064 717.025 912.517 717.025 910.608V892.752C717.025 890.843 715.477 889.296 713.569 889.296Z" stroke="#A1A0A3" stroke-width="4"/>
<path d="M713.569 848.976H534.433C532.524 848.976 530.977 850.523 530.977 852.432V870.288C530.977 872.196 532.524 873.744 534.433 873.744H713.569C715.477 873.744 717.025 872.196 717.025 870.288V852.432C717.025 850.523 715.477 848.976 713.569 848.976Z" fill="#0A0A0A"/>
<path d="M713.569 848.976H534.433C532.524 848.976 530.977 850.523 530.977 852.432V870.288C530.977 872.196 532.524 873.744 534.433 873.744H713.569C715.477 873.744 717.025 872.196 717.025 870.288V852.432C717.025 850.523 715.477 848.976 713.569 848.976Z" stroke="#A1A0A3" stroke-width="4"/>
<path d="M713.569 808.656H534.433C532.524 808.656 530.977 810.204 530.977 812.112V829.968C530.977 831.877 532.524 833.424 534.433 833.424H713.569C715.477 833.424 717.025 831.877 717.025 829.968V812.112C717.025 810.204 715.477 808.656 713.569 808.656Z" fill="#0A0A0A"/>
<path d="M713.569 808.656H534.433C532.524 808.656 530.977 810.204 530.977 812.112V829.968C530.977 831.877 532.524 833.424 534.433 833.424H713.569C715.477 833.424 717.025 831.877 717.025 829.968V812.112C717.025 810.204 715.477 808.656 713.569 808.656Z" stroke="#A1A0A3" stroke-width="4"/>
<path d="M713.569 768.336H534.433C532.524 768.336 530.977 769.883 530.977 771.792V789.648C530.977 791.557 532.524 793.104 534.433 793.104H713.569C715.477 793.104 717.025 791.557 717.025 789.648V771.792C717.025 769.883 715.477 768.336 713.569 768.336Z" fill="#0A0A0A"/>
<path d="M713.569 768.336H534.433C532.524 768.336 530.977 769.883 530.977 771.792V789.648C530.977 791.557 532.524 793.104 534.433 793.104H713.569C715.477 793.104 717.025 791.557 717.025 789.648V771.792C717.025 769.883 715.477 768.336 713.569 768.336Z" stroke="#A1A0A3" stroke-width="4"/>
<path d="M713.569 728.016H534.433C532.524 728.016 530.977 729.563 530.977 731.472V749.328C530.977 751.236 532.524 752.784 534.433 752.784H713.569C715.477 752.784 717.025 751.236 717.025 749.328V731.472C717.025 729.563 715.477 728.016 713.569 728.016Z" fill="#0A0A0A"/>
<path d="M713.569 728.016H534.433C532.524 728.016 530.977 729.563 530.977 731.472V749.328C530.977 751.236 532.524 752.784 534.433 752.784H713.569C715.477 752.784 717.025 751.236 717.025 749.328V731.472C717.025 729.563 715.477 728.016 713.569 728.016Z" stroke="#A1A0A3" stroke-width="4"/>
<path d="M638.688 900.24H540.768V902.544H638.688V900.24Z" fill="#0A0A0A"/>
<path d="M630.624 900.24H541.92C541.283 900.24 540.768 900.756 540.768 901.392C540.768 902.028 541.283 902.544 541.92 902.544H630.624C631.26 902.544 631.776 902.028 631.776 901.392C631.776 900.756 631.26 900.24 630.624 900.24Z" fill="white"/>
<path d="M638.688 859.92H540.768V862.224H638.688V859.92Z" fill="#0A0A0A"/>
<path d="M630.624 859.92H541.92C541.283 859.92 540.768 860.436 540.768 861.072C540.768 861.708 541.283 862.224 541.92 862.224H630.624C631.26 862.224 631.776 861.708 631.776 861.072C631.776 860.436 631.26 859.92 630.624 859.92Z" fill="white"/>
<path d="M638.688 819.6H540.768V821.904H638.688V819.6Z" fill="#0A0A0A"/>
<path d="M630.624 819.6H541.92C541.283 819.6 540.768 820.115 540.768 820.752C540.768 821.388 541.283 821.904 541.92 821.904H630.624C631.26 821.904 631.776 821.388 631.776 820.752C631.776 820.115 631.26 819.6 630.624 819.6Z" fill="white"/>
<path d="M638.688 779.28H540.768V781.584H638.688V779.28Z" fill="#0A0A0A"/>
<path d="M630.624 779.28H541.92C541.283 779.28 540.768 779.796 540.768 780.432C540.768 781.069 541.283 781.584 541.92 781.584H630.624C631.26 781.584 631.776 781.069 631.776 780.432C631.776 779.796 631.26 779.28 630.624 779.28Z" fill="white"/>
<path d="M638.688 738.96H540.768V741.264H638.688V738.96Z" fill="#0A0A0A"/>
<path d="M630.624 738.96H541.92C541.283 738.96 540.768 739.476 540.768 740.112C540.768 740.748 541.283 741.264 541.92 741.264H630.624C631.26 741.264 631.776 740.748 631.776 740.112C631.776 739.476 631.26 738.96 630.624 738.96Z" fill="white"/>
<path d="M713.569 931.92H534.433C532.524 931.92 530.977 933.467 530.977 935.376V955.536C530.977 957.445 532.524 958.992 534.433 958.992H713.569C715.477 958.992 717.025 957.445 717.025 955.536V935.376C717.025 933.467 715.477 931.92 713.569 931.92Z" fill="#A1A0A3"/>
<path d="M713.569 931.92H534.433C532.524 931.92 530.977 933.467 530.977 935.376V955.536C530.977 957.445 532.524 958.992 534.433 958.992H713.569C715.477 958.992 717.025 957.445 717.025 955.536V935.376C717.025 933.467 715.477 931.92 713.569 931.92Z" stroke="#0A0A0A" stroke-width="4"/>
<path d="M713.568 510.864H534.432C524.889 510.864 517.152 518.601 517.152 528.144V958.992C517.152 968.536 524.889 976.272 534.432 976.272H713.568C723.112 976.272 730.848 968.536 730.848 958.992V528.144C730.848 518.601 723.112 510.864 713.568 510.864Z" stroke="white" stroke-width="2"/>
</g>
<defs>
<clipPath id="clip0_1082_13230">
<rect width="216" height="467.712" fill="white"/>
</clipPath>
<clipPath id="clip1_1082_13230">
<rect width="216" height="467.712" fill="white" transform="translate(258)"/>
</clipPath>
<clipPath id="clip2_1082_13230">
<rect width="216" height="467.712" fill="white" transform="translate(516)"/>
</clipPath>
<clipPath id="clip3_1082_13230">
<rect width="216" height="467.712" fill="white" transform="translate(0 509.712)"/>
</clipPath>
<clipPath id="clip4_1082_13230">
<rect width="216" height="467.712" fill="white" transform="translate(258 509.712)"/>
</clipPath>
<clipPath id="clip5_1082_13230">
<rect width="216" height="467.712" fill="white" transform="translate(516 509.712)"/>
</clipPath>
</defs>
</svg>
