<svg width="528" height="233" viewBox="0 0 758 232" fill="none" xmlns="http://www.w3.org/2000/svg">
<path d="M22.6278 116H2.85511L32.983 28.7273H56.7614L86.8466 116H67.0739L45.2131 48.6705H44.5312L22.6278 116ZM21.392 81.696H68.0966V96.0994H21.392V81.696ZM115.675 117.236C111.499 117.236 107.777 116.511 104.51 115.062C101.243 113.585 98.6577 111.412 96.7543 108.543C94.8793 105.645 93.9418 102.037 93.9418 97.7188C93.9418 94.0824 94.6094 91.0284 95.9446 88.5568C97.2798 86.0852 99.098 84.0966 101.399 82.5909C103.7 81.0852 106.314 79.9489 109.24 79.1818C112.195 78.4148 115.291 77.875 118.53 77.5625C122.337 77.1648 125.405 76.7955 127.734 76.4545C130.064 76.0852 131.754 75.5455 132.805 74.8352C133.857 74.125 134.382 73.0739 134.382 71.6818V71.4261C134.382 68.7273 133.53 66.6392 131.825 65.1619C130.149 63.6847 127.763 62.946 124.666 62.946C121.399 62.946 118.8 63.6705 116.868 65.1193C114.936 66.5398 113.658 68.3295 113.033 70.4886L96.2429 69.125C97.0952 65.1477 98.7713 61.7102 101.271 58.8125C103.771 55.8864 106.996 53.642 110.945 52.0795C114.922 50.4886 119.524 49.6932 124.751 49.6932C128.388 49.6932 131.868 50.1193 135.192 50.9716C138.544 51.8239 141.513 53.1449 144.098 54.9347C146.712 56.7244 148.771 59.0256 150.277 61.8381C151.783 64.6222 152.536 67.9602 152.536 71.8523V116H135.32V106.923H134.808C133.757 108.969 132.351 110.773 130.589 112.335C128.828 113.869 126.712 115.077 124.24 115.957C121.768 116.81 118.913 117.236 115.675 117.236ZM120.874 104.707C123.544 104.707 125.902 104.182 127.947 103.131C129.993 102.051 131.598 100.602 132.763 98.7841C133.928 96.9659 134.51 94.9062 134.51 92.6051V85.6591C133.942 86.0284 133.161 86.3693 132.166 86.6818C131.2 86.9659 130.107 87.2358 128.885 87.4915C127.663 87.7187 126.442 87.9318 125.22 88.1307C123.999 88.3011 122.891 88.4574 121.896 88.5994C119.766 88.9119 117.905 89.4091 116.314 90.0909C114.723 90.7727 113.487 91.696 112.607 92.8608C111.726 93.9972 111.286 95.4176 111.286 97.1222C111.286 99.5938 112.18 101.483 113.97 102.79C115.788 104.068 118.089 104.707 120.874 104.707Z" fill="#D7DBE2"/>
<path d="M230.295 67.5V44.2273H245.205V47.7614H234.511V54.0795H244.182V57.6136H234.511V67.5H230.295ZM255.196 67.8409C253.491 67.8409 252.014 67.4659 250.764 66.7159C249.514 65.9659 248.545 64.9167 247.855 63.5682C247.173 62.2197 246.832 60.6439 246.832 58.8409C246.832 57.0379 247.173 55.4583 247.855 54.1023C248.545 52.7462 249.514 51.6932 250.764 50.9432C252.014 50.1932 253.491 49.8182 255.196 49.8182C256.901 49.8182 258.378 50.1932 259.628 50.9432C260.878 51.6932 261.844 52.7462 262.526 54.1023C263.215 55.4583 263.56 57.0379 263.56 58.8409C263.56 60.6439 263.215 62.2197 262.526 63.5682C261.844 64.9167 260.878 65.9659 259.628 66.7159C258.378 67.4659 256.901 67.8409 255.196 67.8409ZM255.219 64.5455C256.143 64.5455 256.916 64.2917 257.537 63.7841C258.158 63.2689 258.62 62.5795 258.923 61.7159C259.234 60.8523 259.389 59.8902 259.389 58.8295C259.389 57.7614 259.234 56.7955 258.923 55.9318C258.62 55.0606 258.158 54.3674 257.537 53.8523C256.916 53.3371 256.143 53.0795 255.219 53.0795C254.272 53.0795 253.484 53.3371 252.855 53.8523C252.234 54.3674 251.768 55.0606 251.457 55.9318C251.154 56.7955 251.003 57.7614 251.003 58.8295C251.003 59.8902 251.154 60.8523 251.457 61.7159C251.768 62.5795 252.234 63.2689 252.855 63.7841C253.484 64.2917 254.272 64.5455 255.219 64.5455ZM271.165 57.2727V67.5H267.051V50.0455H270.983V53.0114H271.188C271.589 52.0341 272.229 51.2576 273.108 50.6818C273.994 50.1061 275.089 49.8182 276.392 49.8182C277.597 49.8182 278.646 50.0758 279.54 50.5909C280.441 51.1061 281.138 51.8523 281.631 52.8295C282.131 53.8068 282.377 54.9924 282.369 56.3864V67.5H278.256V57.0227C278.256 55.8561 277.953 54.9432 277.347 54.2841C276.748 53.625 275.919 53.2955 274.858 53.2955C274.138 53.2955 273.498 53.4545 272.938 53.7727C272.384 54.0833 271.949 54.5341 271.631 55.125C271.32 55.7159 271.165 56.4318 271.165 57.2727ZM295.267 50.0455V53.2273H285.233V50.0455H295.267ZM287.71 45.8636H291.824V62.25C291.824 62.803 291.907 63.2273 292.074 63.5227C292.248 63.8106 292.475 64.0076 292.756 64.1136C293.036 64.2197 293.347 64.2727 293.688 64.2727C293.945 64.2727 294.18 64.2538 294.392 64.2159C294.612 64.178 294.778 64.1439 294.892 64.1136L295.585 67.3295C295.366 67.4053 295.051 67.4886 294.642 67.5795C294.241 67.6705 293.748 67.7235 293.165 67.7386C292.134 67.7689 291.206 67.6136 290.381 67.2727C289.555 66.9242 288.9 66.3864 288.415 65.6591C287.938 64.9318 287.703 64.0227 287.71 62.9318V45.8636Z" fill="white"/>
<path d="M232.551 84.0455V101.5H229.918V84.0455H232.551ZM238.25 93.7273V101.5H235.702V88.4091H238.148V90.5398H238.31C238.611 89.8466 239.083 89.2898 239.725 88.8693C240.372 88.4489 241.188 88.2386 242.171 88.2386C243.063 88.2386 243.844 88.4261 244.514 88.8011C245.185 89.1705 245.705 89.7216 246.074 90.4545C246.443 91.1875 246.628 92.0937 246.628 93.1733V101.5H244.08V93.4801C244.08 92.5312 243.833 91.7898 243.338 91.2557C242.844 90.7159 242.165 90.446 241.301 90.446C240.71 90.446 240.185 90.5739 239.725 90.8295C239.27 91.0852 238.909 91.4602 238.642 91.9545C238.381 92.4432 238.25 93.0341 238.25 93.7273ZM255.676 88.4091V90.4545H248.526V88.4091H255.676ZM250.443 85.2727H252.992V97.6562C252.992 98.1506 253.066 98.5227 253.213 98.7727C253.361 99.017 253.551 99.1847 253.784 99.2756C254.023 99.3608 254.281 99.4034 254.56 99.4034C254.764 99.4034 254.943 99.3892 255.097 99.3608C255.25 99.3324 255.37 99.3097 255.455 99.2926L255.915 101.398C255.767 101.455 255.557 101.511 255.284 101.568C255.012 101.631 254.671 101.665 254.262 101.67C253.591 101.682 252.966 101.562 252.387 101.312C251.807 101.062 251.338 100.676 250.98 100.153C250.622 99.6307 250.443 98.9744 250.443 98.1847V85.2727ZM263.517 101.764C262.227 101.764 261.116 101.489 260.184 100.938C259.258 100.381 258.542 99.5994 258.037 98.5938C257.537 97.5824 257.287 96.3977 257.287 95.0398C257.287 93.6989 257.537 92.517 258.037 91.4943C258.542 90.4716 259.247 89.6733 260.15 89.0994C261.059 88.5256 262.122 88.2386 263.338 88.2386C264.076 88.2386 264.792 88.3608 265.485 88.6051C266.179 88.8494 266.801 89.233 267.352 89.7557C267.903 90.2784 268.338 90.9574 268.656 91.7926C268.974 92.6222 269.133 93.6307 269.133 94.8182V95.7216H258.727V93.8125H266.636C266.636 93.142 266.5 92.5483 266.227 92.0312C265.954 91.5085 265.571 91.0966 265.076 90.7955C264.588 90.4943 264.014 90.3438 263.355 90.3438C262.639 90.3438 262.014 90.5199 261.48 90.8722C260.951 91.2187 260.542 91.6733 260.252 92.2358C259.968 92.7926 259.826 93.3977 259.826 94.0511V95.5426C259.826 96.4176 259.98 97.1619 260.287 97.7756C260.599 98.3892 261.034 98.858 261.591 99.1818C262.147 99.5 262.798 99.6591 263.542 99.6591C264.025 99.6591 264.466 99.5909 264.863 99.4545C265.261 99.3125 265.605 99.1023 265.895 98.8239C266.184 98.5455 266.406 98.2017 266.559 97.7926L268.971 98.2273C268.778 98.9375 268.431 99.5597 267.931 100.094C267.437 100.622 266.815 101.034 266.065 101.33C265.321 101.619 264.471 101.764 263.517 101.764ZM271.481 101.5V88.4091H273.944V90.4886H274.08C274.319 89.7841 274.739 89.2301 275.341 88.8267C275.949 88.4176 276.637 88.2131 277.404 88.2131C277.563 88.2131 277.75 88.2187 277.966 88.2301C278.188 88.2415 278.361 88.2557 278.486 88.2727V90.7102C278.384 90.6818 278.202 90.6506 277.941 90.6165C277.679 90.5767 277.418 90.5568 277.157 90.5568C276.554 90.5568 276.018 90.6847 275.546 90.9403C275.08 91.1903 274.711 91.5398 274.438 91.9886C274.165 92.4318 274.029 92.9375 274.029 93.5057V101.5H271.481Z" fill="#E4E7EC"/>
<rect y="166" width="132" height="66" rx="12" fill="#1E1E1E"/>
<rect x="20" y="174" width="46" height="50" rx="10" fill="#383838"/>
<path d="M31.5256 208H27.571L33.5966 190.545H38.3523L44.3693 208H40.4148L36.0426 194.534H35.9062L31.5256 208ZM31.2784 201.139H40.6193V204.02H31.2784V201.139ZM49.6549 208.247C48.8197 208.247 48.0754 208.102 47.422 207.812C46.7686 207.517 46.2515 207.082 45.8709 206.509C45.4959 205.929 45.3084 205.207 45.3084 204.344C45.3084 203.616 45.4419 203.006 45.7089 202.511C45.976 202.017 46.3396 201.619 46.7998 201.318C47.2601 201.017 47.7828 200.79 48.368 200.636C48.9589 200.483 49.5782 200.375 50.226 200.312C50.9873 200.233 51.601 200.159 52.0669 200.091C52.5328 200.017 52.8709 199.909 53.0811 199.767C53.2913 199.625 53.3964 199.415 53.3964 199.136V199.085C53.3964 198.545 53.226 198.128 52.8851 197.832C52.5498 197.537 52.0726 197.389 51.4532 197.389C50.7998 197.389 50.2799 197.534 49.8936 197.824C49.5072 198.108 49.2515 198.466 49.1265 198.898L45.7686 198.625C45.939 197.83 46.2743 197.142 46.7743 196.562C47.2743 195.977 47.9191 195.528 48.7089 195.216C49.5044 194.898 50.4248 194.739 51.4703 194.739C52.1976 194.739 52.8936 194.824 53.5584 194.994C54.2288 195.165 54.8226 195.429 55.3396 195.787C55.8623 196.145 56.2743 196.605 56.5754 197.168C56.8765 197.724 57.0271 198.392 57.0271 199.17V208H53.5839V206.185H53.4816C53.2714 206.594 52.9902 206.955 52.6379 207.267C52.2856 207.574 51.8623 207.815 51.368 207.991C50.8737 208.162 50.3027 208.247 49.6549 208.247ZM50.6947 205.741C51.2288 205.741 51.7004 205.636 52.1095 205.426C52.5186 205.21 52.8396 204.92 53.0726 204.557C53.3055 204.193 53.422 203.781 53.422 203.321V201.932C53.3084 202.006 53.1521 202.074 52.9532 202.136C52.7601 202.193 52.5413 202.247 52.297 202.298C52.0527 202.344 51.8084 202.386 51.564 202.426C51.3197 202.46 51.0981 202.491 50.8993 202.52C50.4731 202.582 50.101 202.682 49.7828 202.818C49.4646 202.955 49.2174 203.139 49.0413 203.372C48.8652 203.599 48.7771 203.884 48.7771 204.224C48.7771 204.719 48.9561 205.097 49.314 205.358C49.6777 205.614 50.1379 205.741 50.6947 205.741Z" fill="#F2F3F5"/>
<path d="M80.2557 182.364V194H78.1477V182.364H80.2557ZM84.1843 188.886V194H82.1274V185.273H84.0934V186.756H84.1956C84.3964 186.267 84.7165 185.879 85.1559 185.591C85.599 185.303 86.1464 185.159 86.7979 185.159C87.4002 185.159 87.9248 185.288 88.3718 185.545C88.8225 185.803 89.171 186.176 89.4172 186.665C89.6672 187.153 89.7903 187.746 89.7865 188.443V194H87.7297V188.761C87.7297 188.178 87.5782 187.722 87.2752 187.392C86.9759 187.062 86.5612 186.898 86.0309 186.898C85.671 186.898 85.3509 186.977 85.0706 187.136C84.7941 187.292 84.5763 187.517 84.4172 187.812C84.2619 188.108 84.1843 188.466 84.1843 188.886ZM95.9154 185.273V186.864H90.8984V185.273H95.9154ZM92.137 183.182H94.1938V191.375C94.1938 191.652 94.2355 191.864 94.3188 192.011C94.4059 192.155 94.5196 192.254 94.6597 192.307C94.7999 192.36 94.9552 192.386 95.1256 192.386C95.2544 192.386 95.3718 192.377 95.4779 192.358C95.5877 192.339 95.6711 192.322 95.7279 192.307L96.0745 193.915C95.9646 193.953 95.8074 193.994 95.6029 194.04C95.4021 194.085 95.1559 194.112 94.8643 194.119C94.3491 194.134 93.8851 194.057 93.4722 193.886C93.0593 193.712 92.7317 193.443 92.4893 193.08C92.2506 192.716 92.1332 192.261 92.137 191.716V183.182ZM101.085 194.17C100.21 194.17 99.4548 193.989 98.8184 193.625C98.1858 193.258 97.6991 192.739 97.3582 192.068C97.0173 191.394 96.8468 190.6 96.8468 189.688C96.8468 188.79 97.0173 188.002 97.3582 187.324C97.7029 186.642 98.1839 186.112 98.8014 185.733C99.4188 185.35 100.144 185.159 100.978 185.159C101.515 185.159 102.023 185.246 102.5 185.42C102.981 185.591 103.406 185.856 103.773 186.216C104.144 186.576 104.436 187.034 104.648 187.591C104.86 188.144 104.966 188.803 104.966 189.568V190.199H97.8127V188.812H102.995C102.991 188.419 102.906 188.068 102.739 187.761C102.572 187.451 102.339 187.206 102.04 187.028C101.745 186.85 101.4 186.761 101.006 186.761C100.585 186.761 100.216 186.864 99.898 187.068C99.5798 187.269 99.3317 187.534 99.1536 187.864C98.9794 188.189 98.8904 188.547 98.8866 188.938V190.148C98.8866 190.655 98.9794 191.091 99.165 191.455C99.3506 191.814 99.6101 192.091 99.9434 192.284C100.277 192.473 100.667 192.568 101.114 192.568C101.413 192.568 101.684 192.527 101.926 192.443C102.169 192.356 102.379 192.229 102.557 192.062C102.735 191.896 102.87 191.689 102.96 191.443L104.881 191.659C104.76 192.167 104.529 192.61 104.188 192.989C103.851 193.364 103.419 193.655 102.892 193.864C102.366 194.068 101.763 194.17 101.085 194.17ZM106.386 194V185.273H108.381V186.727H108.471C108.631 186.223 108.903 185.835 109.29 185.562C109.68 185.286 110.125 185.148 110.625 185.148C110.738 185.148 110.865 185.153 111.006 185.165C111.149 185.172 111.269 185.186 111.363 185.205V187.097C111.276 187.066 111.138 187.04 110.949 187.017C110.763 186.991 110.583 186.977 110.409 186.977C110.034 186.977 109.697 187.059 109.398 187.222C109.102 187.381 108.869 187.602 108.699 187.886C108.528 188.17 108.443 188.498 108.443 188.869V194H106.386Z" fill="white"/>
<path d="M77.8608 217V208.273H81.2017C81.8324 208.273 82.3565 208.372 82.7741 208.571C83.1946 208.767 83.5085 209.036 83.7159 209.376C83.9261 209.717 84.0312 210.104 84.0312 210.536C84.0312 210.891 83.9631 211.195 83.8267 211.447C83.6903 211.697 83.5071 211.901 83.277 212.057C83.0469 212.213 82.7898 212.325 82.5057 212.393V212.479C82.8153 212.496 83.1122 212.591 83.3963 212.764C83.6832 212.935 83.9176 213.176 84.0994 213.489C84.2813 213.801 84.3722 214.179 84.3722 214.622C84.3722 215.074 84.2628 215.48 84.044 215.841C83.8253 216.199 83.4957 216.482 83.0554 216.689C82.6151 216.896 82.0611 217 81.3935 217H77.8608ZM79.4418 215.679H81.142C81.7159 215.679 82.1293 215.57 82.3821 215.351C82.6378 215.129 82.7656 214.845 82.7656 214.499C82.7656 214.24 82.7017 214.007 82.5739 213.8C82.446 213.589 82.2642 213.425 82.0284 213.305C81.7926 213.183 81.5114 213.122 81.1847 213.122H79.4418V215.679ZM79.4418 211.984H81.0057C81.2784 211.984 81.5241 211.935 81.7429 211.835C81.9616 211.733 82.1335 211.589 82.2585 211.405C82.3864 211.217 82.4503 210.996 82.4503 210.74C82.4503 210.402 82.331 210.124 82.0923 209.905C81.8565 209.686 81.5057 209.577 81.0398 209.577H79.4418V211.984ZM88.5344 217.128C87.8952 217.128 87.3413 216.987 86.8725 216.706C86.4038 216.425 86.0401 216.031 85.7816 215.526C85.5259 215.02 85.3981 214.429 85.3981 213.753C85.3981 213.077 85.5259 212.484 85.7816 211.976C86.0401 211.467 86.4038 211.072 86.8725 210.791C87.3413 210.51 87.8952 210.369 88.5344 210.369C89.1737 210.369 89.7276 210.51 90.1964 210.791C90.6651 211.072 91.0273 211.467 91.283 211.976C91.5415 212.484 91.6708 213.077 91.6708 213.753C91.6708 214.429 91.5415 215.02 91.283 215.526C91.0273 216.031 90.6651 216.425 90.1964 216.706C89.7276 216.987 89.1737 217.128 88.5344 217.128ZM88.543 215.892C88.8896 215.892 89.1793 215.797 89.4123 215.607C89.6452 215.413 89.8185 215.155 89.9322 214.831C90.0487 214.507 90.1069 214.146 90.1069 213.749C90.1069 213.348 90.0487 212.986 89.9322 212.662C89.8185 212.335 89.6452 212.075 89.4123 211.882C89.1793 211.689 88.8896 211.592 88.543 211.592C88.1879 211.592 87.8924 211.689 87.6566 211.882C87.4237 212.075 87.2489 212.335 87.1325 212.662C87.0188 212.986 86.962 213.348 86.962 213.749C86.962 214.146 87.0188 214.507 87.1325 214.831C87.2489 215.155 87.4237 215.413 87.6566 215.607C87.8924 215.797 88.1879 215.892 88.543 215.892ZM94.5227 208.273V217H92.9801V208.273H94.5227ZM98.538 217.115C98.0238 217.115 97.5636 216.983 97.1573 216.719C96.7511 216.455 96.43 216.071 96.1942 215.568C95.9585 215.065 95.8406 214.455 95.8406 213.736C95.8406 213.009 95.9599 212.395 96.1985 211.895C96.44 211.392 96.7653 211.013 97.1744 210.757C97.5835 210.499 98.0394 210.369 98.5423 210.369C98.9258 210.369 99.2411 210.435 99.4883 210.565C99.7354 210.693 99.9315 210.848 100.076 211.03C100.221 211.209 100.333 211.378 100.413 211.537H100.477V208.273H102.024V217H100.507V215.969H100.413C100.333 216.128 100.218 216.297 100.068 216.476C99.9173 216.652 99.7184 216.803 99.4712 216.928C99.2241 217.053 98.913 217.115 98.538 217.115ZM98.9684 215.849C99.2951 215.849 99.5735 215.761 99.8036 215.585C100.034 215.406 100.208 215.158 100.328 214.839C100.447 214.521 100.507 214.151 100.507 213.727C100.507 213.304 100.447 212.936 100.328 212.624C100.211 212.311 100.038 212.068 99.8079 211.895C99.5806 211.722 99.3008 211.635 98.9684 211.635C98.6246 211.635 98.3377 211.724 98.1076 211.903C97.8775 212.082 97.7042 212.33 97.5877 212.645C97.4712 212.96 97.413 213.321 97.413 213.727C97.413 214.136 97.4712 214.501 97.5877 214.822C97.707 215.141 97.8817 215.392 98.1119 215.577C98.3448 215.759 98.6303 215.849 98.9684 215.849Z" fill="#CACFD8"/>
<rect x="146" y="166" width="151" height="66" rx="12" fill="#1E1E1E"/>
<rect x="166" y="174" width="45" height="50" rx="10" fill="#383838"/>
<path d="M176.963 208H173.588L179.733 190.545H183.636L189.79 208H186.415L181.753 194.125H181.616L176.963 208ZM177.074 201.156H186.278V203.696H177.074V201.156ZM195.239 208.264C194.41 208.264 193.663 208.116 192.998 207.821C192.339 207.52 191.816 207.077 191.43 206.491C191.049 205.906 190.859 205.185 190.859 204.327C190.859 203.588 190.995 202.977 191.268 202.494C191.541 202.011 191.913 201.625 192.384 201.335C192.856 201.045 193.387 200.827 193.978 200.679C194.575 200.526 195.191 200.415 195.828 200.347C196.595 200.267 197.217 200.196 197.694 200.134C198.171 200.065 198.518 199.963 198.734 199.827C198.955 199.685 199.066 199.466 199.066 199.17V199.119C199.066 198.477 198.876 197.98 198.495 197.628C198.114 197.276 197.566 197.099 196.85 197.099C196.095 197.099 195.495 197.264 195.052 197.594C194.614 197.923 194.319 198.312 194.166 198.761L191.285 198.352C191.512 197.557 191.887 196.892 192.41 196.358C192.933 195.818 193.572 195.415 194.328 195.148C195.083 194.875 195.918 194.739 196.833 194.739C197.464 194.739 198.092 194.812 198.717 194.96C199.342 195.108 199.913 195.352 200.43 195.693C200.947 196.028 201.362 196.486 201.674 197.065C201.992 197.645 202.151 198.369 202.151 199.239V208H199.185V206.202H199.083C198.896 206.565 198.632 206.906 198.291 207.224C197.955 207.537 197.532 207.79 197.021 207.983C196.515 208.17 195.921 208.264 195.239 208.264ZM196.041 205.997C196.66 205.997 197.197 205.875 197.651 205.631C198.106 205.381 198.455 205.051 198.7 204.642C198.95 204.233 199.075 203.787 199.075 203.304V201.761C198.978 201.841 198.813 201.915 198.58 201.983C198.353 202.051 198.097 202.111 197.813 202.162C197.529 202.213 197.248 202.259 196.97 202.298C196.691 202.338 196.45 202.372 196.245 202.401C195.785 202.463 195.373 202.565 195.009 202.707C194.646 202.849 194.359 203.048 194.149 203.304C193.938 203.554 193.833 203.878 193.833 204.276C193.833 204.844 194.041 205.273 194.455 205.562C194.87 205.852 195.399 205.997 196.041 205.997Z" fill="#F2F3F5"/>
<path d="M225.256 182.364V194H223.148V182.364H225.256ZM229.184 188.886V194H227.127V185.273H229.093V186.756H229.196C229.396 186.267 229.716 185.879 230.156 185.591C230.599 185.303 231.146 185.159 231.798 185.159C232.4 185.159 232.925 185.288 233.372 185.545C233.823 185.803 234.171 186.176 234.417 186.665C234.667 187.153 234.79 187.746 234.787 188.443V194H232.73V188.761C232.73 188.178 232.578 187.722 232.275 187.392C231.976 187.062 231.561 186.898 231.031 186.898C230.671 186.898 230.351 186.977 230.071 187.136C229.794 187.292 229.576 187.517 229.417 187.812C229.262 188.108 229.184 188.466 229.184 188.886ZM240.915 185.273V186.864H235.898V185.273H240.915ZM237.137 183.182H239.194V191.375C239.194 191.652 239.235 191.864 239.319 192.011C239.406 192.155 239.52 192.254 239.66 192.307C239.8 192.36 239.955 192.386 240.126 192.386C240.254 192.386 240.372 192.377 240.478 192.358C240.588 192.339 240.671 192.322 240.728 192.307L241.074 193.915C240.965 193.953 240.807 193.994 240.603 194.04C240.402 194.085 240.156 194.112 239.864 194.119C239.349 194.134 238.885 194.057 238.472 193.886C238.059 193.712 237.732 193.443 237.489 193.08C237.251 192.716 237.133 192.261 237.137 191.716V183.182ZM246.085 194.17C245.21 194.17 244.455 193.989 243.818 193.625C243.186 193.258 242.699 192.739 242.358 192.068C242.017 191.394 241.847 190.6 241.847 189.688C241.847 188.79 242.017 188.002 242.358 187.324C242.703 186.642 243.184 186.112 243.801 185.733C244.419 185.35 245.144 185.159 245.978 185.159C246.515 185.159 247.023 185.246 247.5 185.42C247.981 185.591 248.406 185.856 248.773 186.216C249.144 186.576 249.436 187.034 249.648 187.591C249.86 188.144 249.966 188.803 249.966 189.568V190.199H242.813V188.812H247.995C247.991 188.419 247.906 188.068 247.739 187.761C247.572 187.451 247.339 187.206 247.04 187.028C246.745 186.85 246.4 186.761 246.006 186.761C245.585 186.761 245.216 186.864 244.898 187.068C244.58 187.269 244.332 187.534 244.154 187.864C243.979 188.189 243.89 188.547 243.887 188.938V190.148C243.887 190.655 243.979 191.091 244.165 191.455C244.351 191.814 244.61 192.091 244.943 192.284C245.277 192.473 245.667 192.568 246.114 192.568C246.413 192.568 246.684 192.527 246.926 192.443C247.169 192.356 247.379 192.229 247.557 192.062C247.735 191.896 247.87 191.689 247.96 191.443L249.881 191.659C249.76 192.167 249.529 192.61 249.188 192.989C248.851 193.364 248.419 193.655 247.892 193.864C247.366 194.068 246.763 194.17 246.085 194.17ZM251.386 194V185.273H253.381V186.727H253.471C253.631 186.223 253.903 185.835 254.29 185.562C254.68 185.286 255.125 185.148 255.625 185.148C255.738 185.148 255.865 185.153 256.006 185.165C256.149 185.172 256.269 185.186 256.363 185.205V187.097C256.276 187.066 256.138 187.04 255.949 187.017C255.763 186.991 255.583 186.977 255.409 186.977C255.034 186.977 254.697 187.059 254.398 187.222C254.102 187.381 253.869 187.602 253.699 187.886C253.528 188.17 253.443 188.498 253.443 188.869V194H251.386Z" fill="white"/>
<path d="M227.604 210.672C227.564 210.3 227.396 210.01 227.101 209.803C226.808 209.595 226.428 209.491 225.959 209.491C225.629 209.491 225.347 209.541 225.111 209.641C224.875 209.74 224.695 209.875 224.57 210.045C224.445 210.216 224.381 210.411 224.378 210.629C224.378 210.811 224.419 210.969 224.501 211.102C224.587 211.236 224.702 211.349 224.847 211.443C224.991 211.534 225.152 211.611 225.328 211.673C225.504 211.736 225.682 211.788 225.861 211.831L226.679 212.036C227.009 212.112 227.325 212.216 227.629 212.347C227.936 212.477 228.21 212.642 228.452 212.841C228.696 213.04 228.889 213.28 229.031 213.561C229.173 213.842 229.244 214.172 229.244 214.55C229.244 215.061 229.114 215.511 228.852 215.901C228.591 216.287 228.213 216.589 227.719 216.808C227.227 217.024 226.632 217.132 225.933 217.132C225.254 217.132 224.665 217.027 224.165 216.817C223.668 216.607 223.278 216.3 222.997 215.896C222.719 215.493 222.568 215.001 222.545 214.422H224.101C224.124 214.726 224.217 214.979 224.382 215.18C224.547 215.382 224.761 215.533 225.026 215.632C225.293 215.732 225.591 215.781 225.92 215.781C226.264 215.781 226.565 215.73 226.824 215.628C227.085 215.523 227.29 215.378 227.438 215.193C227.585 215.006 227.661 214.787 227.663 214.537C227.661 214.31 227.594 214.122 227.463 213.974C227.332 213.824 227.149 213.699 226.913 213.599C226.68 213.497 226.408 213.406 226.095 213.327L225.102 213.071C224.384 212.886 223.815 212.607 223.398 212.232C222.983 211.854 222.776 211.352 222.776 210.727C222.776 210.213 222.915 209.763 223.193 209.376C223.474 208.99 223.857 208.69 224.339 208.477C224.822 208.261 225.369 208.153 225.98 208.153C226.599 208.153 227.142 208.261 227.608 208.477C228.077 208.69 228.445 208.987 228.712 209.368C228.979 209.746 229.116 210.18 229.125 210.672H227.604ZM233.483 217.128C232.827 217.128 232.26 216.991 231.783 216.719C231.309 216.443 230.944 216.054 230.688 215.551C230.432 215.045 230.304 214.45 230.304 213.766C230.304 213.092 230.432 212.501 230.688 211.993C230.946 211.482 231.307 211.084 231.77 210.8C232.233 210.513 232.777 210.369 233.402 210.369C233.806 210.369 234.186 210.435 234.544 210.565C234.905 210.693 235.223 210.892 235.499 211.162C235.777 211.432 235.996 211.776 236.155 212.193C236.314 212.608 236.394 213.102 236.394 213.676V214.149H231.029V213.109H234.915C234.912 212.814 234.848 212.551 234.723 212.321C234.598 212.088 234.424 211.905 234.199 211.771C233.978 211.638 233.719 211.571 233.424 211.571C233.108 211.571 232.831 211.648 232.593 211.801C232.354 211.952 232.168 212.151 232.034 212.398C231.904 212.642 231.837 212.911 231.834 213.203V214.111C231.834 214.491 231.904 214.818 232.043 215.091C232.182 215.361 232.377 215.568 232.627 215.713C232.877 215.855 233.169 215.926 233.505 215.926C233.729 215.926 233.932 215.895 234.114 215.832C234.296 215.767 234.453 215.672 234.587 215.547C234.721 215.422 234.821 215.267 234.89 215.082L236.33 215.244C236.239 215.625 236.066 215.957 235.81 216.241C235.557 216.523 235.233 216.741 234.838 216.898C234.444 217.051 233.992 217.128 233.483 217.128ZM237.699 217V210.455H239.173V211.567H239.25C239.386 211.192 239.612 210.899 239.928 210.689C240.243 210.476 240.619 210.369 241.057 210.369C241.5 210.369 241.874 210.477 242.178 210.693C242.484 210.906 242.7 211.197 242.825 211.567H242.893C243.038 211.203 243.283 210.913 243.626 210.697C243.973 210.479 244.384 210.369 244.858 210.369C245.46 210.369 245.952 210.56 246.332 210.94C246.713 211.321 246.903 211.876 246.903 212.607V217H245.357V212.845C245.357 212.439 245.249 212.142 245.033 211.955C244.817 211.764 244.553 211.669 244.24 211.669C243.868 211.669 243.577 211.786 243.366 212.018C243.159 212.249 243.055 212.548 243.055 212.918V217H241.543V212.781C241.543 212.443 241.44 212.173 241.236 211.972C241.034 211.77 240.77 211.669 240.443 211.669C240.222 211.669 240.02 211.726 239.838 211.839C239.656 211.95 239.511 212.108 239.403 212.312C239.295 212.514 239.241 212.75 239.241 213.02V217H237.699ZM248.468 217V210.455H250.011V217H248.468ZM249.244 209.526C249 209.526 248.789 209.445 248.613 209.283C248.437 209.118 248.349 208.92 248.349 208.69C248.349 208.457 248.437 208.26 248.613 208.098C248.789 207.933 249 207.851 249.244 207.851C249.491 207.851 249.701 207.933 249.875 208.098C250.051 208.26 250.139 208.457 250.139 208.69C250.139 208.92 250.051 209.118 249.875 209.283C249.701 209.445 249.491 209.526 249.244 209.526ZM251.665 217V208.273H253.208V211.537H253.272C253.352 211.378 253.464 211.209 253.609 211.03C253.754 210.848 253.95 210.693 254.197 210.565C254.444 210.435 254.759 210.369 255.143 210.369C255.648 210.369 256.104 210.499 256.511 210.757C256.92 211.013 257.244 211.392 257.482 211.895C257.724 212.395 257.844 213.009 257.844 213.736C257.844 214.455 257.727 215.065 257.491 215.568C257.255 216.071 256.934 216.455 256.528 216.719C256.121 216.983 255.661 217.115 255.147 217.115C254.772 217.115 254.461 217.053 254.214 216.928C253.967 216.803 253.768 216.652 253.617 216.476C253.469 216.297 253.354 216.128 253.272 215.969H253.183V217H251.665ZM253.178 213.727C253.178 214.151 253.238 214.521 253.357 214.839C253.479 215.158 253.654 215.406 253.881 215.585C254.112 215.761 254.39 215.849 254.717 215.849C255.058 215.849 255.343 215.759 255.573 215.577C255.803 215.392 255.977 215.141 256.093 214.822C256.212 214.501 256.272 214.136 256.272 213.727C256.272 213.321 256.214 212.96 256.097 212.645C255.981 212.33 255.808 212.082 255.577 211.903C255.347 211.724 255.06 211.635 254.717 211.635C254.387 211.635 254.107 211.722 253.877 211.895C253.647 212.068 253.472 212.311 253.353 212.624C253.237 212.936 253.178 213.304 253.178 213.727ZM262.011 217.128C261.372 217.128 260.818 216.987 260.349 216.706C259.88 216.425 259.517 216.031 259.258 215.526C259.002 215.02 258.875 214.429 258.875 213.753C258.875 213.077 259.002 212.484 259.258 211.976C259.517 211.467 259.88 211.072 260.349 210.791C260.818 210.51 261.372 210.369 262.011 210.369C262.65 210.369 263.204 210.51 263.673 210.791C264.142 211.072 264.504 211.467 264.76 211.976C265.018 212.484 265.147 213.077 265.147 213.753C265.147 214.429 265.018 215.02 264.76 215.526C264.504 216.031 264.142 216.425 263.673 216.706C263.204 216.987 262.65 217.128 262.011 217.128ZM262.02 215.892C262.366 215.892 262.656 215.797 262.889 215.607C263.122 215.413 263.295 215.155 263.409 214.831C263.525 214.507 263.583 214.146 263.583 213.749C263.583 213.348 263.525 212.986 263.409 212.662C263.295 212.335 263.122 212.075 262.889 211.882C262.656 211.689 262.366 211.592 262.02 211.592C261.664 211.592 261.369 211.689 261.133 211.882C260.9 212.075 260.725 212.335 260.609 212.662C260.495 212.986 260.439 213.348 260.439 213.749C260.439 214.146 260.495 214.507 260.609 214.831C260.725 215.155 260.9 215.413 261.133 215.607C261.369 215.797 261.664 215.892 262.02 215.892ZM267.999 208.273V217H266.457V208.273H267.999ZM272.015 217.115C271.5 217.115 271.04 216.983 270.634 216.719C270.228 216.455 269.907 216.071 269.671 215.568C269.435 215.065 269.317 214.455 269.317 213.736C269.317 213.009 269.436 212.395 269.675 211.895C269.917 211.392 270.242 211.013 270.651 210.757C271.06 210.499 271.516 210.369 272.019 210.369C272.402 210.369 272.718 210.435 272.965 210.565C273.212 210.693 273.408 210.848 273.553 211.03C273.698 211.209 273.81 211.378 273.89 211.537H273.953V208.273H275.5V217H273.983V215.969H273.89C273.81 216.128 273.695 216.297 273.544 216.476C273.394 216.652 273.195 216.803 272.948 216.928C272.701 217.053 272.39 217.115 272.015 217.115ZM272.445 215.849C272.772 215.849 273.05 215.761 273.28 215.585C273.51 215.406 273.685 215.158 273.804 214.839C273.924 214.521 273.983 214.151 273.983 213.727C273.983 213.304 273.924 212.936 273.804 212.624C273.688 212.311 273.515 212.068 273.284 211.895C273.057 211.722 272.777 211.635 272.445 211.635C272.101 211.635 271.814 211.724 271.584 211.903C271.354 212.082 271.181 212.33 271.064 212.645C270.948 212.96 270.89 213.321 270.89 213.727C270.89 214.136 270.948 214.501 271.064 214.822C271.184 215.141 271.358 215.392 271.588 215.577C271.821 215.759 272.107 215.849 272.445 215.849Z" fill="#CACFD8"/>
<rect x="311" y="166" width="143" height="66" rx="12" fill="#1E1E1E"/>
<rect x="331" y="174" width="46" height="50" rx="10" fill="#383838"/>
<path d="M342.392 208H339.597L345.878 190.545H348.92L355.202 208H352.406L347.472 193.716H347.335L342.392 208ZM342.861 201.165H351.929V203.381H342.861V201.165ZM360.847 208.29C360.018 208.29 359.268 208.136 358.597 207.83C357.927 207.517 357.396 207.065 357.004 206.474C356.617 205.884 356.424 205.159 356.424 204.301C356.424 203.562 356.566 202.955 356.85 202.477C357.134 202 357.518 201.622 358.001 201.344C358.484 201.065 359.024 200.855 359.62 200.713C360.217 200.571 360.825 200.463 361.444 200.389C362.228 200.298 362.864 200.224 363.353 200.168C363.842 200.105 364.197 200.006 364.418 199.869C364.64 199.733 364.751 199.511 364.751 199.205V199.145C364.751 198.401 364.541 197.824 364.12 197.415C363.705 197.006 363.086 196.801 362.262 196.801C361.404 196.801 360.728 196.991 360.234 197.372C359.745 197.747 359.407 198.165 359.22 198.625L356.825 198.08C357.109 197.284 357.524 196.642 358.069 196.153C358.62 195.659 359.254 195.301 359.97 195.08C360.685 194.852 361.438 194.739 362.228 194.739C362.751 194.739 363.305 194.801 363.89 194.926C364.481 195.045 365.032 195.267 365.543 195.591C366.06 195.915 366.484 196.378 366.813 196.98C367.143 197.577 367.308 198.352 367.308 199.307V208H364.819V206.21H364.717C364.552 206.54 364.305 206.864 363.975 207.182C363.646 207.5 363.222 207.764 362.705 207.974C362.188 208.185 361.569 208.29 360.847 208.29ZM361.401 206.244C362.106 206.244 362.708 206.105 363.208 205.827C363.714 205.548 364.097 205.185 364.359 204.736C364.626 204.281 364.759 203.795 364.759 203.278V201.591C364.668 201.682 364.492 201.767 364.231 201.847C363.975 201.92 363.683 201.986 363.353 202.043C363.024 202.094 362.703 202.142 362.39 202.188C362.078 202.227 361.816 202.261 361.606 202.29C361.112 202.352 360.66 202.457 360.251 202.605C359.847 202.753 359.524 202.966 359.279 203.244C359.041 203.517 358.921 203.881 358.921 204.335C358.921 204.966 359.154 205.443 359.62 205.767C360.086 206.085 360.68 206.244 361.401 206.244Z" fill="#F2F3F5"/>
<path d="M390.256 182.364V194H388.148V182.364H390.256ZM394.184 188.886V194H392.127V185.273H394.093V186.756H394.196C394.396 186.267 394.716 185.879 395.156 185.591C395.599 185.303 396.146 185.159 396.798 185.159C397.4 185.159 397.925 185.288 398.372 185.545C398.823 185.803 399.171 186.176 399.417 186.665C399.667 187.153 399.79 187.746 399.787 188.443V194H397.73V188.761C397.73 188.178 397.578 187.722 397.275 187.392C396.976 187.062 396.561 186.898 396.031 186.898C395.671 186.898 395.351 186.977 395.071 187.136C394.794 187.292 394.576 187.517 394.417 187.812C394.262 188.108 394.184 188.466 394.184 188.886ZM405.915 185.273V186.864H400.898V185.273H405.915ZM402.137 183.182H404.194V191.375C404.194 191.652 404.235 191.864 404.319 192.011C404.406 192.155 404.52 192.254 404.66 192.307C404.8 192.36 404.955 192.386 405.126 192.386C405.254 192.386 405.372 192.377 405.478 192.358C405.588 192.339 405.671 192.322 405.728 192.307L406.074 193.915C405.965 193.953 405.807 193.994 405.603 194.04C405.402 194.085 405.156 194.112 404.864 194.119C404.349 194.134 403.885 194.057 403.472 193.886C403.059 193.712 402.732 193.443 402.489 193.08C402.251 192.716 402.133 192.261 402.137 191.716V183.182ZM411.085 194.17C410.21 194.17 409.455 193.989 408.818 193.625C408.186 193.258 407.699 192.739 407.358 192.068C407.017 191.394 406.847 190.6 406.847 189.688C406.847 188.79 407.017 188.002 407.358 187.324C407.703 186.642 408.184 186.112 408.801 185.733C409.419 185.35 410.144 185.159 410.978 185.159C411.515 185.159 412.023 185.246 412.5 185.42C412.981 185.591 413.406 185.856 413.773 186.216C414.144 186.576 414.436 187.034 414.648 187.591C414.86 188.144 414.966 188.803 414.966 189.568V190.199H407.813V188.812H412.995C412.991 188.419 412.906 188.068 412.739 187.761C412.572 187.451 412.339 187.206 412.04 187.028C411.745 186.85 411.4 186.761 411.006 186.761C410.585 186.761 410.216 186.864 409.898 187.068C409.58 187.269 409.332 187.534 409.154 187.864C408.979 188.189 408.89 188.547 408.887 188.938V190.148C408.887 190.655 408.979 191.091 409.165 191.455C409.351 191.814 409.61 192.091 409.943 192.284C410.277 192.473 410.667 192.568 411.114 192.568C411.413 192.568 411.684 192.527 411.926 192.443C412.169 192.356 412.379 192.229 412.557 192.062C412.735 191.896 412.87 191.689 412.96 191.443L414.881 191.659C414.76 192.167 414.529 192.61 414.188 192.989C413.851 193.364 413.419 193.655 412.892 193.864C412.366 194.068 411.763 194.17 411.085 194.17ZM416.386 194V185.273H418.381V186.727H418.471C418.631 186.223 418.903 185.835 419.29 185.562C419.68 185.286 420.125 185.148 420.625 185.148C420.738 185.148 420.865 185.153 421.006 185.165C421.149 185.172 421.269 185.186 421.363 185.205V187.097C421.276 187.066 421.138 187.04 420.949 187.017C420.763 186.991 420.583 186.977 420.409 186.977C420.034 186.977 419.697 187.059 419.398 187.222C419.102 187.381 418.869 187.602 418.699 187.886C418.528 188.17 418.443 188.498 418.443 188.869V194H416.386Z" fill="white"/>
<path d="M387.861 208.273H389.795L392.386 214.597H392.489L395.08 208.273H397.014V217H395.497V211.004H395.416L393.004 216.974H391.871L389.459 210.991H389.378V217H387.861V208.273ZM401.565 217.128C400.909 217.128 400.342 216.991 399.865 216.719C399.391 216.443 399.026 216.054 398.77 215.551C398.514 215.045 398.386 214.45 398.386 213.766C398.386 213.092 398.514 212.501 398.77 211.993C399.028 211.482 399.389 211.084 399.852 210.8C400.315 210.513 400.859 210.369 401.484 210.369C401.888 210.369 402.268 210.435 402.626 210.565C402.987 210.693 403.305 210.892 403.581 211.162C403.859 211.432 404.078 211.776 404.237 212.193C404.396 212.608 404.476 213.102 404.476 213.676V214.149H399.111V213.109H402.997C402.994 212.814 402.93 212.551 402.805 212.321C402.68 212.088 402.506 211.905 402.281 211.771C402.06 211.638 401.801 211.571 401.506 211.571C401.19 211.571 400.913 211.648 400.675 211.801C400.436 211.952 400.25 212.151 400.116 212.398C399.986 212.642 399.919 212.911 399.916 213.203V214.111C399.916 214.491 399.986 214.818 400.125 215.091C400.264 215.361 400.459 215.568 400.709 215.713C400.959 215.855 401.251 215.926 401.587 215.926C401.811 215.926 402.014 215.895 402.196 215.832C402.378 215.767 402.536 215.672 402.669 215.547C402.803 215.422 402.903 215.267 402.972 215.082L404.412 215.244C404.321 215.625 404.148 215.957 403.892 216.241C403.639 216.523 403.315 216.741 402.92 216.898C402.526 217.051 402.074 217.128 401.565 217.128ZM408.21 217.115C407.696 217.115 407.235 216.983 406.829 216.719C406.423 216.455 406.102 216.071 405.866 215.568C405.63 215.065 405.512 214.455 405.512 213.736C405.512 213.009 405.632 212.395 405.87 211.895C406.112 211.392 406.437 211.013 406.846 210.757C407.255 210.499 407.711 210.369 408.214 210.369C408.598 210.369 408.913 210.435 409.16 210.565C409.407 210.693 409.603 210.848 409.748 211.03C409.893 211.209 410.005 211.378 410.085 211.537H410.149V208.273H411.696V217H410.179V215.969H410.085C410.005 216.128 409.89 216.297 409.74 216.476C409.589 216.652 409.39 216.803 409.143 216.928C408.896 217.053 408.585 217.115 408.21 217.115ZM408.64 215.849C408.967 215.849 409.245 215.761 409.475 215.585C409.706 215.406 409.88 215.158 410 214.839C410.119 214.521 410.179 214.151 410.179 213.727C410.179 213.304 410.119 212.936 410 212.624C409.883 212.311 409.71 212.068 409.48 211.895C409.252 211.722 408.973 211.635 408.64 211.635C408.297 211.635 408.01 211.724 407.779 211.903C407.549 212.082 407.376 212.33 407.26 212.645C407.143 212.96 407.085 213.321 407.085 213.727C407.085 214.136 407.143 214.501 407.26 214.822C407.379 215.141 407.554 215.392 407.784 215.577C408.017 215.759 408.302 215.849 408.64 215.849ZM413.339 217V210.455H414.882V217H413.339ZM414.115 209.526C413.871 209.526 413.661 209.445 413.484 209.283C413.308 209.118 413.22 208.92 413.22 208.69C413.22 208.457 413.308 208.26 413.484 208.098C413.661 207.933 413.871 207.851 414.115 207.851C414.362 207.851 414.572 207.933 414.746 208.098C414.922 208.26 415.01 208.457 415.01 208.69C415.01 208.92 414.922 209.118 414.746 209.283C414.572 209.445 414.362 209.526 414.115 209.526ZM420.64 214.247V210.455H422.183V217H420.687V215.837H420.619C420.471 216.203 420.228 216.503 419.89 216.736C419.555 216.969 419.142 217.085 418.65 217.085C418.221 217.085 417.842 216.99 417.512 216.8C417.186 216.607 416.93 216.327 416.745 215.96C416.561 215.591 416.468 215.145 416.468 214.622V210.455H418.011V214.384C418.011 214.798 418.125 215.128 418.352 215.372C418.579 215.616 418.877 215.739 419.247 215.739C419.474 215.739 419.694 215.683 419.907 215.572C420.12 215.462 420.295 215.297 420.431 215.078C420.571 214.857 420.64 214.58 420.64 214.247ZM423.769 217V210.455H425.244V211.567H425.32C425.457 211.192 425.683 210.899 425.998 210.689C426.313 210.476 426.69 210.369 427.127 210.369C427.57 210.369 427.944 210.477 428.248 210.693C428.555 210.906 428.771 211.197 428.896 211.567H428.964C429.109 211.203 429.353 210.913 429.697 210.697C430.043 210.479 430.454 210.369 430.928 210.369C431.531 210.369 432.022 210.56 432.403 210.94C432.783 211.321 432.974 211.876 432.974 212.607V217H431.427V212.845C431.427 212.439 431.319 212.142 431.103 211.955C430.887 211.764 430.623 211.669 430.31 211.669C429.938 211.669 429.647 211.786 429.437 212.018C429.229 212.249 429.126 212.548 429.126 212.918V217H427.613V212.781C427.613 212.443 427.511 212.173 427.306 211.972C427.104 211.77 426.84 211.669 426.513 211.669C426.292 211.669 426.09 211.726 425.908 211.839C425.727 211.95 425.582 212.108 425.474 212.312C425.366 212.514 425.312 212.75 425.312 213.02V217H423.769Z" fill="#CACFD8"/>
<rect x="468" y="166" width="141" height="66" rx="12" fill="#1E1E1E"/>
<rect x="488" y="174" width="46" height="50" rx="10" fill="#383838"/>
<path d="M498.83 208H496.614L503.023 190.545H505.205L511.614 208H509.398L504.182 193.307H504.045L498.83 208ZM499.648 201.182H508.58V203.057H499.648V201.182ZM517.432 208.307C516.602 208.307 515.85 208.151 515.173 207.838C514.497 207.52 513.96 207.062 513.563 206.466C513.165 205.864 512.966 205.136 512.966 204.284C512.966 203.534 513.114 202.926 513.409 202.46C513.705 201.989 514.1 201.619 514.594 201.352C515.088 201.085 515.634 200.886 516.23 200.756C516.833 200.619 517.438 200.511 518.046 200.432C518.841 200.33 519.486 200.253 519.98 200.202C520.48 200.145 520.844 200.051 521.071 199.92C521.304 199.79 521.421 199.562 521.421 199.239V199.17C521.421 198.33 521.19 197.676 520.73 197.21C520.276 196.744 519.585 196.511 518.659 196.511C517.699 196.511 516.946 196.722 516.401 197.142C515.855 197.562 515.472 198.011 515.25 198.489L513.341 197.807C513.682 197.011 514.136 196.392 514.705 195.949C515.279 195.5 515.904 195.187 516.58 195.011C517.261 194.83 517.932 194.739 518.591 194.739C519.011 194.739 519.494 194.79 520.04 194.892C520.591 194.989 521.122 195.19 521.634 195.497C522.151 195.804 522.58 196.267 522.921 196.886C523.261 197.506 523.432 198.335 523.432 199.375V208H521.421V206.227H521.318C521.182 206.511 520.955 206.815 520.636 207.139C520.318 207.463 519.895 207.739 519.367 207.966C518.838 208.193 518.193 208.307 517.432 208.307ZM517.739 206.5C518.534 206.5 519.205 206.344 519.75 206.031C520.301 205.719 520.716 205.315 520.994 204.821C521.279 204.327 521.421 203.807 521.421 203.261V201.42C521.335 201.523 521.148 201.616 520.858 201.702C520.574 201.781 520.244 201.852 519.869 201.915C519.5 201.972 519.139 202.023 518.787 202.068C518.44 202.108 518.159 202.142 517.943 202.17C517.421 202.239 516.932 202.349 516.477 202.503C516.029 202.651 515.665 202.875 515.386 203.176C515.114 203.472 514.977 203.875 514.977 204.386C514.977 205.085 515.236 205.614 515.753 205.972C516.276 206.324 516.938 206.5 517.739 206.5Z" fill="#F2F3F5"/>
<path d="M547.256 182.364V194H545.148V182.364H547.256ZM551.184 188.886V194H549.127V185.273H551.093V186.756H551.196C551.396 186.267 551.716 185.879 552.156 185.591C552.599 185.303 553.146 185.159 553.798 185.159C554.4 185.159 554.925 185.288 555.372 185.545C555.823 185.803 556.171 186.176 556.417 186.665C556.667 187.153 556.79 187.746 556.787 188.443V194H554.73V188.761C554.73 188.178 554.578 187.722 554.275 187.392C553.976 187.062 553.561 186.898 553.031 186.898C552.671 186.898 552.351 186.977 552.071 187.136C551.794 187.292 551.576 187.517 551.417 187.812C551.262 188.108 551.184 188.466 551.184 188.886ZM562.915 185.273V186.864H557.898V185.273H562.915ZM559.137 183.182H561.194V191.375C561.194 191.652 561.235 191.864 561.319 192.011C561.406 192.155 561.52 192.254 561.66 192.307C561.8 192.36 561.955 192.386 562.126 192.386C562.254 192.386 562.372 192.377 562.478 192.358C562.588 192.339 562.671 192.322 562.728 192.307L563.074 193.915C562.965 193.953 562.807 193.994 562.603 194.04C562.402 194.085 562.156 194.112 561.864 194.119C561.349 194.134 560.885 194.057 560.472 193.886C560.059 193.712 559.732 193.443 559.489 193.08C559.251 192.716 559.133 192.261 559.137 191.716V183.182ZM568.085 194.17C567.21 194.17 566.455 193.989 565.818 193.625C565.186 193.258 564.699 192.739 564.358 192.068C564.017 191.394 563.847 190.6 563.847 189.688C563.847 188.79 564.017 188.002 564.358 187.324C564.703 186.642 565.184 186.112 565.801 185.733C566.419 185.35 567.144 185.159 567.978 185.159C568.515 185.159 569.023 185.246 569.5 185.42C569.981 185.591 570.406 185.856 570.773 186.216C571.144 186.576 571.436 187.034 571.648 187.591C571.86 188.144 571.966 188.803 571.966 189.568V190.199H564.813V188.812H569.995C569.991 188.419 569.906 188.068 569.739 187.761C569.572 187.451 569.339 187.206 569.04 187.028C568.745 186.85 568.4 186.761 568.006 186.761C567.585 186.761 567.216 186.864 566.898 187.068C566.58 187.269 566.332 187.534 566.154 187.864C565.979 188.189 565.89 188.547 565.887 188.938V190.148C565.887 190.655 565.979 191.091 566.165 191.455C566.351 191.814 566.61 192.091 566.943 192.284C567.277 192.473 567.667 192.568 568.114 192.568C568.413 192.568 568.684 192.527 568.926 192.443C569.169 192.356 569.379 192.229 569.557 192.062C569.735 191.896 569.87 191.689 569.96 191.443L571.881 191.659C571.76 192.167 571.529 192.61 571.188 192.989C570.851 193.364 570.419 193.655 569.892 193.864C569.366 194.068 568.763 194.17 568.085 194.17ZM573.386 194V185.273H575.381V186.727H575.471C575.631 186.223 575.903 185.835 576.29 185.562C576.68 185.286 577.125 185.148 577.625 185.148C577.738 185.148 577.865 185.153 578.006 185.165C578.149 185.172 578.269 185.186 578.363 185.205V187.097C578.276 187.066 578.138 187.04 577.949 187.017C577.763 186.991 577.583 186.977 577.409 186.977C577.034 186.977 576.697 187.059 576.398 187.222C576.102 187.381 575.869 187.602 575.699 187.886C575.528 188.17 575.443 188.498 575.443 188.869V194H573.386Z" fill="white"/>
<path d="M544.861 217V208.273H548.134C548.804 208.273 549.366 208.389 549.821 208.622C550.278 208.855 550.624 209.182 550.857 209.602C551.092 210.02 551.21 210.507 551.21 211.064C551.21 211.624 551.091 212.109 550.852 212.521C550.616 212.93 550.268 213.247 549.808 213.472C549.348 213.693 548.783 213.804 548.112 213.804H545.781V212.491H547.899C548.291 212.491 548.612 212.437 548.862 212.33C549.112 212.219 549.297 212.058 549.416 211.848C549.538 211.635 549.599 211.374 549.599 211.064C549.599 210.754 549.538 210.49 549.416 210.271C549.294 210.05 549.108 209.882 548.858 209.768C548.608 209.652 548.286 209.594 547.891 209.594H546.442V217H544.861ZM549.369 213.045L551.53 217H549.766L547.643 213.045H549.369ZM555.401 217.128C554.745 217.128 554.178 216.991 553.701 216.719C553.227 216.443 552.862 216.054 552.606 215.551C552.35 215.045 552.222 214.45 552.222 213.766C552.222 213.092 552.35 212.501 552.606 211.993C552.864 211.482 553.225 211.084 553.688 210.8C554.151 210.513 554.695 210.369 555.32 210.369C555.724 210.369 556.104 210.435 556.462 210.565C556.823 210.693 557.141 210.892 557.417 211.162C557.695 211.432 557.914 211.776 558.073 212.193C558.232 212.608 558.312 213.102 558.312 213.676V214.149H552.947V213.109H556.833C556.83 212.814 556.766 212.551 556.641 212.321C556.516 212.088 556.342 211.905 556.117 211.771C555.896 211.638 555.637 211.571 555.342 211.571C555.026 211.571 554.749 211.648 554.511 211.801C554.272 211.952 554.086 212.151 553.952 212.398C553.822 212.642 553.755 212.911 553.752 213.203V214.111C553.752 214.491 553.822 214.818 553.961 215.091C554.1 215.361 554.295 215.568 554.545 215.713C554.795 215.855 555.087 215.926 555.423 215.926C555.647 215.926 555.85 215.895 556.032 215.832C556.214 215.767 556.371 215.672 556.505 215.547C556.638 215.422 556.739 215.267 556.808 215.082L558.248 215.244C558.157 215.625 557.984 215.957 557.728 216.241C557.475 216.523 557.151 216.741 556.756 216.898C556.362 217.051 555.91 217.128 555.401 217.128ZM562.463 219.591C561.909 219.591 561.434 219.516 561.036 219.365C560.638 219.217 560.319 219.018 560.077 218.768C559.836 218.518 559.668 218.241 559.574 217.938L560.963 217.601C561.026 217.729 561.117 217.855 561.236 217.98C561.355 218.108 561.516 218.213 561.718 218.295C561.922 218.381 562.179 218.423 562.489 218.423C562.926 218.423 563.289 218.317 563.576 218.104C563.863 217.893 564.006 217.547 564.006 217.064V215.824H563.929C563.85 215.983 563.733 216.146 563.58 216.314C563.429 216.482 563.229 216.622 562.979 216.736C562.732 216.849 562.421 216.906 562.046 216.906C561.543 216.906 561.087 216.788 560.678 216.553C560.272 216.314 559.948 215.959 559.706 215.487C559.468 215.013 559.348 214.419 559.348 213.706C559.348 212.987 559.468 212.381 559.706 211.886C559.948 211.389 560.273 211.013 560.682 210.757C561.091 210.499 561.547 210.369 562.05 210.369C562.434 210.369 562.749 210.435 562.996 210.565C563.246 210.693 563.445 210.848 563.593 211.03C563.74 211.209 563.853 211.378 563.929 211.537H564.015V210.455H565.536V217.107C565.536 217.666 565.402 218.129 565.135 218.496C564.868 218.862 564.503 219.136 564.04 219.318C563.577 219.5 563.051 219.591 562.463 219.591ZM562.476 215.696C562.803 215.696 563.081 215.616 563.311 215.457C563.542 215.298 563.716 215.07 563.836 214.771C563.955 214.473 564.015 214.115 564.015 213.697C564.015 213.286 563.955 212.925 563.836 212.615C563.719 212.305 563.546 212.065 563.316 211.895C563.088 211.722 562.809 211.635 562.476 211.635C562.132 211.635 561.846 211.724 561.615 211.903C561.385 212.082 561.212 212.328 561.096 212.641C560.979 212.95 560.921 213.303 560.921 213.697C560.921 214.098 560.979 214.449 561.096 214.75C561.215 215.048 561.39 215.281 561.62 215.449C561.853 215.614 562.138 215.696 562.476 215.696ZM571.289 214.247V210.455H572.831V217H571.336V215.837H571.267C571.12 216.203 570.877 216.503 570.539 216.736C570.203 216.969 569.79 217.085 569.299 217.085C568.87 217.085 568.49 216.99 568.161 216.8C567.834 216.607 567.578 216.327 567.394 215.96C567.209 215.591 567.117 215.145 567.117 214.622V210.455H568.659V214.384C568.659 214.798 568.773 215.128 569 215.372C569.228 215.616 569.526 215.739 569.895 215.739C570.123 215.739 570.343 215.683 570.556 215.572C570.769 215.462 570.944 215.297 571.08 215.078C571.219 214.857 571.289 214.58 571.289 214.247ZM575.96 208.273V217H574.418V208.273H575.96ZM579.43 217.132C579.015 217.132 578.642 217.058 578.309 216.911C577.98 216.76 577.718 216.538 577.525 216.246C577.335 215.953 577.24 215.592 577.24 215.163C577.24 214.794 577.308 214.489 577.444 214.247C577.581 214.006 577.767 213.812 578.002 213.668C578.238 213.523 578.504 213.413 578.799 213.339C579.098 213.263 579.406 213.207 579.724 213.173C580.108 213.134 580.419 213.098 580.657 213.067C580.896 213.033 581.069 212.982 581.177 212.913C581.288 212.842 581.343 212.733 581.343 212.585V212.56C581.343 212.239 581.248 211.99 581.058 211.814C580.868 211.638 580.593 211.55 580.235 211.55C579.858 211.55 579.558 211.632 579.336 211.797C579.118 211.962 578.97 212.156 578.893 212.381L577.453 212.176C577.566 211.778 577.754 211.446 578.015 211.179C578.277 210.909 578.596 210.707 578.974 210.574C579.352 210.438 579.77 210.369 580.227 210.369C580.542 210.369 580.856 210.406 581.169 210.48C581.481 210.554 581.767 210.676 582.025 210.847C582.284 211.014 582.491 211.243 582.647 211.533C582.806 211.822 582.886 212.185 582.886 212.619V217H581.403V216.101H581.352C581.258 216.283 581.126 216.453 580.956 216.612C580.788 216.768 580.576 216.895 580.321 216.991C580.068 217.085 579.771 217.132 579.43 217.132ZM579.831 215.999C580.14 215.999 580.409 215.937 580.636 215.815C580.863 215.69 581.038 215.526 581.16 215.321C581.285 215.116 581.348 214.893 581.348 214.652V213.881C581.299 213.92 581.217 213.957 581.1 213.991C580.987 214.026 580.859 214.055 580.717 214.081C580.575 214.107 580.434 214.129 580.295 214.149C580.156 214.169 580.035 214.186 579.933 214.2C579.703 214.232 579.497 214.283 579.315 214.354C579.133 214.425 578.99 214.524 578.885 214.652C578.779 214.777 578.727 214.939 578.727 215.138C578.727 215.422 578.831 215.636 579.038 215.781C579.245 215.926 579.51 215.999 579.831 215.999ZM584.437 217V210.455H585.933V211.545H586.001C586.12 211.168 586.325 210.876 586.615 210.672C586.907 210.464 587.241 210.361 587.616 210.361C587.701 210.361 587.797 210.365 587.902 210.374C588.01 210.379 588.099 210.389 588.17 210.403V211.822C588.105 211.8 588.001 211.78 587.859 211.763C587.72 211.743 587.585 211.733 587.454 211.733C587.173 211.733 586.92 211.794 586.696 211.916C586.474 212.036 586.299 212.202 586.172 212.415C586.044 212.628 585.98 212.874 585.98 213.152V217H584.437Z" fill="#CACFD8"/>
</svg>
