<svg width="58" height="36" viewBox="0 0 58 36" fill="none" xmlns="http://www.w3.org/2000/svg">
<rect width="56" height="32" rx="16" fill="white"/>
<g filter="url(#filter0_ddd_969_13524)">
<rect x="26" y="2" width="28" height="28" rx="14" fill="#0A0A0A"/>
</g>
<path fill-rule="evenodd" clip-rule="evenodd" d="M45.9562 19.1359C44.4234 18.8673 42.8947 17.7416 41.9736 16.0223C40.8847 13.9896 40.9628 11.7204 42.0142 10.2794C42.122 10.1318 42.24 9.99276 42.368 9.86362C42.6149 9.61455 42.5435 9.14979 42.1963 9.09307C41.9699 9.05608 41.7399 9.02981 41.5067 9.01481C41.354 9.00499 41.2 9 41.0447 9C37.154 9 34 12.134 34 16C34 19.866 37.154 23 41.0447 23C43.2587 23 45.2342 21.9852 46.5256 20.3981C46.6724 20.2178 46.8103 20.0301 46.9387 19.8356C47.1217 19.5585 46.8679 19.2066 46.5345 19.1961C46.3425 19.19 46.1493 19.1697 45.9562 19.1359Z" stroke="white" stroke-width="1.5"/>
<defs>
<filter id="filter0_ddd_969_13524" x="22" y="0" width="36" height="36" filterUnits="userSpaceOnUse" color-interpolation-filters="sRGB">
<feFlood flood-opacity="0" result="BackgroundImageFix"/>
<feColorMatrix in="SourceAlpha" type="matrix" values="0 0 0 0 0 0 0 0 0 0 0 0 0 0 0 0 0 0 127 0" result="hardAlpha"/>
<feOffset dy="1"/>
<feGaussianBlur stdDeviation="1.5"/>
<feColorMatrix type="matrix" values="0 0 0 0 0 0 0 0 0 0 0 0 0 0 0 0 0 0 0.1 0"/>
<feBlend mode="normal" in2="BackgroundImageFix" result="effect1_dropShadow_969_13524"/>
<feColorMatrix in="SourceAlpha" type="matrix" values="0 0 0 0 0 0 0 0 0 0 0 0 0 0 0 0 0 0 127 0" result="hardAlpha"/>
<feOffset dy="1"/>
<feGaussianBlur stdDeviation="1"/>
<feColorMatrix type="matrix" values="0 0 0 0 0 0 0 0 0 0 0 0 0 0 0 0 0 0 0.1 0"/>
<feBlend mode="normal" in2="effect1_dropShadow_969_13524" result="effect2_dropShadow_969_13524"/>
<feColorMatrix in="SourceAlpha" type="matrix" values="0 0 0 0 0 0 0 0 0 0 0 0 0 0 0 0 0 0 127 0" result="hardAlpha"/>
<feOffset dy="2"/>
<feGaussianBlur stdDeviation="2"/>
<feColorMatrix type="matrix" values="0 0 0 0 0 0 0 0 0 0 0 0 0 0 0 0 0 0 0.1 0"/>
<feBlend mode="normal" in2="effect2_dropShadow_969_13524" result="effect3_dropShadow_969_13524"/>
<feBlend mode="normal" in="SourceGraphic" in2="effect3_dropShadow_969_13524" result="shape"/>
</filter>
</defs>
</svg>
