<svg width="184" height="184" viewBox="0 0 214 214" fill="none" xmlns="http://www.w3.org/2000/svg">
<rect width="214" height="214" rx="16" fill="#DFEBF1"/>
<path d="M97.0337 101.664L88.082 124.598C87.8204 125.186 88.0166 125.84 88.4089 126.297L89.5196 127.408L105.397 111.531C104.678 110.289 104.809 108.655 105.92 107.61C107.161 106.369 109.252 106.369 110.493 107.61C111.735 108.852 111.735 110.943 110.493 112.184C109.448 113.229 107.815 113.425 106.573 112.707L90.6956 128.65L91.8063 129.76C92.2635 130.218 92.917 130.348 93.5053 130.087L116.44 121.07C118.335 120.351 119.773 118.848 120.361 116.888L124.543 104.408C124.869 103.428 124.608 102.317 123.889 101.598L116.571 94.2803C115.852 93.5616 114.742 93.3 113.761 93.627L101.216 97.7434C99.3211 98.3968 97.8183 99.8343 97.034 101.664L97.0337 101.664Z" fill="black"/>
<path d="M119.185 83.2381L134.866 98.9194C135.258 99.3113 135.258 99.8997 134.866 100.226L131.534 103.558C130.619 104.473 129.182 104.473 128.333 103.558L114.546 89.8368C113.631 88.9219 113.631 87.4843 114.546 86.6353L117.878 83.303C118.27 82.9107 118.858 82.9107 119.185 83.2372L119.185 83.2381Z" fill="black"/>
<path d="M87.952 131.002C87.7559 131.002 83.574 130.937 81.4178 127.474C79.3273 124.141 79.9152 118.914 83.2476 111.923C85.0116 108.199 84.2928 105.062 83.0515 103.429C82.0712 102.187 80.699 101.599 79.2615 101.795L79 100.227C81.0909 99.9 83.0511 100.684 84.3578 102.449C86.318 104.997 86.4487 108.917 84.6847 112.576C81.6789 118.914 81.0255 123.749 82.7899 126.559C84.489 129.238 87.952 129.304 87.952 129.304L87.952 131.002Z" fill="black"/>
</svg>
