<svg width="230" height="32" viewBox="0 0 275 39" fill="none" xmlns="http://www.w3.org/2000/svg">
<path d="M1.116 17.9205C1.116 15.8565 1.452 14.2485 2.124 13.0965C2.796 11.9325 3.972 11.3505 5.652 11.3505C7.32 11.3505 8.49 11.9325 9.162 13.0965C9.834 14.2485 10.17 15.8565 10.17 17.9205C10.17 20.0205 9.834 21.6525 9.162 22.8165C8.49 23.9805 7.32 24.5625 5.652 24.5625C3.972 24.5625 2.796 23.9805 2.124 22.8165C1.452 21.6525 1.116 20.0205 1.116 17.9205ZM8.55 17.9205C8.55 16.8765 8.478 15.9945 8.334 15.2745C8.202 14.5425 7.92 13.9545 7.488 13.5105C7.068 13.0665 6.456 12.8445 5.652 12.8445C4.836 12.8445 4.212 13.0665 3.78 13.5105C3.36 13.9545 3.078 14.5425 2.934 15.2745C2.802 15.9945 2.736 16.8765 2.736 17.9205C2.736 19.0005 2.802 19.9065 2.934 20.6385C3.078 21.3705 3.36 21.9585 3.78 22.4025C4.212 22.8465 4.836 23.0685 5.652 23.0685C6.456 23.0685 7.068 22.8465 7.488 22.4025C7.92 21.9585 8.202 21.3705 8.334 20.6385C8.478 19.9065 8.55 19.0005 8.55 17.9205ZM12.3827 14.8245C12.4667 13.7205 12.8927 12.8565 13.6607 12.2325C14.4287 11.6085 15.4247 11.2965 16.6487 11.2965C17.4647 11.2965 18.1667 11.4465 18.7547 11.7465C19.3547 12.0345 19.8047 12.4305 20.1047 12.9345C20.4167 13.4385 20.5727 14.0085 20.5727 14.6445C20.5727 15.3885 20.3567 16.0305 19.9247 16.5705C19.5047 17.1105 18.9527 17.4585 18.2687 17.6145V17.7045C19.0487 17.8965 19.6667 18.2745 20.1227 18.8385C20.5787 19.4025 20.8067 20.1405 20.8067 21.0525C20.8067 21.7365 20.6507 22.3545 20.3387 22.9065C20.0267 23.4465 19.5587 23.8725 18.9347 24.1845C18.3107 24.4965 17.5607 24.6525 16.6847 24.6525C15.4127 24.6525 14.3687 24.3225 13.5527 23.6625C12.7367 22.9905 12.2807 22.0425 12.1847 20.8185H13.7687C13.8527 21.5385 14.1467 22.1265 14.6507 22.5825C15.1547 23.0385 15.8267 23.2665 16.6667 23.2665C17.5067 23.2665 18.1427 23.0505 18.5747 22.6185C19.0187 22.1745 19.2407 21.6045 19.2407 20.9085C19.2407 20.0085 18.9407 19.3605 18.3407 18.9645C17.7407 18.5685 16.8347 18.3705 15.6227 18.3705H15.2087V17.0025H15.6407C16.7447 16.9905 17.5787 16.8105 18.1427 16.4625C18.7067 16.1025 18.9887 15.5505 18.9887 14.8065C18.9887 14.1705 18.7787 13.6605 18.3587 13.2765C17.9507 12.8925 17.3627 12.7005 16.5947 12.7005C15.8507 12.7005 15.2507 12.8925 14.7947 13.2765C14.3387 13.6605 14.0687 14.1765 13.9847 14.8245H12.3827Z" fill="#9E9D9B"/>
<path d="M40.1211 24.4688C39.4883 24.4688 39.1719 24.2891 39.1719 23.9297V8.82422C39.1719 8.46484 39.4883 8.28516 40.1211 8.28516H47.375C48.6094 8.28516 49.7383 8.67188 50.7617 9.44531C51.793 10.2109 52.3086 11.2539 52.3086 12.5742C52.3086 13.7148 51.8984 14.668 51.0781 15.4336C50.2578 16.1914 49.3125 16.6484 48.2422 16.8047C48.7109 17.1953 49.0938 17.668 49.3906 18.2227C49.6953 18.7773 49.9805 19.3594 50.2461 19.9688C50.5664 20.6797 50.918 21.3711 51.3008 22.043C51.6836 22.707 52.1953 23.2031 52.8359 23.5312C53.0469 23.6406 53.1523 23.7734 53.1523 23.9297C53.1523 24.0625 53.0703 24.1797 52.9062 24.2812C52.7188 24.3984 52.4844 24.457 52.2031 24.457C51.9453 24.457 51.7344 24.4141 51.5703 24.3281C50.7031 23.8906 50.0469 23.2969 49.6016 22.5469C49.1562 21.7891 48.7539 21.0117 48.3945 20.2148C48.0195 19.3711 47.6133 18.6016 47.1758 17.9062C46.7383 17.2109 46.1094 16.8633 45.2891 16.8633H41.082V23.9297C41.082 24.2891 40.7617 24.4688 40.1211 24.4688ZM47.375 15.7969C49.3906 15.7969 50.3984 14.7227 50.3984 12.5742C50.3984 10.4258 49.3906 9.35156 47.375 9.35156H41.082V15.7969H47.375ZM60.4297 24.4688C58.6719 24.4688 57.2148 23.9336 56.0586 22.8633C54.9102 21.7852 54.3359 20.3516 54.3359 18.5625C54.3359 16.75 54.918 15.2812 56.082 14.1562C57.2539 13.0312 58.7344 12.4688 60.5234 12.4688C62.2031 12.4688 63.6328 12.9258 64.8125 13.8398C66 14.7539 66.5938 16.0977 66.5938 17.8711C66.5938 18.293 66.2773 18.5039 65.6445 18.5039H56.2344C56.2344 19.7539 56.5938 20.8828 57.3125 21.8906C58.0391 22.8984 59.082 23.4023 60.4414 23.4023C61.4336 23.4023 62.3203 23.1367 63.1016 22.6055C63.9453 22.043 64.4023 21.3984 64.4727 20.6719C64.5117 20.3359 64.8242 20.168 65.4102 20.168C66.0508 20.168 66.3711 20.3438 66.3711 20.6953C66.3711 20.9453 66.2852 21.25 66.1133 21.6094C65.8008 22.2656 65.2852 22.8281 64.5664 23.2969C63.3945 24.0781 62.0156 24.4688 60.4297 24.4688ZM64.6719 17.4258C64.4766 14.832 63.0938 13.5352 60.5234 13.5352C58.2266 13.5352 56.832 14.832 56.3398 17.4258H64.6719ZM78.8984 24.4688C77.9844 24.4688 77.3789 23.9102 77.082 22.793C76.0977 23.9102 74.6445 24.4688 72.7227 24.4688C71.543 24.4688 70.5312 24.2305 69.6875 23.7539C68.6016 23.1523 68.0586 22.2734 68.0586 21.1172C68.0586 20.2812 68.293 19.6094 68.7617 19.1016C69.2383 18.5859 69.8633 18.2578 70.6367 18.1172C71.418 17.9688 72.1875 17.8945 72.9453 17.8945C73.1953 17.8945 73.4766 17.9023 73.7891 17.918C74.1094 17.9336 74.4336 17.9414 74.7617 17.9414C75.7383 17.9414 76.4336 17.8125 76.8477 17.5547V16.3711C76.8477 14.4805 75.7539 13.5352 73.5664 13.5352C72.7461 13.5352 72.0195 13.7422 71.3867 14.1562C70.668 14.625 70.3086 15.1875 70.3086 15.8438C70.3086 16.2031 69.9922 16.3828 69.3594 16.3828C68.7266 16.3828 68.4102 16.2031 68.4102 15.8438C68.4258 14.9297 68.9336 14.1367 69.9336 13.4648C70.9258 12.8008 72.1367 12.4688 73.5664 12.4688C74.7773 12.4688 75.9453 12.7656 77.0703 13.3594C78.1953 13.9531 78.7578 14.957 78.7578 16.3711V21.5156C78.7578 22.0938 78.832 22.5508 78.9805 22.8867C79.1211 23.1836 79.3242 23.4102 79.5898 23.5664C79.7617 23.668 79.8477 23.7891 79.8477 23.9297C79.8477 24.2891 79.5312 24.4688 78.8984 24.4688ZM72.7227 23.4023C73.6445 23.4023 74.5625 23.125 75.4766 22.5703C76.3906 22.0156 76.8477 21.2188 76.8477 20.1797V18.8438C76.3398 18.9531 75.7266 19.0078 75.0078 19.0078C74.6484 19.0078 74.2891 19 73.9297 18.9844C73.5703 18.9609 73.2109 18.9492 72.8516 18.9492C72.3828 18.9414 71.8945 18.9883 71.3867 19.0898C70.8789 19.1836 70.4961 19.4609 70.2383 19.9219C70.043 20.2656 69.9453 20.6523 69.9453 21.082C69.9609 21.8398 70.2383 22.4219 70.7773 22.8281C71.2617 23.2109 71.9102 23.4023 72.7227 23.4023ZM81.0195 8.53125C81.0195 8.17969 81.3398 8.00391 81.9805 8.00391C82.6133 8.00391 82.9297 8.17969 82.9297 8.53125V23.9414C82.9297 24.293 82.6133 24.4688 81.9805 24.4688C81.3398 24.4688 81.0195 24.293 81.0195 23.9414V8.53125ZM90.8516 8.8125C90.8516 8.46094 91.168 8.28516 91.8008 8.28516H102.418C103.051 8.28516 103.367 8.46094 103.367 8.8125C103.367 9.17188 103.051 9.35156 102.418 9.35156H92.7617V15.6914H101.023C101.664 15.6914 101.984 15.8711 101.984 16.2305C101.984 16.5898 101.664 16.7695 101.023 16.7695H92.7617V23.1211H102.418C103.051 23.1211 103.367 23.3008 103.367 23.6602C103.367 24.0117 103.051 24.1875 102.418 24.1875H91.8008C91.168 24.1875 90.8516 24.0117 90.8516 23.6602V8.8125ZM109.895 24.4688C108.84 24.4688 107.797 24.2344 106.766 23.7656C105.742 23.2891 105.117 22.4844 104.891 21.3516C104.859 21.2109 104.844 21.1055 104.844 21.0352C104.844 20.6914 105.168 20.5195 105.816 20.5195C106.355 20.5195 106.664 20.6719 106.742 20.9766C107.164 22.5938 108.215 23.4023 109.895 23.4023C110.598 23.4023 111.285 23.1914 111.957 22.7695C112.637 22.3477 112.977 21.7344 112.977 20.9297C112.977 20.4141 112.609 19.9961 111.875 19.6758C111.391 19.457 110.75 19.2891 109.953 19.1719C109.375 19.0859 108.793 18.9922 108.207 18.8906C107.621 18.7891 107.066 18.5625 106.543 18.2109C105.598 17.5703 105.125 16.7461 105.125 15.7383C105.125 14.5742 105.684 13.7383 106.801 13.2305C107.918 12.7227 108.961 12.4688 109.93 12.4688C110.891 12.4688 111.82 12.6875 112.719 13.125C113.617 13.5625 114.211 14.2695 114.5 15.2461C114.539 15.3789 114.559 15.4727 114.559 15.5273C114.559 15.8555 114.238 16.0195 113.598 16.0195C113.043 16.0195 112.73 15.8711 112.66 15.5742C112.324 14.2148 111.414 13.5352 109.93 13.5352C109.297 13.5352 108.656 13.7148 108.008 14.0742C107.359 14.4258 107.035 14.9688 107.035 15.7031C107.035 16.2109 107.445 16.6289 108.266 16.957C108.781 17.168 109.41 17.332 110.152 17.4492C110.707 17.5273 111.27 17.625 111.84 17.7422C112.41 17.8516 112.961 18.0781 113.492 18.4219C114.414 19.0234 114.875 19.8359 114.875 20.8594C114.875 22.1172 114.316 23.0352 113.199 23.6133C112.09 24.1836 110.988 24.4688 109.895 24.4688ZM121.953 24.4688C119.484 24.4531 118.25 23.4023 118.25 21.3164V13.5352H116.703C116.07 13.5352 115.754 13.3594 115.754 13.0078C115.754 12.6484 116.07 12.4688 116.703 12.4688H118.25V8.54297C118.25 8.18359 118.57 8.00391 119.211 8.00391C119.844 8.00391 120.16 8.18359 120.16 8.54297V12.4688H122.363C123.004 12.4688 123.324 12.6484 123.324 13.0078C123.324 13.3594 123.004 13.5352 122.363 13.5352H120.16V21.3164C120.16 22.6992 120.758 23.3945 121.953 23.4023C122.18 23.4023 122.395 23.3828 122.598 23.3438C122.801 23.2969 123.004 23.2734 123.207 23.2734C123.855 23.2734 124.18 23.4531 124.18 23.8125C124.18 24.0703 123.906 24.2461 123.359 24.3398C122.891 24.4258 122.422 24.4688 121.953 24.4688ZM135.617 24.4688C134.703 24.4688 134.098 23.9102 133.801 22.793C132.816 23.9102 131.363 24.4688 129.441 24.4688C128.262 24.4688 127.25 24.2305 126.406 23.7539C125.32 23.1523 124.777 22.2734 124.777 21.1172C124.777 20.2812 125.012 19.6094 125.48 19.1016C125.957 18.5859 126.582 18.2578 127.355 18.1172C128.137 17.9688 128.906 17.8945 129.664 17.8945C129.914 17.8945 130.195 17.9023 130.508 17.918C130.828 17.9336 131.152 17.9414 131.48 17.9414C132.457 17.9414 133.152 17.8125 133.566 17.5547V16.3711C133.566 14.4805 132.473 13.5352 130.285 13.5352C129.465 13.5352 128.738 13.7422 128.105 14.1562C127.387 14.625 127.027 15.1875 127.027 15.8438C127.027 16.2031 126.711 16.3828 126.078 16.3828C125.445 16.3828 125.129 16.2031 125.129 15.8438C125.145 14.9297 125.652 14.1367 126.652 13.4648C127.645 12.8008 128.855 12.4688 130.285 12.4688C131.496 12.4688 132.664 12.7656 133.789 13.3594C134.914 13.9531 135.477 14.957 135.477 16.3711V21.5156C135.477 22.0938 135.551 22.5508 135.699 22.8867C135.84 23.1836 136.043 23.4102 136.309 23.5664C136.48 23.668 136.566 23.7891 136.566 23.9297C136.566 24.2891 136.25 24.4688 135.617 24.4688ZM129.441 23.4023C130.363 23.4023 131.281 23.125 132.195 22.5703C133.109 22.0156 133.566 21.2188 133.566 20.1797V18.8438C133.059 18.9531 132.445 19.0078 131.727 19.0078C131.367 19.0078 131.008 19 130.648 18.9844C130.289 18.9609 129.93 18.9492 129.57 18.9492C129.102 18.9414 128.613 18.9883 128.105 19.0898C127.598 19.1836 127.215 19.4609 126.957 19.9219C126.762 20.2656 126.664 20.6523 126.664 21.082C126.68 21.8398 126.957 22.4219 127.496 22.8281C127.98 23.2109 128.629 23.4023 129.441 23.4023ZM143.352 24.4688C140.883 24.4531 139.648 23.4023 139.648 21.3164V13.5352H138.102C137.469 13.5352 137.152 13.3594 137.152 13.0078C137.152 12.6484 137.469 12.4688 138.102 12.4688H139.648V8.54297C139.648 8.18359 139.969 8.00391 140.609 8.00391C141.242 8.00391 141.559 8.18359 141.559 8.54297V12.4688H143.762C144.402 12.4688 144.723 12.6484 144.723 13.0078C144.723 13.3594 144.402 13.5352 143.762 13.5352H141.559V21.3164C141.559 22.6992 142.156 23.3945 143.352 23.4023C143.578 23.4023 143.793 23.3828 143.996 23.3438C144.199 23.2969 144.402 23.2734 144.605 23.2734C145.254 23.2734 145.578 23.4531 145.578 23.8125C145.578 24.0703 145.305 24.2461 144.758 24.3398C144.289 24.4258 143.82 24.4688 143.352 24.4688ZM151.977 24.4688C150.219 24.4688 148.762 23.9336 147.605 22.8633C146.457 21.7852 145.883 20.3516 145.883 18.5625C145.883 16.75 146.465 15.2812 147.629 14.1562C148.801 13.0312 150.281 12.4688 152.07 12.4688C153.75 12.4688 155.18 12.9258 156.359 13.8398C157.547 14.7539 158.141 16.0977 158.141 17.8711C158.141 18.293 157.824 18.5039 157.191 18.5039H147.781C147.781 19.7539 148.141 20.8828 148.859 21.8906C149.586 22.8984 150.629 23.4023 151.988 23.4023C152.98 23.4023 153.867 23.1367 154.648 22.6055C155.492 22.043 155.949 21.3984 156.02 20.6719C156.059 20.3359 156.371 20.168 156.957 20.168C157.598 20.168 157.918 20.3438 157.918 20.6953C157.918 20.9453 157.832 21.25 157.66 21.6094C157.348 22.2656 156.832 22.8281 156.113 23.2969C154.941 24.0781 153.562 24.4688 151.977 24.4688ZM156.219 17.4258C156.023 14.832 154.641 13.5352 152.07 13.5352C149.773 13.5352 148.379 14.832 147.887 17.4258H156.219Z" fill="#0A0A0A"/>
<path d="M243.75 18.75C243.75 18.4185 243.882 18.1005 244.116 17.8661C244.351 17.6317 244.669 17.5 245 17.5L261.988 17.5L260.363 15.8875C260.127 15.6521 259.995 15.3329 259.995 15C259.995 14.6671 260.127 14.3479 260.363 14.1125C260.598 13.8771 260.917 13.7449 261.25 13.7449C261.583 13.7449 261.902 13.8771 262.138 14.1125L265.888 17.8625C266.061 18.0383 266.179 18.2615 266.225 18.504C266.272 18.7465 266.246 18.9973 266.15 19.225C266.057 19.4533 265.897 19.6487 265.693 19.7866C265.488 19.9245 265.247 19.9988 265 20L245 20C244.669 20 244.351 19.8683 244.116 19.6339C243.882 19.3994 243.75 19.0815 243.75 18.75Z" fill="#9E9D9B"/>
<path d="M260.001 22.5C260 22.3355 260.031 22.1724 260.094 22.0201C260.156 21.8678 260.247 21.7293 260.363 21.6125L264.113 17.8625C264.349 17.6271 264.668 17.4949 265.001 17.4949C265.166 17.4949 265.329 17.5273 265.481 17.5904C265.633 17.6535 265.772 17.7459 265.888 17.8625C266.005 17.979 266.097 18.1174 266.16 18.2697C266.223 18.422 266.256 18.5852 266.256 18.75C266.256 19.0829 266.124 19.4021 265.888 19.6375L262.138 23.3875C262.022 23.5046 261.884 23.5976 261.731 23.6611C261.579 23.7246 261.416 23.7572 261.251 23.7572C261.086 23.7572 260.922 23.7246 260.77 23.6611C260.618 23.5976 260.479 23.5046 260.363 23.3875C260.247 23.2707 260.156 23.1322 260.094 22.9799C260.031 22.8276 260 22.6645 260.001 22.5Z" fill="#9E9D9B"/>
</svg>
