<svg width="280" height="34" viewBox="0 0 350 39" fill="none" xmlns="http://www.w3.org/2000/svg">
<path d="M1.116 17.733C1.116 15.669 1.452 14.061 2.124 12.909C2.796 11.745 3.972 11.163 5.652 11.163C7.32 11.163 8.49 11.745 9.162 12.909C9.834 14.061 10.17 15.669 10.17 17.733C10.17 19.833 9.834 21.465 9.162 22.629C8.49 23.793 7.32 24.375 5.652 24.375C3.972 24.375 2.796 23.793 2.124 22.629C1.452 21.465 1.116 19.833 1.116 17.733ZM8.55 17.733C8.55 16.689 8.478 15.807 8.334 15.087C8.202 14.355 7.92 13.767 7.488 13.323C7.068 12.879 6.456 12.657 5.652 12.657C4.836 12.657 4.212 12.879 3.78 13.323C3.36 13.767 3.078 14.355 2.934 15.087C2.802 15.807 2.736 16.689 2.736 17.733C2.736 18.813 2.802 19.719 2.934 20.451C3.078 21.183 3.36 21.771 3.78 22.215C4.212 22.659 4.836 22.881 5.652 22.881C6.456 22.881 7.068 22.659 7.488 22.215C7.92 21.771 8.202 21.183 8.334 20.451C8.478 19.719 8.55 18.813 8.55 17.733ZM11.9867 12.855V11.361H15.3707V24.375H13.7147V12.855H11.9867Z" fill="#9E9D9B"/>
<path d="M47.9453 19.8047C47.9453 21.3125 47.2461 22.5 45.8477 23.3672C44.457 24.2266 42.9219 24.6562 41.2422 24.6562C39.8281 24.6562 38.4414 24.3242 37.082 23.6602C35.7305 22.9883 34.9141 21.8867 34.6328 20.3555C34.6016 20.1836 34.5859 20.0781 34.5859 20.0391C34.5859 19.6953 34.9141 19.5234 35.5703 19.5234C36.1016 19.5234 36.4062 19.6758 36.4844 19.9805C37.1172 22.4102 38.7305 23.6133 41.3242 23.5898C42.3711 23.5742 43.418 23.2578 44.4648 22.6406C45.5117 22.0156 46.0352 21.1055 46.0352 19.9102C46.0352 19.0508 45.5156 18.3789 44.4766 17.8945C43.7109 17.5352 42.7461 17.293 41.582 17.168C40.8789 17.0977 40.1367 16.9844 39.3555 16.8281C38.582 16.6641 37.8711 16.4141 37.2227 16.0781C35.7383 15.3125 34.9961 14.1367 34.9961 12.5508C34.9961 10.9727 35.7305 9.85156 37.1992 9.1875C38.668 8.52344 40.0547 8.19141 41.3594 8.19141C42.6641 8.19141 43.9062 8.49219 45.0859 9.09375C46.2734 9.69531 47.0547 10.6641 47.4297 12C47.4766 12.1641 47.5 12.2656 47.5 12.3047C47.5 12.625 47.168 12.7852 46.5039 12.7852C45.9727 12.7852 45.668 12.6289 45.5898 12.3164C45.1211 10.2773 43.7148 9.25781 41.3711 9.25781C40.3867 9.25781 39.3945 9.51562 38.3945 10.0312C37.4023 10.5391 36.9062 11.375 36.9062 12.5391C36.9062 13.3594 37.4805 14.0234 38.6289 14.5312C39.1602 14.7578 39.7188 14.9297 40.3047 15.0469C40.8906 15.1641 41.3789 15.2422 41.7695 15.2812C42.543 15.3594 43.3281 15.4844 44.125 15.6562C44.9219 15.8281 45.625 16.1094 46.2344 16.5C47.375 17.25 47.9453 18.3516 47.9453 19.8047ZM59.5234 24.6562C58.8906 24.6562 58.5742 24.4805 58.5742 24.1289V17.9062C58.5742 16.5156 58.2266 15.4727 57.5312 14.7773C56.8359 14.082 56.0664 13.7344 55.2227 13.7344C52.8164 13.7188 51.6133 15.2266 51.6133 18.2578V24.1289C51.6133 24.4805 51.2969 24.6562 50.6641 24.6562C50.0234 24.6562 49.7031 24.4805 49.7031 24.1289V8.71875C49.7031 8.36719 50.0234 8.19141 50.6641 8.19141C51.2969 8.19141 51.6133 8.36719 51.6133 8.71875V14.5195C52.3086 13.2695 53.5586 12.6445 55.3633 12.6445C56.8789 12.6445 58.1094 13.1484 59.0547 14.1562C60.0078 15.1641 60.4844 16.4141 60.4844 17.9062V24.1289C60.4844 24.4805 60.1641 24.6562 59.5234 24.6562ZM67.8086 12.6562C69.6133 12.6562 71.0898 13.2109 72.2383 14.3203C73.3867 15.4297 73.9609 16.875 73.9609 18.6562C73.9609 20.4375 73.3867 21.8828 72.2383 22.9922C71.0898 24.1016 69.6133 24.6562 67.8086 24.6562C66.0039 24.6562 64.5273 24.1016 63.3789 22.9922C62.2305 21.8828 61.6562 20.4375 61.6562 18.6562C61.6562 16.875 62.2305 15.4297 63.3789 14.3203C64.5273 13.2109 66.0039 12.6562 67.8086 12.6562ZM67.8086 13.7227C66.4414 13.7227 65.3906 14.2344 64.6562 15.2578C63.9297 16.2812 63.5664 17.4141 63.5664 18.6562C63.5664 19.8984 63.9297 21.0312 64.6562 22.0547C65.3906 23.0781 66.4414 23.5898 67.8086 23.5898C69.1758 23.5898 70.2227 23.0781 70.9492 22.0547C71.6836 21.0312 72.0508 19.8984 72.0508 18.6562C72.0508 17.4141 71.6836 16.2812 70.9492 15.2578C70.2227 14.2344 69.1758 13.7227 67.8086 13.7227ZM76.6797 24.6562C76.0391 24.6562 75.7188 24.4766 75.7188 24.1172V13.1953C75.7188 12.8359 76.0391 12.6562 76.6797 12.6562C77.3125 12.6562 77.6289 12.8359 77.6289 13.1953V14.4961C78.1914 13.2695 79.2148 12.6562 80.6992 12.6562C81.5742 12.6562 82.332 12.8672 82.9727 13.2891C83.1289 13.3906 83.207 13.5156 83.207 13.6641C83.207 13.8438 83.1016 14.0117 82.8906 14.168C82.7266 14.2852 82.543 14.3438 82.3398 14.3438C82.0664 14.3438 81.8125 14.2461 81.5781 14.0508C81.3438 13.8477 80.9727 13.7461 80.4648 13.7461C79.3477 13.7461 78.5938 14.2812 78.2031 15.3516C77.8203 16.4219 77.6289 17.4219 77.6289 18.3516V24.1172C77.6289 24.4766 77.3125 24.6562 76.6797 24.6562ZM89.9922 24.6562C87.5234 24.6406 86.2891 23.5898 86.2891 21.5039V13.7227H84.7422C84.1094 13.7227 83.793 13.5469 83.793 13.1953C83.793 12.8359 84.1094 12.6562 84.7422 12.6562H86.2891V8.73047C86.2891 8.37109 86.6094 8.19141 87.25 8.19141C87.8828 8.19141 88.1992 8.37109 88.1992 8.73047V12.6562H90.4023C91.043 12.6562 91.3633 12.8359 91.3633 13.1953C91.3633 13.5469 91.043 13.7227 90.4023 13.7227H88.1992V21.5039C88.1992 22.8867 88.7969 23.582 89.9922 23.5898C90.2188 23.5898 90.4336 23.5703 90.6367 23.5312C90.8398 23.4844 91.043 23.4609 91.2461 23.4609C91.8945 23.4609 92.2188 23.6406 92.2188 24C92.2188 24.2578 91.9453 24.4336 91.3984 24.5273C90.9297 24.6133 90.4609 24.6562 89.9922 24.6562ZM93.4023 8.71875C93.4023 8.36719 93.7227 8.19141 94.3633 8.19141C94.9961 8.19141 95.3125 8.36719 95.3125 8.71875V24.1289C95.3125 24.4805 94.9961 24.6562 94.3633 24.6562C93.7227 24.6562 93.4023 24.4805 93.4023 24.1289V8.71875ZM102.883 24.6562C101.125 24.6562 99.668 24.1211 98.5117 23.0508C97.3633 21.9727 96.7891 20.5391 96.7891 18.75C96.7891 16.9375 97.3711 15.4688 98.5352 14.3438C99.707 13.2188 101.188 12.6562 102.977 12.6562C104.656 12.6562 106.086 13.1133 107.266 14.0273C108.453 14.9414 109.047 16.2852 109.047 18.0586C109.047 18.4805 108.73 18.6914 108.098 18.6914H98.6875C98.6875 19.9414 99.0469 21.0703 99.7656 22.0781C100.492 23.0859 101.535 23.5898 102.895 23.5898C103.887 23.5898 104.773 23.3242 105.555 22.793C106.398 22.2305 106.855 21.5859 106.926 20.8594C106.965 20.5234 107.277 20.3555 107.863 20.3555C108.504 20.3555 108.824 20.5312 108.824 20.8828C108.824 21.1328 108.738 21.4375 108.566 21.7969C108.254 22.4531 107.738 23.0156 107.02 23.4844C105.848 24.2656 104.469 24.6562 102.883 24.6562ZM107.125 17.6133C106.93 15.0195 105.547 13.7227 102.977 13.7227C100.68 13.7227 99.2852 15.0195 98.793 17.6133H107.125ZM116.125 24.6562C113.656 24.6406 112.422 23.5898 112.422 21.5039V13.7227H110.875C110.242 13.7227 109.926 13.5469 109.926 13.1953C109.926 12.8359 110.242 12.6562 110.875 12.6562H112.422V8.73047C112.422 8.37109 112.742 8.19141 113.383 8.19141C114.016 8.19141 114.332 8.37109 114.332 8.73047V12.6562H116.535C117.176 12.6562 117.496 12.8359 117.496 13.1953C117.496 13.5469 117.176 13.7227 116.535 13.7227H114.332V21.5039C114.332 22.8867 114.93 23.582 116.125 23.5898C116.352 23.5898 116.566 23.5703 116.77 23.5312C116.973 23.4844 117.176 23.4609 117.379 23.4609C118.027 23.4609 118.352 23.6406 118.352 24C118.352 24.2578 118.078 24.4336 117.531 24.5273C117.062 24.6133 116.594 24.6562 116.125 24.6562ZM136.234 24.6562C135.32 24.6562 134.715 24.0977 134.418 22.9805C133.434 24.0977 131.98 24.6562 130.059 24.6562C128.879 24.6562 127.867 24.418 127.023 23.9414C125.938 23.3398 125.395 22.4609 125.395 21.3047C125.395 20.4688 125.629 19.7969 126.098 19.2891C126.574 18.7734 127.199 18.4453 127.973 18.3047C128.754 18.1562 129.523 18.082 130.281 18.082C130.531 18.082 130.812 18.0898 131.125 18.1055C131.445 18.1211 131.77 18.1289 132.098 18.1289C133.074 18.1289 133.77 18 134.184 17.7422V16.5586C134.184 14.668 133.09 13.7227 130.902 13.7227C130.082 13.7227 129.355 13.9297 128.723 14.3438C128.004 14.8125 127.645 15.375 127.645 16.0312C127.645 16.3906 127.328 16.5703 126.695 16.5703C126.062 16.5703 125.746 16.3906 125.746 16.0312C125.762 15.1172 126.27 14.3242 127.27 13.6523C128.262 12.9883 129.473 12.6562 130.902 12.6562C132.113 12.6562 133.281 12.9531 134.406 13.5469C135.531 14.1406 136.094 15.1445 136.094 16.5586V21.7031C136.094 22.2812 136.168 22.7383 136.316 23.0742C136.457 23.3711 136.66 23.5977 136.926 23.7539C137.098 23.8555 137.184 23.9766 137.184 24.1172C137.184 24.4766 136.867 24.6562 136.234 24.6562ZM130.059 23.5898C130.98 23.5898 131.898 23.3125 132.812 22.7578C133.727 22.2031 134.184 21.4062 134.184 20.3672V19.0312C133.676 19.1406 133.062 19.1953 132.344 19.1953C131.984 19.1953 131.625 19.1875 131.266 19.1719C130.906 19.1484 130.547 19.1367 130.188 19.1367C129.719 19.1289 129.23 19.1758 128.723 19.2773C128.215 19.3711 127.832 19.6484 127.574 20.1094C127.379 20.4531 127.281 20.8398 127.281 21.2695C127.297 22.0273 127.574 22.6094 128.113 23.0156C128.598 23.3984 129.246 23.5898 130.059 23.5898ZM144.414 24.6562C142.664 24.6562 141.379 24.0703 140.559 22.8984V28.582C140.559 28.9336 140.242 29.1094 139.609 29.1094C138.969 29.1094 138.648 28.9336 138.648 28.582V13.1719C138.648 12.8203 138.969 12.6445 139.609 12.6445C140.242 12.6445 140.559 12.8203 140.559 13.1719V14.4141C141.379 13.2422 142.664 12.6562 144.414 12.6562C146.203 12.6562 147.609 13.2305 148.633 14.3789C149.664 15.5273 150.18 16.9531 150.18 18.6562C150.18 20.3516 149.664 21.7773 148.633 22.9336C147.609 24.082 146.203 24.6562 144.414 24.6562ZM144.414 23.5898C145.719 23.5898 146.688 23.0508 147.32 21.9727C147.953 20.8945 148.27 19.7891 148.27 18.6562C148.27 17.5156 147.953 16.4102 147.32 15.3398C146.688 14.2617 145.719 13.7227 144.414 13.7227C143.117 13.7227 142.148 14.2617 141.508 15.3398C140.875 16.4102 140.559 17.5156 140.559 18.6562C140.559 19.7891 140.875 20.8945 141.508 21.9727C142.148 23.0508 143.117 23.5898 144.414 23.5898ZM162.484 24.6562C161.57 24.6562 160.965 24.0977 160.668 22.9805C159.684 24.0977 158.23 24.6562 156.309 24.6562C155.129 24.6562 154.117 24.418 153.273 23.9414C152.188 23.3398 151.645 22.4609 151.645 21.3047C151.645 20.4688 151.879 19.7969 152.348 19.2891C152.824 18.7734 153.449 18.4453 154.223 18.3047C155.004 18.1562 155.773 18.082 156.531 18.082C156.781 18.082 157.062 18.0898 157.375 18.1055C157.695 18.1211 158.02 18.1289 158.348 18.1289C159.324 18.1289 160.02 18 160.434 17.7422V16.5586C160.434 14.668 159.34 13.7227 157.152 13.7227C156.332 13.7227 155.605 13.9297 154.973 14.3438C154.254 14.8125 153.895 15.375 153.895 16.0312C153.895 16.3906 153.578 16.5703 152.945 16.5703C152.312 16.5703 151.996 16.3906 151.996 16.0312C152.012 15.1172 152.52 14.3242 153.52 13.6523C154.512 12.9883 155.723 12.6562 157.152 12.6562C158.363 12.6562 159.531 12.9531 160.656 13.5469C161.781 14.1406 162.344 15.1445 162.344 16.5586V21.7031C162.344 22.2812 162.418 22.7383 162.566 23.0742C162.707 23.3711 162.91 23.5977 163.176 23.7539C163.348 23.8555 163.434 23.9766 163.434 24.1172C163.434 24.4766 163.117 24.6562 162.484 24.6562ZM156.309 23.5898C157.23 23.5898 158.148 23.3125 159.062 22.7578C159.977 22.2031 160.434 21.4062 160.434 20.3672V19.0312C159.926 19.1406 159.312 19.1953 158.594 19.1953C158.234 19.1953 157.875 19.1875 157.516 19.1719C157.156 19.1484 156.797 19.1367 156.438 19.1367C155.969 19.1289 155.48 19.1758 154.973 19.2773C154.465 19.3711 154.082 19.6484 153.824 20.1094C153.629 20.4531 153.531 20.8398 153.531 21.2695C153.547 22.0273 153.824 22.6094 154.363 23.0156C154.848 23.3984 155.496 23.5898 156.309 23.5898ZM165.859 24.6562C165.219 24.6562 164.898 24.4766 164.898 24.1172V13.1953C164.898 12.8359 165.219 12.6562 165.859 12.6562C166.492 12.6562 166.809 12.8359 166.809 13.1953V14.4961C167.371 13.2695 168.395 12.6562 169.879 12.6562C170.754 12.6562 171.512 12.8672 172.152 13.2891C172.309 13.3906 172.387 13.5156 172.387 13.6641C172.387 13.8438 172.281 14.0117 172.07 14.168C171.906 14.2852 171.723 14.3438 171.52 14.3438C171.246 14.3438 170.992 14.2461 170.758 14.0508C170.523 13.8477 170.152 13.7461 169.645 13.7461C168.527 13.7461 167.773 14.2812 167.383 15.3516C167 16.4219 166.809 17.4219 166.809 18.3516V24.1172C166.809 24.4766 166.492 24.6562 165.859 24.6562ZM179.172 24.6562C176.703 24.6406 175.469 23.5898 175.469 21.5039V13.7227H173.922C173.289 13.7227 172.973 13.5469 172.973 13.1953C172.973 12.8359 173.289 12.6562 173.922 12.6562H175.469V8.73047C175.469 8.37109 175.789 8.19141 176.43 8.19141C177.062 8.19141 177.379 8.37109 177.379 8.73047V12.6562H179.582C180.223 12.6562 180.543 12.8359 180.543 13.1953C180.543 13.5469 180.223 13.7227 179.582 13.7227H177.379V21.5039C177.379 22.8867 177.977 23.582 179.172 23.5898C179.398 23.5898 179.613 23.5703 179.816 23.5312C180.02 23.4844 180.223 23.4609 180.426 23.4609C181.074 23.4609 181.398 23.6406 181.398 24C181.398 24.2578 181.125 24.4336 180.578 24.5273C180.109 24.6133 179.641 24.6562 179.172 24.6562ZM199.785 24.6562C199.152 24.6562 198.836 24.4805 198.836 24.1289V17.8828C198.836 16.8906 198.613 15.957 198.168 15.082C197.723 14.1992 196.93 13.7578 195.789 13.7578C194.656 13.7578 193.871 14.2031 193.434 15.0938C192.996 15.9766 192.777 16.9062 192.777 17.8828V24.1289C192.777 24.4805 192.457 24.6562 191.816 24.6562C191.184 24.6562 190.867 24.4805 190.867 24.1289V17.8828C190.867 16.8906 190.652 15.957 190.223 15.082C189.793 14.1992 189.004 13.7578 187.855 13.7578C186.723 13.7578 185.926 14.2539 185.465 15.2461C185.012 16.2305 184.785 17.2344 184.785 18.2578V24.1172C184.785 24.4766 184.469 24.6562 183.836 24.6562C183.195 24.6562 182.875 24.4766 182.875 24.1172V13.1836C182.875 12.832 183.195 12.6562 183.836 12.6562C184.469 12.6562 184.785 12.832 184.785 13.1836V14.4727C185.449 13.2617 186.598 12.6562 188.23 12.6562C189.84 12.6562 191.082 13.3086 191.957 14.6133C192.738 13.3086 194.02 12.6562 195.801 12.6562C199.098 12.6562 200.746 14.3984 200.746 17.8828V24.1289C200.746 24.4805 200.426 24.6562 199.785 24.6562ZM208.609 24.6562C206.852 24.6562 205.395 24.1211 204.238 23.0508C203.09 21.9727 202.516 20.5391 202.516 18.75C202.516 16.9375 203.098 15.4688 204.262 14.3438C205.434 13.2188 206.914 12.6562 208.703 12.6562C210.383 12.6562 211.812 13.1133 212.992 14.0273C214.18 14.9414 214.773 16.2852 214.773 18.0586C214.773 18.4805 214.457 18.6914 213.824 18.6914H204.414C204.414 19.9414 204.773 21.0703 205.492 22.0781C206.219 23.0859 207.262 23.5898 208.621 23.5898C209.613 23.5898 210.5 23.3242 211.281 22.793C212.125 22.2305 212.582 21.5859 212.652 20.8594C212.691 20.5234 213.004 20.3555 213.59 20.3555C214.23 20.3555 214.551 20.5312 214.551 20.8828C214.551 21.1328 214.465 21.4375 214.293 21.7969C213.98 22.4531 213.465 23.0156 212.746 23.4844C211.574 24.2656 210.195 24.6562 208.609 24.6562ZM212.852 17.6133C212.656 15.0195 211.273 13.7227 208.703 13.7227C206.406 13.7227 205.012 15.0195 204.52 17.6133H212.852ZM226.352 24.668C225.719 24.668 225.402 24.4883 225.402 24.1289V17.918C225.402 16.8945 225.125 15.9453 224.57 15.0703C224.023 14.1875 223.176 13.7461 222.027 13.7461C219.637 13.7461 218.441 15.25 218.441 18.2578V24.1289C218.441 24.4883 218.125 24.668 217.492 24.668C216.852 24.668 216.531 24.4883 216.531 24.1289V13.1953C216.531 12.8359 216.852 12.6562 217.492 12.6562C218.125 12.6562 218.441 12.8359 218.441 13.1953V14.5195C219.137 13.2695 220.387 12.6445 222.191 12.6445C223.441 12.6367 224.605 13.0781 225.684 13.9688C226.77 14.8516 227.312 16.168 227.312 17.918V24.1289C227.312 24.4883 226.992 24.668 226.352 24.668ZM234.977 24.6562C232.508 24.6406 231.273 23.5898 231.273 21.5039V13.7227H229.727C229.094 13.7227 228.777 13.5469 228.777 13.1953C228.777 12.8359 229.094 12.6562 229.727 12.6562H231.273V8.73047C231.273 8.37109 231.594 8.19141 232.234 8.19141C232.867 8.19141 233.184 8.37109 233.184 8.73047V12.6562H235.387C236.027 12.6562 236.348 12.8359 236.348 13.1953C236.348 13.5469 236.027 13.7227 235.387 13.7227H233.184V21.5039C233.184 22.8867 233.781 23.582 234.977 23.5898C235.203 23.5898 235.418 23.5703 235.621 23.5312C235.824 23.4844 236.027 23.4609 236.23 23.4609C236.879 23.4609 237.203 23.6406 237.203 24C237.203 24.2578 236.93 24.4336 236.383 24.5273C235.914 24.6133 235.445 24.6562 234.977 24.6562Z" fill="white"/>
<path d="M318.75 18.75C318.75 18.4185 318.882 18.1005 319.116 17.8661C319.351 17.6317 319.669 17.5 320 17.5L336.988 17.5L335.363 15.8875C335.127 15.6521 334.995 15.3329 334.995 15C334.995 14.6671 335.127 14.3479 335.363 14.1125C335.598 13.8771 335.917 13.7449 336.25 13.7449C336.583 13.7449 336.902 13.8771 337.138 14.1125L340.888 17.8625C341.061 18.0383 341.179 18.2615 341.225 18.504C341.272 18.7465 341.246 18.9973 341.15 19.225C341.057 19.4533 340.897 19.6487 340.693 19.7866C340.488 19.9245 340.247 19.9988 340 20L320 20C319.669 20 319.351 19.8683 319.116 19.6339C318.882 19.3994 318.75 19.0815 318.75 18.75Z" fill="#9E9D9B"/>
<path d="M335.001 22.5C335 22.3355 335.031 22.1724 335.094 22.0201C335.156 21.8678 335.247 21.7293 335.363 21.6125L339.113 17.8625C339.349 17.6271 339.668 17.4949 340.001 17.4949C340.166 17.4949 340.329 17.5273 340.481 17.5904C340.633 17.6535 340.772 17.7459 340.888 17.8625C341.005 17.979 341.097 18.1174 341.16 18.2697C341.223 18.422 341.256 18.5852 341.256 18.75C341.256 19.0829 341.124 19.4021 340.888 19.6375L337.138 23.3875C337.022 23.5046 336.884 23.5976 336.731 23.6611C336.579 23.7246 336.416 23.7572 336.251 23.7572C336.086 23.7572 335.922 23.7246 335.77 23.6611C335.618 23.5976 335.479 23.5046 335.363 23.3875C335.247 23.2707 335.156 23.1322 335.094 22.9799C335.031 22.8276 335 22.6645 335.001 22.5Z" fill="#9E9D9B"/>
</svg>
