<svg width="1440" height="1231" viewBox="0 0 1440 1231" fill="none" xmlns="http://www.w3.org/2000/svg">
<g clip-path="url(#clip0_1287_4693)">
<rect x="-318" y="356.57" width="375" height="812" rx="32" transform="rotate(-28.7846 -318 356.57)" fill="black"/>
<rect x="7.24667" y="942.337" width="371" height="140" transform="rotate(-28.7846 7.24667 942.337)" fill="black" stroke="white" stroke-width="4"/>
<rect x="47.3307" y="948.839" width="61" height="59" rx="14" transform="rotate(-28.7846 47.3307 948.839)" fill="black" stroke="white" stroke-width="4"/>
<rect x="118.322" y="909.836" width="61" height="59" rx="14" transform="rotate(-28.7846 118.322 909.836)" fill="black" stroke="white" stroke-width="4"/>
<rect x="191.066" y="869.87" width="61" height="59" rx="14" transform="rotate(-28.7846 191.066 869.87)" fill="black" stroke="white" stroke-width="4"/>
<rect x="263.81" y="829.904" width="61" height="59" rx="14" transform="rotate(-28.7846 263.81 829.904)" fill="black" stroke="white" stroke-width="4"/>
<rect width="367" height="40" transform="translate(-312.086 359.026) rotate(-28.7846)" fill="black"/>
<rect width="375" height="48" transform="translate(49.8804 1026.17) rotate(-28.7846)" fill="black"/>
<line x1="173.101" y1="972.16" x2="282.655" y2="911.971" stroke="white" stroke-width="4" stroke-linecap="round"/>
<rect width="295" height="26" transform="translate(-111.041 650.196) rotate(-28.7846)" fill="black"/>
<rect x="-105.262" y="660.714" width="283" height="2" rx="1" transform="rotate(-28.7846 -105.262 660.714)" fill="#A1A0A3"/>
<g clip-path="url(#clip1_1287_4693)">
<rect x="-215.048" y="460.886" width="295" height="182" rx="32" transform="rotate(-28.7846 -215.048 460.886)" fill="black"/>
<rect x="18.1944" y="474.224" width="78" height="32" rx="14" transform="rotate(-28.7846 18.1944 474.224)" fill="black"/>
<rect x="18.1944" y="474.224" width="78" height="32" rx="14" transform="rotate(-28.7846 18.1944 474.224)" stroke="white" stroke-width="4"/>
</g>
<rect x="-212.332" y="461.676" width="291" height="178" rx="30" transform="rotate(-28.7846 -212.332 461.676)" stroke="white" stroke-width="4"/>
<rect x="-91.7798" y="685.254" width="295" height="64" rx="24" transform="rotate(-28.7846 -91.7798 685.254)" fill="black"/>
<rect width="143" height="48" transform="translate(-9.04834 648.929) rotate(-28.7846)" fill="black"/>
<rect x="-3.27002" y="659.446" width="143" height="4" rx="2" transform="rotate(-28.7846 -3.27002 659.446)" fill="white"/>
<rect x="6.36035" y="676.975" width="88" height="4" rx="2" transform="rotate(-28.7846 6.36035 676.975)" fill="white"/>
<rect width="36" height="48" transform="translate(139.069 567.552) rotate(-28.7846)" fill="black"/>
<rect x="144.848" y="578.069" width="24" height="4" rx="2" transform="rotate(-28.7846 144.848 578.069)" fill="white"/>
<rect x="154.478" y="595.598" width="24" height="4" rx="2" transform="rotate(-28.7846 154.478 595.598)" fill="white"/>
<rect x="-46.5171" y="767.639" width="295" height="64" rx="24" transform="rotate(-28.7846 -46.5171 767.639)" fill="black"/>
<rect x="-43.8012" y="768.429" width="60" height="60" rx="14" transform="rotate(-28.7846 -43.8012 768.429)" fill="black" stroke="white" stroke-width="4"/>
<rect width="143" height="48" transform="translate(36.2144 731.314) rotate(-28.7846)" fill="black"/>
<rect x="41.9927" y="741.831" width="143" height="4" rx="2" transform="rotate(-28.7846 41.9927 741.831)" fill="white"/>
<rect x="51.623" y="759.36" width="112" height="4" rx="2" transform="rotate(-28.7846 51.623 759.36)" fill="white"/>
<rect width="36" height="48" transform="translate(184.332 649.937) rotate(-28.7846)" fill="black"/>
<rect x="190.11" y="660.454" width="24" height="4" rx="2" transform="rotate(-28.7846 190.11 660.454)" fill="white"/>
<rect x="199.741" y="677.983" width="24" height="4" rx="2" transform="rotate(-28.7846 199.741 677.983)" fill="white"/>
<rect x="-251.051" y="392.24" width="292" height="45" rx="22.5" transform="rotate(-28.7846 -251.051 392.24)" fill="#0A0A0A"/>
<rect x="-251.051" y="392.24" width="292" height="45" rx="22.5" transform="rotate(-28.7846 -251.051 392.24)" stroke="white" stroke-width="3"/>
<g clip-path="url(#clip2_1287_4693)">
<path d="M-4.30553 278.116C-4.43214 278.078 -4.5649 278.066 -4.69615 278.081C-4.82739 278.095 -4.95454 278.135 -5.07024 278.198C-5.18594 278.262 -5.2879 278.348 -5.37026 278.451C-5.45262 278.554 -5.51373 278.673 -5.55007 278.8L-6.44962 281.918L-9.56415 281.005C-9.81986 280.931 -10.0946 280.961 -10.328 281.089C-10.5614 281.217 -10.7343 281.433 -10.8087 281.689C-10.8831 281.944 -10.8528 282.219 -10.7246 282.453C-10.5963 282.686 -10.3806 282.859 -10.1249 282.933L-7.00645 283.833L-7.91958 286.947C-7.95696 287.074 -7.96891 287.207 -7.95472 287.338C-7.94054 287.469 -7.90051 287.596 -7.83695 287.712C-7.77338 287.828 -7.68753 287.93 -7.58436 288.012C-7.48119 288.094 -7.36273 288.155 -7.23582 288.192C-7.10921 288.229 -6.97646 288.241 -6.84521 288.227C-6.71396 288.213 -6.58682 288.173 -6.47112 288.109C-6.35542 288.046 -6.25345 287.96 -6.17109 287.857C-6.08874 287.753 -6.02763 287.635 -5.99128 287.508L-5.09174 284.39L-1.9772 285.303C-1.8506 285.34 -1.71784 285.352 -1.58659 285.338C-1.45534 285.324 -1.3282 285.284 -1.2125 285.22C-1.0968 285.157 -0.994834 285.071 -0.912478 284.968C-0.830122 284.864 -0.76901 284.746 -0.732666 284.619C-0.695283 284.492 -0.683337 284.36 -0.697519 284.228C-0.711701 284.097 -0.75173 283.97 -0.815296 283.854C-0.878862 283.739 -0.964708 283.637 -1.06788 283.554C-1.17105 283.472 -1.28951 283.411 -1.41642 283.374L-4.5349 282.475L-3.62178 279.36C-3.58439 279.234 -3.57245 279.101 -3.58663 278.97C-3.60081 278.838 -3.64084 278.711 -3.70441 278.596C-3.76797 278.48 -3.85382 278.378 -3.95699 278.296C-4.06017 278.213 -4.17862 278.152 -4.30553 278.116ZM-2.97861 273.553C-4.24699 273.16 -5.58093 273.024 -6.90257 273.152C-8.22422 273.28 -9.50711 273.67 -10.6764 274.299C-11.8457 274.929 -12.8779 275.784 -13.7129 276.817C-14.5479 277.849 -15.1689 279.038 -15.5397 280.313C-15.9105 281.588 -16.0237 282.924 -15.8726 284.243C-15.7215 285.562 -15.3092 286.838 -14.6597 287.996C-14.0103 289.155 -13.1366 290.172 -12.0898 290.989C-11.043 291.806 -9.84401 292.406 -8.56274 292.755C-7.29436 293.147 -5.96043 293.284 -4.63878 293.156C-3.31713 293.028 -2.03424 292.637 -0.864961 292.008C0.30432 291.379 1.33658 290.523 2.17157 289.491C3.00657 288.458 3.62758 287.27 3.99838 285.995C4.36918 284.72 4.48233 283.384 4.33125 282.065C4.18016 280.745 3.76785 279.469 3.11838 278.311C2.46891 277.153 1.59528 276.136 0.548482 275.319C-0.498321 274.502 -1.69734 273.902 -2.97861 273.553ZM1.91534 285.389C1.39951 287.166 0.283359 288.71 -1.24294 289.757C-2.76924 290.804 -4.61127 291.289 -6.45519 291.13C-8.2991 290.971 -10.0308 290.177 -11.3553 288.885C-12.6798 287.592 -13.5151 285.88 -13.719 284.04C-13.9228 282.201 -13.4825 280.348 -12.4732 278.796C-11.4638 277.245 -9.94782 276.092 -8.18346 275.533C-6.4191 274.974 -4.51554 275.044 -2.79709 275.731C-1.07865 276.419 0.348359 277.68 1.24081 279.302C1.75015 280.221 2.07203 281.233 2.18782 282.278C2.3036 283.323 2.21099 284.38 1.91534 285.389Z" fill="white"/>
</g>
<path fill-rule="evenodd" clip-rule="evenodd" d="M34.2724 392.144C44.2678 402.619 32.5548 422.485 18.9008 414.117C13.1837 428.241 -8.29455 423.875 -6.08144 408.22C-5.71786 405.651 -4.80675 403.314 -3.37454 401.167C-6.35775 398.686 -9.16332 395.839 -10.1274 391.961C-11.982 384.501 -6.89531 374.118 1.24971 372.773C6.14684 371.965 9.49403 373.345 13.4278 376.072C23.6249 362.093 42.4999 378.808 34.2724 392.144Z" fill="#0A0A0A" stroke="white" stroke-width="7.57" stroke-miterlimit="1.5" stroke-linecap="round" stroke-linejoin="round"/>
<path fill-rule="evenodd" clip-rule="evenodd" d="M8.4582 777.988C14.7378 784.569 7.37909 797.049 -1.19906 791.792C-4.79082 800.666 -18.2846 797.923 -16.8942 788.088C-16.6657 786.473 -16.0933 785.005 -15.1935 783.656C-17.0678 782.098 -18.8304 780.309 -19.4361 777.873C-20.6012 773.186 -17.4055 766.663 -12.2884 765.818C-9.21172 765.31 -7.10884 766.178 -4.63745 767.891C1.76887 759.108 13.6271 769.61 8.4582 777.988Z" fill="#0A0A0A" stroke="white" stroke-width="4.57" stroke-miterlimit="1.5" stroke-linecap="round" stroke-linejoin="round"/>
</g>
<rect x="-315.284" y="357.359" width="371" height="808" rx="30" transform="rotate(-28.7846 -315.284 357.359)" stroke="white" stroke-width="4"/>
<g clip-path="url(#clip3_1287_4693)">
<rect x="602" y="298.569" width="375" height="812" rx="32" transform="rotate(-28.7846 602 298.569)" fill="black"/>
<rect x="927.247" y="884.337" width="371" height="140" transform="rotate(-28.7846 927.247 884.337)" fill="black" stroke="white" stroke-width="4"/>
<rect x="967.331" y="890.839" width="61" height="59" rx="14" transform="rotate(-28.7846 967.331 890.839)" fill="black" stroke="white" stroke-width="4"/>
<rect x="1038.32" y="851.836" width="61" height="59" rx="14" transform="rotate(-28.7846 1038.32 851.836)" fill="black" stroke="white" stroke-width="4"/>
<rect x="1111.07" y="811.87" width="61" height="59" rx="14" transform="rotate(-28.7846 1111.07 811.87)" fill="black" stroke="white" stroke-width="4"/>
<rect x="1183.81" y="771.904" width="61" height="59" rx="14" transform="rotate(-28.7846 1183.81 771.904)" fill="black" stroke="white" stroke-width="4"/>
<rect width="367" height="40" transform="translate(607.914 301.025) rotate(-28.7846)" fill="black"/>
<line x1="739.282" y1="249.389" x2="737.529" y2="250.352" stroke="white" stroke-width="4" stroke-linecap="round"/>
<line x1="754.181" y1="241.203" x2="808.52" y2="211.349" stroke="white" stroke-width="4" stroke-linecap="round"/>
<rect width="375" height="48" transform="translate(969.88 968.166) rotate(-28.7846)" fill="black"/>
<line x1="1093.1" y1="914.16" x2="1202.65" y2="853.97" stroke="white" stroke-width="4" stroke-linecap="round"/>
<rect width="295" height="26" transform="translate(808.96 592.196) rotate(-28.7846)" fill="black"/>
<rect x="814.738" y="602.713" width="283" height="2" rx="1" transform="rotate(-28.7846 814.738 602.713)" fill="#A1A0A3"/>
<g clip-path="url(#clip4_1287_4693)">
<rect x="704.951" y="402.886" width="295" height="182" rx="32" transform="rotate(-28.7846 704.951 402.886)" fill="black"/>
<rect width="120" height="28" transform="translate(739.122 406.932) rotate(-28.7846)" fill="black"/>
<rect x="744.9" y="417.449" width="108" height="4" rx="2" transform="rotate(-28.7846 744.9 417.449)" fill="white"/>
<rect width="108" height="48" transform="translate(793.669 497.908) rotate(-28.7846)" fill="black"/>
<rect x="799.447" y="508.426" width="96" height="4" rx="2" transform="rotate(-28.7846 799.447 508.426)" fill="white"/>
<rect x="809.077" y="525.954" width="67" height="4" rx="2" transform="rotate(-28.7846 809.077 525.954)" fill="white"/>
<rect x="757.246" y="435.768" width="13" height="13" rx="6.5" transform="rotate(-28.7846 757.246 435.768)" fill="black" stroke="white" stroke-width="4"/>
<rect x="778.28" y="424.212" width="13" height="13" rx="6.5" transform="rotate(-28.7846 778.28 424.212)" fill="black" stroke="white" stroke-width="4"/>
<rect x="798.439" y="413.137" width="13" height="13" rx="6.5" transform="rotate(-28.7846 798.439 413.137)" fill="black" stroke="white" stroke-width="4"/>
<rect x="819.473" y="401.58" width="13" height="13" rx="6.5" transform="rotate(-28.7846 819.473 401.58)" fill="black" stroke="white" stroke-width="4"/>
<rect x="840.508" y="390.024" width="13" height="13" rx="6.5" transform="rotate(-28.7846 840.508 390.024)" fill="black" stroke="white" stroke-width="4"/>
<rect x="938.193" y="416.223" width="78" height="32" rx="14" transform="rotate(-28.7846 938.193 416.223)" fill="black"/>
<rect x="938.193" y="416.223" width="78" height="32" rx="14" transform="rotate(-28.7846 938.193 416.223)" stroke="white" stroke-width="4"/>
</g>
<rect x="707.667" y="403.676" width="291" height="178" rx="30" transform="rotate(-28.7846 707.667 403.676)" stroke="white" stroke-width="4"/>
<rect x="828.221" y="627.254" width="295" height="64" rx="24" transform="rotate(-28.7846 828.221 627.254)" fill="black"/>
<rect x="830.937" y="628.043" width="60" height="60" rx="14" transform="rotate(-28.7846 830.937 628.043)" fill="black" stroke="white" stroke-width="4"/>
<rect width="143" height="48" transform="translate(910.952 590.928) rotate(-28.7846)" fill="black"/>
<rect x="916.73" y="601.446" width="143" height="4" rx="2" transform="rotate(-28.7846 916.73 601.446)" fill="white"/>
<rect x="926.36" y="618.974" width="88" height="4" rx="2" transform="rotate(-28.7846 926.36 618.974)" fill="white"/>
<rect width="36" height="48" transform="translate(1059.07 509.552) rotate(-28.7846)" fill="black"/>
<rect x="1064.85" y="520.069" width="24" height="4" rx="2" transform="rotate(-28.7846 1064.85 520.069)" fill="white"/>
<rect x="1074.48" y="537.598" width="24" height="4" rx="2" transform="rotate(-28.7846 1074.48 537.598)" fill="white"/>
<rect x="873.483" y="709.639" width="295" height="64" rx="24" transform="rotate(-28.7846 873.483 709.639)" fill="black"/>
<rect x="876.199" y="710.428" width="60" height="60" rx="14" transform="rotate(-28.7846 876.199 710.428)" fill="black" stroke="white" stroke-width="4"/>
<rect width="143" height="48" transform="translate(956.215 673.313) rotate(-28.7846)" fill="black"/>
<rect x="961.993" y="683.831" width="143" height="4" rx="2" transform="rotate(-28.7846 961.993 683.831)" fill="white"/>
<rect x="971.623" y="701.359" width="112" height="4" rx="2" transform="rotate(-28.7846 971.623 701.359)" fill="white"/>
<rect width="36" height="48" transform="translate(1104.33 591.937) rotate(-28.7846)" fill="black"/>
<rect x="1110.11" y="602.454" width="24" height="4" rx="2" transform="rotate(-28.7846 1110.11 602.454)" fill="white"/>
<rect x="1119.74" y="619.983" width="24" height="4" rx="2" transform="rotate(-28.7846 1119.74 619.983)" fill="white"/>
<rect x="668.948" y="334.24" width="292" height="45" rx="22.5" transform="rotate(-28.7846 668.948 334.24)" fill="#0A0A0A"/>
<rect x="668.948" y="334.24" width="292" height="45" rx="22.5" transform="rotate(-28.7846 668.948 334.24)" stroke="white" stroke-width="3"/>
<g clip-path="url(#clip5_1287_4693)">
<path fill-rule="evenodd" clip-rule="evenodd" d="M705.155 338.879C706.751 341.783 705.69 345.431 702.786 347.026C699.882 348.622 696.234 347.561 694.638 344.657C693.043 341.752 694.103 338.105 697.008 336.509C699.912 334.913 703.56 335.974 705.155 338.879ZM707.239 344.944C706.559 346.52 705.369 347.889 703.749 348.779C699.877 350.907 695.013 349.492 692.885 345.62C690.758 341.747 692.172 336.884 696.045 334.756C699.917 332.629 704.781 334.043 706.908 337.915C707.799 339.536 708.069 341.33 707.798 343.024L713.756 344.757C714.286 344.911 714.591 345.466 714.437 345.996C714.282 346.526 713.727 346.831 713.197 346.677L707.239 344.944Z" fill="white"/>
</g>
<g clip-path="url(#clip6_1287_4693)">
<path d="M915.694 220.116C915.567 220.078 915.435 220.066 915.303 220.08C915.172 220.095 915.045 220.135 914.929 220.198C914.814 220.262 914.712 220.348 914.629 220.451C914.547 220.554 914.486 220.672 914.449 220.799L913.55 223.918L910.435 223.005C910.18 222.93 909.905 222.961 909.671 223.089C909.438 223.217 909.265 223.433 909.191 223.688C909.116 223.944 909.147 224.219 909.275 224.452C909.403 224.686 909.619 224.859 909.875 224.933L912.993 225.833L912.08 228.947C912.043 229.074 912.031 229.206 912.045 229.338C912.059 229.469 912.099 229.596 912.163 229.712C912.226 229.827 912.312 229.929 912.415 230.012C912.518 230.094 912.637 230.155 912.764 230.192C912.89 230.229 913.023 230.241 913.154 230.227C913.286 230.213 913.413 230.173 913.528 230.109C913.644 230.045 913.746 229.96 913.828 229.856C913.911 229.753 913.972 229.635 914.008 229.508L914.908 226.389L918.022 227.302C918.149 227.34 918.282 227.352 918.413 227.338C918.544 227.323 918.671 227.283 918.787 227.22C918.903 227.156 919.005 227.07 919.087 226.967C919.169 226.864 919.231 226.746 919.267 226.619C919.304 226.492 919.316 226.359 919.302 226.228C919.288 226.097 919.248 225.97 919.184 225.854C919.121 225.738 919.035 225.636 918.932 225.554C918.828 225.472 918.71 225.411 918.583 225.374L915.465 224.475L916.378 221.36C916.415 221.234 916.427 221.101 916.413 220.969C916.399 220.838 916.359 220.711 916.295 220.595C916.232 220.48 916.146 220.378 916.043 220.295C915.939 220.213 915.821 220.152 915.694 220.116ZM917.021 215.553C915.753 215.16 914.419 215.024 913.097 215.152C911.775 215.28 910.492 215.67 909.323 216.299C908.154 216.928 907.122 217.784 906.287 218.817C905.452 219.849 904.831 221.038 904.46 222.313C904.089 223.588 903.976 224.924 904.127 226.243C904.278 227.562 904.69 228.838 905.34 229.996C905.989 231.154 906.863 232.172 907.91 232.989C908.956 233.805 910.155 234.406 911.437 234.754C912.705 235.147 914.039 235.284 915.361 235.155C916.682 235.027 917.965 234.637 919.135 234.008C920.304 233.379 921.336 232.523 922.171 231.49C923.006 230.458 923.627 229.27 923.998 227.995C924.369 226.72 924.482 225.383 924.331 224.064C924.18 222.745 923.767 221.469 923.118 220.311C922.468 219.153 921.595 218.136 920.548 217.319C919.501 216.502 918.302 215.901 917.021 215.553ZM921.915 227.389C921.399 229.166 920.283 230.71 918.757 231.757C917.23 232.803 915.388 233.289 913.544 233.129C911.7 232.97 909.969 232.177 908.644 230.884C907.32 229.592 906.484 227.88 906.281 226.04C906.077 224.201 906.517 222.347 907.526 220.796C908.536 219.245 910.052 218.091 911.816 217.533C913.58 216.974 915.484 217.044 917.202 217.731C918.921 218.418 920.348 219.68 921.24 221.301C921.75 222.221 922.072 223.233 922.187 224.278C922.303 225.322 922.21 226.38 921.915 227.389Z" fill="white"/>
</g>
<path fill-rule="evenodd" clip-rule="evenodd" d="M954.273 334.143C964.268 344.619 952.555 364.484 938.901 356.117C933.184 370.241 911.706 365.875 913.919 350.22C914.283 347.65 915.194 345.313 916.626 343.166C913.643 340.686 910.837 337.839 909.873 333.961C908.018 326.5 913.105 316.118 921.25 314.773C926.147 313.964 929.495 315.345 933.428 318.072C943.625 304.093 962.5 320.808 954.273 334.143Z" fill="#0A0A0A" stroke="white" stroke-width="7.57" stroke-miterlimit="1.5" stroke-linecap="round" stroke-linejoin="round"/>
<path fill-rule="evenodd" clip-rule="evenodd" d="M928.458 719.987C934.737 726.568 927.379 739.049 918.8 733.792C915.209 742.666 901.715 739.923 903.105 730.087C903.334 728.473 903.906 727.005 904.806 725.656C902.932 724.098 901.169 722.309 900.563 719.873C899.398 715.186 902.594 708.663 907.711 707.818C910.788 707.31 912.891 708.177 915.362 709.89C921.768 701.108 933.627 711.609 928.458 719.987Z" fill="#0A0A0A" stroke="white" stroke-width="4.57" stroke-miterlimit="1.5" stroke-linecap="round" stroke-linejoin="round"/>
<path fill-rule="evenodd" clip-rule="evenodd" d="M884.483 638.618C890.763 645.199 883.404 657.68 874.826 652.423C871.234 661.297 857.74 658.554 859.131 648.718C859.359 647.104 859.932 645.636 860.831 644.287C858.957 642.729 857.195 640.94 856.589 638.504C855.424 633.817 858.619 627.294 863.737 626.449C866.813 625.941 868.916 626.808 871.387 628.521C877.794 619.739 889.652 630.24 884.483 638.618Z" fill="#0A0A0A" stroke="white" stroke-width="4.57" stroke-miterlimit="1.5" stroke-linecap="round" stroke-linejoin="round"/>
</g>
<rect x="604.716" y="299.359" width="371" height="808" rx="30" transform="rotate(-28.7846 604.716 299.359)" stroke="white" stroke-width="4"/>
<g clip-path="url(#clip7_1287_4693)">
<rect x="113" y="284.569" width="375" height="812" rx="32" transform="rotate(-28.7846 113 284.569)" fill="black"/>
<rect width="367" height="40" transform="translate(118.914 287.025) rotate(-28.7846)" fill="black"/>
<line x1="250.282" y1="235.389" x2="248.529" y2="236.352" stroke="white" stroke-width="4" stroke-linecap="round"/>
<line x1="265.181" y1="227.203" x2="319.52" y2="197.349" stroke="white" stroke-width="4" stroke-linecap="round"/>
<rect x="205.223" y="377.666" width="78" height="32" rx="16" transform="rotate(-28.7846 205.223 377.666)" fill="black"/>
<rect x="205.223" y="377.666" width="78" height="32" rx="16" transform="rotate(-28.7846 205.223 377.666)" stroke="white" stroke-width="4"/>
<rect x="291.114" y="330.477" width="78" height="32" rx="16" transform="rotate(-28.7846 291.114 330.477)" fill="black"/>
<rect x="291.114" y="330.477" width="78" height="32" rx="16" transform="rotate(-28.7846 291.114 330.477)" stroke="white" stroke-width="4"/>
<rect x="377.004" y="283.288" width="78" height="32" rx="16" transform="rotate(-28.7846 377.004 283.288)" fill="black"/>
<rect x="377.004" y="283.288" width="78" height="32" rx="16" transform="rotate(-28.7846 377.004 283.288)" stroke="white" stroke-width="4"/>
<rect x="462.895" y="236.099" width="78" height="32" rx="16" transform="rotate(-28.7846 462.895 236.099)" fill="black"/>
<rect x="462.895" y="236.099" width="78" height="32" rx="16" transform="rotate(-28.7846 462.895 236.099)" stroke="white" stroke-width="4"/>
<rect x="237.042" y="448.04" width="152" height="279" rx="14" transform="rotate(-28.7846 237.042 448.04)" fill="black"/>
<rect x="237.042" y="448.04" width="152" height="279" rx="14" transform="rotate(-28.7846 237.042 448.04)" stroke="white" stroke-width="4"/>
<path d="M468.93 596.312C468.237 596.11 467.51 596.047 466.792 596.126C466.074 596.205 465.378 596.425 464.745 596.773C464.112 597.121 463.553 597.59 463.101 598.154C462.65 598.718 462.313 599.365 462.112 600.059L461.693 601.498L460.254 601.079C458.853 600.672 457.347 600.838 456.068 601.54C454.79 602.243 453.842 603.425 453.435 604.826C453.027 606.227 453.193 607.732 453.896 609.011C454.598 610.29 455.78 611.237 457.181 611.644L458.621 612.063L469.185 615.135L472.258 604.57L472.676 603.131C472.878 602.437 472.942 601.711 472.863 600.993C472.784 600.274 472.564 599.579 472.216 598.946C471.868 598.312 471.399 597.754 470.835 597.302C470.271 596.85 469.624 596.514 468.93 596.312V596.312Z" stroke="white" stroke-width="3" stroke-linecap="round" stroke-linejoin="round"/>
<rect x="413.409" y="575.917" width="46" height="16" rx="8" transform="rotate(-28.7846 413.409 575.917)" fill="black"/>
<rect x="413.409" y="575.917" width="46" height="16" rx="8" transform="rotate(-28.7846 413.409 575.917)" stroke="white" stroke-width="4"/>
<rect width="118" height="28" transform="translate(324.958 568.604) rotate(-28.7846)" fill="black"/>
<rect x="330.737" y="579.121" width="106" height="4" rx="2" transform="rotate(-28.7846 330.737 579.121)" fill="white"/>
<rect x="340.367" y="596.65" width="67" height="4" rx="2" transform="rotate(-28.7846 340.367 596.65)" fill="white"/>
<rect width="67" height="4" transform="translate(373.592 657.124) rotate(-28.7846)" fill="black"/>
<rect x="379.37" y="667.641" width="55" height="4" rx="2" transform="rotate(-28.7846 379.37 667.641)" fill="white"/>
<rect x="262.843" y="455.544" width="114" height="108" rx="22" transform="rotate(-28.7846 262.843 455.544)" fill="black"/>
<rect x="262.843" y="455.544" width="114" height="108" rx="22" transform="rotate(-28.7846 262.843 455.544)" stroke="white" stroke-width="4"/>
<path d="M347.912 479.547C352.41 487.733 349.275 498.195 340.761 502.873C332.247 507.551 321.735 504.586 317.237 496.4C312.74 488.214 315.875 477.752 324.389 473.074C332.903 468.397 343.415 471.361 347.912 479.547Z" fill="black" stroke="white" stroke-width="4"/>
<path d="M334.547 482.326L335.355 444.23L367.943 463.978L334.547 482.326Z" fill="black" stroke="white" stroke-width="4"/>
<path d="M356.561 606.205C356.6 605.863 356.966 605.662 357.277 605.812L361.382 607.808C362.074 608.144 362.856 608.243 363.609 608.09L368.083 607.18C368.421 607.112 368.725 607.398 368.678 607.739L368.049 612.261C367.943 613.022 368.09 613.797 368.469 614.466L370.716 618.439C370.886 618.74 370.708 619.117 370.368 619.178L365.874 619.977C365.117 620.111 364.425 620.491 363.906 621.058L360.822 624.423C360.588 624.677 360.174 624.625 360.012 624.32L357.863 620.293C357.501 619.615 356.926 619.074 356.227 618.755L352.074 616.862C351.76 616.719 351.682 616.308 351.921 616.06L355.087 612.772C355.62 612.218 355.957 611.505 356.044 610.741L356.561 606.205Z" stroke="white" stroke-width="3"/>
<path d="M385.484 590.315C385.523 589.973 385.889 589.772 386.199 589.922L390.305 591.918C390.996 592.254 391.779 592.353 392.532 592.2L397.005 591.29C397.343 591.222 397.647 591.508 397.6 591.849L396.971 596.371C396.865 597.132 397.013 597.907 397.391 598.576L399.638 602.549C399.808 602.849 399.63 603.227 399.29 603.288L394.796 604.087C394.039 604.221 393.348 604.601 392.828 605.168L389.744 608.533C389.511 608.787 389.096 608.734 388.934 608.43L386.786 604.403C386.424 603.724 385.849 603.184 385.149 602.865L380.996 600.972C380.682 600.829 380.604 600.418 380.843 600.17L384.01 596.882C384.543 596.328 384.879 595.614 384.966 594.851L385.484 590.315Z" stroke="white" stroke-width="3"/>
<rect x="393.053" y="732.005" width="152" height="279" rx="14" transform="rotate(-28.7846 393.053 732.005)" fill="black"/>
<rect x="393.053" y="732.005" width="152" height="279" rx="14" transform="rotate(-28.7846 393.053 732.005)" stroke="white" stroke-width="4"/>
<path d="M624.942 880.278C624.248 880.076 623.522 880.013 622.803 880.092C622.085 880.171 621.39 880.39 620.757 880.738C620.123 881.086 619.565 881.555 619.113 882.119C618.661 882.683 618.325 883.33 618.123 884.024L617.705 885.463L616.265 885.045C614.864 884.637 613.359 884.803 612.08 885.506C610.801 886.208 609.854 887.39 609.447 888.791C609.039 890.192 609.205 891.698 609.908 892.976C610.61 894.255 611.792 895.202 613.193 895.61L614.632 896.028L625.197 899.101L628.27 888.536L628.688 887.097C628.89 886.403 628.953 885.676 628.874 884.958C628.795 884.24 628.576 883.544 628.228 882.911C627.88 882.278 627.411 881.719 626.847 881.268C626.283 880.816 625.636 880.479 624.942 880.278V880.278Z" stroke="white" stroke-width="3" stroke-linecap="round" stroke-linejoin="round"/>
<rect x="569.421" y="859.882" width="46" height="16" rx="8" transform="rotate(-28.7846 569.421 859.882)" fill="black"/>
<rect x="569.421" y="859.882" width="46" height="16" rx="8" transform="rotate(-28.7846 569.421 859.882)" stroke="white" stroke-width="4"/>
<rect width="118" height="28" transform="translate(480.97 852.569) rotate(-28.7846)" fill="black"/>
<rect x="486.749" y="863.086" width="106" height="4" rx="2" transform="rotate(-28.7846 486.749 863.086)" fill="white"/>
<rect x="496.379" y="880.615" width="67" height="4" rx="2" transform="rotate(-28.7846 496.379 880.615)" fill="white"/>
<rect width="67" height="4" transform="translate(529.604 941.089) rotate(-28.7846)" fill="black"/>
<rect x="535.382" y="951.606" width="55" height="4" rx="2" transform="rotate(-28.7846 535.382 951.606)" fill="white"/>
<rect x="418.855" y="739.509" width="114" height="108" rx="22" transform="rotate(-28.7846 418.855 739.509)" fill="black"/>
<rect x="418.855" y="739.509" width="114" height="108" rx="22" transform="rotate(-28.7846 418.855 739.509)" stroke="white" stroke-width="4"/>
<path d="M503.924 763.512C508.422 771.698 505.286 782.161 496.772 786.838C488.258 791.516 477.746 788.551 473.249 780.365C468.751 772.179 471.887 761.717 480.401 757.039C488.915 752.362 499.427 755.326 503.924 763.512Z" fill="black" stroke="white" stroke-width="4"/>
<path d="M490.558 766.292L491.367 728.195L523.955 747.943L490.558 766.292Z" fill="black" stroke="white" stroke-width="4"/>
<path d="M512.573 890.171C512.612 889.828 512.978 889.627 513.288 889.777L517.394 891.773C518.085 892.109 518.868 892.208 519.621 892.055L524.094 891.146C524.432 891.077 524.737 891.363 524.689 891.704L524.06 896.226C523.954 896.987 524.102 897.762 524.48 898.431L526.727 902.405C526.897 902.705 526.719 903.083 526.38 903.143L521.885 903.942C521.129 904.076 520.437 904.456 519.918 905.023L516.833 908.388C516.6 908.642 516.186 908.59 516.024 908.285L513.875 904.258C513.513 903.58 512.938 903.039 512.239 902.721L508.085 900.827C507.771 900.684 507.693 900.273 507.933 900.025L511.099 896.737C511.632 896.183 511.968 895.47 512.055 894.706L512.573 890.171Z" stroke="white" stroke-width="3"/>
<path d="M541.495 874.28C541.534 873.938 541.9 873.737 542.211 873.887L546.316 875.883C547.008 876.219 547.79 876.318 548.543 876.165L553.017 875.255C553.355 875.187 553.659 875.473 553.612 875.814L552.983 880.336C552.877 881.097 553.024 881.872 553.403 882.541L555.65 886.514C555.82 886.815 555.642 887.192 555.302 887.253L550.808 888.052C550.051 888.186 549.36 888.566 548.84 889.133L545.756 892.498C545.523 892.752 545.108 892.699 544.946 892.395L542.797 888.368C542.435 887.689 541.861 887.149 541.161 886.83L537.008 884.937C536.694 884.794 536.616 884.383 536.855 884.135L540.021 880.847C540.555 880.293 540.891 879.579 540.978 878.816L541.495 874.28Z" stroke="white" stroke-width="3"/>
<rect x="385.159" y="366.664" width="152" height="279" rx="14" transform="rotate(-28.7846 385.159 366.664)" fill="black"/>
<rect x="385.159" y="366.664" width="152" height="279" rx="14" transform="rotate(-28.7846 385.159 366.664)" stroke="white" stroke-width="4"/>
<path d="M617.047 514.936C616.354 514.734 615.627 514.671 614.909 514.75C614.191 514.829 613.495 515.048 612.862 515.396C612.229 515.744 611.67 516.213 611.219 516.777C610.767 517.341 610.43 517.988 610.229 518.682L609.81 520.121L608.371 519.703C606.97 519.295 605.464 519.461 604.186 520.164C602.907 520.866 601.96 522.048 601.552 523.449C601.145 524.85 601.31 526.356 602.013 527.634C602.716 528.913 603.897 529.86 605.298 530.268L606.738 530.686L617.303 533.759L620.375 523.194L620.794 521.754C620.996 521.061 621.059 520.334 620.98 519.616C620.901 518.898 620.681 518.202 620.333 517.569C619.985 516.936 619.516 516.377 618.952 515.926C618.389 515.474 617.741 515.137 617.047 514.936V514.936Z" stroke="white" stroke-width="3" stroke-linecap="round" stroke-linejoin="round"/>
<rect x="561.526" y="494.54" width="46" height="16" rx="8" transform="rotate(-28.7846 561.526 494.54)" fill="black"/>
<rect x="561.526" y="494.54" width="46" height="16" rx="8" transform="rotate(-28.7846 561.526 494.54)" stroke="white" stroke-width="4"/>
<rect width="118" height="28" transform="translate(473.076 487.227) rotate(-28.7846)" fill="black"/>
<rect x="478.854" y="497.745" width="106" height="4" rx="2" transform="rotate(-28.7846 478.854 497.745)" fill="white"/>
<rect x="488.484" y="515.273" width="67" height="4" rx="2" transform="rotate(-28.7846 488.484 515.273)" fill="white"/>
<rect width="67" height="4" transform="translate(521.709 575.747) rotate(-28.7846)" fill="black"/>
<rect x="527.487" y="586.265" width="55" height="4" rx="2" transform="rotate(-28.7846 527.487 586.265)" fill="white"/>
<rect x="410.96" y="374.167" width="114" height="108" rx="22" transform="rotate(-28.7846 410.96 374.167)" fill="black"/>
<rect x="410.96" y="374.167" width="114" height="108" rx="22" transform="rotate(-28.7846 410.96 374.167)" stroke="white" stroke-width="4"/>
<path d="M496.03 398.17C500.527 406.357 497.392 416.819 488.878 421.496C480.364 426.174 469.852 423.21 465.354 415.024C460.857 406.838 463.992 396.375 472.506 391.698C481.02 387.02 491.532 389.984 496.03 398.17Z" fill="black" stroke="white" stroke-width="4"/>
<path d="M482.664 400.95L483.472 362.853L516.061 382.601L482.664 400.95Z" fill="black" stroke="white" stroke-width="4"/>
<path d="M504.678 524.829C504.718 524.486 505.084 524.285 505.394 524.436L509.499 526.431C510.191 526.767 510.973 526.866 511.727 526.713L516.2 525.804C516.538 525.735 516.842 526.021 516.795 526.363L516.166 530.884C516.06 531.645 516.207 532.42 516.586 533.089L518.833 537.063C519.003 537.363 518.825 537.741 518.485 537.801L513.991 538.6C513.234 538.735 512.543 539.115 512.023 539.681L508.939 543.046C508.706 543.3 508.291 543.248 508.129 542.944L505.98 538.916C505.619 538.238 505.044 537.698 504.344 537.379L500.191 535.485C499.877 535.342 499.799 534.932 500.038 534.683L503.204 531.395C503.738 530.842 504.074 530.128 504.161 529.364L504.678 524.829Z" stroke="white" stroke-width="3"/>
<path d="M533.601 508.939C533.64 508.596 534.006 508.395 534.316 508.546L538.422 510.541C539.113 510.877 539.896 510.976 540.649 510.823L545.122 509.914C545.46 509.845 545.765 510.131 545.717 510.473L545.088 514.994C544.982 515.755 545.13 516.53 545.508 517.199L547.755 521.173C547.925 521.473 547.747 521.851 547.408 521.911L542.913 522.71C542.156 522.845 541.465 523.224 540.946 523.791L537.861 527.156C537.628 527.41 537.214 527.358 537.051 527.054L534.903 523.026C534.541 522.348 533.966 521.808 533.267 521.489L529.113 519.595C528.799 519.452 528.721 519.042 528.96 518.793L532.127 515.505C532.66 514.952 532.996 514.238 533.083 513.474L533.601 508.939Z" stroke="white" stroke-width="3"/>
<rect x="541.171" y="650.629" width="152" height="279" rx="14" transform="rotate(-28.7846 541.171 650.629)" fill="black"/>
<rect x="541.171" y="650.629" width="152" height="279" rx="14" transform="rotate(-28.7846 541.171 650.629)" stroke="white" stroke-width="4"/>
<path d="M773.06 798.901C772.366 798.699 771.639 798.636 770.921 798.715C770.203 798.794 769.507 799.014 768.874 799.362C768.241 799.709 767.683 800.179 767.231 800.742C766.779 801.306 766.443 801.954 766.241 802.647L765.822 804.087L764.383 803.668C762.982 803.261 761.477 803.427 760.198 804.129C758.919 804.832 757.972 806.013 757.564 807.414C757.157 808.815 757.323 810.321 758.025 811.6C758.728 812.878 759.91 813.826 761.311 814.233L762.75 814.652L773.315 817.724L776.387 807.159L776.806 805.72C777.008 805.026 777.071 804.299 776.992 803.581C776.913 802.863 776.693 802.168 776.345 801.534C775.998 800.901 775.528 800.343 774.965 799.891C774.401 799.439 773.753 799.103 773.06 798.901V798.901Z" stroke="white" stroke-width="3" stroke-linecap="round" stroke-linejoin="round"/>
<rect x="717.539" y="778.505" width="46" height="16" rx="8" transform="rotate(-28.7846 717.539 778.505)" fill="black"/>
<rect x="717.539" y="778.505" width="46" height="16" rx="8" transform="rotate(-28.7846 717.539 778.505)" stroke="white" stroke-width="4"/>
<rect width="118" height="28" transform="translate(629.088 771.192) rotate(-28.7846)" fill="black"/>
<rect x="634.866" y="781.71" width="106" height="4" rx="2" transform="rotate(-28.7846 634.866 781.71)" fill="white"/>
<rect x="644.496" y="799.238" width="67" height="4" rx="2" transform="rotate(-28.7846 644.496 799.238)" fill="white"/>
<rect width="67" height="4" transform="translate(677.722 859.712) rotate(-28.7846)" fill="black"/>
<rect x="683.5" y="870.23" width="55" height="4" rx="2" transform="rotate(-28.7846 683.5 870.23)" fill="white"/>
<rect x="566.972" y="658.132" width="114" height="108" rx="22" transform="rotate(-28.7846 566.972 658.132)" fill="black"/>
<rect x="566.972" y="658.132" width="114" height="108" rx="22" transform="rotate(-28.7846 566.972 658.132)" stroke="white" stroke-width="4"/>
<path d="M652.042 682.136C656.539 690.322 653.404 700.784 644.89 705.462C636.376 710.139 625.864 707.175 621.367 698.989C616.869 690.803 620.004 680.34 628.518 675.663C637.032 670.985 647.544 673.95 652.042 682.136Z" fill="black" stroke="white" stroke-width="4"/>
<path d="M638.676 684.915L639.484 646.818L672.072 666.567L638.676 684.915Z" fill="black" stroke="white" stroke-width="4"/>
<path d="M660.691 808.794C660.73 808.451 661.096 808.25 661.406 808.401L665.512 810.396C666.203 810.732 666.986 810.832 667.739 810.678L672.212 809.769C672.55 809.7 672.855 809.986 672.807 810.328L672.178 814.849C672.072 815.611 672.22 816.386 672.598 817.055L674.845 821.028C675.015 821.328 674.837 821.706 674.497 821.766L670.003 822.565C669.246 822.7 668.555 823.08 668.035 823.646L664.951 827.011C664.718 827.266 664.304 827.213 664.141 826.909L661.993 822.881C661.631 822.203 661.056 821.663 660.356 821.344L656.203 819.45C655.889 819.307 655.811 818.897 656.05 818.649L659.217 815.36C659.75 814.807 660.086 814.093 660.173 813.329L660.691 808.794Z" stroke="white" stroke-width="3"/>
<path d="M689.613 792.904C689.652 792.561 690.018 792.36 690.328 792.511L694.433 794.506C695.125 794.842 695.907 794.941 696.661 794.788L701.134 793.879C701.472 793.81 701.776 794.096 701.729 794.438L701.1 798.959C700.994 799.72 701.141 800.495 701.52 801.164L703.767 805.138C703.937 805.438 703.759 805.816 703.419 805.876L698.925 806.675C698.168 806.81 697.477 807.19 696.957 807.756L693.873 811.121C693.64 811.375 693.225 811.323 693.063 811.019L690.914 806.991C690.553 806.313 689.978 805.773 689.278 805.454L685.125 803.56C684.811 803.417 684.733 803.007 684.972 802.758L688.139 799.47C688.672 798.917 689.008 798.203 689.095 797.439L689.613 792.904Z" stroke="white" stroke-width="3"/>
<rect width="120" height="28" transform="translate(182.765 340.942) rotate(-28.7846)" fill="black"/>
<rect x="188.543" y="351.459" width="108" height="4" rx="2" transform="rotate(-28.7846 188.543 351.459)" fill="white"/>
<rect width="375" height="48" transform="translate(480.88 954.166) rotate(-28.7846)" fill="black"/>
<line x1="604.101" y1="900.16" x2="713.655" y2="839.97" stroke="white" stroke-width="4" stroke-linecap="round"/>
</g>
<rect x="115.716" y="285.359" width="371" height="808" rx="30" transform="rotate(-28.7846 115.716 285.359)" stroke="white" stroke-width="4"/>
<g clip-path="url(#clip8_1287_4693)">
<rect x="1062" y="248.569" width="375" height="812" rx="32" transform="rotate(-28.7846 1062 248.569)" fill="black"/>
<rect width="367" height="40" transform="translate(1067.91 251.025) rotate(-28.7846)" fill="black"/>
<line x1="1199.28" y1="199.389" x2="1197.53" y2="200.352" stroke="white" stroke-width="4" stroke-linecap="round"/>
<line x1="1214.18" y1="191.203" x2="1268.52" y2="161.349" stroke="white" stroke-width="4" stroke-linecap="round"/>
<rect x="1154.22" y="341.666" width="78" height="32" rx="16" transform="rotate(-28.7846 1154.22 341.666)" fill="black"/>
<rect x="1154.22" y="341.666" width="78" height="32" rx="16" transform="rotate(-28.7846 1154.22 341.666)" stroke="white" stroke-width="4"/>
<rect x="1240.11" y="294.477" width="78" height="32" rx="16" transform="rotate(-28.7846 1240.11 294.477)" fill="black"/>
<rect x="1240.11" y="294.477" width="78" height="32" rx="16" transform="rotate(-28.7846 1240.11 294.477)" stroke="white" stroke-width="4"/>
<rect x="1326" y="247.288" width="78" height="32" rx="16" transform="rotate(-28.7846 1326 247.288)" fill="black"/>
<rect x="1326" y="247.288" width="78" height="32" rx="16" transform="rotate(-28.7846 1326 247.288)" stroke="white" stroke-width="4"/>
<rect x="1411.9" y="200.099" width="78" height="32" rx="16" transform="rotate(-28.7846 1411.9 200.099)" fill="black"/>
<rect x="1411.9" y="200.099" width="78" height="32" rx="16" transform="rotate(-28.7846 1411.9 200.099)" stroke="white" stroke-width="4"/>
<rect x="1186.04" y="412.04" width="152" height="279" rx="14" transform="rotate(-28.7846 1186.04 412.04)" fill="black"/>
<rect x="1186.04" y="412.04" width="152" height="279" rx="14" transform="rotate(-28.7846 1186.04 412.04)" stroke="white" stroke-width="4"/>
<path d="M1417.93 560.312C1417.24 560.11 1416.51 560.047 1415.79 560.126C1415.07 560.205 1414.38 560.425 1413.74 560.773C1413.11 561.121 1412.55 561.59 1412.1 562.154C1411.65 562.718 1411.31 563.365 1411.11 564.059L1410.69 565.498L1409.25 565.079C1407.85 564.672 1406.35 564.838 1405.07 565.54C1403.79 566.243 1402.84 567.425 1402.43 568.826C1402.03 570.227 1402.19 571.732 1402.9 573.011C1403.6 574.29 1404.78 575.237 1406.18 575.644L1407.62 576.063L1418.18 579.135L1421.26 568.57L1421.68 567.131C1421.88 566.437 1421.94 565.711 1421.86 564.993C1421.78 564.274 1421.56 563.579 1421.22 562.946C1420.87 562.312 1420.4 561.754 1419.83 561.302C1419.27 560.85 1418.62 560.514 1417.93 560.312V560.312Z" stroke="white" stroke-width="3" stroke-linecap="round" stroke-linejoin="round"/>
<rect x="1362.41" y="539.917" width="46" height="16" rx="8" transform="rotate(-28.7846 1362.41 539.917)" fill="black"/>
<rect x="1362.41" y="539.917" width="46" height="16" rx="8" transform="rotate(-28.7846 1362.41 539.917)" stroke="white" stroke-width="4"/>
<rect width="118" height="28" transform="translate(1273.96 532.604) rotate(-28.7846)" fill="black"/>
<rect x="1279.74" y="543.121" width="106" height="4" rx="2" transform="rotate(-28.7846 1279.74 543.121)" fill="white"/>
<rect x="1289.37" y="560.65" width="67" height="4" rx="2" transform="rotate(-28.7846 1289.37 560.65)" fill="white"/>
<rect width="67" height="4" transform="translate(1322.59 621.124) rotate(-28.7846)" fill="black"/>
<rect x="1328.37" y="631.641" width="55" height="4" rx="2" transform="rotate(-28.7846 1328.37 631.641)" fill="white"/>
<rect x="1211.84" y="419.544" width="114" height="108" rx="22" transform="rotate(-28.7846 1211.84 419.544)" fill="black"/>
<rect x="1211.84" y="419.544" width="114" height="108" rx="22" transform="rotate(-28.7846 1211.84 419.544)" stroke="white" stroke-width="4"/>
<path d="M1296.91 443.547C1301.41 451.733 1298.27 462.195 1289.76 466.873C1281.25 471.551 1270.73 468.586 1266.24 460.4C1261.74 452.214 1264.87 441.752 1273.39 437.074C1281.9 432.397 1292.41 435.361 1296.91 443.547Z" fill="black" stroke="white" stroke-width="4"/>
<path d="M1283.55 446.326L1284.35 408.23L1316.94 427.978L1283.55 446.326Z" fill="black" stroke="white" stroke-width="4"/>
<path d="M1305.56 570.205C1305.6 569.863 1305.97 569.662 1306.28 569.812L1310.38 571.808C1311.07 572.144 1311.86 572.243 1312.61 572.09L1317.08 571.18C1317.42 571.112 1317.72 571.398 1317.68 571.739L1317.05 576.261C1316.94 577.022 1317.09 577.797 1317.47 578.466L1319.72 582.439C1319.89 582.74 1319.71 583.117 1319.37 583.178L1314.87 583.977C1314.12 584.111 1313.42 584.491 1312.91 585.058L1309.82 588.423C1309.59 588.677 1309.17 588.625 1309.01 588.32L1306.86 584.293C1306.5 583.615 1305.93 583.074 1305.23 582.755L1301.07 580.862C1300.76 580.719 1300.68 580.308 1300.92 580.06L1304.09 576.772C1304.62 576.218 1304.96 575.505 1305.04 574.741L1305.56 570.205Z" stroke="white" stroke-width="3"/>
<path d="M1334.48 554.315C1334.52 553.973 1334.89 553.772 1335.2 553.922L1339.3 555.918C1339.99 556.254 1340.78 556.353 1341.53 556.2L1346 555.29C1346.34 555.222 1346.65 555.508 1346.6 555.849L1345.97 560.371C1345.86 561.132 1346.01 561.907 1346.39 562.576L1348.64 566.549C1348.81 566.849 1348.63 567.227 1348.29 567.288L1343.8 568.087C1343.04 568.221 1342.35 568.601 1341.83 569.168L1338.74 572.533C1338.51 572.787 1338.1 572.734 1337.93 572.43L1335.78 568.403C1335.42 567.724 1334.85 567.184 1334.15 566.865L1329.99 564.972C1329.68 564.829 1329.6 564.418 1329.84 564.17L1333.01 560.882C1333.54 560.328 1333.88 559.614 1333.97 558.851L1334.48 554.315Z" stroke="white" stroke-width="3"/>
<rect x="1342.05" y="696.006" width="152" height="279" rx="14" transform="rotate(-28.7846 1342.05 696.006)" fill="black"/>
<rect x="1342.05" y="696.006" width="152" height="279" rx="14" transform="rotate(-28.7846 1342.05 696.006)" stroke="white" stroke-width="4"/>
<rect width="118" height="28" transform="translate(1429.97 816.569) rotate(-28.7846)" fill="black"/>
<rect x="1435.75" y="827.086" width="106" height="4" rx="2" transform="rotate(-28.7846 1435.75 827.086)" fill="white"/>
<rect x="1367.85" y="703.509" width="114" height="108" rx="22" transform="rotate(-28.7846 1367.85 703.509)" fill="black"/>
<rect x="1367.85" y="703.509" width="114" height="108" rx="22" transform="rotate(-28.7846 1367.85 703.509)" stroke="white" stroke-width="4"/>
<path d="M1452.92 727.512C1457.42 735.698 1454.29 746.161 1445.77 750.838C1437.26 755.516 1426.75 752.552 1422.25 744.366C1417.75 736.179 1420.89 725.717 1429.4 721.04C1437.92 716.362 1448.43 719.326 1452.92 727.512Z" fill="black" stroke="white" stroke-width="4"/>
<path d="M1439.56 730.292L1440.37 692.195L1472.96 711.943L1439.56 730.292Z" fill="black" stroke="white" stroke-width="4"/>
<rect x="1334.16" y="330.664" width="152" height="279" rx="14" transform="rotate(-28.7846 1334.16 330.664)" fill="black"/>
<rect x="1334.16" y="330.664" width="152" height="279" rx="14" transform="rotate(-28.7846 1334.16 330.664)" stroke="white" stroke-width="4"/>
<rect width="118" height="28" transform="translate(1422.08 451.227) rotate(-28.7846)" fill="black"/>
<rect x="1427.85" y="461.745" width="106" height="4" rx="2" transform="rotate(-28.7846 1427.85 461.745)" fill="white"/>
<rect x="1437.48" y="479.273" width="67" height="4" rx="2" transform="rotate(-28.7846 1437.48 479.273)" fill="white"/>
<rect x="1359.96" y="338.167" width="114" height="108" rx="22" transform="rotate(-28.7846 1359.96 338.167)" fill="black"/>
<rect x="1359.96" y="338.167" width="114" height="108" rx="22" transform="rotate(-28.7846 1359.96 338.167)" stroke="white" stroke-width="4"/>
<path d="M1445.03 362.17C1449.53 370.357 1446.39 380.819 1437.88 385.496C1429.36 390.174 1418.85 387.21 1414.35 379.024C1409.86 370.838 1412.99 360.375 1421.51 355.698C1430.02 351.02 1440.53 353.984 1445.03 362.17Z" fill="black" stroke="white" stroke-width="4"/>
<path d="M1431.66 364.95L1432.47 326.853L1465.06 346.601L1431.66 364.95Z" fill="black" stroke="white" stroke-width="4"/>
<rect width="120" height="28" transform="translate(1131.76 304.942) rotate(-28.7846)" fill="black"/>
<rect x="1137.54" y="315.459" width="108" height="4" rx="2" transform="rotate(-28.7846 1137.54 315.459)" fill="white"/>
<rect width="375" height="48" transform="translate(1429.88 918.166) rotate(-28.7846)" fill="black"/>
</g>
<rect x="1064.72" y="249.359" width="371" height="808" rx="30" transform="rotate(-28.7846 1064.72 249.359)" stroke="white" stroke-width="4"/>
<g filter="url(#filter0_b_1287_4693)">
<rect width="1440" height="1231" fill="url(#paint0_linear_1287_4693)"/>
</g>
<defs>
<filter id="filter0_b_1287_4693" x="-16" y="-16" width="1472" height="1263" filterUnits="userSpaceOnUse" color-interpolation-filters="sRGB">
<feFlood flood-opacity="0" result="BackgroundImageFix"/>
<feGaussianBlur in="BackgroundImageFix" stdDeviation="8"/>
<feComposite in2="SourceAlpha" operator="in" result="effect1_backgroundBlur_1287_4693"/>
<feBlend mode="normal" in="SourceGraphic" in2="effect1_backgroundBlur_1287_4693" result="shape"/>
</filter>
<linearGradient id="paint0_linear_1287_4693" x1="720" y1="0" x2="720" y2="1231" gradientUnits="userSpaceOnUse">
<stop offset="0.0653612" stop-color="#121212"/>
<stop offset="0.57325" stop-color="#121212" stop-opacity="0.72"/>
<stop offset="1" stop-color="#121212" stop-opacity="0"/>
</linearGradient>
<clipPath id="clip0_1287_4693">
<rect x="-318" y="356.57" width="375" height="812" rx="32" transform="rotate(-28.7846 -318 356.57)" fill="white"/>
</clipPath>
<clipPath id="clip1_1287_4693">
<rect x="-215.048" y="460.886" width="295" height="182" rx="32" transform="rotate(-28.7846 -215.048 460.886)" fill="white"/>
</clipPath>
<clipPath id="clip2_1287_4693">
<rect width="24" height="24" fill="white" transform="translate(-22.0659 278.415) rotate(-28.7846)"/>
</clipPath>
<clipPath id="clip3_1287_4693">
<rect x="602" y="298.569" width="375" height="812" rx="32" transform="rotate(-28.7846 602 298.569)" fill="white"/>
</clipPath>
<clipPath id="clip4_1287_4693">
<rect x="704.951" y="402.886" width="295" height="182" rx="32" transform="rotate(-28.7846 704.951 402.886)" fill="white"/>
</clipPath>
<clipPath id="clip5_1287_4693">
<rect width="24" height="24" fill="white" transform="translate(684.959 337.424) rotate(-28.7846)"/>
</clipPath>
<clipPath id="clip6_1287_4693">
<rect width="24" height="24" fill="white" transform="translate(897.934 220.415) rotate(-28.7846)"/>
</clipPath>
<clipPath id="clip7_1287_4693">
<rect x="113" y="284.569" width="375" height="812" rx="32" transform="rotate(-28.7846 113 284.569)" fill="white"/>
</clipPath>
<clipPath id="clip8_1287_4693">
<rect x="1062" y="248.569" width="375" height="812" rx="32" transform="rotate(-28.7846 1062 248.569)" fill="white"/>
</clipPath>
</defs>
</svg>
