<svg width="60" height="70" viewBox="0 0 88 100" fill="none" xmlns="http://www.w3.org/2000/svg">
<rect x="1.5" y="1.5" width="85" height="97" rx="16.5" stroke="#9162FA" stroke-width="2"/>
<path d="M33.6919 54.6906C33.6919 56.7464 32.0127 58.4257 29.9571 58.4257C27.9014 58.4257 26.2222 56.7464 26.2222 54.6906C26.2222 52.6349 27.9014 50.9556 29.9571 50.9556H33.6919V54.6906Z" fill="#E01E5A"/>
<path d="M35.573 54.6907C35.573 52.6349 37.2522 50.9556 39.3078 50.9556C41.3635 50.9556 43.0427 52.6349 43.0427 54.6907V64.0428C43.0427 66.0986 41.3635 67.7779 39.3078 67.7779C37.2522 67.7779 35.573 66.0986 35.573 64.0428V54.6907Z" fill="#E01E5A"/>
<path d="M39.3078 39.6923C37.2522 39.6923 35.573 38.013 35.573 35.9572C35.573 33.9015 37.2522 32.2222 39.3078 32.2222C41.3635 32.2222 43.0427 33.9015 43.0427 35.9572V39.6923H39.3078Z" fill="#36C5F0"/>
<path d="M39.3087 41.5743C41.3644 41.5743 43.0436 43.2536 43.0436 45.3094C43.0436 47.3651 41.3644 49.0444 39.3087 49.0444H29.9571C27.9014 49.0444 26.2222 47.3651 26.2222 45.3094C26.2222 43.2536 27.9014 41.5743 29.9571 41.5743H39.3087Z" fill="#36C5F0"/>
<path d="M54.3068 45.3093C54.3068 43.2536 55.9861 41.5742 58.0417 41.5742C60.0973 41.5742 61.7766 43.2536 61.7766 45.3093C61.7766 47.365 60.0973 49.0444 58.0417 49.0444H54.3068V45.3093Z" fill="#2EB67D"/>
<path d="M52.4258 45.3094C52.4258 47.3651 50.7465 49.0444 48.6909 49.0444C46.6353 49.0444 44.956 47.3651 44.956 45.3094V35.9572C44.956 33.9015 46.6353 32.2222 48.6909 32.2222C50.7465 32.2222 52.4258 33.9015 52.4258 35.9572V45.3094Z" fill="#2EB67D"/>
<path d="M48.6909 60.3078C50.7465 60.3078 52.4258 61.9871 52.4258 64.0429C52.4258 66.0986 50.7465 67.7779 48.6909 67.7779C46.6353 67.7779 44.956 66.0986 44.956 64.0429V60.3078H48.6909Z" fill="#ECB22E"/>
<path d="M48.6909 58.4258C46.6353 58.4258 44.956 56.7465 44.956 54.6907C44.956 52.635 46.6353 50.9557 48.6909 50.9557H58.0426C60.0982 50.9557 61.7775 52.635 61.7775 54.6907C61.7775 56.7465 60.0982 58.4258 58.0426 58.4258H48.6909Z" fill="#ECB22E"/>
</svg>
