<svg width="60" height="70" viewBox="0 0 88 100" fill="none" xmlns="http://www.w3.org/2000/svg">
<rect x="1.5" y="1.5" width="85" height="97" rx="16.5" stroke="#9162FA" stroke-width="2"/>
<mask id="mask0_969_13421" style="mask-type:alpha" maskUnits="userSpaceOnUse" x="26" y="32" width="36" height="36">
<path fill-rule="evenodd" clip-rule="evenodd" d="M51.4353 67.5353C51.9953 67.7534 52.6338 67.7395 53.1991 67.4675L60.5193 63.9451C61.2886 63.5749 61.7777 62.7965 61.7777 61.9424V38.0584C61.7777 37.2043 61.2886 36.4258 60.5194 36.0557L53.1991 32.5332C52.4573 32.1763 51.5891 32.2637 50.9381 32.737C50.8451 32.8046 50.7565 32.8801 50.6734 32.9633L36.6595 45.7484L30.5554 41.1148C29.9871 40.6835 29.1923 40.7188 28.6646 41.1989L26.7068 42.9798C26.0613 43.567 26.0605 44.5826 26.7052 45.1708L31.9989 50.0003L26.7052 54.8299C26.0605 55.418 26.0613 56.4337 26.7068 57.0209L28.6646 58.8018C29.1923 59.2818 29.9871 59.3172 30.5554 58.8858L36.6595 54.2523L50.6734 67.0373C50.8951 67.2592 51.1554 67.4262 51.4353 67.5353ZM52.8942 41.9288L42.261 50.0003L52.8942 58.0718V41.9288Z" fill="white"/>
</mask>
<g mask="url(#mask0_969_13421)">
<path d="M60.5197 36.0608L53.1936 32.5334C52.3456 32.1251 51.3322 32.2973 50.6667 32.9628L26.684 54.8295C26.0389 55.4176 26.0397 56.4332 26.6856 57.0204L28.6446 58.8013C29.1727 59.2814 29.968 59.3167 30.5365 58.8854L59.4173 36.9758C60.3862 36.2408 61.7779 36.9319 61.7779 38.148V38.063C61.7779 37.2093 61.2888 36.4311 60.5197 36.0608Z" fill="#0065A9"/>
<g filter="url(#filter0_d_969_13421)">
<path d="M60.5202 63.9387L53.1941 67.4661C52.3461 67.8744 51.3327 67.7021 50.6672 67.0366L26.6845 45.17C26.0394 44.5819 26.0402 43.5663 26.6861 42.9791L28.6451 41.1982C29.1732 40.7181 29.9685 40.6827 30.537 41.1141L59.4178 63.0236C60.3867 63.7586 61.7783 63.0676 61.7783 61.8514V61.9365C61.7783 62.7901 61.2893 63.5684 60.5202 63.9387Z" fill="#007ACC"/>
</g>
<g filter="url(#filter1_d_969_13421)">
<path d="M53.1947 67.467C52.3465 67.8751 51.333 67.7024 50.6675 67.0369C51.4875 67.8569 52.8897 67.2761 52.8897 66.1164V33.8833C52.8897 32.7235 51.4875 32.1427 50.6675 32.9628C51.333 32.2972 52.3465 32.1248 53.1947 32.5327L60.5195 36.0552C61.2891 36.4253 61.7786 37.2038 61.7786 38.0579V61.9419C61.7786 62.796 61.2891 63.5745 60.5194 63.9446L53.1947 67.467Z" fill="#1F9CF0"/>
</g>
<g style="mix-blend-mode:overlay" opacity="0.25">
<path fill-rule="evenodd" clip-rule="evenodd" d="M51.4143 67.5349C51.9743 67.7531 52.6129 67.7391 53.1781 67.4671L60.4983 63.9447C61.2675 63.5746 61.7567 62.7961 61.7567 61.942V38.058C61.7567 37.2039 61.2676 36.4254 60.4984 36.0553L53.1781 32.5328C52.4363 32.1759 51.5681 32.2633 50.9171 32.7366C50.8241 32.8042 50.7355 32.8797 50.6524 32.9629L36.6385 45.748L30.5344 41.1145C29.9662 40.6831 29.1714 40.7185 28.6436 41.1985L26.6858 42.9794C26.0403 43.5667 26.0395 44.5822 26.6842 45.1704L31.9779 50L26.6842 54.8295C26.0395 55.4177 26.0403 56.4333 26.6858 57.0205L28.6436 58.8014C29.1714 59.2814 29.9662 59.3168 30.5344 58.8855L36.6385 54.2519L50.6524 67.037C50.8741 67.2588 51.1344 67.4259 51.4143 67.5349ZM52.8732 41.9285L42.24 50L52.8732 58.0715V41.9285Z" fill="url(#paint0_linear_969_13421)"/>
</g>
</g>
<defs>
<filter id="filter0_d_969_13421" x="19.5345" y="34.1462" width="48.9105" height="40.2059" filterUnits="userSpaceOnUse" color-interpolation-filters="sRGB">
<feFlood flood-opacity="0" result="BackgroundImageFix"/>
<feColorMatrix in="SourceAlpha" type="matrix" values="0 0 0 0 0 0 0 0 0 0 0 0 0 0 0 0 0 0 127 0" result="hardAlpha"/>
<feOffset/>
<feGaussianBlur stdDeviation="3.33334"/>
<feColorMatrix type="matrix" values="0 0 0 0 0 0 0 0 0 0 0 0 0 0 0 0 0 0 0.25 0"/>
<feBlend mode="overlay" in2="BackgroundImageFix" result="effect1_dropShadow_969_13421"/>
<feBlend mode="normal" in="SourceGraphic" in2="effect1_dropShadow_969_13421" result="shape"/>
</filter>
<filter id="filter1_d_969_13421" x="44.0008" y="25.647" width="24.4447" height="48.7057" filterUnits="userSpaceOnUse" color-interpolation-filters="sRGB">
<feFlood flood-opacity="0" result="BackgroundImageFix"/>
<feColorMatrix in="SourceAlpha" type="matrix" values="0 0 0 0 0 0 0 0 0 0 0 0 0 0 0 0 0 0 127 0" result="hardAlpha"/>
<feOffset/>
<feGaussianBlur stdDeviation="3.33334"/>
<feColorMatrix type="matrix" values="0 0 0 0 0 0 0 0 0 0 0 0 0 0 0 0 0 0 0.25 0"/>
<feBlend mode="overlay" in2="BackgroundImageFix" result="effect1_dropShadow_969_13421"/>
<feBlend mode="normal" in="SourceGraphic" in2="effect1_dropShadow_969_13421" result="shape"/>
</filter>
<linearGradient id="paint0_linear_969_13421" x1="43.9789" y1="32.3138" x2="43.9789" y2="67.6861" gradientUnits="userSpaceOnUse">
<stop stop-color="white"/>
<stop offset="1" stop-color="white" stop-opacity="0"/>
</linearGradient>
</defs>
</svg>
