<svg width="60" height="70" viewBox="0 0 88 100" fill="none" xmlns="http://www.w3.org/2000/svg">
<rect x="1.5" y="1.5" width="85" height="97" rx="16.5" stroke="#9162FA" stroke-width="2"/>
<path d="M53.7777 32.2222C58.196 32.2222 61.7777 35.8039 61.7777 40.2222V59.7777C61.7777 64.196 58.196 67.7777 53.7777 67.7777H34.2222C29.8039 67.7777 26.2222 64.196 26.2222 59.7777V40.2222C26.2222 35.8039 29.8039 32.2222 34.2222 32.2222H53.7777Z" fill="#4353FF"/>
<path d="M50.3022 47.1201C50.3022 47.1201 48.4977 52.7734 48.3644 53.2534C48.3111 52.7823 46.9955 42.6223 46.9955 42.6223C43.9199 42.6223 42.2844 44.809 41.4133 47.1201C41.4133 47.1201 39.2177 52.7912 39.0399 53.2623C39.0311 52.8179 38.7022 47.1734 38.7022 47.1734C38.5155 44.3379 35.9288 42.6223 33.8311 42.6223L36.3555 58.009C39.5733 58.0001 41.3066 55.8223 42.2133 53.5023C42.2133 53.5023 44.1422 48.4979 44.2222 48.2756C44.2399 48.489 45.6088 58.009 45.6088 58.009C48.8355 58.009 50.5777 55.9734 51.5111 53.7423L56.0355 42.6223C52.8444 42.6223 51.1644 44.8001 50.3022 47.1201Z" fill="white"/>
</svg>
