<svg width="60" height="70" viewBox="0 0 88 100" fill="none" xmlns="http://www.w3.org/2000/svg">
<rect x="1.5" y="1.5" width="85" height="97" rx="16.5" stroke="#9162FA" stroke-width="2"/>
<path d="M55.4814 32.2213H32.5185C29.0411 32.2213 26.2222 35.0403 26.2222 38.5176V60.5919C26.2222 64.0692 29.0411 66.8882 32.5185 66.8882H55.4814C58.9588 66.8882 61.7777 64.0692 61.7777 60.5919V38.5176C61.7777 35.0403 58.9588 32.2213 55.4814 32.2213Z" fill="#470137"/>
<path d="M44.9109 41.339L40.4744 48.6616L45.2209 56.4373C45.2514 56.4917 45.2599 56.5557 45.2448 56.6162C45.2287 56.6721 45.1732 56.6369 45.0778 56.6525H41.6909C41.4523 56.6525 41.2854 56.6441 41.19 56.485C40.8717 55.8649 40.5537 55.2487 40.2359 54.6365C39.9176 54.0245 39.5797 53.4004 39.2222 52.7641C38.8644 52.1283 38.5106 51.4843 38.1608 50.8321H38.1369C37.8186 51.4683 37.4887 52.1043 37.1471 52.7403C36.805 53.3764 36.4671 54.0085 36.1334 54.6365C35.7995 55.2648 35.4576 55.889 35.1078 56.5089C35.0441 56.652 34.9326 56.6668 34.7738 56.6668H31.5061C31.4428 56.6668 31.407 56.6919 31.3988 56.6281C31.3898 56.57 31.4026 56.5105 31.4346 56.4612L36.038 48.9001L31.5538 41.3151C31.5061 41.2518 31.4982 41.2001 31.5299 41.1601C31.5476 41.1398 31.5697 41.1238 31.5945 41.1134C31.6193 41.1031 31.6463 41.0986 31.6731 41.1005H35.0362C35.1095 41.0964 35.1828 41.1087 35.2509 41.1363C35.3079 41.1686 35.3568 41.2134 35.394 41.2675C35.6802 41.9036 35.9982 42.5397 36.348 43.1756C36.6976 43.8118 37.0514 44.4399 37.4094 45.0599C37.7672 45.6801 38.0972 46.3082 38.3993 46.9442H38.4232C38.741 46.2924 39.063 45.6563 39.3892 45.0361C39.7149 44.4159 40.0488 43.7918 40.3909 43.1637C40.7327 42.5357 41.0627 41.9116 41.3808 41.2913C41.3991 41.2324 41.4319 41.1791 41.4762 41.1363C41.5351 41.1064 41.6013 41.094 41.667 41.1005H44.7916C44.8217 41.093 44.8535 41.0961 44.8816 41.1091C44.9098 41.1221 44.9327 41.1443 44.9466 41.172C44.9605 41.1998 44.9645 41.2314 44.958 41.2618C44.9515 41.2921 44.9349 41.3194 44.9109 41.339Z" fill="#FF61F6"/>
<path d="M51.7535 56.9615C50.6556 56.9782 49.5679 56.7501 48.5692 56.2937C47.639 55.8631 46.8613 55.1603 46.3391 54.2782C45.7983 53.38 45.528 52.255 45.5282 50.9031C45.5192 49.8084 45.7989 48.7307 46.3391 47.7785C46.8956 46.8086 47.7139 46.0151 48.7005 45.4887C49.7339 44.9163 50.9821 44.63 52.4452 44.63C52.5245 44.63 52.6279 44.634 52.7552 44.642C52.8823 44.6502 53.0334 44.6621 53.2084 44.6778V39.9789C53.2084 39.8678 53.2562 39.8119 53.3516 39.8119H56.3569C56.3763 39.8092 56.3961 39.8109 56.4148 39.8172C56.4334 39.8234 56.4503 39.8338 56.4642 39.8477C56.4781 39.8616 56.4886 39.8785 56.4948 39.8971C56.501 39.9158 56.5028 39.9356 56.5 39.955V54.0516C56.5 54.3222 56.5119 54.6163 56.5358 54.9341C56.5596 55.2524 56.5795 55.5386 56.5954 55.7928C56.5984 55.8423 56.5863 55.8916 56.5607 55.9341C56.5352 55.9767 56.4974 56.0106 56.4523 56.0313C55.677 56.3547 54.8694 56.5945 54.0433 56.7468C53.2879 56.8863 52.5216 56.9581 51.7535 56.9615ZM53.2084 54.0039V47.4923C53.0795 47.4574 52.9479 47.4334 52.8149 47.4207C52.6524 47.4044 52.4892 47.3964 52.3259 47.3969C51.7471 47.3911 51.1751 47.5219 50.6563 47.7785C50.151 48.0297 49.7195 48.4078 49.4041 48.8757C49.078 49.3527 48.915 49.9808 48.9151 50.76C48.9035 51.2799 48.9884 51.7975 49.1655 52.2865C49.3097 52.6805 49.5375 53.0386 49.8334 53.336C50.1167 53.6097 50.4596 53.8138 50.8352 53.9323C51.2319 54.0608 51.6465 54.1252 52.0635 54.1231C52.286 54.1231 52.4928 54.1152 52.6837 54.0993C52.8614 54.0859 53.0373 54.0539 53.2084 54.0039Z" fill="#FF61F6"/>
</svg>
